<?xml version="1.0" encoding="UTF-8" standalone="no"?>
<!DOCTYPE svg PUBLIC "-//W3C//DTD SVG 1.1//EN"
 "http://www.w3.org/Graphics/SVG/1.1/DTD/svg11.dtd">
<!-- Generated by graphviz version 2.36.0 (20140111.2315)
 -->
<!-- Title: /home/travis/build/AliceO2Group/AliceO2/Framework/Core/src/DataDescriptorMatcher.cxx Pages: 1 -->
<!--zoomable 322 -->
<svg id="main" version="1.1" xmlns="http://www.w3.org/2000/svg" xmlns:xlink="http://www.w3.org/1999/xlink" xml:space="preserve" onload="init(evt)">
<style type="text/css"><![CDATA[
.edge:hover path { stroke: red; }
.edge:hover polygon { stroke: red; fill: red; }
]]></style>
<script type="text/javascript"><![CDATA[
var edges = document.getElementsByTagName('g');
if (edges && edges.length) {
  for (var i=0;i<edges.length;i++) {
    if (edges[i].id.substr(0,4)=='edge') {
      edges[i].setAttribute('class','edge');
    }
  }
}
]]></script>
        <defs>
                <circle id="rim" cx="0" cy="0" r="7"/>
                <circle id="rim2" cx="0" cy="0" r="3.5"/>
                <g id="zoomPlus">
                        <use xlink:href="#rim" fill="#404040">
                                <set attributeName="fill" to="#808080" begin="zoomplus.mouseover" end="zoomplus.mouseout"/>
                        </use>
                        <path d="M-4,0h8M0,-4v8" fill="none" stroke="white" stroke-width="1.5" pointer-events="none"/>
                </g>
                <g id="zoomMin">
                        <use xlink:href="#rim" fill="#404040">
                                <set attributeName="fill" to="#808080" begin="zoomminus.mouseover" end="zoomminus.mouseout"/>
                        </use>
                        <path d="M-4,0h8" fill="none" stroke="white" stroke-width="1.5" pointer-events="none"/>
                </g>
                <g id="dirArrow">
                        <path fill="none" stroke="white" stroke-width="1.5" d="M0,-3.0v7 M-2.5,-0.5L0,-3.0L2.5,-0.5"/>
                </g>
               <g id="resetDef">
                       <use xlink:href="#rim2" fill="#404040">
                               <set attributeName="fill" to="#808080" begin="reset.mouseover" end="reset.mouseout"/>
                       </use>
               </g>
        </defs>

<script type="text/javascript">
var viewWidth = 2096;
var viewHeight = 322;
var sectionId = 'dynsection-0';
</script>
<script xlink:href="../../svgpan.js"/>
<svg id="graph" class="graph">
<g id="viewport">
<title>/home/travis/build/AliceO2Group/AliceO2/Framework/Core/src/DataDescriptorMatcher.cxx</title>
<!-- Node1 -->
<g id="node1" class="node"><title>Node1</title>
<polygon fill="#bfbfbf" stroke="black" points="518,-261 518,-313 696,-313 696,-261 518,-261"/>
<text text-anchor="start" x="526" y="-301" font-family="Helvetica,sans-Serif" font-size="10.00">/home/travis/build</text>
<text text-anchor="start" x="526" y="-290" font-family="Helvetica,sans-Serif" font-size="10.00">/AliceO2Group/AliceO2</text>
<text text-anchor="start" x="526" y="-279" font-family="Helvetica,sans-Serif" font-size="10.00">/Framework/Core/src/DataDescriptor</text>
<text text-anchor="middle" x="607" y="-268" font-family="Helvetica,sans-Serif" font-size="10.00">Matcher.cxx</text>
</g>
<!-- Node2 -->
<g id="node2" class="node"><title>Node2</title>
<g id="a_node2"><a xlink:href="../../d3/da3/DataDescriptorMatcher_8h.html" target="_top" xlink:title="Framework/DataDescriptor\lMatcher.h">
<polygon fill="none" stroke="black" points="540,-193 540,-223 674,-223 674,-193 540,-193"/>
<text text-anchor="start" x="548" y="-211" font-family="Helvetica,sans-Serif" font-size="10.00">Framework/DataDescriptor</text>
<text text-anchor="middle" x="607" y="-200" font-family="Helvetica,sans-Serif" font-size="10.00">Matcher.h</text>
</a>
</g>
</g>
<!-- Node1&#45;&gt;Node2 -->
<g id="edge1" class="edge"><title>Node1&#45;&gt;Node2</title>
<path fill="none" stroke="midnightblue" d="M607,-260.787C607,-252.029 607,-242.225 607,-233.523"/>
<polygon fill="midnightblue" stroke="midnightblue" points="610.5,-233.252 607,-223.252 603.5,-233.252 610.5,-233.252"/>
</g>
<!-- Node13 -->
<g id="node13" class="node"><title>Node13</title>
<g id="a_node13"><a xlink:href="../../d6/dc9/DataProcessingHeader_8h.html" target="_top" xlink:title="Framework/DataProcessing\lHeader.h">
<polygon fill="none" stroke="black" points="139,-125 139,-155 277,-155 277,-125 139,-125"/>
<text text-anchor="start" x="147" y="-143" font-family="Helvetica,sans-Serif" font-size="10.00">Framework/DataProcessing</text>
<text text-anchor="middle" x="208" y="-132" font-family="Helvetica,sans-Serif" font-size="10.00">Header.h</text>
</a>
</g>
</g>
<!-- Node1&#45;&gt;Node13 -->
<g id="edge44" class="edge"><title>Node1&#45;&gt;Node13</title>
<path fill="none" stroke="midnightblue" d="M537.955,-260.908C457.431,-231.646 326.415,-184.033 256.148,-158.497"/>
<polygon fill="midnightblue" stroke="midnightblue" points="257.241,-155.171 246.647,-155.045 254.85,-161.75 257.241,-155.171"/>
</g>
<!-- Node33 -->
<g id="node33" class="node"><title>Node33</title>
<polygon fill="none" stroke="#bfbfbf" points="692,-198.5 692,-217.5 746,-217.5 746,-198.5 692,-198.5"/>
<text text-anchor="middle" x="719" y="-205.5" font-family="Helvetica,sans-Serif" font-size="10.00">iostream</text>
</g>
<!-- Node1&#45;&gt;Node33 -->
<g id="edge45" class="edge"><title>Node1&#45;&gt;Node33</title>
<path fill="none" stroke="midnightblue" d="M643.673,-260.787C661.805,-248.321 683.019,-233.737 698.305,-223.228"/>
<polygon fill="midnightblue" stroke="midnightblue" points="700.295,-226.107 706.552,-217.558 696.329,-220.339 700.295,-226.107"/>
</g>
<!-- Node3 -->
<g id="node3" class="node"><title>Node3</title>
<g id="a_node3"><a xlink:href="../../d0/d1b/ConcreteDataMatcher_8h.html" target="_top" xlink:title="Framework/ConcreteDataMatcher.h">
<polygon fill="none" stroke="black" points="334.5,-130.5 334.5,-149.5 507.5,-149.5 507.5,-130.5 334.5,-130.5"/>
<text text-anchor="middle" x="421" y="-137.5" font-family="Helvetica,sans-Serif" font-size="10.00">Framework/ConcreteDataMatcher.h</text>
</a>
</g>
</g>
<!-- Node2&#45;&gt;Node3 -->
<g id="edge2" class="edge"><title>Node2&#45;&gt;Node3</title>
<path fill="none" stroke="midnightblue" d="M567.098,-192.841C533.675,-180.982 486.492,-164.239 454.879,-153.022"/>
<polygon fill="midnightblue" stroke="midnightblue" points="455.794,-149.632 445.199,-149.587 453.453,-156.229 455.794,-149.632"/>
</g>
<!-- Node4 -->
<g id="node4" class="node"><title>Node4</title>
<g id="a_node4"><a xlink:href="../../dc/dcd/DataHeader_8h.html" target="_top" xlink:title="Headers/DataHeader.h">
<polygon fill="none" stroke="black" points="247.5,-68.5 247.5,-87.5 364.5,-87.5 364.5,-68.5 247.5,-68.5"/>
<text text-anchor="middle" x="306" y="-75.5" font-family="Helvetica,sans-Serif" font-size="10.00">Headers/DataHeader.h</text>
</a>
</g>
</g>
<!-- Node2&#45;&gt;Node4 -->
<g id="edge18" class="edge"><title>Node2&#45;&gt;Node4</title>
<path fill="none" stroke="midnightblue" d="M539.758,-203.13C466.396,-197.514 355.332,-184.478 325,-156 309.19,-141.156 305.642,-115.432 305.252,-97.8334"/>
<polygon fill="midnightblue" stroke="midnightblue" points="308.754,-97.6732 305.355,-87.6384 301.754,-97.6025 308.754,-97.6732"/>
</g>
<!-- Node5 -->
<g id="node5" class="node"><title>Node5</title>
<polygon fill="none" stroke="#bfbfbf" points="0,-6.5 0,-25.5 46,-25.5 46,-6.5 0,-6.5"/>
<text text-anchor="middle" x="23" y="-13.5" font-family="Helvetica,sans-Serif" font-size="10.00">cstdint</text>
</g>
<!-- Node2&#45;&gt;Node5 -->
<g id="edge38" class="edge"><title>Node2&#45;&gt;Node5</title>
<path fill="none" stroke="midnightblue" d="M539.739,-206.243C425.334,-203.907 198.573,-194.414 130,-156 79.8719,-127.919 45.5135,-65.7288 30.9084,-34.9592"/>
<polygon fill="midnightblue" stroke="midnightblue" points="34.0686,-33.454 26.7183,-25.8235 27.7059,-36.3723 34.0686,-33.454"/>
</g>
<!-- Node11 -->
<g id="node11" class="node"><title>Node11</title>
<polygon fill="none" stroke="#bfbfbf" points="418.5,-6.5 418.5,-25.5 459.5,-25.5 459.5,-6.5 418.5,-6.5"/>
<text text-anchor="middle" x="439" y="-13.5" font-family="Helvetica,sans-Serif" font-size="10.00">string</text>
</g>
<!-- Node2&#45;&gt;Node11 -->
<g id="edge40" class="edge"><title>Node2&#45;&gt;Node11</title>
<path fill="none" stroke="midnightblue" d="M615.811,-192.844C625.352,-175.527 637.624,-145.826 625,-124 620.422,-116.085 513.452,-57.3685 463.847,-30.4333"/>
<polygon fill="midnightblue" stroke="midnightblue" points="465.473,-27.3335 455.014,-25.6436 462.136,-33.4871 465.473,-27.3335"/>
</g>
<!-- Node2&#45;&gt;Node13 -->
<g id="edge12" class="edge"><title>Node2&#45;&gt;Node13</title>
<path fill="none" stroke="midnightblue" d="M539.968,-196.47C476.163,-186.37 377.471,-170.549 292,-156 290.494,-155.744 288.973,-155.484 287.441,-155.221"/>
<polygon fill="midnightblue" stroke="midnightblue" points="287.652,-151.705 277.202,-153.449 286.459,-158.603 287.652,-151.705"/>
</g>
<!-- Node15 -->
<g id="node15" class="node"><title>Node15</title>
<g id="a_node15"><a xlink:href="../../d4/d00/Headers_2include_2Headers_2Stack_8h.html" target="_top" xlink:title="Headers/Stack.h">
<polygon fill="none" stroke="black" points="526,-130.5 526,-149.5 616,-149.5 616,-130.5 526,-130.5"/>
<text text-anchor="middle" x="571" y="-137.5" font-family="Helvetica,sans-Serif" font-size="10.00">Headers/Stack.h</text>
</a>
</g>
</g>
<!-- Node2&#45;&gt;Node15 -->
<g id="edge19" class="edge"><title>Node2&#45;&gt;Node15</title>
<path fill="none" stroke="midnightblue" d="M599.189,-192.679C593.742,-182.694 586.44,-169.307 580.633,-158.66"/>
<polygon fill="midnightblue" stroke="midnightblue" points="583.677,-156.931 575.815,-149.828 577.531,-160.283 583.677,-156.931"/>
</g>
<!-- Node23 -->
<g id="node23" class="node"><title>Node23</title>
<polygon fill="none" stroke="#bfbfbf" points="2044,-6.5 2044,-25.5 2088,-25.5 2088,-6.5 2044,-6.5"/>
<text text-anchor="middle" x="2066" y="-13.5" font-family="Helvetica,sans-Serif" font-size="10.00">vector</text>
</g>
<!-- Node2&#45;&gt;Node23 -->
<g id="edge42" class="edge"><title>Node2&#45;&gt;Node23</title>
<path fill="none" stroke="midnightblue" d="M617.905,-192.744C633.769,-173.238 665.248,-138.951 701,-124 769.535,-95.3387 1963.21,-51.0805 2035,-32 2037.34,-31.3781 2039.72,-30.5775 2042.06,-29.6703"/>
<polygon fill="midnightblue" stroke="midnightblue" points="2043.61,-32.8083 2051.31,-25.5263 2040.75,-26.4199 2043.61,-32.8083"/>
</g>
<!-- Node29 -->
<g id="node29" class="node"><title>Node29</title>
<polygon fill="none" stroke="#bfbfbf" points="710,-130.5 710,-149.5 748,-149.5 748,-130.5 710,-130.5"/>
<text text-anchor="middle" x="729" y="-137.5" font-family="Helvetica,sans-Serif" font-size="10.00">array</text>
</g>
<!-- Node2&#45;&gt;Node29 -->
<g id="edge37" class="edge"><title>Node2&#45;&gt;Node29</title>
<path fill="none" stroke="midnightblue" d="M633.172,-192.841C654.18,-181.476 683.475,-165.628 704.13,-154.454"/>
<polygon fill="midnightblue" stroke="midnightblue" points="705.822,-157.519 712.952,-149.682 702.491,-151.362 705.822,-157.519"/>
</g>
<!-- Node30 -->
<g id="node30" class="node"><title>Node30</title>
<polygon fill="none" stroke="#bfbfbf" points="766.5,-130.5 766.5,-149.5 811.5,-149.5 811.5,-130.5 766.5,-130.5"/>
<text text-anchor="middle" x="789" y="-137.5" font-family="Helvetica,sans-Serif" font-size="10.00">iosfwd</text>
</g>
<!-- Node2&#45;&gt;Node30 -->
<g id="edge39" class="edge"><title>Node2&#45;&gt;Node30</title>
<path fill="none" stroke="midnightblue" d="M652.438,-192.997C682.433,-183.401 722.431,-169.929 757,-156 758.643,-155.338 760.323,-154.634 762.01,-153.907"/>
<polygon fill="midnightblue" stroke="midnightblue" points="763.871,-156.907 771.549,-149.606 760.994,-150.526 763.871,-156.907"/>
</g>
<!-- Node31 -->
<g id="node31" class="node"><title>Node31</title>
<polygon fill="none" stroke="#bfbfbf" points="830,-130.5 830,-149.5 876,-149.5 876,-130.5 830,-130.5"/>
<text text-anchor="middle" x="853" y="-137.5" font-family="Helvetica,sans-Serif" font-size="10.00">variant</text>
</g>
<!-- Node2&#45;&gt;Node31 -->
<g id="edge41" class="edge"><title>Node2&#45;&gt;Node31</title>
<path fill="none" stroke="midnightblue" d="M671.66,-192.948C723.85,-181.34 792.893,-165.31 820,-156 822.128,-155.269 824.305,-154.45 826.476,-153.581"/>
<polygon fill="midnightblue" stroke="midnightblue" points="827.982,-156.744 835.785,-149.577 825.215,-150.314 827.982,-156.744"/>
</g>
<!-- Node32 -->
<g id="node32" class="node"><title>Node32</title>
<g id="a_node32"><a xlink:href="../../d4/de7/DataDescriptorMatcher_8inc.html" target="_top" xlink:title="DataDescriptorMatcher.inc">
<polygon fill="none" stroke="black" points="894,-130.5 894,-149.5 1028,-149.5 1028,-130.5 894,-130.5"/>
<text text-anchor="middle" x="961" y="-137.5" font-family="Helvetica,sans-Serif" font-size="10.00">DataDescriptorMatcher.inc</text>
</a>
</g>
</g>
<!-- Node2&#45;&gt;Node32 -->
<g id="edge43" class="edge"><title>Node2&#45;&gt;Node32</title>
<path fill="none" stroke="midnightblue" d="M674.124,-193.682C677.123,-193.109 680.092,-192.546 683,-192 772.626,-175.17 795.374,-172.83 885,-156 892.621,-154.569 900.664,-153.022 908.553,-151.483"/>
<polygon fill="midnightblue" stroke="midnightblue" points="909.28,-154.907 918.419,-149.548 907.932,-148.038 909.28,-154.907"/>
</g>
<!-- Node3&#45;&gt;Node4 -->
<g id="edge3" class="edge"><title>Node3&#45;&gt;Node4</title>
<path fill="none" stroke="midnightblue" d="M404.523,-130.403C385.395,-120.423 353.627,-103.849 331.348,-92.2253"/>
<polygon fill="midnightblue" stroke="midnightblue" points="332.931,-89.1033 322.446,-87.5806 329.693,-95.3094 332.931,-89.1033"/>
</g>
<!-- Node4&#45;&gt;Node5 -->
<g id="edge4" class="edge"><title>Node4&#45;&gt;Node5</title>
<path fill="none" stroke="midnightblue" d="M248.575,-68.4836C186.021,-58.8915 90.1756,-43.1851 55,-32 52.8621,-31.3202 50.6822,-30.5286 48.5158,-29.671"/>
<polygon fill="midnightblue" stroke="midnightblue" points="49.8422,-26.4311 39.2776,-25.631 47.0374,-32.8446 49.8422,-26.4311"/>
</g>
<!-- Node6 -->
<g id="node6" class="node"><title>Node6</title>
<polygon fill="none" stroke="#bfbfbf" points="64,-6.5 64,-25.5 116,-25.5 116,-6.5 64,-6.5"/>
<text text-anchor="middle" x="90" y="-13.5" font-family="Helvetica,sans-Serif" font-size="10.00">memory</text>
</g>
<!-- Node4&#45;&gt;Node6 -->
<g id="edge5" class="edge"><title>Node4&#45;&gt;Node6</title>
<path fill="none" stroke="midnightblue" d="M263.387,-68.4403C226.353,-60.5211 171.499,-47.6308 125,-32 122.587,-31.189 120.109,-30.2827 117.639,-29.3281"/>
<polygon fill="midnightblue" stroke="midnightblue" points="118.892,-26.0591 108.312,-25.5063 116.238,-32.5365 118.892,-26.0591"/>
</g>
<!-- Node7 -->
<g id="node7" class="node"><title>Node7</title>
<polygon fill="none" stroke="#bfbfbf" points="134.5,-6.5 134.5,-25.5 183.5,-25.5 183.5,-6.5 134.5,-6.5"/>
<text text-anchor="middle" x="159" y="-13.5" font-family="Helvetica,sans-Serif" font-size="10.00">cassert</text>
</g>
<!-- Node4&#45;&gt;Node7 -->
<g id="edge6" class="edge"><title>Node4&#45;&gt;Node7</title>
<path fill="none" stroke="midnightblue" d="M283.817,-68.4422C260.962,-59.5602 224.35,-45.1526 193,-32 191.171,-31.2325 189.29,-30.4329 187.397,-29.6201"/>
<polygon fill="midnightblue" stroke="midnightblue" points="188.574,-26.3153 178.008,-25.5323 185.78,-32.7334 188.574,-26.3153"/>
</g>
<!-- Node8 -->
<g id="node8" class="node"><title>Node8</title>
<polygon fill="none" stroke="#bfbfbf" points="354,-6.5 354,-25.5 400,-25.5 400,-6.5 354,-6.5"/>
<text text-anchor="middle" x="377" y="-13.5" font-family="Helvetica,sans-Serif" font-size="10.00">cstring</text>
</g>
<!-- Node4&#45;&gt;Node8 -->
<g id="edge7" class="edge"><title>Node4&#45;&gt;Node8</title>
<path fill="none" stroke="midnightblue" d="M316.173,-68.4035C327.35,-58.9579 345.517,-43.6056 359.091,-32.1342"/>
<polygon fill="midnightblue" stroke="midnightblue" points="361.467,-34.7085 366.846,-25.5806 356.949,-29.3619 361.467,-34.7085"/>
</g>
<!-- Node9 -->
<g id="node9" class="node"><title>Node9</title>
<polygon fill="none" stroke="#bfbfbf" points="202,-6.5 202,-25.5 258,-25.5 258,-6.5 202,-6.5"/>
<text text-anchor="middle" x="230" y="-13.5" font-family="Helvetica,sans-Serif" font-size="10.00">algorithm</text>
</g>
<!-- Node4&#45;&gt;Node9 -->
<g id="edge8" class="edge"><title>Node4&#45;&gt;Node9</title>
<path fill="none" stroke="midnightblue" d="M295.111,-68.4035C283.034,-58.8688 263.333,-43.3154 248.76,-31.8106"/>
<polygon fill="midnightblue" stroke="midnightblue" points="250.886,-29.03 240.869,-25.5806 246.549,-34.5242 250.886,-29.03"/>
</g>
<!-- Node10 -->
<g id="node10" class="node"><title>Node10</title>
<polygon fill="none" stroke="#bfbfbf" points="276.5,-6.5 276.5,-25.5 335.5,-25.5 335.5,-6.5 276.5,-6.5"/>
<text text-anchor="middle" x="306" y="-13.5" font-family="Helvetica,sans-Serif" font-size="10.00">stdexcept</text>
</g>
<!-- Node4&#45;&gt;Node10 -->
<g id="edge9" class="edge"><title>Node4&#45;&gt;Node10</title>
<path fill="none" stroke="midnightblue" d="M306,-68.4035C306,-59.9381 306,-46.7283 306,-35.8199"/>
<polygon fill="midnightblue" stroke="midnightblue" points="309.5,-35.5806 306,-25.5806 302.5,-35.5806 309.5,-35.5806"/>
</g>
<!-- Node4&#45;&gt;Node11 -->
<g id="edge10" class="edge"><title>Node4&#45;&gt;Node11</title>
<path fill="none" stroke="midnightblue" d="M326.66,-68.3457C347.557,-59.5051 380.722,-45.236 409,-32 410.351,-31.3674 411.733,-30.7112 413.125,-30.0424"/>
<polygon fill="midnightblue" stroke="midnightblue" points="414.819,-33.1098 422.256,-25.5635 411.736,-26.8252 414.819,-33.1098"/>
</g>
<!-- Node12 -->
<g id="node12" class="node"><title>Node12</title>
<g id="a_node12"><a xlink:href="../../d7/df8/Types_8h.html" target="_top" xlink:title="MemoryResources/Types.h">
<polygon fill="none" stroke="black" points="477.5,-6.5 477.5,-25.5 614.5,-25.5 614.5,-6.5 477.5,-6.5"/>
<text text-anchor="middle" x="546" y="-13.5" font-family="Helvetica,sans-Serif" font-size="10.00">MemoryResources/Types.h</text>
</a>
</g>
</g>
<!-- Node4&#45;&gt;Node12 -->
<g id="edge11" class="edge"><title>Node4&#45;&gt;Node12</title>
<path fill="none" stroke="midnightblue" d="M340.131,-68.4672C382.691,-57.8272 455.514,-39.6215 502.163,-27.9593"/>
<polygon fill="midnightblue" stroke="midnightblue" points="503.134,-31.3243 511.986,-25.5034 501.436,-24.5333 503.134,-31.3243"/>
</g>
<!-- Node13&#45;&gt;Node4 -->
<g id="edge13" class="edge"><title>Node13&#45;&gt;Node4</title>
<path fill="none" stroke="midnightblue" d="M231.225,-124.781C247.028,-115.105 267.832,-102.368 283.483,-92.7861"/>
<polygon fill="midnightblue" stroke="midnightblue" points="285.325,-95.7623 292.026,-87.5557 281.67,-89.7923 285.325,-95.7623"/>
</g>
<!-- Node13&#45;&gt;Node5 -->
<g id="edge14" class="edge"><title>Node13&#45;&gt;Node5</title>
<path fill="none" stroke="midnightblue" d="M186.416,-124.766C150.893,-101.34 80.4968,-54.9168 44.8198,-31.3893"/>
<polygon fill="midnightblue" stroke="midnightblue" points="46.4118,-28.2466 36.1368,-25.6632 42.5581,-34.0904 46.4118,-28.2466"/>
</g>
<!-- Node13&#45;&gt;Node6 -->
<g id="edge16" class="edge"><title>Node13&#45;&gt;Node6</title>
<path fill="none" stroke="midnightblue" d="M194,-124.526C171.732,-101.503 128.407,-56.7085 105.33,-32.8498"/>
<polygon fill="midnightblue" stroke="midnightblue" points="107.808,-30.3775 98.3401,-25.6228 102.777,-35.2441 107.808,-30.3775"/>
</g>
<!-- Node13&#45;&gt;Node7 -->
<g id="edge17" class="edge"><title>Node13&#45;&gt;Node7</title>
<path fill="none" stroke="midnightblue" d="M197.839,-124.887C191.108,-114.975 182.532,-101.186 177,-88 169.858,-70.975 165.027,-50.4242 162.183,-35.8228"/>
<polygon fill="midnightblue" stroke="midnightblue" points="165.552,-34.7837 160.323,-25.5694 158.664,-36.0337 165.552,-34.7837"/>
</g>
<!-- Node14 -->
<g id="node14" class="node"><title>Node14</title>
<polygon fill="none" stroke="#bfbfbf" points="186.5,-68.5 186.5,-87.5 229.5,-87.5 229.5,-68.5 186.5,-68.5"/>
<text text-anchor="middle" x="208" y="-75.5" font-family="Helvetica,sans-Serif" font-size="10.00">cstdio</text>
</g>
<!-- Node13&#45;&gt;Node14 -->
<g id="edge15" class="edge"><title>Node13&#45;&gt;Node14</title>
<path fill="none" stroke="midnightblue" d="M208,-124.781C208,-116.781 208,-106.689 208,-98.0168"/>
<polygon fill="midnightblue" stroke="midnightblue" points="211.5,-97.7305 208,-87.7305 204.5,-97.7306 211.5,-97.7305"/>
</g>
<!-- Node15&#45;&gt;Node4 -->
<g id="edge36" class="edge"><title>Node15&#45;&gt;Node4</title>
<path fill="none" stroke="midnightblue" d="M540.819,-130.447C532.777,-128.256 524.078,-125.965 516,-124 462.839,-111.065 401.626,-98.1741 359.057,-89.5262"/>
<polygon fill="midnightblue" stroke="midnightblue" points="359.688,-86.083 349.193,-87.5303 358.3,-92.944 359.688,-86.083"/>
</g>
<!-- Node16 -->
<g id="node16" class="node"><title>Node16</title>
<g id="a_node16"><a xlink:href="../../dc/d03/MemoryResources_8h.html" target="_top" xlink:title="MemoryResources/MemoryResources.h">
<polygon fill="none" stroke="black" points="866.5,-68.5 866.5,-87.5 1059.5,-87.5 1059.5,-68.5 866.5,-68.5"/>
<text text-anchor="middle" x="963" y="-75.5" font-family="Helvetica,sans-Serif" font-size="10.00">MemoryResources/MemoryResources.h</text>
</a>
</g>
</g>
<!-- Node15&#45;&gt;Node16 -->
<g id="edge20" class="edge"><title>Node15&#45;&gt;Node16</title>
<path fill="none" stroke="midnightblue" d="M616.397,-131.96C632.672,-129.442 651.157,-126.587 668,-124 746.661,-111.918 837.139,-98.1332 896.93,-89.039"/>
<polygon fill="midnightblue" stroke="midnightblue" points="897.63,-92.4728 906.99,-87.509 896.578,-85.5523 897.63,-92.4728"/>
</g>
<!-- Node16&#45;&gt;Node8 -->
<g id="edge25" class="edge"><title>Node16&#45;&gt;Node8</title>
<path fill="none" stroke="midnightblue" d="M866.294,-73.2918C731.063,-67.3969 492.644,-54.2236 409,-32 406.648,-31.3752 404.258,-30.584 401.896,-29.693"/>
<polygon fill="midnightblue" stroke="midnightblue" points="403.096,-26.3988 392.529,-25.6388 400.316,-32.8229 403.096,-26.3988"/>
</g>
<!-- Node16&#45;&gt;Node11 -->
<g id="edge26" class="edge"><title>Node16&#45;&gt;Node11</title>
<path fill="none" stroke="midnightblue" d="M866.411,-72.6358C744.012,-66.3409 540.274,-53.0962 468,-32 466.082,-31.4401 464.142,-30.7501 462.223,-29.9762"/>
<polygon fill="midnightblue" stroke="midnightblue" points="463.534,-26.7248 452.997,-25.6244 460.548,-33.056 463.534,-26.7248"/>
</g>
<!-- Node16&#45;&gt;Node12 -->
<g id="edge35" class="edge"><title>Node16&#45;&gt;Node12</title>
<path fill="none" stroke="midnightblue" d="M889.417,-68.4812C820.627,-60.2218 715.127,-46.7977 624,-32 615.586,-30.6338 606.688,-29.0528 598.03,-27.4404"/>
<polygon fill="midnightblue" stroke="midnightblue" points="598.497,-23.9666 588.02,-25.5442 597.194,-30.8443 598.497,-23.9666"/>
</g>
<!-- Node17 -->
<g id="node17" class="node"><title>Node17</title>
<polygon fill="none" stroke="#bfbfbf" points="633,-1 633,-31 733,-31 733,-1 633,-1"/>
<text text-anchor="start" x="641" y="-19" font-family="Helvetica,sans-Serif" font-size="10.00">boost/container/flat</text>
<text text-anchor="middle" x="683" y="-8" font-family="Helvetica,sans-Serif" font-size="10.00">_map.hpp</text>
</g>
<!-- Node16&#45;&gt;Node17 -->
<g id="edge21" class="edge"><title>Node16&#45;&gt;Node17</title>
<path fill="none" stroke="midnightblue" d="M917.997,-68.4944C875.341,-60.285 809.247,-47.1853 742.952,-32.1607"/>
<polygon fill="midnightblue" stroke="midnightblue" points="743.7,-28.7415 733.172,-29.9304 742.144,-35.5663 743.7,-28.7415"/>
</g>
<!-- Node18 -->
<g id="node18" class="node"><title>Node18</title>
<polygon fill="none" stroke="#bfbfbf" points="751,-1 751,-31 867,-31 867,-1 751,-1"/>
<text text-anchor="start" x="759" y="-19" font-family="Helvetica,sans-Serif" font-size="10.00">boost/container/pmr</text>
<text text-anchor="middle" x="809" y="-8" font-family="Helvetica,sans-Serif" font-size="10.00">/memory_resource.hpp</text>
</g>
<!-- Node16&#45;&gt;Node18 -->
<g id="edge22" class="edge"><title>Node16&#45;&gt;Node18</title>
<path fill="none" stroke="midnightblue" d="M940.936,-68.4035C918.444,-59.6406 882.905,-45.7942 854.376,-34.6789"/>
<polygon fill="midnightblue" stroke="midnightblue" points="855.587,-31.3945 844.998,-31.0253 853.045,-37.9169 855.587,-31.3945"/>
</g>
<!-- Node19 -->
<g id="node19" class="node"><title>Node19</title>
<polygon fill="none" stroke="#bfbfbf" points="885,-1 885,-31 1041,-31 1041,-1 885,-1"/>
<text text-anchor="start" x="893" y="-19" font-family="Helvetica,sans-Serif" font-size="10.00">boost/container/pmr</text>
<text text-anchor="middle" x="963" y="-8" font-family="Helvetica,sans-Serif" font-size="10.00">/monotonic_buffer_resource.hpp</text>
</g>
<!-- Node16&#45;&gt;Node19 -->
<g id="edge23" class="edge"><title>Node16&#45;&gt;Node19</title>
<path fill="none" stroke="midnightblue" d="M963,-68.4035C963,-61.3405 963,-50.975 963,-41.399"/>
<polygon fill="midnightblue" stroke="midnightblue" points="966.5,-41.1408 963,-31.1408 959.5,-41.1408 966.5,-41.1408"/>
</g>
<!-- Node20 -->
<g id="node20" class="node"><title>Node20</title>
<polygon fill="none" stroke="#bfbfbf" points="1059.5,-1 1059.5,-31 1192.5,-31 1192.5,-1 1059.5,-1"/>
<text text-anchor="start" x="1067.5" y="-19" font-family="Helvetica,sans-Serif" font-size="10.00">boost/container/pmr</text>
<text text-anchor="middle" x="1126" y="-8" font-family="Helvetica,sans-Serif" font-size="10.00">/polymorphic_allocator.hpp</text>
</g>
<!-- Node16&#45;&gt;Node20 -->
<g id="edge24" class="edge"><title>Node16&#45;&gt;Node20</title>
<path fill="none" stroke="midnightblue" d="M986.354,-68.4035C1010.26,-59.6025 1048.1,-45.6737 1078.37,-34.534"/>
<polygon fill="midnightblue" stroke="midnightblue" points="1079.72,-37.7643 1087.9,-31.0253 1077.3,-31.1952 1079.72,-37.7643"/>
</g>
<!-- Node21 -->
<g id="node21" class="node"><title>Node21</title>
<polygon fill="none" stroke="#bfbfbf" points="1211,-6.5 1211,-25.5 1273,-25.5 1273,-6.5 1211,-6.5"/>
<text text-anchor="middle" x="1242" y="-13.5" font-family="Helvetica,sans-Serif" font-size="10.00">type_traits</text>
</g>
<!-- Node16&#45;&gt;Node21 -->
<g id="edge27" class="edge"><title>Node16&#45;&gt;Node21</title>
<path fill="none" stroke="midnightblue" d="M1022.79,-68.4787C1071.3,-60.9018 1141.2,-48.4725 1201,-32 1204.22,-31.1143 1207.54,-30.09 1210.83,-29.0008"/>
<polygon fill="midnightblue" stroke="midnightblue" points="1212.23,-32.22 1220.51,-25.6126 1209.92,-25.6131 1212.23,-32.22"/>
</g>
<!-- Node22 -->
<g id="node22" class="node"><title>Node22</title>
<polygon fill="none" stroke="#bfbfbf" points="1291,-6.5 1291,-25.5 1331,-25.5 1331,-6.5 1291,-6.5"/>
<text text-anchor="middle" x="1311" y="-13.5" font-family="Helvetica,sans-Serif" font-size="10.00">utility</text>
</g>
<!-- Node16&#45;&gt;Node22 -->
<g id="edge28" class="edge"><title>Node16&#45;&gt;Node22</title>
<path fill="none" stroke="midnightblue" d="M1044.54,-68.4847C1123.78,-59.6659 1238.21,-45.3344 1281,-32 1282.92,-31.4023 1284.86,-30.6932 1286.8,-29.9137"/>
<polygon fill="midnightblue" stroke="midnightblue" points="1288.51,-32.9762 1296.14,-25.6181 1285.59,-26.6165 1288.51,-32.9762"/>
</g>
<!-- Node16&#45;&gt;Node23 -->
<g id="edge29" class="edge"><title>Node16&#45;&gt;Node23</title>
<path fill="none" stroke="midnightblue" d="M1059.54,-68.9188C1064.43,-68.5891 1069.27,-68.2801 1074,-68 1287.33,-55.3616 1827.63,-83.6391 2035,-32 2037.35,-31.4149 2039.73,-30.6395 2042.08,-29.7486"/>
<polygon fill="midnightblue" stroke="midnightblue" points="2043.62,-32.8921 2051.34,-25.6286 2040.78,-26.4967 2043.62,-32.8921"/>
</g>
<!-- Node24 -->
<g id="node24" class="node"><title>Node24</title>
<polygon fill="none" stroke="#bfbfbf" points="1349.5,-6.5 1349.5,-25.5 1432.5,-25.5 1432.5,-6.5 1349.5,-6.5"/>
<text text-anchor="middle" x="1391" y="-13.5" font-family="Helvetica,sans-Serif" font-size="10.00">unordered_map</text>
</g>
<!-- Node16&#45;&gt;Node24 -->
<g id="edge30" class="edge"><title>Node16&#45;&gt;Node24</title>
<path fill="none" stroke="midnightblue" d="M1048.47,-68.4773C1142.08,-58.8439 1286.08,-43.0656 1340,-32 1345.01,-30.9711 1350.25,-29.6841 1355.37,-28.2991"/>
<polygon fill="midnightblue" stroke="midnightblue" points="1356.34,-31.6614 1365,-25.5571 1354.43,-24.9289 1356.34,-31.6614"/>
</g>
<!-- Node25 -->
<g id="node25" class="node"><title>Node25</title>
<polygon fill="none" stroke="#bfbfbf" points="1450.5,-6.5 1450.5,-25.5 1547.5,-25.5 1547.5,-6.5 1450.5,-6.5"/>
<text text-anchor="middle" x="1499" y="-13.5" font-family="Helvetica,sans-Serif" font-size="10.00">FairMQMessage.h</text>
</g>
<!-- Node16&#45;&gt;Node25 -->
<g id="edge31" class="edge"><title>Node16&#45;&gt;Node25</title>
<path fill="none" stroke="midnightblue" d="M1059.72,-68.7256C1188.56,-57.5759 1404.54,-38.3887 1441,-32 1447.19,-30.9162 1453.68,-29.5092 1459.99,-27.9919"/>
<polygon fill="midnightblue" stroke="midnightblue" points="1460.85,-31.3849 1469.69,-25.5472 1459.14,-24.5971 1460.85,-31.3849"/>
</g>
<!-- Node26 -->
<g id="node26" class="node"><title>Node26</title>
<polygon fill="none" stroke="#bfbfbf" points="1565.5,-6.5 1565.5,-25.5 1696.5,-25.5 1696.5,-6.5 1565.5,-6.5"/>
<text text-anchor="middle" x="1631" y="-13.5" font-family="Helvetica,sans-Serif" font-size="10.00">FairMQTransportFactory.h</text>
</g>
<!-- Node16&#45;&gt;Node26 -->
<g id="edge32" class="edge"><title>Node16&#45;&gt;Node26</title>
<path fill="none" stroke="midnightblue" d="M1059.56,-69.1339C1064.44,-68.7477 1069.28,-68.3678 1074,-68 1288.17,-51.3195 1343.16,-61.1196 1556,-32 1564.79,-30.7968 1574.11,-29.1993 1583.07,-27.4954"/>
<polygon fill="midnightblue" stroke="midnightblue" points="1583.86,-30.9072 1593,-25.5418 1582.51,-24.039 1583.86,-30.9072"/>
</g>
<!-- Node27 -->
<g id="node27" class="node"><title>Node27</title>
<polygon fill="none" stroke="#bfbfbf" points="1714.5,-6.5 1714.5,-25.5 1851.5,-25.5 1851.5,-6.5 1714.5,-6.5"/>
<text text-anchor="middle" x="1783" y="-13.5" font-family="Helvetica,sans-Serif" font-size="10.00">fairmq/MemoryResources.h</text>
</g>
<!-- Node16&#45;&gt;Node27 -->
<g id="edge33" class="edge"><title>Node16&#45;&gt;Node27</title>
<path fill="none" stroke="midnightblue" d="M1059.55,-69.0321C1064.44,-68.6726 1069.27,-68.3263 1074,-68 1354.23,-48.648 1426.24,-66.6001 1705,-32 1714.35,-30.8399 1724.26,-29.2312 1733.77,-27.4958"/>
<polygon fill="midnightblue" stroke="midnightblue" points="1734.71,-30.8797 1743.88,-25.5783 1733.4,-24.0022 1734.71,-30.8797"/>
</g>
<!-- Node28 -->
<g id="node28" class="node"><title>Node28</title>
<polygon fill="none" stroke="#bfbfbf" points="1870,-6.5 1870,-25.5 2026,-25.5 2026,-6.5 1870,-6.5"/>
<text text-anchor="middle" x="1948" y="-13.5" font-family="Helvetica,sans-Serif" font-size="10.00">fairmq/MemoryResourceTools.h</text>
</g>
<!-- Node16&#45;&gt;Node28 -->
<g id="edge34" class="edge"><title>Node16&#45;&gt;Node28</title>
<path fill="none" stroke="midnightblue" d="M1059.55,-68.967C1064.43,-68.6247 1069.27,-68.2998 1074,-68 1423,-45.8659 1512.31,-69.4511 1860,-32 1871.09,-30.8055 1882.9,-29.0971 1894.15,-27.2582"/>
<polygon fill="midnightblue" stroke="midnightblue" points="1895.01,-30.6627 1904.28,-25.5437 1893.84,-23.7607 1895.01,-30.6627"/>
</g>
</g>
</svg>
        <g id="navigator" transform="translate(0 0)" fill="#404254">
                <rect fill="#f2f5e9" fill-opacity="0.5" stroke="#606060" stroke-width=".5" x="0" y="0" width="60" height="60"/>
                <use id="zoomplus" xlink:href="#zoomPlus" x="17" y="9" onmousedown="handleZoom(evt,'in')"/>
                <use id="zoomminus" xlink:href="#zoomMin" x="42" y="9" onmousedown="handleZoom(evt,'out')"/>
                <use id="reset" xlink:href="#resetDef" x="30" y="36" onmousedown="handleReset()"/>
                <g id="arrowUp" xlink:href="#dirArrow" transform="translate(30 24)" onmousedown="handlePan(0,-1)">
                  <use xlink:href="#rim" fill="#404040">
                        <set attributeName="fill" to="#808080" begin="arrowUp.mouseover" end="arrowUp.mouseout"/>
                  </use>
                  <path fill="none" stroke="white" stroke-width="1.5" d="M0,-3.0v7 M-2.5,-0.5L0,-3.0L2.5,-0.5"/>
                </g>
                <g id="arrowRight" xlink:href="#dirArrow" transform="rotate(90) translate(36 -43)" onmousedown="handlePan(1,0)">
                  <use xlink:href="#rim" fill="#404040">
                        <set attributeName="fill" to="#808080" begin="arrowRight.mouseover" end="arrowRight.mouseout"/>
                  </use>
                  <path fill="none" stroke="white" stroke-width="1.5" d="M0,-3.0v7 M-2.5,-0.5L0,-3.0L2.5,-0.5"/>
                </g>
                <g id="arrowDown" xlink:href="#dirArrow" transform="rotate(180) translate(-30 -48)" onmousedown="handlePan(0,1)">
                  <use xlink:href="#rim" fill="#404040">
                        <set attributeName="fill" to="#808080" begin="arrowDown.mouseover" end="arrowDown.mouseout"/>
                  </use>
                  <path fill="none" stroke="white" stroke-width="1.5" d="M0,-3.0v7 M-2.5,-0.5L0,-3.0L2.5,-0.5"/>
                </g>
                <g id="arrowLeft" xlink:href="#dirArrow" transform="rotate(270) translate(-36 17)" onmousedown="handlePan(-1,0)">
                  <use xlink:href="#rim" fill="#404040">
                        <set attributeName="fill" to="#808080" begin="arrowLeft.mouseover" end="arrowLeft.mouseout"/>
                  </use>
                  <path fill="none" stroke="white" stroke-width="1.5" d="M0,-3.0v7 M-2.5,-0.5L0,-3.0L2.5,-0.5"/>
                </g>
        </g>
        <svg viewBox="0 0 15 15" width="100%" height="30px" preserveAspectRatio="xMaxYMin meet">
         <g id="arrow_out" transform="scale(0.3 0.3)">
          <a xlink:href="DataDescriptorMatcher_8cxx__incl_org.svg" target="_base">
           <rect id="button" ry="5" rx="5" y="6" x="6" height="38" width="38"
                fill="#f2f5e9" fill-opacity="0.5" stroke="#606060" stroke-width="1.0"/>
           <path id="arrow"
             d="M 11.500037,31.436501 C 11.940474,20.09759 22.043105,11.32322 32.158766,21.979434 L 37.068811,17.246167 C 37.068811,17.246167 37.088388,32 37.088388,32 L 22.160133,31.978069 C 22.160133,31.978069 26.997745,27.140456 26.997745,27.140456 C 18.528582,18.264221 13.291696,25.230495 11.500037,31.436501 z"
             style="fill:#404040;"/>
          </a>
         </g>
        </svg>
</svg>
