<?xml version="1.0" encoding="UTF-8" standalone="no"?>
<!DOCTYPE svg PUBLIC "-//W3C//DTD SVG 1.1//EN"
 "http://www.w3.org/Graphics/SVG/1.1/DTD/svg11.dtd">
<!-- Generated by graphviz version 2.36.0 (20140111.2315)
 -->
<!-- Title: o2::trd::TRDSignalIndex::RowCol Pages: 1 -->
<svg width="238pt" height="186pt"
 viewBox="0.00 0.00 238.00 186.00" xmlns="http://www.w3.org/2000/svg" xmlns:xlink="http://www.w3.org/1999/xlink">
<g id="graph0" class="graph" transform="scale(1 1) rotate(0) translate(4 182)">
<title>o2::trd::TRDSignalIndex::RowCol</title>
<!-- Node1 -->
<g id="node1" class="node"><title>Node1</title>
<polygon fill="#bfbfbf" stroke="black" points="56,-1 56,-69 178,-69 178,-1 56,-1"/>
<text text-anchor="start" x="64" y="-57" font-family="Helvetica,sans-Serif" font-size="10.00">o2::trd::TRDSignalIndex</text>
<text text-anchor="middle" x="117" y="-46" font-family="Helvetica,sans-Serif" font-size="10.00">::RowCol</text>
<polyline fill="none" stroke="black" points="56,-39 178,-39 "/>
<text text-anchor="middle" x="117" y="-27" font-family="Helvetica,sans-Serif" font-size="10.00"> </text>
<polyline fill="none" stroke="black" points="56,-20 178,-20 "/>
<text text-anchor="middle" x="117" y="-8" font-family="Helvetica,sans-Serif" font-size="10.00"> </text>
</g>
<!-- Node2 -->
<g id="node2" class="node"><title>Node2</title>
<polygon fill="none" stroke="#bfbfbf" points="0,-119.5 0,-176.5 48,-176.5 48,-119.5 0,-119.5"/>
<text text-anchor="middle" x="24" y="-164.5" font-family="Helvetica,sans-Serif" font-size="10.00">Short_t</text>
<polyline fill="none" stroke="#bfbfbf" points="0,-157.5 48,-157.5 "/>
<text text-anchor="middle" x="24" y="-145.5" font-family="Helvetica,sans-Serif" font-size="10.00"> </text>
<polyline fill="none" stroke="#bfbfbf" points="0,-138.5 48,-138.5 "/>
<text text-anchor="middle" x="24" y="-126.5" font-family="Helvetica,sans-Serif" font-size="10.00"> </text>
</g>
<!-- Node2&#45;&gt;Node1 -->
<g id="edge1" class="edge"><title>Node2&#45;&gt;Node1</title>
<path fill="none" stroke="#404040" d="M47.2279,-119.276C57.5442,-106.963 69.9195,-92.1928 81.3646,-78.5325"/>
<polygon fill="none" stroke="#404040" points="81.3962,-78.4949 82.1834,-71.3269 89.1028,-69.2966 88.3156,-76.4646 81.3962,-78.4949"/>
<text text-anchor="middle" x="83" y="-91.5" font-family="Helvetica,sans-Serif" font-size="10.00"> +rc</text>
</g>
<!-- Node3 -->
<g id="node3" class="node"><title>Node3</title>
<polygon fill="none" stroke="#bfbfbf" points="66,-119.5 66,-176.5 112,-176.5 112,-119.5 66,-119.5"/>
<text text-anchor="middle" x="89" y="-164.5" font-family="Helvetica,sans-Serif" font-size="10.00">Char_t</text>
<polyline fill="none" stroke="#bfbfbf" points="66,-157.5 112,-157.5 "/>
<text text-anchor="middle" x="89" y="-145.5" font-family="Helvetica,sans-Serif" font-size="10.00"> </text>
<polyline fill="none" stroke="#bfbfbf" points="66,-138.5 112,-138.5 "/>
<text text-anchor="middle" x="89" y="-126.5" font-family="Helvetica,sans-Serif" font-size="10.00"> </text>
</g>
<!-- Node3&#45;&gt;Node1 -->
<g id="edge2" class="edge"><title>Node3&#45;&gt;Node1</title>
<path fill="none" stroke="#404040" d="M92.0458,-119.454C93.4535,-109.46 95.4023,-98.1376 98,-88 98.6151,-85.5996 99.299,-83.1553 100.032,-80.7002"/>
<polygon fill="none" stroke="#404040" points="100.04,-80.6739 98.0846,-73.7329 103.74,-69.2584 105.695,-76.1993 100.04,-80.6739"/>
<text text-anchor="middle" x="110.5" y="-91.5" font-family="Helvetica,sans-Serif" font-size="10.00"> +row</text>
</g>
<!-- Node4 -->
<g id="node4" class="node"><title>Node4</title>
<polygon fill="none" stroke="#bfbfbf" points="130.5,-119 130.5,-177 159.5,-177 159.5,-119 130.5,-119"/>
<polyline fill="none" stroke="#bfbfbf" points="130.5,-157 159.5,-157 "/>
<text text-anchor="middle" x="145" y="-145" font-family="Helvetica,sans-Serif" font-size="10.00"> </text>
<polyline fill="none" stroke="#bfbfbf" points="130.5,-138 159.5,-138 "/>
<text text-anchor="middle" x="145" y="-126" font-family="Helvetica,sans-Serif" font-size="10.00"> </text>
</g>
<!-- Node4&#45;&gt;Node1 -->
<g id="edge3" class="edge"><title>Node4&#45;&gt;Node1</title>
<path fill="none" stroke="#404040" d="M137.934,-118.99C135.037,-107.504 131.609,-93.9162 128.376,-81.0965"/>
<polygon fill="none" stroke="#404040" points="128.293,-80.77 122.947,-75.9307 125.358,-69.1345 130.704,-73.9739 128.293,-80.77"/>
<text text-anchor="middle" x="140.5" y="-91.5" font-family="Helvetica,sans-Serif" font-size="10.00"> +s</text>
</g>
<!-- Node5 -->
<g id="node5" class="node"><title>Node5</title>
<polygon fill="none" stroke="#bfbfbf" points="177.5,-119.5 177.5,-176.5 230.5,-176.5 230.5,-119.5 177.5,-119.5"/>
<text text-anchor="middle" x="204" y="-164.5" font-family="Helvetica,sans-Serif" font-size="10.00">UChar_t</text>
<polyline fill="none" stroke="#bfbfbf" points="177.5,-157.5 230.5,-157.5 "/>
<text text-anchor="middle" x="204" y="-145.5" font-family="Helvetica,sans-Serif" font-size="10.00"> </text>
<polyline fill="none" stroke="#bfbfbf" points="177.5,-138.5 230.5,-138.5 "/>
<text text-anchor="middle" x="204" y="-126.5" font-family="Helvetica,sans-Serif" font-size="10.00"> </text>
</g>
<!-- Node5&#45;&gt;Node1 -->
<g id="edge4" class="edge"><title>Node5&#45;&gt;Node1</title>
<path fill="none" stroke="#404040" d="M182.271,-119.276C172.713,-107.082 161.265,-92.4767 150.645,-78.9269"/>
<polygon fill="none" stroke="#404040" points="150.5,-78.7413 143.65,-76.4865 143.097,-69.2966 149.947,-71.5514 150.5,-78.7413"/>
<text text-anchor="middle" x="177" y="-91.5" font-family="Helvetica,sans-Serif" font-size="10.00"> +col</text>
</g>
</g>
</svg>
