<?xml version="1.0" encoding="UTF-8" standalone="no"?>
<!DOCTYPE svg PUBLIC "-//W3C//DTD SVG 1.1//EN"
 "http://www.w3.org/Graphics/SVG/1.1/DTD/svg11.dtd">
<!-- Generated by graphviz version 2.36.0 (20140111.2315)
 -->
<!-- Title: o2::steer::O2MCApplicationBase Pages: 1 -->
<svg width="399pt" height="1060pt"
 viewBox="0.00 0.00 399.00 1060.00" xmlns="http://www.w3.org/2000/svg" xmlns:xlink="http://www.w3.org/1999/xlink">
<g id="graph0" class="graph" transform="scale(1 1) rotate(0) translate(4 1056)">
<title>o2::steer::O2MCApplicationBase</title>
<!-- Node1 -->
<g id="node1" class="node"><title>Node1</title>
<polygon fill="#bfbfbf" stroke="black" points="61,-1 61,-113 221,-113 221,-1 61,-1"/>
<text text-anchor="middle" x="141" y="-101" font-family="Helvetica,sans-Serif" font-size="10.00">o2::steer::O2MCApplicationBase</text>
<polyline fill="none" stroke="black" points="61,-94 221,-94 "/>
<text text-anchor="middle" x="141" y="-82" font-family="Helvetica,sans-Serif" font-size="10.00"> </text>
<polyline fill="none" stroke="black" points="61,-75 221,-75 "/>
<text text-anchor="start" x="69" y="-63" font-family="Helvetica,sans-Serif" font-size="10.00">+ O2MCApplicationBase()</text>
<text text-anchor="start" x="69" y="-52" font-family="Helvetica,sans-Serif" font-size="10.00">+ O2MCApplicationBase()</text>
<text text-anchor="start" x="69" y="-41" font-family="Helvetica,sans-Serif" font-size="10.00">+ ~O2MCApplicationBase()</text>
<text text-anchor="start" x="69" y="-30" font-family="Helvetica,sans-Serif" font-size="10.00">+ Stepping()</text>
<text text-anchor="start" x="69" y="-19" font-family="Helvetica,sans-Serif" font-size="10.00">+ TrackingRmax()</text>
<text text-anchor="start" x="69" y="-8" font-family="Helvetica,sans-Serif" font-size="10.00">+ TrackingZmax()</text>
</g>
<!-- Node2 -->
<g id="node2" class="node"><title>Node2</title>
<g id="a_node2"><a xlink:href="../../d8/def/classFairMCApplication.html" target="_top" xlink:title="{FairMCApplication\n||}">
<polygon fill="none" stroke="black" points="52.5,-162.5 52.5,-219.5 149.5,-219.5 149.5,-162.5 52.5,-162.5"/>
<text text-anchor="middle" x="101" y="-207.5" font-family="Helvetica,sans-Serif" font-size="10.00">FairMCApplication</text>
<polyline fill="none" stroke="black" points="52.5,-200.5 149.5,-200.5 "/>
<text text-anchor="middle" x="101" y="-188.5" font-family="Helvetica,sans-Serif" font-size="10.00"> </text>
<polyline fill="none" stroke="black" points="52.5,-181.5 149.5,-181.5 "/>
<text text-anchor="middle" x="101" y="-169.5" font-family="Helvetica,sans-Serif" font-size="10.00"> </text>
</a>
</g>
</g>
<!-- Node2&#45;&gt;Node1 -->
<g id="edge1" class="edge"><title>Node2&#45;&gt;Node1</title>
<path fill="none" stroke="midnightblue" d="M112.371,-152.474C116.081,-140.232 120.281,-126.373 124.298,-113.116"/>
<polygon fill="none" stroke="midnightblue" points="108.936,-151.743 109.385,-162.328 115.635,-153.773 108.936,-151.743"/>
</g>
<!-- Node3 -->
<g id="node3" class="node"><title>Node3</title>
<g id="a_node3"><a xlink:href="../../d7/d2f/structo2_1_1conf_1_1SimCutParams.html" target="_top" xlink:title="{o2::conf::SimCutParams\n||+ O2ParamDef()\l}">
<polygon fill="none" stroke="black" points="167.5,-162.5 167.5,-219.5 292.5,-219.5 292.5,-162.5 167.5,-162.5"/>
<text text-anchor="middle" x="230" y="-207.5" font-family="Helvetica,sans-Serif" font-size="10.00">o2::conf::SimCutParams</text>
<polyline fill="none" stroke="black" points="167.5,-200.5 292.5,-200.5 "/>
<text text-anchor="middle" x="230" y="-188.5" font-family="Helvetica,sans-Serif" font-size="10.00"> </text>
<polyline fill="none" stroke="black" points="167.5,-181.5 292.5,-181.5 "/>
<text text-anchor="start" x="175.5" y="-169.5" font-family="Helvetica,sans-Serif" font-size="10.00">+ O2ParamDef()</text>
</a>
</g>
</g>
<!-- Node3&#45;&gt;Node1 -->
<g id="edge2" class="edge"><title>Node3&#45;&gt;Node1</title>
<path fill="none" stroke="#404040" d="M211.343,-162.328C203.591,-150.831 194.237,-136.959 184.918,-123.137"/>
<polygon fill="none" stroke="#404040" points="184.87,-123.066 178.199,-120.327 178.161,-113.116 184.832,-115.854 184.87,-123.066"/>
<text text-anchor="middle" x="232.5" y="-135.5" font-family="Helvetica,sans-Serif" font-size="10.00"> #mCutParams</text>
</g>
<!-- Node4 -->
<g id="node4" class="node"><title>Node4</title>
<g id="a_node4"><a xlink:href="../../d7/d50/classo2_1_1conf_1_1ConfigurableParamHelper.html" target="_top" xlink:title="{o2::conf::ConfigurableParam\lHelper\&lt; SimCutParams \&gt;\n||+ getName()\l+ printKeyValues()\l+ putKeyValues()\l+ initFrom()\l+ serializeTo()\l+ Instance()\l}">
<polygon fill="none" stroke="black" points="48.5,-278.5 48.5,-401.5 189.5,-401.5 189.5,-278.5 48.5,-278.5"/>
<text text-anchor="start" x="56.5" y="-389.5" font-family="Helvetica,sans-Serif" font-size="10.00">o2::conf::ConfigurableParam</text>
<text text-anchor="middle" x="119" y="-378.5" font-family="Helvetica,sans-Serif" font-size="10.00">Helper&lt; SimCutParams &gt;</text>
<polyline fill="none" stroke="black" points="48.5,-371.5 189.5,-371.5 "/>
<text text-anchor="middle" x="119" y="-359.5" font-family="Helvetica,sans-Serif" font-size="10.00"> </text>
<polyline fill="none" stroke="black" points="48.5,-352.5 189.5,-352.5 "/>
<text text-anchor="start" x="56.5" y="-340.5" font-family="Helvetica,sans-Serif" font-size="10.00">+ getName()</text>
<text text-anchor="start" x="56.5" y="-329.5" font-family="Helvetica,sans-Serif" font-size="10.00">+ printKeyValues()</text>
<text text-anchor="start" x="56.5" y="-318.5" font-family="Helvetica,sans-Serif" font-size="10.00">+ putKeyValues()</text>
<text text-anchor="start" x="56.5" y="-307.5" font-family="Helvetica,sans-Serif" font-size="10.00">+ initFrom()</text>
<text text-anchor="start" x="56.5" y="-296.5" font-family="Helvetica,sans-Serif" font-size="10.00">+ serializeTo()</text>
<text text-anchor="start" x="56.5" y="-285.5" font-family="Helvetica,sans-Serif" font-size="10.00">+ Instance()</text>
</a>
</g>
</g>
<!-- Node4&#45;&gt;Node3 -->
<g id="edge3" class="edge"><title>Node4&#45;&gt;Node3</title>
<path fill="none" stroke="midnightblue" d="M170.971,-270.174C184.494,-252.265 198.297,-233.985 209.152,-219.609"/>
<polygon fill="none" stroke="midnightblue" points="168.022,-268.271 164.789,-278.361 173.608,-272.489 168.022,-268.271"/>
</g>
<!-- Node5 -->
<g id="node5" class="node"><title>Node5</title>
<g id="a_node5"><a xlink:href="../../d6/d14/classo2_1_1conf_1_1ConfigurableParam.html" target="_top" xlink:title="{o2::conf::ConfigurableParam\n||+ getName()\l+ printKeyValues()\l+ toString()\l+ printAllRegisteredParamNames()\l+ printAllKeyValuePairs()\l+ writeJSON()\l+ writeINI()\l+ getValueAs()\l+ setValue()\l+ setValue()\l+ initialize()\l+ toCCDB()\l+ fromCCDB()\l+ updateFromString()\l# ConfigurableParam()\l# ~ConfigurableParam()\l# putKeyValues()\l# serializeTo()\l# initFrom()\l# setRegisterMode()\l# initPropertyTree()\l# updateThroughStorageMap()\l# updateThroughStorageMapWith\lConversion()\l}">
<polygon fill="none" stroke="black" points="49.5,-613 49.5,-923 218.5,-923 218.5,-613 49.5,-613"/>
<text text-anchor="middle" x="134" y="-911" font-family="Helvetica,sans-Serif" font-size="10.00">o2::conf::ConfigurableParam</text>
<polyline fill="none" stroke="black" points="49.5,-904 218.5,-904 "/>
<text text-anchor="middle" x="134" y="-892" font-family="Helvetica,sans-Serif" font-size="10.00"> </text>
<polyline fill="none" stroke="black" points="49.5,-885 218.5,-885 "/>
<text text-anchor="start" x="57.5" y="-873" font-family="Helvetica,sans-Serif" font-size="10.00">+ getName()</text>
<text text-anchor="start" x="57.5" y="-862" font-family="Helvetica,sans-Serif" font-size="10.00">+ printKeyValues()</text>
<text text-anchor="start" x="57.5" y="-851" font-family="Helvetica,sans-Serif" font-size="10.00">+ toString()</text>
<text text-anchor="start" x="57.5" y="-840" font-family="Helvetica,sans-Serif" font-size="10.00">+ printAllRegisteredParamNames()</text>
<text text-anchor="start" x="57.5" y="-829" font-family="Helvetica,sans-Serif" font-size="10.00">+ printAllKeyValuePairs()</text>
<text text-anchor="start" x="57.5" y="-818" font-family="Helvetica,sans-Serif" font-size="10.00">+ writeJSON()</text>
<text text-anchor="start" x="57.5" y="-807" font-family="Helvetica,sans-Serif" font-size="10.00">+ writeINI()</text>
<text text-anchor="start" x="57.5" y="-796" font-family="Helvetica,sans-Serif" font-size="10.00">+ getValueAs()</text>
<text text-anchor="start" x="57.5" y="-785" font-family="Helvetica,sans-Serif" font-size="10.00">+ setValue()</text>
<text text-anchor="start" x="57.5" y="-774" font-family="Helvetica,sans-Serif" font-size="10.00">+ setValue()</text>
<text text-anchor="start" x="57.5" y="-763" font-family="Helvetica,sans-Serif" font-size="10.00">+ initialize()</text>
<text text-anchor="start" x="57.5" y="-752" font-family="Helvetica,sans-Serif" font-size="10.00">+ toCCDB()</text>
<text text-anchor="start" x="57.5" y="-741" font-family="Helvetica,sans-Serif" font-size="10.00">+ fromCCDB()</text>
<text text-anchor="start" x="57.5" y="-730" font-family="Helvetica,sans-Serif" font-size="10.00">+ updateFromString()</text>
<text text-anchor="start" x="57.5" y="-719" font-family="Helvetica,sans-Serif" font-size="10.00"># ConfigurableParam()</text>
<text text-anchor="start" x="57.5" y="-708" font-family="Helvetica,sans-Serif" font-size="10.00"># ~ConfigurableParam()</text>
<text text-anchor="start" x="57.5" y="-697" font-family="Helvetica,sans-Serif" font-size="10.00"># putKeyValues()</text>
<text text-anchor="start" x="57.5" y="-686" font-family="Helvetica,sans-Serif" font-size="10.00"># serializeTo()</text>
<text text-anchor="start" x="57.5" y="-675" font-family="Helvetica,sans-Serif" font-size="10.00"># initFrom()</text>
<text text-anchor="start" x="57.5" y="-664" font-family="Helvetica,sans-Serif" font-size="10.00"># setRegisterMode()</text>
<text text-anchor="start" x="57.5" y="-653" font-family="Helvetica,sans-Serif" font-size="10.00"># initPropertyTree()</text>
<text text-anchor="start" x="57.5" y="-642" font-family="Helvetica,sans-Serif" font-size="10.00"># updateThroughStorageMap()</text>
<text text-anchor="start" x="57.5" y="-631" font-family="Helvetica,sans-Serif" font-size="10.00"># updateThroughStorageMapWith</text>
<text text-anchor="start" x="57.5" y="-620" font-family="Helvetica,sans-Serif" font-size="10.00">Conversion()</text>
</a>
</g>
</g>
<!-- Node5&#45;&gt;Node4 -->
<g id="edge4" class="edge"><title>Node5&#45;&gt;Node4</title>
<path fill="none" stroke="midnightblue" d="M123.238,-602.793C122.772,-593.053 122.353,-583.399 122,-574 119.809,-515.584 119.136,-448.879 118.965,-401.854"/>
<polygon fill="none" stroke="midnightblue" points="119.752,-603.152 123.741,-612.967 126.743,-602.806 119.752,-603.152"/>
</g>
<!-- Node8 -->
<g id="node8" class="node"><title>Node8</title>
<g id="a_node8"><a xlink:href="../../d7/d50/classo2_1_1conf_1_1ConfigurableParamHelper.html" target="_top" xlink:title="{o2::conf::ConfigurableParam\lHelper\&lt; P \&gt;\n||+ getName()\l+ printKeyValues()\l+ putKeyValues()\l+ initFrom()\l+ serializeTo()\l+ Instance()\l}">
<polygon fill="none" stroke="black" points="131.5,-450.5 131.5,-573.5 272.5,-573.5 272.5,-450.5 131.5,-450.5"/>
<text text-anchor="start" x="139.5" y="-561.5" font-family="Helvetica,sans-Serif" font-size="10.00">o2::conf::ConfigurableParam</text>
<text text-anchor="middle" x="202" y="-550.5" font-family="Helvetica,sans-Serif" font-size="10.00">Helper&lt; P &gt;</text>
<polyline fill="none" stroke="black" points="131.5,-543.5 272.5,-543.5 "/>
<text text-anchor="middle" x="202" y="-531.5" font-family="Helvetica,sans-Serif" font-size="10.00"> </text>
<polyline fill="none" stroke="black" points="131.5,-524.5 272.5,-524.5 "/>
<text text-anchor="start" x="139.5" y="-512.5" font-family="Helvetica,sans-Serif" font-size="10.00">+ getName()</text>
<text text-anchor="start" x="139.5" y="-501.5" font-family="Helvetica,sans-Serif" font-size="10.00">+ printKeyValues()</text>
<text text-anchor="start" x="139.5" y="-490.5" font-family="Helvetica,sans-Serif" font-size="10.00">+ putKeyValues()</text>
<text text-anchor="start" x="139.5" y="-479.5" font-family="Helvetica,sans-Serif" font-size="10.00">+ initFrom()</text>
<text text-anchor="start" x="139.5" y="-468.5" font-family="Helvetica,sans-Serif" font-size="10.00">+ serializeTo()</text>
<text text-anchor="start" x="139.5" y="-457.5" font-family="Helvetica,sans-Serif" font-size="10.00">+ Instance()</text>
</a>
</g>
</g>
<!-- Node5&#45;&gt;Node8 -->
<g id="edge8" class="edge"><title>Node5&#45;&gt;Node8</title>
<path fill="none" stroke="midnightblue" d="M177.963,-602.784C180.693,-592.587 183.329,-582.74 185.792,-573.542"/>
<polygon fill="none" stroke="midnightblue" points="174.525,-602.094 175.32,-612.659 181.287,-603.904 174.525,-602.094"/>
</g>
<!-- Node6 -->
<g id="node6" class="node"><title>Node6</title>
<polygon fill="none" stroke="#bfbfbf" points="-0.5,-972.5 -0.5,-1051.5 130.5,-1051.5 130.5,-972.5 -0.5,-972.5"/>
<text text-anchor="start" x="7.5" y="-1039.5" font-family="Helvetica,sans-Serif" font-size="10.00">map&lt; std::string, o2</text>
<text text-anchor="start" x="7.5" y="-1028.5" font-family="Helvetica,sans-Serif" font-size="10.00">::conf::ConfigurableParam</text>
<text text-anchor="middle" x="65" y="-1017.5" font-family="Helvetica,sans-Serif" font-size="10.00">::EParamProvenance &gt; *</text>
<polyline fill="none" stroke="#bfbfbf" points="-0.5,-1010.5 130.5,-1010.5 "/>
<text text-anchor="middle" x="65" y="-998.5" font-family="Helvetica,sans-Serif" font-size="10.00"> </text>
<polyline fill="none" stroke="#bfbfbf" points="-0.5,-991.5 130.5,-991.5 "/>
<text text-anchor="middle" x="65" y="-979.5" font-family="Helvetica,sans-Serif" font-size="10.00"> </text>
</g>
<!-- Node6&#45;&gt;Node5 -->
<g id="edge5" class="edge"><title>Node6&#45;&gt;Node5</title>
<path fill="none" stroke="#404040" d="M67.2468,-972.41C68.2821,-962.427 69.7936,-951.747 72,-942 72.5283,-939.666 73.0789,-937.321 73.6499,-934.966"/>
<polygon fill="none" stroke="#404040" points="73.7029,-934.758 71.3095,-927.955 76.6679,-923.13 79.0614,-929.932 73.7029,-934.758"/>
<text text-anchor="middle" x="126.5" y="-945.5" font-family="Helvetica,sans-Serif" font-size="10.00"> #sValueProvenanceMap</text>
</g>
<!-- Node7 -->
<g id="node7" class="node"><title>Node7</title>
<polygon fill="none" stroke="#bfbfbf" points="148.5,-972.5 148.5,-1051.5 257.5,-1051.5 257.5,-972.5 148.5,-972.5"/>
<text text-anchor="start" x="156.5" y="-1039.5" font-family="Helvetica,sans-Serif" font-size="10.00">map&lt; std::string, std</text>
<text text-anchor="start" x="156.5" y="-1028.5" font-family="Helvetica,sans-Serif" font-size="10.00">::pair&lt; std::type_info</text>
<text text-anchor="middle" x="203" y="-1017.5" font-family="Helvetica,sans-Serif" font-size="10.00"> const &amp;, void * &gt; &gt; *</text>
<polyline fill="none" stroke="#bfbfbf" points="148.5,-1010.5 257.5,-1010.5 "/>
<text text-anchor="middle" x="203" y="-998.5" font-family="Helvetica,sans-Serif" font-size="10.00"> </text>
<polyline fill="none" stroke="#bfbfbf" points="148.5,-991.5 257.5,-991.5 "/>
<text text-anchor="middle" x="203" y="-979.5" font-family="Helvetica,sans-Serif" font-size="10.00"> </text>
</g>
<!-- Node7&#45;&gt;Node5 -->
<g id="edge6" class="edge"><title>Node7&#45;&gt;Node5</title>
<path fill="none" stroke="#404040" d="M191.99,-972.387C188.84,-961.336 185.191,-948.539 181.288,-934.85"/>
<polygon fill="none" stroke="#404040" points="181.245,-934.701 175.753,-930.027 177.955,-923.161 183.447,-927.834 181.245,-934.701"/>
<text text-anchor="middle" x="234.5" y="-945.5" font-family="Helvetica,sans-Serif" font-size="10.00"> #sKeyToStorageMap</text>
</g>
<!-- Node8&#45;&gt;Node4 -->
<g id="edge7" class="edge"><title>Node8&#45;&gt;Node4</title>
<path fill="none" stroke="orange" d="M167.714,-440.776C161.39,-427.823 154.836,-414.398 148.662,-401.754"/>
<polygon fill="orange" stroke="orange" points="164.737,-442.656 172.27,-450.106 171.027,-439.585 164.737,-442.656"/>
<text text-anchor="middle" x="207" y="-423.5" font-family="Helvetica,sans-Serif" font-size="10.00"> &lt; SimCutParams &gt;</text>
</g>
<!-- Node9 -->
<g id="node9" class="node"><title>Node9</title>
<polygon fill="none" stroke="#bfbfbf" points="207.5,-311.5 207.5,-368.5 252.5,-368.5 252.5,-311.5 207.5,-311.5"/>
<text text-anchor="middle" x="230" y="-356.5" font-family="Helvetica,sans-Serif" font-size="10.00">double</text>
<polyline fill="none" stroke="#bfbfbf" points="207.5,-349.5 252.5,-349.5 "/>
<text text-anchor="middle" x="230" y="-337.5" font-family="Helvetica,sans-Serif" font-size="10.00"> </text>
<polyline fill="none" stroke="#bfbfbf" points="207.5,-330.5 252.5,-330.5 "/>
<text text-anchor="middle" x="230" y="-318.5" font-family="Helvetica,sans-Serif" font-size="10.00"> </text>
</g>
<!-- Node9&#45;&gt;Node3 -->
<g id="edge9" class="edge"><title>Node9&#45;&gt;Node3</title>
<path fill="none" stroke="#404040" d="M230,-311.35C230,-288.868 230,-256.855 230,-231.643"/>
<polygon fill="none" stroke="#404040" points="230,-231.526 226,-225.526 230,-219.526 234,-225.526 230,-231.526"/>
<text text-anchor="middle" x="273" y="-252" font-family="Helvetica,sans-Serif" font-size="10.00"> +maxRTracking</text>
<text text-anchor="middle" x="273" y="-241" font-family="Helvetica,sans-Serif" font-size="10.00">+maxAbsZTracking</text>
</g>
<!-- Node10 -->
<g id="node10" class="node"><title>Node10</title>
<polygon fill="none" stroke="#bfbfbf" points="321.5,-311.5 321.5,-368.5 356.5,-368.5 356.5,-311.5 321.5,-311.5"/>
<text text-anchor="middle" x="339" y="-356.5" font-family="Helvetica,sans-Serif" font-size="10.00">bool</text>
<polyline fill="none" stroke="#bfbfbf" points="321.5,-349.5 356.5,-349.5 "/>
<text text-anchor="middle" x="339" y="-337.5" font-family="Helvetica,sans-Serif" font-size="10.00"> </text>
<polyline fill="none" stroke="#bfbfbf" points="321.5,-330.5 356.5,-330.5 "/>
<text text-anchor="middle" x="339" y="-318.5" font-family="Helvetica,sans-Serif" font-size="10.00"> </text>
</g>
<!-- Node10&#45;&gt;Node3 -->
<g id="edge10" class="edge"><title>Node10&#45;&gt;Node3</title>
<path fill="none" stroke="#404040" d="M339.108,-311.088C337.839,-289.194 332.954,-259.01 317,-238 312.932,-232.642 308.057,-227.844 302.719,-223.561"/>
<polygon fill="none" stroke="#404040" points="302.453,-223.37 295.245,-223.139 292.687,-216.396 299.895,-216.628 302.453,-223.37"/>
<text text-anchor="middle" x="359.5" y="-246.5" font-family="Helvetica,sans-Serif" font-size="10.00"> +stepFiltering</text>
</g>
</g>
</svg>
