<?xml version="1.0" encoding="UTF-8" standalone="no"?>
<!DOCTYPE svg PUBLIC "-//W3C//DTD SVG 1.1//EN"
 "http://www.w3.org/Graphics/SVG/1.1/DTD/svg11.dtd">
<!-- Generated by graphviz version 2.36.0 (20140111.2315)
 -->
<!-- Title: /home/travis/build/AliceO2Group/AliceO2/DataFormats/Detectors/MUON/MID/include/DataFormatsMID/Cluster2D.h Pages: 1 -->
<!--zoomable 252 -->
<svg id="main" version="1.1" xmlns="http://www.w3.org/2000/svg" xmlns:xlink="http://www.w3.org/1999/xlink" xml:space="preserve" onload="init(evt)">
<style type="text/css"><![CDATA[
.edge:hover path { stroke: red; }
.edge:hover polygon { stroke: red; fill: red; }
]]></style>
<script type="text/javascript"><![CDATA[
var edges = document.getElementsByTagName('g');
if (edges && edges.length) {
  for (var i=0;i<edges.length;i++) {
    if (edges[i].id.substr(0,4)=='edge') {
      edges[i].setAttribute('class','edge');
    }
  }
}
]]></script>
        <defs>
                <circle id="rim" cx="0" cy="0" r="7"/>
                <circle id="rim2" cx="0" cy="0" r="3.5"/>
                <g id="zoomPlus">
                        <use xlink:href="#rim" fill="#404040">
                                <set attributeName="fill" to="#808080" begin="zoomplus.mouseover" end="zoomplus.mouseout"/>
                        </use>
                        <path d="M-4,0h8M0,-4v8" fill="none" stroke="white" stroke-width="1.5" pointer-events="none"/>
                </g>
                <g id="zoomMin">
                        <use xlink:href="#rim" fill="#404040">
                                <set attributeName="fill" to="#808080" begin="zoomminus.mouseover" end="zoomminus.mouseout"/>
                        </use>
                        <path d="M-4,0h8" fill="none" stroke="white" stroke-width="1.5" pointer-events="none"/>
                </g>
                <g id="dirArrow">
                        <path fill="none" stroke="white" stroke-width="1.5" d="M0,-3.0v7 M-2.5,-0.5L0,-3.0L2.5,-0.5"/>
                </g>
               <g id="resetDef">
                       <use xlink:href="#rim2" fill="#404040">
                               <set attributeName="fill" to="#808080" begin="reset.mouseover" end="reset.mouseout"/>
                       </use>
               </g>
        </defs>

<script type="text/javascript">
var viewWidth = 1249;
var viewHeight = 252;
var sectionId = 'dynsection-1';
</script>
<script xlink:href="../../svgpan.js"/>
<svg id="graph" class="graph">
<g id="viewport">
<title>/home/travis/build/AliceO2Group/AliceO2/DataFormats/Detectors/MUON/MID/include/DataFormatsMID/Cluster2D.h</title>
<!-- Node1 -->
<g id="node1" class="node"><title>Node1</title>
<polygon fill="#bfbfbf" stroke="black" points="611.5,-180.5 611.5,-243.5 796.5,-243.5 796.5,-180.5 611.5,-180.5"/>
<text text-anchor="start" x="619.5" y="-231.5" font-family="Helvetica,sans-Serif" font-size="10.00">/home/travis/build</text>
<text text-anchor="start" x="619.5" y="-220.5" font-family="Helvetica,sans-Serif" font-size="10.00">/AliceO2Group/AliceO2</text>
<text text-anchor="start" x="619.5" y="-209.5" font-family="Helvetica,sans-Serif" font-size="10.00">/DataFormats/Detectors</text>
<text text-anchor="start" x="619.5" y="-198.5" font-family="Helvetica,sans-Serif" font-size="10.00">/MUON/MID/include/DataFormatsMID</text>
<text text-anchor="middle" x="704" y="-187.5" font-family="Helvetica,sans-Serif" font-size="10.00">/Cluster2D.h</text>
</g>
<!-- Node2 -->
<g id="node2" class="node"><title>Node2</title>
<g id="a_node2"><a xlink:href="../../d9/d2f/testBoostSerializer_8cxx.html" target="_top" xlink:title="/home/travis/build\l/AliceO2Group/AliceO2\l/Common/Utils/test/testBoost\lSerializer.cxx">
<polygon fill="none" stroke="black" points="177.5,-91 177.5,-143 324.5,-143 324.5,-91 177.5,-91"/>
<text text-anchor="start" x="185.5" y="-131" font-family="Helvetica,sans-Serif" font-size="10.00">/home/travis/build</text>
<text text-anchor="start" x="185.5" y="-120" font-family="Helvetica,sans-Serif" font-size="10.00">/AliceO2Group/AliceO2</text>
<text text-anchor="start" x="185.5" y="-109" font-family="Helvetica,sans-Serif" font-size="10.00">/Common/Utils/test/testBoost</text>
<text text-anchor="middle" x="251" y="-98" font-family="Helvetica,sans-Serif" font-size="10.00">Serializer.cxx</text>
</a>
</g>
</g>
<!-- Node1&#45;&gt;Node2 -->
<g id="edge1" class="edge"><title>Node1&#45;&gt;Node2</title>
<path fill="none" stroke="midnightblue" d="M601.531,-196.122C526.616,-184.367 422.834,-166.256 333,-144 330.246,-143.318 327.449,-142.593 324.63,-141.837"/>
<polygon fill="midnightblue" stroke="midnightblue" points="601.024,-199.585 611.444,-197.666 602.102,-192.668 601.024,-199.585"/>
</g>
<!-- Node3 -->
<g id="node3" class="node"><title>Node3</title>
<g id="a_node3"><a xlink:href="../../d5/d53/Clusterizer_8h.html" target="_top" xlink:title="Cluster reconstruction algorithm for MID. ">
<polygon fill="none" stroke="black" points="342.5,-91 342.5,-143 517.5,-143 517.5,-91 342.5,-91"/>
<text text-anchor="start" x="350.5" y="-131" font-family="Helvetica,sans-Serif" font-size="10.00">/home/travis/build</text>
<text text-anchor="start" x="350.5" y="-120" font-family="Helvetica,sans-Serif" font-size="10.00">/AliceO2Group/AliceO2</text>
<text text-anchor="start" x="350.5" y="-109" font-family="Helvetica,sans-Serif" font-size="10.00">/Detectors/MUON/MID/Clustering</text>
<text text-anchor="middle" x="430" y="-98" font-family="Helvetica,sans-Serif" font-size="10.00">/include/MIDClustering/Clusterizer.h</text>
</a>
</g>
</g>
<!-- Node1&#45;&gt;Node3 -->
<g id="edge2" class="edge"><title>Node1&#45;&gt;Node3</title>
<path fill="none" stroke="midnightblue" d="M604.166,-177.115C570.95,-165.841 534.58,-153.496 503.706,-143.017"/>
<polygon fill="midnightblue" stroke="midnightblue" points="603.308,-180.52 613.903,-180.42 605.558,-173.891 603.308,-180.52"/>
</g>
<!-- Node7 -->
<g id="node7" class="node"><title>Node7</title>
<g id="a_node7"><a xlink:href="../../d7/d1a/PreClusterizer_8h.html" target="_top" xlink:title="Pre&#45;Cluster reconstruction algorithm for MID. ">
<polygon fill="none" stroke="black" points="536,-91 536,-143 726,-143 726,-91 536,-91"/>
<text text-anchor="start" x="544" y="-131" font-family="Helvetica,sans-Serif" font-size="10.00">/home/travis/build</text>
<text text-anchor="start" x="544" y="-120" font-family="Helvetica,sans-Serif" font-size="10.00">/AliceO2Group/AliceO2</text>
<text text-anchor="start" x="544" y="-109" font-family="Helvetica,sans-Serif" font-size="10.00">/Detectors/MUON/MID/Clustering</text>
<text text-anchor="middle" x="631" y="-98" font-family="Helvetica,sans-Serif" font-size="10.00">/include/MIDClustering/PreClusterizer.h</text>
</a>
</g>
</g>
<!-- Node1&#45;&gt;Node7 -->
<g id="edge6" class="edge"><title>Node1&#45;&gt;Node7</title>
<path fill="none" stroke="midnightblue" d="M673.531,-172.183C665.814,-162.352 657.727,-152.05 650.702,-143.1"/>
<polygon fill="midnightblue" stroke="midnightblue" points="670.967,-174.586 679.895,-180.291 676.473,-170.263 670.967,-174.586"/>
</g>
<!-- Node9 -->
<g id="node9" class="node"><title>Node9</title>
<g id="a_node9"><a xlink:href="../../db/d8e/MUON_2MID_2Tracking_2include_2MIDTracking_2Tracker_8h.html" target="_top" xlink:title="Track reconstruction algorithm for MID. ">
<polygon fill="none" stroke="black" points="855,-91 855,-143 1013,-143 1013,-91 855,-91"/>
<text text-anchor="start" x="863" y="-131" font-family="Helvetica,sans-Serif" font-size="10.00">/home/travis/build</text>
<text text-anchor="start" x="863" y="-120" font-family="Helvetica,sans-Serif" font-size="10.00">/AliceO2Group/AliceO2</text>
<text text-anchor="start" x="863" y="-109" font-family="Helvetica,sans-Serif" font-size="10.00">/Detectors/MUON/MID/Tracking</text>
<text text-anchor="middle" x="934" y="-98" font-family="Helvetica,sans-Serif" font-size="10.00">/include/MIDTracking/Tracker.h</text>
</a>
</g>
</g>
<!-- Node1&#45;&gt;Node9 -->
<g id="edge10" class="edge"><title>Node1&#45;&gt;Node9</title>
<path fill="none" stroke="midnightblue" d="M789.24,-176.533C816.731,-165.417 846.659,-153.316 872.13,-143.017"/>
<polygon fill="midnightblue" stroke="midnightblue" points="787.588,-173.426 779.629,-180.42 790.212,-179.916 787.588,-173.426"/>
</g>
<!-- Node11 -->
<g id="node11" class="node"><title>Node11</title>
<g id="a_node11"><a xlink:href="../../d0/db9/bench__Tracker_8cxx.html" target="_top" xlink:title="Benchmark tracker device for MID. ">
<polygon fill="none" stroke="black" points="732,-1 732,-53 890,-53 890,-1 732,-1"/>
<text text-anchor="start" x="740" y="-41" font-family="Helvetica,sans-Serif" font-size="10.00">/home/travis/build</text>
<text text-anchor="start" x="740" y="-30" font-family="Helvetica,sans-Serif" font-size="10.00">/AliceO2Group/AliceO2</text>
<text text-anchor="start" x="740" y="-19" font-family="Helvetica,sans-Serif" font-size="10.00">/Detectors/MUON/MID/Tracking</text>
<text text-anchor="middle" x="811" y="-8" font-family="Helvetica,sans-Serif" font-size="10.00">/test/bench_Tracker.cxx</text>
</a>
</g>
</g>
<!-- Node1&#45;&gt;Node11 -->
<g id="edge14" class="edge"><title>Node1&#45;&gt;Node11</title>
<path fill="none" stroke="midnightblue" d="M727.033,-171.608C748.033,-135.691 778.428,-83.7078 796.307,-53.1297"/>
<polygon fill="midnightblue" stroke="midnightblue" points="723.936,-169.971 721.909,-180.37 729.978,-173.504 723.936,-169.971"/>
</g>
<!-- Node12 -->
<g id="node12" class="node"><title>Node12</title>
<g id="a_node12"><a xlink:href="../../da/de0/testTracker_8cxx.html" target="_top" xlink:title="Test tracking device for MID. ">
<polygon fill="none" stroke="black" points="1084,-1 1084,-53 1242,-53 1242,-1 1084,-1"/>
<text text-anchor="start" x="1092" y="-41" font-family="Helvetica,sans-Serif" font-size="10.00">/home/travis/build</text>
<text text-anchor="start" x="1092" y="-30" font-family="Helvetica,sans-Serif" font-size="10.00">/AliceO2Group/AliceO2</text>
<text text-anchor="start" x="1092" y="-19" font-family="Helvetica,sans-Serif" font-size="10.00">/Detectors/MUON/MID/Tracking</text>
<text text-anchor="middle" x="1163" y="-8" font-family="Helvetica,sans-Serif" font-size="10.00">/test/testTracker.cxx</text>
</a>
</g>
</g>
<!-- Node1&#45;&gt;Node12 -->
<g id="edge15" class="edge"><title>Node1&#45;&gt;Node12</title>
<path fill="none" stroke="midnightblue" d="M806.646,-201.819C870.735,-193.108 953.581,-176.287 1021,-144 1068.09,-121.451 1113.12,-80.1864 1139.41,-53.4398"/>
<polygon fill="midnightblue" stroke="midnightblue" points="805.985,-198.376 796.527,-203.149 806.897,-205.316 805.985,-198.376"/>
</g>
<!-- Node4 -->
<g id="node4" class="node"><title>Node4</title>
<g id="a_node4"><a xlink:href="../../d9/dd5/Clusterizer_8cxx.html" target="_top" xlink:title="Implementation of the cluster reconstruction algorithm for MID. ">
<polygon fill="none" stroke="black" points="-0.5,-1 -0.5,-53 164.5,-53 164.5,-1 -0.5,-1"/>
<text text-anchor="start" x="7.5" y="-41" font-family="Helvetica,sans-Serif" font-size="10.00">/home/travis/build</text>
<text text-anchor="start" x="7.5" y="-30" font-family="Helvetica,sans-Serif" font-size="10.00">/AliceO2Group/AliceO2</text>
<text text-anchor="start" x="7.5" y="-19" font-family="Helvetica,sans-Serif" font-size="10.00">/Detectors/MUON/MID/Clustering</text>
<text text-anchor="middle" x="82" y="-8" font-family="Helvetica,sans-Serif" font-size="10.00">/src/Clusterizer.cxx</text>
</a>
</g>
</g>
<!-- Node3&#45;&gt;Node4 -->
<g id="edge3" class="edge"><title>Node3&#45;&gt;Node4</title>
<path fill="none" stroke="midnightblue" d="M332.285,-89.8716C260.533,-72.4821 240.592,-71.2451 173,-54 170.293,-53.3095 167.545,-52.596 164.772,-51.8657"/>
<polygon fill="midnightblue" stroke="midnightblue" points="331.727,-93.3381 342.272,-92.3145 333.39,-86.5386 331.727,-93.3381"/>
</g>
<!-- Node5 -->
<g id="node5" class="node"><title>Node5</title>
<g id="a_node5"><a xlink:href="../../d2/d12/bench__Clusterizer_8cxx.html" target="_top" xlink:title="Benchmark clustering device for MID. ">
<polygon fill="none" stroke="black" points="182.5,-1 182.5,-53 347.5,-53 347.5,-1 182.5,-1"/>
<text text-anchor="start" x="190.5" y="-41" font-family="Helvetica,sans-Serif" font-size="10.00">/home/travis/build</text>
<text text-anchor="start" x="190.5" y="-30" font-family="Helvetica,sans-Serif" font-size="10.00">/AliceO2Group/AliceO2</text>
<text text-anchor="start" x="190.5" y="-19" font-family="Helvetica,sans-Serif" font-size="10.00">/Detectors/MUON/MID/Clustering</text>
<text text-anchor="middle" x="265" y="-8" font-family="Helvetica,sans-Serif" font-size="10.00">/test/bench_Clusterizer.cxx</text>
</a>
</g>
</g>
<!-- Node3&#45;&gt;Node5 -->
<g id="edge4" class="edge"><title>Node3&#45;&gt;Node5</title>
<path fill="none" stroke="midnightblue" d="M373.675,-85.9601C353.599,-75.2526 331.215,-63.3145 312.004,-53.0687"/>
<polygon fill="midnightblue" stroke="midnightblue" points="372.247,-89.165 382.718,-90.7827 375.541,-82.9886 372.247,-89.165"/>
</g>
<!-- Node6 -->
<g id="node6" class="node"><title>Node6</title>
<g id="a_node6"><a xlink:href="../../d6/dee/testClusterizer_8cxx.html" target="_top" xlink:title="Test clustering device for MID. ">
<polygon fill="none" stroke="black" points="365.5,-1 365.5,-53 530.5,-53 530.5,-1 365.5,-1"/>
<text text-anchor="start" x="373.5" y="-41" font-family="Helvetica,sans-Serif" font-size="10.00">/home/travis/build</text>
<text text-anchor="start" x="373.5" y="-30" font-family="Helvetica,sans-Serif" font-size="10.00">/AliceO2Group/AliceO2</text>
<text text-anchor="start" x="373.5" y="-19" font-family="Helvetica,sans-Serif" font-size="10.00">/Detectors/MUON/MID/Clustering</text>
<text text-anchor="middle" x="448" y="-8" font-family="Helvetica,sans-Serif" font-size="10.00">/test/testClusterizer.cxx</text>
</a>
</g>
</g>
<!-- Node3&#45;&gt;Node6 -->
<g id="edge5" class="edge"><title>Node3&#45;&gt;Node6</title>
<path fill="none" stroke="midnightblue" d="M437.264,-80.4892C439.141,-71.3088 441.124,-61.616 442.868,-53.0921"/>
<polygon fill="midnightblue" stroke="midnightblue" points="433.781,-80.0482 435.206,-90.5468 440.639,-81.451 433.781,-80.0482"/>
</g>
<!-- Node7&#45;&gt;Node5 -->
<g id="edge8" class="edge"><title>Node7&#45;&gt;Node5</title>
<path fill="none" stroke="midnightblue" d="M526.3,-90.069C526.2,-90.046 526.1,-90.023 526,-90 450.728,-72.7159 430.953,-72.6198 356,-54 353.289,-53.3266 350.537,-52.6279 347.761,-51.9104"/>
<polygon fill="midnightblue" stroke="midnightblue" points="525.213,-93.4095 535.745,-92.263 526.797,-86.591 525.213,-93.4095"/>
</g>
<!-- Node7&#45;&gt;Node6 -->
<g id="edge9" class="edge"><title>Node7&#45;&gt;Node6</title>
<path fill="none" stroke="midnightblue" d="M569.432,-86.3935C546.935,-75.5755 521.726,-63.453 500.132,-53.0687"/>
<polygon fill="midnightblue" stroke="midnightblue" points="568.031,-89.6032 578.56,-90.7827 571.064,-83.2947 568.031,-89.6032"/>
</g>
<!-- Node8 -->
<g id="node8" class="node"><title>Node8</title>
<g id="a_node8"><a xlink:href="../../db/d2e/PreClusterizer_8cxx.html" target="_top" xlink:title="Implementation of the pre&#45;cluster reconstruction algorithm for MID. ">
<polygon fill="none" stroke="black" points="548.5,-1 548.5,-53 713.5,-53 713.5,-1 548.5,-1"/>
<text text-anchor="start" x="556.5" y="-41" font-family="Helvetica,sans-Serif" font-size="10.00">/home/travis/build</text>
<text text-anchor="start" x="556.5" y="-30" font-family="Helvetica,sans-Serif" font-size="10.00">/AliceO2Group/AliceO2</text>
<text text-anchor="start" x="556.5" y="-19" font-family="Helvetica,sans-Serif" font-size="10.00">/Detectors/MUON/MID/Clustering</text>
<text text-anchor="middle" x="631" y="-8" font-family="Helvetica,sans-Serif" font-size="10.00">/src/PreClusterizer.cxx</text>
</a>
</g>
</g>
<!-- Node7&#45;&gt;Node8 -->
<g id="edge7" class="edge"><title>Node7&#45;&gt;Node8</title>
<path fill="none" stroke="midnightblue" d="M631,-80.4892C631,-71.3088 631,-61.616 631,-53.0921"/>
<polygon fill="midnightblue" stroke="midnightblue" points="627.5,-80.5467 631,-90.5468 634.5,-80.5468 627.5,-80.5467"/>
</g>
<!-- Node10 -->
<g id="node10" class="node"><title>Node10</title>
<g id="a_node10"><a xlink:href="../../de/dbc/MUON_2MID_2Tracking_2src_2Tracker_8cxx.html" target="_top" xlink:title="Implementation of the tracker algorithm for the MID. ">
<polygon fill="none" stroke="black" points="908,-1 908,-53 1066,-53 1066,-1 908,-1"/>
<text text-anchor="start" x="916" y="-41" font-family="Helvetica,sans-Serif" font-size="10.00">/home/travis/build</text>
<text text-anchor="start" x="916" y="-30" font-family="Helvetica,sans-Serif" font-size="10.00">/AliceO2Group/AliceO2</text>
<text text-anchor="start" x="916" y="-19" font-family="Helvetica,sans-Serif" font-size="10.00">/Detectors/MUON/MID/Tracking</text>
<text text-anchor="middle" x="987" y="-8" font-family="Helvetica,sans-Serif" font-size="10.00">/src/Tracker.cxx</text>
</a>
</g>
</g>
<!-- Node9&#45;&gt;Node10 -->
<g id="edge11" class="edge"><title>Node9&#45;&gt;Node10</title>
<path fill="none" stroke="midnightblue" d="M954.498,-81.9652C960.287,-72.3545 966.478,-62.0742 971.888,-53.0921"/>
<polygon fill="midnightblue" stroke="midnightblue" points="951.491,-80.1747 949.33,-90.5468 957.487,-83.7862 951.491,-80.1747"/>
</g>
<!-- Node9&#45;&gt;Node11 -->
<g id="edge12" class="edge"><title>Node9&#45;&gt;Node11</title>
<path fill="none" stroke="midnightblue" d="M890.425,-84.8242C875.948,-74.4671 860.02,-63.0712 846.252,-53.221"/>
<polygon fill="midnightblue" stroke="midnightblue" points="888.584,-87.8106 898.753,-90.7827 892.657,-82.1175 888.584,-87.8106"/>
</g>
<!-- Node9&#45;&gt;Node12 -->
<g id="edge13" class="edge"><title>Node9&#45;&gt;Node12</title>
<path fill="none" stroke="midnightblue" d="M1008.87,-87.229C1037.51,-76.2249 1069.91,-63.7712 1097.6,-53.1328"/>
<polygon fill="midnightblue" stroke="midnightblue" points="1007.39,-84.0463 999.316,-90.9005 1009.91,-90.5805 1007.39,-84.0463"/>
</g>
</g>
</svg>
        <g id="navigator" transform="translate(0 0)" fill="#404254">
                <rect fill="#f2f5e9" fill-opacity="0.5" stroke="#606060" stroke-width=".5" x="0" y="0" width="60" height="60"/>
                <use id="zoomplus" xlink:href="#zoomPlus" x="17" y="9" onmousedown="handleZoom(evt,'in')"/>
                <use id="zoomminus" xlink:href="#zoomMin" x="42" y="9" onmousedown="handleZoom(evt,'out')"/>
                <use id="reset" xlink:href="#resetDef" x="30" y="36" onmousedown="handleReset()"/>
                <g id="arrowUp" xlink:href="#dirArrow" transform="translate(30 24)" onmousedown="handlePan(0,-1)">
                  <use xlink:href="#rim" fill="#404040">
                        <set attributeName="fill" to="#808080" begin="arrowUp.mouseover" end="arrowUp.mouseout"/>
                  </use>
                  <path fill="none" stroke="white" stroke-width="1.5" d="M0,-3.0v7 M-2.5,-0.5L0,-3.0L2.5,-0.5"/>
                </g>
                <g id="arrowRight" xlink:href="#dirArrow" transform="rotate(90) translate(36 -43)" onmousedown="handlePan(1,0)">
                  <use xlink:href="#rim" fill="#404040">
                        <set attributeName="fill" to="#808080" begin="arrowRight.mouseover" end="arrowRight.mouseout"/>
                  </use>
                  <path fill="none" stroke="white" stroke-width="1.5" d="M0,-3.0v7 M-2.5,-0.5L0,-3.0L2.5,-0.5"/>
                </g>
                <g id="arrowDown" xlink:href="#dirArrow" transform="rotate(180) translate(-30 -48)" onmousedown="handlePan(0,1)">
                  <use xlink:href="#rim" fill="#404040">
                        <set attributeName="fill" to="#808080" begin="arrowDown.mouseover" end="arrowDown.mouseout"/>
                  </use>
                  <path fill="none" stroke="white" stroke-width="1.5" d="M0,-3.0v7 M-2.5,-0.5L0,-3.0L2.5,-0.5"/>
                </g>
                <g id="arrowLeft" xlink:href="#dirArrow" transform="rotate(270) translate(-36 17)" onmousedown="handlePan(-1,0)">
                  <use xlink:href="#rim" fill="#404040">
                        <set attributeName="fill" to="#808080" begin="arrowLeft.mouseover" end="arrowLeft.mouseout"/>
                  </use>
                  <path fill="none" stroke="white" stroke-width="1.5" d="M0,-3.0v7 M-2.5,-0.5L0,-3.0L2.5,-0.5"/>
                </g>
        </g>
        <svg viewBox="0 0 15 15" width="100%" height="30px" preserveAspectRatio="xMaxYMin meet">
         <g id="arrow_out" transform="scale(0.3 0.3)">
          <a xlink:href="Cluster2D_8h__dep__incl_org.svg" target="_base">
           <rect id="button" ry="5" rx="5" y="6" x="6" height="38" width="38"
                fill="#f2f5e9" fill-opacity="0.5" stroke="#606060" stroke-width="1.0"/>
           <path id="arrow"
             d="M 11.500037,31.436501 C 11.940474,20.09759 22.043105,11.32322 32.158766,21.979434 L 37.068811,17.246167 C 37.068811,17.246167 37.088388,32 37.088388,32 L 22.160133,31.978069 C 22.160133,31.978069 26.997745,27.140456 26.997745,27.140456 C 18.528582,18.264221 13.291696,25.230495 11.500037,31.436501 z"
             style="fill:#404040;"/>
          </a>
         </g>
        </svg>
</svg>
