<?xml version="1.0" encoding="UTF-8" standalone="no"?>
<!DOCTYPE svg PUBLIC "-//W3C//DTD SVG 1.1//EN"
 "http://www.w3.org/Graphics/SVG/1.1/DTD/svg11.dtd">
<!-- Generated by graphviz version 2.36.0 (20140111.2315)
 -->
<!-- Title: sg_pass_action Pages: 1 -->
<svg width="445pt" height="300pt"
 viewBox="0.00 0.00 445.00 300.00" xmlns="http://www.w3.org/2000/svg" xmlns:xlink="http://www.w3.org/1999/xlink">
<g id="graph0" class="graph" transform="scale(1 1) rotate(0) translate(4 296)">
<title>sg_pass_action</title>
<!-- Node1 -->
<g id="node1" class="node"><title>Node1</title>
<polygon fill="#bfbfbf" stroke="black" points="147.5,-0.5 147.5,-57.5 232.5,-57.5 232.5,-0.5 147.5,-0.5"/>
<text text-anchor="middle" x="190" y="-45.5" font-family="Helvetica,sans-Serif" font-size="10.00">sg_pass_action</text>
<polyline fill="none" stroke="black" points="147.5,-38.5 232.5,-38.5 "/>
<text text-anchor="middle" x="190" y="-26.5" font-family="Helvetica,sans-Serif" font-size="10.00"> </text>
<polyline fill="none" stroke="black" points="147.5,-19.5 232.5,-19.5 "/>
<text text-anchor="middle" x="190" y="-7.5" font-family="Helvetica,sans-Serif" font-size="10.00"> </text>
</g>
<!-- Node2 -->
<g id="node2" class="node"><title>Node2</title>
<polygon fill="none" stroke="#bfbfbf" points="-0.5,-122.5 -0.5,-179.5 50.5,-179.5 50.5,-122.5 -0.5,-122.5"/>
<text text-anchor="middle" x="25" y="-167.5" font-family="Helvetica,sans-Serif" font-size="10.00">uint32_t</text>
<polyline fill="none" stroke="#bfbfbf" points="-0.5,-160.5 50.5,-160.5 "/>
<text text-anchor="middle" x="25" y="-148.5" font-family="Helvetica,sans-Serif" font-size="10.00"> </text>
<polyline fill="none" stroke="#bfbfbf" points="-0.5,-141.5 50.5,-141.5 "/>
<text text-anchor="middle" x="25" y="-129.5" font-family="Helvetica,sans-Serif" font-size="10.00"> </text>
</g>
<!-- Node2&#45;&gt;Node1 -->
<g id="edge1" class="edge"><title>Node2&#45;&gt;Node1</title>
<path fill="none" stroke="#404040" d="M42.625,-122.265C53.3963,-107.044 68.2934,-88.7322 85,-76 100.112,-64.4833 118.555,-55.1589 135.743,-47.9935"/>
<polygon fill="none" stroke="#404040" points="136.231,-47.8002 140.334,-41.8703 147.386,-43.3772 143.283,-49.3071 136.231,-47.8002"/>
<text text-anchor="middle" x="118" y="-90" font-family="Helvetica,sans-Serif" font-size="10.00"> +_end_canary</text>
<text text-anchor="middle" x="118" y="-79" font-family="Helvetica,sans-Serif" font-size="10.00">+_start_canary</text>
</g>
<!-- Node3 -->
<g id="node3" class="node"><title>Node3</title>
<g id="a_node3"><a xlink:href="../../d3/d48/structsg__stencil__attachment__action.html" target="_top" xlink:title="{sg_stencil_attachment\l_action\n||}">
<polygon fill="none" stroke="black" points="68.5,-117 68.5,-185 183.5,-185 183.5,-117 68.5,-117"/>
<text text-anchor="start" x="76.5" y="-173" font-family="Helvetica,sans-Serif" font-size="10.00">sg_stencil_attachment</text>
<text text-anchor="middle" x="126" y="-162" font-family="Helvetica,sans-Serif" font-size="10.00">_action</text>
<polyline fill="none" stroke="black" points="68.5,-155 183.5,-155 "/>
<text text-anchor="middle" x="126" y="-143" font-family="Helvetica,sans-Serif" font-size="10.00"> </text>
<polyline fill="none" stroke="black" points="68.5,-136 183.5,-136 "/>
<text text-anchor="middle" x="126" y="-124" font-family="Helvetica,sans-Serif" font-size="10.00"> </text>
</a>
</g>
</g>
<!-- Node3&#45;&gt;Node1 -->
<g id="edge2" class="edge"><title>Node3&#45;&gt;Node1</title>
<path fill="none" stroke="#404040" d="M143.658,-116.892C151.637,-101.931 161.116,-84.1575 169.416,-68.5951"/>
<polygon fill="none" stroke="#404040" points="169.566,-68.3141 168.86,-61.1376 175.213,-57.7259 175.919,-64.9024 169.566,-68.3141"/>
<text text-anchor="middle" x="183" y="-84.5" font-family="Helvetica,sans-Serif" font-size="10.00"> +stencil</text>
</g>
<!-- Node4 -->
<g id="node4" class="node"><title>Node4</title>
<polygon fill="none" stroke="#bfbfbf" points="194.5,-234.5 194.5,-291.5 253.5,-291.5 253.5,-234.5 194.5,-234.5"/>
<text text-anchor="middle" x="224" y="-279.5" font-family="Helvetica,sans-Serif" font-size="10.00">sg_action</text>
<polyline fill="none" stroke="#bfbfbf" points="194.5,-272.5 253.5,-272.5 "/>
<text text-anchor="middle" x="224" y="-260.5" font-family="Helvetica,sans-Serif" font-size="10.00"> </text>
<polyline fill="none" stroke="#bfbfbf" points="194.5,-253.5 253.5,-253.5 "/>
<text text-anchor="middle" x="224" y="-241.5" font-family="Helvetica,sans-Serif" font-size="10.00"> </text>
</g>
<!-- Node4&#45;&gt;Node3 -->
<g id="edge3" class="edge"><title>Node4&#45;&gt;Node3</title>
<path fill="none" stroke="#404040" d="M199.27,-234.242C188.49,-222.142 175.612,-207.687 163.682,-194.296"/>
<polygon fill="none" stroke="#404040" points="163.593,-194.197 156.616,-192.378 155.611,-185.237 162.589,-187.056 163.593,-194.197"/>
<text text-anchor="middle" x="199" y="-207.5" font-family="Helvetica,sans-Serif" font-size="10.00"> +action</text>
</g>
<!-- Node6 -->
<g id="node6" class="node"><title>Node6</title>
<g id="a_node6"><a xlink:href="../../db/dc9/structsg__color__attachment__action.html" target="_top" xlink:title="{sg_color_attachment\l_action\n||}">
<polygon fill="none" stroke="black" points="201.5,-117 201.5,-185 308.5,-185 308.5,-117 201.5,-117"/>
<text text-anchor="start" x="209.5" y="-173" font-family="Helvetica,sans-Serif" font-size="10.00">sg_color_attachment</text>
<text text-anchor="middle" x="255" y="-162" font-family="Helvetica,sans-Serif" font-size="10.00">_action</text>
<polyline fill="none" stroke="black" points="201.5,-155 308.5,-155 "/>
<text text-anchor="middle" x="255" y="-143" font-family="Helvetica,sans-Serif" font-size="10.00"> </text>
<polyline fill="none" stroke="black" points="201.5,-136 308.5,-136 "/>
<text text-anchor="middle" x="255" y="-124" font-family="Helvetica,sans-Serif" font-size="10.00"> </text>
</a>
</g>
</g>
<!-- Node4&#45;&gt;Node6 -->
<g id="edge7" class="edge"><title>Node4&#45;&gt;Node6</title>
<path fill="none" stroke="#404040" d="M221.666,-234.448C221.57,-224.679 222.311,-213.705 225,-204 225.723,-201.389 226.609,-198.771 227.617,-196.176"/>
<polygon fill="none" stroke="#404040" points="227.721,-195.949 226.566,-188.831 232.693,-185.027 233.847,-192.145 227.721,-195.949"/>
<text text-anchor="middle" x="243" y="-207.5" font-family="Helvetica,sans-Serif" font-size="10.00"> +action</text>
</g>
<!-- Node8 -->
<g id="node8" class="node"><title>Node8</title>
<g id="a_node8"><a xlink:href="../../d3/dd4/structsg__depth__attachment__action.html" target="_top" xlink:title="{sg_depth_attachment\l_action\n||}">
<polygon fill="none" stroke="black" points="327,-117 327,-185 437,-185 437,-117 327,-117"/>
<text text-anchor="start" x="335" y="-173" font-family="Helvetica,sans-Serif" font-size="10.00">sg_depth_attachment</text>
<text text-anchor="middle" x="382" y="-162" font-family="Helvetica,sans-Serif" font-size="10.00">_action</text>
<polyline fill="none" stroke="black" points="327,-155 437,-155 "/>
<text text-anchor="middle" x="382" y="-143" font-family="Helvetica,sans-Serif" font-size="10.00"> </text>
<polyline fill="none" stroke="black" points="327,-136 437,-136 "/>
<text text-anchor="middle" x="382" y="-124" font-family="Helvetica,sans-Serif" font-size="10.00"> </text>
</a>
</g>
</g>
<!-- Node4&#45;&gt;Node8 -->
<g id="edge10" class="edge"><title>Node4&#45;&gt;Node8</title>
<path fill="none" stroke="#404040" d="M247.051,-234.279C256.548,-223.942 268.106,-212.633 280,-204 292.487,-194.936 298.62,-194.219 315.888,-186.291"/>
<polygon fill="none" stroke="#404040" points="315.934,-186.268 319.595,-180.056 326.738,-181.046 323.077,-187.258 315.934,-186.268"/>
<text text-anchor="middle" x="298" y="-207.5" font-family="Helvetica,sans-Serif" font-size="10.00"> +action</text>
</g>
<!-- Node5 -->
<g id="node5" class="node"><title>Node5</title>
<polygon fill="none" stroke="#bfbfbf" points="97,-234.5 97,-291.5 143,-291.5 143,-234.5 97,-234.5"/>
<text text-anchor="middle" x="120" y="-279.5" font-family="Helvetica,sans-Serif" font-size="10.00">uint8_t</text>
<polyline fill="none" stroke="#bfbfbf" points="97,-272.5 143,-272.5 "/>
<text text-anchor="middle" x="120" y="-260.5" font-family="Helvetica,sans-Serif" font-size="10.00"> </text>
<polyline fill="none" stroke="#bfbfbf" points="97,-253.5 143,-253.5 "/>
<text text-anchor="middle" x="120" y="-241.5" font-family="Helvetica,sans-Serif" font-size="10.00"> </text>
</g>
<!-- Node5&#45;&gt;Node3 -->
<g id="edge4" class="edge"><title>Node5&#45;&gt;Node3</title>
<path fill="none" stroke="#404040" d="M120.035,-234.252C120.165,-224.663 120.442,-213.854 121,-204 121.123,-201.82 121.268,-199.59 121.428,-197.338"/>
<polygon fill="none" stroke="#404040" points="121.438,-197.219 117.937,-190.915 122.41,-185.259 125.911,-191.563 121.438,-197.219"/>
<text text-anchor="middle" x="132" y="-207.5" font-family="Helvetica,sans-Serif" font-size="10.00"> +val</text>
</g>
<!-- Node6&#45;&gt;Node1 -->
<g id="edge5" class="edge"><title>Node6&#45;&gt;Node1</title>
<path fill="none" stroke="#404040" d="M237.066,-116.892C228.963,-101.931 219.335,-84.1575 210.906,-68.5951"/>
<polygon fill="none" stroke="#404040" points="210.734,-68.2774 204.359,-64.9068 205.018,-57.7259 211.393,-61.0965 210.734,-68.2774"/>
<text text-anchor="middle" x="245" y="-84.5" font-family="Helvetica,sans-Serif" font-size="10.00"> +colors</text>
</g>
<!-- Node7 -->
<g id="node7" class="node"><title>Node7</title>
<g id="a_node7"><a xlink:href="../../d4/dc3/classfloat.html" target="_top" xlink:title="{float\n||}">
<polygon fill="none" stroke="black" points="346.5,-234.5 346.5,-291.5 381.5,-291.5 381.5,-234.5 346.5,-234.5"/>
<text text-anchor="middle" x="364" y="-279.5" font-family="Helvetica,sans-Serif" font-size="10.00">float</text>
<polyline fill="none" stroke="black" points="346.5,-272.5 381.5,-272.5 "/>
<text text-anchor="middle" x="364" y="-260.5" font-family="Helvetica,sans-Serif" font-size="10.00"> </text>
<polyline fill="none" stroke="black" points="346.5,-253.5 381.5,-253.5 "/>
<text text-anchor="middle" x="364" y="-241.5" font-family="Helvetica,sans-Serif" font-size="10.00"> </text>
</a>
</g>
</g>
<!-- Node7&#45;&gt;Node6 -->
<g id="edge6" class="edge"><title>Node7&#45;&gt;Node6</title>
<path fill="none" stroke="#404040" d="M346.438,-236.06C338.847,-225.626 329.527,-213.776 320,-204 316.482,-200.391 312.717,-196.8 308.836,-193.289"/>
<polygon fill="none" stroke="#404040" points="308.683,-193.155 301.531,-192.23 299.635,-185.272 306.787,-186.198 308.683,-193.155"/>
<text text-anchor="middle" x="341" y="-207.5" font-family="Helvetica,sans-Serif" font-size="10.00"> +val</text>
</g>
<!-- Node7&#45;&gt;Node8 -->
<g id="edge9" class="edge"><title>Node7&#45;&gt;Node8</title>
<path fill="none" stroke="#404040" d="M368.542,-234.242C370.37,-223.073 372.526,-209.897 374.57,-197.404"/>
<polygon fill="none" stroke="#404040" points="374.623,-197.079 371.645,-190.512 376.561,-185.237 379.54,-191.804 374.623,-197.079"/>
<text text-anchor="middle" x="384" y="-207.5" font-family="Helvetica,sans-Serif" font-size="10.00"> +val</text>
</g>
<!-- Node8&#45;&gt;Node1 -->
<g id="edge8" class="edge"><title>Node8&#45;&gt;Node1</title>
<path fill="none" stroke="#404040" d="M331.281,-116.848C311.338,-103.949 288.185,-89.139 267,-76 259.271,-71.2064 251.061,-66.2057 242.991,-61.3419"/>
<polygon fill="none" stroke="#404040" points="242.805,-61.2306 235.602,-61.573 232.516,-55.0558 239.719,-54.7134 242.805,-61.2306"/>
<text text-anchor="middle" x="316" y="-84.5" font-family="Helvetica,sans-Serif" font-size="10.00"> +depth</text>
</g>
</g>
</svg>
