<?xml version="1.0" encoding="UTF-8" standalone="no"?>
<!DOCTYPE svg PUBLIC "-//W3C//DTD SVG 1.1//EN"
 "http://www.w3.org/Graphics/SVG/1.1/DTD/svg11.dtd">
<!-- Generated by graphviz version 2.36.0 (20140111.2315)
 -->
<!-- Title: o2::eventgen::PrimaryGenerator Pages: 1 -->
<svg width="622pt" height="466pt"
 viewBox="0.00 0.00 622.00 466.00" xmlns="http://www.w3.org/2000/svg" xmlns:xlink="http://www.w3.org/1999/xlink">
<g id="graph0" class="graph" transform="scale(1 1) rotate(0) translate(4 462)">
<title>o2::eventgen::PrimaryGenerator</title>
<!-- Node1 -->
<g id="node1" class="node"><title>Node1</title>
<polygon fill="#bfbfbf" stroke="black" points="321.5,-1 321.5,-157 476.5,-157 476.5,-1 321.5,-1"/>
<text text-anchor="middle" x="399" y="-145" font-family="Helvetica,sans-Serif" font-size="10.00">o2::eventgen::PrimaryGenerator</text>
<polyline fill="none" stroke="black" points="321.5,-138 476.5,-138 "/>
<text text-anchor="middle" x="399" y="-126" font-family="Helvetica,sans-Serif" font-size="10.00"> </text>
<polyline fill="none" stroke="black" points="321.5,-119 476.5,-119 "/>
<text text-anchor="start" x="329.5" y="-107" font-family="Helvetica,sans-Serif" font-size="10.00">+ PrimaryGenerator()</text>
<text text-anchor="start" x="329.5" y="-96" font-family="Helvetica,sans-Serif" font-size="10.00">+ ~PrimaryGenerator()</text>
<text text-anchor="start" x="329.5" y="-85" font-family="Helvetica,sans-Serif" font-size="10.00">+ GenerateEvent()</text>
<text text-anchor="start" x="329.5" y="-74" font-family="Helvetica,sans-Serif" font-size="10.00">+ Init()</text>
<text text-anchor="start" x="329.5" y="-63" font-family="Helvetica,sans-Serif" font-size="10.00">+ embedInto()</text>
<text text-anchor="start" x="329.5" y="-52" font-family="Helvetica,sans-Serif" font-size="10.00"># PrimaryGenerator()</text>
<text text-anchor="start" x="329.5" y="-41" font-family="Helvetica,sans-Serif" font-size="10.00"># operator=()</text>
<text text-anchor="start" x="329.5" y="-30" font-family="Helvetica,sans-Serif" font-size="10.00"># setInteractionDiamond()</text>
<text text-anchor="start" x="329.5" y="-19" font-family="Helvetica,sans-Serif" font-size="10.00"># setInteractionVertex()</text>
<text text-anchor="start" x="329.5" y="-8" font-family="Helvetica,sans-Serif" font-size="10.00"># ClassDefOverride()</text>
</g>
<!-- Node2 -->
<g id="node2" class="node"><title>Node2</title>
<g id="a_node2"><a xlink:href="../../d6/d1f/classFairPrimaryGenerator.html" target="_top" xlink:title="{FairPrimaryGenerator\n||}">
<polygon fill="none" stroke="black" points="69,-250.5 69,-307.5 179,-307.5 179,-250.5 69,-250.5"/>
<text text-anchor="middle" x="124" y="-295.5" font-family="Helvetica,sans-Serif" font-size="10.00">FairPrimaryGenerator</text>
<polyline fill="none" stroke="black" points="69,-288.5 179,-288.5 "/>
<text text-anchor="middle" x="124" y="-276.5" font-family="Helvetica,sans-Serif" font-size="10.00"> </text>
<polyline fill="none" stroke="black" points="69,-269.5 179,-269.5 "/>
<text text-anchor="middle" x="124" y="-257.5" font-family="Helvetica,sans-Serif" font-size="10.00"> </text>
</a>
</g>
</g>
<!-- Node2&#45;&gt;Node1 -->
<g id="edge1" class="edge"><title>Node2&#45;&gt;Node1</title>
<path fill="none" stroke="midnightblue" d="M151.953,-242.282C162.511,-230.001 175.104,-216.67 188,-206 228.844,-172.205 279.745,-141.533 321.319,-118.914"/>
<polygon fill="none" stroke="midnightblue" points="149.084,-240.256 145.327,-250.162 154.442,-244.761 149.084,-240.256"/>
</g>
<!-- Node3 -->
<g id="node3" class="node"><title>Node3</title>
<g id="a_node3"><a xlink:href="../../d4/db1/classo2_1_1dataformats_1_1MCEventHeader.html" target="_top" xlink:title="{o2::dataformats::MCEvent\lHeader\n||+ MCEventHeader()\l+ MCEventHeader()\l+ operator=()\l+ ~MCEventHeader()\l+ setEmbeddingFileName()\l+ setEmbeddingEventIndex()\l+ Reset()\l# ClassDefOverride()\l}">
<polygon fill="none" stroke="black" points="197.5,-206.5 197.5,-351.5 340.5,-351.5 340.5,-206.5 197.5,-206.5"/>
<text text-anchor="start" x="205.5" y="-339.5" font-family="Helvetica,sans-Serif" font-size="10.00">o2::dataformats::MCEvent</text>
<text text-anchor="middle" x="269" y="-328.5" font-family="Helvetica,sans-Serif" font-size="10.00">Header</text>
<polyline fill="none" stroke="black" points="197.5,-321.5 340.5,-321.5 "/>
<text text-anchor="middle" x="269" y="-309.5" font-family="Helvetica,sans-Serif" font-size="10.00"> </text>
<polyline fill="none" stroke="black" points="197.5,-302.5 340.5,-302.5 "/>
<text text-anchor="start" x="205.5" y="-290.5" font-family="Helvetica,sans-Serif" font-size="10.00">+ MCEventHeader()</text>
<text text-anchor="start" x="205.5" y="-279.5" font-family="Helvetica,sans-Serif" font-size="10.00">+ MCEventHeader()</text>
<text text-anchor="start" x="205.5" y="-268.5" font-family="Helvetica,sans-Serif" font-size="10.00">+ operator=()</text>
<text text-anchor="start" x="205.5" y="-257.5" font-family="Helvetica,sans-Serif" font-size="10.00">+ ~MCEventHeader()</text>
<text text-anchor="start" x="205.5" y="-246.5" font-family="Helvetica,sans-Serif" font-size="10.00">+ setEmbeddingFileName()</text>
<text text-anchor="start" x="205.5" y="-235.5" font-family="Helvetica,sans-Serif" font-size="10.00">+ setEmbeddingEventIndex()</text>
<text text-anchor="start" x="205.5" y="-224.5" font-family="Helvetica,sans-Serif" font-size="10.00">+ Reset()</text>
<text text-anchor="start" x="205.5" y="-213.5" font-family="Helvetica,sans-Serif" font-size="10.00"># ClassDefOverride()</text>
</a>
</g>
</g>
<!-- Node3&#45;&gt;Node1 -->
<g id="edge2" class="edge"><title>Node3&#45;&gt;Node1</title>
<path fill="none" stroke="#404040" d="M295.498,-206.471C300.429,-195.953 305.956,-185.479 312,-176 313.962,-172.923 316.025,-169.85 318.168,-166.793"/>
<polygon fill="none" stroke="#404040" points="318.174,-166.785 318.489,-159.581 325.26,-157.1 324.945,-164.305 318.174,-166.785"/>
<text text-anchor="middle" x="348.5" y="-179.5" font-family="Helvetica,sans-Serif" font-size="10.00"> #mEmbedEvent</text>
</g>
<!-- Node4 -->
<g id="node4" class="node"><title>Node4</title>
<g id="a_node4"><a xlink:href="../../dd/d8f/classFairMCEventHeader.html" target="_top" xlink:title="{FairMCEventHeader\n||}">
<polygon fill="none" stroke="black" points="0,-400.5 0,-457.5 106,-457.5 106,-400.5 0,-400.5"/>
<text text-anchor="middle" x="53" y="-445.5" font-family="Helvetica,sans-Serif" font-size="10.00">FairMCEventHeader</text>
<polyline fill="none" stroke="black" points="0,-438.5 106,-438.5 "/>
<text text-anchor="middle" x="53" y="-426.5" font-family="Helvetica,sans-Serif" font-size="10.00"> </text>
<polyline fill="none" stroke="black" points="0,-419.5 106,-419.5 "/>
<text text-anchor="middle" x="53" y="-407.5" font-family="Helvetica,sans-Serif" font-size="10.00"> </text>
</a>
</g>
</g>
<!-- Node4&#45;&gt;Node3 -->
<g id="edge3" class="edge"><title>Node4&#45;&gt;Node3</title>
<path fill="none" stroke="midnightblue" d="M101.489,-394.834C114.968,-386.243 129.807,-377.351 144,-370 162.762,-360.283 170.07,-363.178 188,-352 191.034,-350.109 194.063,-348.102 197.072,-346.006"/>
<polygon fill="none" stroke="midnightblue" points="99.3489,-392.05 92.8487,-400.416 103.148,-397.929 99.3489,-392.05"/>
</g>
<!-- Node5 -->
<g id="node5" class="node"><title>Node5</title>
<polygon fill="none" stroke="#bfbfbf" points="123.5,-400.5 123.5,-457.5 152.5,-457.5 152.5,-400.5 123.5,-400.5"/>
<text text-anchor="middle" x="138" y="-445.5" font-family="Helvetica,sans-Serif" font-size="10.00">int</text>
<polyline fill="none" stroke="#bfbfbf" points="123.5,-438.5 152.5,-438.5 "/>
<text text-anchor="middle" x="138" y="-426.5" font-family="Helvetica,sans-Serif" font-size="10.00"> </text>
<polyline fill="none" stroke="#bfbfbf" points="123.5,-419.5 152.5,-419.5 "/>
<text text-anchor="middle" x="138" y="-407.5" font-family="Helvetica,sans-Serif" font-size="10.00"> </text>
</g>
<!-- Node5&#45;&gt;Node3 -->
<g id="edge4" class="edge"><title>Node5&#45;&gt;Node3</title>
<path fill="none" stroke="#404040" d="M140.902,-400.489C143.133,-390.061 147.068,-378.634 154,-370 162.949,-358.855 170.88,-360.578 186.872,-351.822"/>
<polygon fill="none" stroke="#404040" points="187.126,-351.663 190.079,-345.084 197.287,-345.28 194.334,-351.858 187.126,-351.663"/>
<text text-anchor="middle" x="208" y="-373.5" font-family="Helvetica,sans-Serif" font-size="10.00"> #mEmbeddingFileName</text>
</g>
<!-- Node6 -->
<g id="node6" class="node"><title>Node6</title>
<polygon fill="none" stroke="#bfbfbf" points="316,-400.5 316,-457.5 352,-457.5 352,-400.5 316,-400.5"/>
<text text-anchor="middle" x="334" y="-445.5" font-family="Helvetica,sans-Serif" font-size="10.00">Int_t</text>
<polyline fill="none" stroke="#bfbfbf" points="316,-438.5 352,-438.5 "/>
<text text-anchor="middle" x="334" y="-426.5" font-family="Helvetica,sans-Serif" font-size="10.00"> </text>
<polyline fill="none" stroke="#bfbfbf" points="316,-419.5 352,-419.5 "/>
<text text-anchor="middle" x="334" y="-407.5" font-family="Helvetica,sans-Serif" font-size="10.00"> </text>
</g>
<!-- Node6&#45;&gt;Node1 -->
<g id="edge8" class="edge"><title>Node6&#45;&gt;Node1</title>
<path fill="none" stroke="#404040" d="M352.035,-417.172C363.697,-409.081 377.967,-396.876 385,-382 402.186,-345.647 403.815,-244.627 402.353,-169.371"/>
<polygon fill="none" stroke="#404040" points="402.346,-169.054 398.215,-163.144 402.082,-157.057 406.213,-162.968 402.346,-169.054"/>
<text text-anchor="middle" x="442.5" y="-282" font-family="Helvetica,sans-Serif" font-size="10.00"> #mEmbedEntries</text>
<text text-anchor="middle" x="442.5" y="-271" font-family="Helvetica,sans-Serif" font-size="10.00">#mEmbedIndex</text>
</g>
<!-- Node6&#45;&gt;Node3 -->
<g id="edge5" class="edge"><title>Node6&#45;&gt;Node3</title>
<path fill="none" stroke="#404040" d="M315.939,-420.677C300.62,-413.384 279.643,-400.582 270,-382 266.967,-376.155 264.793,-369.855 263.294,-363.357"/>
<polygon fill="none" stroke="#404040" points="263.29,-363.331 258.343,-358.085 261.284,-351.5 266.231,-356.747 263.29,-363.331"/>
<text text-anchor="middle" x="327.5" y="-373.5" font-family="Helvetica,sans-Serif" font-size="10.00"> #mEmbeddingEventIndex</text>
</g>
<!-- Node7 -->
<g id="node7" class="node"><title>Node7</title>
<polygon fill="none" stroke="#bfbfbf" points="496.5,-250.5 496.5,-307.5 541.5,-307.5 541.5,-250.5 496.5,-250.5"/>
<text text-anchor="middle" x="519" y="-295.5" font-family="Helvetica,sans-Serif" font-size="10.00">TFile *</text>
<polyline fill="none" stroke="#bfbfbf" points="496.5,-288.5 541.5,-288.5 "/>
<text text-anchor="middle" x="519" y="-276.5" font-family="Helvetica,sans-Serif" font-size="10.00"> </text>
<polyline fill="none" stroke="#bfbfbf" points="496.5,-269.5 541.5,-269.5 "/>
<text text-anchor="middle" x="519" y="-257.5" font-family="Helvetica,sans-Serif" font-size="10.00"> </text>
</g>
<!-- Node7&#45;&gt;Node1 -->
<g id="edge6" class="edge"><title>Node7&#45;&gt;Node1</title>
<path fill="none" stroke="#404040" d="M505.627,-250.274C498.878,-236.736 490.363,-220.32 482,-206 474.599,-193.328 466.462,-180.168 458.266,-167.34"/>
<polygon fill="none" stroke="#404040" points="458.194,-167.227 451.581,-164.35 451.694,-157.139 458.306,-160.017 458.194,-167.227"/>
<text text-anchor="middle" x="502" y="-179.5" font-family="Helvetica,sans-Serif" font-size="10.00"> #mEmbedFile</text>
</g>
<!-- Node8 -->
<g id="node8" class="node"><title>Node8</title>
<polygon fill="none" stroke="#bfbfbf" points="572,-250.5 572,-307.5 614,-307.5 614,-250.5 572,-250.5"/>
<text text-anchor="middle" x="593" y="-295.5" font-family="Helvetica,sans-Serif" font-size="10.00">TTree</text>
<polyline fill="none" stroke="#bfbfbf" points="572,-288.5 614,-288.5 "/>
<text text-anchor="middle" x="593" y="-276.5" font-family="Helvetica,sans-Serif" font-size="10.00"> </text>
<polyline fill="none" stroke="#bfbfbf" points="572,-269.5 614,-269.5 "/>
<text text-anchor="middle" x="593" y="-257.5" font-family="Helvetica,sans-Serif" font-size="10.00"> </text>
</g>
<!-- Node8&#45;&gt;Node1 -->
<g id="edge7" class="edge"><title>Node8&#45;&gt;Node1</title>
<path fill="none" stroke="#404040" d="M582.31,-250.253C572.938,-228.391 557.732,-198.029 538,-176 523.155,-159.427 504.901,-144.245 486.563,-131.087"/>
<polygon fill="none" stroke="#404040" points="486.526,-131.061 479.316,-130.906 476.686,-124.191 483.896,-124.346 486.526,-131.061"/>
<text text-anchor="middle" x="579.5" y="-179.5" font-family="Helvetica,sans-Serif" font-size="10.00"> #mEmbedTree</text>
</g>
</g>
</svg>
