<?xml version="1.0" encoding="UTF-8" standalone="no"?>
<!DOCTYPE svg PUBLIC "-//W3C//DTD SVG 1.1//EN"
 "http://www.w3.org/Graphics/SVG/1.1/DTD/svg11.dtd">
<!-- Generated by graphviz version 2.36.0 (20140111.2315)
 -->
<!-- Title: /home/travis/build/AliceO2Group/AliceO2/Detectors/ITSMFT/common/reconstruction/include/ITSMFTReconstruction Pages: 1 -->
<svg width="160pt" height="295pt"
 viewBox="0.00 0.00 160.00 295.00" xmlns="http://www.w3.org/2000/svg" xmlns:xlink="http://www.w3.org/1999/xlink">
<g id="graph0" class="graph" transform="scale(1 1) rotate(0) translate(4 291)">
<title>/home/travis/build/AliceO2Group/AliceO2/Detectors/ITSMFT/common/reconstruction/include/ITSMFTReconstruction</title>
<g id="clust1" class="cluster"><title>clusterdir_5ae603abd45d2d750401429407a7bf9c</title>
<g id="a_clust1"><a xlink:href="dir_5ae603abd45d2d750401429407a7bf9c.html" target="_top" xlink:title="include">
<polygon fill="#ddddee" stroke="black" points="8,-208 8,-279 144,-279 144,-208 8,-208"/>
<text text-anchor="middle" x="76" y="-267" font-family="Helvetica,sans-Serif" font-size="10.00">include</text>
</a>
</g>
</g>
<!-- dir_c43c53e0c74ce2818e14880b8009424b -->
<g id="node1" class="node"><title>dir_c43c53e0c74ce2818e14880b8009424b</title>
<g id="a_node1"><a xlink:href="dir_c43c53e0c74ce2818e14880b8009424b.html" target="_top" xlink:title="ITSMFTReconstruction">
<polygon fill="#eeeeff" stroke="black" points="135.25,-252 16.75,-252 16.75,-216 135.25,-216 135.25,-252"/>
<text text-anchor="middle" x="76" y="-231.5" font-family="Helvetica,sans-Serif" font-size="10.00">ITSMFTReconstruction</text>
</a>
</g>
</g>
<!-- dir_4ab6b4cc6a7edbff49100e9123df213f -->
<g id="node2" class="node"><title>dir_4ab6b4cc6a7edbff49100e9123df213f</title>
<g id="a_node2"><a xlink:href="dir_4ab6b4cc6a7edbff49100e9123df213f.html" target="_top" xlink:title="Common">
<polygon fill="none" stroke="red" points="56.5,-108 1.5,-108 1.5,-72 56.5,-72 56.5,-108"/>
<text text-anchor="middle" x="29" y="-87.5" font-family="Helvetica,sans-Serif" font-size="10.00">Common</text>
</a>
</g>
</g>
<!-- dir_c43c53e0c74ce2818e14880b8009424b&#45;&gt;dir_4ab6b4cc6a7edbff49100e9123df213f -->
<g id="edge2" class="edge"><title>dir_c43c53e0c74ce2818e14880b8009424b&#45;&gt;dir_4ab6b4cc6a7edbff49100e9123df213f</title>
<path fill="none" stroke="black" d="M61.0301,-215.555C53.4546,-205.748 44.8565,-192.91 40,-180 32.5654,-160.237 29.9209,-136.436 29.0777,-118.421"/>
<polygon fill="black" stroke="black" points="32.5721,-118.185 28.7626,-108.299 25.5755,-118.403 32.5721,-118.185"/>
<g id="a_edge2&#45;headlabel"><a xlink:href="dir_000275_000016.html" target="_top" xlink:title="1">
<text text-anchor="middle" x="35.5217" y="-119.19" font-family="Helvetica,sans-Serif" font-size="10.00">1</text>
</a>
</g>
</g>
<!-- dir_7c9998090bca7c4aa89c05dd66fe73f5 -->
<g id="node3" class="node"><title>dir_7c9998090bca7c4aa89c05dd66fe73f5</title>
<g id="a_node3"><a xlink:href="dir_7c9998090bca7c4aa89c05dd66fe73f5.html" target="_top" xlink:title="base">
<polygon fill="none" stroke="red" points="103,-180 49,-180 49,-144 103,-144 103,-180"/>
<text text-anchor="middle" x="76" y="-159.5" font-family="Helvetica,sans-Serif" font-size="10.00">base</text>
</a>
</g>
</g>
<!-- dir_c43c53e0c74ce2818e14880b8009424b&#45;&gt;dir_7c9998090bca7c4aa89c05dd66fe73f5 -->
<g id="edge3" class="edge"><title>dir_c43c53e0c74ce2818e14880b8009424b&#45;&gt;dir_7c9998090bca7c4aa89c05dd66fe73f5</title>
<path fill="none" stroke="black" d="M76,-215.697C76,-207.983 76,-198.712 76,-190.112"/>
<polygon fill="black" stroke="black" points="79.5001,-190.104 76,-180.104 72.5001,-190.104 79.5001,-190.104"/>
<g id="a_edge3&#45;headlabel"><a xlink:href="dir_000275_000222.html" target="_top" xlink:title="6">
<text text-anchor="middle" x="82.3393" y="-191.199" font-family="Helvetica,sans-Serif" font-size="10.00">6</text>
</a>
</g>
</g>
<!-- dir_2171f7ec022c5423887b07c69b2f5b48 -->
<g id="node4" class="node"><title>dir_2171f7ec022c5423887b07c69b2f5b48</title>
<g id="a_node4"><a xlink:href="dir_2171f7ec022c5423887b07c69b2f5b48.html" target="_top" xlink:title="DataFormats">
<polygon fill="none" stroke="red" points="94,-36 20,-36 20,-0 94,-0 94,-36"/>
<text text-anchor="middle" x="57" y="-15.5" font-family="Helvetica,sans-Serif" font-size="10.00">DataFormats</text>
</a>
</g>
</g>
<!-- dir_c43c53e0c74ce2818e14880b8009424b&#45;&gt;dir_2171f7ec022c5423887b07c69b2f5b48 -->
<g id="edge4" class="edge"><title>dir_c43c53e0c74ce2818e14880b8009424b&#45;&gt;dir_2171f7ec022c5423887b07c69b2f5b48</title>
<path fill="none" stroke="black" d="M91.6099,-215.774C99.3729,-206.03 107.946,-193.184 112,-180 116.703,-164.707 115.138,-159.689 112,-144 104.775,-107.877 86.0603,-69.5566 72.4639,-45.0126"/>
<polygon fill="black" stroke="black" points="75.3342,-42.9786 67.3588,-36.004 69.2441,-46.4298 75.3342,-42.9786"/>
<g id="a_edge4&#45;headlabel"><a xlink:href="dir_000275_000054.html" target="_top" xlink:title="13">
<text text-anchor="middle" x="79.5766" y="-42.2061" font-family="Helvetica,sans-Serif" font-size="10.00">13</text>
</a>
</g>
</g>
<!-- dir_4ab6b4cc6a7edbff49100e9123df213f&#45;&gt;dir_2171f7ec022c5423887b07c69b2f5b48 -->
<g id="edge1" class="edge"><title>dir_4ab6b4cc6a7edbff49100e9123df213f&#45;&gt;dir_2171f7ec022c5423887b07c69b2f5b48</title>
<path fill="none" stroke="black" d="M30.0056,-71.6966C32.371,-63.7284 36.0079,-54.0995 39.9348,-45.2641"/>
<polygon fill="black" stroke="black" points="43.1552,-46.6411 44.2632,-36.1043 36.8262,-43.6503 43.1552,-46.6411"/>
<g id="a_edge1&#45;headlabel"><a xlink:href="dir_000016_000054.html" target="_top" xlink:title="3">
<text text-anchor="middle" x="44.1866" y="-48.6041" font-family="Helvetica,sans-Serif" font-size="10.00">3</text>
</a>
</g>
</g>
<!-- dir_7c9998090bca7c4aa89c05dd66fe73f5&#45;&gt;dir_4ab6b4cc6a7edbff49100e9123df213f -->
<g id="edge5" class="edge"><title>dir_7c9998090bca7c4aa89c05dd66fe73f5&#45;&gt;dir_4ab6b4cc6a7edbff49100e9123df213f</title>
<path fill="none" stroke="black" d="M64.382,-143.697C58.8612,-135.474 52.153,-125.483 46.0682,-116.421"/>
<polygon fill="black" stroke="black" points="48.9645,-114.456 40.4843,-108.104 43.1529,-118.358 48.9645,-114.456"/>
<g id="a_edge5&#45;headlabel"><a xlink:href="dir_000222_000016.html" target="_top" xlink:title="1">
<text text-anchor="middle" x="53.3254" y="-113.357" font-family="Helvetica,sans-Serif" font-size="10.00">1</text>
</a>
</g>
</g>
<!-- dir_7c9998090bca7c4aa89c05dd66fe73f5&#45;&gt;dir_2171f7ec022c5423887b07c69b2f5b48 -->
<g id="edge6" class="edge"><title>dir_7c9998090bca7c4aa89c05dd66fe73f5&#45;&gt;dir_2171f7ec022c5423887b07c69b2f5b48</title>
<path fill="none" stroke="black" d="M74.027,-143.92C71.9234,-125.99 68.4294,-96.9875 65,-72 63.8435,-63.5731 62.4929,-54.407 61.2343,-46.104"/>
<polygon fill="black" stroke="black" points="64.6862,-45.5229 59.7109,-36.1689 57.7671,-46.5839 64.6862,-45.5229"/>
<g id="a_edge6&#45;headlabel"><a xlink:href="dir_000222_000054.html" target="_top" xlink:title="1">
<text text-anchor="middle" x="68.0374" y="-46.1456" font-family="Helvetica,sans-Serif" font-size="10.00">1</text>
</a>
</g>
</g>
<!-- dir_2171f7ec022c5423887b07c69b2f5b48&#45;&gt;dir_4ab6b4cc6a7edbff49100e9123df213f -->
<g id="edge7" class="edge"><title>dir_2171f7ec022c5423887b07c69b2f5b48&#45;&gt;dir_4ab6b4cc6a7edbff49100e9123df213f</title>
<path fill="none" stroke="black" d="M56.0533,-36.1043C53.7092,-44.0447 50.0854,-53.6661 46.1634,-62.5146"/>
<polygon fill="black" stroke="black" points="42.9333,-61.1586 41.8371,-71.6966 49.2656,-64.1423 42.9333,-61.1586"/>
<g id="a_edge7&#45;headlabel"><a xlink:href="dir_000054_000016.html" target="_top" xlink:title="25">
<text text-anchor="middle" x="41.8969" y="-54.1967" font-family="Helvetica,sans-Serif" font-size="10.00">25</text>
</a>
</g>
</g>
</g>
</svg>
