<?xml version="1.0" encoding="UTF-8" standalone="no"?>
<!DOCTYPE svg PUBLIC "-//W3C//DTD SVG 1.1//EN"
 "http://www.w3.org/Graphics/SVG/1.1/DTD/svg11.dtd">
<!-- Generated by graphviz version 2.36.0 (20140111.2315)
 -->
<!-- Title: /home/travis/build/AliceO2Group/AliceO2/Detectors/MUON/MID/Simulation Pages: 1 -->
<svg width="596pt" height="375pt"
 viewBox="0.00 0.00 595.88 375.00" xmlns="http://www.w3.org/2000/svg" xmlns:xlink="http://www.w3.org/1999/xlink">
<g id="graph0" class="graph" transform="scale(1 1) rotate(0) translate(4 371)">
<title>/home/travis/build/AliceO2Group/AliceO2/Detectors/MUON/MID/Simulation</title>
<g id="clust1" class="cluster"><title>clusterdir_9e24c537087392bd208449d0b48c466c</title>
<g id="a_clust1"><a xlink:href="dir_9e24c537087392bd208449d0b48c466c.html" target="_top" xlink:title="MID">
<polygon fill="#ddddee" stroke="black" points="8,-200 8,-359 318,-359 318,-200 8,-200"/>
<text text-anchor="middle" x="163" y="-347" font-family="Helvetica,sans-Serif" font-size="10.00">MID</text>
</a>
</g>
</g>
<g id="clust2" class="cluster"><title>clusterdir_2810eaf0225063d73e08d8eeeb8a37b8</title>
<g id="a_clust2"><a xlink:href="dir_2810eaf0225063d73e08d8eeeb8a37b8.html" target="_top">
<polygon fill="#eeeeff" stroke="black" points="16,-208 16,-332 310,-332 310,-208 16,-208"/>
</a>
</g>
</g>
<!-- dir_2810eaf0225063d73e08d8eeeb8a37b8 -->
<g id="node1" class="node"><title>dir_2810eaf0225063d73e08d8eeeb8a37b8</title>
<text text-anchor="middle" x="271" y="-303.5" font-family="Helvetica,sans-Serif" font-size="10.00">Simulation</text>
</g>
<!-- dir_1bad6cd644632a70bf093df362196556 -->
<g id="node2" class="node"><title>dir_1bad6cd644632a70bf093df362196556</title>
<g id="a_node2"><a xlink:href="dir_1bad6cd644632a70bf093df362196556.html" target="_top" xlink:title="include">
<polygon fill="white" stroke="red" points="194,-252 140,-252 140,-216 194,-216 194,-252"/>
<text text-anchor="middle" x="167" y="-231.5" font-family="Helvetica,sans-Serif" font-size="10.00">include</text>
</a>
</g>
</g>
<!-- dir_37c90836491b695b472bf98d1be8336b -->
<g id="node7" class="node"><title>dir_37c90836491b695b472bf98d1be8336b</title>
<g id="a_node7"><a xlink:href="dir_37c90836491b695b472bf98d1be8336b.html" target="_top" xlink:title="Base">
<polygon fill="none" stroke="red" points="380,-180 326,-180 326,-144 380,-144 380,-180"/>
<text text-anchor="middle" x="353" y="-159.5" font-family="Helvetica,sans-Serif" font-size="10.00">Base</text>
</a>
</g>
</g>
<!-- dir_1bad6cd644632a70bf093df362196556&#45;&gt;dir_37c90836491b695b472bf98d1be8336b -->
<g id="edge1" class="edge"><title>dir_1bad6cd644632a70bf093df362196556&#45;&gt;dir_37c90836491b695b472bf98d1be8336b</title>
<path fill="none" stroke="black" d="M194.046,-222.821C226.28,-210.69 280.292,-190.363 316.282,-176.819"/>
<polygon fill="black" stroke="black" points="317.795,-179.989 325.921,-173.191 315.329,-173.438 317.795,-179.989"/>
<g id="a_edge1&#45;headlabel"><a xlink:href="dir_000181_000157.html" target="_top" xlink:title="1">
<text text-anchor="middle" x="315.431" y="-181.412" font-family="Helvetica,sans-Serif" font-size="10.00">1</text>
</a>
</g>
</g>
<!-- dir_2171f7ec022c5423887b07c69b2f5b48 -->
<g id="node10" class="node"><title>dir_2171f7ec022c5423887b07c69b2f5b48</title>
<g id="a_node10"><a xlink:href="dir_2171f7ec022c5423887b07c69b2f5b48.html" target="_top" xlink:title="DataFormats">
<polygon fill="none" stroke="red" points="483,-36 409,-36 409,-0 483,-0 483,-36"/>
<text text-anchor="middle" x="446" y="-15.5" font-family="Helvetica,sans-Serif" font-size="10.00">DataFormats</text>
</a>
</g>
</g>
<!-- dir_1bad6cd644632a70bf093df362196556&#45;&gt;dir_2171f7ec022c5423887b07c69b2f5b48 -->
<g id="edge2" class="edge"><title>dir_1bad6cd644632a70bf093df362196556&#45;&gt;dir_2171f7ec022c5423887b07c69b2f5b48</title>
<path fill="none" stroke="black" d="M189.36,-215.849C239.05,-177.736 358.717,-85.9479 415.331,-42.5238"/>
<polygon fill="black" stroke="black" points="417.729,-45.0957 423.533,-36.2325 413.469,-39.5414 417.729,-45.0957"/>
<g id="a_edge2&#45;headlabel"><a xlink:href="dir_000181_000054.html" target="_top" xlink:title="2">
<text text-anchor="middle" x="416.605" y="-47.0363" font-family="Helvetica,sans-Serif" font-size="10.00">2</text>
</a>
</g>
</g>
<!-- dir_d1da2b80d46470785ba9854b2e75b6b3 -->
<g id="node3" class="node"><title>dir_d1da2b80d46470785ba9854b2e75b6b3</title>
<g id="a_node3"><a xlink:href="dir_d1da2b80d46470785ba9854b2e75b6b3.html" target="_top" xlink:title="macros">
<polygon fill="white" stroke="black" points="78,-324 24,-324 24,-288 78,-288 78,-324"/>
<text text-anchor="middle" x="51" y="-303.5" font-family="Helvetica,sans-Serif" font-size="10.00">macros</text>
</a>
</g>
</g>
<!-- dir_d1da2b80d46470785ba9854b2e75b6b3&#45;&gt;dir_1bad6cd644632a70bf093df362196556 -->
<g id="edge19" class="edge"><title>dir_d1da2b80d46470785ba9854b2e75b6b3&#45;&gt;dir_1bad6cd644632a70bf093df362196556</title>
<path fill="none" stroke="black" d="M78.1968,-288.588C94.0498,-279.022 114.228,-266.845 131.342,-256.518"/>
<polygon fill="black" stroke="black" points="133.22,-259.472 139.974,-251.309 129.603,-253.479 133.22,-259.472"/>
<g id="a_edge19&#45;headlabel"><a xlink:href="dir_000350_000181.html" target="_top" xlink:title="1">
<text text-anchor="middle" x="131.609" y="-261.261" font-family="Helvetica,sans-Serif" font-size="10.00">1</text>
</a>
</g>
</g>
<!-- dir_f01815b857f9009bea48e2cb39492245 -->
<g id="node8" class="node"><title>dir_f01815b857f9009bea48e2cb39492245</title>
<g id="a_node8"><a xlink:href="dir_f01815b857f9009bea48e2cb39492245.html" target="_top" xlink:title="Passive">
<polygon fill="none" stroke="red" points="380,-252 326,-252 326,-216 380,-216 380,-252"/>
<text text-anchor="middle" x="353" y="-231.5" font-family="Helvetica,sans-Serif" font-size="10.00">Passive</text>
</a>
</g>
</g>
<!-- dir_d1da2b80d46470785ba9854b2e75b6b3&#45;&gt;dir_f01815b857f9009bea48e2cb39492245 -->
<g id="edge20" class="edge"><title>dir_d1da2b80d46470785ba9854b2e75b6b3&#45;&gt;dir_f01815b857f9009bea48e2cb39492245</title>
<path fill="none" stroke="black" d="M78.1963,-291.178C81.1234,-289.987 84.0939,-288.896 87,-288 184.611,-257.888 215.947,-280.639 314,-252 314.718,-251.79 315.44,-251.571 316.165,-251.342"/>
<polygon fill="black" stroke="black" points="317.386,-254.622 325.625,-247.961 315.03,-248.031 317.386,-254.622"/>
<g id="a_edge20&#45;headlabel"><a xlink:href="dir_000350_000356.html" target="_top" xlink:title="1">
<text text-anchor="middle" x="314.957" y="-256.006" font-family="Helvetica,sans-Serif" font-size="10.00">1</text>
</a>
</g>
</g>
<!-- dir_d53d2501428a2ffe5f675519a4556368 -->
<g id="node4" class="node"><title>dir_d53d2501428a2ffe5f675519a4556368</title>
<g id="a_node4"><a xlink:href="dir_d53d2501428a2ffe5f675519a4556368.html" target="_top" xlink:title="src">
<polygon fill="white" stroke="black" points="150,-324 96,-324 96,-288 150,-288 150,-324"/>
<text text-anchor="middle" x="123" y="-303.5" font-family="Helvetica,sans-Serif" font-size="10.00">src</text>
</a>
</g>
</g>
<!-- dir_d53d2501428a2ffe5f675519a4556368&#45;&gt;dir_1bad6cd644632a70bf093df362196556 -->
<g id="edge6" class="edge"><title>dir_d53d2501428a2ffe5f675519a4556368&#45;&gt;dir_1bad6cd644632a70bf093df362196556</title>
<path fill="none" stroke="black" d="M133.876,-287.697C138.992,-279.559 145.195,-269.689 150.845,-260.701"/>
<polygon fill="black" stroke="black" points="153.89,-262.433 156.249,-252.104 147.964,-258.708 153.89,-262.433"/>
<g id="a_edge6&#45;headlabel"><a xlink:href="dir_000209_000181.html" target="_top" xlink:title="3">
<text text-anchor="middle" x="154.381" y="-264.488" font-family="Helvetica,sans-Serif" font-size="10.00">3</text>
</a>
</g>
</g>
<!-- dir_4ab6b4cc6a7edbff49100e9123df213f -->
<g id="node6" class="node"><title>dir_4ab6b4cc6a7edbff49100e9123df213f</title>
<g id="a_node6"><a xlink:href="dir_4ab6b4cc6a7edbff49100e9123df213f.html" target="_top" xlink:title="Common">
<polygon fill="none" stroke="red" points="529.5,-108 474.5,-108 474.5,-72 529.5,-72 529.5,-108"/>
<text text-anchor="middle" x="502" y="-87.5" font-family="Helvetica,sans-Serif" font-size="10.00">Common</text>
</a>
</g>
</g>
<!-- dir_d53d2501428a2ffe5f675519a4556368&#45;&gt;dir_4ab6b4cc6a7edbff49100e9123df213f -->
<g id="edge7" class="edge"><title>dir_d53d2501428a2ffe5f675519a4556368&#45;&gt;dir_4ab6b4cc6a7edbff49100e9123df213f</title>
<path fill="none" stroke="black" d="M150.162,-291.064C153.096,-289.895 156.077,-288.841 159,-288 223.74,-269.376 409.236,-296.284 460,-252 498.37,-218.528 503.813,-154.822 503.482,-118.385"/>
<polygon fill="black" stroke="black" points="506.971,-117.926 503.223,-108.016 499.973,-118.1 506.971,-117.926"/>
<g id="a_edge7&#45;headlabel"><a xlink:href="dir_000209_000016.html" target="_top" xlink:title="1">
<text text-anchor="middle" x="509.899" y="-118.949" font-family="Helvetica,sans-Serif" font-size="10.00">1</text>
</a>
</g>
</g>
<!-- dir_d53d2501428a2ffe5f675519a4556368&#45;&gt;dir_37c90836491b695b472bf98d1be8336b -->
<g id="edge8" class="edge"><title>dir_d53d2501428a2ffe5f675519a4556368&#45;&gt;dir_37c90836491b695b472bf98d1be8336b</title>
<path fill="none" stroke="black" d="M150.194,-291.172C153.122,-289.982 156.093,-288.894 159,-288 208.45,-272.8 355.366,-291.308 389,-252 404.025,-234.44 397.698,-221.412 389,-200 387.245,-195.68 384.716,-191.587 381.801,-187.808"/>
<polygon fill="black" stroke="black" points="384.2,-185.238 374.951,-180.07 378.958,-189.877 384.2,-185.238"/>
<g id="a_edge8&#45;headlabel"><a xlink:href="dir_000209_000157.html" target="_top" xlink:title="2">
<text text-anchor="middle" x="388.708" y="-183.547" font-family="Helvetica,sans-Serif" font-size="10.00">2</text>
</a>
</g>
</g>
<!-- dir_b5547b1068d53f0f904ee5a2a84992af -->
<g id="node9" class="node"><title>dir_b5547b1068d53f0f904ee5a2a84992af</title>
<g id="a_node9"><a xlink:href="dir_b5547b1068d53f0f904ee5a2a84992af.html" target="_top" xlink:title="Base">
<polygon fill="none" stroke="red" points="566,-252 512,-252 512,-216 566,-216 566,-252"/>
<text text-anchor="middle" x="539" y="-231.5" font-family="Helvetica,sans-Serif" font-size="10.00">Base</text>
</a>
</g>
</g>
<!-- dir_d53d2501428a2ffe5f675519a4556368&#45;&gt;dir_b5547b1068d53f0f904ee5a2a84992af -->
<g id="edge9" class="edge"><title>dir_d53d2501428a2ffe5f675519a4556368&#45;&gt;dir_b5547b1068d53f0f904ee5a2a84992af</title>
<path fill="none" stroke="black" d="M150.151,-291.024C153.087,-289.863 156.072,-288.821 159,-288 304.883,-247.077 351.175,-289.401 498,-252 499.26,-251.679 500.532,-251.326 501.809,-250.948"/>
<polygon fill="black" stroke="black" points="503.237,-254.16 511.58,-247.629 500.985,-247.531 503.237,-254.16"/>
<g id="a_edge9&#45;headlabel"><a xlink:href="dir_000209_000123.html" target="_top" xlink:title="2">
<text text-anchor="middle" x="500.746" y="-255.504" font-family="Helvetica,sans-Serif" font-size="10.00">2</text>
</a>
</g>
</g>
<!-- dir_d53d2501428a2ffe5f675519a4556368&#45;&gt;dir_2171f7ec022c5423887b07c69b2f5b48 -->
<g id="edge10" class="edge"><title>dir_d53d2501428a2ffe5f675519a4556368&#45;&gt;dir_2171f7ec022c5423887b07c69b2f5b48</title>
<path fill="none" stroke="black" d="M150.184,-291.139C153.114,-289.955 156.088,-288.877 159,-288 212.321,-271.933 367.197,-290.949 407,-252 462.869,-197.33 457.167,-94.922 450.606,-46.1562"/>
<polygon fill="black" stroke="black" points="454.039,-45.4442 449.128,-36.056 447.112,-46.4573 454.039,-45.4442"/>
<g id="a_edge10&#45;headlabel"><a xlink:href="dir_000209_000054.html" target="_top" xlink:title="2">
<text text-anchor="middle" x="457.368" y="-46.0901" font-family="Helvetica,sans-Serif" font-size="10.00">2</text>
</a>
</g>
</g>
<!-- dir_3efbee5c835cac6a5a5ee4ea08f6d137 -->
<g id="node5" class="node"><title>dir_3efbee5c835cac6a5a5ee4ea08f6d137</title>
<g id="a_node5"><a xlink:href="dir_3efbee5c835cac6a5a5ee4ea08f6d137.html" target="_top" xlink:title="test">
<polygon fill="white" stroke="black" points="222,-324 168,-324 168,-288 222,-288 222,-324"/>
<text text-anchor="middle" x="195" y="-303.5" font-family="Helvetica,sans-Serif" font-size="10.00">test</text>
</a>
</g>
</g>
<!-- dir_3efbee5c835cac6a5a5ee4ea08f6d137&#45;&gt;dir_4ab6b4cc6a7edbff49100e9123df213f -->
<g id="edge11" class="edge"><title>dir_3efbee5c835cac6a5a5ee4ea08f6d137&#45;&gt;dir_4ab6b4cc6a7edbff49100e9123df213f</title>
<path fill="none" stroke="black" d="M222.15,-291.019C225.086,-289.859 228.071,-288.819 231,-288 305.021,-267.297 523.557,-309.108 575,-252 611.57,-211.403 561.968,-149.405 528.364,-115.407"/>
<polygon fill="black" stroke="black" points="530.634,-112.729 521.058,-108.195 525.716,-117.711 530.634,-112.729"/>
<g id="a_edge11&#45;headlabel"><a xlink:href="dir_000342_000016.html" target="_top" xlink:title="1">
<text text-anchor="middle" x="535.187" y="-110.734" font-family="Helvetica,sans-Serif" font-size="10.00">1</text>
</a>
</g>
</g>
<!-- dir_3efbee5c835cac6a5a5ee4ea08f6d137&#45;&gt;dir_b5547b1068d53f0f904ee5a2a84992af -->
<g id="edge12" class="edge"><title>dir_3efbee5c835cac6a5a5ee4ea08f6d137&#45;&gt;dir_b5547b1068d53f0f904ee5a2a84992af</title>
<path fill="none" stroke="black" d="M222.175,-291.109C225.106,-289.931 228.084,-288.863 231,-288 345.822,-254.035 382.394,-283.192 498,-252 499.441,-251.611 500.9,-251.184 502.363,-250.726"/>
<polygon fill="black" stroke="black" points="503.718,-253.96 511.996,-247.347 501.402,-247.354 503.718,-253.96"/>
<g id="a_edge12&#45;headlabel"><a xlink:href="dir_000342_000123.html" target="_top" xlink:title="1">
<text text-anchor="middle" x="501.266" y="-255.329" font-family="Helvetica,sans-Serif" font-size="10.00">1</text>
</a>
</g>
</g>
<!-- dir_4ab6b4cc6a7edbff49100e9123df213f&#45;&gt;dir_2171f7ec022c5423887b07c69b2f5b48 -->
<g id="edge3" class="edge"><title>dir_4ab6b4cc6a7edbff49100e9123df213f&#45;&gt;dir_2171f7ec022c5423887b07c69b2f5b48</title>
<path fill="none" stroke="black" d="M482.242,-71.6966C474.815,-63.4741 466.621,-53.4832 459.816,-44.4207"/>
<polygon fill="black" stroke="black" points="462.491,-42.147 453.788,-36.1043 456.823,-46.2552 462.491,-42.147"/>
<g id="a_edge3&#45;headlabel"><a xlink:href="dir_000016_000054.html" target="_top" xlink:title="3">
<text text-anchor="middle" x="466.9" y="-40.8911" font-family="Helvetica,sans-Serif" font-size="10.00">3</text>
</a>
</g>
</g>
<!-- dir_37c90836491b695b472bf98d1be8336b&#45;&gt;dir_4ab6b4cc6a7edbff49100e9123df213f -->
<g id="edge4" class="edge"><title>dir_37c90836491b695b472bf98d1be8336b&#45;&gt;dir_4ab6b4cc6a7edbff49100e9123df213f</title>
<path fill="none" stroke="black" d="M380.329,-148.161C404.123,-136.982 438.823,-120.68 465.083,-108.344"/>
<polygon fill="black" stroke="black" points="466.777,-111.415 474.34,-103.995 463.801,-105.079 466.777,-111.415"/>
<g id="a_edge4&#45;headlabel"><a xlink:href="dir_000157_000016.html" target="_top" xlink:title="9">
<text text-anchor="middle" x="464.731" y="-113.013" font-family="Helvetica,sans-Serif" font-size="10.00">9</text>
</a>
</g>
</g>
<!-- dir_37c90836491b695b472bf98d1be8336b&#45;&gt;dir_2171f7ec022c5423887b07c69b2f5b48 -->
<g id="edge5" class="edge"><title>dir_37c90836491b695b472bf98d1be8336b&#45;&gt;dir_2171f7ec022c5423887b07c69b2f5b48</title>
<path fill="none" stroke="black" d="M359.633,-143.871C373.218,-119.137 403.029,-73.2424 423.966,-44.5121"/>
<polygon fill="black" stroke="black" points="426.996,-46.3033 430.151,-36.1893 421.377,-42.1279 426.996,-46.3033"/>
<g id="a_edge5&#45;headlabel"><a xlink:href="dir_000157_000054.html" target="_top" xlink:title="6">
<text text-anchor="middle" x="427.131" y="-48.382" font-family="Helvetica,sans-Serif" font-size="10.00">6</text>
</a>
</g>
</g>
<!-- dir_f01815b857f9009bea48e2cb39492245&#45;&gt;dir_4ab6b4cc6a7edbff49100e9123df213f -->
<g id="edge13" class="edge"><title>dir_f01815b857f9009bea48e2cb39492245&#45;&gt;dir_4ab6b4cc6a7edbff49100e9123df213f</title>
<path fill="none" stroke="black" d="M370.973,-215.871C397.262,-190.817 446.333,-144.052 476.391,-115.406"/>
<polygon fill="black" stroke="black" points="479.139,-117.622 483.963,-108.189 474.31,-112.555 479.139,-117.622"/>
<g id="a_edge13&#45;headlabel"><a xlink:href="dir_000356_000016.html" target="_top" xlink:title="4">
<text text-anchor="middle" x="478.496" y="-119.657" font-family="Helvetica,sans-Serif" font-size="10.00">4</text>
</a>
</g>
</g>
<!-- dir_f01815b857f9009bea48e2cb39492245&#45;&gt;dir_37c90836491b695b472bf98d1be8336b -->
<g id="edge14" class="edge"><title>dir_f01815b857f9009bea48e2cb39492245&#45;&gt;dir_37c90836491b695b472bf98d1be8336b</title>
<path fill="none" stroke="black" d="M353,-215.697C353,-207.983 353,-198.712 353,-190.112"/>
<polygon fill="black" stroke="black" points="356.5,-190.104 353,-180.104 349.5,-190.104 356.5,-190.104"/>
<g id="a_edge14&#45;headlabel"><a xlink:href="dir_000356_000157.html" target="_top" xlink:title="16">
<text text-anchor="middle" x="359.339" y="-191.199" font-family="Helvetica,sans-Serif" font-size="10.00">16</text>
</a>
</g>
</g>
<!-- dir_b5547b1068d53f0f904ee5a2a84992af&#45;&gt;dir_4ab6b4cc6a7edbff49100e9123df213f -->
<g id="edge15" class="edge"><title>dir_b5547b1068d53f0f904ee5a2a84992af&#45;&gt;dir_4ab6b4cc6a7edbff49100e9123df213f</title>
<path fill="none" stroke="black" d="M534.537,-215.871C528.203,-191.564 516.544,-146.819 509.039,-118.013"/>
<polygon fill="black" stroke="black" points="512.387,-116.984 506.479,-108.189 505.613,-118.749 512.387,-116.984"/>
<g id="a_edge15&#45;headlabel"><a xlink:href="dir_000123_000016.html" target="_top" xlink:title="2">
<text text-anchor="middle" x="516.041" y="-117.246" font-family="Helvetica,sans-Serif" font-size="10.00">2</text>
</a>
</g>
</g>
<!-- dir_b5547b1068d53f0f904ee5a2a84992af&#45;&gt;dir_2171f7ec022c5423887b07c69b2f5b48 -->
<g id="edge16" class="edge"><title>dir_b5547b1068d53f0f904ee5a2a84992af&#45;&gt;dir_2171f7ec022c5423887b07c69b2f5b48</title>
<path fill="none" stroke="black" d="M544.163,-215.566C552.328,-184.352 564.719,-117.898 538,-72 527.985,-54.7952 510.046,-42.6741 492.651,-34.4094"/>
<polygon fill="black" stroke="black" points="493.66,-31.0296 483.097,-30.2068 490.842,-37.4371 493.66,-31.0296"/>
<g id="a_edge16&#45;headlabel"><a xlink:href="dir_000123_000054.html" target="_top" xlink:title="1">
<text text-anchor="middle" x="498.094" y="-27.378" font-family="Helvetica,sans-Serif" font-size="10.00">1</text>
</a>
</g>
</g>
<!-- dir_2171f7ec022c5423887b07c69b2f5b48&#45;&gt;dir_4ab6b4cc6a7edbff49100e9123df213f -->
<g id="edge17" class="edge"><title>dir_2171f7ec022c5423887b07c69b2f5b48&#45;&gt;dir_4ab6b4cc6a7edbff49100e9123df213f</title>
<path fill="none" stroke="black" d="M465.578,-36.1043C472.992,-44.2981 481.191,-54.282 488.018,-63.3594"/>
<polygon fill="black" stroke="black" points="485.365,-65.6619 494.073,-71.6966 491.029,-61.5486 485.365,-65.6619"/>
<g id="a_edge17&#45;headlabel"><a xlink:href="dir_000054_000016.html" target="_top" xlink:title="25">
<text text-anchor="middle" x="480.955" y="-61.9218" font-family="Helvetica,sans-Serif" font-size="10.00">25</text>
</a>
</g>
</g>
<!-- dir_2171f7ec022c5423887b07c69b2f5b48&#45;&gt;dir_37c90836491b695b472bf98d1be8336b -->
<g id="edge18" class="edge"><title>dir_2171f7ec022c5423887b07c69b2f5b48&#45;&gt;dir_37c90836491b695b472bf98d1be8336b</title>
<path fill="none" stroke="black" d="M439.333,-36.1893C425.722,-60.9582 395.905,-106.856 374.982,-135.558"/>
<polygon fill="black" stroke="black" points="371.96,-133.758 368.802,-143.871 377.577,-137.934 371.96,-133.758"/>
<g id="a_edge18&#45;headlabel"><a xlink:href="dir_000054_000157.html" target="_top" xlink:title="1">
<text text-anchor="middle" x="371.826" y="-126.679" font-family="Helvetica,sans-Serif" font-size="10.00">1</text>
</a>
</g>
</g>
</g>
</svg>
