<?xml version="1.0" encoding="UTF-8" standalone="no"?>
<!DOCTYPE svg PUBLIC "-//W3C//DTD SVG 1.1//EN"
 "http://www.w3.org/Graphics/SVG/1.1/DTD/svg11.dtd">
<!-- Generated by graphviz version 2.36.0 (20140111.2315)
 -->
<!-- Title: /home/travis/build/AliceO2Group/AliceO2/Framework Pages: 1 -->
<svg width="532pt" height="348pt"
 viewBox="0.00 0.00 532.00 348.00" xmlns="http://www.w3.org/2000/svg" xmlns:xlink="http://www.w3.org/1999/xlink">
<g id="graph0" class="graph" transform="scale(1 1) rotate(0) translate(4 344)">
<title>/home/travis/build/AliceO2Group/AliceO2/Framework</title>
<g id="clust1" class="cluster"><title>clusterdir_bcbb2cf9a3d3d83e5515c82071a07177</title>
<g id="a_clust1"><a xlink:href="dir_bcbb2cf9a3d3d83e5515c82071a07177.html" target="_top">
<polygon fill="#eeeeff" stroke="black" points="8,-136 8,-332 348,-332 348,-136 8,-136"/>
</a>
</g>
</g>
<!-- dir_bcbb2cf9a3d3d83e5515c82071a07177 -->
<g id="node1" class="node"><title>dir_bcbb2cf9a3d3d83e5515c82071a07177</title>
<text text-anchor="middle" x="307" y="-303.5" font-family="Helvetica,sans-Serif" font-size="10.00">Framework</text>
</g>
<!-- dir_b315c7ac2f7d253010ed820f5520e66b -->
<g id="node2" class="node"><title>dir_b315c7ac2f7d253010ed820f5520e66b</title>
<g id="a_node2"><a xlink:href="dir_b315c7ac2f7d253010ed820f5520e66b.html" target="_top" xlink:title="ArrowTests">
<polygon fill="white" stroke="red" points="256.25,-324 189.75,-324 189.75,-288 256.25,-288 256.25,-324"/>
<text text-anchor="middle" x="223" y="-303.5" font-family="Helvetica,sans-Serif" font-size="10.00">ArrowTests</text>
</a>
</g>
</g>
<!-- dir_9f165b2481dacfe69aa54d326bd5cd47 -->
<g id="node3" class="node"><title>dir_9f165b2481dacfe69aa54d326bd5cd47</title>
<g id="a_node3"><a xlink:href="dir_9f165b2481dacfe69aa54d326bd5cd47.html" target="_top" xlink:title="Core">
<polygon fill="white" stroke="red" points="181,-252 127,-252 127,-216 181,-216 181,-252"/>
<text text-anchor="middle" x="154" y="-231.5" font-family="Helvetica,sans-Serif" font-size="10.00">Core</text>
</a>
</g>
</g>
<!-- dir_f0af9df59806ed8bcb6931e6b1774828 -->
<g id="node4" class="node"><title>dir_f0af9df59806ed8bcb6931e6b1774828</title>
<g id="a_node4"><a xlink:href="dir_f0af9df59806ed8bcb6931e6b1774828.html" target="_top" xlink:title="DebugGUI">
<polygon fill="white" stroke="red" points="185.25,-180 122.75,-180 122.75,-144 185.25,-144 185.25,-180"/>
<text text-anchor="middle" x="154" y="-159.5" font-family="Helvetica,sans-Serif" font-size="10.00">DebugGUI</text>
</a>
</g>
</g>
<!-- dir_9f165b2481dacfe69aa54d326bd5cd47&#45;&gt;dir_f0af9df59806ed8bcb6931e6b1774828 -->
<g id="edge9" class="edge"><title>dir_9f165b2481dacfe69aa54d326bd5cd47&#45;&gt;dir_f0af9df59806ed8bcb6931e6b1774828</title>
<path fill="none" stroke="black" d="M154,-215.697C154,-207.983 154,-198.712 154,-190.112"/>
<polygon fill="black" stroke="black" points="157.5,-190.104 154,-180.104 150.5,-190.104 157.5,-190.104"/>
<g id="a_edge9&#45;headlabel"><a xlink:href="dir_000418_000423.html" target="_top" xlink:title="14">
<text text-anchor="middle" x="160.339" y="-191.199" font-family="Helvetica,sans-Serif" font-size="10.00">14</text>
</a>
</g>
</g>
<!-- dir_4ab6b4cc6a7edbff49100e9123df213f -->
<g id="node8" class="node"><title>dir_4ab6b4cc6a7edbff49100e9123df213f</title>
<g id="a_node8"><a xlink:href="dir_4ab6b4cc6a7edbff49100e9123df213f.html" target="_top" xlink:title="Common">
<polygon fill="none" stroke="red" points="449.5,-252 394.5,-252 394.5,-216 449.5,-216 449.5,-252"/>
<text text-anchor="middle" x="422" y="-231.5" font-family="Helvetica,sans-Serif" font-size="10.00">Common</text>
</a>
</g>
</g>
<!-- dir_9f165b2481dacfe69aa54d326bd5cd47&#45;&gt;dir_4ab6b4cc6a7edbff49100e9123df213f -->
<g id="edge10" class="edge"><title>dir_9f165b2481dacfe69aa54d326bd5cd47&#45;&gt;dir_4ab6b4cc6a7edbff49100e9123df213f</title>
<path fill="none" stroke="black" d="M181.219,-234C248.763,-234 316.307,-234 383.852,-234"/>
<polygon fill="black" stroke="black" points="384.254,-237.5 394.254,-234 384.254,-230.5 384.254,-237.5"/>
<g id="a_edge10&#45;headlabel"><a xlink:href="dir_000418_000016.html" target="_top" xlink:title="6">
<text text-anchor="middle" x="380.659" y="-237.839" font-family="Helvetica,sans-Serif" font-size="10.00">6</text>
</a>
</g>
</g>
<!-- dir_b05a5fa85f84bfc9013183c9d87f9a36 -->
<g id="node10" class="node"><title>dir_b05a5fa85f84bfc9013183c9d87f9a36</title>
<g id="a_node10"><a xlink:href="dir_b05a5fa85f84bfc9013183c9d87f9a36.html" target="_top" xlink:title="Utilities">
<polygon fill="none" stroke="red" points="398,-36 344,-36 344,-0 398,-0 398,-36"/>
<text text-anchor="middle" x="371" y="-15.5" font-family="Helvetica,sans-Serif" font-size="10.00">Utilities</text>
</a>
</g>
</g>
<!-- dir_9f165b2481dacfe69aa54d326bd5cd47&#45;&gt;dir_b05a5fa85f84bfc9013183c9d87f9a36 -->
<g id="edge11" class="edge"><title>dir_9f165b2481dacfe69aa54d326bd5cd47&#45;&gt;dir_b05a5fa85f84bfc9013183c9d87f9a36</title>
<path fill="none" stroke="black" d="M136.898,-215.646C119.217,-195.524 96.3599,-161.817 113,-136 162.266,-59.564 274.954,-32.5071 333.75,-23.3739"/>
<polygon fill="black" stroke="black" points="334.343,-26.8244 343.732,-21.9158 333.331,-19.8979 334.343,-26.8244"/>
<g id="a_edge11&#45;headlabel"><a xlink:href="dir_000418_000409.html" target="_top" xlink:title="1">
<text text-anchor="middle" x="331.197" y="-27.6534" font-family="Helvetica,sans-Serif" font-size="10.00">1</text>
</a>
</g>
</g>
<!-- dir_2171f7ec022c5423887b07c69b2f5b48 -->
<g id="node11" class="node"><title>dir_2171f7ec022c5423887b07c69b2f5b48</title>
<g id="a_node11"><a xlink:href="dir_2171f7ec022c5423887b07c69b2f5b48.html" target="_top" xlink:title="DataFormats">
<polygon fill="none" stroke="red" points="430,-180 356,-180 356,-144 430,-144 430,-180"/>
<text text-anchor="middle" x="393" y="-159.5" font-family="Helvetica,sans-Serif" font-size="10.00">DataFormats</text>
</a>
</g>
</g>
<!-- dir_9f165b2481dacfe69aa54d326bd5cd47&#45;&gt;dir_2171f7ec022c5423887b07c69b2f5b48 -->
<g id="edge12" class="edge"><title>dir_9f165b2481dacfe69aa54d326bd5cd47&#45;&gt;dir_2171f7ec022c5423887b07c69b2f5b48</title>
<path fill="none" stroke="black" d="M181.238,-226.909C217.771,-218.483 284.766,-202.135 346.182,-181.886"/>
<polygon fill="black" stroke="black" points="347.614,-185.098 355.985,-178.603 345.391,-178.46 347.614,-185.098"/>
<g id="a_edge12&#45;headlabel"><a xlink:href="dir_000418_000054.html" target="_top" xlink:title="38">
<text text-anchor="middle" x="345.107" y="-186.431" font-family="Helvetica,sans-Serif" font-size="10.00">38</text>
</a>
</g>
</g>
<!-- dir_a8f73827fca2a0188d35dc47dc5b0ea3 -->
<g id="node5" class="node"><title>dir_a8f73827fca2a0188d35dc47dc5b0ea3</title>
<g id="a_node5"><a xlink:href="dir_a8f73827fca2a0188d35dc47dc5b0ea3.html" target="_top" xlink:title="TestWorkflows">
<polygon fill="white" stroke="red" points="171.25,-324 88.75,-324 88.75,-288 171.25,-288 171.25,-324"/>
<text text-anchor="middle" x="130" y="-303.5" font-family="Helvetica,sans-Serif" font-size="10.00">TestWorkflows</text>
</a>
</g>
</g>
<!-- dir_a8f73827fca2a0188d35dc47dc5b0ea3&#45;&gt;dir_9f165b2481dacfe69aa54d326bd5cd47 -->
<g id="edge3" class="edge"><title>dir_a8f73827fca2a0188d35dc47dc5b0ea3&#45;&gt;dir_9f165b2481dacfe69aa54d326bd5cd47</title>
<path fill="none" stroke="black" d="M135.933,-287.697C138.606,-279.898 141.826,-270.509 144.801,-261.829"/>
<polygon fill="black" stroke="black" points="148.203,-262.699 148.136,-252.104 141.582,-260.429 148.203,-262.699"/>
<g id="a_edge3&#45;headlabel"><a xlink:href="dir_000301_000418.html" target="_top" xlink:title="74">
<text text-anchor="middle" x="149.723" y="-264.52" font-family="Helvetica,sans-Serif" font-size="10.00">74</text>
</a>
</g>
</g>
<!-- dir_0b342c6c6b7d2278121a0bb9c4985063 -->
<g id="node7" class="node"><title>dir_0b342c6c6b7d2278121a0bb9c4985063</title>
<g id="a_node7"><a xlink:href="dir_0b342c6c6b7d2278121a0bb9c4985063.html" target="_top" xlink:title="Generators">
<polygon fill="none" stroke="red" points="524.25,-36 459.75,-36 459.75,-0 524.25,-0 524.25,-36"/>
<text text-anchor="middle" x="492" y="-15.5" font-family="Helvetica,sans-Serif" font-size="10.00">Generators</text>
</a>
</g>
</g>
<!-- dir_a8f73827fca2a0188d35dc47dc5b0ea3&#45;&gt;dir_0b342c6c6b7d2278121a0bb9c4985063 -->
<g id="edge1" class="edge"><title>dir_a8f73827fca2a0188d35dc47dc5b0ea3&#45;&gt;dir_0b342c6c6b7d2278121a0bb9c4985063</title>
<path fill="none" stroke="black" d="M171.287,-290.255C174.218,-289.427 177.142,-288.664 180,-288 240.678,-273.904 407.636,-288.66 458,-252 524.94,-203.275 516.661,-154.106 506,-72 504.897,-63.506 502.839,-54.4338 500.634,-46.2397"/>
<polygon fill="black" stroke="black" points="503.945,-45.0872 497.824,-36.4397 497.216,-47.0172 503.945,-45.0872"/>
<g id="a_edge1&#45;headlabel"><a xlink:href="dir_000301_000432.html" target="_top" xlink:title="1">
<text text-anchor="middle" x="507.665" y="-45.2597" font-family="Helvetica,sans-Serif" font-size="10.00">1</text>
</a>
</g>
</g>
<!-- dir_a8f73827fca2a0188d35dc47dc5b0ea3&#45;&gt;dir_4ab6b4cc6a7edbff49100e9123df213f -->
<g id="edge2" class="edge"><title>dir_a8f73827fca2a0188d35dc47dc5b0ea3&#45;&gt;dir_4ab6b4cc6a7edbff49100e9123df213f</title>
<path fill="none" stroke="black" d="M171.327,-290.417C174.248,-289.55 177.159,-288.734 180,-288 267.444,-265.4 293.234,-277.077 380,-252 381.464,-251.577 382.947,-251.12 384.438,-250.638"/>
<polygon fill="black" stroke="black" points="386.01,-253.794 394.269,-247.159 383.675,-247.196 386.01,-253.794"/>
<g id="a_edge2&#45;headlabel"><a xlink:href="dir_000301_000016.html" target="_top" xlink:title="2">
<text text-anchor="middle" x="383.569" y="-255.17" font-family="Helvetica,sans-Serif" font-size="10.00">2</text>
</a>
</g>
</g>
<!-- dir_051dca18e802f8e9474f2e30d29c04e0 -->
<g id="node9" class="node"><title>dir_051dca18e802f8e9474f2e30d29c04e0</title>
<g id="a_node9"><a xlink:href="dir_051dca18e802f8e9474f2e30d29c04e0.html" target="_top" xlink:title="Detectors">
<polygon fill="none" stroke="red" points="371.25,-108 312.75,-108 312.75,-72 371.25,-72 371.25,-108"/>
<text text-anchor="middle" x="342" y="-87.5" font-family="Helvetica,sans-Serif" font-size="10.00">Detectors</text>
</a>
</g>
</g>
<!-- dir_a8f73827fca2a0188d35dc47dc5b0ea3&#45;&gt;dir_051dca18e802f8e9474f2e30d29c04e0 -->
<g id="edge4" class="edge"><title>dir_a8f73827fca2a0188d35dc47dc5b0ea3&#45;&gt;dir_051dca18e802f8e9474f2e30d29c04e0</title>
<path fill="none" stroke="black" d="M171.314,-290.648C208.591,-277.416 258.681,-258.828 266,-252 305.532,-215.122 326.522,-153.482 335.853,-118.13"/>
<polygon fill="black" stroke="black" points="339.341,-118.611 338.383,-108.059 332.552,-116.905 339.341,-118.611"/>
<g id="a_edge4&#45;headlabel"><a xlink:href="dir_000301_000028.html" target="_top" xlink:title="4">
<text text-anchor="middle" x="341.219" y="-120.288" font-family="Helvetica,sans-Serif" font-size="10.00">4</text>
</a>
</g>
</g>
<!-- dir_a8f73827fca2a0188d35dc47dc5b0ea3&#45;&gt;dir_2171f7ec022c5423887b07c69b2f5b48 -->
<g id="edge5" class="edge"><title>dir_a8f73827fca2a0188d35dc47dc5b0ea3&#45;&gt;dir_2171f7ec022c5423887b07c69b2f5b48</title>
<path fill="none" stroke="black" d="M171.363,-290.549C174.275,-289.651 177.175,-288.792 180,-288 251.021,-268.099 282.601,-295.724 342,-252 362.857,-236.647 376.476,-210.015 384.349,-189.874"/>
<polygon fill="black" stroke="black" points="387.7,-190.901 387.855,-180.307 381.128,-188.493 387.7,-190.901"/>
<g id="a_edge5&#45;headlabel"><a xlink:href="dir_000301_000054.html" target="_top" xlink:title="2">
<text text-anchor="middle" x="389.13" y="-192.753" font-family="Helvetica,sans-Serif" font-size="10.00">2</text>
</a>
</g>
</g>
<!-- dir_86f64936653d09622c529b3cc7c8edcd -->
<g id="node6" class="node"><title>dir_86f64936653d09622c529b3cc7c8edcd</title>
<g id="a_node6"><a xlink:href="dir_86f64936653d09622c529b3cc7c8edcd.html" target="_top" xlink:title="Utils">
<polygon fill="white" stroke="red" points="70,-324 16,-324 16,-288 70,-288 70,-324"/>
<text text-anchor="middle" x="43" y="-303.5" font-family="Helvetica,sans-Serif" font-size="10.00">Utils</text>
</a>
</g>
</g>
<!-- dir_86f64936653d09622c529b3cc7c8edcd&#45;&gt;dir_9f165b2481dacfe69aa54d326bd5cd47 -->
<g id="edge21" class="edge"><title>dir_86f64936653d09622c529b3cc7c8edcd&#45;&gt;dir_9f165b2481dacfe69aa54d326bd5cd47</title>
<path fill="none" stroke="black" d="M70.1537,-287.876C84.5325,-278.808 102.381,-267.552 117.91,-257.759"/>
<polygon fill="black" stroke="black" points="120.15,-260.484 126.742,-252.19 116.416,-254.564 120.15,-260.484"/>
<g id="a_edge21&#45;headlabel"><a xlink:href="dir_000036_000418.html" target="_top" xlink:title="55">
<text text-anchor="middle" x="118.624" y="-262.303" font-family="Helvetica,sans-Serif" font-size="10.00">55</text>
</a>
</g>
</g>
<!-- dir_86f64936653d09622c529b3cc7c8edcd&#45;&gt;dir_2171f7ec022c5423887b07c69b2f5b48 -->
<g id="edge22" class="edge"><title>dir_86f64936653d09622c529b3cc7c8edcd&#45;&gt;dir_2171f7ec022c5423887b07c69b2f5b48</title>
<path fill="none" stroke="black" d="M70.2274,-291.277C73.1484,-290.066 76.1091,-288.944 79,-288 159.455,-261.723 188.068,-285.015 266,-252 303.864,-235.959 341.753,-207.379 366.16,-186.932"/>
<polygon fill="black" stroke="black" points="368.557,-189.488 373.901,-180.339 364.018,-184.158 368.557,-189.488"/>
<g id="a_edge22&#45;headlabel"><a xlink:href="dir_000036_000054.html" target="_top" xlink:title="6">
<text text-anchor="middle" x="367.662" y="-191.48" font-family="Helvetica,sans-Serif" font-size="10.00">6</text>
</a>
</g>
</g>
<!-- dir_0b342c6c6b7d2278121a0bb9c4985063&#45;&gt;dir_4ab6b4cc6a7edbff49100e9123df213f -->
<g id="edge6" class="edge"><title>dir_0b342c6c6b7d2278121a0bb9c4985063&#45;&gt;dir_4ab6b4cc6a7edbff49100e9123df213f</title>
<path fill="none" stroke="black" d="M493.266,-36.414C494.768,-67.034 494.671,-131.835 472,-180 467.009,-190.603 459.083,-200.473 450.999,-208.751"/>
<polygon fill="black" stroke="black" points="448.375,-206.419 443.61,-215.882 453.236,-211.456 448.375,-206.419"/>
<g id="a_edge6&#45;headlabel"><a xlink:href="dir_000432_000016.html" target="_top" xlink:title="3">
<text text-anchor="middle" x="448.99" y="-199.38" font-family="Helvetica,sans-Serif" font-size="10.00">3</text>
</a>
</g>
</g>
<!-- dir_0b342c6c6b7d2278121a0bb9c4985063&#45;&gt;dir_2171f7ec022c5423887b07c69b2f5b48 -->
<g id="edge7" class="edge"><title>dir_0b342c6c6b7d2278121a0bb9c4985063&#45;&gt;dir_2171f7ec022c5423887b07c69b2f5b48</title>
<path fill="none" stroke="black" d="M480.016,-36.1893C462.747,-60.9582 430.748,-106.856 410.737,-135.558"/>
<polygon fill="black" stroke="black" points="407.79,-133.667 404.942,-143.871 413.532,-137.67 407.79,-133.667"/>
<g id="a_edge7&#45;headlabel"><a xlink:href="dir_000432_000054.html" target="_top" xlink:title="1">
<text text-anchor="middle" x="407.516" y="-126.594" font-family="Helvetica,sans-Serif" font-size="10.00">1</text>
</a>
</g>
</g>
<!-- dir_4ab6b4cc6a7edbff49100e9123df213f&#45;&gt;dir_2171f7ec022c5423887b07c69b2f5b48 -->
<g id="edge8" class="edge"><title>dir_4ab6b4cc6a7edbff49100e9123df213f&#45;&gt;dir_2171f7ec022c5423887b07c69b2f5b48</title>
<path fill="none" stroke="black" d="M408.916,-215.697C404.88,-207.898 400.768,-198.509 397.531,-189.829"/>
<polygon fill="black" stroke="black" points="400.75,-188.425 394.191,-180.104 394.129,-190.699 400.75,-188.425"/>
<g id="a_edge8&#45;headlabel"><a xlink:href="dir_000016_000054.html" target="_top" xlink:title="3">
<text text-anchor="middle" x="404.603" y="-188.402" font-family="Helvetica,sans-Serif" font-size="10.00">3</text>
</a>
</g>
</g>
<!-- dir_051dca18e802f8e9474f2e30d29c04e0&#45;&gt;dir_9f165b2481dacfe69aa54d326bd5cd47 -->
<g id="edge15" class="edge"><title>dir_051dca18e802f8e9474f2e30d29c04e0&#45;&gt;dir_9f165b2481dacfe69aa54d326bd5cd47</title>
<path fill="none" stroke="black" d="M312.36,-99.8388C290.479,-107.272 260.687,-119.364 238,-136 223.393,-146.711 193.449,-182.955 173.546,-207.971"/>
<polygon fill="black" stroke="black" points="170.677,-205.957 167.219,-215.971 176.167,-210.299 170.677,-205.957"/>
<g id="a_edge15&#45;headlabel"><a xlink:href="dir_000028_000418.html" target="_top" xlink:title="39">
<text text-anchor="middle" x="170.68" y="-198.876" font-family="Helvetica,sans-Serif" font-size="10.00">39</text>
</a>
</g>
</g>
<!-- dir_051dca18e802f8e9474f2e30d29c04e0&#45;&gt;dir_86f64936653d09622c529b3cc7c8edcd -->
<g id="edge17" class="edge"><title>dir_051dca18e802f8e9474f2e30d29c04e0&#45;&gt;dir_86f64936653d09622c529b3cc7c8edcd</title>
<path fill="none" stroke="black" d="M330.307,-108.248C307.255,-140.975 252.704,-212.348 190,-252 148.734,-278.095 129.52,-270.025 79.9748,-287.972"/>
<polygon fill="black" stroke="black" points="78.4546,-284.806 70.3586,-291.64 80.9494,-291.346 78.4546,-284.806"/>
<g id="a_edge17&#45;headlabel"><a xlink:href="dir_000028_000036.html" target="_top" xlink:title="2">
<text text-anchor="middle" x="80.8014" y="-278.372" font-family="Helvetica,sans-Serif" font-size="10.00">2</text>
</a>
</g>
</g>
<!-- dir_051dca18e802f8e9474f2e30d29c04e0&#45;&gt;dir_0b342c6c6b7d2278121a0bb9c4985063 -->
<g id="edge13" class="edge"><title>dir_051dca18e802f8e9474f2e30d29c04e0&#45;&gt;dir_0b342c6c6b7d2278121a0bb9c4985063</title>
<path fill="none" stroke="black" d="M371.278,-75.3371C393.807,-64.8235 425.237,-50.1562 450.379,-38.423"/>
<polygon fill="black" stroke="black" points="452.094,-41.4852 459.676,-34.0846 449.134,-35.1419 452.094,-41.4852"/>
<g id="a_edge13&#45;headlabel"><a xlink:href="dir_000028_000432.html" target="_top" xlink:title="1">
<text text-anchor="middle" x="450.037" y="-43.0781" font-family="Helvetica,sans-Serif" font-size="10.00">1</text>
</a>
</g>
</g>
<!-- dir_051dca18e802f8e9474f2e30d29c04e0&#45;&gt;dir_4ab6b4cc6a7edbff49100e9123df213f -->
<g id="edge14" class="edge"><title>dir_051dca18e802f8e9474f2e30d29c04e0&#45;&gt;dir_4ab6b4cc6a7edbff49100e9123df213f</title>
<path fill="none" stroke="black" d="M371.331,-95.9048C394.105,-101.42 424.215,-112.842 439,-136 452.502,-157.148 444.937,-185.927 436.021,-206.638"/>
<polygon fill="black" stroke="black" points="432.8,-205.264 431.762,-215.808 439.149,-208.213 432.8,-205.264"/>
<g id="a_edge14&#45;headlabel"><a xlink:href="dir_000028_000016.html" target="_top" xlink:title="98">
<text text-anchor="middle" x="431.739" y="-198.308" font-family="Helvetica,sans-Serif" font-size="10.00">98</text>
</a>
</g>
</g>
<!-- dir_051dca18e802f8e9474f2e30d29c04e0&#45;&gt;dir_b05a5fa85f84bfc9013183c9d87f9a36 -->
<g id="edge16" class="edge"><title>dir_051dca18e802f8e9474f2e30d29c04e0&#45;&gt;dir_b05a5fa85f84bfc9013183c9d87f9a36</title>
<path fill="none" stroke="black" d="M349.169,-71.6966C352.435,-63.8132 356.374,-54.3042 360.002,-45.5464"/>
<polygon fill="black" stroke="black" points="363.32,-46.6825 363.914,-36.1043 356.853,-44.0033 363.32,-46.6825"/>
<g id="a_edge16&#45;headlabel"><a xlink:href="dir_000028_000409.html" target="_top" xlink:title="4">
<text text-anchor="middle" x="364.567" y="-48.5901" font-family="Helvetica,sans-Serif" font-size="10.00">4</text>
</a>
</g>
</g>
<!-- dir_051dca18e802f8e9474f2e30d29c04e0&#45;&gt;dir_2171f7ec022c5423887b07c69b2f5b48 -->
<g id="edge18" class="edge"><title>dir_051dca18e802f8e9474f2e30d29c04e0&#45;&gt;dir_2171f7ec022c5423887b07c69b2f5b48</title>
<path fill="none" stroke="black" d="M360.357,-108.104C367.115,-116.214 374.517,-126.076 380.658,-135.078"/>
<polygon fill="black" stroke="black" points="377.899,-137.253 386.309,-143.697 383.753,-133.415 377.899,-137.253"/>
<g id="a_edge18&#45;headlabel"><a xlink:href="dir_000028_000054.html" target="_top" xlink:title="360">
<text text-anchor="middle" x="373.553" y="-133.304" font-family="Helvetica,sans-Serif" font-size="10.00">360</text>
</a>
</g>
</g>
<!-- dir_b05a5fa85f84bfc9013183c9d87f9a36&#45;&gt;dir_4ab6b4cc6a7edbff49100e9123df213f -->
<g id="edge19" class="edge"><title>dir_b05a5fa85f84bfc9013183c9d87f9a36&#45;&gt;dir_4ab6b4cc6a7edbff49100e9123df213f</title>
<path fill="none" stroke="black" d="M389.236,-36.3718C410.045,-57.5823 442.889,-95.6456 456,-136 462.043,-154.599 461.502,-161.234 456,-180 453.199,-189.553 448.089,-199.016 442.667,-207.244"/>
<polygon fill="black" stroke="black" points="439.654,-205.443 436.755,-215.634 445.376,-209.475 439.654,-205.443"/>
<g id="a_edge19&#45;headlabel"><a xlink:href="dir_000409_000016.html" target="_top" xlink:title="1">
<text text-anchor="middle" x="439.403" y="-198.369" font-family="Helvetica,sans-Serif" font-size="10.00">1</text>
</a>
</g>
</g>
<!-- dir_b05a5fa85f84bfc9013183c9d87f9a36&#45;&gt;dir_2171f7ec022c5423887b07c69b2f5b48 -->
<g id="edge20" class="edge"><title>dir_b05a5fa85f84bfc9013183c9d87f9a36&#45;&gt;dir_2171f7ec022c5423887b07c69b2f5b48</title>
<path fill="none" stroke="black" d="M374.019,-36.1693C375.816,-46.5354 378.107,-60.0155 380,-72 383.268,-92.6925 386.681,-116.139 389.189,-133.77"/>
<polygon fill="black" stroke="black" points="385.759,-134.509 390.625,-143.92 392.69,-133.529 385.759,-134.509"/>
<g id="a_edge20&#45;headlabel"><a xlink:href="dir_000409_000054.html" target="_top" xlink:title="46">
<text text-anchor="middle" x="382.444" y="-128.848" font-family="Helvetica,sans-Serif" font-size="10.00">46</text>
</a>
</g>
</g>
<!-- dir_2171f7ec022c5423887b07c69b2f5b48&#45;&gt;dir_4ab6b4cc6a7edbff49100e9123df213f -->
<g id="edge23" class="edge"><title>dir_2171f7ec022c5423887b07c69b2f5b48&#45;&gt;dir_4ab6b4cc6a7edbff49100e9123df213f</title>
<path fill="none" stroke="black" d="M405.981,-180.104C410.059,-187.96 414.224,-197.462 417.492,-206.232"/>
<polygon fill="black" stroke="black" points="414.185,-207.379 420.747,-215.697 420.804,-205.102 414.185,-207.379"/>
<g id="a_edge23&#45;headlabel"><a xlink:href="dir_000054_000016.html" target="_top" xlink:title="25">
<text text-anchor="middle" x="410.331" y="-202.403" font-family="Helvetica,sans-Serif" font-size="10.00">25</text>
</a>
</g>
</g>
<!-- dir_2171f7ec022c5423887b07c69b2f5b48&#45;&gt;dir_051dca18e802f8e9474f2e30d29c04e0 -->
<g id="edge24" class="edge"><title>dir_2171f7ec022c5423887b07c69b2f5b48&#45;&gt;dir_051dca18e802f8e9474f2e30d29c04e0</title>
<path fill="none" stroke="black" d="M374.478,-143.697C367.709,-135.559 360.312,-125.689 354.192,-116.701"/>
<polygon fill="black" stroke="black" points="356.971,-114.556 348.567,-108.104 351.113,-118.389 356.971,-114.556"/>
<g id="a_edge24&#45;headlabel"><a xlink:href="dir_000054_000028.html" target="_top" xlink:title="1">
<text text-anchor="middle" x="361.315" y="-113.51" font-family="Helvetica,sans-Serif" font-size="10.00">1</text>
</a>
</g>
</g>
</g>
</svg>
