<?xml version="1.0" encoding="UTF-8" standalone="no"?>
<!DOCTYPE svg PUBLIC "-//W3C//DTD SVG 1.1//EN"
 "http://www.w3.org/Graphics/SVG/1.1/DTD/svg11.dtd">
<!-- Generated by graphviz version 2.36.0 (20140111.2315)
 -->
<!-- Title: /home/travis/build/AliceO2Group/AliceO2/Detectors/ITSMFT/ITS Pages: 1 -->
<!--zoomable 447 -->
<svg id="main" version="1.1" xmlns="http://www.w3.org/2000/svg" xmlns:xlink="http://www.w3.org/1999/xlink" xml:space="preserve" onload="init(evt)">
<style type="text/css"><![CDATA[
.edge:hover path { stroke: red; }
.edge:hover polygon { stroke: red; fill: red; }
]]></style>
<script type="text/javascript"><![CDATA[
var edges = document.getElementsByTagName('g');
if (edges && edges.length) {
  for (var i=0;i<edges.length;i++) {
    if (edges[i].id.substr(0,4)=='edge') {
      edges[i].setAttribute('class','edge');
    }
  }
}
]]></script>
        <defs>
                <circle id="rim" cx="0" cy="0" r="7"/>
                <circle id="rim2" cx="0" cy="0" r="3.5"/>
                <g id="zoomPlus">
                        <use xlink:href="#rim" fill="#404040">
                                <set attributeName="fill" to="#808080" begin="zoomplus.mouseover" end="zoomplus.mouseout"/>
                        </use>
                        <path d="M-4,0h8M0,-4v8" fill="none" stroke="white" stroke-width="1.5" pointer-events="none"/>
                </g>
                <g id="zoomMin">
                        <use xlink:href="#rim" fill="#404040">
                                <set attributeName="fill" to="#808080" begin="zoomminus.mouseover" end="zoomminus.mouseout"/>
                        </use>
                        <path d="M-4,0h8" fill="none" stroke="white" stroke-width="1.5" pointer-events="none"/>
                </g>
                <g id="dirArrow">
                        <path fill="none" stroke="white" stroke-width="1.5" d="M0,-3.0v7 M-2.5,-0.5L0,-3.0L2.5,-0.5"/>
                </g>
               <g id="resetDef">
                       <use xlink:href="#rim2" fill="#404040">
                               <set attributeName="fill" to="#808080" begin="reset.mouseover" end="reset.mouseout"/>
                       </use>
               </g>
        </defs>

<script type="text/javascript">
var viewWidth = 865;
var viewHeight = 447;
var sectionId = 'dynsection-0';
</script>
<script xlink:href="svgpan.js"/>
<svg id="graph" class="graph">
<g id="viewport">
<title>/home/travis/build/AliceO2Group/AliceO2/Detectors/ITSMFT/ITS</title>
<g id="clust1" class="cluster"><title>clusterdir_1306292b77b40360479b729ac9ee7efe</title>
<g id="a_clust1"><a xlink:href="dir_1306292b77b40360479b729ac9ee7efe.html" target="_top" xlink:title="ITSMFT">
<polygon fill="#ddddee" stroke="black" points="269.435,-200 269.435,-431 623.435,-431 623.435,-200 269.435,-200"/>
<text text-anchor="middle" x="446.435" y="-419" font-family="Helvetica,sans-Serif" font-size="10.00">ITSMFT</text>
</a>
</g>
</g>
<g id="clust2" class="cluster"><title>clusterdir_871aad07cbf94d6cd423c3d8d5bdf4e9</title>
<g id="a_clust2"><a xlink:href="dir_871aad07cbf94d6cd423c3d8d5bdf4e9.html" target="_top">
<polygon fill="#eeeeff" stroke="black" points="277.435,-208 277.435,-404 615.435,-404 615.435,-208 277.435,-208"/>
</a>
</g>
</g>
<!-- dir_871aad07cbf94d6cd423c3d8d5bdf4e9 -->
<g id="node1" class="node"><title>dir_871aad07cbf94d6cd423c3d8d5bdf4e9</title>
<text text-anchor="middle" x="554.435" y="-375.5" font-family="Helvetica,sans-Serif" font-size="10.00">ITS</text>
</g>
<!-- dir_eedff867f3c4e67d20b227cb6e0f96ab -->
<g id="node2" class="node"><title>dir_eedff867f3c4e67d20b227cb6e0f96ab</title>
<g id="a_node2"><a xlink:href="dir_eedff867f3c4e67d20b227cb6e0f96ab.html" target="_top" xlink:title="base">
<polygon fill="white" stroke="red" points="523.435,-252 469.435,-252 469.435,-216 523.435,-216 523.435,-252"/>
<text text-anchor="middle" x="496.435" y="-231.5" font-family="Helvetica,sans-Serif" font-size="10.00">base</text>
</a>
</g>
</g>
<!-- dir_4ab6b4cc6a7edbff49100e9123df213f -->
<g id="node8" class="node"><title>dir_4ab6b4cc6a7edbff49100e9123df213f</title>
<g id="a_node8"><a xlink:href="dir_4ab6b4cc6a7edbff49100e9123df213f.html" target="_top" xlink:title="Common">
<polygon fill="none" stroke="red" points="280.935,-180 225.935,-180 225.935,-144 280.935,-144 280.935,-180"/>
<text text-anchor="middle" x="253.435" y="-159.5" font-family="Helvetica,sans-Serif" font-size="10.00">Common</text>
</a>
</g>
</g>
<!-- dir_eedff867f3c4e67d20b227cb6e0f96ab&#45;&gt;dir_4ab6b4cc6a7edbff49100e9123df213f -->
<g id="edge1" class="edge"><title>dir_eedff867f3c4e67d20b227cb6e0f96ab&#45;&gt;dir_4ab6b4cc6a7edbff49100e9123df213f</title>
<path fill="none" stroke="black" d="M478.974,-215.755C472.139,-209.908 463.909,-203.88 455.435,-200 401.795,-175.436 333.1,-167.169 291.224,-164.393"/>
<polygon fill="black" stroke="black" points="291.371,-160.896 281.181,-163.799 290.957,-167.884 291.371,-160.896"/>
<g id="a_edge1&#45;headlabel"><a xlink:href="dir_000269_000016.html" target="_top" xlink:title="2">
<text text-anchor="middle" x="295.127" y="-155.774" font-family="Helvetica,sans-Serif" font-size="10.00">2</text>
</a>
</g>
</g>
<!-- dir_37c90836491b695b472bf98d1be8336b -->
<g id="node10" class="node"><title>dir_37c90836491b695b472bf98d1be8336b</title>
<g id="a_node10"><a xlink:href="dir_37c90836491b695b472bf98d1be8336b.html" target="_top" xlink:title="Base">
<polygon fill="none" stroke="red" points="446.435,-36 392.435,-36 392.435,-0 446.435,-0 446.435,-36"/>
<text text-anchor="middle" x="419.435" y="-15.5" font-family="Helvetica,sans-Serif" font-size="10.00">Base</text>
</a>
</g>
</g>
<!-- dir_eedff867f3c4e67d20b227cb6e0f96ab&#45;&gt;dir_37c90836491b695b472bf98d1be8336b -->
<g id="edge2" class="edge"><title>dir_eedff867f3c4e67d20b227cb6e0f96ab&#45;&gt;dir_37c90836491b695b472bf98d1be8336b</title>
<path fill="none" stroke="black" d="M490.264,-215.849C476.888,-178.675 445.14,-90.4388 429.085,-45.8204"/>
<polygon fill="black" stroke="black" points="432.315,-44.4569 425.636,-36.2325 425.728,-46.8269 432.315,-44.4569"/>
<g id="a_edge2&#45;headlabel"><a xlink:href="dir_000269_000157.html" target="_top" xlink:title="2">
<text text-anchor="middle" x="436.203" y="-44.378" font-family="Helvetica,sans-Serif" font-size="10.00">2</text>
</a>
</g>
</g>
<!-- dir_85bf31a2e8d306e7598ffcb73f8df6bf -->
<g id="node12" class="node"><title>dir_85bf31a2e8d306e7598ffcb73f8df6bf</title>
<g id="a_node12"><a xlink:href="dir_85bf31a2e8d306e7598ffcb73f8df6bf.html" target="_top" xlink:title="common">
<polygon fill="none" stroke="red" points="261.435,-252 207.435,-252 207.435,-216 261.435,-216 261.435,-252"/>
<text text-anchor="middle" x="234.435" y="-231.5" font-family="Helvetica,sans-Serif" font-size="10.00">common</text>
</a>
</g>
</g>
<!-- dir_eedff867f3c4e67d20b227cb6e0f96ab&#45;&gt;dir_85bf31a2e8d306e7598ffcb73f8df6bf -->
<g id="edge3" class="edge"><title>dir_eedff867f3c4e67d20b227cb6e0f96ab&#45;&gt;dir_85bf31a2e8d306e7598ffcb73f8df6bf</title>
<path fill="none" stroke="black" d="M469.369,-234C403.48,-234 337.592,-234 271.703,-234"/>
<polygon fill="black" stroke="black" points="271.556,-230.5 261.556,-234 271.556,-237.5 271.556,-230.5"/>
<g id="a_edge3&#45;headlabel"><a xlink:href="dir_000269_000221.html" target="_top" xlink:title="2">
<text text-anchor="middle" x="275.151" y="-225.161" font-family="Helvetica,sans-Serif" font-size="10.00">2</text>
</a>
</g>
</g>
<!-- dir_2171f7ec022c5423887b07c69b2f5b48 -->
<g id="node14" class="node"><title>dir_2171f7ec022c5423887b07c69b2f5b48</title>
<g id="a_node14"><a xlink:href="dir_2171f7ec022c5423887b07c69b2f5b48.html" target="_top" xlink:title="DataFormats">
<polygon fill="none" stroke="red" points="384.435,-108 310.435,-108 310.435,-72 384.435,-72 384.435,-108"/>
<text text-anchor="middle" x="347.435" y="-87.5" font-family="Helvetica,sans-Serif" font-size="10.00">DataFormats</text>
</a>
</g>
</g>
<!-- dir_eedff867f3c4e67d20b227cb6e0f96ab&#45;&gt;dir_2171f7ec022c5423887b07c69b2f5b48 -->
<g id="edge4" class="edge"><title>dir_eedff867f3c4e67d20b227cb6e0f96ab&#45;&gt;dir_2171f7ec022c5423887b07c69b2f5b48</title>
<path fill="none" stroke="black" d="M482.797,-215.693C467.735,-197.063 442.309,-167.008 417.435,-144 406.089,-133.505 392.751,-123.01 380.777,-114.161"/>
<polygon fill="black" stroke="black" points="382.494,-111.082 372.348,-108.032 378.377,-116.743 382.494,-111.082"/>
<g id="a_edge4&#45;headlabel"><a xlink:href="dir_000269_000054.html" target="_top" xlink:title="1">
<text text-anchor="middle" x="387.071" y="-108.399" font-family="Helvetica,sans-Serif" font-size="10.00">1</text>
</a>
</g>
</g>
<!-- dir_d1915fc52ae3a2d414030e7b83b60b4d -->
<g id="node3" class="node"><title>dir_d1915fc52ae3a2d414030e7b83b60b4d</title>
<g id="a_node3"><a xlink:href="dir_d1915fc52ae3a2d414030e7b83b60b4d.html" target="_top" xlink:title="macros">
<polygon fill="white" stroke="red" points="607.435,-324 553.435,-324 553.435,-288 607.435,-288 607.435,-324"/>
<text text-anchor="middle" x="580.435" y="-303.5" font-family="Helvetica,sans-Serif" font-size="10.00">macros</text>
</a>
</g>
</g>
<!-- dir_d1915fc52ae3a2d414030e7b83b60b4d&#45;&gt;dir_eedff867f3c4e67d20b227cb6e0f96ab -->
<g id="edge36" class="edge"><title>dir_d1915fc52ae3a2d414030e7b83b60b4d&#45;&gt;dir_eedff867f3c4e67d20b227cb6e0f96ab</title>
<path fill="none" stroke="black" d="M559.671,-287.697C549.194,-278.965 536.324,-268.24 524.935,-258.75"/>
<polygon fill="black" stroke="black" points="526.883,-255.817 516.96,-252.104 522.402,-261.195 526.883,-255.817"/>
<g id="a_edge36&#45;headlabel"><a xlink:href="dir_000285_000269.html" target="_top" xlink:title="7">
<text text-anchor="middle" x="531.462" y="-253.437" font-family="Helvetica,sans-Serif" font-size="10.00">7</text>
</a>
</g>
</g>
<!-- dir_d1915fc52ae3a2d414030e7b83b60b4d&#45;&gt;dir_4ab6b4cc6a7edbff49100e9123df213f -->
<g id="edge37" class="edge"><title>dir_d1915fc52ae3a2d414030e7b83b60b4d&#45;&gt;dir_4ab6b4cc6a7edbff49100e9123df213f</title>
<path fill="none" stroke="black" d="M552.982,-293.619C528.471,-283.283 491.718,-267.35 460.435,-252 416.873,-230.625 408.955,-219.301 364.435,-200 340.623,-189.677 312.931,-180.441 291.163,-173.78"/>
<polygon fill="black" stroke="black" points="291.89,-170.344 281.306,-170.814 289.873,-177.047 291.89,-170.344"/>
<g id="a_edge37&#45;headlabel"><a xlink:href="dir_000285_000016.html" target="_top" xlink:title="7">
<text text-anchor="middle" x="296.15" y="-166.16" font-family="Helvetica,sans-Serif" font-size="10.00">7</text>
</a>
</g>
</g>
<!-- dir_a597e8e061b11201a1dff411feb10d0b -->
<g id="node9" class="node"><title>dir_a597e8e061b11201a1dff411feb10d0b</title>
<g id="a_node9"><a xlink:href="dir_a597e8e061b11201a1dff411feb10d0b.html" target="_top" xlink:title="TPC">
<polygon fill="none" stroke="red" points="76.4351,-324 22.4351,-324 22.4351,-288 76.4351,-288 76.4351,-324"/>
<text text-anchor="middle" x="49.4351" y="-303.5" font-family="Helvetica,sans-Serif" font-size="10.00">TPC</text>
</a>
</g>
</g>
<!-- dir_d1915fc52ae3a2d414030e7b83b60b4d&#45;&gt;dir_a597e8e061b11201a1dff411feb10d0b -->
<g id="edge38" class="edge"><title>dir_d1915fc52ae3a2d414030e7b83b60b4d&#45;&gt;dir_a597e8e061b11201a1dff411feb10d0b</title>
<path fill="none" stroke="black" d="M554.841,-324.117C543.36,-331.173 529.299,-338.417 515.435,-342 359.986,-382.173 166.447,-338.739 86.5643,-316.941"/>
<polygon fill="black" stroke="black" points="87.0776,-313.451 76.5055,-314.145 85.2031,-320.195 87.0776,-313.451"/>
<g id="a_edge38&#45;headlabel"><a xlink:href="dir_000285_000190.html" target="_top" xlink:title="1">
<text text-anchor="middle" x="91.3012" y="-309.178" font-family="Helvetica,sans-Serif" font-size="10.00">1</text>
</a>
</g>
</g>
<!-- dir_d1915fc52ae3a2d414030e7b83b60b4d&#45;&gt;dir_37c90836491b695b472bf98d1be8336b -->
<g id="edge39" class="edge"><title>dir_d1915fc52ae3a2d414030e7b83b60b4d&#45;&gt;dir_37c90836491b695b472bf98d1be8336b</title>
<path fill="none" stroke="black" d="M607.476,-295.018C614.284,-292.617 621.599,-290.132 628.435,-288 686.895,-269.765 724.217,-300.631 761.435,-252 775.481,-233.647 771.78,-220.666 761.435,-200 702.344,-81.9552 532.457,-38.4856 456.687,-24.6566"/>
<polygon fill="black" stroke="black" points="457.096,-21.175 446.642,-22.8973 455.888,-28.07 457.096,-21.175"/>
<g id="a_edge39&#45;headlabel"><a xlink:href="dir_000285_000157.html" target="_top" xlink:title="1">
<text text-anchor="middle" x="461.126" y="-16.4983" font-family="Helvetica,sans-Serif" font-size="10.00">1</text>
</a>
</g>
</g>
<!-- dir_cec808b9cc531f1b0b82d26124335093 -->
<g id="node11" class="node"><title>dir_cec808b9cc531f1b0b82d26124335093</title>
<g id="a_node11"><a xlink:href="dir_cec808b9cc531f1b0b82d26124335093.html" target="_top" xlink:title="EventVisualisation">
<polygon fill="none" stroke="red" points="752.935,-252 655.935,-252 655.935,-216 752.935,-216 752.935,-252"/>
<text text-anchor="middle" x="704.435" y="-231.5" font-family="Helvetica,sans-Serif" font-size="10.00">EventVisualisation</text>
</a>
</g>
</g>
<!-- dir_d1915fc52ae3a2d414030e7b83b60b4d&#45;&gt;dir_cec808b9cc531f1b0b82d26124335093 -->
<g id="edge40" class="edge"><title>dir_d1915fc52ae3a2d414030e7b83b60b4d&#45;&gt;dir_cec808b9cc531f1b0b82d26124335093</title>
<path fill="none" stroke="black" d="M607.647,-289.638C624.557,-280.092 646.571,-267.665 665.331,-257.075"/>
<polygon fill="black" stroke="black" points="667.255,-260.008 674.243,-252.044 663.814,-253.912 667.255,-260.008"/>
<g id="a_edge40&#45;headlabel"><a xlink:href="dir_000285_000106.html" target="_top" xlink:title="1">
<text text-anchor="middle" x="665.52" y="-261.748" font-family="Helvetica,sans-Serif" font-size="10.00">1</text>
</a>
</g>
</g>
<!-- dir_d1915fc52ae3a2d414030e7b83b60b4d&#45;&gt;dir_85bf31a2e8d306e7598ffcb73f8df6bf -->
<g id="edge41" class="edge"><title>dir_d1915fc52ae3a2d414030e7b83b60b4d&#45;&gt;dir_85bf31a2e8d306e7598ffcb73f8df6bf</title>
<path fill="none" stroke="black" d="M553.312,-295.858C544.212,-293.035 533.957,-290.115 524.435,-288 414.42,-263.561 381.844,-282.793 273.435,-252 272.716,-251.796 271.992,-251.581 271.266,-251.357"/>
<polygon fill="black" stroke="black" points="272.39,-248.042 261.795,-248.014 270.06,-254.643 272.39,-248.042"/>
<g id="a_edge41&#45;headlabel"><a xlink:href="dir_000285_000221.html" target="_top" xlink:title="17">
<text text-anchor="middle" x="276.724" y="-244.061" font-family="Helvetica,sans-Serif" font-size="10.00">17</text>
</a>
</g>
</g>
<!-- dir_d1915fc52ae3a2d414030e7b83b60b4d&#45;&gt;dir_2171f7ec022c5423887b07c69b2f5b48 -->
<g id="edge42" class="edge"><title>dir_d1915fc52ae3a2d414030e7b83b60b4d&#45;&gt;dir_2171f7ec022c5423887b07c69b2f5b48</title>
<path fill="none" stroke="black" d="M575.756,-287.772C569.055,-265.552 554.983,-226.607 532.435,-200 495.206,-156.07 435.55,-125.469 394.085,-108.106"/>
<polygon fill="black" stroke="black" points="395.327,-104.833 384.746,-104.29 392.679,-111.313 395.327,-104.833"/>
<g id="a_edge42&#45;headlabel"><a xlink:href="dir_000285_000054.html" target="_top" xlink:title="30">
<text text-anchor="middle" x="399.728" y="-101.064" font-family="Helvetica,sans-Serif" font-size="10.00">30</text>
</a>
</g>
</g>
<!-- dir_5125ceb2b58f632ed0a3019fe2d5cbbc -->
<g id="node4" class="node"><title>dir_5125ceb2b58f632ed0a3019fe2d5cbbc</title>
<g id="a_node4"><a xlink:href="dir_5125ceb2b58f632ed0a3019fe2d5cbbc.html" target="_top" xlink:title="reconstruction">
<polygon fill="white" stroke="red" points="443.435,-324 365.435,-324 365.435,-288 443.435,-288 443.435,-324"/>
<text text-anchor="middle" x="404.435" y="-303.5" font-family="Helvetica,sans-Serif" font-size="10.00">reconstruction</text>
</a>
</g>
</g>
<!-- dir_5125ceb2b58f632ed0a3019fe2d5cbbc&#45;&gt;dir_eedff867f3c4e67d20b227cb6e0f96ab -->
<g id="edge28" class="edge"><title>dir_5125ceb2b58f632ed0a3019fe2d5cbbc&#45;&gt;dir_eedff867f3c4e67d20b227cb6e0f96ab</title>
<path fill="none" stroke="black" d="M427.177,-287.697C438.875,-278.796 453.296,-267.823 465.945,-258.199"/>
<polygon fill="black" stroke="black" points="468.116,-260.945 473.955,-252.104 463.877,-255.374 468.116,-260.945"/>
<g id="a_edge28&#45;headlabel"><a xlink:href="dir_000289_000269.html" target="_top" xlink:title="4">
<text text-anchor="middle" x="466.975" y="-262.881" font-family="Helvetica,sans-Serif" font-size="10.00">4</text>
</a>
</g>
</g>
<!-- dir_5125ceb2b58f632ed0a3019fe2d5cbbc&#45;&gt;dir_4ab6b4cc6a7edbff49100e9123df213f -->
<g id="edge29" class="edge"><title>dir_5125ceb2b58f632ed0a3019fe2d5cbbc&#45;&gt;dir_4ab6b4cc6a7edbff49100e9123df213f</title>
<path fill="none" stroke="black" d="M366.446,-287.79C349.052,-278.736 328.916,-266.495 313.435,-252 293.913,-233.721 277.422,-207.966 266.7,-188.862"/>
<polygon fill="black" stroke="black" points="269.771,-187.184 261.911,-180.079 263.626,-190.534 269.771,-187.184"/>
<g id="a_edge29&#45;headlabel"><a xlink:href="dir_000289_000016.html" target="_top" xlink:title="11">
<text text-anchor="middle" x="273.985" y="-186.48" font-family="Helvetica,sans-Serif" font-size="10.00">11</text>
</a>
</g>
</g>
<!-- dir_5125ceb2b58f632ed0a3019fe2d5cbbc&#45;&gt;dir_37c90836491b695b472bf98d1be8336b -->
<g id="edge30" class="edge"><title>dir_5125ceb2b58f632ed0a3019fe2d5cbbc&#45;&gt;dir_37c90836491b695b472bf98d1be8336b</title>
<path fill="none" stroke="black" d="M443.692,-290.981C446.647,-289.962 449.586,-288.958 452.435,-288 502.395,-271.199 534.331,-294.554 565.435,-252 612.644,-187.414 611.349,-137.513 565.435,-72 541.031,-37.1787 491.297,-25.146 456.696,-21.0395"/>
<polygon fill="black" stroke="black" points="456.791,-17.5312 446.489,-20.0031 456.084,-24.4954 456.791,-17.5312"/>
<g id="a_edge30&#45;headlabel"><a xlink:href="dir_000289_000157.html" target="_top" xlink:title="1">
<text text-anchor="middle" x="460.654" y="-12.5695" font-family="Helvetica,sans-Serif" font-size="10.00">1</text>
</a>
</g>
</g>
<!-- dir_5125ceb2b58f632ed0a3019fe2d5cbbc&#45;&gt;dir_85bf31a2e8d306e7598ffcb73f8df6bf -->
<g id="edge31" class="edge"><title>dir_5125ceb2b58f632ed0a3019fe2d5cbbc&#45;&gt;dir_85bf31a2e8d306e7598ffcb73f8df6bf</title>
<path fill="none" stroke="black" d="M365.345,-289.501C339.245,-279.075 304.196,-264.924 273.435,-252 272.601,-251.65 271.757,-251.294 270.907,-250.934"/>
<polygon fill="black" stroke="black" points="272.241,-247.698 261.671,-246.982 269.488,-254.133 272.241,-247.698"/>
<g id="a_edge31&#45;headlabel"><a xlink:href="dir_000289_000221.html" target="_top" xlink:title="9">
<text text-anchor="middle" x="276.663" y="-244.001" font-family="Helvetica,sans-Serif" font-size="10.00">9</text>
</a>
</g>
</g>
<!-- dir_5125ceb2b58f632ed0a3019fe2d5cbbc&#45;&gt;dir_2171f7ec022c5423887b07c69b2f5b48 -->
<g id="edge32" class="edge"><title>dir_5125ceb2b58f632ed0a3019fe2d5cbbc&#45;&gt;dir_2171f7ec022c5423887b07c69b2f5b48</title>
<path fill="none" stroke="black" d="M399.481,-287.839C396.514,-277.476 392.697,-263.996 389.435,-252 376.701,-205.168 362.592,-150.463 354.397,-118.389"/>
<polygon fill="black" stroke="black" points="357.718,-117.248 351.855,-108.423 350.935,-118.978 357.718,-117.248"/>
<g id="a_edge32&#45;headlabel"><a xlink:href="dir_000289_000054.html" target="_top" xlink:title="21">
<text text-anchor="middle" x="361.357" y="-117.529" font-family="Helvetica,sans-Serif" font-size="10.00">21</text>
</a>
</g>
</g>
<!-- dir_e6f6998399f381fa585023934f76a907 -->
<g id="node5" class="node"><title>dir_e6f6998399f381fa585023934f76a907</title>
<g id="a_node5"><a xlink:href="dir_e6f6998399f381fa585023934f76a907.html" target="_top" xlink:title="simulation">
<polygon fill="white" stroke="red" points="346.685,-324 286.185,-324 286.185,-288 346.685,-288 346.685,-324"/>
<text text-anchor="middle" x="316.435" y="-303.5" font-family="Helvetica,sans-Serif" font-size="10.00">simulation</text>
</a>
</g>
</g>
<!-- dir_e6f6998399f381fa585023934f76a907&#45;&gt;dir_eedff867f3c4e67d20b227cb6e0f96ab -->
<g id="edge23" class="edge"><title>dir_e6f6998399f381fa585023934f76a907&#45;&gt;dir_eedff867f3c4e67d20b227cb6e0f96ab</title>
<path fill="none" stroke="black" d="M346.958,-291.88C350.151,-290.551 353.354,-289.237 356.435,-288 391.276,-274.008 431.378,-258.93 459.708,-248.447"/>
<polygon fill="black" stroke="black" points="461.041,-251.686 469.21,-244.94 458.617,-245.119 461.041,-251.686"/>
<g id="a_edge23&#45;headlabel"><a xlink:href="dir_000171_000269.html" target="_top" xlink:title="4">
<text text-anchor="middle" x="458.651" y="-253.094" font-family="Helvetica,sans-Serif" font-size="10.00">4</text>
</a>
</g>
</g>
<!-- dir_e6f6998399f381fa585023934f76a907&#45;&gt;dir_4ab6b4cc6a7edbff49100e9123df213f -->
<g id="edge24" class="edge"><title>dir_e6f6998399f381fa585023934f76a907&#45;&gt;dir_4ab6b4cc6a7edbff49100e9123df213f</title>
<path fill="none" stroke="black" d="M286.005,-300.688C257.887,-294.913 217.651,-281.696 198.435,-252 185.88,-232.597 187.573,-220.399 198.435,-200 202.673,-192.042 209.468,-185.49 216.858,-180.228"/>
<polygon fill="black" stroke="black" points="219.112,-182.943 225.689,-174.637 215.368,-177.029 219.112,-182.943"/>
<g id="a_edge24&#45;headlabel"><a xlink:href="dir_000171_000016.html" target="_top" xlink:title="1">
<text text-anchor="middle" x="217.594" y="-184.765" font-family="Helvetica,sans-Serif" font-size="10.00">1</text>
</a>
</g>
</g>
<!-- dir_e6f6998399f381fa585023934f76a907&#45;&gt;dir_37c90836491b695b472bf98d1be8336b -->
<g id="edge25" class="edge"><title>dir_e6f6998399f381fa585023934f76a907&#45;&gt;dir_37c90836491b695b472bf98d1be8336b</title>
<path fill="none" stroke="black" d="M346.775,-291.364C350.003,-290.137 353.265,-288.987 356.435,-288 432.668,-264.267 481.951,-313.855 532.435,-252 587.076,-185.051 495.957,-87.2804 447.16,-42.7166"/>
<polygon fill="black" stroke="black" points="449.498,-40.1127 439.72,-36.034 444.821,-45.3203 449.498,-40.1127"/>
<g id="a_edge25&#45;headlabel"><a xlink:href="dir_000171_000157.html" target="_top" xlink:title="2">
<text text-anchor="middle" x="454.07" y="-37.9026" font-family="Helvetica,sans-Serif" font-size="10.00">2</text>
</a>
</g>
</g>
<!-- dir_e6f6998399f381fa585023934f76a907&#45;&gt;dir_85bf31a2e8d306e7598ffcb73f8df6bf -->
<g id="edge26" class="edge"><title>dir_e6f6998399f381fa585023934f76a907&#45;&gt;dir_85bf31a2e8d306e7598ffcb73f8df6bf</title>
<path fill="none" stroke="black" d="M296.165,-287.697C285.938,-278.965 273.374,-268.24 262.257,-258.75"/>
<polygon fill="black" stroke="black" points="264.35,-255.935 254.472,-252.104 259.805,-261.259 264.35,-255.935"/>
<g id="a_edge26&#45;headlabel"><a xlink:href="dir_000171_000221.html" target="_top" xlink:title="8">
<text text-anchor="middle" x="268.927" y="-253.609" font-family="Helvetica,sans-Serif" font-size="10.00">8</text>
</a>
</g>
</g>
<!-- dir_e6f6998399f381fa585023934f76a907&#45;&gt;dir_2171f7ec022c5423887b07c69b2f5b48 -->
<g id="edge27" class="edge"><title>dir_e6f6998399f381fa585023934f76a907&#45;&gt;dir_2171f7ec022c5423887b07c69b2f5b48</title>
<path fill="none" stroke="black" d="M285.921,-302.109C254.956,-297.366 208.531,-284.87 186.435,-252 173.542,-232.82 180.809,-222.416 186.435,-200 193.309,-172.614 195.427,-162.865 216.435,-144 240.171,-122.685 273.592,-109.349 300.735,-101.386"/>
<polygon fill="black" stroke="black" points="301.726,-104.744 310.422,-98.6908 299.85,-97.9998 301.726,-104.744"/>
<g id="a_edge27&#45;headlabel"><a xlink:href="dir_000171_000054.html" target="_top" xlink:title="5">
<text text-anchor="middle" x="299.025" y="-105.942" font-family="Helvetica,sans-Serif" font-size="10.00">5</text>
</a>
</g>
</g>
<!-- dir_beaad5fa58c175f2fa05fab7e2ac7ba4 -->
<g id="node6" class="node"><title>dir_beaad5fa58c175f2fa05fab7e2ac7ba4</title>
<g id="a_node6"><a xlink:href="dir_beaad5fa58c175f2fa05fab7e2ac7ba4.html" target="_top" xlink:title="tracking">
<polygon fill="white" stroke="red" points="515.435,-324 461.435,-324 461.435,-288 515.435,-288 515.435,-324"/>
<text text-anchor="middle" x="488.435" y="-303.5" font-family="Helvetica,sans-Serif" font-size="10.00">tracking</text>
</a>
</g>
</g>
<!-- dir_beaad5fa58c175f2fa05fab7e2ac7ba4&#45;&gt;dir_eedff867f3c4e67d20b227cb6e0f96ab -->
<g id="edge33" class="edge"><title>dir_beaad5fa58c175f2fa05fab7e2ac7ba4&#45;&gt;dir_eedff867f3c4e67d20b227cb6e0f96ab</title>
<path fill="none" stroke="black" d="M490.413,-287.697C491.294,-279.983 492.354,-270.712 493.337,-262.112"/>
<polygon fill="black" stroke="black" points="496.822,-262.437 494.48,-252.104 489.867,-261.642 496.822,-262.437"/>
<g id="a_edge33&#45;headlabel"><a xlink:href="dir_000031_000269.html" target="_top" xlink:title="1">
<text text-anchor="middle" x="499.235" y="-263.831" font-family="Helvetica,sans-Serif" font-size="10.00">1</text>
</a>
</g>
</g>
<!-- dir_beaad5fa58c175f2fa05fab7e2ac7ba4&#45;&gt;dir_4ab6b4cc6a7edbff49100e9123df213f -->
<g id="edge34" class="edge"><title>dir_beaad5fa58c175f2fa05fab7e2ac7ba4&#45;&gt;dir_4ab6b4cc6a7edbff49100e9123df213f</title>
<path fill="none" stroke="black" d="M461.188,-291.234C441.1,-280.888 413.243,-266.126 389.435,-252 369.887,-240.402 321.082,-208.154 287.586,-185.841"/>
<polygon fill="black" stroke="black" points="289.266,-182.754 279.004,-180.119 285.382,-188.578 289.266,-182.754"/>
<g id="a_edge34&#45;headlabel"><a xlink:href="dir_000031_000016.html" target="_top" xlink:title="3">
<text text-anchor="middle" x="293.832" y="-179.886" font-family="Helvetica,sans-Serif" font-size="10.00">3</text>
</a>
</g>
</g>
<!-- dir_beaad5fa58c175f2fa05fab7e2ac7ba4&#45;&gt;dir_2171f7ec022c5423887b07c69b2f5b48 -->
<g id="edge35" class="edge"><title>dir_beaad5fa58c175f2fa05fab7e2ac7ba4&#45;&gt;dir_2171f7ec022c5423887b07c69b2f5b48</title>
<path fill="none" stroke="black" d="M477.135,-287.849C452.435,-250.362 393.523,-160.949 364.37,-116.702"/>
<polygon fill="black" stroke="black" points="367.214,-114.657 358.789,-108.232 361.368,-118.509 367.214,-114.657"/>
<g id="a_edge35&#45;headlabel"><a xlink:href="dir_000031_000054.html" target="_top" xlink:title="11">
<text text-anchor="middle" x="371.562" y="-113.597" font-family="Helvetica,sans-Serif" font-size="10.00">11</text>
</a>
</g>
</g>
<!-- dir_1c10308a10e2a510f98c8482fd126054 -->
<g id="node7" class="node"><title>dir_1c10308a10e2a510f98c8482fd126054</title>
<g id="a_node7"><a xlink:href="dir_1c10308a10e2a510f98c8482fd126054.html" target="_top" xlink:title="workflow">
<polygon fill="white" stroke="red" points="457.935,-396 402.935,-396 402.935,-360 457.935,-360 457.935,-396"/>
<text text-anchor="middle" x="430.435" y="-375.5" font-family="Helvetica,sans-Serif" font-size="10.00">workflow</text>
</a>
</g>
</g>
<!-- dir_1c10308a10e2a510f98c8482fd126054&#45;&gt;dir_eedff867f3c4e67d20b227cb6e0f96ab -->
<g id="edge15" class="edge"><title>dir_1c10308a10e2a510f98c8482fd126054&#45;&gt;dir_eedff867f3c4e67d20b227cb6e0f96ab</title>
<path fill="none" stroke="black" d="M458.146,-369.745C480.424,-362.291 510.26,-348.265 524.435,-324 535.95,-304.288 526.3,-279.305 515.299,-260.83"/>
<polygon fill="black" stroke="black" points="518.207,-258.881 509.876,-252.334 512.306,-262.647 518.207,-258.881"/>
<g id="a_edge15&#45;headlabel"><a xlink:href="dir_000307_000269.html" target="_top" xlink:title="3">
<text text-anchor="middle" x="522.534" y="-257.883" font-family="Helvetica,sans-Serif" font-size="10.00">3</text>
</a>
</g>
</g>
<!-- dir_1c10308a10e2a510f98c8482fd126054&#45;&gt;dir_5125ceb2b58f632ed0a3019fe2d5cbbc -->
<g id="edge19" class="edge"><title>dir_1c10308a10e2a510f98c8482fd126054&#45;&gt;dir_5125ceb2b58f632ed0a3019fe2d5cbbc</title>
<path fill="none" stroke="black" d="M424.008,-359.697C421.08,-351.813 417.548,-342.304 414.295,-333.546"/>
<polygon fill="black" stroke="black" points="417.551,-332.26 410.788,-324.104 410.989,-334.697 417.551,-332.26"/>
<g id="a_edge19&#45;headlabel"><a xlink:href="dir_000307_000289.html" target="_top" xlink:title="1">
<text text-anchor="middle" x="421.464" y="-332.141" font-family="Helvetica,sans-Serif" font-size="10.00">1</text>
</a>
</g>
</g>
<!-- dir_1c10308a10e2a510f98c8482fd126054&#45;&gt;dir_beaad5fa58c175f2fa05fab7e2ac7ba4 -->
<g id="edge20" class="edge"><title>dir_1c10308a10e2a510f98c8482fd126054&#45;&gt;dir_beaad5fa58c175f2fa05fab7e2ac7ba4</title>
<path fill="none" stroke="black" d="M444.772,-359.697C451.726,-351.305 460.205,-341.07 467.836,-331.861"/>
<polygon fill="black" stroke="black" points="470.578,-334.038 474.263,-324.104 465.188,-329.571 470.578,-334.038"/>
<g id="a_edge20&#45;headlabel"><a xlink:href="dir_000307_000031.html" target="_top" xlink:title="4">
<text text-anchor="middle" x="470.471" y="-336.117" font-family="Helvetica,sans-Serif" font-size="10.00">4</text>
</a>
</g>
</g>
<!-- dir_1c10308a10e2a510f98c8482fd126054&#45;&gt;dir_4ab6b4cc6a7edbff49100e9123df213f -->
<g id="edge16" class="edge"><title>dir_1c10308a10e2a510f98c8482fd126054&#45;&gt;dir_4ab6b4cc6a7edbff49100e9123df213f</title>
<path fill="none" stroke="black" d="M402.841,-375.571C313.94,-370.689 39.274,-353.331 13.4351,-324 -4.73304,-303.377 -6.12182,-230.96 23.4351,-200 49.1349,-173.08 156.759,-165.744 215.229,-163.746"/>
<polygon fill="black" stroke="black" points="215.655,-167.235 225.544,-163.432 215.442,-160.238 215.655,-167.235"/>
<g id="a_edge16&#45;headlabel"><a xlink:href="dir_000307_000016.html" target="_top" xlink:title="2">
<text text-anchor="middle" x="212.148" y="-167.682" font-family="Helvetica,sans-Serif" font-size="10.00">2</text>
</a>
</g>
</g>
<!-- dir_1c10308a10e2a510f98c8482fd126054&#45;&gt;dir_37c90836491b695b472bf98d1be8336b -->
<g id="edge17" class="edge"><title>dir_1c10308a10e2a510f98c8482fd126054&#45;&gt;dir_37c90836491b695b472bf98d1be8336b</title>
<path fill="none" stroke="black" d="M457.994,-371.531C522.089,-358.783 676.575,-327.876 687.435,-324 767.756,-295.331 857.435,-320.284 857.435,-235 857.435,-235 857.435,-235 857.435,-161 857.435,-77.0504 562.597,-35.2677 456.723,-22.9702"/>
<polygon fill="black" stroke="black" points="456.835,-19.4604 446.503,-21.807 456.043,-26.4155 456.835,-19.4604"/>
<g id="a_edge17&#45;headlabel"><a xlink:href="dir_000307_000157.html" target="_top" xlink:title="5">
<text text-anchor="middle" x="460.728" y="-14.5458" font-family="Helvetica,sans-Serif" font-size="10.00">5</text>
</a>
</g>
</g>
<!-- dir_1c10308a10e2a510f98c8482fd126054&#45;&gt;dir_85bf31a2e8d306e7598ffcb73f8df6bf -->
<g id="edge18" class="edge"><title>dir_1c10308a10e2a510f98c8482fd126054&#45;&gt;dir_85bf31a2e8d306e7598ffcb73f8df6bf</title>
<path fill="none" stroke="black" d="M402.685,-374.023C369.059,-369.075 312.443,-356.267 276.435,-324 258.123,-307.591 247.127,-281.504 241.008,-261.807"/>
<polygon fill="black" stroke="black" points="244.365,-260.818 238.24,-252.174 237.638,-262.751 244.365,-260.818"/>
<g id="a_edge18&#45;headlabel"><a xlink:href="dir_000307_000221.html" target="_top" xlink:title="5">
<text text-anchor="middle" x="248.087" y="-260.989" font-family="Helvetica,sans-Serif" font-size="10.00">5</text>
</a>
</g>
</g>
<!-- dir_bcbb2cf9a3d3d83e5515c82071a07177 -->
<g id="node13" class="node"><title>dir_bcbb2cf9a3d3d83e5515c82071a07177</title>
<g id="a_node13"><a xlink:href="dir_bcbb2cf9a3d3d83e5515c82071a07177.html" target="_top" xlink:title="Framework">
<polygon fill="none" stroke="red" points="112.685,-252 48.1851,-252 48.1851,-216 112.685,-216 112.685,-252"/>
<text text-anchor="middle" x="80.4351" y="-231.5" font-family="Helvetica,sans-Serif" font-size="10.00">Framework</text>
</a>
</g>
</g>
<!-- dir_1c10308a10e2a510f98c8482fd126054&#45;&gt;dir_bcbb2cf9a3d3d83e5515c82071a07177 -->
<g id="edge21" class="edge"><title>dir_1c10308a10e2a510f98c8482fd126054&#45;&gt;dir_bcbb2cf9a3d3d83e5515c82071a07177</title>
<path fill="none" stroke="black" d="M402.711,-370.794C366.51,-362.271 301.5,-345.52 248.435,-324 201.604,-305.008 150.699,-276.899 117.342,-257.372"/>
<polygon fill="black" stroke="black" points="118.809,-254.173 108.418,-252.106 115.252,-260.202 118.809,-254.173"/>
<g id="a_edge21&#45;headlabel"><a xlink:href="dir_000307_000035.html" target="_top" xlink:title="20">
<text text-anchor="middle" x="123.348" y="-251.054" font-family="Helvetica,sans-Serif" font-size="10.00">20</text>
</a>
</g>
</g>
<!-- dir_1c10308a10e2a510f98c8482fd126054&#45;&gt;dir_2171f7ec022c5423887b07c69b2f5b48 -->
<g id="edge22" class="edge"><title>dir_1c10308a10e2a510f98c8482fd126054&#45;&gt;dir_2171f7ec022c5423887b07c69b2f5b48</title>
<path fill="none" stroke="black" d="M457.959,-371.073C531.249,-354.647 727.855,-306.166 761.435,-252 773.612,-232.357 775.544,-218.305 761.435,-200 716.516,-141.724 493.439,-108.391 394.651,-96.2767"/>
<polygon fill="black" stroke="black" points="394.991,-92.7924 384.644,-95.0702 394.153,-99.7421 394.991,-92.7924"/>
<g id="a_edge22&#45;headlabel"><a xlink:href="dir_000307_000054.html" target="_top" xlink:title="30">
<text text-anchor="middle" x="398.899" y="-87.9037" font-family="Helvetica,sans-Serif" font-size="10.00">30</text>
</a>
</g>
</g>
<!-- dir_4ab6b4cc6a7edbff49100e9123df213f&#45;&gt;dir_2171f7ec022c5423887b07c69b2f5b48 -->
<g id="edge5" class="edge"><title>dir_4ab6b4cc6a7edbff49100e9123df213f&#45;&gt;dir_2171f7ec022c5423887b07c69b2f5b48</title>
<path fill="none" stroke="black" d="M270.755,-143.697C281.895,-134.711 296.642,-123.614 310.272,-113.924"/>
<polygon fill="black" stroke="black" points="312.393,-116.711 318.571,-108.104 308.374,-110.98 312.393,-116.711"/>
<g id="a_edge5&#45;headlabel"><a xlink:href="dir_000016_000054.html" target="_top" xlink:title="3">
<text text-anchor="middle" x="311.08" y="-118.6" font-family="Helvetica,sans-Serif" font-size="10.00">3</text>
</a>
</g>
</g>
<!-- dir_a597e8e061b11201a1dff411feb10d0b&#45;&gt;dir_4ab6b4cc6a7edbff49100e9123df213f -->
<g id="edge6" class="edge"><title>dir_a597e8e061b11201a1dff411feb10d0b&#45;&gt;dir_4ab6b4cc6a7edbff49100e9123df213f</title>
<path fill="none" stroke="black" d="M40.7941,-287.874C30.6428,-265.047 17.6487,-224.669 38.4351,-200 60.6748,-173.606 160.22,-166.04 215.726,-163.871"/>
<polygon fill="black" stroke="black" points="216.005,-167.364 225.877,-163.516 215.76,-160.368 216.005,-167.364"/>
<g id="a_edge6&#45;headlabel"><a xlink:href="dir_000190_000016.html" target="_top" xlink:title="8">
<text text-anchor="middle" x="212.512" y="-167.827" font-family="Helvetica,sans-Serif" font-size="10.00">8</text>
</a>
</g>
</g>
<!-- dir_a597e8e061b11201a1dff411feb10d0b&#45;&gt;dir_37c90836491b695b472bf98d1be8336b -->
<g id="edge7" class="edge"><title>dir_a597e8e061b11201a1dff411feb10d0b&#45;&gt;dir_37c90836491b695b472bf98d1be8336b</title>
<path fill="none" stroke="black" d="M34.2526,-287.703C26.7034,-277.939 18.3688,-265.095 14.4351,-252 0.435311,-205.395 -1.28968,-179.08 32.4351,-144 128.591,-43.9791 305.155,-23.8591 382.027,-19.9094"/>
<polygon fill="black" stroke="black" points="382.361,-23.3981 392.193,-19.4528 382.046,-16.4051 382.361,-23.3981"/>
<g id="a_edge7&#45;headlabel"><a xlink:href="dir_000190_000157.html" target="_top" xlink:title="1">
<text text-anchor="middle" x="378.897" y="-23.8957" font-family="Helvetica,sans-Serif" font-size="10.00">1</text>
</a>
</g>
</g>
<!-- dir_a597e8e061b11201a1dff411feb10d0b&#45;&gt;dir_bcbb2cf9a3d3d83e5515c82071a07177 -->
<g id="edge8" class="edge"><title>dir_a597e8e061b11201a1dff411feb10d0b&#45;&gt;dir_bcbb2cf9a3d3d83e5515c82071a07177</title>
<path fill="none" stroke="black" d="M51.1823,-287.697C53.8891,-279.728 57.9388,-270.1 62.2443,-261.264"/>
<polygon fill="black" stroke="black" points="65.495,-262.597 66.9653,-252.104 59.2728,-259.39 65.495,-262.597"/>
<g id="a_edge8&#45;headlabel"><a xlink:href="dir_000190_000035.html" target="_top" xlink:title="21">
<text text-anchor="middle" x="66.372" y="-264.593" font-family="Helvetica,sans-Serif" font-size="10.00">21</text>
</a>
</g>
</g>
<!-- dir_a597e8e061b11201a1dff411feb10d0b&#45;&gt;dir_2171f7ec022c5423887b07c69b2f5b48 -->
<g id="edge9" class="edge"><title>dir_a597e8e061b11201a1dff411feb10d0b&#45;&gt;dir_2171f7ec022c5423887b07c69b2f5b48</title>
<path fill="none" stroke="black" d="M38.2591,-287.861C25.7952,-266.41 9.14682,-228.969 23.4351,-200 41.5232,-163.327 59.2874,-161.092 96.4351,-144 163.055,-113.347 247.813,-100.2 299.817,-94.7201"/>
<polygon fill="black" stroke="black" points="300.48,-98.1713 310.082,-93.6935 299.783,-91.2061 300.48,-98.1713"/>
<g id="a_edge9&#45;headlabel"><a xlink:href="dir_000190_000054.html" target="_top" xlink:title="117">
<text text-anchor="middle" x="297.186" y="-98.8541" font-family="Helvetica,sans-Serif" font-size="10.00">117</text>
</a>
</g>
</g>
<!-- dir_37c90836491b695b472bf98d1be8336b&#45;&gt;dir_4ab6b4cc6a7edbff49100e9123df213f -->
<g id="edge10" class="edge"><title>dir_37c90836491b695b472bf98d1be8336b&#45;&gt;dir_4ab6b4cc6a7edbff49100e9123df213f</title>
<path fill="none" stroke="black" d="M392.22,-25.7304C366.277,-33.3099 327.418,-47.835 301.435,-72 283.044,-89.1041 270.218,-114.886 262.481,-134.305"/>
<polygon fill="black" stroke="black" points="259.153,-133.209 258.896,-143.801 265.702,-135.681 259.153,-133.209"/>
<g id="a_edge10&#45;headlabel"><a xlink:href="dir_000157_000016.html" target="_top" xlink:title="9">
<text text-anchor="middle" x="257.767" y="-126.343" font-family="Helvetica,sans-Serif" font-size="10.00">9</text>
</a>
</g>
</g>
<!-- dir_37c90836491b695b472bf98d1be8336b&#45;&gt;dir_2171f7ec022c5423887b07c69b2f5b48 -->
<g id="edge11" class="edge"><title>dir_37c90836491b695b472bf98d1be8336b&#45;&gt;dir_2171f7ec022c5423887b07c69b2f5b48</title>
<path fill="none" stroke="black" d="M407.737,-36.1043C399.778,-44.7205 389.067,-55.316 378.831,-64.7555"/>
<polygon fill="black" stroke="black" points="376.222,-62.3955 371.149,-71.6966 380.915,-67.5894 376.222,-62.3955"/>
<g id="a_edge11&#45;headlabel"><a xlink:href="dir_000157_000054.html" target="_top" xlink:title="6">
<text text-anchor="middle" x="376.986" y="-55.3789" font-family="Helvetica,sans-Serif" font-size="10.00">6</text>
</a>
</g>
</g>
<!-- dir_85bf31a2e8d306e7598ffcb73f8df6bf&#45;&gt;dir_4ab6b4cc6a7edbff49100e9123df213f -->
<g id="edge12" class="edge"><title>dir_85bf31a2e8d306e7598ffcb73f8df6bf&#45;&gt;dir_4ab6b4cc6a7edbff49100e9123df213f</title>
<path fill="none" stroke="black" d="M239.132,-215.697C241.249,-207.898 243.797,-198.509 246.153,-189.829"/>
<polygon fill="black" stroke="black" points="249.551,-190.672 248.792,-180.104 242.795,-188.838 249.551,-190.672"/>
<g id="a_edge12&#45;headlabel"><a xlink:href="dir_000221_000016.html" target="_top" xlink:title="5">
<text text-anchor="middle" x="251.349" y="-192.385" font-family="Helvetica,sans-Serif" font-size="10.00">5</text>
</a>
</g>
</g>
<!-- dir_85bf31a2e8d306e7598ffcb73f8df6bf&#45;&gt;dir_37c90836491b695b472bf98d1be8336b -->
<g id="edge13" class="edge"><title>dir_85bf31a2e8d306e7598ffcb73f8df6bf&#45;&gt;dir_37c90836491b695b472bf98d1be8336b</title>
<path fill="none" stroke="black" d="M225.775,-215.934C217.751,-197.767 208.202,-168.341 216.435,-144 229.338,-105.855 238.925,-95.762 271.435,-72 304.937,-47.5132 350.85,-33.4175 382.614,-26.0074"/>
<polygon fill="black" stroke="black" points="383.395,-29.4194 392.396,-23.8318 381.875,-22.5864 383.395,-29.4194"/>
<g id="a_edge13&#45;headlabel"><a xlink:href="dir_000221_000157.html" target="_top" xlink:title="2">
<text text-anchor="middle" x="380.502" y="-30.4713" font-family="Helvetica,sans-Serif" font-size="10.00">2</text>
</a>
</g>
</g>
<!-- dir_85bf31a2e8d306e7598ffcb73f8df6bf&#45;&gt;dir_2171f7ec022c5423887b07c69b2f5b48 -->
<g id="edge14" class="edge"><title>dir_85bf31a2e8d306e7598ffcb73f8df6bf&#45;&gt;dir_2171f7ec022c5423887b07c69b2f5b48</title>
<path fill="none" stroke="black" d="M254.344,-215.842C265.3,-205.919 278.79,-192.878 289.435,-180 305.92,-160.056 321.756,-135.242 332.704,-116.885"/>
<polygon fill="black" stroke="black" points="335.765,-118.584 337.813,-108.189 329.73,-115.038 335.765,-118.584"/>
<g id="a_edge14&#45;headlabel"><a xlink:href="dir_000221_000054.html" target="_top" xlink:title="21">
<text text-anchor="middle" x="336.392" y="-120.621" font-family="Helvetica,sans-Serif" font-size="10.00">21</text>
</a>
</g>
</g>
<!-- dir_bcbb2cf9a3d3d83e5515c82071a07177&#45;&gt;dir_e6f6998399f381fa585023934f76a907 -->
<g id="edge45" class="edge"><title>dir_bcbb2cf9a3d3d83e5515c82071a07177&#45;&gt;dir_e6f6998399f381fa585023934f76a907</title>
<path fill="none" stroke="black" d="M112.69,-247.02C117.609,-248.751 122.643,-250.464 127.435,-252 178.375,-268.33 237.906,-284.561 276.339,-294.674"/>
<polygon fill="black" stroke="black" points="275.555,-298.087 286.116,-297.235 277.329,-291.316 275.555,-298.087"/>
<g id="a_edge45&#45;headlabel"><a xlink:href="dir_000035_000171.html" target="_top" xlink:title="1">
<text text-anchor="middle" x="271.359" y="-297.423" font-family="Helvetica,sans-Serif" font-size="10.00">1</text>
</a>
</g>
</g>
<!-- dir_bcbb2cf9a3d3d83e5515c82071a07177&#45;&gt;dir_4ab6b4cc6a7edbff49100e9123df213f -->
<g id="edge43" class="edge"><title>dir_bcbb2cf9a3d3d83e5515c82071a07177&#45;&gt;dir_4ab6b4cc6a7edbff49100e9123df213f</title>
<path fill="none" stroke="black" d="M112.975,-219.834C142.386,-207.933 185.653,-190.426 216.383,-177.992"/>
<polygon fill="black" stroke="black" points="217.93,-181.142 225.887,-174.147 215.304,-174.653 217.93,-181.142"/>
<g id="a_edge43&#45;headlabel"><a xlink:href="dir_000035_000016.html" target="_top" xlink:title="8">
<text text-anchor="middle" x="215.662" y="-182.622" font-family="Helvetica,sans-Serif" font-size="10.00">8</text>
</a>
</g>
</g>
<!-- dir_bcbb2cf9a3d3d83e5515c82071a07177&#45;&gt;dir_a597e8e061b11201a1dff411feb10d0b -->
<g id="edge44" class="edge"><title>dir_bcbb2cf9a3d3d83e5515c82071a07177&#45;&gt;dir_a597e8e061b11201a1dff411feb10d0b</title>
<path fill="none" stroke="black" d="M78.7553,-252.104C76.0424,-260.129 71.9487,-269.871 67.5962,-278.797"/>
<polygon fill="black" stroke="black" points="64.4798,-277.204 63.0137,-287.697 70.7033,-280.408 64.4798,-277.204"/>
<g id="a_edge44&#45;headlabel"><a xlink:href="dir_000035_000190.html" target="_top" xlink:title="1">
<text text-anchor="middle" x="63.601" y="-270.208" font-family="Helvetica,sans-Serif" font-size="10.00">1</text>
</a>
</g>
</g>
<!-- dir_bcbb2cf9a3d3d83e5515c82071a07177&#45;&gt;dir_2171f7ec022c5423887b07c69b2f5b48 -->
<g id="edge46" class="edge"><title>dir_bcbb2cf9a3d3d83e5515c82071a07177&#45;&gt;dir_2171f7ec022c5423887b07c69b2f5b48</title>
<path fill="none" stroke="black" d="M84.8429,-215.788C90.9505,-195.494 103.98,-162.228 127.435,-144 177.576,-105.031 252.107,-94.1431 300.237,-91.4107"/>
<polygon fill="black" stroke="black" points="300.561,-94.8994 310.386,-90.9331 300.232,-87.9072 300.561,-94.8994"/>
<g id="a_edge46&#45;headlabel"><a xlink:href="dir_000035_000054.html" target="_top" xlink:title="46">
<text text-anchor="middle" x="297.104" y="-95.4045" font-family="Helvetica,sans-Serif" font-size="10.00">46</text>
</a>
</g>
</g>
<!-- dir_2171f7ec022c5423887b07c69b2f5b48&#45;&gt;dir_4ab6b4cc6a7edbff49100e9123df213f -->
<g id="edge47" class="edge"><title>dir_2171f7ec022c5423887b07c69b2f5b48&#45;&gt;dir_4ab6b4cc6a7edbff49100e9123df213f</title>
<path fill="none" stroke="black" d="M330.337,-108.124C318.885,-117.372 303.554,-128.897 289.544,-138.825"/>
<polygon fill="black" stroke="black" points="287.232,-136.17 281.038,-144.765 291.24,-141.909 287.232,-136.17"/>
<g id="a_edge47&#45;headlabel"><a xlink:href="dir_000054_000016.html" target="_top" xlink:title="25">
<text text-anchor="middle" x="288.554" y="-129.284" font-family="Helvetica,sans-Serif" font-size="10.00">25</text>
</a>
</g>
</g>
<!-- dir_2171f7ec022c5423887b07c69b2f5b48&#45;&gt;dir_37c90836491b695b472bf98d1be8336b -->
<g id="edge48" class="edge"><title>dir_2171f7ec022c5423887b07c69b2f5b48&#45;&gt;dir_37c90836491b695b472bf98d1be8336b</title>
<path fill="none" stroke="black" d="M359.317,-71.6966C367.319,-63.0503 378.046,-52.4486 388.275,-43.027"/>
<polygon fill="black" stroke="black" points="390.868,-45.4023 395.947,-36.1043 386.178,-40.2054 390.868,-45.4023"/>
<g id="a_edge48&#45;headlabel"><a xlink:href="dir_000054_000157.html" target="_top" xlink:title="1">
<text text-anchor="middle" x="390.101" y="-47.4183" font-family="Helvetica,sans-Serif" font-size="10.00">1</text>
</a>
</g>
</g>
</g>
</svg>
        <g id="navigator" transform="translate(0 0)" fill="#404254">
                <rect fill="#f2f5e9" fill-opacity="0.5" stroke="#606060" stroke-width=".5" x="0" y="0" width="60" height="60"/>
                <use id="zoomplus" xlink:href="#zoomPlus" x="17" y="9" onmousedown="handleZoom(evt,'in')"/>
                <use id="zoomminus" xlink:href="#zoomMin" x="42" y="9" onmousedown="handleZoom(evt,'out')"/>
                <use id="reset" xlink:href="#resetDef" x="30" y="36" onmousedown="handleReset()"/>
                <g id="arrowUp" xlink:href="#dirArrow" transform="translate(30 24)" onmousedown="handlePan(0,-1)">
                  <use xlink:href="#rim" fill="#404040">
                        <set attributeName="fill" to="#808080" begin="arrowUp.mouseover" end="arrowUp.mouseout"/>
                  </use>
                  <path fill="none" stroke="white" stroke-width="1.5" d="M0,-3.0v7 M-2.5,-0.5L0,-3.0L2.5,-0.5"/>
                </g>
                <g id="arrowRight" xlink:href="#dirArrow" transform="rotate(90) translate(36 -43)" onmousedown="handlePan(1,0)">
                  <use xlink:href="#rim" fill="#404040">
                        <set attributeName="fill" to="#808080" begin="arrowRight.mouseover" end="arrowRight.mouseout"/>
                  </use>
                  <path fill="none" stroke="white" stroke-width="1.5" d="M0,-3.0v7 M-2.5,-0.5L0,-3.0L2.5,-0.5"/>
                </g>
                <g id="arrowDown" xlink:href="#dirArrow" transform="rotate(180) translate(-30 -48)" onmousedown="handlePan(0,1)">
                  <use xlink:href="#rim" fill="#404040">
                        <set attributeName="fill" to="#808080" begin="arrowDown.mouseover" end="arrowDown.mouseout"/>
                  </use>
                  <path fill="none" stroke="white" stroke-width="1.5" d="M0,-3.0v7 M-2.5,-0.5L0,-3.0L2.5,-0.5"/>
                </g>
                <g id="arrowLeft" xlink:href="#dirArrow" transform="rotate(270) translate(-36 17)" onmousedown="handlePan(-1,0)">
                  <use xlink:href="#rim" fill="#404040">
                        <set attributeName="fill" to="#808080" begin="arrowLeft.mouseover" end="arrowLeft.mouseout"/>
                  </use>
                  <path fill="none" stroke="white" stroke-width="1.5" d="M0,-3.0v7 M-2.5,-0.5L0,-3.0L2.5,-0.5"/>
                </g>
        </g>
        <svg viewBox="0 0 15 15" width="100%" height="30px" preserveAspectRatio="xMaxYMin meet">
         <g id="arrow_out" transform="scale(0.3 0.3)">
          <a xlink:href="dir_871aad07cbf94d6cd423c3d8d5bdf4e9_dep_org.svg" target="_base">
           <rect id="button" ry="5" rx="5" y="6" x="6" height="38" width="38"
                fill="#f2f5e9" fill-opacity="0.5" stroke="#606060" stroke-width="1.0"/>
           <path id="arrow"
             d="M 11.500037,31.436501 C 11.940474,20.09759 22.043105,11.32322 32.158766,21.979434 L 37.068811,17.246167 C 37.068811,17.246167 37.088388,32 37.088388,32 L 22.160133,31.978069 C 22.160133,31.978069 26.997745,27.140456 26.997745,27.140456 C 18.528582,18.264221 13.291696,25.230495 11.500037,31.436501 z"
             style="fill:#404040;"/>
          </a>
         </g>
        </svg>
</svg>
