<?xml version="1.0" encoding="UTF-8" standalone="no"?>
<!DOCTYPE svg PUBLIC "-//W3C//DTD SVG 1.1//EN"
 "http://www.w3.org/Graphics/SVG/1.1/DTD/svg11.dtd">
<!-- Generated by graphviz version 2.36.0 (20140111.2315)
 -->
<!-- Title: /home/travis/build/AliceO2Group/AliceO2/Framework/Core/src Pages: 1 -->
<svg width="251pt" height="295pt"
 viewBox="0.00 0.00 251.22 295.00" xmlns="http://www.w3.org/2000/svg" xmlns:xlink="http://www.w3.org/1999/xlink">
<g id="graph0" class="graph" transform="scale(1 1) rotate(0) translate(4 291)">
<title>/home/travis/build/AliceO2Group/AliceO2/Framework/Core/src</title>
<g id="clust1" class="cluster"><title>clusterdir_9f165b2481dacfe69aa54d326bd5cd47</title>
<g id="a_clust1"><a xlink:href="dir_9f165b2481dacfe69aa54d326bd5cd47.html" target="_top" xlink:title="Core">
<polygon fill="#ddddee" stroke="black" points="109,-208 109,-279 179,-279 179,-208 109,-208"/>
<text text-anchor="middle" x="144" y="-267" font-family="Helvetica,sans-Serif" font-size="10.00">Core</text>
</a>
</g>
</g>
<!-- dir_0b60ff9a1849fb34896fe8bde9baec43 -->
<g id="node1" class="node"><title>dir_0b60ff9a1849fb34896fe8bde9baec43</title>
<g id="a_node1"><a xlink:href="dir_0b60ff9a1849fb34896fe8bde9baec43.html" target="_top" xlink:title="src">
<polygon fill="#eeeeff" stroke="black" points="171,-252 117,-252 117,-216 171,-216 171,-252"/>
<text text-anchor="middle" x="144" y="-231.5" font-family="Helvetica,sans-Serif" font-size="10.00">src</text>
</a>
</g>
</g>
<!-- dir_f0af9df59806ed8bcb6931e6b1774828 -->
<g id="node2" class="node"><title>dir_f0af9df59806ed8bcb6931e6b1774828</title>
<g id="a_node2"><a xlink:href="dir_f0af9df59806ed8bcb6931e6b1774828.html" target="_top" xlink:title="DebugGUI">
<polygon fill="none" stroke="red" points="62.25,-108 -0.25,-108 -0.25,-72 62.25,-72 62.25,-108"/>
<text text-anchor="middle" x="31" y="-87.5" font-family="Helvetica,sans-Serif" font-size="10.00">DebugGUI</text>
</a>
</g>
</g>
<!-- dir_0b60ff9a1849fb34896fe8bde9baec43&#45;&gt;dir_f0af9df59806ed8bcb6931e6b1774828 -->
<g id="edge4" class="edge"><title>dir_0b60ff9a1849fb34896fe8bde9baec43&#45;&gt;dir_f0af9df59806ed8bcb6931e6b1774828</title>
<path fill="none" stroke="black" d="M116.898,-223.887C96.3503,-215.599 69.0023,-201.364 53,-180 39.6172,-162.133 34.2949,-137.129 32.2179,-118.172"/>
<polygon fill="black" stroke="black" points="35.6939,-117.741 31.3503,-108.077 28.7196,-118.34 35.6939,-117.741"/>
<g id="a_edge4&#45;headlabel"><a xlink:href="dir_000421_000423.html" target="_top" xlink:title="5">
<text text-anchor="middle" x="38.8305" y="-118.579" font-family="Helvetica,sans-Serif" font-size="10.00">5</text>
</a>
</g>
</g>
<!-- dir_4ab6b4cc6a7edbff49100e9123df213f -->
<g id="node3" class="node"><title>dir_4ab6b4cc6a7edbff49100e9123df213f</title>
<g id="a_node3"><a xlink:href="dir_4ab6b4cc6a7edbff49100e9123df213f.html" target="_top" xlink:title="Common">
<polygon fill="none" stroke="red" points="174.5,-108 119.5,-108 119.5,-72 174.5,-72 174.5,-108"/>
<text text-anchor="middle" x="147" y="-87.5" font-family="Helvetica,sans-Serif" font-size="10.00">Common</text>
</a>
</g>
</g>
<!-- dir_0b60ff9a1849fb34896fe8bde9baec43&#45;&gt;dir_4ab6b4cc6a7edbff49100e9123df213f -->
<g id="edge5" class="edge"><title>dir_0b60ff9a1849fb34896fe8bde9baec43&#45;&gt;dir_4ab6b4cc6a7edbff49100e9123df213f</title>
<path fill="none" stroke="black" d="M144.362,-215.871C144.873,-191.67 145.812,-147.211 146.421,-118.393"/>
<polygon fill="black" stroke="black" points="149.925,-118.261 146.637,-108.189 142.926,-118.113 149.925,-118.261"/>
<g id="a_edge5&#45;headlabel"><a xlink:href="dir_000421_000016.html" target="_top" xlink:title="1">
<text text-anchor="middle" x="152.688" y="-119.415" font-family="Helvetica,sans-Serif" font-size="10.00">1</text>
</a>
</g>
</g>
<!-- dir_b05a5fa85f84bfc9013183c9d87f9a36 -->
<g id="node4" class="node"><title>dir_b05a5fa85f84bfc9013183c9d87f9a36</title>
<g id="a_node4"><a xlink:href="dir_b05a5fa85f84bfc9013183c9d87f9a36.html" target="_top" xlink:title="Utilities">
<polygon fill="none" stroke="red" points="226,-180 172,-180 172,-144 226,-144 226,-180"/>
<text text-anchor="middle" x="199" y="-159.5" font-family="Helvetica,sans-Serif" font-size="10.00">Utilities</text>
</a>
</g>
</g>
<!-- dir_0b60ff9a1849fb34896fe8bde9baec43&#45;&gt;dir_b05a5fa85f84bfc9013183c9d87f9a36 -->
<g id="edge6" class="edge"><title>dir_0b60ff9a1849fb34896fe8bde9baec43&#45;&gt;dir_b05a5fa85f84bfc9013183c9d87f9a36</title>
<path fill="none" stroke="black" d="M157.596,-215.697C164.123,-207.389 172.068,-197.277 179.247,-188.141"/>
<polygon fill="black" stroke="black" points="182.135,-190.13 185.561,-180.104 176.631,-185.805 182.135,-190.13"/>
<g id="a_edge6&#45;headlabel"><a xlink:href="dir_000421_000409.html" target="_top" xlink:title="1">
<text text-anchor="middle" x="182.147" y="-192.211" font-family="Helvetica,sans-Serif" font-size="10.00">1</text>
</a>
</g>
</g>
<!-- dir_985a55873ec4a56b27533251576853b6 -->
<g id="node5" class="node"><title>dir_985a55873ec4a56b27533251576853b6</title>
<g id="a_node5"><a xlink:href="dir_985a55873ec4a56b27533251576853b6.html" target="_top" xlink:title="include">
<polygon fill="none" stroke="red" points="116,-180 62,-180 62,-144 116,-144 116,-180"/>
<text text-anchor="middle" x="89" y="-159.5" font-family="Helvetica,sans-Serif" font-size="10.00">include</text>
</a>
</g>
</g>
<!-- dir_0b60ff9a1849fb34896fe8bde9baec43&#45;&gt;dir_985a55873ec4a56b27533251576853b6 -->
<g id="edge7" class="edge"><title>dir_0b60ff9a1849fb34896fe8bde9baec43&#45;&gt;dir_985a55873ec4a56b27533251576853b6</title>
<path fill="none" stroke="black" d="M130.404,-215.697C123.877,-207.389 115.932,-197.277 108.753,-188.141"/>
<polygon fill="black" stroke="black" points="111.369,-185.805 102.439,-180.104 105.865,-190.13 111.369,-185.805"/>
<g id="a_edge7&#45;headlabel"><a xlink:href="dir_000421_000419.html" target="_top" xlink:title="235">
<text text-anchor="middle" x="115.823" y="-184.377" font-family="Helvetica,sans-Serif" font-size="10.00">235</text>
</a>
</g>
</g>
<!-- dir_2171f7ec022c5423887b07c69b2f5b48 -->
<g id="node6" class="node"><title>dir_2171f7ec022c5423887b07c69b2f5b48</title>
<g id="a_node6"><a xlink:href="dir_2171f7ec022c5423887b07c69b2f5b48.html" target="_top" xlink:title="DataFormats">
<polygon fill="none" stroke="red" points="184,-36 110,-36 110,-0 184,-0 184,-36"/>
<text text-anchor="middle" x="147" y="-15.5" font-family="Helvetica,sans-Serif" font-size="10.00">DataFormats</text>
</a>
</g>
</g>
<!-- dir_0b60ff9a1849fb34896fe8bde9baec43&#45;&gt;dir_2171f7ec022c5423887b07c69b2f5b48 -->
<g id="edge8" class="edge"><title>dir_0b60ff9a1849fb34896fe8bde9baec43&#45;&gt;dir_2171f7ec022c5423887b07c69b2f5b48</title>
<path fill="none" stroke="black" d="M171.288,-225.341C192.824,-217.697 221.424,-203.618 235,-180 262.746,-131.731 211.586,-74.325 176.331,-42.758"/>
<polygon fill="black" stroke="black" points="178.482,-39.9903 168.646,-36.0543 173.881,-45.2654 178.482,-39.9903"/>
<g id="a_edge8&#45;headlabel"><a xlink:href="dir_000421_000054.html" target="_top" xlink:title="10">
<text text-anchor="middle" x="183.057" y="-37.7136" font-family="Helvetica,sans-Serif" font-size="10.00">10</text>
</a>
</g>
</g>
<!-- dir_4ab6b4cc6a7edbff49100e9123df213f&#45;&gt;dir_2171f7ec022c5423887b07c69b2f5b48 -->
<g id="edge1" class="edge"><title>dir_4ab6b4cc6a7edbff49100e9123df213f&#45;&gt;dir_2171f7ec022c5423887b07c69b2f5b48</title>
<path fill="none" stroke="black" d="M141.084,-71.6966C140.289,-63.9827 140.062,-54.7125 140.405,-46.1124"/>
<polygon fill="black" stroke="black" points="143.898,-46.3243 141.105,-36.1043 136.915,-45.8356 143.898,-46.3243"/>
<g id="a_edge1&#45;headlabel"><a xlink:href="dir_000016_000054.html" target="_top" xlink:title="3">
<text text-anchor="middle" x="146.48" y="-47.6083" font-family="Helvetica,sans-Serif" font-size="10.00">3</text>
</a>
</g>
</g>
<!-- dir_b05a5fa85f84bfc9013183c9d87f9a36&#45;&gt;dir_4ab6b4cc6a7edbff49100e9123df213f -->
<g id="edge2" class="edge"><title>dir_b05a5fa85f84bfc9013183c9d87f9a36&#45;&gt;dir_4ab6b4cc6a7edbff49100e9123df213f</title>
<path fill="none" stroke="black" d="M186.146,-143.697C179.975,-135.389 172.463,-125.277 165.676,-116.141"/>
<polygon fill="black" stroke="black" points="168.479,-114.045 159.706,-108.104 162.86,-118.219 168.479,-114.045"/>
<g id="a_edge2&#45;headlabel"><a xlink:href="dir_000409_000016.html" target="_top" xlink:title="1">
<text text-anchor="middle" x="172.902" y="-112.737" font-family="Helvetica,sans-Serif" font-size="10.00">1</text>
</a>
</g>
</g>
<!-- dir_b05a5fa85f84bfc9013183c9d87f9a36&#45;&gt;dir_2171f7ec022c5423887b07c69b2f5b48 -->
<g id="edge3" class="edge"><title>dir_b05a5fa85f84bfc9013183c9d87f9a36&#45;&gt;dir_2171f7ec022c5423887b07c69b2f5b48</title>
<path fill="none" stroke="black" d="M198.026,-143.678C196.508,-125.297 192.664,-95.6945 183,-72 179.072,-62.3683 173.209,-52.7011 167.35,-44.3095"/>
<polygon fill="black" stroke="black" points="170.058,-42.083 161.327,-36.0814 164.41,-46.2179 170.058,-42.083"/>
<g id="a_edge3&#45;headlabel"><a xlink:href="dir_000409_000054.html" target="_top" xlink:title="46">
<text text-anchor="middle" x="174.472" y="-40.8064" font-family="Helvetica,sans-Serif" font-size="10.00">46</text>
</a>
</g>
</g>
<!-- dir_985a55873ec4a56b27533251576853b6&#45;&gt;dir_f0af9df59806ed8bcb6931e6b1774828 -->
<g id="edge9" class="edge"><title>dir_985a55873ec4a56b27533251576853b6&#45;&gt;dir_f0af9df59806ed8bcb6931e6b1774828</title>
<path fill="none" stroke="black" d="M74.6629,-143.697C67.7095,-135.305 59.2298,-125.07 51.5994,-115.861"/>
<polygon fill="black" stroke="black" points="54.2475,-113.571 45.1722,-108.104 48.8573,-118.038 54.2475,-113.571"/>
<g id="a_edge9&#45;headlabel"><a xlink:href="dir_000419_000423.html" target="_top" xlink:title="1">
<text text-anchor="middle" x="58.7271" y="-112.028" font-family="Helvetica,sans-Serif" font-size="10.00">1</text>
</a>
</g>
</g>
<!-- dir_985a55873ec4a56b27533251576853b6&#45;&gt;dir_4ab6b4cc6a7edbff49100e9123df213f -->
<g id="edge10" class="edge"><title>dir_985a55873ec4a56b27533251576853b6&#45;&gt;dir_4ab6b4cc6a7edbff49100e9123df213f</title>
<path fill="none" stroke="black" d="M103.337,-143.697C110.291,-135.305 118.77,-125.07 126.401,-115.861"/>
<polygon fill="black" stroke="black" points="129.143,-118.038 132.828,-108.104 123.753,-113.571 129.143,-118.038"/>
<g id="a_edge10&#45;headlabel"><a xlink:href="dir_000419_000016.html" target="_top" xlink:title="5">
<text text-anchor="middle" x="129.036" y="-120.117" font-family="Helvetica,sans-Serif" font-size="10.00">5</text>
</a>
</g>
</g>
<!-- dir_985a55873ec4a56b27533251576853b6&#45;&gt;dir_2171f7ec022c5423887b07c69b2f5b48 -->
<g id="edge11" class="edge"><title>dir_985a55873ec4a56b27533251576853b6&#45;&gt;dir_2171f7ec022c5423887b07c69b2f5b48</title>
<path fill="none" stroke="black" d="M91.0683,-143.987C93.7409,-125.608 99.3695,-95.7671 110,-72 114.285,-62.4205 120.376,-52.7673 126.383,-44.3726"/>
<polygon fill="black" stroke="black" points="129.355,-46.2428 132.533,-36.1358 123.745,-42.055 129.355,-46.2428"/>
<g id="a_edge11&#45;headlabel"><a xlink:href="dir_000419_000054.html" target="_top" xlink:title="14">
<text text-anchor="middle" x="129.479" y="-48.3217" font-family="Helvetica,sans-Serif" font-size="10.00">14</text>
</a>
</g>
</g>
<!-- dir_2171f7ec022c5423887b07c69b2f5b48&#45;&gt;dir_4ab6b4cc6a7edbff49100e9123df213f -->
<g id="edge12" class="edge"><title>dir_2171f7ec022c5423887b07c69b2f5b48&#45;&gt;dir_4ab6b4cc6a7edbff49100e9123df213f</title>
<path fill="none" stroke="black" d="M152.895,-36.1043C153.701,-43.7913 153.937,-53.0537 153.604,-61.6651"/>
<polygon fill="black" stroke="black" points="150.109,-61.4805 152.916,-71.6966 157.092,-61.9597 150.109,-61.4805"/>
<g id="a_edge12&#45;headlabel"><a xlink:href="dir_000054_000016.html" target="_top" xlink:title="25">
<text text-anchor="middle" x="147.522" y="-55.2" font-family="Helvetica,sans-Serif" font-size="10.00">25</text>
</a>
</g>
</g>
</g>
</svg>
