<?xml version="1.0" encoding="UTF-8" standalone="no"?>
<!DOCTYPE svg PUBLIC "-//W3C//DTD SVG 1.1//EN"
 "http://www.w3.org/Graphics/SVG/1.1/DTD/svg11.dtd">
<!-- Generated by graphviz version 2.36.0 (20140111.2315)
 -->
<!-- Title: /home/travis/build/AliceO2Group/AliceO2/Detectors/ITSMFT/common/reconstruction Pages: 1 -->
<svg width="206pt" height="375pt"
 viewBox="0.00 0.00 206.00 375.00" xmlns="http://www.w3.org/2000/svg" xmlns:xlink="http://www.w3.org/1999/xlink">
<g id="graph0" class="graph" transform="scale(1 1) rotate(0) translate(4 371)">
<title>/home/travis/build/AliceO2Group/AliceO2/Detectors/ITSMFT/common/reconstruction</title>
<g id="clust1" class="cluster"><title>clusterdir_85bf31a2e8d306e7598ffcb73f8df6bf</title>
<g id="a_clust1"><a xlink:href="dir_85bf31a2e8d306e7598ffcb73f8df6bf.html" target="_top" xlink:title="common">
<polygon fill="#ddddee" stroke="black" points="8,-200 8,-359 190,-359 190,-200 8,-200"/>
<text text-anchor="middle" x="99" y="-347" font-family="Helvetica,sans-Serif" font-size="10.00">common</text>
</a>
</g>
</g>
<g id="clust2" class="cluster"><title>clusterdir_2174d8cbbd82d5c404dd04814f845a3a</title>
<g id="a_clust2"><a xlink:href="dir_2174d8cbbd82d5c404dd04814f845a3a.html" target="_top">
<polygon fill="#eeeeff" stroke="black" points="16,-208 16,-332 182,-332 182,-208 16,-208"/>
</a>
</g>
</g>
<!-- dir_2174d8cbbd82d5c404dd04814f845a3a -->
<g id="node1" class="node"><title>dir_2174d8cbbd82d5c404dd04814f845a3a</title>
<text text-anchor="middle" x="135" y="-303.5" font-family="Helvetica,sans-Serif" font-size="10.00">reconstruction</text>
</g>
<!-- dir_5ae603abd45d2d750401429407a7bf9c -->
<g id="node2" class="node"><title>dir_5ae603abd45d2d750401429407a7bf9c</title>
<g id="a_node2"><a xlink:href="dir_5ae603abd45d2d750401429407a7bf9c.html" target="_top" xlink:title="include">
<polygon fill="white" stroke="red" points="78,-252 24,-252 24,-216 78,-216 78,-252"/>
<text text-anchor="middle" x="51" y="-231.5" font-family="Helvetica,sans-Serif" font-size="10.00">include</text>
</a>
</g>
</g>
<!-- dir_4ab6b4cc6a7edbff49100e9123df213f -->
<g id="node4" class="node"><title>dir_4ab6b4cc6a7edbff49100e9123df213f</title>
<g id="a_node4"><a xlink:href="dir_4ab6b4cc6a7edbff49100e9123df213f.html" target="_top" xlink:title="Common">
<polygon fill="none" stroke="red" points="122.5,-108 67.5,-108 67.5,-72 122.5,-72 122.5,-108"/>
<text text-anchor="middle" x="95" y="-87.5" font-family="Helvetica,sans-Serif" font-size="10.00">Common</text>
</a>
</g>
</g>
<!-- dir_5ae603abd45d2d750401429407a7bf9c&#45;&gt;dir_4ab6b4cc6a7edbff49100e9123df213f -->
<g id="edge1" class="edge"><title>dir_5ae603abd45d2d750401429407a7bf9c&#45;&gt;dir_4ab6b4cc6a7edbff49100e9123df213f</title>
<path fill="none" stroke="black" d="M56.3074,-215.871C63.8394,-191.564 77.7041,-146.819 86.6297,-118.013"/>
<polygon fill="black" stroke="black" points="90.0571,-118.777 89.6737,-108.189 83.3707,-116.705 90.0571,-118.777"/>
<g id="a_edge1&#45;headlabel"><a xlink:href="dir_000274_000016.html" target="_top" xlink:title="1">
<text text-anchor="middle" x="91.7053" y="-120.551" font-family="Helvetica,sans-Serif" font-size="10.00">1</text>
</a>
</g>
</g>
<!-- dir_7c9998090bca7c4aa89c05dd66fe73f5 -->
<g id="node5" class="node"><title>dir_7c9998090bca7c4aa89c05dd66fe73f5</title>
<g id="a_node5"><a xlink:href="dir_7c9998090bca7c4aa89c05dd66fe73f5.html" target="_top" xlink:title="base">
<polygon fill="none" stroke="red" points="188,-180 134,-180 134,-144 188,-144 188,-180"/>
<text text-anchor="middle" x="161" y="-159.5" font-family="Helvetica,sans-Serif" font-size="10.00">base</text>
</a>
</g>
</g>
<!-- dir_5ae603abd45d2d750401429407a7bf9c&#45;&gt;dir_7c9998090bca7c4aa89c05dd66fe73f5 -->
<g id="edge2" class="edge"><title>dir_5ae603abd45d2d750401429407a7bf9c&#45;&gt;dir_7c9998090bca7c4aa89c05dd66fe73f5</title>
<path fill="none" stroke="black" d="M77.909,-215.876C92.1584,-206.808 109.846,-195.552 125.236,-185.759"/>
<polygon fill="black" stroke="black" points="127.43,-188.511 133.988,-180.19 123.672,-182.606 127.43,-188.511"/>
<g id="a_edge2&#45;headlabel"><a xlink:href="dir_000274_000222.html" target="_top" xlink:title="6">
<text text-anchor="middle" x="125.922" y="-190.337" font-family="Helvetica,sans-Serif" font-size="10.00">6</text>
</a>
</g>
</g>
<!-- dir_2171f7ec022c5423887b07c69b2f5b48 -->
<g id="node6" class="node"><title>dir_2171f7ec022c5423887b07c69b2f5b48</title>
<g id="a_node6"><a xlink:href="dir_2171f7ec022c5423887b07c69b2f5b48.html" target="_top" xlink:title="DataFormats">
<polygon fill="none" stroke="red" points="132,-36 58,-36 58,-0 132,-0 132,-36"/>
<text text-anchor="middle" x="95" y="-15.5" font-family="Helvetica,sans-Serif" font-size="10.00">DataFormats</text>
</a>
</g>
</g>
<!-- dir_5ae603abd45d2d750401429407a7bf9c&#45;&gt;dir_2171f7ec022c5423887b07c69b2f5b48 -->
<g id="edge3" class="edge"><title>dir_5ae603abd45d2d750401429407a7bf9c&#45;&gt;dir_2171f7ec022c5423887b07c69b2f5b48</title>
<path fill="none" stroke="black" d="M48.7029,-215.981C45.3085,-185.971 41.0427,-122.085 58,-72 61.3119,-62.2179 67.0244,-52.6195 72.9834,-44.3368"/>
<polygon fill="black" stroke="black" points="75.891,-46.2966 79.1923,-36.2292 70.3334,-42.0406 75.891,-46.2966"/>
<g id="a_edge3&#45;headlabel"><a xlink:href="dir_000274_000054.html" target="_top" xlink:title="13">
<text text-anchor="middle" x="75.9597" y="-48.3768" font-family="Helvetica,sans-Serif" font-size="10.00">13</text>
</a>
</g>
</g>
<!-- dir_2382d22bdf51ce6783d3a58c2cee3de2 -->
<g id="node3" class="node"><title>dir_2382d22bdf51ce6783d3a58c2cee3de2</title>
<g id="a_node3"><a xlink:href="dir_2382d22bdf51ce6783d3a58c2cee3de2.html" target="_top" xlink:title="src">
<polygon fill="white" stroke="black" points="78,-324 24,-324 24,-288 78,-288 78,-324"/>
<text text-anchor="middle" x="51" y="-303.5" font-family="Helvetica,sans-Serif" font-size="10.00">src</text>
</a>
</g>
</g>
<!-- dir_2382d22bdf51ce6783d3a58c2cee3de2&#45;&gt;dir_5ae603abd45d2d750401429407a7bf9c -->
<g id="edge5" class="edge"><title>dir_2382d22bdf51ce6783d3a58c2cee3de2&#45;&gt;dir_5ae603abd45d2d750401429407a7bf9c</title>
<path fill="none" stroke="black" d="M51,-287.697C51,-279.983 51,-270.712 51,-262.112"/>
<polygon fill="black" stroke="black" points="54.5001,-262.104 51,-252.104 47.5001,-262.104 54.5001,-262.104"/>
<g id="a_edge5&#45;headlabel"><a xlink:href="dir_000282_000274.html" target="_top" xlink:title="10">
<text text-anchor="middle" x="57.3393" y="-263.199" font-family="Helvetica,sans-Serif" font-size="10.00">10</text>
</a>
</g>
</g>
<!-- dir_2382d22bdf51ce6783d3a58c2cee3de2&#45;&gt;dir_4ab6b4cc6a7edbff49100e9123df213f -->
<g id="edge6" class="edge"><title>dir_2382d22bdf51ce6783d3a58c2cee3de2&#45;&gt;dir_4ab6b4cc6a7edbff49100e9123df213f</title>
<path fill="none" stroke="black" d="M66.3499,-287.69C74.0368,-277.922 82.6199,-265.079 87,-252 102.091,-206.938 100.682,-150.821 98.0223,-118.14"/>
<polygon fill="black" stroke="black" points="101.492,-117.644 97.0945,-108.005 94.5208,-118.282 101.492,-117.644"/>
<g id="a_edge6&#45;headlabel"><a xlink:href="dir_000282_000016.html" target="_top" xlink:title="1">
<text text-anchor="middle" x="104.647" y="-118.465" font-family="Helvetica,sans-Serif" font-size="10.00">1</text>
</a>
</g>
</g>
<!-- dir_2382d22bdf51ce6783d3a58c2cee3de2&#45;&gt;dir_7c9998090bca7c4aa89c05dd66fe73f5 -->
<g id="edge7" class="edge"><title>dir_2382d22bdf51ce6783d3a58c2cee3de2&#45;&gt;dir_7c9998090bca7c4aa89c05dd66fe73f5</title>
<path fill="none" stroke="black" d="M78.134,-288.705C92.0265,-279.322 108.408,-266.52 120,-252 134.867,-233.379 145.738,-208.493 152.537,-189.771"/>
<polygon fill="black" stroke="black" points="155.927,-190.677 155.894,-180.083 149.312,-188.385 155.927,-190.677"/>
<g id="a_edge7&#45;headlabel"><a xlink:href="dir_000282_000222.html" target="_top" xlink:title="2">
<text text-anchor="middle" x="157.432" y="-192.504" font-family="Helvetica,sans-Serif" font-size="10.00">2</text>
</a>
</g>
</g>
<!-- dir_2382d22bdf51ce6783d3a58c2cee3de2&#45;&gt;dir_2171f7ec022c5423887b07c69b2f5b48 -->
<g id="edge8" class="edge"><title>dir_2382d22bdf51ce6783d3a58c2cee3de2&#45;&gt;dir_2171f7ec022c5423887b07c69b2f5b48</title>
<path fill="none" stroke="black" d="M35.3901,-287.774C27.6271,-278.03 19.0541,-265.184 15,-252 8.20708,-229.91 12.2607,-222.948 15,-200 21.9378,-141.879 18.3541,-123.593 46,-72 51.5284,-61.6828 59.5458,-51.8386 67.5,-43.4958"/>
<polygon fill="black" stroke="black" points="70.1152,-45.8304 74.7138,-36.2856 65.1666,-40.8794 70.1152,-45.8304"/>
<g id="a_edge8&#45;headlabel"><a xlink:href="dir_000282_000054.html" target="_top" xlink:title="1">
<text text-anchor="middle" x="69.5799" y="-47.8797" font-family="Helvetica,sans-Serif" font-size="10.00">1</text>
</a>
</g>
</g>
<!-- dir_4ab6b4cc6a7edbff49100e9123df213f&#45;&gt;dir_2171f7ec022c5423887b07c69b2f5b48 -->
<g id="edge4" class="edge"><title>dir_4ab6b4cc6a7edbff49100e9123df213f&#45;&gt;dir_2171f7ec022c5423887b07c69b2f5b48</title>
<path fill="none" stroke="black" d="M89.0843,-71.6966C88.2886,-63.9827 88.0621,-54.7125 88.4047,-46.1124"/>
<polygon fill="black" stroke="black" points="91.8984,-46.3243 89.105,-36.1043 84.9154,-45.8356 91.8984,-46.3243"/>
<g id="a_edge4&#45;headlabel"><a xlink:href="dir_000016_000054.html" target="_top" xlink:title="3">
<text text-anchor="middle" x="94.4799" y="-47.6083" font-family="Helvetica,sans-Serif" font-size="10.00">3</text>
</a>
</g>
</g>
<!-- dir_7c9998090bca7c4aa89c05dd66fe73f5&#45;&gt;dir_4ab6b4cc6a7edbff49100e9123df213f -->
<g id="edge9" class="edge"><title>dir_7c9998090bca7c4aa89c05dd66fe73f5&#45;&gt;dir_4ab6b4cc6a7edbff49100e9123df213f</title>
<path fill="none" stroke="black" d="M144.685,-143.697C136.693,-135.22 126.928,-124.864 118.178,-115.583"/>
<polygon fill="black" stroke="black" points="120.534,-112.979 111.127,-108.104 115.441,-117.781 120.534,-112.979"/>
<g id="a_edge9&#45;headlabel"><a xlink:href="dir_000222_000016.html" target="_top" xlink:title="1">
<text text-anchor="middle" x="125.065" y="-111.147" font-family="Helvetica,sans-Serif" font-size="10.00">1</text>
</a>
</g>
</g>
<!-- dir_7c9998090bca7c4aa89c05dd66fe73f5&#45;&gt;dir_2171f7ec022c5423887b07c69b2f5b48 -->
<g id="edge10" class="edge"><title>dir_7c9998090bca7c4aa89c05dd66fe73f5&#45;&gt;dir_2171f7ec022c5423887b07c69b2f5b48</title>
<path fill="none" stroke="black" d="M156.679,-143.722C151.751,-125.377 142.82,-95.8049 131,-72 126.374,-62.6833 120.324,-53.101 114.507,-44.6903"/>
<polygon fill="black" stroke="black" points="117.257,-42.5178 108.6,-36.4098 111.558,-46.5832 117.257,-42.5178"/>
<g id="a_edge10&#45;headlabel"><a xlink:href="dir_000222_000054.html" target="_top" xlink:title="1">
<text text-anchor="middle" x="121.656" y="-41.2952" font-family="Helvetica,sans-Serif" font-size="10.00">1</text>
</a>
</g>
</g>
<!-- dir_2171f7ec022c5423887b07c69b2f5b48&#45;&gt;dir_4ab6b4cc6a7edbff49100e9123df213f -->
<g id="edge11" class="edge"><title>dir_2171f7ec022c5423887b07c69b2f5b48&#45;&gt;dir_4ab6b4cc6a7edbff49100e9123df213f</title>
<path fill="none" stroke="black" d="M100.895,-36.1043C101.701,-43.7913 101.937,-53.0537 101.604,-61.6651"/>
<polygon fill="black" stroke="black" points="98.1085,-61.4805 100.916,-71.6966 105.092,-61.9597 98.1085,-61.4805"/>
<g id="a_edge11&#45;headlabel"><a xlink:href="dir_000054_000016.html" target="_top" xlink:title="25">
<text text-anchor="middle" x="95.5219" y="-55.2" font-family="Helvetica,sans-Serif" font-size="10.00">25</text>
</a>
</g>
</g>
</g>
</svg>
