<?xml version="1.0" encoding="UTF-8" standalone="no"?>
<!DOCTYPE svg PUBLIC "-//W3C//DTD SVG 1.1//EN"
 "http://www.w3.org/Graphics/SVG/1.1/DTD/svg11.dtd">
<!-- Generated by graphviz version 2.36.0 (20140111.2315)
 -->
<!-- Title: /home/travis/build/AliceO2Group/AliceO2/Detectors/MUON/MID/Simulation/src Pages: 1 -->
<svg width="225pt" height="367pt"
 viewBox="0.00 0.00 224.52 367.00" xmlns="http://www.w3.org/2000/svg" xmlns:xlink="http://www.w3.org/1999/xlink">
<g id="graph0" class="graph" transform="scale(1 1) rotate(0) translate(4 363)">
<title>/home/travis/build/AliceO2Group/AliceO2/Detectors/MUON/MID/Simulation/src</title>
<g id="clust1" class="cluster"><title>clusterdir_2810eaf0225063d73e08d8eeeb8a37b8</title>
<g id="a_clust1"><a xlink:href="dir_2810eaf0225063d73e08d8eeeb8a37b8.html" target="_top" xlink:title="Simulation">
<polygon fill="#ddddee" stroke="black" points="85,-280 85,-351 155,-351 155,-280 85,-280"/>
<text text-anchor="middle" x="120" y="-339" font-family="Helvetica,sans-Serif" font-size="10.00">Simulation</text>
</a>
</g>
</g>
<!-- dir_d53d2501428a2ffe5f675519a4556368 -->
<g id="node1" class="node"><title>dir_d53d2501428a2ffe5f675519a4556368</title>
<g id="a_node1"><a xlink:href="dir_d53d2501428a2ffe5f675519a4556368.html" target="_top" xlink:title="src">
<polygon fill="#eeeeff" stroke="black" points="147,-324 93,-324 93,-288 147,-288 147,-324"/>
<text text-anchor="middle" x="120" y="-303.5" font-family="Helvetica,sans-Serif" font-size="10.00">src</text>
</a>
</g>
</g>
<!-- dir_1bad6cd644632a70bf093df362196556 -->
<g id="node2" class="node"><title>dir_1bad6cd644632a70bf093df362196556</title>
<g id="a_node2"><a xlink:href="dir_1bad6cd644632a70bf093df362196556.html" target="_top" xlink:title="include">
<polygon fill="none" stroke="red" points="54,-252 0,-252 0,-216 54,-216 54,-252"/>
<text text-anchor="middle" x="27" y="-231.5" font-family="Helvetica,sans-Serif" font-size="10.00">include</text>
</a>
</g>
</g>
<!-- dir_d53d2501428a2ffe5f675519a4556368&#45;&gt;dir_1bad6cd644632a70bf093df362196556 -->
<g id="edge6" class="edge"><title>dir_d53d2501428a2ffe5f675519a4556368&#45;&gt;dir_1bad6cd644632a70bf093df362196556</title>
<path fill="none" stroke="black" d="M97.0112,-287.697C85.1861,-278.796 70.608,-267.823 57.8214,-258.199"/>
<polygon fill="black" stroke="black" points="59.8188,-255.322 49.7243,-252.104 55.6092,-260.915 59.8188,-255.322"/>
<g id="a_edge6&#45;headlabel"><a xlink:href="dir_000209_000181.html" target="_top" xlink:title="3">
<text text-anchor="middle" x="64.3983" y="-252.715" font-family="Helvetica,sans-Serif" font-size="10.00">3</text>
</a>
</g>
</g>
<!-- dir_4ab6b4cc6a7edbff49100e9123df213f -->
<g id="node3" class="node"><title>dir_4ab6b4cc6a7edbff49100e9123df213f</title>
<g id="a_node3"><a xlink:href="dir_4ab6b4cc6a7edbff49100e9123df213f.html" target="_top" xlink:title="Common">
<polygon fill="none" stroke="red" points="153.5,-108 98.5,-108 98.5,-72 153.5,-72 153.5,-108"/>
<text text-anchor="middle" x="126" y="-87.5" font-family="Helvetica,sans-Serif" font-size="10.00">Common</text>
</a>
</g>
</g>
<!-- dir_d53d2501428a2ffe5f675519a4556368&#45;&gt;dir_4ab6b4cc6a7edbff49100e9123df213f -->
<g id="edge7" class="edge"><title>dir_d53d2501428a2ffe5f675519a4556368&#45;&gt;dir_4ab6b4cc6a7edbff49100e9123df213f</title>
<path fill="none" stroke="black" d="M120.481,-287.849C121.519,-250.832 123.976,-163.181 125.232,-118.386"/>
<polygon fill="black" stroke="black" points="128.735,-118.327 125.517,-108.232 121.738,-118.13 128.735,-118.327"/>
<g id="a_edge7&#45;headlabel"><a xlink:href="dir_000209_000016.html" target="_top" xlink:title="1">
<text text-anchor="middle" x="131.473" y="-119.499" font-family="Helvetica,sans-Serif" font-size="10.00">1</text>
</a>
</g>
</g>
<!-- dir_37c90836491b695b472bf98d1be8336b -->
<g id="node4" class="node"><title>dir_37c90836491b695b472bf98d1be8336b</title>
<g id="a_node4"><a xlink:href="dir_37c90836491b695b472bf98d1be8336b.html" target="_top" xlink:title="Base">
<polygon fill="none" stroke="red" points="92,-180 38,-180 38,-144 92,-144 92,-180"/>
<text text-anchor="middle" x="65" y="-159.5" font-family="Helvetica,sans-Serif" font-size="10.00">Base</text>
</a>
</g>
</g>
<!-- dir_d53d2501428a2ffe5f675519a4556368&#45;&gt;dir_37c90836491b695b472bf98d1be8336b -->
<g id="edge8" class="edge"><title>dir_d53d2501428a2ffe5f675519a4556368&#45;&gt;dir_37c90836491b695b472bf98d1be8336b</title>
<path fill="none" stroke="black" d="M113.366,-287.871C103.909,-263.457 86.4677,-218.426 75.3164,-189.635"/>
<polygon fill="black" stroke="black" points="78.5334,-188.25 71.6578,-180.189 72.0059,-190.778 78.5334,-188.25"/>
<g id="a_edge8&#45;headlabel"><a xlink:href="dir_000209_000157.html" target="_top" xlink:title="2">
<text text-anchor="middle" x="82.4792" y="-188.077" font-family="Helvetica,sans-Serif" font-size="10.00">2</text>
</a>
</g>
</g>
<!-- dir_b5547b1068d53f0f904ee5a2a84992af -->
<g id="node5" class="node"><title>dir_b5547b1068d53f0f904ee5a2a84992af</title>
<g id="a_node5"><a xlink:href="dir_b5547b1068d53f0f904ee5a2a84992af.html" target="_top" xlink:title="Base">
<polygon fill="none" stroke="red" points="202,-180 148,-180 148,-144 202,-144 202,-180"/>
<text text-anchor="middle" x="175" y="-159.5" font-family="Helvetica,sans-Serif" font-size="10.00">Base</text>
</a>
</g>
</g>
<!-- dir_d53d2501428a2ffe5f675519a4556368&#45;&gt;dir_b5547b1068d53f0f904ee5a2a84992af -->
<g id="edge9" class="edge"><title>dir_d53d2501428a2ffe5f675519a4556368&#45;&gt;dir_b5547b1068d53f0f904ee5a2a84992af</title>
<path fill="none" stroke="black" d="M126.634,-287.871C136.091,-263.457 153.532,-218.426 164.684,-189.635"/>
<polygon fill="black" stroke="black" points="167.994,-190.778 168.342,-180.189 161.467,-188.25 167.994,-190.778"/>
<g id="a_edge9&#45;headlabel"><a xlink:href="dir_000209_000123.html" target="_top" xlink:title="2">
<text text-anchor="middle" x="169.343" y="-192.656" font-family="Helvetica,sans-Serif" font-size="10.00">2</text>
</a>
</g>
</g>
<!-- dir_2171f7ec022c5423887b07c69b2f5b48 -->
<g id="node6" class="node"><title>dir_2171f7ec022c5423887b07c69b2f5b48</title>
<g id="a_node6"><a xlink:href="dir_2171f7ec022c5423887b07c69b2f5b48.html" target="_top" xlink:title="DataFormats">
<polygon fill="none" stroke="red" points="163,-36 89,-36 89,-0 163,-0 163,-36"/>
<text text-anchor="middle" x="126" y="-15.5" font-family="Helvetica,sans-Serif" font-size="10.00">DataFormats</text>
</a>
</g>
</g>
<!-- dir_d53d2501428a2ffe5f675519a4556368&#45;&gt;dir_2171f7ec022c5423887b07c69b2f5b48 -->
<g id="edge10" class="edge"><title>dir_d53d2501428a2ffe5f675519a4556368&#45;&gt;dir_2171f7ec022c5423887b07c69b2f5b48</title>
<path fill="none" stroke="black" d="M138.574,-287.709C161.003,-265.384 197.41,-224.124 211,-180 225.664,-132.39 209.102,-113.134 181,-72 173.812,-61.4785 164.271,-51.3881 155.156,-42.8877"/>
<polygon fill="black" stroke="black" points="157.436,-40.2314 147.66,-36.1468 152.755,-45.4362 157.436,-40.2314"/>
<g id="a_edge10&#45;headlabel"><a xlink:href="dir_000209_000054.html" target="_top" xlink:title="2">
<text text-anchor="middle" x="162.007" y="-38.024" font-family="Helvetica,sans-Serif" font-size="10.00">2</text>
</a>
</g>
</g>
<!-- dir_1bad6cd644632a70bf093df362196556&#45;&gt;dir_37c90836491b695b472bf98d1be8336b -->
<g id="edge1" class="edge"><title>dir_1bad6cd644632a70bf093df362196556&#45;&gt;dir_37c90836491b695b472bf98d1be8336b</title>
<path fill="none" stroke="black" d="M36.3933,-215.697C40.7649,-207.644 46.0573,-197.894 50.8953,-188.982"/>
<polygon fill="black" stroke="black" points="54.0198,-190.563 55.7148,-180.104 47.8678,-187.223 54.0198,-190.563"/>
<g id="a_edge1&#45;headlabel"><a xlink:href="dir_000181_000157.html" target="_top" xlink:title="1">
<text text-anchor="middle" x="54.8002" y="-192.576" font-family="Helvetica,sans-Serif" font-size="10.00">1</text>
</a>
</g>
</g>
<!-- dir_1bad6cd644632a70bf093df362196556&#45;&gt;dir_2171f7ec022c5423887b07c69b2f5b48 -->
<g id="edge2" class="edge"><title>dir_1bad6cd644632a70bf093df362196556&#45;&gt;dir_2171f7ec022c5423887b07c69b2f5b48</title>
<path fill="none" stroke="black" d="M24.7909,-215.867C23.034,-197.644 21.9047,-168.172 29,-144 40.9375,-103.331 73.724,-66.2759 97.8898,-43.253"/>
<polygon fill="black" stroke="black" points="100.449,-45.6533 105.396,-36.2843 95.6857,-40.5234 100.449,-45.6533"/>
<g id="a_edge2&#45;headlabel"><a xlink:href="dir_000181_000054.html" target="_top" xlink:title="2">
<text text-anchor="middle" x="99.7461" y="-47.6797" font-family="Helvetica,sans-Serif" font-size="10.00">2</text>
</a>
</g>
</g>
<!-- dir_4ab6b4cc6a7edbff49100e9123df213f&#45;&gt;dir_2171f7ec022c5423887b07c69b2f5b48 -->
<g id="edge3" class="edge"><title>dir_4ab6b4cc6a7edbff49100e9123df213f&#45;&gt;dir_2171f7ec022c5423887b07c69b2f5b48</title>
<path fill="none" stroke="black" d="M120.084,-71.6966C119.289,-63.9827 119.062,-54.7125 119.405,-46.1124"/>
<polygon fill="black" stroke="black" points="122.898,-46.3243 120.105,-36.1043 115.915,-45.8356 122.898,-46.3243"/>
<g id="a_edge3&#45;headlabel"><a xlink:href="dir_000016_000054.html" target="_top" xlink:title="3">
<text text-anchor="middle" x="125.48" y="-47.6083" font-family="Helvetica,sans-Serif" font-size="10.00">3</text>
</a>
</g>
</g>
<!-- dir_37c90836491b695b472bf98d1be8336b&#45;&gt;dir_4ab6b4cc6a7edbff49100e9123df213f -->
<g id="edge4" class="edge"><title>dir_37c90836491b695b472bf98d1be8336b&#45;&gt;dir_4ab6b4cc6a7edbff49100e9123df213f</title>
<path fill="none" stroke="black" d="M80.0787,-143.697C87.3917,-135.305 96.31,-125.07 104.335,-115.861"/>
<polygon fill="black" stroke="black" points="107.164,-117.943 111.095,-108.104 101.886,-113.344 107.164,-117.943"/>
<g id="a_edge4&#45;headlabel"><a xlink:href="dir_000157_000016.html" target="_top" xlink:title="9">
<text text-anchor="middle" x="106.943" y="-120.018" font-family="Helvetica,sans-Serif" font-size="10.00">9</text>
</a>
</g>
</g>
<!-- dir_37c90836491b695b472bf98d1be8336b&#45;&gt;dir_2171f7ec022c5423887b07c69b2f5b48 -->
<g id="edge5" class="edge"><title>dir_37c90836491b695b472bf98d1be8336b&#45;&gt;dir_2171f7ec022c5423887b07c69b2f5b48</title>
<path fill="none" stroke="black" d="M61.1388,-143.994C62.1765,-125.621 68.9059,-95.7854 80,-72 84.4826,-62.3894 90.6976,-52.6521 97.2079,-44.1912"/>
<polygon fill="black" stroke="black" points="100.122,-46.1573 103.763,-36.2078 94.7123,-41.7151 100.122,-46.1573"/>
<g id="a_edge5&#45;headlabel"><a xlink:href="dir_000157_000054.html" target="_top" xlink:title="6">
<text text-anchor="middle" x="100.035" y="-48.2371" font-family="Helvetica,sans-Serif" font-size="10.00">6</text>
</a>
</g>
</g>
<!-- dir_b5547b1068d53f0f904ee5a2a84992af&#45;&gt;dir_4ab6b4cc6a7edbff49100e9123df213f -->
<g id="edge11" class="edge"><title>dir_b5547b1068d53f0f904ee5a2a84992af&#45;&gt;dir_4ab6b4cc6a7edbff49100e9123df213f</title>
<path fill="none" stroke="black" d="M162.888,-143.697C157.132,-135.474 150.138,-125.483 143.794,-116.421"/>
<polygon fill="black" stroke="black" points="146.575,-114.29 137.973,-108.104 140.84,-118.304 146.575,-114.29"/>
<g id="a_edge11&#45;headlabel"><a xlink:href="dir_000123_000016.html" target="_top" xlink:title="2">
<text text-anchor="middle" x="150.962" y="-113.106" font-family="Helvetica,sans-Serif" font-size="10.00">2</text>
</a>
</g>
</g>
<!-- dir_b5547b1068d53f0f904ee5a2a84992af&#45;&gt;dir_2171f7ec022c5423887b07c69b2f5b48 -->
<g id="edge12" class="edge"><title>dir_b5547b1068d53f0f904ee5a2a84992af&#45;&gt;dir_2171f7ec022c5423887b07c69b2f5b48</title>
<path fill="none" stroke="black" d="M174.752,-143.689C173.972,-125.318 171.224,-95.7227 162,-72 158.23,-62.3051 152.411,-52.6209 146.542,-44.2332"/>
<polygon fill="black" stroke="black" points="149.24,-41.9936 140.492,-36.0155 143.602,-46.1437 149.24,-41.9936"/>
<g id="a_edge12&#45;headlabel"><a xlink:href="dir_000123_000054.html" target="_top" xlink:title="1">
<text text-anchor="middle" x="153.657" y="-40.7051" font-family="Helvetica,sans-Serif" font-size="10.00">1</text>
</a>
</g>
</g>
<!-- dir_2171f7ec022c5423887b07c69b2f5b48&#45;&gt;dir_4ab6b4cc6a7edbff49100e9123df213f -->
<g id="edge13" class="edge"><title>dir_2171f7ec022c5423887b07c69b2f5b48&#45;&gt;dir_4ab6b4cc6a7edbff49100e9123df213f</title>
<path fill="none" stroke="black" d="M131.895,-36.1043C132.701,-43.7913 132.937,-53.0537 132.604,-61.6651"/>
<polygon fill="black" stroke="black" points="129.109,-61.4805 131.916,-71.6966 136.092,-61.9597 129.109,-61.4805"/>
<g id="a_edge13&#45;headlabel"><a xlink:href="dir_000054_000016.html" target="_top" xlink:title="25">
<text text-anchor="middle" x="126.522" y="-55.2" font-family="Helvetica,sans-Serif" font-size="10.00">25</text>
</a>
</g>
</g>
<!-- dir_2171f7ec022c5423887b07c69b2f5b48&#45;&gt;dir_37c90836491b695b472bf98d1be8336b -->
<g id="edge14" class="edge"><title>dir_2171f7ec022c5423887b07c69b2f5b48&#45;&gt;dir_37c90836491b695b472bf98d1be8336b</title>
<path fill="none" stroke="black" d="M119.617,-36.2078C113.033,-46.1465 103.977,-59.1859 98,-72 88.6827,-91.976 82.444,-116.22 77.2665,-134.356"/>
<polygon fill="black" stroke="black" points="73.8961,-133.412 74.4064,-143.994 80.6069,-135.403 73.8961,-133.412"/>
<g id="a_edge14&#45;headlabel"><a xlink:href="dir_000054_000157.html" target="_top" xlink:title="1">
<text text-anchor="middle" x="72.1968" y="-126.658" font-family="Helvetica,sans-Serif" font-size="10.00">1</text>
</a>
</g>
</g>
</g>
</svg>
