<?xml version="1.0" encoding="UTF-8" standalone="no"?>
<!DOCTYPE svg PUBLIC "-//W3C//DTD SVG 1.1//EN"
 "http://www.w3.org/Graphics/SVG/1.1/DTD/svg11.dtd">
<!-- Generated by graphviz version 2.36.0 (20140111.2315)
 -->
<!-- Title: /home/travis/build/AliceO2Group/AliceO2/Detectors/TPC Pages: 1 -->
<svg width="700pt" height="519pt"
 viewBox="0.00 0.00 700.00 519.00" xmlns="http://www.w3.org/2000/svg" xmlns:xlink="http://www.w3.org/1999/xlink">
<g id="graph0" class="graph" transform="scale(1 1) rotate(0) translate(4 515)">
<title>/home/travis/build/AliceO2Group/AliceO2/Detectors/TPC</title>
<g id="clust1" class="cluster"><title>clusterdir_051dca18e802f8e9474f2e30d29c04e0</title>
<g id="a_clust1"><a xlink:href="dir_051dca18e802f8e9474f2e30d29c04e0.html" target="_top" xlink:title="Detectors">
<polygon fill="#ddddee" stroke="black" points="8,-128 8,-503 216,-503 216,-128 8,-128"/>
<text text-anchor="middle" x="112" y="-491" font-family="Helvetica,sans-Serif" font-size="10.00">Detectors</text>
</a>
</g>
</g>
<g id="clust2" class="cluster"><title>clusterdir_a597e8e061b11201a1dff411feb10d0b</title>
<g id="a_clust2"><a xlink:href="dir_a597e8e061b11201a1dff411feb10d0b.html" target="_top">
<polygon fill="#eeeeff" stroke="black" points="16,-136 16,-476 208,-476 208,-136 16,-136"/>
</a>
</g>
</g>
<!-- dir_a597e8e061b11201a1dff411feb10d0b -->
<g id="node1" class="node"><title>dir_a597e8e061b11201a1dff411feb10d0b</title>
<text text-anchor="middle" x="159" y="-447.5" font-family="Helvetica,sans-Serif" font-size="10.00">TPC</text>
</g>
<!-- dir_677b030cc750909e4cd27413873678d8 -->
<g id="node2" class="node"><title>dir_677b030cc750909e4cd27413873678d8</title>
<g id="a_node2"><a xlink:href="dir_677b030cc750909e4cd27413873678d8.html" target="_top" xlink:title="base">
<polygon fill="white" stroke="red" points="146,-180 92,-180 92,-144 146,-144 146,-180"/>
<text text-anchor="middle" x="119" y="-159.5" font-family="Helvetica,sans-Serif" font-size="10.00">base</text>
</a>
</g>
</g>
<!-- dir_6af676bf18881990e4083e191d0e63e0 -->
<g id="node10" class="node"><title>dir_6af676bf18881990e4083e191d0e63e0</title>
<g id="a_node10"><a xlink:href="dir_6af676bf18881990e4083e191d0e63e0.html" target="_top" xlink:title="CCDB">
<polygon fill="none" stroke="red" points="146,-108 92,-108 92,-72 146,-72 146,-108"/>
<text text-anchor="middle" x="119" y="-87.5" font-family="Helvetica,sans-Serif" font-size="10.00">CCDB</text>
</a>
</g>
</g>
<!-- dir_677b030cc750909e4cd27413873678d8&#45;&gt;dir_6af676bf18881990e4083e191d0e63e0 -->
<g id="edge22" class="edge"><title>dir_677b030cc750909e4cd27413873678d8&#45;&gt;dir_6af676bf18881990e4083e191d0e63e0</title>
<path fill="none" stroke="black" d="M119,-143.697C119,-135.983 119,-126.712 119,-118.112"/>
<polygon fill="black" stroke="black" points="122.5,-118.104 119,-108.104 115.5,-118.104 122.5,-118.104"/>
<g id="a_edge22&#45;headlabel"><a xlink:href="dir_000231_000004.html" target="_top" xlink:title="4">
<text text-anchor="middle" x="125.339" y="-119.199" font-family="Helvetica,sans-Serif" font-size="10.00">4</text>
</a>
</g>
</g>
<!-- dir_2171f7ec022c5423887b07c69b2f5b48 -->
<g id="node14" class="node"><title>dir_2171f7ec022c5423887b07c69b2f5b48</title>
<g id="a_node14"><a xlink:href="dir_2171f7ec022c5423887b07c69b2f5b48.html" target="_top" xlink:title="DataFormats">
<polygon fill="none" stroke="red" points="379,-180 305,-180 305,-144 379,-144 379,-180"/>
<text text-anchor="middle" x="342" y="-159.5" font-family="Helvetica,sans-Serif" font-size="10.00">DataFormats</text>
</a>
</g>
</g>
<!-- dir_677b030cc750909e4cd27413873678d8&#45;&gt;dir_2171f7ec022c5423887b07c69b2f5b48 -->
<g id="edge23" class="edge"><title>dir_677b030cc750909e4cd27413873678d8&#45;&gt;dir_2171f7ec022c5423887b07c69b2f5b48</title>
<path fill="none" stroke="black" d="M146.004,-162C195.545,-162 245.087,-162 294.629,-162"/>
<polygon fill="black" stroke="black" points="294.868,-165.5 304.868,-162 294.868,-158.5 294.868,-165.5"/>
<g id="a_edge23&#45;headlabel"><a xlink:href="dir_000231_000054.html" target="_top" xlink:title="14">
<text text-anchor="middle" x="291.273" y="-165.839" font-family="Helvetica,sans-Serif" font-size="10.00">14</text>
</a>
</g>
</g>
<!-- dir_4995562033b321477cfe3c34a14a5189 -->
<g id="node3" class="node"><title>dir_4995562033b321477cfe3c34a14a5189</title>
<g id="a_node3"><a xlink:href="dir_4995562033b321477cfe3c34a14a5189.html" target="_top" xlink:title="calibration">
<polygon fill="white" stroke="red" points="125.25,-396 64.75,-396 64.75,-360 125.25,-360 125.25,-396"/>
<text text-anchor="middle" x="95" y="-375.5" font-family="Helvetica,sans-Serif" font-size="10.00">calibration</text>
</a>
</g>
</g>
<!-- dir_4995562033b321477cfe3c34a14a5189&#45;&gt;dir_677b030cc750909e4cd27413873678d8 -->
<g id="edge13" class="edge"><title>dir_4995562033b321477cfe3c34a14a5189&#45;&gt;dir_677b030cc750909e4cd27413873678d8</title>
<path fill="none" stroke="black" d="M77.2669,-359.599C68.7614,-349.998 59.4675,-337.336 55,-324 49.9175,-308.829 51.2496,-303.554 55,-288 63.8679,-251.221 85.5003,-213.102 101.164,-188.78"/>
<polygon fill="black" stroke="black" points="104.26,-190.443 106.837,-180.166 98.4138,-186.593 104.26,-190.443"/>
<g id="a_edge13&#45;headlabel"><a xlink:href="dir_000365_000231.html" target="_top" xlink:title="10">
<text text-anchor="middle" x="104.655" y="-192.507" font-family="Helvetica,sans-Serif" font-size="10.00">10</text>
</a>
</g>
</g>
<!-- dir_a5de047958dd458e809773c6ffaa8478 -->
<g id="node5" class="node"><title>dir_a5de047958dd458e809773c6ffaa8478</title>
<g id="a_node5"><a xlink:href="dir_a5de047958dd458e809773c6ffaa8478.html" target="_top" xlink:title="reconstruction">
<polygon fill="white" stroke="red" points="142,-324 64,-324 64,-288 142,-288 142,-324"/>
<text text-anchor="middle" x="103" y="-303.5" font-family="Helvetica,sans-Serif" font-size="10.00">reconstruction</text>
</a>
</g>
</g>
<!-- dir_4995562033b321477cfe3c34a14a5189&#45;&gt;dir_a5de047958dd458e809773c6ffaa8478 -->
<g id="edge15" class="edge"><title>dir_4995562033b321477cfe3c34a14a5189&#45;&gt;dir_a5de047958dd458e809773c6ffaa8478</title>
<path fill="none" stroke="black" d="M91.0618,-359.697C91.1477,-351.983 91.9806,-342.712 93.3062,-334.112"/>
<polygon fill="black" stroke="black" points="96.7801,-334.573 95.1502,-324.104 89.896,-333.305 96.7801,-334.573"/>
<g id="a_edge15&#45;headlabel"><a xlink:href="dir_000365_000279.html" target="_top" xlink:title="3">
<text text-anchor="middle" x="98.9211" y="-336.123" font-family="Helvetica,sans-Serif" font-size="10.00">3</text>
</a>
</g>
</g>
<!-- dir_4ab6b4cc6a7edbff49100e9123df213f -->
<g id="node9" class="node"><title>dir_4ab6b4cc6a7edbff49100e9123df213f</title>
<g id="a_node9"><a xlink:href="dir_4ab6b4cc6a7edbff49100e9123df213f.html" target="_top" xlink:title="Common">
<polygon fill="none" stroke="red" points="305.5,-36 250.5,-36 250.5,-0 305.5,-0 305.5,-36"/>
<text text-anchor="middle" x="278" y="-15.5" font-family="Helvetica,sans-Serif" font-size="10.00">Common</text>
</a>
</g>
</g>
<!-- dir_4995562033b321477cfe3c34a14a5189&#45;&gt;dir_4ab6b4cc6a7edbff49100e9123df213f -->
<g id="edge14" class="edge"><title>dir_4995562033b321477cfe3c34a14a5189&#45;&gt;dir_4ab6b4cc6a7edbff49100e9123df213f</title>
<path fill="none" stroke="black" d="M115.999,-359.867C141.72,-337.705 184.731,-296.614 208,-252 244.269,-182.459 264.752,-91.2126 273.267,-46.3362"/>
<polygon fill="black" stroke="black" points="276.761,-46.6884 275.132,-36.2196 269.877,-45.4197 276.761,-46.6884"/>
<g id="a_edge14&#45;headlabel"><a xlink:href="dir_000365_000016.html" target="_top" xlink:title="3">
<text text-anchor="middle" x="278.902" y="-48.238" font-family="Helvetica,sans-Serif" font-size="10.00">3</text>
</a>
</g>
</g>
<!-- dir_4995562033b321477cfe3c34a14a5189&#45;&gt;dir_2171f7ec022c5423887b07c69b2f5b48 -->
<g id="edge16" class="edge"><title>dir_4995562033b321477cfe3c34a14a5189&#45;&gt;dir_2171f7ec022c5423887b07c69b2f5b48</title>
<path fill="none" stroke="black" d="M125.429,-363.88C152.89,-351.74 190.924,-334.093 204,-324 255.363,-284.353 301.413,-222.984 325.121,-188.596"/>
<polygon fill="black" stroke="black" points="328.198,-190.295 330.929,-180.058 322.41,-186.358 328.198,-190.295"/>
<g id="a_edge16&#45;headlabel"><a xlink:href="dir_000365_000054.html" target="_top" xlink:title="3">
<text text-anchor="middle" x="328.524" y="-192.364" font-family="Helvetica,sans-Serif" font-size="10.00">3</text>
</a>
</g>
</g>
<!-- dir_c8aedc994017b243e124cedd663b3bbb -->
<g id="node4" class="node"><title>dir_c8aedc994017b243e124cedd663b3bbb</title>
<g id="a_node4"><a xlink:href="dir_c8aedc994017b243e124cedd663b3bbb.html" target="_top" xlink:title="monitor">
<polygon fill="white" stroke="red" points="100,-468 46,-468 46,-432 100,-432 100,-468"/>
<text text-anchor="middle" x="73" y="-447.5" font-family="Helvetica,sans-Serif" font-size="10.00">monitor</text>
</a>
</g>
</g>
<!-- dir_c8aedc994017b243e124cedd663b3bbb&#45;&gt;dir_677b030cc750909e4cd27413873678d8 -->
<g id="edge33" class="edge"><title>dir_c8aedc994017b243e124cedd663b3bbb&#45;&gt;dir_677b030cc750909e4cd27413873678d8</title>
<path fill="none" stroke="black" d="M62.3749,-431.556C56.9021,-421.543 50.8021,-408.509 48,-396 37.5074,-349.161 42.7624,-335.713 48,-288 51.5769,-255.415 47.9603,-244.588 64,-216 70.0221,-205.267 78.9068,-195.349 87.787,-187.068"/>
<polygon fill="black" stroke="black" points="90.3452,-189.478 95.5176,-180.231 85.7079,-184.234 90.3452,-189.478"/>
<g id="a_edge33&#45;headlabel"><a xlink:href="dir_000370_000231.html" target="_top" xlink:title="11">
<text text-anchor="middle" x="89.5334" y="-191.486" font-family="Helvetica,sans-Serif" font-size="10.00">11</text>
</a>
</g>
</g>
<!-- dir_c8aedc994017b243e124cedd663b3bbb&#45;&gt;dir_4995562033b321477cfe3c34a14a5189 -->
<g id="edge32" class="edge"><title>dir_c8aedc994017b243e124cedd663b3bbb&#45;&gt;dir_4995562033b321477cfe3c34a14a5189</title>
<path fill="none" stroke="black" d="M78.4382,-431.697C80.8892,-423.898 83.8402,-414.509 86.568,-405.829"/>
<polygon fill="black" stroke="black" points="89.965,-406.694 89.6244,-396.104 83.287,-404.595 89.965,-406.694"/>
<g id="a_edge32&#45;headlabel"><a xlink:href="dir_000370_000365.html" target="_top" xlink:title="1">
<text text-anchor="middle" x="91.596" y="-408.474" font-family="Helvetica,sans-Serif" font-size="10.00">1</text>
</a>
</g>
</g>
<!-- dir_c8aedc994017b243e124cedd663b3bbb&#45;&gt;dir_a5de047958dd458e809773c6ffaa8478 -->
<g id="edge34" class="edge"><title>dir_c8aedc994017b243e124cedd663b3bbb&#45;&gt;dir_a5de047958dd458e809773c6ffaa8478</title>
<path fill="none" stroke="black" d="M63.9398,-431.789C55.5816,-413.501 45.7568,-383.976 55,-360 59.1028,-349.358 66.4431,-339.528 74.1686,-331.298"/>
<polygon fill="black" stroke="black" points="76.6699,-333.747 81.29,-324.213 71.7325,-328.785 76.6699,-333.747"/>
<g id="a_edge34&#45;headlabel"><a xlink:href="dir_000370_000279.html" target="_top" xlink:title="2">
<text text-anchor="middle" x="76.1244" y="-335.795" font-family="Helvetica,sans-Serif" font-size="10.00">2</text>
</a>
</g>
</g>
<!-- dir_c8aedc994017b243e124cedd663b3bbb&#45;&gt;dir_2171f7ec022c5423887b07c69b2f5b48 -->
<g id="edge35" class="edge"><title>dir_c8aedc994017b243e124cedd663b3bbb&#45;&gt;dir_2171f7ec022c5423887b07c69b2f5b48</title>
<path fill="none" stroke="black" d="M100.185,-438.479C107.498,-436.003 115.47,-433.617 123,-432 205.284,-414.335 443.39,-458.274 500,-396 555.542,-334.901 514.553,-272.137 454,-216 448.596,-210.991 416.895,-196.162 388.594,-183.459"/>
<polygon fill="black" stroke="black" points="389.727,-180.132 379.169,-179.25 386.873,-186.524 389.727,-180.132"/>
<g id="a_edge35&#45;headlabel"><a xlink:href="dir_000370_000054.html" target="_top" xlink:title="1">
<text text-anchor="middle" x="394.167" y="-176.506" font-family="Helvetica,sans-Serif" font-size="10.00">1</text>
</a>
</g>
</g>
<!-- dir_a5de047958dd458e809773c6ffaa8478&#45;&gt;dir_677b030cc750909e4cd27413873678d8 -->
<g id="edge27" class="edge"><title>dir_a5de047958dd458e809773c6ffaa8478&#45;&gt;dir_677b030cc750909e4cd27413873678d8</title>
<path fill="none" stroke="black" d="M104.93,-287.871C107.657,-263.67 112.666,-219.211 115.913,-190.393"/>
<polygon fill="black" stroke="black" points="119.421,-190.518 117.063,-180.189 112.465,-189.734 119.421,-190.518"/>
<g id="a_edge27&#45;headlabel"><a xlink:href="dir_000279_000231.html" target="_top" xlink:title="50">
<text text-anchor="middle" x="121.84" y="-191.908" font-family="Helvetica,sans-Serif" font-size="10.00">50</text>
</a>
</g>
</g>
<!-- dir_a5de047958dd458e809773c6ffaa8478&#45;&gt;dir_4995562033b321477cfe3c34a14a5189 -->
<g id="edge26" class="edge"><title>dir_a5de047958dd458e809773c6ffaa8478&#45;&gt;dir_4995562033b321477cfe3c34a14a5189</title>
<path fill="none" stroke="black" d="M106.94,-324.104C106.867,-331.791 106.045,-341.054 104.728,-349.665"/>
<polygon fill="black" stroke="black" points="101.25,-349.23 102.893,-359.697 108.135,-350.49 101.25,-349.23"/>
<g id="a_edge26&#45;headlabel"><a xlink:href="dir_000279_000365.html" target="_top" xlink:title="1">
<text text-anchor="middle" x="99.1033" y="-342.683" font-family="Helvetica,sans-Serif" font-size="10.00">1</text>
</a>
</g>
</g>
<!-- dir_7f309bec8670bb3fb666e7e061b24659 -->
<g id="node6" class="node"><title>dir_7f309bec8670bb3fb666e7e061b24659</title>
<g id="a_node6"><a xlink:href="dir_7f309bec8670bb3fb666e7e061b24659.html" target="_top" xlink:title="simulation">
<polygon fill="white" stroke="red" points="199.25,-252 138.75,-252 138.75,-216 199.25,-216 199.25,-252"/>
<text text-anchor="middle" x="169" y="-231.5" font-family="Helvetica,sans-Serif" font-size="10.00">simulation</text>
</a>
</g>
</g>
<!-- dir_a5de047958dd458e809773c6ffaa8478&#45;&gt;dir_7f309bec8670bb3fb666e7e061b24659 -->
<g id="edge25" class="edge"><title>dir_a5de047958dd458e809773c6ffaa8478&#45;&gt;dir_7f309bec8670bb3fb666e7e061b24659</title>
<path fill="none" stroke="black" d="M119.315,-287.697C127.307,-279.22 137.072,-268.864 145.822,-259.583"/>
<polygon fill="black" stroke="black" points="148.559,-261.781 152.873,-252.104 143.466,-256.979 148.559,-261.781"/>
<g id="a_edge25&#45;headlabel"><a xlink:href="dir_000279_000191.html" target="_top" xlink:title="1">
<text text-anchor="middle" x="148.159" y="-263.844" font-family="Helvetica,sans-Serif" font-size="10.00">1</text>
</a>
</g>
</g>
<!-- dir_a5de047958dd458e809773c6ffaa8478&#45;&gt;dir_2171f7ec022c5423887b07c69b2f5b48 -->
<g id="edge28" class="edge"><title>dir_a5de047958dd458e809773c6ffaa8478&#45;&gt;dir_2171f7ec022c5423887b07c69b2f5b48</title>
<path fill="none" stroke="black" d="M139.525,-287.887C159.977,-277.978 185.76,-264.937 208,-252 243.724,-231.219 282.924,-204.723 309.643,-186.064"/>
<polygon fill="black" stroke="black" points="311.684,-188.908 317.86,-180.299 307.663,-183.178 311.684,-188.908"/>
<g id="a_edge28&#45;headlabel"><a xlink:href="dir_000279_000054.html" target="_top" xlink:title="59">
<text text-anchor="middle" x="310.373" y="-190.797" font-family="Helvetica,sans-Serif" font-size="10.00">59</text>
</a>
</g>
</g>
<!-- dir_7f309bec8670bb3fb666e7e061b24659&#45;&gt;dir_677b030cc750909e4cd27413873678d8 -->
<g id="edge2" class="edge"><title>dir_7f309bec8670bb3fb666e7e061b24659&#45;&gt;dir_677b030cc750909e4cd27413873678d8</title>
<path fill="none" stroke="black" d="M156.64,-215.697C150.767,-207.474 143.631,-197.483 137.158,-188.421"/>
<polygon fill="black" stroke="black" points="139.878,-186.207 131.217,-180.104 134.182,-190.276 139.878,-186.207"/>
<g id="a_edge2&#45;headlabel"><a xlink:href="dir_000191_000231.html" target="_top" xlink:title="52">
<text text-anchor="middle" x="144.278" y="-184.982" font-family="Helvetica,sans-Serif" font-size="10.00">52</text>
</a>
</g>
</g>
<!-- dir_40b4a122691869ee86baf7f2711ed718 -->
<g id="node8" class="node"><title>dir_40b4a122691869ee86baf7f2711ed718</title>
<g id="a_node8"><a xlink:href="dir_40b4a122691869ee86baf7f2711ed718.html" target="_top" xlink:title="Steer">
<polygon fill="none" stroke="red" points="491,-396 437,-396 437,-360 491,-360 491,-396"/>
<text text-anchor="middle" x="464" y="-375.5" font-family="Helvetica,sans-Serif" font-size="10.00">Steer</text>
</a>
</g>
</g>
<!-- dir_7f309bec8670bb3fb666e7e061b24659&#45;&gt;dir_40b4a122691869ee86baf7f2711ed718 -->
<g id="edge1" class="edge"><title>dir_7f309bec8670bb3fb666e7e061b24659&#45;&gt;dir_40b4a122691869ee86baf7f2711ed718</title>
<path fill="none" stroke="black" d="M187.777,-252.004C210.492,-271.783 250.607,-304.241 290,-324 334.702,-346.422 390.685,-361.386 426.885,-369.537"/>
<polygon fill="black" stroke="black" points="426.479,-373.032 436.997,-371.753 427.978,-366.194 426.479,-373.032"/>
<g id="a_edge1&#45;headlabel"><a xlink:href="dir_000191_000439.html" target="_top" xlink:title="1">
<text text-anchor="middle" x="422.361" y="-372.536" font-family="Helvetica,sans-Serif" font-size="10.00">1</text>
</a>
</g>
</g>
<!-- dir_7f309bec8670bb3fb666e7e061b24659&#45;&gt;dir_4ab6b4cc6a7edbff49100e9123df213f -->
<g id="edge3" class="edge"><title>dir_7f309bec8670bb3fb666e7e061b24659&#45;&gt;dir_4ab6b4cc6a7edbff49100e9123df213f</title>
<path fill="none" stroke="black" d="M170.443,-215.637C173.729,-184.533 183.972,-118.25 214,-72 221.315,-60.7338 231.774,-50.6518 242.124,-42.3829"/>
<polygon fill="black" stroke="black" points="244.487,-44.9841 250.339,-36.1522 240.256,-39.4069 244.487,-44.9841"/>
<g id="a_edge3&#45;headlabel"><a xlink:href="dir_000191_000016.html" target="_top" xlink:title="5">
<text text-anchor="middle" x="243.338" y="-46.9185" font-family="Helvetica,sans-Serif" font-size="10.00">5</text>
</a>
</g>
</g>
<!-- dir_37c90836491b695b472bf98d1be8336b -->
<g id="node11" class="node"><title>dir_37c90836491b695b472bf98d1be8336b</title>
<g id="a_node11"><a xlink:href="dir_37c90836491b695b472bf98d1be8336b.html" target="_top" xlink:title="Base">
<polygon fill="none" stroke="red" points="369,-108 315,-108 315,-72 369,-72 369,-108"/>
<text text-anchor="middle" x="342" y="-87.5" font-family="Helvetica,sans-Serif" font-size="10.00">Base</text>
</a>
</g>
</g>
<!-- dir_7f309bec8670bb3fb666e7e061b24659&#45;&gt;dir_37c90836491b695b472bf98d1be8336b -->
<g id="edge4" class="edge"><title>dir_7f309bec8670bb3fb666e7e061b24659&#45;&gt;dir_37c90836491b695b472bf98d1be8336b</title>
<path fill="none" stroke="black" d="M189.607,-215.819C214.672,-194.954 258.31,-158.736 296,-128 301.336,-123.648 307.04,-119.032 312.551,-114.59"/>
<polygon fill="black" stroke="black" points="314.824,-117.253 320.422,-108.258 310.436,-111.799 314.824,-117.253"/>
<g id="a_edge4&#45;headlabel"><a xlink:href="dir_000191_000157.html" target="_top" xlink:title="1">
<text text-anchor="middle" x="313.803" y="-119.219" font-family="Helvetica,sans-Serif" font-size="10.00">1</text>
</a>
</g>
</g>
<!-- dir_7f309bec8670bb3fb666e7e061b24659&#45;&gt;dir_2171f7ec022c5423887b07c69b2f5b48 -->
<g id="edge5" class="edge"><title>dir_7f309bec8670bb3fb666e7e061b24659&#45;&gt;dir_2171f7ec022c5423887b07c69b2f5b48</title>
<path fill="none" stroke="black" d="M199.531,-220.647C226.052,-209.915 264.875,-194.207 295.298,-181.897"/>
<polygon fill="black" stroke="black" points="296.898,-185.025 304.855,-178.03 294.272,-178.536 296.898,-185.025"/>
<g id="a_edge5&#45;headlabel"><a xlink:href="dir_000191_000054.html" target="_top" xlink:title="12">
<text text-anchor="middle" x="294.63" y="-186.505" font-family="Helvetica,sans-Serif" font-size="10.00">12</text>
</a>
</g>
</g>
<!-- dir_9cc61f72f781098a662027b321784562 -->
<g id="node7" class="node"><title>dir_9cc61f72f781098a662027b321784562</title>
<g id="a_node7"><a xlink:href="dir_9cc61f72f781098a662027b321784562.html" target="_top" xlink:title="workflow">
<polygon fill="white" stroke="red" points="199.5,-396 144.5,-396 144.5,-360 199.5,-360 199.5,-396"/>
<text text-anchor="middle" x="172" y="-375.5" font-family="Helvetica,sans-Serif" font-size="10.00">workflow</text>
</a>
</g>
</g>
<!-- dir_9cc61f72f781098a662027b321784562&#45;&gt;dir_677b030cc750909e4cd27413873678d8 -->
<g id="edge17" class="edge"><title>dir_9cc61f72f781098a662027b321784562&#45;&gt;dir_677b030cc750909e4cd27413873678d8</title>
<path fill="none" stroke="black" d="M169.596,-359.773C166.664,-341.47 160.841,-311.933 151,-288 143.869,-270.658 135.08,-269.738 129,-252 122.162,-232.052 119.763,-208.261 119.018,-190.298"/>
<polygon fill="black" stroke="black" points="122.515,-190.113 118.747,-180.211 115.517,-190.301 122.515,-190.113"/>
<g id="a_edge17&#45;headlabel"><a xlink:href="dir_000310_000231.html" target="_top" xlink:title="5">
<text text-anchor="middle" x="125.45" y="-191.13" font-family="Helvetica,sans-Serif" font-size="10.00">5</text>
</a>
</g>
</g>
<!-- dir_9cc61f72f781098a662027b321784562&#45;&gt;dir_a5de047958dd458e809773c6ffaa8478 -->
<g id="edge18" class="edge"><title>dir_9cc61f72f781098a662027b321784562&#45;&gt;dir_a5de047958dd458e809773c6ffaa8478</title>
<path fill="none" stroke="black" d="M154.944,-359.697C146.505,-351.135 136.175,-340.656 126.957,-331.304"/>
<polygon fill="black" stroke="black" points="129.373,-328.769 119.86,-324.104 124.387,-333.683 129.373,-328.769"/>
<g id="a_edge18&#45;headlabel"><a xlink:href="dir_000310_000279.html" target="_top" xlink:title="3">
<text text-anchor="middle" x="133.918" y="-326.836" font-family="Helvetica,sans-Serif" font-size="10.00">3</text>
</a>
</g>
</g>
<!-- dir_8ba487e25de5ee77e05e9dce7582cb98 -->
<g id="node12" class="node"><title>dir_8ba487e25de5ee77e05e9dce7582cb98</title>
<g id="a_node12"><a xlink:href="dir_8ba487e25de5ee77e05e9dce7582cb98.html" target="_top" xlink:title="Algorithm">
<polygon fill="none" stroke="red" points="444.5,-108 387.5,-108 387.5,-72 444.5,-72 444.5,-108"/>
<text text-anchor="middle" x="416" y="-87.5" font-family="Helvetica,sans-Serif" font-size="10.00">Algorithm</text>
</a>
</g>
</g>
<!-- dir_9cc61f72f781098a662027b321784562&#45;&gt;dir_8ba487e25de5ee77e05e9dce7582cb98 -->
<g id="edge19" class="edge"><title>dir_9cc61f72f781098a662027b321784562&#45;&gt;dir_8ba487e25de5ee77e05e9dce7582cb98</title>
<path fill="none" stroke="black" d="M199.543,-375.903C262.361,-372.764 413.177,-361.409 444,-324 493.325,-264.136 453.799,-164.447 430.297,-117.276"/>
<polygon fill="black" stroke="black" points="433.376,-115.61 425.702,-108.305 427.146,-118.801 433.376,-115.61"/>
<g id="a_edge19&#45;headlabel"><a xlink:href="dir_000310_000000.html" target="_top" xlink:title="3">
<text text-anchor="middle" x="437.542" y="-115.015" font-family="Helvetica,sans-Serif" font-size="10.00">3</text>
</a>
</g>
</g>
<!-- dir_bcbb2cf9a3d3d83e5515c82071a07177 -->
<g id="node13" class="node"><title>dir_bcbb2cf9a3d3d83e5515c82071a07177</title>
<g id="a_node13"><a xlink:href="dir_bcbb2cf9a3d3d83e5515c82071a07177.html" target="_top" xlink:title="Framework">
<polygon fill="none" stroke="red" points="435.25,-324 370.75,-324 370.75,-288 435.25,-288 435.25,-324"/>
<text text-anchor="middle" x="403" y="-303.5" font-family="Helvetica,sans-Serif" font-size="10.00">Framework</text>
</a>
</g>
</g>
<!-- dir_9cc61f72f781098a662027b321784562&#45;&gt;dir_bcbb2cf9a3d3d83e5515c82071a07177 -->
<g id="edge20" class="edge"><title>dir_9cc61f72f781098a662027b321784562&#45;&gt;dir_bcbb2cf9a3d3d83e5515c82071a07177</title>
<path fill="none" stroke="black" d="M199.606,-369.665C235.75,-359.921 300.981,-341.852 356,-324 357.646,-323.466 359.32,-322.912 361.008,-322.345"/>
<polygon fill="black" stroke="black" points="362.423,-325.559 370.735,-318.99 360.141,-318.942 362.423,-325.559"/>
<g id="a_edge20&#45;headlabel"><a xlink:href="dir_000310_000035.html" target="_top" xlink:title="21">
<text text-anchor="middle" x="359.95" y="-326.915" font-family="Helvetica,sans-Serif" font-size="10.00">21</text>
</a>
</g>
</g>
<!-- dir_9cc61f72f781098a662027b321784562&#45;&gt;dir_2171f7ec022c5423887b07c69b2f5b48 -->
<g id="edge21" class="edge"><title>dir_9cc61f72f781098a662027b321784562&#45;&gt;dir_2171f7ec022c5423887b07c69b2f5b48</title>
<path fill="none" stroke="black" d="M199.637,-361.197C233.121,-340.543 288.681,-301.145 318,-252 329.309,-233.044 335.399,-208.678 338.61,-190.235"/>
<polygon fill="black" stroke="black" points="342.101,-190.567 340.187,-180.146 335.185,-189.486 342.101,-190.567"/>
<g id="a_edge21&#45;headlabel"><a xlink:href="dir_000310_000054.html" target="_top" xlink:title="28">
<text text-anchor="middle" x="344.352" y="-192.057" font-family="Helvetica,sans-Serif" font-size="10.00">28</text>
</a>
</g>
</g>
<!-- dir_40b4a122691869ee86baf7f2711ed718&#45;&gt;dir_677b030cc750909e4cd27413873678d8 -->
<g id="edge8" class="edge"><title>dir_40b4a122691869ee86baf7f2711ed718&#45;&gt;dir_677b030cc750909e4cd27413873678d8</title>
<path fill="none" stroke="black" d="M464.699,-359.818C464.569,-340.173 461.39,-308.136 444,-288 368.426,-200.489 224.36,-173.967 156.335,-166.149"/>
<polygon fill="black" stroke="black" points="156.409,-162.637 146.092,-165.049 155.661,-169.597 156.409,-162.637"/>
<g id="a_edge8&#45;headlabel"><a xlink:href="dir_000439_000231.html" target="_top" xlink:title="6">
<text text-anchor="middle" x="160.286" y="-157.698" font-family="Helvetica,sans-Serif" font-size="10.00">6</text>
</a>
</g>
</g>
<!-- dir_40b4a122691869ee86baf7f2711ed718&#45;&gt;dir_7f309bec8670bb3fb666e7e061b24659 -->
<g id="edge6" class="edge"><title>dir_40b4a122691869ee86baf7f2711ed718&#45;&gt;dir_7f309bec8670bb3fb666e7e061b24659</title>
<path fill="none" stroke="black" d="M436.776,-363.896C384.514,-338.739 269.92,-283.578 208.97,-254.24"/>
<polygon fill="black" stroke="black" points="210.195,-250.945 199.666,-249.761 207.159,-257.252 210.195,-250.945"/>
<g id="a_edge6&#45;headlabel"><a xlink:href="dir_000439_000191.html" target="_top" xlink:title="5">
<text text-anchor="middle" x="214.665" y="-247.446" font-family="Helvetica,sans-Serif" font-size="10.00">5</text>
</a>
</g>
</g>
<!-- dir_40b4a122691869ee86baf7f2711ed718&#45;&gt;dir_9cc61f72f781098a662027b321784562 -->
<g id="edge7" class="edge"><title>dir_40b4a122691869ee86baf7f2711ed718&#45;&gt;dir_9cc61f72f781098a662027b321784562</title>
<path fill="none" stroke="black" d="M436.895,-378C361.215,-378 285.534,-378 209.854,-378"/>
<polygon fill="black" stroke="black" points="209.66,-374.5 199.66,-378 209.66,-381.5 209.66,-374.5"/>
<g id="a_edge7&#45;headlabel"><a xlink:href="dir_000439_000310.html" target="_top" xlink:title="1">
<text text-anchor="middle" x="213.255" y="-369.161" font-family="Helvetica,sans-Serif" font-size="10.00">1</text>
</a>
</g>
</g>
<!-- dir_40b4a122691869ee86baf7f2711ed718&#45;&gt;dir_4ab6b4cc6a7edbff49100e9123df213f -->
<g id="edge9" class="edge"><title>dir_40b4a122691869ee86baf7f2711ed718&#45;&gt;dir_4ab6b4cc6a7edbff49100e9123df213f</title>
<path fill="none" stroke="black" d="M491.05,-373.132C551.445,-362.814 692,-328.732 692,-235 692,-235 692,-235 692,-161 692,-81.9242 418.342,-37.5663 316.008,-23.7431"/>
<polygon fill="black" stroke="black" points="316.18,-20.2353 305.807,-22.39 315.26,-27.1746 316.18,-20.2353"/>
<g id="a_edge9&#45;headlabel"><a xlink:href="dir_000439_000016.html" target="_top" xlink:title="4">
<text text-anchor="middle" x="320.117" y="-15.3932" font-family="Helvetica,sans-Serif" font-size="10.00">4</text>
</a>
</g>
</g>
<!-- dir_40b4a122691869ee86baf7f2711ed718&#45;&gt;dir_37c90836491b695b472bf98d1be8336b -->
<g id="edge10" class="edge"><title>dir_40b4a122691869ee86baf7f2711ed718&#45;&gt;dir_37c90836491b695b472bf98d1be8336b</title>
<path fill="none" stroke="black" d="M477.146,-359.908C483.923,-350.006 491.487,-336.964 495,-324 499.185,-308.557 499.095,-303.467 495,-288 473.105,-205.302 447.457,-189.507 388,-128 383.512,-123.358 378.448,-118.759 373.362,-114.465"/>
<polygon fill="black" stroke="black" points="375.395,-111.607 365.432,-108.003 370.973,-117.033 375.395,-111.607"/>
<g id="a_edge10&#45;headlabel"><a xlink:href="dir_000439_000157.html" target="_top" xlink:title="9">
<text text-anchor="middle" x="379.975" y="-109.176" font-family="Helvetica,sans-Serif" font-size="10.00">9</text>
</a>
</g>
</g>
<!-- dir_40b4a122691869ee86baf7f2711ed718&#45;&gt;dir_bcbb2cf9a3d3d83e5515c82071a07177 -->
<g id="edge11" class="edge"><title>dir_40b4a122691869ee86baf7f2711ed718&#45;&gt;dir_bcbb2cf9a3d3d83e5515c82071a07177</title>
<path fill="none" stroke="black" d="M448.921,-359.697C441.608,-351.305 432.69,-341.07 424.665,-331.861"/>
<polygon fill="black" stroke="black" points="427.114,-329.344 417.905,-324.104 421.836,-333.943 427.114,-329.344"/>
<g id="a_edge11&#45;headlabel"><a xlink:href="dir_000439_000035.html" target="_top" xlink:title="100">
<text text-anchor="middle" x="431.616" y="-327.689" font-family="Helvetica,sans-Serif" font-size="10.00">100</text>
</a>
</g>
</g>
<!-- dir_40b4a122691869ee86baf7f2711ed718&#45;&gt;dir_2171f7ec022c5423887b07c69b2f5b48 -->
<g id="edge12" class="edge"><title>dir_40b4a122691869ee86baf7f2711ed718&#45;&gt;dir_2171f7ec022c5423887b07c69b2f5b48</title>
<path fill="none" stroke="black" d="M472.121,-359.879C479.667,-341.407 488.313,-311.487 478,-288 458.234,-242.986 413.372,-207.059 380.558,-185.477"/>
<polygon fill="black" stroke="black" points="382.384,-182.49 372.076,-180.039 378.605,-188.383 382.384,-182.49"/>
<g id="a_edge12&#45;headlabel"><a xlink:href="dir_000439_000054.html" target="_top" xlink:title="77">
<text text-anchor="middle" x="386.942" y="-179.54" font-family="Helvetica,sans-Serif" font-size="10.00">77</text>
</a>
</g>
</g>
<!-- dir_4ab6b4cc6a7edbff49100e9123df213f&#45;&gt;dir_2171f7ec022c5423887b07c69b2f5b48 -->
<g id="edge24" class="edge"><title>dir_4ab6b4cc6a7edbff49100e9123df213f&#45;&gt;dir_2171f7ec022c5423887b07c69b2f5b48</title>
<path fill="none" stroke="black" d="M288.524,-36.2935C295.292,-54.651 303.498,-84.2341 315,-108 319.484,-117.265 325.429,-126.756 330.769,-135.1"/>
<polygon fill="black" stroke="black" points="327.893,-137.099 336.228,-143.639 333.791,-133.328 327.893,-137.099"/>
<g id="a_edge24&#45;headlabel"><a xlink:href="dir_000016_000054.html" target="_top" xlink:title="3">
<text text-anchor="middle" x="323.565" y="-133.099" font-family="Helvetica,sans-Serif" font-size="10.00">3</text>
</a>
</g>
</g>
<!-- dir_37c90836491b695b472bf98d1be8336b&#45;&gt;dir_4ab6b4cc6a7edbff49100e9123df213f -->
<g id="edge29" class="edge"><title>dir_37c90836491b695b472bf98d1be8336b&#45;&gt;dir_4ab6b4cc6a7edbff49100e9123df213f</title>
<path fill="none" stroke="black" d="M326.18,-71.6966C318.43,-63.2198 308.961,-52.8636 300.476,-43.5826"/>
<polygon fill="black" stroke="black" points="302.969,-41.1229 293.638,-36.1043 297.803,-45.8464 302.969,-41.1229"/>
<g id="a_edge29&#45;headlabel"><a xlink:href="dir_000157_000016.html" target="_top" xlink:title="9">
<text text-anchor="middle" x="307.49" y="-39.36" font-family="Helvetica,sans-Serif" font-size="10.00">9</text>
</a>
</g>
</g>
<!-- dir_37c90836491b695b472bf98d1be8336b&#45;&gt;dir_2171f7ec022c5423887b07c69b2f5b48 -->
<g id="edge30" class="edge"><title>dir_37c90836491b695b472bf98d1be8336b&#45;&gt;dir_2171f7ec022c5423887b07c69b2f5b48</title>
<path fill="none" stroke="black" d="M347.895,-108.104C348.701,-115.791 348.937,-125.054 348.604,-133.665"/>
<polygon fill="black" stroke="black" points="345.109,-133.48 347.916,-143.697 352.092,-133.96 345.109,-133.48"/>
<g id="a_edge30&#45;headlabel"><a xlink:href="dir_000157_000054.html" target="_top" xlink:title="6">
<text text-anchor="middle" x="342.522" y="-127.2" font-family="Helvetica,sans-Serif" font-size="10.00">6</text>
</a>
</g>
</g>
<!-- dir_8ba487e25de5ee77e05e9dce7582cb98&#45;&gt;dir_2171f7ec022c5423887b07c69b2f5b48 -->
<g id="edge31" class="edge"><title>dir_8ba487e25de5ee77e05e9dce7582cb98&#45;&gt;dir_2171f7ec022c5423887b07c69b2f5b48</title>
<path fill="none" stroke="black" d="M403.813,-108.104C395.527,-116.805 384.378,-127.524 373.779,-137.033"/>
<polygon fill="black" stroke="black" points="371.402,-134.462 366.208,-143.697 376.027,-139.717 371.402,-134.462"/>
<g id="a_edge31&#45;headlabel"><a xlink:href="dir_000000_000054.html" target="_top" xlink:title="8">
<text text-anchor="middle" x="372.225" y="-127.456" font-family="Helvetica,sans-Serif" font-size="10.00">8</text>
</a>
</g>
</g>
<!-- dir_bcbb2cf9a3d3d83e5515c82071a07177&#45;&gt;dir_7f309bec8670bb3fb666e7e061b24659 -->
<g id="edge36" class="edge"><title>dir_bcbb2cf9a3d3d83e5515c82071a07177&#45;&gt;dir_7f309bec8670bb3fb666e7e061b24659</title>
<path fill="none" stroke="black" d="M370.463,-295.267C328.317,-282.659 254.859,-260.684 209.249,-247.04"/>
<polygon fill="black" stroke="black" points="209.988,-243.608 199.404,-244.095 207.981,-250.314 209.988,-243.608"/>
<g id="a_edge36&#45;headlabel"><a xlink:href="dir_000035_000191.html" target="_top" xlink:title="1">
<text text-anchor="middle" x="214.245" y="-239.418" font-family="Helvetica,sans-Serif" font-size="10.00">1</text>
</a>
</g>
</g>
<!-- dir_bcbb2cf9a3d3d83e5515c82071a07177&#45;&gt;dir_4ab6b4cc6a7edbff49100e9123df213f -->
<g id="edge37" class="edge"><title>dir_bcbb2cf9a3d3d83e5515c82071a07177&#45;&gt;dir_4ab6b4cc6a7edbff49100e9123df213f</title>
<path fill="none" stroke="black" d="M414.977,-287.847C442.282,-246.437 503.045,-139.447 453,-72 421.591,-29.6693 357.303,-19.9541 316.003,-18.3532"/>
<polygon fill="black" stroke="black" points="315.859,-14.8487 305.776,-18.1034 315.688,-21.8466 315.859,-14.8487"/>
<g id="a_edge37&#45;headlabel"><a xlink:href="dir_000035_000016.html" target="_top" xlink:title="8">
<text text-anchor="middle" x="319.522" y="-9.59797" font-family="Helvetica,sans-Serif" font-size="10.00">8</text>
</a>
</g>
</g>
<!-- dir_bcbb2cf9a3d3d83e5515c82071a07177&#45;&gt;dir_2171f7ec022c5423887b07c69b2f5b48 -->
<g id="edge38" class="edge"><title>dir_bcbb2cf9a3d3d83e5515c82071a07177&#45;&gt;dir_2171f7ec022c5423887b07c69b2f5b48</title>
<path fill="none" stroke="black" d="M395.642,-287.871C385.154,-263.457 365.81,-218.426 353.442,-189.635"/>
<polygon fill="black" stroke="black" points="356.547,-187.996 349.384,-180.189 350.115,-190.759 356.547,-187.996"/>
<g id="a_edge38&#45;headlabel"><a xlink:href="dir_000035_000054.html" target="_top" xlink:title="46">
<text text-anchor="middle" x="360.575" y="-187.678" font-family="Helvetica,sans-Serif" font-size="10.00">46</text>
</a>
</g>
</g>
<!-- dir_2171f7ec022c5423887b07c69b2f5b48&#45;&gt;dir_4ab6b4cc6a7edbff49100e9123df213f -->
<g id="edge39" class="edge"><title>dir_2171f7ec022c5423887b07c69b2f5b48&#45;&gt;dir_4ab6b4cc6a7edbff49100e9123df213f</title>
<path fill="none" stroke="black" d="M320.375,-143.639C311.922,-133.652 303.105,-120.616 297,-108 287.43,-88.226 280.142,-64.425 276.741,-46.4134"/>
<polygon fill="black" stroke="black" points="280.163,-45.6383 275.17,-36.2935 273.246,-46.7121 280.163,-45.6383"/>
<g id="a_edge39&#45;headlabel"><a xlink:href="dir_000054_000016.html" target="_top" xlink:title="25">
<text text-anchor="middle" x="283.52" y="-46.2549" font-family="Helvetica,sans-Serif" font-size="10.00">25</text>
</a>
</g>
</g>
<!-- dir_2171f7ec022c5423887b07c69b2f5b48&#45;&gt;dir_37c90836491b695b472bf98d1be8336b -->
<g id="edge40" class="edge"><title>dir_2171f7ec022c5423887b07c69b2f5b48&#45;&gt;dir_37c90836491b695b472bf98d1be8336b</title>
<path fill="none" stroke="black" d="M336.084,-143.697C335.289,-135.983 335.062,-126.712 335.405,-118.112"/>
<polygon fill="black" stroke="black" points="338.898,-118.324 336.105,-108.104 331.915,-117.836 338.898,-118.324"/>
<g id="a_edge40&#45;headlabel"><a xlink:href="dir_000054_000157.html" target="_top" xlink:title="1">
<text text-anchor="middle" x="341.48" y="-119.608" font-family="Helvetica,sans-Serif" font-size="10.00">1</text>
</a>
</g>
</g>
<!-- dir_2171f7ec022c5423887b07c69b2f5b48&#45;&gt;dir_8ba487e25de5ee77e05e9dce7582cb98 -->
<g id="edge41" class="edge"><title>dir_2171f7ec022c5423887b07c69b2f5b48&#45;&gt;dir_8ba487e25de5ee77e05e9dce7582cb98</title>
<path fill="none" stroke="black" d="M354.376,-143.697C362.706,-134.965 373.872,-124.24 384.463,-114.75"/>
<polygon fill="black" stroke="black" points="386.823,-117.335 392.023,-108.104 382.202,-112.078 386.823,-117.335"/>
<g id="a_edge41&#45;headlabel"><a xlink:href="dir_000054_000000.html" target="_top" xlink:title="1">
<text text-anchor="middle" x="385.998" y="-119.341" font-family="Helvetica,sans-Serif" font-size="10.00">1</text>
</a>
</g>
</g>
</g>
</svg>
