<?xml version="1.0" encoding="UTF-8" standalone="no"?>
<!DOCTYPE svg PUBLIC "-//W3C//DTD SVG 1.1//EN"
 "http://www.w3.org/Graphics/SVG/1.1/DTD/svg11.dtd">
<!-- Generated by graphviz version 2.36.0 (20140111.2315)
 -->
<!-- Title: /home/travis/build/AliceO2Group/AliceO2/Detectors/MUON/MID Pages: 1 -->
<svg width="396pt" height="375pt"
 viewBox="0.00 0.00 396.00 375.00" xmlns="http://www.w3.org/2000/svg" xmlns:xlink="http://www.w3.org/1999/xlink">
<g id="graph0" class="graph" transform="scale(1 1) rotate(0) translate(4 371)">
<title>/home/travis/build/AliceO2Group/AliceO2/Detectors/MUON/MID</title>
<g id="clust1" class="cluster"><title>clusterdir_1cc233fd3b1202b9dad36810b41b97af</title>
<g id="a_clust1"><a xlink:href="dir_1cc233fd3b1202b9dad36810b41b97af.html" target="_top" xlink:title="MUON">
<polygon fill="#ddddee" stroke="black" points="8,-200 8,-359 326,-359 326,-200 8,-200"/>
<text text-anchor="middle" x="167" y="-347" font-family="Helvetica,sans-Serif" font-size="10.00">MUON</text>
</a>
</g>
</g>
<g id="clust2" class="cluster"><title>clusterdir_9e24c537087392bd208449d0b48c466c</title>
<g id="a_clust2"><a xlink:href="dir_9e24c537087392bd208449d0b48c466c.html" target="_top">
<polygon fill="#eeeeff" stroke="black" points="16,-208 16,-332 318,-332 318,-208 16,-208"/>
</a>
</g>
</g>
<!-- dir_9e24c537087392bd208449d0b48c466c -->
<g id="node1" class="node"><title>dir_9e24c537087392bd208449d0b48c466c</title>
<text text-anchor="middle" x="283" y="-303.5" font-family="Helvetica,sans-Serif" font-size="10.00">MID</text>
</g>
<!-- dir_b5547b1068d53f0f904ee5a2a84992af -->
<g id="node2" class="node"><title>dir_b5547b1068d53f0f904ee5a2a84992af</title>
<g id="a_node2"><a xlink:href="dir_b5547b1068d53f0f904ee5a2a84992af.html" target="_top" xlink:title="Base">
<polygon fill="white" stroke="red" points="278,-252 224,-252 224,-216 278,-216 278,-252"/>
<text text-anchor="middle" x="251" y="-231.5" font-family="Helvetica,sans-Serif" font-size="10.00">Base</text>
</a>
</g>
</g>
<!-- dir_4ab6b4cc6a7edbff49100e9123df213f -->
<g id="node7" class="node"><title>dir_4ab6b4cc6a7edbff49100e9123df213f</title>
<g id="a_node7"><a xlink:href="dir_4ab6b4cc6a7edbff49100e9123df213f.html" target="_top" xlink:title="Common">
<polygon fill="none" stroke="red" points="280.5,-180 225.5,-180 225.5,-144 280.5,-144 280.5,-180"/>
<text text-anchor="middle" x="253" y="-159.5" font-family="Helvetica,sans-Serif" font-size="10.00">Common</text>
</a>
</g>
</g>
<!-- dir_b5547b1068d53f0f904ee5a2a84992af&#45;&gt;dir_4ab6b4cc6a7edbff49100e9123df213f -->
<g id="edge17" class="edge"><title>dir_b5547b1068d53f0f904ee5a2a84992af&#45;&gt;dir_4ab6b4cc6a7edbff49100e9123df213f</title>
<path fill="none" stroke="black" d="M251.494,-215.697C251.715,-207.983 251.98,-198.712 252.225,-190.112"/>
<polygon fill="black" stroke="black" points="255.724,-190.2 252.511,-180.104 248.727,-190 255.724,-190.2"/>
<g id="a_edge17&#45;headlabel"><a xlink:href="dir_000123_000016.html" target="_top" xlink:title="2">
<text text-anchor="middle" x="258.46" y="-191.374" font-family="Helvetica,sans-Serif" font-size="10.00">2</text>
</a>
</g>
</g>
<!-- dir_2171f7ec022c5423887b07c69b2f5b48 -->
<g id="node10" class="node"><title>dir_2171f7ec022c5423887b07c69b2f5b48</title>
<g id="a_node10"><a xlink:href="dir_2171f7ec022c5423887b07c69b2f5b48.html" target="_top" xlink:title="DataFormats">
<polygon fill="none" stroke="red" points="203,-108 129,-108 129,-72 203,-72 203,-108"/>
<text text-anchor="middle" x="166" y="-87.5" font-family="Helvetica,sans-Serif" font-size="10.00">DataFormats</text>
</a>
</g>
</g>
<!-- dir_b5547b1068d53f0f904ee5a2a84992af&#45;&gt;dir_2171f7ec022c5423887b07c69b2f5b48 -->
<g id="edge18" class="edge"><title>dir_b5547b1068d53f0f904ee5a2a84992af&#45;&gt;dir_2171f7ec022c5423887b07c69b2f5b48</title>
<path fill="none" stroke="black" d="M239.013,-215.537C232.1,-205.299 223.35,-192.049 216,-180 203.385,-159.319 189.986,-135.35 180.238,-117.5"/>
<polygon fill="black" stroke="black" points="183.074,-115.389 175.226,-108.273 176.923,-118.73 183.074,-115.389"/>
<g id="a_edge18&#45;headlabel"><a xlink:href="dir_000123_000054.html" target="_top" xlink:title="1">
<text text-anchor="middle" x="187.285" y="-114.693" font-family="Helvetica,sans-Serif" font-size="10.00">1</text>
</a>
</g>
</g>
<!-- dir_754f2fe7806627988f6bd801b7f2fe5b -->
<g id="node3" class="node"><title>dir_754f2fe7806627988f6bd801b7f2fe5b</title>
<g id="a_node3"><a xlink:href="dir_754f2fe7806627988f6bd801b7f2fe5b.html" target="_top" xlink:title="Clustering">
<polygon fill="white" stroke="red" points="85.25,-324 24.75,-324 24.75,-288 85.25,-288 85.25,-324"/>
<text text-anchor="middle" x="55" y="-303.5" font-family="Helvetica,sans-Serif" font-size="10.00">Clustering</text>
</a>
</g>
</g>
<!-- dir_754f2fe7806627988f6bd801b7f2fe5b&#45;&gt;dir_b5547b1068d53f0f904ee5a2a84992af -->
<g id="edge2" class="edge"><title>dir_754f2fe7806627988f6bd801b7f2fe5b&#45;&gt;dir_b5547b1068d53f0f904ee5a2a84992af</title>
<path fill="none" stroke="black" d="M85.437,-291.655C88.6466,-290.37 91.8774,-289.128 95,-288 144.505,-270.116 161.192,-271.696 214.106,-252.055"/>
<polygon fill="black" stroke="black" points="215.56,-255.247 223.667,-248.425 213.075,-248.702 215.56,-255.247"/>
<g id="a_edge2&#45;headlabel"><a xlink:href="dir_000345_000123.html" target="_top" xlink:title="4">
<text text-anchor="middle" x="213.207" y="-256.677" font-family="Helvetica,sans-Serif" font-size="10.00">4</text>
</a>
</g>
</g>
<!-- dir_754f2fe7806627988f6bd801b7f2fe5b&#45;&gt;dir_2171f7ec022c5423887b07c69b2f5b48 -->
<g id="edge3" class="edge"><title>dir_754f2fe7806627988f6bd801b7f2fe5b&#45;&gt;dir_2171f7ec022c5423887b07c69b2f5b48</title>
<path fill="none" stroke="black" d="M49.5902,-287.827C40.8172,-256.449 27.1978,-188.953 56,-144 70.0594,-122.057 95.9832,-108.967 119.134,-101.287"/>
<polygon fill="black" stroke="black" points="120.305,-104.589 128.843,-98.3164 118.257,-97.8949 120.305,-104.589"/>
<g id="a_edge3&#45;headlabel"><a xlink:href="dir_000345_000054.html" target="_top" xlink:title="5">
<text text-anchor="middle" x="117.698" y="-105.855" font-family="Helvetica,sans-Serif" font-size="10.00">5</text>
</a>
</g>
</g>
<!-- dir_2810eaf0225063d73e08d8eeeb8a37b8 -->
<g id="node4" class="node"><title>dir_2810eaf0225063d73e08d8eeeb8a37b8</title>
<g id="a_node4"><a xlink:href="dir_2810eaf0225063d73e08d8eeeb8a37b8.html" target="_top" xlink:title="Simulation">
<polygon fill="white" stroke="red" points="237.5,-324 176.5,-324 176.5,-288 237.5,-288 237.5,-324"/>
<text text-anchor="middle" x="207" y="-303.5" font-family="Helvetica,sans-Serif" font-size="10.00">Simulation</text>
</a>
</g>
</g>
<!-- dir_2810eaf0225063d73e08d8eeeb8a37b8&#45;&gt;dir_b5547b1068d53f0f904ee5a2a84992af -->
<g id="edge9" class="edge"><title>dir_2810eaf0225063d73e08d8eeeb8a37b8&#45;&gt;dir_b5547b1068d53f0f904ee5a2a84992af</title>
<path fill="none" stroke="black" d="M217.876,-287.697C222.992,-279.559 229.195,-269.689 234.845,-260.701"/>
<polygon fill="black" stroke="black" points="237.89,-262.433 240.249,-252.104 231.964,-258.708 237.89,-262.433"/>
<g id="a_edge9&#45;headlabel"><a xlink:href="dir_000180_000123.html" target="_top" xlink:title="3">
<text text-anchor="middle" x="238.381" y="-264.488" font-family="Helvetica,sans-Serif" font-size="10.00">3</text>
</a>
</g>
</g>
<!-- dir_2810eaf0225063d73e08d8eeeb8a37b8&#45;&gt;dir_4ab6b4cc6a7edbff49100e9123df213f -->
<g id="edge6" class="edge"><title>dir_2810eaf0225063d73e08d8eeeb8a37b8&#45;&gt;dir_4ab6b4cc6a7edbff49100e9123df213f</title>
<path fill="none" stroke="black" d="M237.563,-288.788C257.738,-277.375 281.443,-262.348 287,-252 297.935,-231.639 295.391,-221.534 287,-200 285.352,-195.771 282.969,-191.732 280.219,-187.981"/>
<polygon fill="black" stroke="black" points="282.859,-185.683 273.752,-180.268 277.495,-190.18 282.859,-185.683"/>
<g id="a_edge6&#45;headlabel"><a xlink:href="dir_000180_000016.html" target="_top" xlink:title="2">
<text text-anchor="middle" x="287.344" y="-184.113" font-family="Helvetica,sans-Serif" font-size="10.00">2</text>
</a>
</g>
</g>
<!-- dir_37c90836491b695b472bf98d1be8336b -->
<g id="node8" class="node"><title>dir_37c90836491b695b472bf98d1be8336b</title>
<g id="a_node8"><a xlink:href="dir_37c90836491b695b472bf98d1be8336b.html" target="_top" xlink:title="Base">
<polygon fill="none" stroke="red" points="193,-36 139,-36 139,-0 193,-0 193,-36"/>
<text text-anchor="middle" x="166" y="-15.5" font-family="Helvetica,sans-Serif" font-size="10.00">Base</text>
</a>
</g>
</g>
<!-- dir_2810eaf0225063d73e08d8eeeb8a37b8&#45;&gt;dir_37c90836491b695b472bf98d1be8336b -->
<g id="edge7" class="edge"><title>dir_2810eaf0225063d73e08d8eeeb8a37b8&#45;&gt;dir_37c90836491b695b472bf98d1be8336b</title>
<path fill="none" stroke="black" d="M176.403,-291.621C143.774,-277.209 96.4261,-255.818 94,-252 50.646,-183.78 82.6819,-143.7 120,-72 125.34,-61.7396 133.046,-51.8003 140.628,-43.355"/>
<polygon fill="black" stroke="black" points="143.191,-45.7384 147.486,-36.0528 138.089,-40.9466 143.191,-45.7384"/>
<g id="a_edge7&#45;headlabel"><a xlink:href="dir_000180_000157.html" target="_top" xlink:title="3">
<text text-anchor="middle" x="142.801" y="-47.8024" font-family="Helvetica,sans-Serif" font-size="10.00">3</text>
</a>
</g>
</g>
<!-- dir_f01815b857f9009bea48e2cb39492245 -->
<g id="node9" class="node"><title>dir_f01815b857f9009bea48e2cb39492245</title>
<g id="a_node9"><a xlink:href="dir_f01815b857f9009bea48e2cb39492245.html" target="_top" xlink:title="Passive">
<polygon fill="none" stroke="red" points="388,-252 334,-252 334,-216 388,-216 388,-252"/>
<text text-anchor="middle" x="361" y="-231.5" font-family="Helvetica,sans-Serif" font-size="10.00">Passive</text>
</a>
</g>
</g>
<!-- dir_2810eaf0225063d73e08d8eeeb8a37b8&#45;&gt;dir_f01815b857f9009bea48e2cb39492245 -->
<g id="edge8" class="edge"><title>dir_2810eaf0225063d73e08d8eeeb8a37b8&#45;&gt;dir_f01815b857f9009bea48e2cb39492245</title>
<path fill="none" stroke="black" d="M237.794,-291.003C262.81,-279.632 298.151,-263.568 324.572,-251.558"/>
<polygon fill="black" stroke="black" points="326.211,-254.658 333.867,-247.333 323.315,-248.285 326.211,-254.658"/>
<g id="a_edge8&#45;headlabel"><a xlink:href="dir_000180_000356.html" target="_top" xlink:title="1">
<text text-anchor="middle" x="324.114" y="-256.23" font-family="Helvetica,sans-Serif" font-size="10.00">1</text>
</a>
</g>
</g>
<!-- dir_2810eaf0225063d73e08d8eeeb8a37b8&#45;&gt;dir_2171f7ec022c5423887b07c69b2f5b48 -->
<g id="edge10" class="edge"><title>dir_2810eaf0225063d73e08d8eeeb8a37b8&#45;&gt;dir_2171f7ec022c5423887b07c69b2f5b48</title>
<path fill="none" stroke="black" d="M176.28,-290.695C148.391,-277.398 111.014,-258.671 107,-252 80.2563,-207.558 117.246,-149.032 143.604,-116.18"/>
<polygon fill="black" stroke="black" points="146.357,-118.343 150.03,-108.405 140.961,-113.883 146.357,-118.343"/>
<g id="a_edge10&#45;headlabel"><a xlink:href="dir_000180_000054.html" target="_top" xlink:title="4">
<text text-anchor="middle" x="146.255" y="-120.422" font-family="Helvetica,sans-Serif" font-size="10.00">4</text>
</a>
</g>
</g>
<!-- dir_3ffb816f6d71c6665c34f0fe3ab9978a -->
<g id="node5" class="node"><title>dir_3ffb816f6d71c6665c34f0fe3ab9978a</title>
<g id="a_node5"><a xlink:href="dir_3ffb816f6d71c6665c34f0fe3ab9978a.html" target="_top" xlink:title="TestingSimTools">
<polygon fill="white" stroke="red" points="206,-252 116,-252 116,-216 206,-216 206,-252"/>
<text text-anchor="middle" x="161" y="-231.5" font-family="Helvetica,sans-Serif" font-size="10.00">TestingSimTools</text>
</a>
</g>
</g>
<!-- dir_3ffb816f6d71c6665c34f0fe3ab9978a&#45;&gt;dir_2171f7ec022c5423887b07c69b2f5b48 -->
<g id="edge14" class="edge"><title>dir_3ffb816f6d71c6665c34f0fe3ab9978a&#45;&gt;dir_2171f7ec022c5423887b07c69b2f5b48</title>
<path fill="none" stroke="black" d="M161.603,-215.871C162.455,-191.67 164.021,-147.211 165.035,-118.393"/>
<polygon fill="black" stroke="black" points="168.541,-118.306 165.395,-108.189 161.545,-118.06 168.541,-118.306"/>
<g id="a_edge14&#45;headlabel"><a xlink:href="dir_000351_000054.html" target="_top" xlink:title="1">
<text text-anchor="middle" x="171.252" y="-119.499" font-family="Helvetica,sans-Serif" font-size="10.00">1</text>
</a>
</g>
</g>
<!-- dir_c6781640d5720511e35c6e7f87460ee7 -->
<g id="node6" class="node"><title>dir_c6781640d5720511e35c6e7f87460ee7</title>
<g id="a_node6"><a xlink:href="dir_c6781640d5720511e35c6e7f87460ee7.html" target="_top" xlink:title="Tracking">
<polygon fill="white" stroke="red" points="158,-324 104,-324 104,-288 158,-288 158,-324"/>
<text text-anchor="middle" x="131" y="-303.5" font-family="Helvetica,sans-Serif" font-size="10.00">Tracking</text>
</a>
</g>
</g>
<!-- dir_c6781640d5720511e35c6e7f87460ee7&#45;&gt;dir_b5547b1068d53f0f904ee5a2a84992af -->
<g id="edge12" class="edge"><title>dir_c6781640d5720511e35c6e7f87460ee7&#45;&gt;dir_b5547b1068d53f0f904ee5a2a84992af</title>
<path fill="none" stroke="black" d="M158.23,-289.116C175.107,-279.271 196.974,-266.515 215.239,-255.861"/>
<polygon fill="black" stroke="black" points="217.004,-258.883 223.878,-250.821 213.477,-252.837 217.004,-258.883"/>
<g id="a_edge12&#45;headlabel"><a xlink:href="dir_000303_000123.html" target="_top" xlink:title="8">
<text text-anchor="middle" x="215.329" y="-260.647" font-family="Helvetica,sans-Serif" font-size="10.00">8</text>
</a>
</g>
</g>
<!-- dir_c6781640d5720511e35c6e7f87460ee7&#45;&gt;dir_3ffb816f6d71c6665c34f0fe3ab9978a -->
<g id="edge11" class="edge"><title>dir_c6781640d5720511e35c6e7f87460ee7&#45;&gt;dir_3ffb816f6d71c6665c34f0fe3ab9978a</title>
<path fill="none" stroke="black" d="M138.416,-287.697C141.794,-279.813 145.87,-270.304 149.623,-261.546"/>
<polygon fill="black" stroke="black" points="152.947,-262.675 153.67,-252.104 146.513,-259.917 152.947,-262.675"/>
<g id="a_edge11&#45;headlabel"><a xlink:href="dir_000303_000351.html" target="_top" xlink:title="2">
<text text-anchor="middle" x="154.141" y="-264.597" font-family="Helvetica,sans-Serif" font-size="10.00">2</text>
</a>
</g>
</g>
<!-- dir_c6781640d5720511e35c6e7f87460ee7&#45;&gt;dir_2171f7ec022c5423887b07c69b2f5b48 -->
<g id="edge13" class="edge"><title>dir_c6781640d5720511e35c6e7f87460ee7&#45;&gt;dir_2171f7ec022c5423887b07c69b2f5b48</title>
<path fill="none" stroke="black" d="M104.42,-287.912C92.7633,-278.81 80.3146,-266.494 74,-252 54.8283,-207.995 49.9803,-185.558 74,-144 83.962,-126.764 101.893,-114.638 119.295,-106.378"/>
<polygon fill="black" stroke="black" points="121.107,-109.405 128.855,-102.179 118.292,-102.996 121.107,-109.405"/>
<g id="a_edge13&#45;headlabel"><a xlink:href="dir_000303_000054.html" target="_top" xlink:title="7">
<text text-anchor="middle" x="118.958" y="-110.95" font-family="Helvetica,sans-Serif" font-size="10.00">7</text>
</a>
</g>
</g>
<!-- dir_4ab6b4cc6a7edbff49100e9123df213f&#45;&gt;dir_2171f7ec022c5423887b07c69b2f5b48 -->
<g id="edge1" class="edge"><title>dir_4ab6b4cc6a7edbff49100e9123df213f&#45;&gt;dir_2171f7ec022c5423887b07c69b2f5b48</title>
<path fill="none" stroke="black" d="M225.579,-143.697C213.826,-134.965 200.325,-124.24 189.088,-114.75"/>
<polygon fill="black" stroke="black" points="191.227,-111.973 181.363,-108.104 186.661,-117.279 191.227,-111.973"/>
<g id="a_edge1&#45;headlabel"><a xlink:href="dir_000016_000054.html" target="_top" xlink:title="3">
<text text-anchor="middle" x="195.803" y="-109.665" font-family="Helvetica,sans-Serif" font-size="10.00">3</text>
</a>
</g>
</g>
<!-- dir_37c90836491b695b472bf98d1be8336b&#45;&gt;dir_4ab6b4cc6a7edbff49100e9123df213f -->
<g id="edge4" class="edge"><title>dir_37c90836491b695b472bf98d1be8336b&#45;&gt;dir_4ab6b4cc6a7edbff49100e9123df213f</title>
<path fill="none" stroke="black" d="M183.098,-36.1433C192.4,-46.0619 203.674,-59.1026 212,-72 224.768,-91.7774 235.712,-116.177 243.073,-134.424"/>
<polygon fill="black" stroke="black" points="239.867,-135.834 246.783,-143.86 246.381,-133.273 239.867,-135.834"/>
<g id="a_edge4&#45;headlabel"><a xlink:href="dir_000157_000016.html" target="_top" xlink:title="9">
<text text-anchor="middle" x="235.909" y="-131.028" font-family="Helvetica,sans-Serif" font-size="10.00">9</text>
</a>
</g>
</g>
<!-- dir_37c90836491b695b472bf98d1be8336b&#45;&gt;dir_2171f7ec022c5423887b07c69b2f5b48 -->
<g id="edge5" class="edge"><title>dir_37c90836491b695b472bf98d1be8336b&#45;&gt;dir_2171f7ec022c5423887b07c69b2f5b48</title>
<path fill="none" stroke="black" d="M171.895,-36.1043C172.701,-43.7913 172.937,-53.0537 172.604,-61.6651"/>
<polygon fill="black" stroke="black" points="169.109,-61.4805 171.916,-71.6966 176.092,-61.9597 169.109,-61.4805"/>
<g id="a_edge5&#45;headlabel"><a xlink:href="dir_000157_000054.html" target="_top" xlink:title="6">
<text text-anchor="middle" x="166.522" y="-55.2" font-family="Helvetica,sans-Serif" font-size="10.00">6</text>
</a>
</g>
</g>
<!-- dir_f01815b857f9009bea48e2cb39492245&#45;&gt;dir_4ab6b4cc6a7edbff49100e9123df213f -->
<g id="edge15" class="edge"><title>dir_f01815b857f9009bea48e2cb39492245&#45;&gt;dir_4ab6b4cc6a7edbff49100e9123df213f</title>
<path fill="none" stroke="black" d="M342.195,-215.713C335.984,-210.383 328.894,-204.689 322,-200 311.916,-193.142 300.425,-186.546 289.752,-180.872"/>
<polygon fill="black" stroke="black" points="291.127,-177.642 280.639,-176.138 287.9,-183.854 291.127,-177.642"/>
<g id="a_edge15&#45;headlabel"><a xlink:href="dir_000356_000016.html" target="_top" xlink:title="4">
<text text-anchor="middle" x="295.626" y="-174.279" font-family="Helvetica,sans-Serif" font-size="10.00">4</text>
</a>
</g>
</g>
<!-- dir_f01815b857f9009bea48e2cb39492245&#45;&gt;dir_37c90836491b695b472bf98d1be8336b -->
<g id="edge16" class="edge"><title>dir_f01815b857f9009bea48e2cb39492245&#45;&gt;dir_37c90836491b695b472bf98d1be8336b</title>
<path fill="none" stroke="black" d="M349.896,-215.837C329.517,-185.051 283.83,-119.253 236,-72 225.18,-61.3104 212.16,-50.902 200.299,-42.1795"/>
<polygon fill="black" stroke="black" points="202.076,-39.1465 191.915,-36.1462 197.988,-44.8282 202.076,-39.1465"/>
<g id="a_edge16&#45;headlabel"><a xlink:href="dir_000356_000157.html" target="_top" xlink:title="16">
<text text-anchor="middle" x="206.653" y="-36.4415" font-family="Helvetica,sans-Serif" font-size="10.00">16</text>
</a>
</g>
</g>
<!-- dir_2171f7ec022c5423887b07c69b2f5b48&#45;&gt;dir_4ab6b4cc6a7edbff49100e9123df213f -->
<g id="edge19" class="edge"><title>dir_2171f7ec022c5423887b07c69b2f5b48&#45;&gt;dir_4ab6b4cc6a7edbff49100e9123df213f</title>
<path fill="none" stroke="black" d="M193.153,-108.104C204.879,-116.805 218.383,-127.524 229.655,-137.033"/>
<polygon fill="black" stroke="black" points="227.544,-139.834 237.41,-143.697 232.106,-134.525 227.544,-139.834"/>
<g id="a_edge19&#45;headlabel"><a xlink:href="dir_000054_000016.html" target="_top" xlink:title="25">
<text text-anchor="middle" x="222.968" y="-137.145" font-family="Helvetica,sans-Serif" font-size="10.00">25</text>
</a>
</g>
</g>
<!-- dir_2171f7ec022c5423887b07c69b2f5b48&#45;&gt;dir_37c90836491b695b472bf98d1be8336b -->
<g id="edge20" class="edge"><title>dir_2171f7ec022c5423887b07c69b2f5b48&#45;&gt;dir_37c90836491b695b472bf98d1be8336b</title>
<path fill="none" stroke="black" d="M160.084,-71.6966C159.289,-63.9827 159.062,-54.7125 159.405,-46.1124"/>
<polygon fill="black" stroke="black" points="162.898,-46.3243 160.105,-36.1043 155.915,-45.8356 162.898,-46.3243"/>
<g id="a_edge20&#45;headlabel"><a xlink:href="dir_000054_000157.html" target="_top" xlink:title="1">
<text text-anchor="middle" x="165.48" y="-47.6083" font-family="Helvetica,sans-Serif" font-size="10.00">1</text>
</a>
</g>
</g>
</g>
</svg>
