<?xml version="1.0" encoding="UTF-8" standalone="no"?>
<!DOCTYPE svg PUBLIC "-//W3C//DTD SVG 1.1//EN"
 "http://www.w3.org/Graphics/SVG/1.1/DTD/svg11.dtd">
<!-- Generated by graphviz version 2.36.0 (20140111.2315)
 -->
<!-- Title: /home/travis/build/AliceO2Group/AliceO2/Detectors/ITSMFT/common Pages: 1 -->
<svg width="299pt" height="375pt"
 viewBox="0.00 0.00 298.88 375.00" xmlns="http://www.w3.org/2000/svg" xmlns:xlink="http://www.w3.org/1999/xlink">
<g id="graph0" class="graph" transform="scale(1 1) rotate(0) translate(4 371)">
<title>/home/travis/build/AliceO2Group/AliceO2/Detectors/ITSMFT/common</title>
<g id="clust1" class="cluster"><title>clusterdir_1306292b77b40360479b729ac9ee7efe</title>
<g id="a_clust1"><a xlink:href="dir_1306292b77b40360479b729ac9ee7efe.html" target="_top" xlink:title="ITSMFT">
<polygon fill="#ddddee" stroke="black" points="20.8827,-200 20.8827,-359 282.883,-359 282.883,-200 20.8827,-200"/>
<text text-anchor="middle" x="151.883" y="-347" font-family="Helvetica,sans-Serif" font-size="10.00">ITSMFT</text>
</a>
</g>
</g>
<g id="clust2" class="cluster"><title>clusterdir_85bf31a2e8d306e7598ffcb73f8df6bf</title>
<g id="a_clust2"><a xlink:href="dir_85bf31a2e8d306e7598ffcb73f8df6bf.html" target="_top">
<polygon fill="#eeeeff" stroke="black" points="28.8827,-208 28.8827,-332 274.883,-332 274.883,-208 28.8827,-208"/>
</a>
</g>
</g>
<!-- dir_85bf31a2e8d306e7598ffcb73f8df6bf -->
<g id="node1" class="node"><title>dir_85bf31a2e8d306e7598ffcb73f8df6bf</title>
<text text-anchor="middle" x="239.883" y="-303.5" font-family="Helvetica,sans-Serif" font-size="10.00">common</text>
</g>
<!-- dir_7c9998090bca7c4aa89c05dd66fe73f5 -->
<g id="node2" class="node"><title>dir_7c9998090bca7c4aa89c05dd66fe73f5</title>
<g id="a_node2"><a xlink:href="dir_7c9998090bca7c4aa89c05dd66fe73f5.html" target="_top" xlink:title="base">
<polygon fill="white" stroke="red" points="102.883,-252 48.8827,-252 48.8827,-216 102.883,-216 102.883,-252"/>
<text text-anchor="middle" x="75.8827" y="-231.5" font-family="Helvetica,sans-Serif" font-size="10.00">base</text>
</a>
</g>
</g>
<!-- dir_4ab6b4cc6a7edbff49100e9123df213f -->
<g id="node5" class="node"><title>dir_4ab6b4cc6a7edbff49100e9123df213f</title>
<g id="a_node5"><a xlink:href="dir_4ab6b4cc6a7edbff49100e9123df213f.html" target="_top" xlink:title="Common">
<polygon fill="none" stroke="red" points="64.3827,-180 9.38272,-180 9.38272,-144 64.3827,-144 64.3827,-180"/>
<text text-anchor="middle" x="36.8827" y="-159.5" font-family="Helvetica,sans-Serif" font-size="10.00">Common</text>
</a>
</g>
</g>
<!-- dir_7c9998090bca7c4aa89c05dd66fe73f5&#45;&gt;dir_4ab6b4cc6a7edbff49100e9123df213f -->
<g id="edge7" class="edge"><title>dir_7c9998090bca7c4aa89c05dd66fe73f5&#45;&gt;dir_4ab6b4cc6a7edbff49100e9123df213f</title>
<path fill="none" stroke="black" d="M66.2423,-215.697C61.7556,-207.644 56.3239,-197.894 51.3586,-188.982"/>
<polygon fill="black" stroke="black" points="54.3368,-187.137 46.4123,-180.104 48.2219,-190.544 54.3368,-187.137"/>
<g id="a_edge7&#45;headlabel"><a xlink:href="dir_000222_000016.html" target="_top" xlink:title="1">
<text text-anchor="middle" x="58.5666" y="-186.395" font-family="Helvetica,sans-Serif" font-size="10.00">1</text>
</a>
</g>
</g>
<!-- dir_2171f7ec022c5423887b07c69b2f5b48 -->
<g id="node7" class="node"><title>dir_2171f7ec022c5423887b07c69b2f5b48</title>
<g id="a_node7"><a xlink:href="dir_2171f7ec022c5423887b07c69b2f5b48.html" target="_top" xlink:title="DataFormats">
<polygon fill="none" stroke="red" points="138.883,-108 64.8827,-108 64.8827,-72 138.883,-72 138.883,-108"/>
<text text-anchor="middle" x="101.883" y="-87.5" font-family="Helvetica,sans-Serif" font-size="10.00">DataFormats</text>
</a>
</g>
</g>
<!-- dir_7c9998090bca7c4aa89c05dd66fe73f5&#45;&gt;dir_2171f7ec022c5423887b07c69b2f5b48 -->
<g id="edge8" class="edge"><title>dir_7c9998090bca7c4aa89c05dd66fe73f5&#45;&gt;dir_2171f7ec022c5423887b07c69b2f5b48</title>
<path fill="none" stroke="black" d="M79.0189,-215.871C83.4501,-191.67 91.5906,-147.211 96.8671,-118.393"/>
<polygon fill="black" stroke="black" points="100.377,-118.656 98.7354,-108.189 93.4915,-117.395 100.377,-118.656"/>
<g id="a_edge8&#45;headlabel"><a xlink:href="dir_000222_000054.html" target="_top" xlink:title="1">
<text text-anchor="middle" x="102.523" y="-120.203" font-family="Helvetica,sans-Serif" font-size="10.00">1</text>
</a>
</g>
</g>
<!-- dir_2174d8cbbd82d5c404dd04814f845a3a -->
<g id="node3" class="node"><title>dir_2174d8cbbd82d5c404dd04814f845a3a</title>
<g id="a_node3"><a xlink:href="dir_2174d8cbbd82d5c404dd04814f845a3a.html" target="_top" xlink:title="reconstruction">
<polygon fill="white" stroke="red" points="114.883,-324 36.8827,-324 36.8827,-288 114.883,-288 114.883,-324"/>
<text text-anchor="middle" x="75.8827" y="-303.5" font-family="Helvetica,sans-Serif" font-size="10.00">reconstruction</text>
</a>
</g>
</g>
<!-- dir_2174d8cbbd82d5c404dd04814f845a3a&#45;&gt;dir_7c9998090bca7c4aa89c05dd66fe73f5 -->
<g id="edge2" class="edge"><title>dir_2174d8cbbd82d5c404dd04814f845a3a&#45;&gt;dir_7c9998090bca7c4aa89c05dd66fe73f5</title>
<path fill="none" stroke="black" d="M75.8827,-287.697C75.8827,-279.983 75.8827,-270.712 75.8827,-262.112"/>
<polygon fill="black" stroke="black" points="79.3828,-262.104 75.8827,-252.104 72.3828,-262.104 79.3828,-262.104"/>
<g id="a_edge2&#45;headlabel"><a xlink:href="dir_000273_000222.html" target="_top" xlink:title="8">
<text text-anchor="middle" x="82.222" y="-263.199" font-family="Helvetica,sans-Serif" font-size="10.00">8</text>
</a>
</g>
</g>
<!-- dir_2174d8cbbd82d5c404dd04814f845a3a&#45;&gt;dir_4ab6b4cc6a7edbff49100e9123df213f -->
<g id="edge1" class="edge"><title>dir_2174d8cbbd82d5c404dd04814f845a3a&#45;&gt;dir_4ab6b4cc6a7edbff49100e9123df213f</title>
<path fill="none" stroke="black" d="M42.0467,-287.961C28.5034,-279.216 14.3615,-267.175 6.88272,-252 -3.33392,-231.27 -0.838682,-221.783 6.88272,-200 8.31253,-195.966 10.3902,-192.051 12.7954,-188.372"/>
<polygon fill="black" stroke="black" points="15.6678,-190.375 18.851,-180.27 10.0608,-186.185 15.6678,-190.375"/>
<g id="a_edge1&#45;headlabel"><a xlink:href="dir_000273_000016.html" target="_top" xlink:title="2">
<text text-anchor="middle" x="15.7901" y="-192.454" font-family="Helvetica,sans-Serif" font-size="10.00">2</text>
</a>
</g>
</g>
<!-- dir_2174d8cbbd82d5c404dd04814f845a3a&#45;&gt;dir_2171f7ec022c5423887b07c69b2f5b48 -->
<g id="edge3" class="edge"><title>dir_2174d8cbbd82d5c404dd04814f845a3a&#45;&gt;dir_2171f7ec022c5423887b07c69b2f5b48</title>
<path fill="none" stroke="black" d="M91.4926,-287.774C99.2557,-278.03 107.829,-265.184 111.883,-252 125.847,-206.59 116.913,-150.665 109.296,-118.101"/>
<polygon fill="black" stroke="black" points="112.694,-117.262 106.9,-108.392 105.898,-118.939 112.694,-117.262"/>
<g id="a_edge3&#45;headlabel"><a xlink:href="dir_000273_000054.html" target="_top" xlink:title="14">
<text text-anchor="middle" x="116.312" y="-117.572" font-family="Helvetica,sans-Serif" font-size="10.00">14</text>
</a>
</g>
</g>
<!-- dir_948e043a2a9c0d8c3d26178da976c005 -->
<g id="node4" class="node"><title>dir_948e043a2a9c0d8c3d26178da976c005</title>
<g id="a_node4"><a xlink:href="dir_948e043a2a9c0d8c3d26178da976c005.html" target="_top" xlink:title="simulation">
<polygon fill="white" stroke="red" points="194.133,-324 133.633,-324 133.633,-288 194.133,-288 194.133,-324"/>
<text text-anchor="middle" x="163.883" y="-303.5" font-family="Helvetica,sans-Serif" font-size="10.00">simulation</text>
</a>
</g>
</g>
<!-- dir_948e043a2a9c0d8c3d26178da976c005&#45;&gt;dir_7c9998090bca7c4aa89c05dd66fe73f5 -->
<g id="edge11" class="edge"><title>dir_948e043a2a9c0d8c3d26178da976c005&#45;&gt;dir_7c9998090bca7c4aa89c05dd66fe73f5</title>
<path fill="none" stroke="black" d="M142.13,-287.697C131.047,-278.881 117.409,-268.032 105.393,-258.474"/>
<polygon fill="black" stroke="black" points="107.39,-255.59 97.3853,-252.104 103.032,-261.069 107.39,-255.59"/>
<g id="a_edge11&#45;headlabel"><a xlink:href="dir_000240_000222.html" target="_top" xlink:title="6">
<text text-anchor="middle" x="111.971" y="-253.106" font-family="Helvetica,sans-Serif" font-size="10.00">6</text>
</a>
</g>
</g>
<!-- dir_948e043a2a9c0d8c3d26178da976c005&#45;&gt;dir_4ab6b4cc6a7edbff49100e9123df213f -->
<g id="edge9" class="edge"><title>dir_948e043a2a9c0d8c3d26178da976c005&#45;&gt;dir_4ab6b4cc6a7edbff49100e9123df213f</title>
<path fill="none" stroke="black" d="M133.605,-292.116C96.9544,-276.513 40.062,-252.262 39.8827,-252 27.6342,-234.107 27.9063,-209.106 30.6563,-190.156"/>
<polygon fill="black" stroke="black" points="34.1457,-190.522 32.4302,-180.066 27.2514,-189.309 34.1457,-190.522"/>
<g id="a_edge9&#45;headlabel"><a xlink:href="dir_000240_000016.html" target="_top" xlink:title="2">
<text text-anchor="middle" x="36.3197" y="-192.053" font-family="Helvetica,sans-Serif" font-size="10.00">2</text>
</a>
</g>
</g>
<!-- dir_37c90836491b695b472bf98d1be8336b -->
<g id="node6" class="node"><title>dir_37c90836491b695b472bf98d1be8336b</title>
<g id="a_node6"><a xlink:href="dir_37c90836491b695b472bf98d1be8336b.html" target="_top" xlink:title="Base">
<polygon fill="none" stroke="red" points="128.883,-36 74.8827,-36 74.8827,-0 128.883,-0 128.883,-36"/>
<text text-anchor="middle" x="101.883" y="-15.5" font-family="Helvetica,sans-Serif" font-size="10.00">Base</text>
</a>
</g>
</g>
<!-- dir_948e043a2a9c0d8c3d26178da976c005&#45;&gt;dir_37c90836491b695b472bf98d1be8336b -->
<g id="edge10" class="edge"><title>dir_948e043a2a9c0d8c3d26178da976c005&#45;&gt;dir_37c90836491b695b472bf98d1be8336b</title>
<path fill="none" stroke="black" d="M166.658,-287.908C172.331,-247.958 182.022,-146.227 147.883,-72 143.176,-61.7663 135.869,-52.0117 128.454,-43.725"/>
<polygon fill="black" stroke="black" points="130.809,-41.1206 121.393,-36.2619 125.724,-45.9315 130.809,-41.1206"/>
<g id="a_edge10&#45;headlabel"><a xlink:href="dir_000240_000157.html" target="_top" xlink:title="2">
<text text-anchor="middle" x="135.341" y="-39.2804" font-family="Helvetica,sans-Serif" font-size="10.00">2</text>
</a>
</g>
</g>
<!-- dir_948e043a2a9c0d8c3d26178da976c005&#45;&gt;dir_2171f7ec022c5423887b07c69b2f5b48 -->
<g id="edge12" class="edge"><title>dir_948e043a2a9c0d8c3d26178da976c005&#45;&gt;dir_2171f7ec022c5423887b07c69b2f5b48</title>
<path fill="none" stroke="black" d="M162.043,-287.616C158.489,-257.584 149.348,-194.363 130.883,-144 127.489,-134.743 122.677,-125.138 117.947,-116.689"/>
<polygon fill="black" stroke="black" points="120.972,-114.929 112.917,-108.046 114.922,-118.45 120.972,-114.929"/>
<g id="a_edge12&#45;headlabel"><a xlink:href="dir_000240_000054.html" target="_top" xlink:title="6">
<text text-anchor="middle" x="125.234" y="-114.107" font-family="Helvetica,sans-Serif" font-size="10.00">6</text>
</a>
</g>
</g>
<!-- dir_4ab6b4cc6a7edbff49100e9123df213f&#45;&gt;dir_2171f7ec022c5423887b07c69b2f5b48 -->
<g id="edge4" class="edge"><title>dir_4ab6b4cc6a7edbff49100e9123df213f&#45;&gt;dir_2171f7ec022c5423887b07c69b2f5b48</title>
<path fill="none" stroke="black" d="M47.0344,-143.697C54.1013,-135.135 63.6496,-124.656 72.8526,-115.304"/>
<polygon fill="black" stroke="black" points="75.4743,-117.634 80.1051,-108.104 70.5425,-112.666 75.4743,-117.634"/>
<g id="a_edge4&#45;headlabel"><a xlink:href="dir_000016_000054.html" target="_top" xlink:title="3">
<text text-anchor="middle" x="74.9237" y="-119.681" font-family="Helvetica,sans-Serif" font-size="10.00">3</text>
</a>
</g>
</g>
<!-- dir_37c90836491b695b472bf98d1be8336b&#45;&gt;dir_4ab6b4cc6a7edbff49100e9123df213f -->
<g id="edge5" class="edge"><title>dir_37c90836491b695b472bf98d1be8336b&#45;&gt;dir_4ab6b4cc6a7edbff49100e9123df213f</title>
<path fill="none" stroke="black" d="M82.7188,-36.4281C73.2739,-46.0375 62.5158,-58.6979 55.8827,-72 46.2169,-91.3839 41.4547,-115.531 39.1161,-133.78"/>
<polygon fill="black" stroke="black" points="35.6329,-133.436 38.0005,-143.763 42.5896,-134.213 35.6329,-133.436"/>
<g id="a_edge5&#45;headlabel"><a xlink:href="dir_000157_000016.html" target="_top" xlink:title="9">
<text text-anchor="middle" x="33.2103" y="-127.048" font-family="Helvetica,sans-Serif" font-size="10.00">9</text>
</a>
</g>
</g>
<!-- dir_37c90836491b695b472bf98d1be8336b&#45;&gt;dir_2171f7ec022c5423887b07c69b2f5b48 -->
<g id="edge6" class="edge"><title>dir_37c90836491b695b472bf98d1be8336b&#45;&gt;dir_2171f7ec022c5423887b07c69b2f5b48</title>
<path fill="none" stroke="black" d="M107.778,-36.1043C108.583,-43.7913 108.82,-53.0537 108.487,-61.6651"/>
<polygon fill="black" stroke="black" points="104.991,-61.4805 107.798,-71.6966 111.975,-61.9597 104.991,-61.4805"/>
<g id="a_edge6&#45;headlabel"><a xlink:href="dir_000157_000054.html" target="_top" xlink:title="6">
<text text-anchor="middle" x="102.405" y="-55.2" font-family="Helvetica,sans-Serif" font-size="10.00">6</text>
</a>
</g>
</g>
<!-- dir_2171f7ec022c5423887b07c69b2f5b48&#45;&gt;dir_4ab6b4cc6a7edbff49100e9123df213f -->
<g id="edge13" class="edge"><title>dir_2171f7ec022c5423887b07c69b2f5b48&#45;&gt;dir_4ab6b4cc6a7edbff49100e9123df213f</title>
<path fill="none" stroke="black" d="M91.8952,-108.104C84.8669,-116.636 75.3354,-127.108 66.1273,-136.478"/>
<polygon fill="black" stroke="black" points="63.4899,-134.164 58.8659,-143.697 68.4252,-139.128 63.4899,-134.164"/>
<g id="a_edge13&#45;headlabel"><a xlink:href="dir_000054_000016.html" target="_top" xlink:title="25">
<text text-anchor="middle" x="64.0373" y="-127.116" font-family="Helvetica,sans-Serif" font-size="10.00">25</text>
</a>
</g>
</g>
<!-- dir_2171f7ec022c5423887b07c69b2f5b48&#45;&gt;dir_37c90836491b695b472bf98d1be8336b -->
<g id="edge14" class="edge"><title>dir_2171f7ec022c5423887b07c69b2f5b48&#45;&gt;dir_37c90836491b695b472bf98d1be8336b</title>
<path fill="none" stroke="black" d="M95.967,-71.6966C95.1713,-63.9827 94.9448,-54.7125 95.2874,-46.1124"/>
<polygon fill="black" stroke="black" points="98.7811,-46.3243 95.9877,-36.1043 91.7981,-45.8356 98.7811,-46.3243"/>
<g id="a_edge14&#45;headlabel"><a xlink:href="dir_000054_000157.html" target="_top" xlink:title="1">
<text text-anchor="middle" x="101.363" y="-47.6083" font-family="Helvetica,sans-Serif" font-size="10.00">1</text>
</a>
</g>
</g>
</g>
</svg>
