<?xml version="1.0" encoding="UTF-8" standalone="no"?>
<!DOCTYPE svg PUBLIC "-//W3C//DTD SVG 1.1//EN"
 "http://www.w3.org/Graphics/SVG/1.1/DTD/svg11.dtd">
<!-- Generated by graphviz version 2.36.0 (20140111.2315)
 -->
<!-- Title: /home/travis/build/AliceO2Group/AliceO2/Detectors/ITSMFT/common/reconstruction/include Pages: 1 -->
<svg width="248pt" height="303pt"
 viewBox="0.00 0.00 248.00 303.00" xmlns="http://www.w3.org/2000/svg" xmlns:xlink="http://www.w3.org/1999/xlink">
<g id="graph0" class="graph" transform="scale(1 1) rotate(0) translate(4 299)">
<title>/home/travis/build/AliceO2Group/AliceO2/Detectors/ITSMFT/common/reconstruction/include</title>
<g id="clust1" class="cluster"><title>clusterdir_2174d8cbbd82d5c404dd04814f845a3a</title>
<g id="a_clust1"><a xlink:href="dir_2174d8cbbd82d5c404dd04814f845a3a.html" target="_top" xlink:title="reconstruction">
<polygon fill="#ddddee" stroke="black" points="8,-200 8,-287 232,-287 232,-200 8,-200"/>
<text text-anchor="middle" x="120" y="-275" font-family="Helvetica,sans-Serif" font-size="10.00">reconstruction</text>
</a>
</g>
</g>
<g id="clust2" class="cluster"><title>clusterdir_5ae603abd45d2d750401429407a7bf9c</title>
<g id="a_clust2"><a xlink:href="dir_5ae603abd45d2d750401429407a7bf9c.html" target="_top">
<polygon fill="#eeeeff" stroke="black" points="16,-208 16,-260 224,-260 224,-208 16,-208"/>
</a>
</g>
</g>
<!-- dir_5ae603abd45d2d750401429407a7bf9c -->
<g id="node1" class="node"><title>dir_5ae603abd45d2d750401429407a7bf9c</title>
<text text-anchor="middle" x="189" y="-231.5" font-family="Helvetica,sans-Serif" font-size="10.00">include</text>
</g>
<!-- dir_c43c53e0c74ce2818e14880b8009424b -->
<g id="node2" class="node"><title>dir_c43c53e0c74ce2818e14880b8009424b</title>
<g id="a_node2"><a xlink:href="dir_c43c53e0c74ce2818e14880b8009424b.html" target="_top" xlink:title="ITSMFTReconstruction">
<polygon fill="white" stroke="black" points="143.25,-252 24.75,-252 24.75,-216 143.25,-216 143.25,-252"/>
<text text-anchor="middle" x="84" y="-231.5" font-family="Helvetica,sans-Serif" font-size="10.00">ITSMFTReconstruction</text>
</a>
</g>
</g>
<!-- dir_4ab6b4cc6a7edbff49100e9123df213f -->
<g id="node3" class="node"><title>dir_4ab6b4cc6a7edbff49100e9123df213f</title>
<g id="a_node3"><a xlink:href="dir_4ab6b4cc6a7edbff49100e9123df213f.html" target="_top" xlink:title="Common">
<polygon fill="none" stroke="red" points="64.5,-108 9.5,-108 9.5,-72 64.5,-72 64.5,-108"/>
<text text-anchor="middle" x="37" y="-87.5" font-family="Helvetica,sans-Serif" font-size="10.00">Common</text>
</a>
</g>
</g>
<!-- dir_c43c53e0c74ce2818e14880b8009424b&#45;&gt;dir_4ab6b4cc6a7edbff49100e9123df213f -->
<g id="edge2" class="edge"><title>dir_c43c53e0c74ce2818e14880b8009424b&#45;&gt;dir_4ab6b4cc6a7edbff49100e9123df213f</title>
<path fill="none" stroke="black" d="M69.0301,-215.555C61.4546,-205.748 52.8565,-192.91 48,-180 40.5654,-160.237 37.9209,-136.436 37.0777,-118.421"/>
<polygon fill="black" stroke="black" points="40.5721,-118.185 36.7626,-108.299 33.5755,-118.403 40.5721,-118.185"/>
<g id="a_edge2&#45;headlabel"><a xlink:href="dir_000275_000016.html" target="_top" xlink:title="1">
<text text-anchor="middle" x="43.5217" y="-119.19" font-family="Helvetica,sans-Serif" font-size="10.00">1</text>
</a>
</g>
</g>
<!-- dir_7c9998090bca7c4aa89c05dd66fe73f5 -->
<g id="node4" class="node"><title>dir_7c9998090bca7c4aa89c05dd66fe73f5</title>
<g id="a_node4"><a xlink:href="dir_7c9998090bca7c4aa89c05dd66fe73f5.html" target="_top" xlink:title="base">
<polygon fill="none" stroke="red" points="111,-180 57,-180 57,-144 111,-144 111,-180"/>
<text text-anchor="middle" x="84" y="-159.5" font-family="Helvetica,sans-Serif" font-size="10.00">base</text>
</a>
</g>
</g>
<!-- dir_c43c53e0c74ce2818e14880b8009424b&#45;&gt;dir_7c9998090bca7c4aa89c05dd66fe73f5 -->
<g id="edge3" class="edge"><title>dir_c43c53e0c74ce2818e14880b8009424b&#45;&gt;dir_7c9998090bca7c4aa89c05dd66fe73f5</title>
<path fill="none" stroke="black" d="M84,-215.697C84,-207.983 84,-198.712 84,-190.112"/>
<polygon fill="black" stroke="black" points="87.5001,-190.104 84,-180.104 80.5001,-190.104 87.5001,-190.104"/>
<g id="a_edge3&#45;headlabel"><a xlink:href="dir_000275_000222.html" target="_top" xlink:title="6">
<text text-anchor="middle" x="90.3393" y="-191.199" font-family="Helvetica,sans-Serif" font-size="10.00">6</text>
</a>
</g>
</g>
<!-- dir_2171f7ec022c5423887b07c69b2f5b48 -->
<g id="node5" class="node"><title>dir_2171f7ec022c5423887b07c69b2f5b48</title>
<g id="a_node5"><a xlink:href="dir_2171f7ec022c5423887b07c69b2f5b48.html" target="_top" xlink:title="DataFormats">
<polygon fill="none" stroke="red" points="102,-36 28,-36 28,-0 102,-0 102,-36"/>
<text text-anchor="middle" x="65" y="-15.5" font-family="Helvetica,sans-Serif" font-size="10.00">DataFormats</text>
</a>
</g>
</g>
<!-- dir_c43c53e0c74ce2818e14880b8009424b&#45;&gt;dir_2171f7ec022c5423887b07c69b2f5b48 -->
<g id="edge4" class="edge"><title>dir_c43c53e0c74ce2818e14880b8009424b&#45;&gt;dir_2171f7ec022c5423887b07c69b2f5b48</title>
<path fill="none" stroke="black" d="M99.6099,-215.774C107.373,-206.03 115.946,-193.184 120,-180 124.703,-164.707 123.138,-159.689 120,-144 112.775,-107.877 94.0603,-69.5566 80.4639,-45.0126"/>
<polygon fill="black" stroke="black" points="83.3342,-42.9786 75.3588,-36.004 77.2441,-46.4298 83.3342,-42.9786"/>
<g id="a_edge4&#45;headlabel"><a xlink:href="dir_000275_000054.html" target="_top" xlink:title="13">
<text text-anchor="middle" x="87.5766" y="-42.2061" font-family="Helvetica,sans-Serif" font-size="10.00">13</text>
</a>
</g>
</g>
<!-- dir_4ab6b4cc6a7edbff49100e9123df213f&#45;&gt;dir_2171f7ec022c5423887b07c69b2f5b48 -->
<g id="edge1" class="edge"><title>dir_4ab6b4cc6a7edbff49100e9123df213f&#45;&gt;dir_2171f7ec022c5423887b07c69b2f5b48</title>
<path fill="none" stroke="black" d="M38.0056,-71.6966C40.371,-63.7284 44.0079,-54.0995 47.9348,-45.2641"/>
<polygon fill="black" stroke="black" points="51.1552,-46.6411 52.2632,-36.1043 44.8262,-43.6503 51.1552,-46.6411"/>
<g id="a_edge1&#45;headlabel"><a xlink:href="dir_000016_000054.html" target="_top" xlink:title="3">
<text text-anchor="middle" x="52.1866" y="-48.6041" font-family="Helvetica,sans-Serif" font-size="10.00">3</text>
</a>
</g>
</g>
<!-- dir_7c9998090bca7c4aa89c05dd66fe73f5&#45;&gt;dir_4ab6b4cc6a7edbff49100e9123df213f -->
<g id="edge5" class="edge"><title>dir_7c9998090bca7c4aa89c05dd66fe73f5&#45;&gt;dir_4ab6b4cc6a7edbff49100e9123df213f</title>
<path fill="none" stroke="black" d="M72.382,-143.697C66.8612,-135.474 60.153,-125.483 54.0682,-116.421"/>
<polygon fill="black" stroke="black" points="56.9645,-114.456 48.4843,-108.104 51.1529,-118.358 56.9645,-114.456"/>
<g id="a_edge5&#45;headlabel"><a xlink:href="dir_000222_000016.html" target="_top" xlink:title="1">
<text text-anchor="middle" x="61.3254" y="-113.357" font-family="Helvetica,sans-Serif" font-size="10.00">1</text>
</a>
</g>
</g>
<!-- dir_7c9998090bca7c4aa89c05dd66fe73f5&#45;&gt;dir_2171f7ec022c5423887b07c69b2f5b48 -->
<g id="edge6" class="edge"><title>dir_7c9998090bca7c4aa89c05dd66fe73f5&#45;&gt;dir_2171f7ec022c5423887b07c69b2f5b48</title>
<path fill="none" stroke="black" d="M82.027,-143.92C79.9234,-125.99 76.4294,-96.9875 73,-72 71.8435,-63.5731 70.4929,-54.407 69.2343,-46.104"/>
<polygon fill="black" stroke="black" points="72.6862,-45.5229 67.7109,-36.1689 65.7671,-46.5839 72.6862,-45.5229"/>
<g id="a_edge6&#45;headlabel"><a xlink:href="dir_000222_000054.html" target="_top" xlink:title="1">
<text text-anchor="middle" x="76.0374" y="-46.1456" font-family="Helvetica,sans-Serif" font-size="10.00">1</text>
</a>
</g>
</g>
<!-- dir_2171f7ec022c5423887b07c69b2f5b48&#45;&gt;dir_4ab6b4cc6a7edbff49100e9123df213f -->
<g id="edge7" class="edge"><title>dir_2171f7ec022c5423887b07c69b2f5b48&#45;&gt;dir_4ab6b4cc6a7edbff49100e9123df213f</title>
<path fill="none" stroke="black" d="M64.0533,-36.1043C61.7092,-44.0447 58.0854,-53.6661 54.1634,-62.5146"/>
<polygon fill="black" stroke="black" points="50.9333,-61.1586 49.8371,-71.6966 57.2656,-64.1423 50.9333,-61.1586"/>
<g id="a_edge7&#45;headlabel"><a xlink:href="dir_000054_000016.html" target="_top" xlink:title="25">
<text text-anchor="middle" x="49.8969" y="-54.1967" font-family="Helvetica,sans-Serif" font-size="10.00">25</text>
</a>
</g>
</g>
</g>
</svg>
