<?xml version="1.0" encoding="UTF-8" standalone="no"?>
<!DOCTYPE svg PUBLIC "-//W3C//DTD SVG 1.1//EN"
 "http://www.w3.org/Graphics/SVG/1.1/DTD/svg11.dtd">
<!-- Generated by graphviz version 2.36.0 (20140111.2315)
 -->
<!-- Title: Graphical Class Hierarchy Pages: 1 -->
<svg width="352pt" height="267pt"
 viewBox="0.00 0.00 352.00 267.00" xmlns="http://www.w3.org/2000/svg" xmlns:xlink="http://www.w3.org/1999/xlink">
<g id="graph0" class="graph" transform="scale(1 1) rotate(0) translate(4 263)">
<title>Graphical Class Hierarchy</title>
<!-- Node1 -->
<g id="node1" class="node"><title>Node1</title>
<g id="a_node1"><a xlink:href="d0/d94/classo2_1_1dataformats_1_1TimeStamp.html" target="_top" xlink:title="o2::dataformats::TimeStamp\&lt; T \&gt;">
<polygon fill="none" stroke="black" points="0.5,-114.5 0.5,-133.5 165.5,-133.5 165.5,-114.5 0.5,-114.5"/>
<text text-anchor="middle" x="83" y="-121.5" font-family="Helvetica,sans-Serif" font-size="10.00">o2::dataformats::TimeStamp&lt; T &gt;</text>
</a>
</g>
</g>
<!-- Node2 -->
<g id="node2" class="node"><title>Node2</title>
<g id="a_node2"><a xlink:href="d3/dbf/classo2_1_1dataformats_1_1TimeStampWithError.html" target="_top" xlink:title="o2::dataformats::TimeStamp\lWithError\&lt; T, E \&gt;">
<polygon fill="none" stroke="black" points="202.5,-229 202.5,-259 343.5,-259 343.5,-229 202.5,-229"/>
<text text-anchor="start" x="210.5" y="-247" font-family="Helvetica,sans-Serif" font-size="10.00">o2::dataformats::TimeStamp</text>
<text text-anchor="middle" x="273" y="-236" font-family="Helvetica,sans-Serif" font-size="10.00">WithError&lt; T, E &gt;</text>
</a>
</g>
</g>
<!-- Node1&#45;&gt;Node2 -->
<g id="edge1" class="edge"><title>Node1&#45;&gt;Node2</title>
<path fill="none" stroke="midnightblue" d="M101.019,-140.826C122.82,-161.603 162.524,-196.897 202,-219 208.643,-222.72 215.942,-226.053 223.242,-228.98"/>
<polygon fill="midnightblue" stroke="midnightblue" points="103.2,-138.066 93.5776,-133.631 98.334,-143.098 103.2,-138.066"/>
</g>
<!-- Node3 -->
<g id="node3" class="node"><title>Node3</title>
<g id="a_node3"><a xlink:href="d5/d5a/classo2_1_1EMCAL_1_1Digit.html" target="_top" xlink:title="EMCAL digit implementation. ">
<polygon fill="none" stroke="black" points="226,-190.5 226,-209.5 320,-209.5 320,-190.5 226,-190.5"/>
<text text-anchor="middle" x="273" y="-197.5" font-family="Helvetica,sans-Serif" font-size="10.00">o2::EMCAL::Digit</text>
</a>
</g>
</g>
<!-- Node1&#45;&gt;Node3 -->
<g id="edge2" class="edge"><title>Node1&#45;&gt;Node3</title>
<path fill="none" stroke="midnightblue" d="M110.131,-138.358C133.645,-150.854 169.407,-168.824 202,-181 211.437,-184.525 221.812,-187.703 231.617,-190.406"/>
<polygon fill="midnightblue" stroke="midnightblue" points="111.616,-135.183 101.15,-133.534 108.304,-141.349 111.616,-135.183"/>
</g>
<!-- Node4 -->
<g id="node4" class="node"><title>Node4</title>
<g id="a_node4"><a xlink:href="db/df9/classo2_1_1fit_1_1Digit.html" target="_top" xlink:title="FIT digit implementation. ">
<polygon fill="none" stroke="black" points="239,-152.5 239,-171.5 307,-171.5 307,-152.5 239,-152.5"/>
<text text-anchor="middle" x="273" y="-159.5" font-family="Helvetica,sans-Serif" font-size="10.00">o2::fit::Digit</text>
</a>
</g>
</g>
<!-- Node1&#45;&gt;Node4 -->
<g id="edge3" class="edge"><title>Node1&#45;&gt;Node4</title>
<path fill="none" stroke="midnightblue" d="M141.535,-135.629C173.413,-142.073 211.913,-149.855 238.795,-155.288"/>
<polygon fill="midnightblue" stroke="midnightblue" points="141.936,-132.14 131.44,-133.589 140.549,-139.001 141.936,-132.14"/>
</g>
<!-- Node5 -->
<g id="node5" class="node"><title>Node5</title>
<g id="a_node5"><a xlink:href="d3/d03/classo2_1_1hmpid_1_1Digit.html" target="_top" xlink:title="HMPID digit implementation. ">
<polygon fill="none" stroke="black" points="230,-114.5 230,-133.5 316,-133.5 316,-114.5 230,-114.5"/>
<text text-anchor="middle" x="273" y="-121.5" font-family="Helvetica,sans-Serif" font-size="10.00">o2::hmpid::Digit</text>
</a>
</g>
</g>
<!-- Node1&#45;&gt;Node5 -->
<g id="edge4" class="edge"><title>Node1&#45;&gt;Node5</title>
<path fill="none" stroke="midnightblue" d="M175.831,-124C194.789,-124 213.864,-124 229.97,-124"/>
<polygon fill="midnightblue" stroke="midnightblue" points="175.639,-120.5 165.639,-124 175.639,-127.5 175.639,-120.5"/>
</g>
<!-- Node6 -->
<g id="node6" class="node"><title>Node6</title>
<g id="a_node6"><a xlink:href="da/d30/classo2_1_1mch_1_1Digit.html" target="_top" xlink:title="o2::mch::Digit">
<polygon fill="none" stroke="black" points="234,-76.5 234,-95.5 312,-95.5 312,-76.5 234,-76.5"/>
<text text-anchor="middle" x="273" y="-83.5" font-family="Helvetica,sans-Serif" font-size="10.00">o2::mch::Digit</text>
</a>
</g>
</g>
<!-- Node1&#45;&gt;Node6 -->
<g id="edge5" class="edge"><title>Node1&#45;&gt;Node6</title>
<path fill="none" stroke="midnightblue" d="M141.355,-112.407C171.319,-106.35 207.174,-99.103 233.736,-93.7342"/>
<polygon fill="midnightblue" stroke="midnightblue" points="140.549,-108.999 131.44,-114.411 141.936,-115.86 140.549,-108.999"/>
</g>
<!-- Node7 -->
<g id="node7" class="node"><title>Node7</title>
<g id="a_node7"><a xlink:href="df/dbc/classo2_1_1phos_1_1Digit.html" target="_top" xlink:title="o2::phos::Digit">
<polygon fill="none" stroke="black" points="233,-38.5 233,-57.5 313,-57.5 313,-38.5 233,-38.5"/>
<text text-anchor="middle" x="273" y="-45.5" font-family="Helvetica,sans-Serif" font-size="10.00">o2::phos::Digit</text>
</a>
</g>
</g>
<!-- Node1&#45;&gt;Node7 -->
<g id="edge6" class="edge"><title>Node1&#45;&gt;Node7</title>
<path fill="none" stroke="midnightblue" d="M110.131,-109.642C133.645,-97.1458 169.407,-79.1759 202,-67 211.791,-63.3424 222.591,-60.0593 232.717,-57.2923"/>
<polygon fill="midnightblue" stroke="midnightblue" points="108.304,-106.651 101.15,-114.466 111.616,-112.817 108.304,-106.651"/>
</g>
<!-- Node8 -->
<g id="node8" class="node"><title>Node8</title>
<g id="a_node8"><a xlink:href="dd/def/classo2_1_1TPC_1_1Digit.html" target="_top" xlink:title="o2::TPC::Digit">
<polygon fill="none" stroke="black" points="233,-0.5 233,-19.5 313,-19.5 313,-0.5 233,-0.5"/>
<text text-anchor="middle" x="273" y="-7.5" font-family="Helvetica,sans-Serif" font-size="10.00">o2::TPC::Digit</text>
</a>
</g>
</g>
<!-- Node1&#45;&gt;Node8 -->
<g id="edge7" class="edge"><title>Node1&#45;&gt;Node8</title>
<path fill="none" stroke="midnightblue" d="M100.419,-107C121.868,-85.7467 161.485,-49.6536 202,-29 211.536,-24.1388 222.457,-20.411 232.791,-17.6"/>
<polygon fill="midnightblue" stroke="midnightblue" points="97.6802,-104.791 93.1238,-114.356 102.651,-109.72 97.6802,-104.791"/>
</g>
</g>
</svg>
