<?xml version="1.0" encoding="UTF-8" standalone="no"?>
<!DOCTYPE svg PUBLIC "-//W3C//DTD SVG 1.1//EN"
 "http://www.w3.org/Graphics/SVG/1.1/DTD/svg11.dtd">
<!-- Generated by graphviz version 2.36.0 (20140111.2315)
 -->
<!-- Title: Graphical Class Hierarchy Pages: 1 -->
<svg width="244pt" height="560pt"
 viewBox="0.00 0.00 244.00 560.00" xmlns="http://www.w3.org/2000/svg" xmlns:xlink="http://www.w3.org/1999/xlink">
<g id="graph0" class="graph" transform="scale(1 1) rotate(0) translate(4 556)">
<title>Graphical Class Hierarchy</title>
<!-- Node1 -->
<g id="node1" class="node"><title>Node1</title>
<g id="a_node1"><a xlink:href="d2/d9e/classFairTask.html" target="_top" xlink:title="FairTask">
<polygon fill="none" stroke="black" points="0.5,-266.5 0.5,-285.5 55.5,-285.5 55.5,-266.5 0.5,-266.5"/>
<text text-anchor="middle" x="28" y="-273.5" font-family="Helvetica,sans-Serif" font-size="10.00">FairTask</text>
</a>
</g>
</g>
<!-- Node2 -->
<g id="node2" class="node"><title>Node2</title>
<g id="a_node2"><a xlink:href="de/d8a/classo2_1_1EMCAL_1_1DigitizerTask.html" target="_top" xlink:title="o2::EMCAL::DigitizerTask">
<polygon fill="none" stroke="black" points="98.5,-532.5 98.5,-551.5 229.5,-551.5 229.5,-532.5 98.5,-532.5"/>
<text text-anchor="middle" x="164" y="-539.5" font-family="Helvetica,sans-Serif" font-size="10.00">o2::EMCAL::DigitizerTask</text>
</a>
</g>
</g>
<!-- Node1&#45;&gt;Node2 -->
<g id="edge1" class="edge"><title>Node1&#45;&gt;Node2</title>
<path fill="none" stroke="midnightblue" d="M31.426,-295.527C38.328,-348 59.685,-490.303 92,-523 95.7672,-526.812 100.209,-529.884 105.004,-532.357"/>
<polygon fill="midnightblue" stroke="midnightblue" points="34.8846,-294.979 30.1416,-285.505 27.9414,-295.869 34.8846,-294.979"/>
</g>
<!-- Node3 -->
<g id="node3" class="node"><title>Node3</title>
<g id="a_node3"><a xlink:href="de/d40/classo2_1_1fit_1_1DigitizerTask.html" target="_top" xlink:title="o2::fit::DigitizerTask">
<polygon fill="none" stroke="black" points="111.5,-494.5 111.5,-513.5 216.5,-513.5 216.5,-494.5 111.5,-494.5"/>
<text text-anchor="middle" x="164" y="-501.5" font-family="Helvetica,sans-Serif" font-size="10.00">o2::fit::DigitizerTask</text>
</a>
</g>
</g>
<!-- Node1&#45;&gt;Node3 -->
<g id="edge2" class="edge"><title>Node1&#45;&gt;Node3</title>
<path fill="none" stroke="midnightblue" d="M28.947,-295.632C29.9445,-336.86 38.2704,-432.926 92,-485 97.4061,-490.239 104.092,-494.073 111.179,-496.871"/>
<polygon fill="midnightblue" stroke="midnightblue" points="32.4458,-295.499 28.8283,-285.54 25.4463,-295.581 32.4458,-295.499"/>
</g>
<!-- Node4 -->
<g id="node4" class="node"><title>Node4</title>
<g id="a_node4"><a xlink:href="db/df6/classo2_1_1ITS_1_1ClustererTask.html" target="_top" xlink:title="o2::ITS::ClustererTask">
<polygon fill="none" stroke="black" points="106,-456.5 106,-475.5 222,-475.5 222,-456.5 106,-456.5"/>
<text text-anchor="middle" x="164" y="-463.5" font-family="Helvetica,sans-Serif" font-size="10.00">o2::ITS::ClustererTask</text>
</a>
</g>
</g>
<!-- Node1&#45;&gt;Node4 -->
<g id="edge3" class="edge"><title>Node1&#45;&gt;Node4</title>
<path fill="none" stroke="midnightblue" d="M30.5247,-295.936C34.3456,-331.604 47.502,-406.399 92,-447 96.2417,-450.87 101.186,-453.967 106.455,-456.443"/>
<polygon fill="midnightblue" stroke="midnightblue" points="33.9953,-295.456 29.5843,-285.823 27.0253,-296.104 33.9953,-295.456"/>
</g>
<!-- Node5 -->
<g id="node5" class="node"><title>Node5</title>
<g id="a_node5"><a xlink:href="d8/d68/classo2_1_1ITS_1_1CookedTrackerTask.html" target="_top" xlink:title="o2::ITS::CookedTrackerTask">
<polygon fill="none" stroke="black" points="92.5,-418.5 92.5,-437.5 235.5,-437.5 235.5,-418.5 92.5,-418.5"/>
<text text-anchor="middle" x="164" y="-425.5" font-family="Helvetica,sans-Serif" font-size="10.00">o2::ITS::CookedTrackerTask</text>
</a>
</g>
</g>
<!-- Node1&#45;&gt;Node5 -->
<g id="edge4" class="edge"><title>Node1&#45;&gt;Node5</title>
<path fill="none" stroke="midnightblue" d="M32.8206,-295.557C39.5503,-324.697 56.3273,-379.26 92,-409 96.6064,-412.84 101.915,-415.911 107.512,-418.365"/>
<polygon fill="midnightblue" stroke="midnightblue" points="36.2341,-294.783 30.7149,-285.739 29.3898,-296.251 36.2341,-294.783"/>
</g>
<!-- Node6 -->
<g id="node6" class="node"><title>Node6</title>
<g id="a_node6"><a xlink:href="de/d22/classo2_1_1ITS_1_1DigitizerTask.html" target="_top" xlink:title="o2::ITS::DigitizerTask">
<polygon fill="none" stroke="black" points="107.5,-380.5 107.5,-399.5 220.5,-399.5 220.5,-380.5 107.5,-380.5"/>
<text text-anchor="middle" x="164" y="-387.5" font-family="Helvetica,sans-Serif" font-size="10.00">o2::ITS::DigitizerTask</text>
</a>
</g>
</g>
<!-- Node1&#45;&gt;Node6 -->
<g id="edge5" class="edge"><title>Node1&#45;&gt;Node6</title>
<path fill="none" stroke="midnightblue" d="M36.7187,-295.242C46.4034,-316.918 65.0733,-351.64 92,-371 97.3873,-374.873 103.516,-377.957 109.861,-380.412"/>
<polygon fill="midnightblue" stroke="midnightblue" points="39.8256,-293.605 32.6893,-285.774 33.3846,-296.346 39.8256,-293.605"/>
</g>
<!-- Node7 -->
<g id="node7" class="node"><title>Node7</title>
<g id="a_node7"><a xlink:href="d6/df5/classo2_1_1ITS_1_1HitAnalysis.html" target="_top" xlink:title="o2::ITS::HitAnalysis">
<polygon fill="none" stroke="black" points="111.5,-342.5 111.5,-361.5 216.5,-361.5 216.5,-342.5 111.5,-342.5"/>
<text text-anchor="middle" x="164" y="-349.5" font-family="Helvetica,sans-Serif" font-size="10.00">o2::ITS::HitAnalysis</text>
</a>
</g>
</g>
<!-- Node1&#45;&gt;Node7 -->
<g id="edge6" class="edge"><title>Node1&#45;&gt;Node7</title>
<path fill="none" stroke="midnightblue" d="M43.82,-293.254C55.6514,-305.993 73.2962,-322.819 92,-333 99.0607,-336.843 106.946,-339.945 114.823,-342.439"/>
<polygon fill="midnightblue" stroke="midnightblue" points="46.2177,-290.686 36.9319,-285.584 41.0097,-295.363 46.2177,-290.686"/>
</g>
<!-- Node8 -->
<g id="node8" class="node"><title>Node8</title>
<g id="a_node8"><a xlink:href="db/d78/classo2_1_1ITS_1_1TrivialClustererTask.html" target="_top" xlink:title="o2::ITS::TrivialClustererTask">
<polygon fill="none" stroke="black" points="92.5,-304.5 92.5,-323.5 235.5,-323.5 235.5,-304.5 92.5,-304.5"/>
<text text-anchor="middle" x="164" y="-311.5" font-family="Helvetica,sans-Serif" font-size="10.00">o2::ITS::TrivialClustererTask</text>
</a>
</g>
</g>
<!-- Node1&#45;&gt;Node8 -->
<g id="edge7" class="edge"><title>Node1&#45;&gt;Node8</title>
<path fill="none" stroke="midnightblue" d="M65.1905,-287.127C73.9509,-289.762 83.298,-292.524 92,-295 103.168,-298.178 115.368,-301.497 126.455,-304.456"/>
<polygon fill="midnightblue" stroke="midnightblue" points="66.2,-283.776 55.6148,-284.229 64.1721,-290.476 66.2,-283.776"/>
</g>
<!-- Node9 -->
<g id="node9" class="node"><title>Node9</title>
<g id="a_node9"><a xlink:href="d7/d6d/classo2_1_1MFT_1_1ClustererTask.html" target="_top" xlink:title="o2::MFT::ClustererTask">
<polygon fill="none" stroke="black" points="103.5,-266.5 103.5,-285.5 224.5,-285.5 224.5,-266.5 103.5,-266.5"/>
<text text-anchor="middle" x="164" y="-273.5" font-family="Helvetica,sans-Serif" font-size="10.00">o2::MFT::ClustererTask</text>
</a>
</g>
</g>
<!-- Node1&#45;&gt;Node9 -->
<g id="edge8" class="edge"><title>Node1&#45;&gt;Node9</title>
<path fill="none" stroke="midnightblue" d="M65.9381,-276C77.5027,-276 90.5747,-276 103.292,-276"/>
<polygon fill="midnightblue" stroke="midnightblue" points="65.7949,-272.5 55.7948,-276 65.7948,-279.5 65.7949,-272.5"/>
</g>
<!-- Node10 -->
<g id="node10" class="node"><title>Node10</title>
<g id="a_node10"><a xlink:href="d0/d22/classo2_1_1MFT_1_1DigitizerTask.html" target="_top" xlink:title="o2::MFT::DigitizerTask">
<polygon fill="none" stroke="black" points="105.5,-228.5 105.5,-247.5 222.5,-247.5 222.5,-228.5 105.5,-228.5"/>
<text text-anchor="middle" x="164" y="-235.5" font-family="Helvetica,sans-Serif" font-size="10.00">o2::MFT::DigitizerTask</text>
</a>
</g>
</g>
<!-- Node1&#45;&gt;Node10 -->
<g id="edge9" class="edge"><title>Node1&#45;&gt;Node10</title>
<path fill="none" stroke="midnightblue" d="M65.1905,-264.873C73.9509,-262.238 83.298,-259.476 92,-257 103.168,-253.822 115.368,-250.503 126.455,-247.544"/>
<polygon fill="midnightblue" stroke="midnightblue" points="64.1721,-261.524 55.6148,-267.771 66.2,-268.224 64.1721,-261.524"/>
</g>
<!-- Node11 -->
<g id="node11" class="node"><title>Node11</title>
<g id="a_node11"><a xlink:href="dc/d5b/classo2_1_1MFT_1_1TrackerTask.html" target="_top" xlink:title="o2::MFT::TrackerTask">
<polygon fill="none" stroke="black" points="107,-190.5 107,-209.5 221,-209.5 221,-190.5 107,-190.5"/>
<text text-anchor="middle" x="164" y="-197.5" font-family="Helvetica,sans-Serif" font-size="10.00">o2::MFT::TrackerTask</text>
</a>
</g>
</g>
<!-- Node1&#45;&gt;Node11 -->
<g id="edge10" class="edge"><title>Node1&#45;&gt;Node11</title>
<path fill="none" stroke="midnightblue" d="M43.82,-258.746C55.6514,-246.007 73.2962,-229.181 92,-219 99.0607,-215.157 106.946,-212.055 114.823,-209.561"/>
<polygon fill="midnightblue" stroke="midnightblue" points="41.0097,-256.637 36.9319,-266.416 46.2177,-261.314 41.0097,-256.637"/>
</g>
<!-- Node12 -->
<g id="node12" class="node"><title>Node12</title>
<g id="a_node12"><a xlink:href="d1/df7/classo2_1_1phos_1_1ClustererTask.html" target="_top" xlink:title="o2::phos::ClustererTask">
<polygon fill="none" stroke="black" points="103,-152.5 103,-171.5 225,-171.5 225,-152.5 103,-152.5"/>
<text text-anchor="middle" x="164" y="-159.5" font-family="Helvetica,sans-Serif" font-size="10.00">o2::phos::ClustererTask</text>
</a>
</g>
</g>
<!-- Node1&#45;&gt;Node12 -->
<g id="edge11" class="edge"><title>Node1&#45;&gt;Node12</title>
<path fill="none" stroke="midnightblue" d="M36.7187,-256.758C46.4034,-235.082 65.0733,-200.36 92,-181 97.3873,-177.127 103.516,-174.043 109.861,-171.588"/>
<polygon fill="midnightblue" stroke="midnightblue" points="33.3846,-255.654 32.6893,-266.226 39.8256,-258.395 33.3846,-255.654"/>
</g>
<!-- Node13 -->
<g id="node13" class="node"><title>Node13</title>
<g id="a_node13"><a xlink:href="d2/d40/classo2_1_1phos_1_1DigitizerTask.html" target="_top" xlink:title="o2::phos::DigitizerTask">
<polygon fill="none" stroke="black" points="105,-114.5 105,-133.5 223,-133.5 223,-114.5 105,-114.5"/>
<text text-anchor="middle" x="164" y="-121.5" font-family="Helvetica,sans-Serif" font-size="10.00">o2::phos::DigitizerTask</text>
</a>
</g>
</g>
<!-- Node1&#45;&gt;Node13 -->
<g id="edge12" class="edge"><title>Node1&#45;&gt;Node13</title>
<path fill="none" stroke="midnightblue" d="M32.8206,-256.443C39.5503,-227.303 56.3273,-172.74 92,-143 96.6064,-139.16 101.915,-136.089 107.512,-133.635"/>
<polygon fill="midnightblue" stroke="midnightblue" points="29.3898,-255.749 30.7149,-266.261 36.2341,-257.217 29.3898,-255.749"/>
</g>
<!-- Node14 -->
<g id="node14" class="node"><title>Node14</title>
<g id="a_node14"><a xlink:href="d0/dc6/classo2_1_1tof_1_1ClustererTask.html" target="_top" xlink:title="o2::tof::ClustererTask">
<polygon fill="none" stroke="black" points="108,-76.5 108,-95.5 220,-95.5 220,-76.5 108,-76.5"/>
<text text-anchor="middle" x="164" y="-83.5" font-family="Helvetica,sans-Serif" font-size="10.00">o2::tof::ClustererTask</text>
</a>
</g>
</g>
<!-- Node1&#45;&gt;Node14 -->
<g id="edge13" class="edge"><title>Node1&#45;&gt;Node14</title>
<path fill="none" stroke="midnightblue" d="M30.5247,-256.064C34.3456,-220.396 47.502,-145.601 92,-105 96.6188,-100.786 102.071,-97.4886 107.867,-94.912"/>
<polygon fill="midnightblue" stroke="midnightblue" points="27.0253,-255.896 29.5843,-266.177 33.9953,-256.544 27.0253,-255.896"/>
</g>
<!-- Node15 -->
<g id="node15" class="node"><title>Node15</title>
<g id="a_node15"><a xlink:href="d0/dad/classo2_1_1tof_1_1DigitizerTask.html" target="_top" xlink:title="o2::tof::DigitizerTask">
<polygon fill="none" stroke="black" points="110,-38.5 110,-57.5 218,-57.5 218,-38.5 110,-38.5"/>
<text text-anchor="middle" x="164" y="-45.5" font-family="Helvetica,sans-Serif" font-size="10.00">o2::tof::DigitizerTask</text>
</a>
</g>
</g>
<!-- Node1&#45;&gt;Node15 -->
<g id="edge14" class="edge"><title>Node1&#45;&gt;Node15</title>
<path fill="none" stroke="midnightblue" d="M28.947,-256.368C29.9445,-215.14 38.2704,-119.074 92,-67 97.0396,-62.1157 103.191,-58.4532 109.744,-55.7128"/>
<polygon fill="midnightblue" stroke="midnightblue" points="25.4463,-256.419 28.8283,-266.46 32.4458,-256.501 25.4463,-256.419"/>
</g>
<!-- Node16 -->
<g id="node16" class="node"><title>Node16</title>
<g id="a_node16"><a xlink:href="db/df7/classo2_1_1TPC_1_1ClustererTask.html" target="_top" xlink:title="o2::TPC::ClustererTask">
<polygon fill="none" stroke="black" points="103.5,-0.5 103.5,-19.5 224.5,-19.5 224.5,-0.5 103.5,-0.5"/>
<text text-anchor="middle" x="164" y="-7.5" font-family="Helvetica,sans-Serif" font-size="10.00">o2::TPC::ClustererTask</text>
</a>
</g>
</g>
<!-- Node1&#45;&gt;Node16 -->
<g id="edge15" class="edge"><title>Node1&#45;&gt;Node16</title>
<path fill="none" stroke="midnightblue" d="M31.426,-256.473C38.328,-204 59.685,-61.6967 92,-29 95.7672,-25.1883 100.209,-22.1158 105.004,-19.6427"/>
<polygon fill="midnightblue" stroke="midnightblue" points="27.9414,-256.131 30.1416,-266.495 34.8846,-257.021 27.9414,-256.131"/>
</g>
</g>
</svg>
