<?xml version="1.0" encoding="UTF-8" standalone="no"?>
<!DOCTYPE svg PUBLIC "-//W3C//DTD SVG 1.1//EN"
 "http://www.w3.org/Graphics/SVG/1.1/DTD/svg11.dtd">
<!-- Generated by graphviz version 2.36.0 (20140111.2315)
 -->
<!-- Title: Graphical Class Hierarchy Pages: 1 -->
<svg width="482pt" height="823pt"
 viewBox="0.00 0.00 482.00 823.00" xmlns="http://www.w3.org/2000/svg" xmlns:xlink="http://www.w3.org/1999/xlink">
<g id="graph0" class="graph" transform="scale(1 1) rotate(0) translate(4 819)">
<title>Graphical Class Hierarchy</title>
<!-- Node1 -->
<g id="node1" class="node"><title>Node1</title>
<g id="a_node1"><a xlink:href="db/dfe/classFairMQDevice.html" target="_top" xlink:title="FairMQDevice">
<polygon fill="none" stroke="black" points="0,-370.5 0,-389.5 80,-389.5 80,-370.5 0,-370.5"/>
<text text-anchor="middle" x="40" y="-377.5" font-family="Helvetica,sans-Serif" font-size="10.00">FairMQDevice</text>
</a>
</g>
</g>
<!-- Node2 -->
<g id="node2" class="node"><title>Node2</title>
<g id="a_node2"><a xlink:href="d7/dd9/classo2_1_1alice__hlt_1_1EventSampler.html" target="_top" xlink:title="o2::alice_hlt::EventSampler">
<polygon fill="none" stroke="black" points="125.5,-705.5 125.5,-724.5 262.5,-724.5 262.5,-705.5 125.5,-705.5"/>
<text text-anchor="middle" x="194" y="-712.5" font-family="Helvetica,sans-Serif" font-size="10.00">o2::alice_hlt::EventSampler</text>
</a>
</g>
</g>
<!-- Node1&#45;&gt;Node2 -->
<g id="edge1" class="edge"><title>Node1&#45;&gt;Node2</title>
<path fill="none" stroke="midnightblue" d="M43.0373,-399.94C49.8272,-462.504 73.6819,-653.304 116,-696 119.78,-699.814 124.196,-702.907 128.965,-705.41"/>
<polygon fill="midnightblue" stroke="midnightblue" points="46.499,-399.391 41.9675,-389.815 39.5377,-400.127 46.499,-399.391"/>
</g>
<!-- Node3 -->
<g id="node3" class="node"><title>Node3</title>
<g id="a_node3"><a xlink:href="d5/df3/classo2_1_1alice__hlt_1_1WrapperDevice.html" target="_top" xlink:title="o2::alice_hlt::WrapperDevice">
<polygon fill="none" stroke="black" points="122.5,-667.5 122.5,-686.5 265.5,-686.5 265.5,-667.5 122.5,-667.5"/>
<text text-anchor="middle" x="194" y="-674.5" font-family="Helvetica,sans-Serif" font-size="10.00">o2::alice_hlt::WrapperDevice</text>
</a>
</g>
</g>
<!-- Node1&#45;&gt;Node3 -->
<g id="edge2" class="edge"><title>Node1&#45;&gt;Node3</title>
<path fill="none" stroke="midnightblue" d="M43.7021,-399.738C51.9247,-456.96 78.3973,-621.2 116,-658 119.936,-661.852 124.522,-664.964 129.459,-667.474"/>
<polygon fill="midnightblue" stroke="midnightblue" points="47.1226,-398.927 42.2648,-389.512 40.1908,-399.902 47.1226,-398.927"/>
</g>
<!-- Node4 -->
<g id="node4" class="node"><title>Node4</title>
<g id="a_node4"><a xlink:href="da/df6/classo2_1_1Base_1_1O2Device.html" target="_top" xlink:title="o2::Base::O2Device">
<polygon fill="none" stroke="black" points="141.5,-629.5 141.5,-648.5 246.5,-648.5 246.5,-629.5 141.5,-629.5"/>
<text text-anchor="middle" x="194" y="-636.5" font-family="Helvetica,sans-Serif" font-size="10.00">o2::Base::O2Device</text>
</a>
</g>
</g>
<!-- Node1&#45;&gt;Node4 -->
<g id="edge3" class="edge"><title>Node1&#45;&gt;Node4</title>
<path fill="none" stroke="midnightblue" d="M41.0492,-400.169C42.3079,-446.248 52.1033,-559.885 116,-620 123.02,-626.604 131.958,-631.018 141.24,-633.944"/>
<polygon fill="midnightblue" stroke="midnightblue" points="44.5459,-399.926 40.8854,-389.984 37.5468,-400.039 44.5459,-399.926"/>
</g>
<!-- Node13 -->
<g id="node13" class="node"><title>Node13</title>
<g id="a_node13"><a xlink:href="dc/d52/classo2_1_1ccdb_1_1ConditionsMQClient.html" target="_top" xlink:title="o2::ccdb::ConditionsMQClient">
<polygon fill="none" stroke="black" points="120,-591.5 120,-610.5 268,-610.5 268,-591.5 120,-591.5"/>
<text text-anchor="middle" x="194" y="-598.5" font-family="Helvetica,sans-Serif" font-size="10.00">o2::ccdb::ConditionsMQClient</text>
</a>
</g>
</g>
<!-- Node1&#45;&gt;Node13 -->
<g id="edge12" class="edge"><title>Node1&#45;&gt;Node13</title>
<path fill="none" stroke="midnightblue" d="M42.407,-399.978C46.3776,-440.61 61.2659,-533.155 116,-582 120.315,-585.85 125.286,-588.949 130.583,-591.438"/>
<polygon fill="midnightblue" stroke="midnightblue" points="45.8732,-399.431 41.5374,-389.763 38.8984,-400.024 45.8732,-399.431"/>
</g>
<!-- Node14 -->
<g id="node14" class="node"><title>Node14</title>
<g id="a_node14"><a xlink:href="df/d95/classo2_1_1Devices_1_1EPNReceiver.html" target="_top" xlink:title="Receives sub&#45;timeframes from the flpSenders and merges these into full timeframes. ">
<polygon fill="none" stroke="black" points="126.5,-553.5 126.5,-572.5 261.5,-572.5 261.5,-553.5 126.5,-553.5"/>
<text text-anchor="middle" x="194" y="-560.5" font-family="Helvetica,sans-Serif" font-size="10.00">o2::Devices::EPNReceiver</text>
</a>
</g>
</g>
<!-- Node1&#45;&gt;Node14 -->
<g id="edge13" class="edge"><title>Node1&#45;&gt;Node14</title>
<path fill="none" stroke="midnightblue" d="M44.4818,-400.066C51.5551,-434.623 70.9291,-505.28 116,-543 121.19,-547.343 127.214,-550.757 133.563,-553.437"/>
<polygon fill="midnightblue" stroke="midnightblue" points="47.842,-399.001 42.5353,-389.831 40.9652,-400.308 47.842,-399.001"/>
</g>
<!-- Node15 -->
<g id="node15" class="node"><title>Node15</title>
<g id="a_node15"><a xlink:href="d5/d70/classo2_1_1Devices_1_1EPNReceiverDevice.html" target="_top" xlink:title="Receives sub&#45;timeframes from the flpSenders and merges these into full timeframes. ">
<polygon fill="none" stroke="black" points="126.5,-504 126.5,-534 261.5,-534 261.5,-504 126.5,-504"/>
<text text-anchor="start" x="134.5" y="-522" font-family="Helvetica,sans-Serif" font-size="10.00">o2::Devices::EPNReceiver</text>
<text text-anchor="middle" x="194" y="-511" font-family="Helvetica,sans-Serif" font-size="10.00">Device</text>
</a>
</g>
</g>
<!-- Node1&#45;&gt;Node15 -->
<g id="edge14" class="edge"><title>Node1&#45;&gt;Node15</title>
<path fill="none" stroke="midnightblue" d="M48.556,-398.75C59.6548,-423.983 82.7181,-468.625 116,-494 121.03,-497.835 126.67,-501.094 132.552,-503.861"/>
<polygon fill="midnightblue" stroke="midnightblue" points="51.7738,-397.373 44.6544,-389.527 45.3269,-400.1 51.7738,-397.373"/>
</g>
<!-- Node16 -->
<g id="node16" class="node"><title>Node16</title>
<g id="a_node16"><a xlink:href="da/d8b/classo2_1_1Devices_1_1FLPSender.html" target="_top" xlink:title="o2::Devices::FLPSender">
<polygon fill="none" stroke="black" points="132,-465.5 132,-484.5 256,-484.5 256,-465.5 132,-465.5"/>
<text text-anchor="middle" x="194" y="-472.5" font-family="Helvetica,sans-Serif" font-size="10.00">o2::Devices::FLPSender</text>
</a>
</g>
</g>
<!-- Node1&#45;&gt;Node16 -->
<g id="edge15" class="edge"><title>Node1&#45;&gt;Node16</title>
<path fill="none" stroke="midnightblue" d="M53.8291,-397.832C67.3384,-415.287 90.201,-441.332 116,-456 122.823,-459.879 130.425,-462.973 138.12,-465.438"/>
<polygon fill="midnightblue" stroke="midnightblue" points="56.4505,-395.493 47.6512,-389.592 50.8499,-399.693 56.4505,-395.493"/>
</g>
<!-- Node17 -->
<g id="node17" class="node"><title>Node17</title>
<g id="a_node17"><a xlink:href="d3/db6/classo2_1_1Devices_1_1FLPSenderDevice.html" target="_top" xlink:title="o2::Devices::FLPSenderDevice">
<polygon fill="none" stroke="black" points="116.5,-427.5 116.5,-446.5 271.5,-446.5 271.5,-427.5 116.5,-427.5"/>
<text text-anchor="middle" x="194" y="-434.5" font-family="Helvetica,sans-Serif" font-size="10.00">o2::Devices::FLPSenderDevice</text>
</a>
</g>
</g>
<!-- Node1&#45;&gt;Node17 -->
<g id="edge16" class="edge"><title>Node1&#45;&gt;Node17</title>
<path fill="none" stroke="midnightblue" d="M66.3379,-394.656C80.5757,-402.423 98.8775,-411.644 116,-418 125.81,-421.642 136.582,-424.796 146.88,-427.431"/>
<polygon fill="midnightblue" stroke="midnightblue" points="67.6343,-391.372 57.1948,-389.565 64.2286,-397.488 67.6343,-391.372"/>
</g>
<!-- Node18 -->
<g id="node18" class="node"><title>Node18</title>
<g id="a_node18"><a xlink:href="d9/dbe/classo2_1_1Devices_1_1FLPSyncSampler.html" target="_top" xlink:title="Publishes timeframes IDs for flpSenders (used only in test mode) ">
<polygon fill="none" stroke="black" points="118,-389.5 118,-408.5 270,-408.5 270,-389.5 118,-389.5"/>
<text text-anchor="middle" x="194" y="-396.5" font-family="Helvetica,sans-Serif" font-size="10.00">o2::Devices::FLPSyncSampler</text>
</a>
</g>
</g>
<!-- Node1&#45;&gt;Node18 -->
<g id="edge17" class="edge"><title>Node1&#45;&gt;Node18</title>
<path fill="none" stroke="midnightblue" d="M90.2654,-386.158C99.1347,-387.267 108.561,-388.445 117.967,-389.621"/>
<polygon fill="midnightblue" stroke="midnightblue" points="90.5007,-382.66 80.1438,-384.893 89.6324,-389.606 90.5007,-382.66"/>
</g>
<!-- Node19 -->
<g id="node19" class="node"><title>Node19</title>
<g id="a_node19"><a xlink:href="d7/d4c/classo2_1_1devices_1_1O2HitMerger.html" target="_top" xlink:title="o2::devices::O2HitMerger">
<polygon fill="none" stroke="black" points="130,-351.5 130,-370.5 258,-370.5 258,-351.5 130,-351.5"/>
<text text-anchor="middle" x="194" y="-358.5" font-family="Helvetica,sans-Serif" font-size="10.00">o2::devices::O2HitMerger</text>
</a>
</g>
</g>
<!-- Node1&#45;&gt;Node19 -->
<g id="edge18" class="edge"><title>Node1&#45;&gt;Node19</title>
<path fill="none" stroke="midnightblue" d="M90.4056,-373.824C102.976,-372.253 116.657,-370.543 129.811,-368.899"/>
<polygon fill="midnightblue" stroke="midnightblue" points="89.6324,-370.394 80.1438,-375.107 90.5007,-377.34 89.6324,-370.394"/>
</g>
<!-- Node20 -->
<g id="node20" class="node"><title>Node20</title>
<g id="a_node20"><a xlink:href="d3/d9a/classo2_1_1devices_1_1O2PrimaryServerDevice.html" target="_top" xlink:title="o2::devices::O2PrimaryServer\lDevice">
<polygon fill="none" stroke="black" points="120,-302 120,-332 268,-332 268,-302 120,-302"/>
<text text-anchor="start" x="128" y="-320" font-family="Helvetica,sans-Serif" font-size="10.00">o2::devices::O2PrimaryServer</text>
<text text-anchor="middle" x="194" y="-309" font-family="Helvetica,sans-Serif" font-size="10.00">Device</text>
</a>
</g>
</g>
<!-- Node1&#45;&gt;Node20 -->
<g id="edge19" class="edge"><title>Node1&#45;&gt;Node20</title>
<path fill="none" stroke="midnightblue" d="M67.085,-365.526C81.296,-357.963 99.3366,-348.878 116,-342 124.575,-338.461 133.846,-335.085 142.885,-332.023"/>
<polygon fill="midnightblue" stroke="midnightblue" points="65.0594,-362.642 57.9225,-370.472 68.3848,-368.802 65.0594,-362.642"/>
</g>
<!-- Node21 -->
<g id="node21" class="node"><title>Node21</title>
<g id="a_node21"><a xlink:href="db/dd9/classo2_1_1devices_1_1O2SimDevice.html" target="_top" xlink:title="o2::devices::O2SimDevice">
<polygon fill="none" stroke="black" points="127,-263.5 127,-282.5 261,-282.5 261,-263.5 127,-263.5"/>
<text text-anchor="middle" x="194" y="-270.5" font-family="Helvetica,sans-Serif" font-size="10.00">o2::devices::O2SimDevice</text>
</a>
</g>
</g>
<!-- Node1&#45;&gt;Node21 -->
<g id="edge20" class="edge"><title>Node1&#45;&gt;Node21</title>
<path fill="none" stroke="midnightblue" d="M51.9032,-361.737C64.743,-341.827 87.9194,-310.478 116,-293 123.036,-288.621 131.003,-285.196 139.079,-282.518"/>
<polygon fill="midnightblue" stroke="midnightblue" points="48.7725,-360.144 46.4542,-370.482 54.7134,-363.846 48.7725,-360.144"/>
</g>
<!-- Node22 -->
<g id="node22" class="node"><title>Node22</title>
<g id="a_node22"><a xlink:href="d4/d56/classo2_1_1framework_1_1DataProcessingDevice.html" target="_top" xlink:title="o2::framework::DataProcessing\lDevice">
<polygon fill="none" stroke="black" points="116.5,-214 116.5,-244 271.5,-244 271.5,-214 116.5,-214"/>
<text text-anchor="start" x="124.5" y="-232" font-family="Helvetica,sans-Serif" font-size="10.00">o2::framework::DataProcessing</text>
<text text-anchor="middle" x="194" y="-221" font-family="Helvetica,sans-Serif" font-size="10.00">Device</text>
</a>
</g>
</g>
<!-- Node1&#45;&gt;Node22 -->
<g id="edge21" class="edge"><title>Node1&#45;&gt;Node22</title>
<path fill="none" stroke="midnightblue" d="M47.5737,-360.476C57.8597,-332.827 80.3518,-282.47 116,-254 120.832,-250.141 126.278,-246.87 131.984,-244.098"/>
<polygon fill="midnightblue" stroke="midnightblue" points="44.1751,-359.586 44.1205,-370.181 50.7702,-361.933 44.1751,-359.586"/>
</g>
<!-- Node23 -->
<g id="node23" class="node"><title>Node23</title>
<g id="a_node23"><a xlink:href="de/d58/classo2_1_1framework_1_1DataSourceDevice.html" target="_top" xlink:title="o2::framework::DataSource\lDevice">
<polygon fill="none" stroke="black" points="125.5,-165 125.5,-195 262.5,-195 262.5,-165 125.5,-165"/>
<text text-anchor="start" x="133.5" y="-183" font-family="Helvetica,sans-Serif" font-size="10.00">o2::framework::DataSource</text>
<text text-anchor="middle" x="194" y="-172" font-family="Helvetica,sans-Serif" font-size="10.00">Device</text>
</a>
</g>
</g>
<!-- Node1&#45;&gt;Node23 -->
<g id="edge22" class="edge"><title>Node1&#45;&gt;Node23</title>
<path fill="none" stroke="midnightblue" d="M44.0019,-360.284C50.5152,-324.269 69.3015,-247.633 116,-205 120.256,-201.115 125.123,-197.833 130.298,-195.06"/>
<polygon fill="midnightblue" stroke="midnightblue" points="40.4984,-360.014 42.2987,-370.455 47.4023,-361.171 40.4984,-360.014"/>
</g>
<!-- Node24 -->
<g id="node24" class="node"><title>Node24</title>
<g id="a_node24"><a xlink:href="d3/d75/classo2_1_1mch_1_1DumpDigits.html" target="_top" xlink:title="o2::mch::DumpDigits">
<polygon fill="none" stroke="black" points="139,-126.5 139,-145.5 249,-145.5 249,-126.5 139,-126.5"/>
<text text-anchor="middle" x="194" y="-133.5" font-family="Helvetica,sans-Serif" font-size="10.00">o2::mch::DumpDigits</text>
</a>
</g>
</g>
<!-- Node1&#45;&gt;Node24 -->
<g id="edge23" class="edge"><title>Node1&#45;&gt;Node24</title>
<path fill="none" stroke="midnightblue" d="M41.6178,-360.043C44.087,-316.361 56.277,-211.74 116,-156 122.462,-149.969 130.506,-145.703 138.936,-142.697"/>
<polygon fill="midnightblue" stroke="midnightblue" points="38.1132,-360.069 41.1617,-370.216 45.1062,-360.382 38.1132,-360.069"/>
</g>
<!-- Node25 -->
<g id="node25" class="node"><title>Node25</title>
<g id="a_node25"><a xlink:href="d7/dc2/classo2_1_1mch_1_1PreClusterFinderDevice.html" target="_top" xlink:title="o2::mch::PreClusterFinder\lDevice">
<polygon fill="none" stroke="black" points="128.5,-77 128.5,-107 259.5,-107 259.5,-77 128.5,-77"/>
<text text-anchor="start" x="136.5" y="-95" font-family="Helvetica,sans-Serif" font-size="10.00">o2::mch::PreClusterFinder</text>
<text text-anchor="middle" x="194" y="-84" font-family="Helvetica,sans-Serif" font-size="10.00">Device</text>
</a>
</g>
</g>
<!-- Node1&#45;&gt;Node25 -->
<g id="edge24" class="edge"><title>Node1&#45;&gt;Node25</title>
<path fill="none" stroke="midnightblue" d="M40.705,-360.251C41.0825,-311.926 48.8671,-186.604 116,-117 119.708,-113.156 124.011,-109.902 128.652,-107.148"/>
<polygon fill="midnightblue" stroke="midnightblue" points="37.2051,-360.329 40.7303,-370.32 44.2051,-360.312 37.2051,-360.329"/>
</g>
<!-- Node26 -->
<g id="node26" class="node"><title>Node26</title>
<g id="a_node26"><a xlink:href="d3/d79/classO2EPNex.html" target="_top" xlink:title="O2EPNex">
<polygon fill="none" stroke="black" points="163.5,-38.5 163.5,-57.5 224.5,-57.5 224.5,-38.5 163.5,-38.5"/>
<text text-anchor="middle" x="194" y="-45.5" font-family="Helvetica,sans-Serif" font-size="10.00">O2EPNex</text>
</a>
</g>
</g>
<!-- Node1&#45;&gt;Node26 -->
<g id="edge25" class="edge"><title>Node1&#45;&gt;Node26</title>
<path fill="none" stroke="midnightblue" d="M43.0653,-360.248C49.939,-298.271 74.0167,-109.267 116,-67 128.323,-54.5935 147.37,-49.8205 163.436,-48.1605"/>
<polygon fill="midnightblue" stroke="midnightblue" points="39.5762,-359.959 41.9817,-370.278 46.5357,-360.711 39.5762,-359.959"/>
</g>
<!-- Node27 -->
<g id="node27" class="node"><title>Node27</title>
<g id="a_node27"><a xlink:href="d4/d82/classO2FLPex.html" target="_top" xlink:title="O2FLPex">
<polygon fill="none" stroke="black" points="165,-0.5 165,-19.5 223,-19.5 223,-0.5 165,-0.5"/>
<text text-anchor="middle" x="194" y="-7.5" font-family="Helvetica,sans-Serif" font-size="10.00">O2FLPex</text>
</a>
</g>
</g>
<!-- Node1&#45;&gt;Node27 -->
<g id="edge26" class="edge"><title>Node1&#45;&gt;Node27</title>
<path fill="none" stroke="midnightblue" d="M42.4905,-360.513C47.9701,-293.992 69.1654,-77.3293 116,-29 128.552,-16.0469 148.421,-11.3752 164.832,-9.90129"/>
<polygon fill="midnightblue" stroke="midnightblue" points="39.001,-360.243 41.6953,-370.489 45.9789,-360.799 39.001,-360.243"/>
</g>
<!-- Node5 -->
<g id="node5" class="node"><title>Node5</title>
<g id="a_node5"><a xlink:href="d2/d4c/classo2_1_1DataFlow_1_1FakeTimeframeGeneratorDevice.html" target="_top" xlink:title="A device which writes to file the timeframes. ">
<polygon fill="none" stroke="black" points="316.5,-785 316.5,-815 465.5,-815 465.5,-785 316.5,-785"/>
<text text-anchor="start" x="324.5" y="-803" font-family="Helvetica,sans-Serif" font-size="10.00">o2::DataFlow::FakeTimeframe</text>
<text text-anchor="middle" x="391" y="-792" font-family="Helvetica,sans-Serif" font-size="10.00">GeneratorDevice</text>
</a>
</g>
</g>
<!-- Node4&#45;&gt;Node5 -->
<g id="edge4" class="edge"><title>Node4&#45;&gt;Node5</title>
<path fill="none" stroke="midnightblue" d="M256.165,-647.609C261.976,-650.259 267.403,-653.656 272,-658 311.544,-695.367 269.48,-736.579 308,-775 311.899,-778.889 316.384,-782.176 321.203,-784.954"/>
<polygon fill="midnightblue" stroke="midnightblue" points="257.374,-644.324 246.783,-644.031 254.88,-650.865 257.374,-644.324"/>
</g>
<!-- Node6 -->
<g id="node6" class="node"><title>Node6</title>
<g id="a_node6"><a xlink:href="d3/d5a/classo2_1_1DataFlow_1_1HeartbeatSampler.html" target="_top" xlink:title="A sampler for heartbeat triggers. ">
<polygon fill="none" stroke="black" points="311,-746.5 311,-765.5 471,-765.5 471,-746.5 311,-746.5"/>
<text text-anchor="middle" x="391" y="-753.5" font-family="Helvetica,sans-Serif" font-size="10.00">o2::DataFlow::HeartbeatSampler</text>
</a>
</g>
</g>
<!-- Node4&#45;&gt;Node6 -->
<g id="edge5" class="edge"><title>Node4&#45;&gt;Node6</title>
<path fill="none" stroke="midnightblue" d="M256.268,-648.539C261.938,-651.022 267.307,-654.125 272,-658 301.443,-682.308 278.524,-711.732 308,-736 313.204,-740.284 319.185,-743.675 325.496,-746.354"/>
<polygon fill="midnightblue" stroke="midnightblue" points="257.099,-645.115 246.506,-644.921 254.666,-651.678 257.099,-645.115"/>
</g>
<!-- Node7 -->
<g id="node7" class="node"><title>Node7</title>
<g id="a_node7"><a xlink:href="db/ded/classo2_1_1DataFlow_1_1SubframeBuilderDevice.html" target="_top" xlink:title="o2::DataFlow::SubframeBuilder\lDevice">
<polygon fill="none" stroke="black" points="314.5,-697 314.5,-727 467.5,-727 467.5,-697 314.5,-697"/>
<text text-anchor="start" x="322.5" y="-715" font-family="Helvetica,sans-Serif" font-size="10.00">o2::DataFlow::SubframeBuilder</text>
<text text-anchor="middle" x="391" y="-704" font-family="Helvetica,sans-Serif" font-size="10.00">Device</text>
</a>
</g>
</g>
<!-- Node4&#45;&gt;Node7 -->
<g id="edge6" class="edge"><title>Node4&#45;&gt;Node7</title>
<path fill="none" stroke="midnightblue" d="M256.408,-651.531C261.792,-653.41 267.065,-655.555 272,-658 290.41,-667.122 289.843,-677.385 308,-687 315.102,-690.761 322.857,-694.048 330.673,-696.893"/>
<polygon fill="midnightblue" stroke="midnightblue" points="257.234,-648.121 246.644,-648.429 255.115,-654.793 257.234,-648.121"/>
</g>
<!-- Node8 -->
<g id="node8" class="node"><title>Node8</title>
<g id="a_node8"><a xlink:href="d4/dea/classo2_1_1DataFlow_1_1TimeframeReaderDevice.html" target="_top" xlink:title="A device which writes to file the timeframes. ">
<polygon fill="none" stroke="black" points="311.5,-648 311.5,-678 470.5,-678 470.5,-648 311.5,-648"/>
<text text-anchor="start" x="319.5" y="-666" font-family="Helvetica,sans-Serif" font-size="10.00">o2::DataFlow::TimeframeReader</text>
<text text-anchor="middle" x="391" y="-655" font-family="Helvetica,sans-Serif" font-size="10.00">Device</text>
</a>
</g>
</g>
<!-- Node4&#45;&gt;Node8 -->
<g id="edge7" class="edge"><title>Node4&#45;&gt;Node8</title>
<path fill="none" stroke="midnightblue" d="M256.704,-646.594C273.997,-648.723 293.034,-651.066 311.175,-653.298"/>
<polygon fill="midnightblue" stroke="midnightblue" points="257.097,-643.116 246.744,-645.369 256.242,-650.064 257.097,-643.116"/>
</g>
<!-- Node9 -->
<g id="node9" class="node"><title>Node9</title>
<g id="a_node9"><a xlink:href="d8/d54/classo2_1_1DataFlow_1_1TimeframeValidatorDevice.html" target="_top" xlink:title="A validating device for time frame data (coming from EPN) ">
<polygon fill="none" stroke="black" points="308,-599 308,-629 474,-629 474,-599 308,-599"/>
<text text-anchor="start" x="316" y="-617" font-family="Helvetica,sans-Serif" font-size="10.00">o2::DataFlow::TimeframeValidator</text>
<text text-anchor="middle" x="391" y="-606" font-family="Helvetica,sans-Serif" font-size="10.00">Device</text>
</a>
</g>
</g>
<!-- Node4&#45;&gt;Node9 -->
<g id="edge8" class="edge"><title>Node4&#45;&gt;Node9</title>
<path fill="none" stroke="midnightblue" d="M257.101,-631.038C273.222,-628.972 290.837,-626.713 307.817,-624.536"/>
<polygon fill="midnightblue" stroke="midnightblue" points="256.218,-627.623 246.744,-632.366 257.108,-634.566 256.218,-627.623"/>
</g>
<!-- Node10 -->
<g id="node10" class="node"><title>Node10</title>
<g id="a_node10"><a xlink:href="d0/d3e/classo2_1_1DataFlow_1_1TimeframeWriterDevice.html" target="_top" xlink:title="A device which writes to file the timeframes. ">
<polygon fill="none" stroke="black" points="314,-550 314,-580 468,-580 468,-550 314,-550"/>
<text text-anchor="start" x="322" y="-568" font-family="Helvetica,sans-Serif" font-size="10.00">o2::DataFlow::TimeframeWriter</text>
<text text-anchor="middle" x="391" y="-557" font-family="Helvetica,sans-Serif" font-size="10.00">Device</text>
</a>
</g>
</g>
<!-- Node4&#45;&gt;Node10 -->
<g id="edge9" class="edge"><title>Node4&#45;&gt;Node10</title>
<path fill="none" stroke="midnightblue" d="M256.452,-626.556C261.827,-624.659 267.085,-622.486 272,-620 290.585,-610.599 289.676,-599.9 308,-590 314.94,-586.251 322.521,-582.982 330.18,-580.156"/>
<polygon fill="midnightblue" stroke="midnightblue" points="255.154,-623.297 246.699,-629.681 257.291,-629.963 255.154,-623.297"/>
</g>
<!-- Node11 -->
<g id="node11" class="node"><title>Node11</title>
<g id="a_node11"><a xlink:href="d7/dd8/classo2_1_1utilities_1_1DataPublisherDevice.html" target="_top" xlink:title="o2::utilities::DataPublisher\lDevice">
<polygon fill="none" stroke="black" points="325.5,-501 325.5,-531 456.5,-531 456.5,-501 325.5,-501"/>
<text text-anchor="start" x="333.5" y="-519" font-family="Helvetica,sans-Serif" font-size="10.00">o2::utilities::DataPublisher</text>
<text text-anchor="middle" x="391" y="-508" font-family="Helvetica,sans-Serif" font-size="10.00">Device</text>
</a>
</g>
</g>
<!-- Node4&#45;&gt;Node11 -->
<g id="edge10" class="edge"><title>Node4&#45;&gt;Node11</title>
<path fill="none" stroke="midnightblue" d="M256.287,-629.484C261.954,-626.997 267.316,-623.886 272,-620 301.695,-595.363 278.981,-566.43 308,-541 313.149,-536.488 319.095,-532.79 325.386,-529.76"/>
<polygon fill="midnightblue" stroke="midnightblue" points="254.686,-626.345 246.53,-633.107 257.123,-632.907 254.686,-626.345"/>
</g>
<!-- Node12 -->
<g id="node12" class="node"><title>Node12</title>
<g id="a_node12"><a xlink:href="de/d01/classO2MessageMonitor.html" target="_top" xlink:title="O2MessageMonitor">
<polygon fill="none" stroke="black" points="340.5,-462.5 340.5,-481.5 441.5,-481.5 441.5,-462.5 340.5,-462.5"/>
<text text-anchor="middle" x="391" y="-469.5" font-family="Helvetica,sans-Serif" font-size="10.00">O2MessageMonitor</text>
</a>
</g>
</g>
<!-- Node4&#45;&gt;Node12 -->
<g id="edge11" class="edge"><title>Node4&#45;&gt;Node12</title>
<path fill="none" stroke="midnightblue" d="M256.024,-630.617C261.909,-627.93 267.391,-624.463 272,-620 314.456,-578.892 265.489,-533.051 308,-492 316.749,-483.551 328.444,-478.479 340.256,-475.481"/>
<polygon fill="midnightblue" stroke="midnightblue" points="254.62,-627.406 246.514,-634.228 257.105,-633.951 254.62,-627.406"/>
</g>
</g>
</svg>
