<?xml version="1.0" encoding="UTF-8" standalone="no"?>
<!DOCTYPE svg PUBLIC "-//W3C//DTD SVG 1.1//EN"
 "http://www.w3.org/Graphics/SVG/1.1/DTD/svg11.dtd">
<!-- Generated by graphviz version 2.36.0 (20140111.2315)
 -->
<!-- Title: Graphical Class Hierarchy Pages: 1 -->
<svg width="534pt" height="283pt"
 viewBox="0.00 0.00 534.00 283.00" xmlns="http://www.w3.org/2000/svg" xmlns:xlink="http://www.w3.org/1999/xlink">
<g id="graph0" class="graph" transform="scale(1 1) rotate(0) translate(4 279)">
<title>Graphical Class Hierarchy</title>
<!-- Node1 -->
<g id="node1" class="node"><title>Node1</title>
<g id="a_node1"><a xlink:href="d6/d14/classo2_1_1conf_1_1ConfigurableParam.html" target="_top" xlink:title="o2::conf::ConfigurableParam">
<polygon fill="none" stroke="black" points="0.5,-127.5 0.5,-146.5 141.5,-146.5 141.5,-127.5 0.5,-127.5"/>
<text text-anchor="middle" x="71" y="-134.5" font-family="Helvetica,sans-Serif" font-size="10.00">o2::conf::ConfigurableParam</text>
</a>
</g>
</g>
<!-- Node2 -->
<g id="node2" class="node"><title>Node2</title>
<g id="a_node2"><a xlink:href="d7/d50/classo2_1_1conf_1_1ConfigurableParamHelper.html" target="_top" xlink:title="o2::conf::ConfigurableParam\lHelper\&lt; BazParam \&gt;">
<polygon fill="none" stroke="black" points="195.5,-245 195.5,-275 336.5,-275 336.5,-245 195.5,-245"/>
<text text-anchor="start" x="203.5" y="-263" font-family="Helvetica,sans-Serif" font-size="10.00">o2::conf::ConfigurableParam</text>
<text text-anchor="middle" x="266" y="-252" font-family="Helvetica,sans-Serif" font-size="10.00">Helper&lt; BazParam &gt;</text>
</a>
</g>
</g>
<!-- Node1&#45;&gt;Node2 -->
<g id="edge1" class="edge"><title>Node1&#45;&gt;Node2</title>
<path fill="none" stroke="midnightblue" d="M86.279,-154.502C105.083,-176.433 140.216,-213.716 178,-235 184.846,-238.857 192.337,-242.16 199.959,-244.98"/>
<polygon fill="midnightblue" stroke="midnightblue" points="88.7978,-152.059 79.6858,-146.653 83.438,-156.562 88.7978,-152.059"/>
</g>
<!-- Node4 -->
<g id="node4" class="node"><title>Node4</title>
<g id="a_node4"><a xlink:href="d7/d50/classo2_1_1conf_1_1ConfigurableParamHelper.html" target="_top" xlink:title="o2::conf::ConfigurableParam\lHelper\&lt; HallSimParam \&gt;">
<polygon fill="none" stroke="black" points="195.5,-196 195.5,-226 336.5,-226 336.5,-196 195.5,-196"/>
<text text-anchor="start" x="203.5" y="-214" font-family="Helvetica,sans-Serif" font-size="10.00">o2::conf::ConfigurableParam</text>
<text text-anchor="middle" x="266" y="-203" font-family="Helvetica,sans-Serif" font-size="10.00">Helper&lt; HallSimParam &gt;</text>
</a>
</g>
</g>
<!-- Node1&#45;&gt;Node4 -->
<g id="edge3" class="edge"><title>Node1&#45;&gt;Node4</title>
<path fill="none" stroke="midnightblue" d="M99.4244,-151.091C120.541,-161.592 150.649,-175.817 178,-186 187.573,-189.564 197.894,-192.93 207.965,-195.969"/>
<polygon fill="midnightblue" stroke="midnightblue" points="100.904,-147.918 90.3973,-146.556 97.7619,-154.173 100.904,-147.918"/>
</g>
<!-- Node6 -->
<g id="node6" class="node"><title>Node6</title>
<g id="a_node6"><a xlink:href="d7/d50/classo2_1_1conf_1_1ConfigurableParamHelper.html" target="_top" xlink:title="o2::conf::ConfigurableParam\lHelper\&lt; InteractionDiamondParam \&gt;">
<polygon fill="none" stroke="black" points="178,-147 178,-177 354,-177 354,-147 178,-147"/>
<text text-anchor="start" x="186" y="-165" font-family="Helvetica,sans-Serif" font-size="10.00">o2::conf::ConfigurableParam</text>
<text text-anchor="middle" x="266" y="-154" font-family="Helvetica,sans-Serif" font-size="10.00">Helper&lt; InteractionDiamondParam &gt;</text>
</a>
</g>
</g>
<!-- Node1&#45;&gt;Node6 -->
<g id="edge5" class="edge"><title>Node1&#45;&gt;Node6</title>
<path fill="none" stroke="midnightblue" d="M151.728,-147.327C160.376,-148.448 169.21,-149.592 177.94,-150.723"/>
<polygon fill="midnightblue" stroke="midnightblue" points="152.044,-143.839 141.677,-146.026 151.145,-150.781 152.044,-143.839"/>
</g>
<!-- Node8 -->
<g id="node8" class="node"><title>Node8</title>
<g id="a_node8"><a xlink:href="d7/d50/classo2_1_1conf_1_1ConfigurableParamHelper.html" target="_top" xlink:title="o2::conf::ConfigurableParam\lHelper\&lt; SimCutParams \&gt;">
<polygon fill="none" stroke="black" points="195.5,-98 195.5,-128 336.5,-128 336.5,-98 195.5,-98"/>
<text text-anchor="start" x="203.5" y="-116" font-family="Helvetica,sans-Serif" font-size="10.00">o2::conf::ConfigurableParam</text>
<text text-anchor="middle" x="266" y="-105" font-family="Helvetica,sans-Serif" font-size="10.00">Helper&lt; SimCutParams &gt;</text>
</a>
</g>
</g>
<!-- Node1&#45;&gt;Node8 -->
<g id="edge7" class="edge"><title>Node1&#45;&gt;Node8</title>
<path fill="none" stroke="midnightblue" d="M151.634,-127.097C166.162,-125.291 181.217,-123.419 195.425,-121.652"/>
<polygon fill="midnightblue" stroke="midnightblue" points="151.169,-123.628 141.677,-128.335 152.033,-130.575 151.169,-123.628"/>
</g>
<!-- Node10 -->
<g id="node10" class="node"><title>Node10</title>
<g id="a_node10"><a xlink:href="d7/d50/classo2_1_1conf_1_1ConfigurableParamHelper.html" target="_top" xlink:title="o2::conf::ConfigurableParam\lHelper\&lt; StackParam \&gt;">
<polygon fill="none" stroke="black" points="195.5,-49 195.5,-79 336.5,-79 336.5,-49 195.5,-49"/>
<text text-anchor="start" x="203.5" y="-67" font-family="Helvetica,sans-Serif" font-size="10.00">o2::conf::ConfigurableParam</text>
<text text-anchor="middle" x="266" y="-56" font-family="Helvetica,sans-Serif" font-size="10.00">Helper&lt; StackParam &gt;</text>
</a>
</g>
</g>
<!-- Node1&#45;&gt;Node10 -->
<g id="edge9" class="edge"><title>Node1&#45;&gt;Node10</title>
<path fill="none" stroke="midnightblue" d="M99.8407,-123.048C120.954,-112.799 150.872,-98.9799 178,-89 187.587,-85.4732 197.914,-82.1257 207.988,-79.0937"/>
<polygon fill="midnightblue" stroke="midnightblue" points="98.2397,-119.935 90.801,-127.479 101.321,-126.22 98.2397,-119.935"/>
</g>
<!-- Node12 -->
<g id="node12" class="node"><title>Node12</title>
<g id="a_node12"><a xlink:href="d7/d50/classo2_1_1conf_1_1ConfigurableParamHelper.html" target="_top" xlink:title="o2::conf::ConfigurableParam\lHelper\&lt; P \&gt;">
<polygon fill="none" stroke="black" points="195.5,-0 195.5,-30 336.5,-30 336.5,-0 195.5,-0"/>
<text text-anchor="start" x="203.5" y="-18" font-family="Helvetica,sans-Serif" font-size="10.00">o2::conf::ConfigurableParam</text>
<text text-anchor="middle" x="266" y="-7" font-family="Helvetica,sans-Serif" font-size="10.00">Helper&lt; P &gt;</text>
</a>
</g>
</g>
<!-- Node1&#45;&gt;Node12 -->
<g id="edge11" class="edge"><title>Node1&#45;&gt;Node12</title>
<path fill="none" stroke="midnightblue" d="M86.3178,-119.683C105.163,-97.9832 140.339,-61.0882 178,-40 184.856,-36.1609 192.353,-32.8678 199.978,-30.0539"/>
<polygon fill="midnightblue" stroke="midnightblue" points="83.5245,-117.565 79.7087,-127.449 88.8553,-122.102 83.5245,-117.565"/>
</g>
<!-- Node3 -->
<g id="node3" class="node"><title>Node3</title>
<g id="a_node3"><a xlink:href="df/d57/classBazParam.html" target="_top" xlink:title="BazParam">
<polygon fill="none" stroke="black" points="427,-250.5 427,-269.5 489,-269.5 489,-250.5 427,-250.5"/>
<text text-anchor="middle" x="458" y="-257.5" font-family="Helvetica,sans-Serif" font-size="10.00">BazParam</text>
</a>
</g>
</g>
<!-- Node2&#45;&gt;Node3 -->
<g id="edge2" class="edge"><title>Node2&#45;&gt;Node3</title>
<path fill="none" stroke="midnightblue" d="M346.937,-260C375.079,-260 405.03,-260 426.572,-260"/>
<polygon fill="midnightblue" stroke="midnightblue" points="346.67,-256.5 336.67,-260 346.67,-263.5 346.67,-256.5"/>
</g>
<!-- Node5 -->
<g id="node5" class="node"><title>Node5</title>
<g id="a_node5"><a xlink:href="da/d14/structo2_1_1passive_1_1HallSimParam.html" target="_top" xlink:title="o2::passive::HallSimParam">
<polygon fill="none" stroke="black" points="390,-201.5 390,-220.5 526,-220.5 526,-201.5 390,-201.5"/>
<text text-anchor="middle" x="458" y="-208.5" font-family="Helvetica,sans-Serif" font-size="10.00">o2::passive::HallSimParam</text>
</a>
</g>
</g>
<!-- Node4&#45;&gt;Node5 -->
<g id="edge4" class="edge"><title>Node4&#45;&gt;Node5</title>
<path fill="none" stroke="midnightblue" d="M346.968,-211C361.249,-211 375.995,-211 389.871,-211"/>
<polygon fill="midnightblue" stroke="midnightblue" points="346.67,-207.5 336.67,-211 346.67,-214.5 346.67,-207.5"/>
</g>
<!-- Node7 -->
<g id="node7" class="node"><title>Node7</title>
<g id="a_node7"><a xlink:href="d4/dcf/structo2_1_1eventgen_1_1InteractionDiamondParam.html" target="_top" xlink:title="o2::eventgen::Interaction\lDiamondParam">
<polygon fill="none" stroke="black" points="395.5,-147 395.5,-177 520.5,-177 520.5,-147 395.5,-147"/>
<text text-anchor="start" x="403.5" y="-165" font-family="Helvetica,sans-Serif" font-size="10.00">o2::eventgen::Interaction</text>
<text text-anchor="middle" x="458" y="-154" font-family="Helvetica,sans-Serif" font-size="10.00">DiamondParam</text>
</a>
</g>
</g>
<!-- Node6&#45;&gt;Node7 -->
<g id="edge6" class="edge"><title>Node6&#45;&gt;Node7</title>
<path fill="none" stroke="midnightblue" d="M364.302,-162C374.828,-162 385.317,-162 395.251,-162"/>
<polygon fill="midnightblue" stroke="midnightblue" points="364.215,-158.5 354.215,-162 364.215,-165.5 364.215,-158.5"/>
</g>
<!-- Node9 -->
<g id="node9" class="node"><title>Node9</title>
<g id="a_node9"><a xlink:href="d7/d2f/structo2_1_1conf_1_1SimCutParams.html" target="_top" xlink:title="o2::conf::SimCutParams">
<polygon fill="none" stroke="black" points="395.5,-103.5 395.5,-122.5 520.5,-122.5 520.5,-103.5 395.5,-103.5"/>
<text text-anchor="middle" x="458" y="-110.5" font-family="Helvetica,sans-Serif" font-size="10.00">o2::conf::SimCutParams</text>
</a>
</g>
</g>
<!-- Node8&#45;&gt;Node9 -->
<g id="edge8" class="edge"><title>Node8&#45;&gt;Node9</title>
<path fill="none" stroke="midnightblue" d="M346.724,-113C363.029,-113 379.949,-113 395.497,-113"/>
<polygon fill="midnightblue" stroke="midnightblue" points="346.67,-109.5 336.67,-113 346.67,-116.5 346.67,-109.5"/>
</g>
<!-- Node11 -->
<g id="node11" class="node"><title>Node11</title>
<g id="a_node11"><a xlink:href="da/d0d/structo2_1_1sim_1_1StackParam.html" target="_top" xlink:title="o2::sim::StackParam">
<polygon fill="none" stroke="black" points="403.5,-54.5 403.5,-73.5 512.5,-73.5 512.5,-54.5 403.5,-54.5"/>
<text text-anchor="middle" x="458" y="-61.5" font-family="Helvetica,sans-Serif" font-size="10.00">o2::sim::StackParam</text>
</a>
</g>
</g>
<!-- Node10&#45;&gt;Node11 -->
<g id="edge10" class="edge"><title>Node10&#45;&gt;Node11</title>
<path fill="none" stroke="midnightblue" d="M346.856,-64C365.933,-64 385.846,-64 403.411,-64"/>
<polygon fill="midnightblue" stroke="midnightblue" points="346.67,-60.5001 336.67,-64 346.67,-67.5001 346.67,-60.5001"/>
</g>
</g>
</svg>
