<?xml version="1.0" encoding="UTF-8" standalone="no"?>
<!DOCTYPE svg PUBLIC "-//W3C//DTD SVG 1.1//EN"
 "http://www.w3.org/Graphics/SVG/1.1/DTD/svg11.dtd">
<!-- Generated by graphviz version 2.36.0 (20140111.2315)
 -->
<!-- Title: /home/travis/build/AliceO2Group/AliceO2/Framework/Utils/include/Utils/RootTreeWriter.h Pages: 1 -->
<svg width="939pt" height="332pt"
 viewBox="0.00 0.00 939.00 332.00" xmlns="http://www.w3.org/2000/svg" xmlns:xlink="http://www.w3.org/1999/xlink">
<g id="graph0" class="graph" transform="scale(1 1) rotate(0) translate(4 328)">
<title>/home/travis/build/AliceO2Group/AliceO2/Framework/Utils/include/Utils/RootTreeWriter.h</title>
<!-- Node1 -->
<g id="node1" class="node"><title>Node1</title>
<polygon fill="#bfbfbf" stroke="black" points="166.5,-271 166.5,-323 291.5,-323 291.5,-271 166.5,-271"/>
<text text-anchor="start" x="174.5" y="-311" font-family="Helvetica,sans-Serif" font-size="10.00">/home/travis/build</text>
<text text-anchor="start" x="174.5" y="-300" font-family="Helvetica,sans-Serif" font-size="10.00">/AliceO2Group/AliceO2</text>
<text text-anchor="start" x="174.5" y="-289" font-family="Helvetica,sans-Serif" font-size="10.00">/Framework/Utils/include</text>
<text text-anchor="middle" x="229" y="-278" font-family="Helvetica,sans-Serif" font-size="10.00">/Utils/RootTreeWriter.h</text>
</g>
<!-- Node2 -->
<g id="node2" class="node"><title>Node2</title>
<g id="a_node2"><a xlink:href="../../d5/dc8/MakeRootTreeWriterSpec_8h.html" target="_top" xlink:title="Configurable generator for RootTreeWriter processor spec. ">
<polygon fill="none" stroke="black" points="318,-181 318,-233 482,-233 482,-181 318,-181"/>
<text text-anchor="start" x="326" y="-221" font-family="Helvetica,sans-Serif" font-size="10.00">/home/travis/build</text>
<text text-anchor="start" x="326" y="-210" font-family="Helvetica,sans-Serif" font-size="10.00">/AliceO2Group/AliceO2</text>
<text text-anchor="start" x="326" y="-199" font-family="Helvetica,sans-Serif" font-size="10.00">/Framework/Utils/include</text>
<text text-anchor="middle" x="400" y="-188" font-family="Helvetica,sans-Serif" font-size="10.00">/Utils/MakeRootTreeWriterSpec.h</text>
</a>
</g>
</g>
<!-- Node1&#45;&gt;Node2 -->
<g id="edge1" class="edge"><title>Node1&#45;&gt;Node2</title>
<path fill="none" stroke="midnightblue" d="M287.092,-266.105C307.971,-255.36 331.288,-243.361 351.287,-233.069"/>
<polygon fill="midnightblue" stroke="midnightblue" points="285.292,-263.095 278.002,-270.783 288.495,-269.319 285.292,-263.095"/>
</g>
<!-- Node4 -->
<g id="node4" class="node"><title>Node4</title>
<g id="a_node4"><a xlink:href="../../da/dcf/test__RootTreeWriter_8cxx.html" target="_top" xlink:title="/home/travis/build\l/AliceO2Group/AliceO2\l/Framework/Utils/test\l/test_RootTreeWriter.cxx">
<polygon fill="none" stroke="black" points="-0.5,-91 -0.5,-143 126.5,-143 126.5,-91 -0.5,-91"/>
<text text-anchor="start" x="7.5" y="-131" font-family="Helvetica,sans-Serif" font-size="10.00">/home/travis/build</text>
<text text-anchor="start" x="7.5" y="-120" font-family="Helvetica,sans-Serif" font-size="10.00">/AliceO2Group/AliceO2</text>
<text text-anchor="start" x="7.5" y="-109" font-family="Helvetica,sans-Serif" font-size="10.00">/Framework/Utils/test</text>
<text text-anchor="middle" x="63" y="-98" font-family="Helvetica,sans-Serif" font-size="10.00">/test_RootTreeWriter.cxx</text>
</a>
</g>
</g>
<!-- Node1&#45;&gt;Node4 -->
<g id="edge11" class="edge"><title>Node1&#45;&gt;Node4</title>
<path fill="none" stroke="midnightblue" d="M198.571,-263.371C166.291,-228.758 115.981,-174.811 86.5806,-143.285"/>
<polygon fill="midnightblue" stroke="midnightblue" points="196.188,-265.948 205.568,-270.874 201.308,-261.174 196.188,-265.948"/>
</g>
<!-- Node5 -->
<g id="node5" class="node"><title>Node5</title>
<g id="a_node5"><a xlink:href="../../d1/d02/test__RootTreeWriterWorkflow_8cxx.html" target="_top" xlink:title="/home/travis/build\l/AliceO2Group/AliceO2\l/Framework/Utils/test\l/test_RootTreeWriterWorkflow.cxx">
<polygon fill="none" stroke="black" points="145,-91 145,-143 313,-143 313,-91 145,-91"/>
<text text-anchor="start" x="153" y="-131" font-family="Helvetica,sans-Serif" font-size="10.00">/home/travis/build</text>
<text text-anchor="start" x="153" y="-120" font-family="Helvetica,sans-Serif" font-size="10.00">/AliceO2Group/AliceO2</text>
<text text-anchor="start" x="153" y="-109" font-family="Helvetica,sans-Serif" font-size="10.00">/Framework/Utils/test</text>
<text text-anchor="middle" x="229" y="-98" font-family="Helvetica,sans-Serif" font-size="10.00">/test_RootTreeWriterWorkflow.cxx</text>
</a>
</g>
</g>
<!-- Node1&#45;&gt;Node5 -->
<g id="edge12" class="edge"><title>Node1&#45;&gt;Node5</title>
<path fill="none" stroke="midnightblue" d="M229,-260.717C229,-226.052 229,-174.016 229,-143.285"/>
<polygon fill="midnightblue" stroke="midnightblue" points="225.5,-260.874 229,-270.874 232.5,-260.875 225.5,-260.874"/>
</g>
<!-- Node3 -->
<g id="node3" class="node"><title>Node3</title>
<g id="a_node3"><a xlink:href="../../d0/d80/TPC_2workflow_2src_2RecoWorkflow_8cxx.html" target="_top" xlink:title="/home/travis/build\l/AliceO2Group/AliceO2\l/Detectors/TPC/workflow\l/src/RecoWorkflow.cxx">
<polygon fill="none" stroke="black" points="639,-91 639,-143 767,-143 767,-91 639,-91"/>
<text text-anchor="start" x="647" y="-131" font-family="Helvetica,sans-Serif" font-size="10.00">/home/travis/build</text>
<text text-anchor="start" x="647" y="-120" font-family="Helvetica,sans-Serif" font-size="10.00">/AliceO2Group/AliceO2</text>
<text text-anchor="start" x="647" y="-109" font-family="Helvetica,sans-Serif" font-size="10.00">/Detectors/TPC/workflow</text>
<text text-anchor="middle" x="703" y="-98" font-family="Helvetica,sans-Serif" font-size="10.00">/src/RecoWorkflow.cxx</text>
</a>
</g>
</g>
<!-- Node2&#45;&gt;Node3 -->
<g id="edge2" class="edge"><title>Node2&#45;&gt;Node3</title>
<path fill="none" stroke="midnightblue" d="M491.873,-183.008C534.162,-171.971 584.863,-158.098 630,-144 632.825,-143.118 635.704,-142.195 638.606,-141.245"/>
<polygon fill="midnightblue" stroke="midnightblue" points="490.948,-179.631 482.15,-185.534 492.709,-186.406 490.948,-179.631"/>
</g>
<!-- Node2&#45;&gt;Node4 -->
<g id="edge3" class="edge"><title>Node2&#45;&gt;Node4</title>
<path fill="none" stroke="midnightblue" d="M307.899,-187.013C256.879,-175.836 192.524,-160.647 136,-144 132.903,-143.088 129.745,-142.118 126.564,-141.11"/>
<polygon fill="midnightblue" stroke="midnightblue" points="307.403,-190.487 317.919,-189.194 308.892,-183.647 307.403,-190.487"/>
</g>
<!-- Node2&#45;&gt;Node5 -->
<g id="edge4" class="edge"><title>Node2&#45;&gt;Node5</title>
<path fill="none" stroke="midnightblue" d="M341.908,-176.105C321.029,-165.36 297.712,-153.361 277.713,-143.069"/>
<polygon fill="midnightblue" stroke="midnightblue" points="340.505,-179.319 350.998,-180.783 343.708,-173.095 340.505,-179.319"/>
</g>
<!-- Node6 -->
<g id="node6" class="node"><title>Node6</title>
<g id="a_node6"><a xlink:href="../../d5/d5b/HMPIDDigitWriterSpec_8h.html" target="_top" xlink:title="/home/travis/build\l/AliceO2Group/AliceO2\l/Steer/DigitizerWorkflow\l/src/HMPIDDigitWriterSpec.h">
<polygon fill="none" stroke="black" points="785,-91 785,-143 931,-143 931,-91 785,-91"/>
<text text-anchor="start" x="793" y="-131" font-family="Helvetica,sans-Serif" font-size="10.00">/home/travis/build</text>
<text text-anchor="start" x="793" y="-120" font-family="Helvetica,sans-Serif" font-size="10.00">/AliceO2Group/AliceO2</text>
<text text-anchor="start" x="793" y="-109" font-family="Helvetica,sans-Serif" font-size="10.00">/Steer/DigitizerWorkflow</text>
<text text-anchor="middle" x="858" y="-98" font-family="Helvetica,sans-Serif" font-size="10.00">/src/HMPIDDigitWriterSpec.h</text>
</a>
</g>
</g>
<!-- Node2&#45;&gt;Node6 -->
<g id="edge5" class="edge"><title>Node2&#45;&gt;Node6</title>
<path fill="none" stroke="midnightblue" d="M492.189,-194.564C568.763,-184.167 680.254,-166.947 776,-144 778.905,-143.304 781.856,-142.558 784.829,-141.774"/>
<polygon fill="midnightblue" stroke="midnightblue" points="491.534,-191.12 482.09,-195.923 492.468,-198.058 491.534,-191.12"/>
</g>
<!-- Node8 -->
<g id="node8" class="node"><title>Node8</title>
<g id="a_node8"><a xlink:href="../../d8/d60/MCHDigitWriterSpec_8h.html" target="_top" xlink:title="/home/travis/build\l/AliceO2Group/AliceO2\l/Steer/DigitizerWorkflow\l/src/MCHDigitWriterSpec.h">
<polygon fill="none" stroke="black" points="331.5,-91 331.5,-143 468.5,-143 468.5,-91 331.5,-91"/>
<text text-anchor="start" x="339.5" y="-131" font-family="Helvetica,sans-Serif" font-size="10.00">/home/travis/build</text>
<text text-anchor="start" x="339.5" y="-120" font-family="Helvetica,sans-Serif" font-size="10.00">/AliceO2Group/AliceO2</text>
<text text-anchor="start" x="339.5" y="-109" font-family="Helvetica,sans-Serif" font-size="10.00">/Steer/DigitizerWorkflow</text>
<text text-anchor="middle" x="400" y="-98" font-family="Helvetica,sans-Serif" font-size="10.00">/src/MCHDigitWriterSpec.h</text>
</a>
</g>
</g>
<!-- Node2&#45;&gt;Node8 -->
<g id="edge7" class="edge"><title>Node2&#45;&gt;Node8</title>
<path fill="none" stroke="midnightblue" d="M400,-170.489C400,-161.309 400,-151.616 400,-143.092"/>
<polygon fill="midnightblue" stroke="midnightblue" points="396.5,-170.547 400,-180.547 403.5,-170.547 396.5,-170.547"/>
</g>
<!-- Node9 -->
<g id="node9" class="node"><title>Node9</title>
<g id="a_node9"><a xlink:href="../../da/d27/TRDDigitWriterSpec_8h.html" target="_top" xlink:title="/home/travis/build\l/AliceO2Group/AliceO2\l/Steer/DigitizerWorkflow\l/src/TRDDigitWriterSpec.h">
<polygon fill="none" stroke="black" points="487,-91 487,-143 621,-143 621,-91 487,-91"/>
<text text-anchor="start" x="495" y="-131" font-family="Helvetica,sans-Serif" font-size="10.00">/home/travis/build</text>
<text text-anchor="start" x="495" y="-120" font-family="Helvetica,sans-Serif" font-size="10.00">/AliceO2Group/AliceO2</text>
<text text-anchor="start" x="495" y="-109" font-family="Helvetica,sans-Serif" font-size="10.00">/Steer/DigitizerWorkflow</text>
<text text-anchor="middle" x="554" y="-98" font-family="Helvetica,sans-Serif" font-size="10.00">/src/TRDDigitWriterSpec.h</text>
</a>
</g>
</g>
<!-- Node2&#45;&gt;Node9 -->
<g id="edge9" class="edge"><title>Node2&#45;&gt;Node9</title>
<path fill="none" stroke="midnightblue" d="M452.823,-175.815C471.496,-165.145 492.28,-153.268 510.13,-143.069"/>
<polygon fill="midnightblue" stroke="midnightblue" points="451.076,-172.782 444.13,-180.783 454.549,-178.86 451.076,-172.782"/>
</g>
<!-- Node7 -->
<g id="node7" class="node"><title>Node7</title>
<g id="a_node7"><a xlink:href="../../d2/dd7/SimpleDigitizerWorkflow_8cxx.html" target="_top" xlink:title="/home/travis/build\l/AliceO2Group/AliceO2\l/Steer/DigitizerWorkflow\l/src/SimpleDigitizerWorkflow.cxx">
<polygon fill="none" stroke="black" points="473,-1 473,-53 635,-53 635,-1 473,-1"/>
<text text-anchor="start" x="481" y="-41" font-family="Helvetica,sans-Serif" font-size="10.00">/home/travis/build</text>
<text text-anchor="start" x="481" y="-30" font-family="Helvetica,sans-Serif" font-size="10.00">/AliceO2Group/AliceO2</text>
<text text-anchor="start" x="481" y="-19" font-family="Helvetica,sans-Serif" font-size="10.00">/Steer/DigitizerWorkflow</text>
<text text-anchor="middle" x="554" y="-8" font-family="Helvetica,sans-Serif" font-size="10.00">/src/SimpleDigitizerWorkflow.cxx</text>
</a>
</g>
</g>
<!-- Node6&#45;&gt;Node7 -->
<g id="edge6" class="edge"><title>Node6&#45;&gt;Node7</title>
<path fill="none" stroke="midnightblue" d="M775.047,-89.7479C723.413,-74.4349 674.781,-60.8226 635.123,-49.9295"/>
<polygon fill="midnightblue" stroke="midnightblue" points="774.138,-93.1292 784.721,-92.6267 776.135,-86.4199 774.138,-93.1292"/>
</g>
<!-- Node8&#45;&gt;Node7 -->
<g id="edge8" class="edge"><title>Node8&#45;&gt;Node7</title>
<path fill="none" stroke="midnightblue" d="M452.823,-85.8154C471.496,-75.1451 492.28,-63.2684 510.13,-53.0687"/>
<polygon fill="midnightblue" stroke="midnightblue" points="451.076,-82.7824 444.13,-90.7827 454.549,-88.8601 451.076,-82.7824"/>
</g>
<!-- Node9&#45;&gt;Node7 -->
<g id="edge10" class="edge"><title>Node9&#45;&gt;Node7</title>
<path fill="none" stroke="midnightblue" d="M554,-80.4892C554,-71.3088 554,-61.616 554,-53.0921"/>
<polygon fill="midnightblue" stroke="midnightblue" points="550.5,-80.5467 554,-90.5468 557.5,-80.5468 550.5,-80.5467"/>
</g>
</g>
</svg>
