<?xml version="1.0" encoding="UTF-8" standalone="no"?>
<!DOCTYPE svg PUBLIC "-//W3C//DTD SVG 1.1//EN"
 "http://www.w3.org/Graphics/SVG/1.1/DTD/svg11.dtd">
<!-- Generated by graphviz version 2.36.0 (20140111.2315)
 -->
<!-- Title: /home/travis/build/AliceO2Group/AliceO2/Detectors/ITSMFT/common/reconstruction/include/ITSMFTReconstruction/PixelReader.h Pages: 1 -->
<svg width="1309pt" height="374pt"
 viewBox="0.00 0.00 1309.00 374.00" xmlns="http://www.w3.org/2000/svg" xmlns:xlink="http://www.w3.org/1999/xlink">
<g id="graph0" class="graph" transform="scale(1 1) rotate(0) translate(4 370)">
<title>/home/travis/build/AliceO2Group/AliceO2/Detectors/ITSMFT/common/reconstruction/include/ITSMFTReconstruction/PixelReader.h</title>
<!-- Node1 -->
<g id="node1" class="node"><title>Node1</title>
<polygon fill="#bfbfbf" stroke="black" points="587,-302.5 587,-365.5 773,-365.5 773,-302.5 587,-302.5"/>
<text text-anchor="start" x="595" y="-353.5" font-family="Helvetica,sans-Serif" font-size="10.00">/home/travis/build</text>
<text text-anchor="start" x="595" y="-342.5" font-family="Helvetica,sans-Serif" font-size="10.00">/AliceO2Group/AliceO2</text>
<text text-anchor="start" x="595" y="-331.5" font-family="Helvetica,sans-Serif" font-size="10.00">/Detectors/ITSMFT/common</text>
<text text-anchor="start" x="595" y="-320.5" font-family="Helvetica,sans-Serif" font-size="10.00">/reconstruction/include</text>
<text text-anchor="middle" x="680" y="-309.5" font-family="Helvetica,sans-Serif" font-size="10.00">/ITSMFTReconstruction/PixelReader.h</text>
</g>
<!-- Node2 -->
<g id="node2" class="node"><title>Node2</title>
<g id="a_node2"><a xlink:href="../../d6/d04/ITSMFT_2common_2reconstruction_2include_2ITSMFTReconstruction_2Clusterer_8h.html" target="_top" xlink:title="/home/travis/build\l/AliceO2Group/AliceO2\l/Detectors/ITSMFT/common\l/reconstruction/include\l/ITSMFTReconstruction/Clusterer.h">
<polygon fill="none" stroke="black" points="357.5,-196.5 357.5,-259.5 530.5,-259.5 530.5,-196.5 357.5,-196.5"/>
<text text-anchor="start" x="365.5" y="-247.5" font-family="Helvetica,sans-Serif" font-size="10.00">/home/travis/build</text>
<text text-anchor="start" x="365.5" y="-236.5" font-family="Helvetica,sans-Serif" font-size="10.00">/AliceO2Group/AliceO2</text>
<text text-anchor="start" x="365.5" y="-225.5" font-family="Helvetica,sans-Serif" font-size="10.00">/Detectors/ITSMFT/common</text>
<text text-anchor="start" x="365.5" y="-214.5" font-family="Helvetica,sans-Serif" font-size="10.00">/reconstruction/include</text>
<text text-anchor="middle" x="444" y="-203.5" font-family="Helvetica,sans-Serif" font-size="10.00">/ITSMFTReconstruction/Clusterer.h</text>
</a>
</g>
</g>
<!-- Node1&#45;&gt;Node2 -->
<g id="edge1" class="edge"><title>Node1&#45;&gt;Node2</title>
<path fill="none" stroke="midnightblue" d="M601.267,-298.304C572.771,-285.747 540.828,-271.67 513.212,-259.5"/>
<polygon fill="midnightblue" stroke="midnightblue" points="600.225,-301.669 610.787,-302.499 603.047,-295.264 600.225,-301.669"/>
</g>
<!-- Node4 -->
<g id="node4" class="node"><title>Node4</title>
<g id="a_node4"><a xlink:href="../../d6/d67/ITSMFT_2ITS_2reconstruction_2include_2ITSReconstruction_2ClustererTask_8h.html" target="_top" xlink:title="/home/travis/build\l/AliceO2Group/AliceO2\l/Detectors/ITSMFT/ITS\l/reconstruction/include\l/ITSReconstruction/ClustererTask.h">
<polygon fill="none" stroke="black" points="472,-90.5 472,-153.5 646,-153.5 646,-90.5 472,-90.5"/>
<text text-anchor="start" x="480" y="-141.5" font-family="Helvetica,sans-Serif" font-size="10.00">/home/travis/build</text>
<text text-anchor="start" x="480" y="-130.5" font-family="Helvetica,sans-Serif" font-size="10.00">/AliceO2Group/AliceO2</text>
<text text-anchor="start" x="480" y="-119.5" font-family="Helvetica,sans-Serif" font-size="10.00">/Detectors/ITSMFT/ITS</text>
<text text-anchor="start" x="480" y="-108.5" font-family="Helvetica,sans-Serif" font-size="10.00">/reconstruction/include</text>
<text text-anchor="middle" x="559" y="-97.5" font-family="Helvetica,sans-Serif" font-size="10.00">/ITSReconstruction/ClustererTask.h</text>
</a>
</g>
</g>
<!-- Node1&#45;&gt;Node4 -->
<g id="edge25" class="edge"><title>Node1&#45;&gt;Node4</title>
<path fill="none" stroke="midnightblue" d="M615.201,-296.255C604.403,-287.579 594.344,-277.46 587,-266 565.092,-231.815 559.649,-184.285 558.636,-153.582"/>
<polygon fill="midnightblue" stroke="midnightblue" points="613.089,-299.046 623.166,-302.317 617.328,-293.475 613.089,-299.046"/>
</g>
<!-- Node11 -->
<g id="node11" class="node"><title>Node11</title>
<g id="a_node11"><a xlink:href="../../db/d12/ITSMFT_2MFT_2reconstruction_2include_2MFTReconstruction_2ClustererTask_8h.html" target="_top" xlink:title="/home/travis/build\l/AliceO2Group/AliceO2\l/Detectors/ITSMFT/MFT\l/reconstruction/include\l/MFTReconstruction/ClustererTask.h">
<polygon fill="none" stroke="black" points="875.5,-90.5 875.5,-153.5 1054.5,-153.5 1054.5,-90.5 875.5,-90.5"/>
<text text-anchor="start" x="883.5" y="-141.5" font-family="Helvetica,sans-Serif" font-size="10.00">/home/travis/build</text>
<text text-anchor="start" x="883.5" y="-130.5" font-family="Helvetica,sans-Serif" font-size="10.00">/AliceO2Group/AliceO2</text>
<text text-anchor="start" x="883.5" y="-119.5" font-family="Helvetica,sans-Serif" font-size="10.00">/Detectors/ITSMFT/MFT</text>
<text text-anchor="start" x="883.5" y="-108.5" font-family="Helvetica,sans-Serif" font-size="10.00">/reconstruction/include</text>
<text text-anchor="middle" x="965" y="-97.5" font-family="Helvetica,sans-Serif" font-size="10.00">/MFTReconstruction/ClustererTask.h</text>
</a>
</g>
</g>
<!-- Node1&#45;&gt;Node11 -->
<g id="edge26" class="edge"><title>Node1&#45;&gt;Node11</title>
<path fill="none" stroke="midnightblue" d="M733.391,-296.188C746.318,-286.715 759.894,-276.283 772,-266 808.648,-234.871 810.759,-219.15 849,-190 866.386,-176.747 886.644,-164.193 905.321,-153.612"/>
<polygon fill="midnightblue" stroke="midnightblue" points="731.052,-293.56 725.011,-302.264 735.161,-299.228 731.052,-293.56"/>
</g>
<!-- Node15 -->
<g id="node15" class="node"><title>Node15</title>
<g id="a_node15"><a xlink:href="../../d4/d75/DigitPixelReader_8h.html" target="_top" xlink:title="Definition of the Alpide pixel reader for MC digits processing. ">
<polygon fill="none" stroke="black" points="596.5,-191 596.5,-265 763.5,-265 763.5,-191 596.5,-191"/>
<text text-anchor="start" x="604.5" y="-253" font-family="Helvetica,sans-Serif" font-size="10.00">/home/travis/build</text>
<text text-anchor="start" x="604.5" y="-242" font-family="Helvetica,sans-Serif" font-size="10.00">/AliceO2Group/AliceO2</text>
<text text-anchor="start" x="604.5" y="-231" font-family="Helvetica,sans-Serif" font-size="10.00">/Detectors/ITSMFT/common</text>
<text text-anchor="start" x="604.5" y="-220" font-family="Helvetica,sans-Serif" font-size="10.00">/reconstruction/include</text>
<text text-anchor="start" x="604.5" y="-209" font-family="Helvetica,sans-Serif" font-size="10.00">/ITSMFTReconstruction/DigitPixel</text>
<text text-anchor="middle" x="680" y="-198" font-family="Helvetica,sans-Serif" font-size="10.00">Reader.h</text>
</a>
</g>
</g>
<!-- Node1&#45;&gt;Node15 -->
<g id="edge16" class="edge"><title>Node1&#45;&gt;Node15</title>
<path fill="none" stroke="midnightblue" d="M680,-292.209C680,-283.326 680,-273.986 680,-265.292"/>
<polygon fill="midnightblue" stroke="midnightblue" points="676.5,-292.359 680,-302.359 683.5,-292.359 676.5,-292.359"/>
</g>
<!-- Node17 -->
<g id="node17" class="node"><title>Node17</title>
<g id="a_node17"><a xlink:href="../../dd/db8/RawPixelReader_8h.html" target="_top" xlink:title="Definition of the Alpide pixel reader for raw data processing. ">
<polygon fill="none" stroke="black" points="858,-196.5 858,-259.5 1064,-259.5 1064,-196.5 858,-196.5"/>
<text text-anchor="start" x="866" y="-247.5" font-family="Helvetica,sans-Serif" font-size="10.00">/home/travis/build</text>
<text text-anchor="start" x="866" y="-236.5" font-family="Helvetica,sans-Serif" font-size="10.00">/AliceO2Group/AliceO2</text>
<text text-anchor="start" x="866" y="-225.5" font-family="Helvetica,sans-Serif" font-size="10.00">/Detectors/ITSMFT/common</text>
<text text-anchor="start" x="866" y="-214.5" font-family="Helvetica,sans-Serif" font-size="10.00">/reconstruction/include</text>
<text text-anchor="middle" x="961" y="-203.5" font-family="Helvetica,sans-Serif" font-size="10.00">/ITSMFTReconstruction/RawPixelReader.h</text>
</a>
</g>
</g>
<!-- Node1&#45;&gt;Node17 -->
<g id="edge21" class="edge"><title>Node1&#45;&gt;Node17</title>
<path fill="none" stroke="midnightblue" d="M771.98,-298.958C806.35,-286.237 845.137,-271.882 878.591,-259.5"/>
<polygon fill="midnightblue" stroke="midnightblue" points="770.574,-295.746 762.411,-302.499 773.004,-302.311 770.574,-295.746"/>
</g>
<!-- Node3 -->
<g id="node3" class="node"><title>Node3</title>
<g id="a_node3"><a xlink:href="../../de/d69/ITSMFT_2common_2reconstruction_2src_2Clusterer_8cxx.html" target="_top" xlink:title="/home/travis/build\l/AliceO2Group/AliceO2\l/Detectors/ITSMFT/common\l/reconstruction/src/Clusterer.cxx">
<polygon fill="none" stroke="black" points="7.5,-96 7.5,-148 166.5,-148 166.5,-96 7.5,-96"/>
<text text-anchor="start" x="15.5" y="-136" font-family="Helvetica,sans-Serif" font-size="10.00">/home/travis/build</text>
<text text-anchor="start" x="15.5" y="-125" font-family="Helvetica,sans-Serif" font-size="10.00">/AliceO2Group/AliceO2</text>
<text text-anchor="start" x="15.5" y="-114" font-family="Helvetica,sans-Serif" font-size="10.00">/Detectors/ITSMFT/common</text>
<text text-anchor="middle" x="87" y="-103" font-family="Helvetica,sans-Serif" font-size="10.00">/reconstruction/src/Clusterer.cxx</text>
</a>
</g>
</g>
<!-- Node2&#45;&gt;Node3 -->
<g id="edge2" class="edge"><title>Node2&#45;&gt;Node3</title>
<path fill="none" stroke="midnightblue" d="M347.526,-202.449C296.318,-188.984 232.47,-171.503 176,-154 170.061,-152.159 163.924,-150.182 157.779,-148.149"/>
<polygon fill="midnightblue" stroke="midnightblue" points="346.703,-205.852 357.264,-205.002 348.478,-199.081 346.703,-205.852"/>
</g>
<!-- Node2&#45;&gt;Node4 -->
<g id="edge3" class="edge"><title>Node2&#45;&gt;Node4</title>
<path fill="none" stroke="midnightblue" d="M485.369,-189.588C498.358,-177.841 512.542,-165.014 524.963,-153.781"/>
<polygon fill="midnightblue" stroke="midnightblue" points="482.951,-187.056 477.882,-196.359 487.646,-192.248 482.951,-187.056"/>
</g>
<!-- Node7 -->
<g id="node7" class="node"><title>Node7</title>
<g id="a_node7"><a xlink:href="../../d7/d59/run__clus__itsSA_8C.html" target="_top" xlink:title="/home/travis/build\l/AliceO2Group/AliceO2\l/macro/run_clus_itsSA.C">
<polygon fill="none" stroke="black" points="356,-6.5 356,-47.5 482,-47.5 482,-6.5 356,-6.5"/>
<text text-anchor="start" x="364" y="-35.5" font-family="Helvetica,sans-Serif" font-size="10.00">/home/travis/build</text>
<text text-anchor="start" x="364" y="-24.5" font-family="Helvetica,sans-Serif" font-size="10.00">/AliceO2Group/AliceO2</text>
<text text-anchor="middle" x="419" y="-13.5" font-family="Helvetica,sans-Serif" font-size="10.00">/macro/run_clus_itsSA.C</text>
</a>
</g>
</g>
<!-- Node2&#45;&gt;Node7 -->
<g id="edge14" class="edge"><title>Node2&#45;&gt;Node7</title>
<path fill="none" stroke="midnightblue" d="M435.392,-186.101C433.407,-175.668 431.454,-164.449 430,-154 424.794,-116.592 421.618,-72.5728 420.094,-47.7125"/>
<polygon fill="midnightblue" stroke="midnightblue" points="432.016,-187.072 437.371,-196.214 438.886,-185.728 432.016,-187.072"/>
</g>
<!-- Node8 -->
<g id="node8" class="node"><title>Node8</title>
<g id="a_node8"><a xlink:href="../../d4/dcc/ITSMFT_2ITS_2workflow_2include_2ITSWorkflow_2ClustererSpec_8h.html" target="_top" xlink:title="/home/travis/build\l/AliceO2Group/AliceO2\l/Detectors/ITSMFT/ITS\l/workflow/include/ITSWorkflow\l/ClustererSpec.h">
<polygon fill="none" stroke="black" points="185,-90.5 185,-153.5 337,-153.5 337,-90.5 185,-90.5"/>
<text text-anchor="start" x="193" y="-141.5" font-family="Helvetica,sans-Serif" font-size="10.00">/home/travis/build</text>
<text text-anchor="start" x="193" y="-130.5" font-family="Helvetica,sans-Serif" font-size="10.00">/AliceO2Group/AliceO2</text>
<text text-anchor="start" x="193" y="-119.5" font-family="Helvetica,sans-Serif" font-size="10.00">/Detectors/ITSMFT/ITS</text>
<text text-anchor="start" x="193" y="-108.5" font-family="Helvetica,sans-Serif" font-size="10.00">/workflow/include/ITSWorkflow</text>
<text text-anchor="middle" x="261" y="-97.5" font-family="Helvetica,sans-Serif" font-size="10.00">/ClustererSpec.h</text>
</a>
</g>
</g>
<!-- Node2&#45;&gt;Node8 -->
<g id="edge7" class="edge"><title>Node2&#45;&gt;Node8</title>
<path fill="none" stroke="midnightblue" d="M381.301,-191.368C359.689,-179.085 335.689,-165.446 314.847,-153.601"/>
<polygon fill="midnightblue" stroke="midnightblue" points="379.66,-194.461 390.084,-196.359 383.119,-188.375 379.66,-194.461"/>
</g>
<!-- Node2&#45;&gt;Node11 -->
<g id="edge10" class="edge"><title>Node2&#45;&gt;Node11</title>
<path fill="none" stroke="midnightblue" d="M540.64,-200.253C556.074,-196.486 571.922,-192.912 587,-190 709.76,-166.295 743.874,-180.783 866,-154 869.079,-153.325 872.199,-152.597 875.341,-151.827"/>
<polygon fill="midnightblue" stroke="midnightblue" points="539.433,-196.946 530.57,-202.751 541.119,-203.74 539.433,-196.946"/>
</g>
<!-- Node14 -->
<g id="node14" class="node"><title>Node14</title>
<g id="a_node14"><a xlink:href="../../d7/d8c/run__clus__mftSA_8C.html" target="_top" xlink:title="/home/travis/build\l/AliceO2Group/AliceO2\l/macro/run_clus_mftSA.C">
<polygon fill="none" stroke="black" points="636,-6.5 636,-47.5 766,-47.5 766,-6.5 636,-6.5"/>
<text text-anchor="start" x="644" y="-35.5" font-family="Helvetica,sans-Serif" font-size="10.00">/home/travis/build</text>
<text text-anchor="start" x="644" y="-24.5" font-family="Helvetica,sans-Serif" font-size="10.00">/AliceO2Group/AliceO2</text>
<text text-anchor="middle" x="701" y="-13.5" font-family="Helvetica,sans-Serif" font-size="10.00">/macro/run_clus_mftSA.C</text>
</a>
</g>
</g>
<!-- Node2&#45;&gt;Node14 -->
<g id="edge15" class="edge"><title>Node2&#45;&gt;Node14</title>
<path fill="none" stroke="midnightblue" d="M438.266,-186.15C436.428,-155.823 439.449,-115.47 463,-90 513.662,-35.2083 555.22,-74.4063 627,-54 633.811,-52.0637 640.908,-49.8413 647.894,-47.5288"/>
<polygon fill="midnightblue" stroke="midnightblue" points="434.801,-186.731 439.093,-196.417 441.779,-186.169 434.801,-186.731"/>
</g>
<!-- Node5 -->
<g id="node5" class="node"><title>Node5</title>
<g id="a_node5"><a xlink:href="../../d8/d95/ITSMFT_2ITS_2reconstruction_2src_2ClustererTask_8cxx.html" target="_top" xlink:title="/home/travis/build\l/AliceO2Group/AliceO2\l/Detectors/ITSMFT/ITS\l/reconstruction/src/ClustererTask.cxx">
<polygon fill="none" stroke="black" points="784.5,-1 784.5,-53 965.5,-53 965.5,-1 784.5,-1"/>
<text text-anchor="start" x="792.5" y="-41" font-family="Helvetica,sans-Serif" font-size="10.00">/home/travis/build</text>
<text text-anchor="start" x="792.5" y="-30" font-family="Helvetica,sans-Serif" font-size="10.00">/AliceO2Group/AliceO2</text>
<text text-anchor="start" x="792.5" y="-19" font-family="Helvetica,sans-Serif" font-size="10.00">/Detectors/ITSMFT/ITS</text>
<text text-anchor="middle" x="875" y="-8" font-family="Helvetica,sans-Serif" font-size="10.00">/reconstruction/src/ClustererTask.cxx</text>
</a>
</g>
</g>
<!-- Node4&#45;&gt;Node5 -->
<g id="edge4" class="edge"><title>Node4&#45;&gt;Node5</title>
<path fill="none" stroke="midnightblue" d="M655.939,-89.7483C703.406,-75.4796 747.111,-63.0741 784.331,-52.7252"/>
<polygon fill="midnightblue" stroke="midnightblue" points="654.639,-86.4847 646.076,-92.7238 656.661,-93.1863 654.639,-86.4847"/>
</g>
<!-- Node6 -->
<g id="node6" class="node"><title>Node6</title>
<g id="a_node6"><a xlink:href="../../d6/da1/run__clus__its_8C.html" target="_top" xlink:title="/home/travis/build\l/AliceO2Group/AliceO2\l/macro/run_clus_its.C">
<polygon fill="none" stroke="black" points="500,-6.5 500,-47.5 618,-47.5 618,-6.5 500,-6.5"/>
<text text-anchor="start" x="508" y="-35.5" font-family="Helvetica,sans-Serif" font-size="10.00">/home/travis/build</text>
<text text-anchor="start" x="508" y="-24.5" font-family="Helvetica,sans-Serif" font-size="10.00">/AliceO2Group/AliceO2</text>
<text text-anchor="middle" x="559" y="-13.5" font-family="Helvetica,sans-Serif" font-size="10.00">/macro/run_clus_its.C</text>
</a>
</g>
</g>
<!-- Node4&#45;&gt;Node6 -->
<g id="edge5" class="edge"><title>Node4&#45;&gt;Node6</title>
<path fill="none" stroke="midnightblue" d="M559,-80.1125C559,-68.807 559,-57.0525 559,-47.5747"/>
<polygon fill="midnightblue" stroke="midnightblue" points="555.5,-80.2905 559,-90.2906 562.5,-80.2906 555.5,-80.2905"/>
</g>
<!-- Node4&#45;&gt;Node7 -->
<g id="edge6" class="edge"><title>Node4&#45;&gt;Node7</title>
<path fill="none" stroke="midnightblue" d="M504.433,-84.7519C485.37,-72.0887 464.7,-58.3581 448.467,-47.5747"/>
<polygon fill="midnightblue" stroke="midnightblue" points="502.504,-87.6727 512.771,-90.2906 506.378,-81.8419 502.504,-87.6727"/>
</g>
<!-- Node9 -->
<g id="node9" class="node"><title>Node9</title>
<g id="a_node9"><a xlink:href="../../d3/da3/ITSMFT_2ITS_2workflow_2src_2ClustererSpec_8cxx.html" target="_top" xlink:title="/home/travis/build\l/AliceO2Group/AliceO2\l/Detectors/ITSMFT/ITS\l/workflow/src/ClustererSpec.cxx">
<polygon fill="none" stroke="black" points="178.5,-1 178.5,-53 337.5,-53 337.5,-1 178.5,-1"/>
<text text-anchor="start" x="186.5" y="-41" font-family="Helvetica,sans-Serif" font-size="10.00">/home/travis/build</text>
<text text-anchor="start" x="186.5" y="-30" font-family="Helvetica,sans-Serif" font-size="10.00">/AliceO2Group/AliceO2</text>
<text text-anchor="start" x="186.5" y="-19" font-family="Helvetica,sans-Serif" font-size="10.00">/Detectors/ITSMFT/ITS</text>
<text text-anchor="middle" x="258" y="-8" font-family="Helvetica,sans-Serif" font-size="10.00">/workflow/src/ClustererSpec.cxx</text>
</a>
</g>
</g>
<!-- Node8&#45;&gt;Node9 -->
<g id="edge8" class="edge"><title>Node8&#45;&gt;Node9</title>
<path fill="none" stroke="midnightblue" d="M259.681,-80.1125C259.384,-70.9165 259.078,-61.4234 258.81,-53.1001"/>
<polygon fill="midnightblue" stroke="midnightblue" points="256.189,-80.4087 260.009,-90.2906 263.185,-80.1829 256.189,-80.4087"/>
</g>
<!-- Node10 -->
<g id="node10" class="node"><title>Node10</title>
<g id="a_node10"><a xlink:href="../../d5/d99/ITSMFT_2ITS_2workflow_2src_2RecoWorkflow_8cxx.html" target="_top" xlink:title="/home/travis/build\l/AliceO2Group/AliceO2\l/Detectors/ITSMFT/ITS\l/workflow/src/RecoWorkflow.cxx">
<polygon fill="none" stroke="black" points="-0.5,-1 -0.5,-53 160.5,-53 160.5,-1 -0.5,-1"/>
<text text-anchor="start" x="7.5" y="-41" font-family="Helvetica,sans-Serif" font-size="10.00">/home/travis/build</text>
<text text-anchor="start" x="7.5" y="-30" font-family="Helvetica,sans-Serif" font-size="10.00">/AliceO2Group/AliceO2</text>
<text text-anchor="start" x="7.5" y="-19" font-family="Helvetica,sans-Serif" font-size="10.00">/Detectors/ITSMFT/ITS</text>
<text text-anchor="middle" x="80" y="-8" font-family="Helvetica,sans-Serif" font-size="10.00">/workflow/src/RecoWorkflow.cxx</text>
</a>
</g>
</g>
<!-- Node8&#45;&gt;Node10 -->
<g id="edge9" class="edge"><title>Node8&#45;&gt;Node10</title>
<path fill="none" stroke="midnightblue" d="M192.5,-85.8038C171.259,-74.8898 148.296,-63.0913 128.689,-53.0171"/>
<polygon fill="midnightblue" stroke="midnightblue" points="190.989,-88.9624 201.483,-90.4195 194.188,-82.7362 190.989,-88.9624"/>
</g>
<!-- Node12 -->
<g id="node12" class="node"><title>Node12</title>
<g id="a_node12"><a xlink:href="../../d9/d5e/ITSMFT_2MFT_2reconstruction_2src_2ClustererTask_8cxx.html" target="_top" xlink:title="/home/travis/build\l/AliceO2Group/AliceO2\l/Detectors/ITSMFT/MFT\l/reconstruction/src/ClustererTask.cxx">
<polygon fill="none" stroke="black" points="983.5,-1 983.5,-53 1164.5,-53 1164.5,-1 983.5,-1"/>
<text text-anchor="start" x="991.5" y="-41" font-family="Helvetica,sans-Serif" font-size="10.00">/home/travis/build</text>
<text text-anchor="start" x="991.5" y="-30" font-family="Helvetica,sans-Serif" font-size="10.00">/AliceO2Group/AliceO2</text>
<text text-anchor="start" x="991.5" y="-19" font-family="Helvetica,sans-Serif" font-size="10.00">/Detectors/ITSMFT/MFT</text>
<text text-anchor="middle" x="1074" y="-8" font-family="Helvetica,sans-Serif" font-size="10.00">/reconstruction/src/ClustererTask.cxx</text>
</a>
</g>
</g>
<!-- Node11&#45;&gt;Node12 -->
<g id="edge11" class="edge"><title>Node11&#45;&gt;Node12</title>
<path fill="none" stroke="midnightblue" d="M1008.77,-83.6542C1020.81,-73.3858 1033.57,-62.4973 1044.58,-53.1001"/>
<polygon fill="midnightblue" stroke="midnightblue" points="1006.33,-81.1373 1000.99,-90.2906 1010.87,-86.4625 1006.33,-81.1373"/>
</g>
<!-- Node13 -->
<g id="node13" class="node"><title>Node13</title>
<g id="a_node13"><a xlink:href="../../d4/dfd/run__clus__mft_8C.html" target="_top" xlink:title="/home/travis/build\l/AliceO2Group/AliceO2\l/macro/run_clus_mft.C">
<polygon fill="none" stroke="black" points="1183,-6.5 1183,-47.5 1301,-47.5 1301,-6.5 1183,-6.5"/>
<text text-anchor="start" x="1191" y="-35.5" font-family="Helvetica,sans-Serif" font-size="10.00">/home/travis/build</text>
<text text-anchor="start" x="1191" y="-24.5" font-family="Helvetica,sans-Serif" font-size="10.00">/AliceO2Group/AliceO2</text>
<text text-anchor="middle" x="1242" y="-13.5" font-family="Helvetica,sans-Serif" font-size="10.00">/macro/run_clus_mft.C</text>
</a>
</g>
</g>
<!-- Node11&#45;&gt;Node13 -->
<g id="edge12" class="edge"><title>Node11&#45;&gt;Node13</title>
<path fill="none" stroke="midnightblue" d="M1064.2,-89.55C1107.05,-75.86 1152.11,-61.2971 1173,-54 1178.8,-51.9741 1184.85,-49.7938 1190.86,-47.5883"/>
<polygon fill="midnightblue" stroke="midnightblue" points="1062.99,-86.2626 1054.53,-92.6376 1065.12,-92.9311 1062.99,-86.2626"/>
</g>
<!-- Node11&#45;&gt;Node14 -->
<g id="edge13" class="edge"><title>Node11&#45;&gt;Node14</title>
<path fill="none" stroke="midnightblue" d="M868.715,-87.0813C831.054,-73.8143 789.198,-59.0699 756.722,-47.6292"/>
<polygon fill="midnightblue" stroke="midnightblue" points="867.596,-90.398 878.191,-90.4195 869.922,-83.7957 867.596,-90.398"/>
</g>
<!-- Node15&#45;&gt;Node4 -->
<g id="edge18" class="edge"><title>Node15&#45;&gt;Node4</title>
<path fill="none" stroke="midnightblue" d="M630.317,-184.297C618.439,-174.088 605.986,-163.385 594.87,-153.831"/>
<polygon fill="midnightblue" stroke="midnightblue" points="628.155,-187.054 638.02,-190.918 632.717,-181.745 628.155,-187.054"/>
</g>
<!-- Node15&#45;&gt;Node9 -->
<g id="edge19" class="edge"><title>Node15&#45;&gt;Node9</title>
<path fill="none" stroke="midnightblue" d="M586.593,-200.684C547.604,-188.4 502.326,-172.409 463,-154 400.383,-124.688 333.05,-80.615 293.268,-53.117"/>
<polygon fill="midnightblue" stroke="midnightblue" points="585.774,-204.095 596.363,-203.726 587.856,-197.411 585.774,-204.095"/>
</g>
<!-- Node15&#45;&gt;Node11 -->
<g id="edge20" class="edge"><title>Node15&#45;&gt;Node11</title>
<path fill="none" stroke="midnightblue" d="M773.289,-192.958C808.149,-180.237 847.488,-165.882 881.418,-153.5"/>
<polygon fill="midnightblue" stroke="midnightblue" points="771.778,-189.783 763.584,-196.499 774.178,-196.359 771.778,-189.783"/>
</g>
<!-- Node16 -->
<g id="node16" class="node"><title>Node16</title>
<g id="a_node16"><a xlink:href="../../d5/d1b/DigitPixelReader_8cxx.html" target="_top" xlink:title="Implementation of the Alpide pixel reader for MC digits processing. ">
<polygon fill="none" stroke="black" points="664.5,-96 664.5,-148 857.5,-148 857.5,-96 664.5,-96"/>
<text text-anchor="start" x="672.5" y="-136" font-family="Helvetica,sans-Serif" font-size="10.00">/home/travis/build</text>
<text text-anchor="start" x="672.5" y="-125" font-family="Helvetica,sans-Serif" font-size="10.00">/AliceO2Group/AliceO2</text>
<text text-anchor="start" x="672.5" y="-114" font-family="Helvetica,sans-Serif" font-size="10.00">/Detectors/ITSMFT/common</text>
<text text-anchor="middle" x="761" y="-103" font-family="Helvetica,sans-Serif" font-size="10.00">/reconstruction/src/DigitPixelReader.cxx</text>
</a>
</g>
</g>
<!-- Node15&#45;&gt;Node16 -->
<g id="edge17" class="edge"><title>Node15&#45;&gt;Node16</title>
<path fill="none" stroke="midnightblue" d="M714.388,-182.847C723.603,-171.016 733.249,-158.631 741.36,-148.217"/>
<polygon fill="midnightblue" stroke="midnightblue" points="711.486,-180.878 708.103,-190.918 717.009,-185.179 711.486,-180.878"/>
</g>
<!-- Node17&#45;&gt;Node4 -->
<g id="edge22" class="edge"><title>Node17&#45;&gt;Node4</title>
<path fill="none" stroke="midnightblue" d="M847.868,-202.232C789.913,-188.984 718.384,-171.765 655,-154 652.049,-153.173 649.052,-152.314 646.031,-151.431"/>
<polygon fill="midnightblue" stroke="midnightblue" points="847.258,-205.683 857.786,-204.491 848.813,-198.858 847.258,-205.683"/>
</g>
<!-- Node17&#45;&gt;Node11 -->
<g id="edge23" class="edge"><title>Node17&#45;&gt;Node11</title>
<path fill="none" stroke="midnightblue" d="M962.567,-186.268C962.982,-175.458 963.424,-163.964 963.816,-153.781"/>
<polygon fill="midnightblue" stroke="midnightblue" points="959.066,-186.232 962.178,-196.359 966.06,-186.501 959.066,-186.232"/>
</g>
<!-- Node18 -->
<g id="node18" class="node"><title>Node18</title>
<g id="a_node18"><a xlink:href="../../d7/de3/run__digi2raw__its_8C.html" target="_top" xlink:title="/home/travis/build\l/AliceO2Group/AliceO2\l/macro/run_digi2raw_its.C">
<polygon fill="none" stroke="black" points="1072.5,-101.5 1072.5,-142.5 1203.5,-142.5 1203.5,-101.5 1072.5,-101.5"/>
<text text-anchor="start" x="1080.5" y="-130.5" font-family="Helvetica,sans-Serif" font-size="10.00">/home/travis/build</text>
<text text-anchor="start" x="1080.5" y="-119.5" font-family="Helvetica,sans-Serif" font-size="10.00">/AliceO2Group/AliceO2</text>
<text text-anchor="middle" x="1138" y="-108.5" font-family="Helvetica,sans-Serif" font-size="10.00">/macro/run_digi2raw_its.C</text>
</a>
</g>
</g>
<!-- Node17&#45;&gt;Node18 -->
<g id="edge24" class="edge"><title>Node17&#45;&gt;Node18</title>
<path fill="none" stroke="midnightblue" d="M1021.98,-191.168C1049.68,-174.895 1081.36,-156.278 1104.62,-142.615"/>
<polygon fill="midnightblue" stroke="midnightblue" points="1020,-188.275 1013.15,-196.359 1023.54,-194.311 1020,-188.275"/>
</g>
</g>
</svg>
