<?xml version="1.0" encoding="UTF-8" standalone="no"?>
<!DOCTYPE svg PUBLIC "-//W3C//DTD SVG 1.1//EN"
 "http://www.w3.org/Graphics/SVG/1.1/DTD/svg11.dtd">
<!-- Generated by graphviz version 2.36.0 (20140111.2315)
 -->
<!-- Title: /home/travis/build/AliceO2Group/AliceO2/Detectors/Base/include/DetectorsBase/Propagator.h Pages: 1 -->
<svg width="2137pt" height="152pt"
 viewBox="0.00 0.00 2137.00 152.00" xmlns="http://www.w3.org/2000/svg" xmlns:xlink="http://www.w3.org/1999/xlink">
<g id="graph0" class="graph" transform="scale(1 1) rotate(0) translate(4 148)">
<title>/home/travis/build/AliceO2Group/AliceO2/Detectors/Base/include/DetectorsBase/Propagator.h</title>
<!-- Node1 -->
<g id="node1" class="node"><title>Node1</title>
<polygon fill="#bfbfbf" stroke="black" points="1056.5,-91 1056.5,-143 1199.5,-143 1199.5,-91 1056.5,-91"/>
<text text-anchor="start" x="1064.5" y="-131" font-family="Helvetica,sans-Serif" font-size="10.00">/home/travis/build</text>
<text text-anchor="start" x="1064.5" y="-120" font-family="Helvetica,sans-Serif" font-size="10.00">/AliceO2Group/AliceO2</text>
<text text-anchor="start" x="1064.5" y="-109" font-family="Helvetica,sans-Serif" font-size="10.00">/Detectors/Base/include</text>
<text text-anchor="middle" x="1128" y="-98" font-family="Helvetica,sans-Serif" font-size="10.00">/DetectorsBase/Propagator.h</text>
</g>
<!-- Node2 -->
<g id="node2" class="node"><title>Node2</title>
<g id="a_node2"><a xlink:href="../../d8/dee/Propagator_8cxx.html" target="_top" xlink:title="/home/travis/build\l/AliceO2Group/AliceO2\l/Detectors/Base/src/Propagator.cxx">
<polygon fill="none" stroke="black" points="-0.5,-6.5 -0.5,-47.5 172.5,-47.5 172.5,-6.5 -0.5,-6.5"/>
<text text-anchor="start" x="7.5" y="-35.5" font-family="Helvetica,sans-Serif" font-size="10.00">/home/travis/build</text>
<text text-anchor="start" x="7.5" y="-24.5" font-family="Helvetica,sans-Serif" font-size="10.00">/AliceO2Group/AliceO2</text>
<text text-anchor="middle" x="86" y="-13.5" font-family="Helvetica,sans-Serif" font-size="10.00">/Detectors/Base/src/Propagator.cxx</text>
</a>
</g>
</g>
<!-- Node1&#45;&gt;Node2 -->
<g id="edge1" class="edge"><title>Node1&#45;&gt;Node2</title>
<path fill="none" stroke="midnightblue" d="M1046.39,-116.174C881.628,-115.316 497.922,-107.182 181,-54 171.05,-52.3304 160.641,-50.0493 150.512,-47.5274"/>
<polygon fill="midnightblue" stroke="midnightblue" points="1046.44,-119.674 1056.45,-116.219 1046.47,-112.674 1046.44,-119.674"/>
</g>
<!-- Node3 -->
<g id="node3" class="node"><title>Node3</title>
<g id="a_node3"><a xlink:href="../../db/d6a/MatchTOF_8cxx.html" target="_top" xlink:title="/home/travis/build\l/AliceO2Group/AliceO2\l/Detectors/GlobalTracking\l/src/MatchTOF.cxx">
<polygon fill="none" stroke="black" points="190.5,-1 190.5,-53 321.5,-53 321.5,-1 190.5,-1"/>
<text text-anchor="start" x="198.5" y="-41" font-family="Helvetica,sans-Serif" font-size="10.00">/home/travis/build</text>
<text text-anchor="start" x="198.5" y="-30" font-family="Helvetica,sans-Serif" font-size="10.00">/AliceO2Group/AliceO2</text>
<text text-anchor="start" x="198.5" y="-19" font-family="Helvetica,sans-Serif" font-size="10.00">/Detectors/GlobalTracking</text>
<text text-anchor="middle" x="256" y="-8" font-family="Helvetica,sans-Serif" font-size="10.00">/src/MatchTOF.cxx</text>
</a>
</g>
</g>
<!-- Node1&#45;&gt;Node3 -->
<g id="edge2" class="edge"><title>Node1&#45;&gt;Node3</title>
<path fill="none" stroke="midnightblue" d="M1046.2,-116.614C900.569,-116.171 587.438,-108.254 330,-54 327.202,-53.4103 324.365,-52.7424 321.514,-52.0131"/>
<polygon fill="midnightblue" stroke="midnightblue" points="1046.39,-120.114 1056.4,-116.634 1046.4,-113.114 1046.39,-120.114"/>
</g>
<!-- Node4 -->
<g id="node4" class="node"><title>Node4</title>
<g id="a_node4"><a xlink:href="../../dc/d59/MatchTPCITS_8cxx.html" target="_top" xlink:title="/home/travis/build\l/AliceO2Group/AliceO2\l/Detectors/GlobalTracking\l/src/MatchTPCITS.cxx">
<polygon fill="none" stroke="black" points="339.5,-1 339.5,-53 470.5,-53 470.5,-1 339.5,-1"/>
<text text-anchor="start" x="347.5" y="-41" font-family="Helvetica,sans-Serif" font-size="10.00">/home/travis/build</text>
<text text-anchor="start" x="347.5" y="-30" font-family="Helvetica,sans-Serif" font-size="10.00">/AliceO2Group/AliceO2</text>
<text text-anchor="start" x="347.5" y="-19" font-family="Helvetica,sans-Serif" font-size="10.00">/Detectors/GlobalTracking</text>
<text text-anchor="middle" x="405" y="-8" font-family="Helvetica,sans-Serif" font-size="10.00">/src/MatchTPCITS.cxx</text>
</a>
</g>
</g>
<!-- Node1&#45;&gt;Node4 -->
<g id="edge3" class="edge"><title>Node1&#45;&gt;Node4</title>
<path fill="none" stroke="midnightblue" d="M1046.02,-114.393C922.106,-110.568 680.307,-97.6468 480,-54 476.903,-53.3252 473.757,-52.5617 470.596,-51.7311"/>
<polygon fill="midnightblue" stroke="midnightblue" points="1046.09,-117.896 1056.19,-114.694 1046.3,-110.899 1046.09,-117.896"/>
</g>
<!-- Node5 -->
<g id="node5" class="node"><title>Node5</title>
<g id="a_node5"><a xlink:href="../../d7/dca/CookedTracker_8cxx.html" target="_top" xlink:title="Implementation of the &quot;Cooked Matrix&quot; ITS tracker. ">
<polygon fill="none" stroke="black" points="489,-1 489,-53 675,-53 675,-1 489,-1"/>
<text text-anchor="start" x="497" y="-41" font-family="Helvetica,sans-Serif" font-size="10.00">/home/travis/build</text>
<text text-anchor="start" x="497" y="-30" font-family="Helvetica,sans-Serif" font-size="10.00">/AliceO2Group/AliceO2</text>
<text text-anchor="start" x="497" y="-19" font-family="Helvetica,sans-Serif" font-size="10.00">/Detectors/ITSMFT/ITS</text>
<text text-anchor="middle" x="582" y="-8" font-family="Helvetica,sans-Serif" font-size="10.00">/reconstruction/src/CookedTracker.cxx</text>
</a>
</g>
</g>
<!-- Node1&#45;&gt;Node5 -->
<g id="edge4" class="edge"><title>Node1&#45;&gt;Node5</title>
<path fill="none" stroke="midnightblue" d="M1046.39,-107.352C956.979,-97.2398 809.561,-78.6905 684,-54 681.041,-53.4182 678.04,-52.8034 675.015,-52.1623"/>
<polygon fill="midnightblue" stroke="midnightblue" points="1046.14,-110.845 1056.46,-108.483 1046.92,-103.889 1046.14,-110.845"/>
</g>
<!-- Node6 -->
<g id="node6" class="node"><title>Node6</title>
<g id="a_node6"><a xlink:href="../../d6/dbc/CookedTrackerSpec_8cxx.html" target="_top" xlink:title="/home/travis/build\l/AliceO2Group/AliceO2\l/Detectors/ITSMFT/ITS\l/workflow/src/CookedTrackerSpec.cxx">
<polygon fill="none" stroke="black" points="693,-1 693,-53 879,-53 879,-1 693,-1"/>
<text text-anchor="start" x="701" y="-41" font-family="Helvetica,sans-Serif" font-size="10.00">/home/travis/build</text>
<text text-anchor="start" x="701" y="-30" font-family="Helvetica,sans-Serif" font-size="10.00">/AliceO2Group/AliceO2</text>
<text text-anchor="start" x="701" y="-19" font-family="Helvetica,sans-Serif" font-size="10.00">/Detectors/ITSMFT/ITS</text>
<text text-anchor="middle" x="786" y="-8" font-family="Helvetica,sans-Serif" font-size="10.00">/workflow/src/CookedTrackerSpec.cxx</text>
</a>
</g>
</g>
<!-- Node1&#45;&gt;Node6 -->
<g id="edge5" class="edge"><title>Node1&#45;&gt;Node6</title>
<path fill="none" stroke="midnightblue" d="M1046.44,-95.0136C996.108,-82.0628 931.389,-65.4101 879.059,-51.9451"/>
<polygon fill="midnightblue" stroke="midnightblue" points="1045.75,-98.4499 1056.31,-97.5523 1047.49,-91.6707 1045.75,-98.4499"/>
</g>
<!-- Node7 -->
<g id="node7" class="node"><title>Node7</title>
<g id="a_node7"><a xlink:href="../../d7/da1/TrackerSpec_8cxx.html" target="_top" xlink:title="/home/travis/build\l/AliceO2Group/AliceO2\l/Detectors/ITSMFT/ITS\l/workflow/src/TrackerSpec.cxx">
<polygon fill="none" stroke="black" points="897,-1 897,-53 1049,-53 1049,-1 897,-1"/>
<text text-anchor="start" x="905" y="-41" font-family="Helvetica,sans-Serif" font-size="10.00">/home/travis/build</text>
<text text-anchor="start" x="905" y="-30" font-family="Helvetica,sans-Serif" font-size="10.00">/AliceO2Group/AliceO2</text>
<text text-anchor="start" x="905" y="-19" font-family="Helvetica,sans-Serif" font-size="10.00">/Detectors/ITSMFT/ITS</text>
<text text-anchor="middle" x="973" y="-8" font-family="Helvetica,sans-Serif" font-size="10.00">/workflow/src/TrackerSpec.cxx</text>
</a>
</g>
</g>
<!-- Node1&#45;&gt;Node7 -->
<g id="edge6" class="edge"><title>Node1&#45;&gt;Node7</title>
<path fill="none" stroke="midnightblue" d="M1074.83,-85.8154C1056.04,-75.1451 1035.12,-63.2684 1017.16,-53.0687"/>
<polygon fill="midnightblue" stroke="midnightblue" points="1073.16,-88.8892 1083.58,-90.7827 1076.62,-82.8018 1073.16,-88.8892"/>
</g>
<!-- Node8 -->
<g id="node8" class="node"><title>Node8</title>
<g id="a_node8"><a xlink:href="../../dd/d7c/run__match__tof_8C.html" target="_top" xlink:title="/home/travis/build\l/AliceO2Group/AliceO2\l/macro/run_match_tof.C">
<polygon fill="none" stroke="black" points="1067,-6.5 1067,-47.5 1189,-47.5 1189,-6.5 1067,-6.5"/>
<text text-anchor="start" x="1075" y="-35.5" font-family="Helvetica,sans-Serif" font-size="10.00">/home/travis/build</text>
<text text-anchor="start" x="1075" y="-24.5" font-family="Helvetica,sans-Serif" font-size="10.00">/AliceO2Group/AliceO2</text>
<text text-anchor="middle" x="1128" y="-13.5" font-family="Helvetica,sans-Serif" font-size="10.00">/macro/run_match_tof.C</text>
</a>
</g>
</g>
<!-- Node1&#45;&gt;Node8 -->
<g id="edge7" class="edge"><title>Node1&#45;&gt;Node8</title>
<path fill="none" stroke="midnightblue" d="M1128,-80.5147C1128,-69.2575 1128,-57.227 1128,-47.5249"/>
<polygon fill="midnightblue" stroke="midnightblue" points="1124.5,-80.5467 1128,-90.5468 1131.5,-80.5468 1124.5,-80.5467"/>
</g>
<!-- Node9 -->
<g id="node9" class="node"><title>Node9</title>
<g id="a_node9"><a xlink:href="../../d9/d84/run__match__TPCITS_8C.html" target="_top" xlink:title="/home/travis/build\l/AliceO2Group/AliceO2\l/macro/run_match_TPCITS.C">
<polygon fill="none" stroke="black" points="1207.5,-6.5 1207.5,-47.5 1354.5,-47.5 1354.5,-6.5 1207.5,-6.5"/>
<text text-anchor="start" x="1215.5" y="-35.5" font-family="Helvetica,sans-Serif" font-size="10.00">/home/travis/build</text>
<text text-anchor="start" x="1215.5" y="-24.5" font-family="Helvetica,sans-Serif" font-size="10.00">/AliceO2Group/AliceO2</text>
<text text-anchor="middle" x="1281" y="-13.5" font-family="Helvetica,sans-Serif" font-size="10.00">/macro/run_match_TPCITS.C</text>
</a>
</g>
</g>
<!-- Node1&#45;&gt;Node9 -->
<g id="edge8" class="edge"><title>Node1&#45;&gt;Node9</title>
<path fill="none" stroke="midnightblue" d="M1180.71,-85.6816C1202.62,-73.0813 1227.42,-58.8186 1246.87,-47.6283"/>
<polygon fill="midnightblue" stroke="midnightblue" points="1178.77,-82.7629 1171.84,-90.7827 1182.26,-88.8309 1178.77,-82.7629"/>
</g>
<!-- Node10 -->
<g id="node10" class="node"><title>Node10</title>
<g id="a_node10"><a xlink:href="../../dc/d97/run__rec__ca_8C.html" target="_top" xlink:title="/home/travis/build\l/AliceO2Group/AliceO2\l/macro/run_rec_ca.C">
<polygon fill="none" stroke="black" points="1373,-6.5 1373,-47.5 1491,-47.5 1491,-6.5 1373,-6.5"/>
<text text-anchor="start" x="1381" y="-35.5" font-family="Helvetica,sans-Serif" font-size="10.00">/home/travis/build</text>
<text text-anchor="start" x="1381" y="-24.5" font-family="Helvetica,sans-Serif" font-size="10.00">/AliceO2Group/AliceO2</text>
<text text-anchor="middle" x="1432" y="-13.5" font-family="Helvetica,sans-Serif" font-size="10.00">/macro/run_rec_ca.C</text>
</a>
</g>
</g>
<!-- Node1&#45;&gt;Node10 -->
<g id="edge9" class="edge"><title>Node1&#45;&gt;Node10</title>
<path fill="none" stroke="midnightblue" d="M1209.32,-96.7256C1254.84,-85.3925 1312.45,-70.1464 1363,-54 1369.1,-52.0526 1375.44,-49.874 1381.71,-47.6289"/>
<polygon fill="midnightblue" stroke="midnightblue" points="1208.37,-93.3556 1199.5,-99.156 1210.05,-100.151 1208.37,-93.3556"/>
</g>
<!-- Node11 -->
<g id="node11" class="node"><title>Node11</title>
<g id="a_node11"><a xlink:href="../../da/d77/run__test__vert__ca__its_8C.html" target="_top" xlink:title="/home/travis/build\l/AliceO2Group/AliceO2\l/macro/run_test_vert_ca_its.C">
<polygon fill="none" stroke="black" points="1509.5,-6.5 1509.5,-47.5 1658.5,-47.5 1658.5,-6.5 1509.5,-6.5"/>
<text text-anchor="start" x="1517.5" y="-35.5" font-family="Helvetica,sans-Serif" font-size="10.00">/home/travis/build</text>
<text text-anchor="start" x="1517.5" y="-24.5" font-family="Helvetica,sans-Serif" font-size="10.00">/AliceO2Group/AliceO2</text>
<text text-anchor="middle" x="1584" y="-13.5" font-family="Helvetica,sans-Serif" font-size="10.00">/macro/run_test_vert_ca_its.C</text>
</a>
</g>
</g>
<!-- Node1&#45;&gt;Node11 -->
<g id="edge10" class="edge"><title>Node1&#45;&gt;Node11</title>
<path fill="none" stroke="midnightblue" d="M1209.5,-105.646C1285.29,-95.2559 1401.07,-77.4411 1500,-54 1507.87,-52.1345 1516.09,-49.927 1524.16,-47.5991"/>
<polygon fill="midnightblue" stroke="midnightblue" points="1208.98,-102.185 1199.54,-107 1209.92,-109.121 1208.98,-102.185"/>
</g>
<!-- Node12 -->
<g id="node12" class="node"><title>Node12</title>
<g id="a_node12"><a xlink:href="../../d6/db2/run__trac__ca__its_8C.html" target="_top" xlink:title="/home/travis/build\l/AliceO2Group/AliceO2\l/macro/run_trac_ca_its.C">
<polygon fill="none" stroke="black" points="1676.5,-6.5 1676.5,-47.5 1803.5,-47.5 1803.5,-6.5 1676.5,-6.5"/>
<text text-anchor="start" x="1684.5" y="-35.5" font-family="Helvetica,sans-Serif" font-size="10.00">/home/travis/build</text>
<text text-anchor="start" x="1684.5" y="-24.5" font-family="Helvetica,sans-Serif" font-size="10.00">/AliceO2Group/AliceO2</text>
<text text-anchor="middle" x="1740" y="-13.5" font-family="Helvetica,sans-Serif" font-size="10.00">/macro/run_trac_ca_its.C</text>
</a>
</g>
</g>
<!-- Node1&#45;&gt;Node12 -->
<g id="edge11" class="edge"><title>Node1&#45;&gt;Node12</title>
<path fill="none" stroke="midnightblue" d="M1209.54,-112.4C1315.97,-106.39 1507.46,-91.0765 1667,-54 1674.47,-52.2642 1682.23,-50.0123 1689.79,-47.5604"/>
<polygon fill="midnightblue" stroke="midnightblue" points="1209.3,-108.907 1199.51,-112.952 1209.69,-115.897 1209.3,-108.907"/>
</g>
<!-- Node13 -->
<g id="node13" class="node"><title>Node13</title>
<g id="a_node13"><a xlink:href="../../d4/da9/run__vert__ca__its_8C.html" target="_top" xlink:title="/home/travis/build\l/AliceO2Group/AliceO2\l/macro/run_vert_ca_its.C">
<polygon fill="none" stroke="black" points="1821.5,-6.5 1821.5,-47.5 1948.5,-47.5 1948.5,-6.5 1821.5,-6.5"/>
<text text-anchor="start" x="1829.5" y="-35.5" font-family="Helvetica,sans-Serif" font-size="10.00">/home/travis/build</text>
<text text-anchor="start" x="1829.5" y="-24.5" font-family="Helvetica,sans-Serif" font-size="10.00">/AliceO2Group/AliceO2</text>
<text text-anchor="middle" x="1885" y="-13.5" font-family="Helvetica,sans-Serif" font-size="10.00">/macro/run_vert_ca_its.C</text>
</a>
</g>
</g>
<!-- Node1&#45;&gt;Node13 -->
<g id="edge12" class="edge"><title>Node1&#45;&gt;Node13</title>
<path fill="none" stroke="midnightblue" d="M1210.02,-115.197C1339.44,-112.454 1598.26,-100.961 1812,-54 1819.62,-52.3255 1827.54,-50.0752 1835.22,-47.5959"/>
<polygon fill="midnightblue" stroke="midnightblue" points="1209.73,-111.703 1199.8,-115.402 1209.87,-118.701 1209.73,-111.703"/>
</g>
<!-- Node14 -->
<g id="node14" class="node"><title>Node14</title>
<g id="a_node14"><a xlink:href="../../d2/dd7/SimpleDigitizerWorkflow_8cxx.html" target="_top" xlink:title="/home/travis/build\l/AliceO2Group/AliceO2\l/Steer/DigitizerWorkflow\l/src/SimpleDigitizerWorkflow.cxx">
<polygon fill="none" stroke="black" points="1967,-1 1967,-53 2129,-53 2129,-1 1967,-1"/>
<text text-anchor="start" x="1975" y="-41" font-family="Helvetica,sans-Serif" font-size="10.00">/home/travis/build</text>
<text text-anchor="start" x="1975" y="-30" font-family="Helvetica,sans-Serif" font-size="10.00">/AliceO2Group/AliceO2</text>
<text text-anchor="start" x="1975" y="-19" font-family="Helvetica,sans-Serif" font-size="10.00">/Steer/DigitizerWorkflow</text>
<text text-anchor="middle" x="2048" y="-8" font-family="Helvetica,sans-Serif" font-size="10.00">/src/SimpleDigitizerWorkflow.cxx</text>
</a>
</g>
</g>
<!-- Node1&#45;&gt;Node14 -->
<g id="edge13" class="edge"><title>Node1&#45;&gt;Node14</title>
<path fill="none" stroke="midnightblue" d="M1209.6,-115.385C1359.03,-113.046 1686.16,-102.299 1957,-54 1960.24,-53.4231 1963.52,-52.7776 1966.83,-52.0778"/>
<polygon fill="midnightblue" stroke="midnightblue" points="1209.53,-111.885 1199.58,-115.533 1209.63,-118.884 1209.53,-111.885"/>
</g>
</g>
</svg>
