<?xml version="1.0" encoding="UTF-8" standalone="no"?>
<!DOCTYPE svg PUBLIC "-//W3C//DTD SVG 1.1//EN"
 "http://www.w3.org/Graphics/SVG/1.1/DTD/svg11.dtd">
<!-- Generated by graphviz version 2.36.0 (20140111.2315)
 -->
<!-- Title: o2::header::RAWDataHeaderV3 Pages: 1 -->
<svg width="765pt" height="428pt"
 viewBox="0.00 0.00 765.00 428.00" xmlns="http://www.w3.org/2000/svg" xmlns:xlink="http://www.w3.org/1999/xlink">
<g id="graph0" class="graph" transform="scale(1 1) rotate(0) translate(4 424)">
<title>o2::header::RAWDataHeaderV3</title>
<!-- Node1 -->
<g id="node1" class="node"><title>Node1</title>
<polygon fill="#bfbfbf" stroke="black" points="310.5,-1 310.5,-201 467.5,-201 467.5,-1 310.5,-1"/>
<text text-anchor="middle" x="389" y="-189" font-family="Helvetica,sans-Serif" font-size="10.00">o2::header::RAWDataHeaderV3</text>
<polyline fill="none" stroke="black" points="310.5,-182 467.5,-182 "/>
<text text-anchor="start" x="318.5" y="-170" font-family="Helvetica,sans-Serif" font-size="10.00">+ word0</text>
<text text-anchor="start" x="318.5" y="-159" font-family="Helvetica,sans-Serif" font-size="10.00">+ blockLength</text>
<text text-anchor="start" x="318.5" y="-148" font-family="Helvetica,sans-Serif" font-size="10.00">+ zero0</text>
<text text-anchor="start" x="318.5" y="-137" font-family="Helvetica,sans-Serif" font-size="10.00">+ word1</text>
<text text-anchor="start" x="318.5" y="-126" font-family="Helvetica,sans-Serif" font-size="10.00">+ word2</text>
<text text-anchor="start" x="318.5" y="-115" font-family="Helvetica,sans-Serif" font-size="10.00">+ word3</text>
<text text-anchor="start" x="318.5" y="-104" font-family="Helvetica,sans-Serif" font-size="10.00">+ word4</text>
<text text-anchor="start" x="318.5" y="-93" font-family="Helvetica,sans-Serif" font-size="10.00">+ heartbeatBC</text>
<text text-anchor="start" x="318.5" y="-82" font-family="Helvetica,sans-Serif" font-size="10.00">+ zero42</text>
<text text-anchor="start" x="318.5" y="-71" font-family="Helvetica,sans-Serif" font-size="10.00">+ word5</text>
<text text-anchor="start" x="318.5" y="-60" font-family="Helvetica,sans-Serif" font-size="10.00">+ word6</text>
<text text-anchor="start" x="318.5" y="-49" font-family="Helvetica,sans-Serif" font-size="10.00">+ detectorField</text>
<text text-anchor="start" x="318.5" y="-38" font-family="Helvetica,sans-Serif" font-size="10.00">+ stop</text>
<text text-anchor="start" x="318.5" y="-27" font-family="Helvetica,sans-Serif" font-size="10.00">+ pageCnt</text>
<polyline fill="none" stroke="black" points="310.5,-20 467.5,-20 "/>
<text text-anchor="middle" x="389" y="-8" font-family="Helvetica,sans-Serif" font-size="10.00"> </text>
</g>
<!-- Node2 -->
<g id="node2" class="node"><title>Node2</title>
<polygon fill="none" stroke="#bfbfbf" points="-0.5,-361.5 -0.5,-418.5 50.5,-418.5 50.5,-361.5 -0.5,-361.5"/>
<text text-anchor="middle" x="25" y="-406.5" font-family="Helvetica,sans-Serif" font-size="10.00">uint32_t</text>
<polyline fill="none" stroke="#bfbfbf" points="-0.5,-399.5 50.5,-399.5 "/>
<text text-anchor="middle" x="25" y="-387.5" font-family="Helvetica,sans-Serif" font-size="10.00"> </text>
<polyline fill="none" stroke="#bfbfbf" points="-0.5,-380.5 50.5,-380.5 "/>
<text text-anchor="middle" x="25" y="-368.5" font-family="Helvetica,sans-Serif" font-size="10.00"> </text>
</g>
<!-- Node2&#45;&gt;Node1 -->
<g id="edge1" class="edge"><title>Node2&#45;&gt;Node1</title>
<path fill="none" stroke="#404040" d="M16.5458,-361.354C7.28719,-325.111 -2.516,-261.303 28,-220 89.9631,-136.133 213.132,-110.853 298.242,-103.781"/>
<polygon fill="none" stroke="#404040" points="298.283,-103.778 303.968,-99.341 310.249,-102.882 304.565,-107.319 298.283,-103.778"/>
<text text-anchor="middle" x="63.5" y="-295" font-family="Helvetica,sans-Serif" font-size="10.00"> +heartbeatOrbit</text>
<text text-anchor="middle" x="63.5" y="-284" font-family="Helvetica,sans-Serif" font-size="10.00">+triggerOrbit</text>
<text text-anchor="middle" x="63.5" y="-273" font-family="Helvetica,sans-Serif" font-size="10.00">+memorySize</text>
<text text-anchor="middle" x="63.5" y="-262" font-family="Helvetica,sans-Serif" font-size="10.00">+offsetToNext</text>
</g>
<!-- Node3 -->
<g id="node3" class="node"><title>Node3</title>
<polygon fill="none" stroke="#bfbfbf" points="93.5,-361.5 93.5,-418.5 144.5,-418.5 144.5,-361.5 93.5,-361.5"/>
<text text-anchor="middle" x="119" y="-406.5" font-family="Helvetica,sans-Serif" font-size="10.00">uint64_t</text>
<polyline fill="none" stroke="#bfbfbf" points="93.5,-399.5 144.5,-399.5 "/>
<text text-anchor="middle" x="119" y="-387.5" font-family="Helvetica,sans-Serif" font-size="10.00"> </text>
<polyline fill="none" stroke="#bfbfbf" points="93.5,-380.5 144.5,-380.5 "/>
<text text-anchor="middle" x="119" y="-368.5" font-family="Helvetica,sans-Serif" font-size="10.00"> </text>
</g>
<!-- Node3&#45;&gt;Node1 -->
<g id="edge2" class="edge"><title>Node3&#45;&gt;Node1</title>
<path fill="none" stroke="#404040" d="M110.82,-361.201C102.044,-325.362 92.8524,-262.596 121,-220 160.283,-160.554 236.882,-130.83 298.163,-116.102"/>
<polygon fill="none" stroke="#404040" points="298.501,-116.025 303.459,-110.789 310.2,-113.352 305.241,-118.588 298.501,-116.025"/>
<text text-anchor="middle" x="148.5" y="-333.5" font-family="Helvetica,sans-Serif" font-size="10.00"> +word7</text>
<text text-anchor="middle" x="148.5" y="-322.5" font-family="Helvetica,sans-Serif" font-size="10.00">+triggerType</text>
<text text-anchor="middle" x="148.5" y="-311.5" font-family="Helvetica,sans-Serif" font-size="10.00">+zero6</text>
<text text-anchor="middle" x="148.5" y="-300.5" font-family="Helvetica,sans-Serif" font-size="10.00">+par</text>
<text text-anchor="middle" x="148.5" y="-289.5" font-family="Helvetica,sans-Serif" font-size="10.00">+feeId</text>
<text text-anchor="middle" x="148.5" y="-278.5" font-family="Helvetica,sans-Serif" font-size="10.00">+priority</text>
<text text-anchor="middle" x="148.5" y="-267.5" font-family="Helvetica,sans-Serif" font-size="10.00">+headerSize</text>
<text text-anchor="middle" x="148.5" y="-256.5" font-family="Helvetica,sans-Serif" font-size="10.00">+version</text>
<text text-anchor="middle" x="148.5" y="-245.5" font-family="Helvetica,sans-Serif" font-size="10.00">+triggerBC</text>
<text text-anchor="middle" x="148.5" y="-234.5" font-family="Helvetica,sans-Serif" font-size="10.00">+zero41</text>
<text text-anchor="middle" x="148.5" y="-223.5" font-family="Helvetica,sans-Serif" font-size="10.00">...</text>
</g>
<!-- Node4 -->
<g id="node4" class="node"><title>Node4</title>
<polygon fill="none" stroke="#bfbfbf" points="171.5,-361.5 171.5,-418.5 222.5,-418.5 222.5,-361.5 171.5,-361.5"/>
<text text-anchor="middle" x="197" y="-406.5" font-family="Helvetica,sans-Serif" font-size="10.00">uint16_t</text>
<polyline fill="none" stroke="#bfbfbf" points="171.5,-399.5 222.5,-399.5 "/>
<text text-anchor="middle" x="197" y="-387.5" font-family="Helvetica,sans-Serif" font-size="10.00"> </text>
<polyline fill="none" stroke="#bfbfbf" points="171.5,-380.5 222.5,-380.5 "/>
<text text-anchor="middle" x="197" y="-368.5" font-family="Helvetica,sans-Serif" font-size="10.00"> </text>
</g>
<!-- Node4&#45;&gt;Node1 -->
<g id="edge3" class="edge"><title>Node4&#45;&gt;Node1</title>
<path fill="none" stroke="#404040" d="M188.998,-361.492C180.413,-326.245 171.103,-264.403 196,-220 218.385,-180.077 260.387,-152.048 299.507,-133.358"/>
<polygon fill="none" stroke="#404040" points="299.541,-133.342 303.323,-127.202 310.445,-128.332 306.663,-134.472 299.541,-133.342"/>
<text text-anchor="middle" x="213" y="-278.5" font-family="Helvetica,sans-Serif" font-size="10.00"> +cruID</text>
</g>
<!-- Node5 -->
<g id="node5" class="node"><title>Node5</title>
<polygon fill="none" stroke="#bfbfbf" points="428.5,-361 428.5,-419 457.5,-419 457.5,-361 428.5,-361"/>
<polyline fill="none" stroke="#bfbfbf" points="428.5,-399 457.5,-399 "/>
<text text-anchor="middle" x="443" y="-387" font-family="Helvetica,sans-Serif" font-size="10.00"> </text>
<polyline fill="none" stroke="#bfbfbf" points="428.5,-380 457.5,-380 "/>
<text text-anchor="middle" x="443" y="-368" font-family="Helvetica,sans-Serif" font-size="10.00"> </text>
</g>
<!-- Node5&#45;&gt;Node1 -->
<g id="edge4" class="edge"><title>Node5&#45;&gt;Node1</title>
<path fill="none" stroke="#404040" d="M428.214,-387.601C387.717,-383.436 276.585,-369.645 255,-342 221.631,-299.262 232.673,-269.412 255,-220 265.311,-197.181 282.458,-177.013 301.099,-160.096"/>
<polygon fill="none" stroke="#404040" points="301.291,-159.929 303.195,-152.973 310.347,-152.055 308.444,-159.01 301.291,-159.929"/>
<text text-anchor="middle" x="270.5" y="-278.5" font-family="Helvetica,sans-Serif" font-size="10.00"> +@32</text>
</g>
<!-- Node5&#45;&gt;Node1 -->
<g id="edge6" class="edge"><title>Node5&#45;&gt;Node1</title>
<path fill="none" stroke="#404040" d="M428.095,-388.931C399.352,-387.89 336.662,-381.017 309,-342 281.777,-303.603 291.366,-255.294 311.717,-212.102"/>
<polygon fill="none" stroke="#404040" points="311.773,-211.989 310.857,-204.836 317.107,-201.24 318.023,-208.393 311.773,-211.989"/>
<text text-anchor="middle" x="324.5" y="-278.5" font-family="Helvetica,sans-Serif" font-size="10.00"> +@42</text>
</g>
<!-- Node5&#45;&gt;Node1 -->
<g id="edge7" class="edge"><title>Node5&#45;&gt;Node1</title>
<path fill="none" stroke="#404040" d="M428.247,-385.21C409.245,-379.446 377.002,-366.466 363,-342 340.974,-303.515 341.596,-255.846 349.907,-213.159"/>
<polygon fill="none" stroke="#404040" points="349.941,-212.999 347.28,-206.297 352.443,-201.263 355.104,-207.965 349.941,-212.999"/>
<text text-anchor="middle" x="378.5" y="-278.5" font-family="Helvetica,sans-Serif" font-size="10.00"> +@34</text>
</g>
<!-- Node5&#45;&gt;Node1 -->
<g id="edge8" class="edge"><title>Node5&#45;&gt;Node1</title>
<path fill="none" stroke="#404040" d="M428.434,-366.859C424.077,-359.264 419.737,-350.523 417,-342 409.327,-318.104 402.709,-264.113 397.837,-213.381"/>
<polygon fill="none" stroke="#404040" points="397.821,-213.207 393.278,-207.607 396.699,-201.26 401.243,-206.86 397.821,-213.207"/>
<text text-anchor="middle" x="432.5" y="-278.5" font-family="Helvetica,sans-Serif" font-size="10.00"> +@44</text>
</g>
<!-- Node5&#45;&gt;Node1 -->
<g id="edge9" class="edge"><title>Node5&#45;&gt;Node1</title>
<path fill="none" stroke="#404040" d="M448.242,-360.74C453.533,-326.811 459.431,-268.423 448,-220 447.447,-217.659 446.841,-215.312 446.186,-212.963"/>
<polygon fill="none" stroke="#404040" points="446.098,-212.679 440.495,-208.139 442.531,-201.221 448.133,-205.761 446.098,-212.679"/>
<text text-anchor="middle" x="470.5" y="-278.5" font-family="Helvetica,sans-Serif" font-size="10.00"> +@36</text>
</g>
<!-- Node5&#45;&gt;Node1 -->
<g id="edge10" class="edge"><title>Node5&#45;&gt;Node1</title>
<path fill="none" stroke="#404040" d="M457.547,-379.388C468.777,-371.022 483.464,-357.779 490,-342 510.75,-291.905 508.794,-270.861 490,-220 486.046,-209.299 480.64,-198.913 474.371,-189.029"/>
<polygon fill="none" stroke="#404040" points="474.262,-188.867 467.59,-186.13 467.55,-178.919 474.222,-181.656 474.262,-188.867"/>
<text text-anchor="middle" x="520.5" y="-278.5" font-family="Helvetica,sans-Serif" font-size="10.00"> +@38</text>
</g>
<!-- Node5&#45;&gt;Node1 -->
<g id="edge11" class="edge"><title>Node5&#45;&gt;Node1</title>
<path fill="none" stroke="#404040" d="M457.728,-386.793C480.062,-382.566 521.816,-371.018 540,-342 568.793,-296.054 563.767,-268.736 540,-220 526.353,-192.016 502.507,-168.724 477.741,-150.432"/>
<polygon fill="none" stroke="#404040" points="477.637,-150.359 470.429,-150.148 467.852,-143.413 475.06,-143.624 477.637,-150.359"/>
<text text-anchor="middle" x="575.5" y="-278.5" font-family="Helvetica,sans-Serif" font-size="10.00"> +@40</text>
</g>
<!-- Node5&#45;&gt;Node1 -->
<g id="edge12" class="edge"><title>Node5&#45;&gt;Node1</title>
<path fill="none" stroke="#404040" d="M457.873,-389.634C489.364,-390.06 562.539,-386.015 595,-342 627.183,-298.362 622.191,-266.912 595,-220 569.855,-176.618 522.085,-147.819 478.873,-129.54"/>
<polygon fill="none" stroke="#404040" points="478.827,-129.522 471.762,-130.968 467.71,-125.003 474.775,-123.557 478.827,-129.522"/>
<text text-anchor="middle" x="633.5" y="-278.5" font-family="Helvetica,sans-Serif" font-size="10.00"> +@30</text>
</g>
<!-- Node6 -->
<g id="node6" class="node"><title>Node6</title>
<polygon fill="none" stroke="#bfbfbf" points="663,-361.5 663,-418.5 709,-418.5 709,-361.5 663,-361.5"/>
<text text-anchor="middle" x="686" y="-406.5" font-family="Helvetica,sans-Serif" font-size="10.00">uint8_t</text>
<polyline fill="none" stroke="#bfbfbf" points="663,-399.5 709,-399.5 "/>
<text text-anchor="middle" x="686" y="-387.5" font-family="Helvetica,sans-Serif" font-size="10.00"> </text>
<polyline fill="none" stroke="#bfbfbf" points="663,-380.5 709,-380.5 "/>
<text text-anchor="middle" x="686" y="-368.5" font-family="Helvetica,sans-Serif" font-size="10.00"> </text>
</g>
<!-- Node6&#45;&gt;Node1 -->
<g id="edge5" class="edge"><title>Node6&#45;&gt;Node1</title>
<path fill="none" stroke="#404040" d="M687.957,-361.249C689.022,-324.889 685.555,-260.952 653,-220 610.256,-166.23 537.789,-136.229 479.582,-119.95"/>
<polygon fill="none" stroke="#404040" points="479.358,-119.89 472.526,-122.196 467.769,-116.777 474.601,-114.47 479.358,-119.89"/>
<text text-anchor="middle" x="722" y="-289.5" font-family="Helvetica,sans-Serif" font-size="10.00"> +linkID</text>
<text text-anchor="middle" x="722" y="-278.5" font-family="Helvetica,sans-Serif" font-size="10.00">+zero1</text>
<text text-anchor="middle" x="722" y="-267.5" font-family="Helvetica,sans-Serif" font-size="10.00">+packetCounter</text>
</g>
</g>
</svg>
