<?xml version="1.0" encoding="UTF-8" standalone="no"?>
<!DOCTYPE svg PUBLIC "-//W3C//DTD SVG 1.1//EN"
 "http://www.w3.org/Graphics/SVG/1.1/DTD/svg11.dtd">
<!-- Generated by graphviz version 2.36.0 (20140111.2315)
 -->
<!-- Title: /home/travis/build/AliceO2Group/AliceO2/Framework/Core/include/Framework/ArrowContext.h Pages: 1 -->
<svg width="809pt" height="174pt"
 viewBox="0.00 0.00 809.00 174.00" xmlns="http://www.w3.org/2000/svg" xmlns:xlink="http://www.w3.org/1999/xlink">
<g id="graph0" class="graph" transform="scale(1 1) rotate(0) translate(4 170)">
<title>/home/travis/build/AliceO2Group/AliceO2/Framework/Core/include/Framework/ArrowContext.h</title>
<!-- Node1 -->
<g id="node1" class="node"><title>Node1</title>
<polygon fill="#bfbfbf" stroke="black" points="432,-113 432,-165 572,-165 572,-113 432,-113"/>
<text text-anchor="start" x="440" y="-153" font-family="Helvetica,sans-Serif" font-size="10.00">/home/travis/build</text>
<text text-anchor="start" x="440" y="-142" font-family="Helvetica,sans-Serif" font-size="10.00">/AliceO2Group/AliceO2</text>
<text text-anchor="start" x="440" y="-131" font-family="Helvetica,sans-Serif" font-size="10.00">/Framework/Core/include</text>
<text text-anchor="middle" x="502" y="-120" font-family="Helvetica,sans-Serif" font-size="10.00">/Framework/ArrowContext.h</text>
</g>
<!-- Node2 -->
<g id="node2" class="node"><title>Node2</title>
<g id="a_node2"><a xlink:href="../../df/d2f/ContextRegistry_8h.html" target="_top" xlink:title="Framework/ContextRegistry.h">
<polygon fill="none" stroke="black" points="0,-56.5 0,-75.5 148,-75.5 148,-56.5 0,-56.5"/>
<text text-anchor="middle" x="74" y="-63.5" font-family="Helvetica,sans-Serif" font-size="10.00">Framework/ContextRegistry.h</text>
</a>
</g>
</g>
<!-- Node1&#45;&gt;Node2 -->
<g id="edge1" class="edge"><title>Node1&#45;&gt;Node2</title>
<path fill="none" stroke="midnightblue" d="M431.804,-126.355C349.416,-112.688 214.103,-90.2413 135.616,-77.2214"/>
<polygon fill="midnightblue" stroke="midnightblue" points="135.836,-73.7101 125.398,-75.5264 134.691,-80.6158 135.836,-73.7101"/>
</g>
<!-- Node4 -->
<g id="node4" class="node"><title>Node4</title>
<g id="a_node4"><a xlink:href="../../d8/d71/FairMQDeviceProxy_8h.html" target="_top" xlink:title="Framework/FairMQDeviceProxy.h">
<polygon fill="none" stroke="black" points="173.5,-56.5 173.5,-75.5 338.5,-75.5 338.5,-56.5 173.5,-56.5"/>
<text text-anchor="middle" x="256" y="-63.5" font-family="Helvetica,sans-Serif" font-size="10.00">Framework/FairMQDeviceProxy.h</text>
</a>
</g>
</g>
<!-- Node1&#45;&gt;Node4 -->
<g id="edge3" class="edge"><title>Node1&#45;&gt;Node4</title>
<path fill="none" stroke="midnightblue" d="M431.835,-117.749C387.571,-104.974 332.034,-88.9447 295.355,-78.3585"/>
<polygon fill="midnightblue" stroke="midnightblue" points="296.113,-74.9345 285.534,-75.5241 294.172,-81.66 296.113,-74.9345"/>
</g>
<!-- Node5 -->
<g id="node5" class="node"><title>Node5</title>
<polygon fill="none" stroke="#bfbfbf" points="108,-0.5 108,-19.5 160,-19.5 160,-0.5 108,-0.5"/>
<text text-anchor="middle" x="134" y="-7.5" font-family="Helvetica,sans-Serif" font-size="10.00">memory</text>
</g>
<!-- Node1&#45;&gt;Node5 -->
<g id="edge18" class="edge"><title>Node1&#45;&gt;Node5</title>
<path fill="none" stroke="midnightblue" d="M462.343,-112.925C431.862,-94.6815 388.14,-70.6955 347,-56 273.96,-29.9097 249.57,-37.3927 170.285,-20.1576"/>
<polygon fill="midnightblue" stroke="midnightblue" points="170.861,-16.6998 160.337,-17.9293 169.331,-23.5305 170.861,-16.6998"/>
</g>
<!-- Node6 -->
<g id="node6" class="node"><title>Node6</title>
<g id="a_node6"><a xlink:href="../../d5/d98/TableBuilder_8h.html" target="_top" xlink:title="Framework/TableBuilder.h">
<polygon fill="none" stroke="black" points="436.5,-56.5 436.5,-75.5 567.5,-75.5 567.5,-56.5 436.5,-56.5"/>
<text text-anchor="middle" x="502" y="-63.5" font-family="Helvetica,sans-Serif" font-size="10.00">Framework/TableBuilder.h</text>
</a>
</g>
</g>
<!-- Node1&#45;&gt;Node6 -->
<g id="edge5" class="edge"><title>Node1&#45;&gt;Node6</title>
<path fill="none" stroke="midnightblue" d="M502,-112.768C502,-103.89 502,-94.0737 502,-85.8165"/>
<polygon fill="midnightblue" stroke="midnightblue" points="505.5,-85.7571 502,-75.7572 498.5,-85.7572 505.5,-85.7571"/>
</g>
<!-- Node12 -->
<g id="node12" class="node"><title>Node12</title>
<polygon fill="none" stroke="#bfbfbf" points="698,-0.5 698,-19.5 742,-19.5 742,-0.5 698,-0.5"/>
<text text-anchor="middle" x="720" y="-7.5" font-family="Helvetica,sans-Serif" font-size="10.00">vector</text>
</g>
<!-- Node1&#45;&gt;Node12 -->
<g id="edge15" class="edge"><title>Node1&#45;&gt;Node12</title>
<path fill="none" stroke="midnightblue" d="M534.503,-112.976C557.628,-95.7885 589.823,-73.0816 620,-56 642.211,-43.4274 668.584,-31.682 688.667,-23.3453"/>
<polygon fill="midnightblue" stroke="midnightblue" points="690.045,-26.5633 697.976,-19.5379 687.395,-20.0843 690.045,-26.5633"/>
</g>
<!-- Node13 -->
<g id="node13" class="node"><title>Node13</title>
<polygon fill="none" stroke="#bfbfbf" points="760.5,-0.5 760.5,-19.5 801.5,-19.5 801.5,-0.5 760.5,-0.5"/>
<text text-anchor="middle" x="781" y="-7.5" font-family="Helvetica,sans-Serif" font-size="10.00">string</text>
</g>
<!-- Node1&#45;&gt;Node13 -->
<g id="edge17" class="edge"><title>Node1&#45;&gt;Node13</title>
<path fill="none" stroke="midnightblue" d="M550.286,-112.854C571.456,-101.716 596.546,-88.3609 619,-76 634.695,-67.36 637.714,-63.4661 654,-56 686.1,-41.2845 724.504,-28.2761 750.615,-20.0786"/>
<polygon fill="midnightblue" stroke="midnightblue" points="751.802,-23.3753 760.32,-17.0756 749.733,-16.6881 751.802,-23.3753"/>
</g>
<!-- Node15 -->
<g id="node15" class="node"><title>Node15</title>
<polygon fill="none" stroke="#bfbfbf" points="662.5,-56.5 662.5,-75.5 711.5,-75.5 711.5,-56.5 662.5,-56.5"/>
<text text-anchor="middle" x="687" y="-63.5" font-family="Helvetica,sans-Serif" font-size="10.00">cassert</text>
</g>
<!-- Node1&#45;&gt;Node15 -->
<g id="edge16" class="edge"><title>Node1&#45;&gt;Node15</title>
<path fill="none" stroke="midnightblue" d="M567.224,-112.968C597.031,-101.529 630.987,-88.4969 655.114,-79.2373"/>
<polygon fill="midnightblue" stroke="midnightblue" points="656.408,-82.4896 664.49,-75.6389 653.9,-75.9544 656.408,-82.4896"/>
</g>
<!-- Node3 -->
<g id="node3" class="node"><title>Node3</title>
<polygon fill="none" stroke="#bfbfbf" points="52,-0.5 52,-19.5 90,-19.5 90,-0.5 52,-0.5"/>
<text text-anchor="middle" x="71" y="-7.5" font-family="Helvetica,sans-Serif" font-size="10.00">array</text>
</g>
<!-- Node2&#45;&gt;Node3 -->
<g id="edge2" class="edge"><title>Node2&#45;&gt;Node3</title>
<path fill="none" stroke="midnightblue" d="M73.5046,-56.083C73.1114,-49.0059 72.5478,-38.8611 72.0548,-29.9865"/>
<polygon fill="midnightblue" stroke="midnightblue" points="75.5356,-29.5415 71.4862,-19.7511 68.5464,-29.9299 75.5356,-29.5415"/>
</g>
<!-- Node4&#45;&gt;Node5 -->
<g id="edge4" class="edge"><title>Node4&#45;&gt;Node5</title>
<path fill="none" stroke="midnightblue" d="M236.669,-56.4435C216.68,-47.5961 185.257,-33.6875 162.436,-23.5865"/>
<polygon fill="midnightblue" stroke="midnightblue" points="163.802,-20.3635 153.241,-19.5164 160.968,-26.7645 163.802,-20.3635"/>
</g>
<!-- Node6&#45;&gt;Node5 -->
<g id="edge13" class="edge"><title>Node6&#45;&gt;Node5</title>
<path fill="none" stroke="midnightblue" d="M436.23,-58.4172C371.028,-51.3706 268.148,-38.8538 170.354,-20.0724"/>
<polygon fill="midnightblue" stroke="midnightblue" points="170.782,-16.5902 160.298,-18.1151 169.445,-23.4612 170.782,-16.5902"/>
</g>
<!-- Node7 -->
<g id="node7" class="node"><title>Node7</title>
<polygon fill="none" stroke="#bfbfbf" points="178,-0.5 178,-19.5 240,-19.5 240,-0.5 178,-0.5"/>
<text text-anchor="middle" x="209" y="-7.5" font-family="Helvetica,sans-Serif" font-size="10.00">arrow/stl.h</text>
</g>
<!-- Node6&#45;&gt;Node7 -->
<g id="edge6" class="edge"><title>Node6&#45;&gt;Node7</title>
<path fill="none" stroke="midnightblue" d="M450.024,-56.4629C400.988,-48.2494 325.182,-35.1428 250.468,-20.2288"/>
<polygon fill="midnightblue" stroke="midnightblue" points="250.908,-16.7472 240.414,-18.2093 249.529,-23.6101 250.908,-16.7472"/>
</g>
<!-- Node8 -->
<g id="node8" class="node"><title>Node8</title>
<polygon fill="none" stroke="#bfbfbf" points="258,-0.5 258,-19.5 356,-19.5 356,-0.5 258,-0.5"/>
<text text-anchor="middle" x="307" y="-7.5" font-family="Helvetica,sans-Serif" font-size="10.00">arrow/type_traits.h</text>
</g>
<!-- Node6&#45;&gt;Node8 -->
<g id="edge7" class="edge"><title>Node6&#45;&gt;Node8</title>
<path fill="none" stroke="midnightblue" d="M471.102,-56.4435C437.726,-47.2011 384.406,-32.4356 347.651,-22.2572"/>
<polygon fill="midnightblue" stroke="midnightblue" points="348.325,-18.8122 337.754,-19.5164 346.457,-25.5583 348.325,-18.8122"/>
</g>
<!-- Node9 -->
<g id="node9" class="node"><title>Node9</title>
<polygon fill="none" stroke="#bfbfbf" points="374.5,-0.5 374.5,-19.5 447.5,-19.5 447.5,-0.5 374.5,-0.5"/>
<text text-anchor="middle" x="411" y="-7.5" font-family="Helvetica,sans-Serif" font-size="10.00">arrow/table.h</text>
</g>
<!-- Node6&#45;&gt;Node9 -->
<g id="edge8" class="edge"><title>Node6&#45;&gt;Node9</title>
<path fill="none" stroke="midnightblue" d="M487.379,-56.324C473.051,-47.8215 450.987,-34.7288 434.251,-24.7975"/>
<polygon fill="midnightblue" stroke="midnightblue" points="435.97,-21.7478 425.584,-19.6545 432.398,-27.7677 435.97,-21.7478"/>
</g>
<!-- Node10 -->
<g id="node10" class="node"><title>Node10</title>
<polygon fill="none" stroke="#bfbfbf" points="466,-0.5 466,-19.5 546,-19.5 546,-0.5 466,-0.5"/>
<text text-anchor="middle" x="506" y="-7.5" font-family="Helvetica,sans-Serif" font-size="10.00">arrow/builder.h</text>
</g>
<!-- Node6&#45;&gt;Node10 -->
<g id="edge9" class="edge"><title>Node6&#45;&gt;Node10</title>
<path fill="none" stroke="midnightblue" d="M502.661,-56.083C503.185,-49.0059 503.936,-38.8611 504.594,-29.9865"/>
<polygon fill="midnightblue" stroke="midnightblue" points="508.103,-29.9823 505.352,-19.7511 501.123,-29.4652 508.103,-29.9823"/>
</g>
<!-- Node11 -->
<g id="node11" class="node"><title>Node11</title>
<polygon fill="none" stroke="#bfbfbf" points="564.5,-0.5 564.5,-19.5 623.5,-19.5 623.5,-0.5 564.5,-0.5"/>
<text text-anchor="middle" x="594" y="-7.5" font-family="Helvetica,sans-Serif" font-size="10.00">functional</text>
</g>
<!-- Node6&#45;&gt;Node11 -->
<g id="edge10" class="edge"><title>Node6&#45;&gt;Node11</title>
<path fill="none" stroke="midnightblue" d="M516.781,-56.324C531.267,-47.8215 553.573,-34.7288 570.493,-24.7975"/>
<polygon fill="midnightblue" stroke="midnightblue" points="572.403,-27.735 579.255,-19.6545 568.859,-21.6981 572.403,-27.735"/>
</g>
<!-- Node6&#45;&gt;Node12 -->
<g id="edge11" class="edge"><title>Node6&#45;&gt;Node12</title>
<path fill="none" stroke="midnightblue" d="M539.738,-56.4605C575.528,-48.2415 631.033,-35.1857 687.819,-20.2277"/>
<polygon fill="midnightblue" stroke="midnightblue" points="688.914,-23.5583 697.683,-17.6131 687.12,-16.7919 688.914,-23.5583"/>
</g>
<!-- Node6&#45;&gt;Node13 -->
<g id="edge12" class="edge"><title>Node6&#45;&gt;Node13</title>
<path fill="none" stroke="midnightblue" d="M558.484,-56.4529C608.973,-48.4097 684.828,-35.3302 750,-20 750.211,-19.9503 750.423,-19.9 750.636,-19.8492"/>
<polygon fill="midnightblue" stroke="midnightblue" points="751.609,-23.2127 760.401,-17.3013 749.842,-16.4394 751.609,-23.2127"/>
</g>
<!-- Node14 -->
<g id="node14" class="node"><title>Node14</title>
<polygon fill="none" stroke="#bfbfbf" points="642,-0.5 642,-19.5 680,-19.5 680,-0.5 642,-0.5"/>
<text text-anchor="middle" x="661" y="-7.5" font-family="Helvetica,sans-Serif" font-size="10.00">tuple</text>
</g>
<!-- Node6&#45;&gt;Node14 -->
<g id="edge14" class="edge"><title>Node6&#45;&gt;Node14</title>
<path fill="none" stroke="midnightblue" d="M527.194,-56.4435C555.831,-46.7178 602.475,-30.8764 632.44,-20.6997"/>
<polygon fill="midnightblue" stroke="midnightblue" points="633.569,-24.0126 641.912,-17.4826 631.318,-17.3844 633.569,-24.0126"/>
</g>
</g>
</svg>
