<?xml version="1.0" encoding="UTF-8" standalone="no"?>
<!DOCTYPE svg PUBLIC "-//W3C//DTD SVG 1.1//EN"
 "http://www.w3.org/Graphics/SVG/1.1/DTD/svg11.dtd">
<!-- Generated by graphviz version 2.36.0 (20140111.2315)
 -->
<!-- Title: /home/travis/build/AliceO2Group/AliceO2/DataFormats/Reconstruction/include/ReconstructionDataFormats/TrackLTIntegral.h Pages: 1 -->
<svg width="2336pt" height="442pt"
 viewBox="0.00 0.00 2336.00 442.00" xmlns="http://www.w3.org/2000/svg" xmlns:xlink="http://www.w3.org/1999/xlink">
<g id="graph0" class="graph" transform="scale(1 1) rotate(0) translate(4 438)">
<title>/home/travis/build/AliceO2Group/AliceO2/DataFormats/Reconstruction/include/ReconstructionDataFormats/TrackLTIntegral.h</title>
<!-- Node1 -->
<g id="node1" class="node"><title>Node1</title>
<polygon fill="#bfbfbf" stroke="black" points="1913,-370.5 1913,-433.5 2089,-433.5 2089,-370.5 1913,-370.5"/>
<text text-anchor="start" x="1921" y="-421.5" font-family="Helvetica,sans-Serif" font-size="10.00">/home/travis/build</text>
<text text-anchor="start" x="1921" y="-410.5" font-family="Helvetica,sans-Serif" font-size="10.00">/AliceO2Group/AliceO2</text>
<text text-anchor="start" x="1921" y="-399.5" font-family="Helvetica,sans-Serif" font-size="10.00">/DataFormats/Reconstruction</text>
<text text-anchor="start" x="1921" y="-388.5" font-family="Helvetica,sans-Serif" font-size="10.00">/include/ReconstructionDataFormats</text>
<text text-anchor="middle" x="2001" y="-377.5" font-family="Helvetica,sans-Serif" font-size="10.00">/TrackLTIntegral.h</text>
</g>
<!-- Node2 -->
<g id="node2" class="node"><title>Node2</title>
<g id="a_node2"><a xlink:href="../../d5/d1e/TrackTPCITS_8h.html" target="_top" xlink:title="Result of refitting TPC&#45;ITS matched track. ">
<polygon fill="none" stroke="black" points="1824,-270.5 1824,-333.5 2000,-333.5 2000,-270.5 1824,-270.5"/>
<text text-anchor="start" x="1832" y="-321.5" font-family="Helvetica,sans-Serif" font-size="10.00">/home/travis/build</text>
<text text-anchor="start" x="1832" y="-310.5" font-family="Helvetica,sans-Serif" font-size="10.00">/AliceO2Group/AliceO2</text>
<text text-anchor="start" x="1832" y="-299.5" font-family="Helvetica,sans-Serif" font-size="10.00">/DataFormats/Reconstruction</text>
<text text-anchor="start" x="1832" y="-288.5" font-family="Helvetica,sans-Serif" font-size="10.00">/include/ReconstructionDataFormats</text>
<text text-anchor="middle" x="1912" y="-277.5" font-family="Helvetica,sans-Serif" font-size="10.00">/TrackTPCITS.h</text>
</a>
</g>
</g>
<!-- Node1&#45;&gt;Node2 -->
<g id="edge1" class="edge"><title>Node1&#45;&gt;Node2</title>
<path fill="none" stroke="midnightblue" d="M1966.21,-362.687C1957.45,-353.051 1948.18,-342.835 1939.82,-333.63"/>
<polygon fill="midnightblue" stroke="midnightblue" points="1963.77,-365.211 1973.08,-370.261 1968.95,-360.505 1963.77,-365.211"/>
</g>
<!-- Node10 -->
<g id="node10" class="node"><title>Node10</title>
<g id="a_node10"><a xlink:href="../../db/de1/TrackLTIntegral_8cxx.html" target="_top" xlink:title="/home/travis/build\l/AliceO2Group/AliceO2\l/DataFormats/Reconstruction\l/src/TrackLTIntegral.cxx">
<polygon fill="none" stroke="black" points="2018,-276 2018,-328 2164,-328 2164,-276 2018,-276"/>
<text text-anchor="start" x="2026" y="-316" font-family="Helvetica,sans-Serif" font-size="10.00">/home/travis/build</text>
<text text-anchor="start" x="2026" y="-305" font-family="Helvetica,sans-Serif" font-size="10.00">/AliceO2Group/AliceO2</text>
<text text-anchor="start" x="2026" y="-294" font-family="Helvetica,sans-Serif" font-size="10.00">/DataFormats/Reconstruction</text>
<text text-anchor="middle" x="2091" y="-283" font-family="Helvetica,sans-Serif" font-size="10.00">/src/TrackLTIntegral.cxx</text>
</a>
</g>
</g>
<!-- Node1&#45;&gt;Node10 -->
<g id="edge10" class="edge"><title>Node1&#45;&gt;Node10</title>
<path fill="none" stroke="midnightblue" d="M2036.12,-362.756C2046.82,-351.104 2058.31,-338.598 2067.99,-328.054"/>
<polygon fill="midnightblue" stroke="midnightblue" points="2033.42,-360.528 2029.23,-370.261 2038.57,-365.263 2033.42,-360.528"/>
</g>
<!-- Node11 -->
<g id="node11" class="node"><title>Node11</title>
<g id="a_node11"><a xlink:href="../../d7/d6a/testLTOFIntegration_8cxx.html" target="_top" xlink:title="/home/travis/build\l/AliceO2Group/AliceO2\l/DataFormats/Reconstruction\l/test/testLTOFIntegration.cxx">
<polygon fill="none" stroke="black" points="2182,-276 2182,-328 2328,-328 2328,-276 2182,-276"/>
<text text-anchor="start" x="2190" y="-316" font-family="Helvetica,sans-Serif" font-size="10.00">/home/travis/build</text>
<text text-anchor="start" x="2190" y="-305" font-family="Helvetica,sans-Serif" font-size="10.00">/AliceO2Group/AliceO2</text>
<text text-anchor="start" x="2190" y="-294" font-family="Helvetica,sans-Serif" font-size="10.00">/DataFormats/Reconstruction</text>
<text text-anchor="middle" x="2255" y="-283" font-family="Helvetica,sans-Serif" font-size="10.00">/test/testLTOFIntegration.cxx</text>
</a>
</g>
</g>
<!-- Node1&#45;&gt;Node11 -->
<g id="edge11" class="edge"><title>Node1&#45;&gt;Node11</title>
<path fill="none" stroke="midnightblue" d="M2089.95,-366.682C2122.85,-353.989 2159.5,-339.847 2189.89,-328.121"/>
<polygon fill="midnightblue" stroke="midnightblue" points="2088.39,-363.53 2080.32,-370.395 2090.91,-370.061 2088.39,-363.53"/>
</g>
<!-- Node12 -->
<g id="node12" class="node"><title>Node12</title>
<g id="a_node12"><a xlink:href="../../d2/df9/Propagator_8h.html" target="_top" xlink:title="/home/travis/build\l/AliceO2Group/AliceO2\l/Detectors/Base/include\l/DetectorsBase/Propagator.h">
<polygon fill="none" stroke="black" points="1019.5,-181 1019.5,-233 1162.5,-233 1162.5,-181 1019.5,-181"/>
<text text-anchor="start" x="1027.5" y="-221" font-family="Helvetica,sans-Serif" font-size="10.00">/home/travis/build</text>
<text text-anchor="start" x="1027.5" y="-210" font-family="Helvetica,sans-Serif" font-size="10.00">/AliceO2Group/AliceO2</text>
<text text-anchor="start" x="1027.5" y="-199" font-family="Helvetica,sans-Serif" font-size="10.00">/Detectors/Base/include</text>
<text text-anchor="middle" x="1091" y="-188" font-family="Helvetica,sans-Serif" font-size="10.00">/DetectorsBase/Propagator.h</text>
</a>
</g>
</g>
<!-- Node1&#45;&gt;Node12 -->
<g id="edge12" class="edge"><title>Node1&#45;&gt;Node12</title>
<path fill="none" stroke="midnightblue" d="M1902.96,-380.208C1718.7,-341.127 1324.69,-257.564 1162.76,-223.219"/>
<polygon fill="midnightblue" stroke="midnightblue" points="1902.41,-383.668 1912.92,-382.319 1903.86,-376.82 1902.41,-383.668"/>
</g>
<!-- Node3 -->
<g id="node3" class="node"><title>Node3</title>
<g id="a_node3"><a xlink:href="../../db/d65/TrackTPCITS_8cxx.html" target="_top" xlink:title="/home/travis/build\l/AliceO2Group/AliceO2\l/DataFormats/Reconstruction\l/src/TrackTPCITS.cxx">
<polygon fill="none" stroke="black" points="2003,-181 2003,-233 2149,-233 2149,-181 2003,-181"/>
<text text-anchor="start" x="2011" y="-221" font-family="Helvetica,sans-Serif" font-size="10.00">/home/travis/build</text>
<text text-anchor="start" x="2011" y="-210" font-family="Helvetica,sans-Serif" font-size="10.00">/AliceO2Group/AliceO2</text>
<text text-anchor="start" x="2011" y="-199" font-family="Helvetica,sans-Serif" font-size="10.00">/DataFormats/Reconstruction</text>
<text text-anchor="middle" x="2076" y="-188" font-family="Helvetica,sans-Serif" font-size="10.00">/src/TrackTPCITS.cxx</text>
</a>
</g>
</g>
<!-- Node2&#45;&gt;Node3 -->
<g id="edge2" class="edge"><title>Node2&#45;&gt;Node3</title>
<path fill="none" stroke="midnightblue" d="M1975.02,-265.262C1993.95,-254.531 2014.3,-242.99 2031.74,-233.1"/>
<polygon fill="midnightblue" stroke="midnightblue" points="1973.13,-262.313 1966.15,-270.291 1976.58,-268.402 1973.13,-262.313"/>
</g>
<!-- Node4 -->
<g id="node4" class="node"><title>Node4</title>
<g id="a_node4"><a xlink:href="../../d0/d74/MatchTOF_8h.html" target="_top" xlink:title="Class to perform TOF matching to global tracks. ">
<polygon fill="none" stroke="black" points="1934,-91 1934,-143 2110,-143 2110,-91 1934,-91"/>
<text text-anchor="start" x="1942" y="-131" font-family="Helvetica,sans-Serif" font-size="10.00">/home/travis/build</text>
<text text-anchor="start" x="1942" y="-120" font-family="Helvetica,sans-Serif" font-size="10.00">/AliceO2Group/AliceO2</text>
<text text-anchor="start" x="1942" y="-109" font-family="Helvetica,sans-Serif" font-size="10.00">/Detectors/GlobalTracking</text>
<text text-anchor="middle" x="2022" y="-98" font-family="Helvetica,sans-Serif" font-size="10.00">/include/GlobalTracking/MatchTOF.h</text>
</a>
</g>
</g>
<!-- Node2&#45;&gt;Node4 -->
<g id="edge3" class="edge"><title>Node2&#45;&gt;Node4</title>
<path fill="none" stroke="midnightblue" d="M1937.65,-261.705C1943.44,-252.655 1949.5,-243.034 1955,-234 1973.88,-203.017 1994.63,-166.719 2007.96,-143.089"/>
<polygon fill="midnightblue" stroke="midnightblue" points="1934.68,-259.864 1932.21,-270.169 1940.56,-263.648 1934.68,-259.864"/>
</g>
<!-- Node7 -->
<g id="node7" class="node"><title>Node7</title>
<g id="a_node7"><a xlink:href="../../d3/dac/MatchTPCITS_8h.html" target="_top" xlink:title="Class to perform TPC ITS matching. ">
<polygon fill="none" stroke="black" points="1753.5,-181 1753.5,-233 1946.5,-233 1946.5,-181 1753.5,-181"/>
<text text-anchor="start" x="1761.5" y="-221" font-family="Helvetica,sans-Serif" font-size="10.00">/home/travis/build</text>
<text text-anchor="start" x="1761.5" y="-210" font-family="Helvetica,sans-Serif" font-size="10.00">/AliceO2Group/AliceO2</text>
<text text-anchor="start" x="1761.5" y="-199" font-family="Helvetica,sans-Serif" font-size="10.00">/Detectors/GlobalTracking</text>
<text text-anchor="middle" x="1850" y="-188" font-family="Helvetica,sans-Serif" font-size="10.00">/include/GlobalTracking/MatchTPCITS.h</text>
</a>
</g>
</g>
<!-- Node2&#45;&gt;Node7 -->
<g id="edge6" class="edge"><title>Node2&#45;&gt;Node7</title>
<path fill="none" stroke="midnightblue" d="M1885.93,-261.888C1879.43,-252.146 1872.64,-241.96 1866.73,-233.1"/>
<polygon fill="midnightblue" stroke="midnightblue" points="1883.07,-263.912 1891.53,-270.291 1888.89,-260.029 1883.07,-263.912"/>
</g>
<!-- Node5 -->
<g id="node5" class="node"><title>Node5</title>
<g id="a_node5"><a xlink:href="../../db/d6a/MatchTOF_8cxx.html" target="_top" xlink:title="/home/travis/build\l/AliceO2Group/AliceO2\l/Detectors/GlobalTracking\l/src/MatchTOF.cxx">
<polygon fill="none" stroke="black" points="1740.5,-1 1740.5,-53 1871.5,-53 1871.5,-1 1740.5,-1"/>
<text text-anchor="start" x="1748.5" y="-41" font-family="Helvetica,sans-Serif" font-size="10.00">/home/travis/build</text>
<text text-anchor="start" x="1748.5" y="-30" font-family="Helvetica,sans-Serif" font-size="10.00">/AliceO2Group/AliceO2</text>
<text text-anchor="start" x="1748.5" y="-19" font-family="Helvetica,sans-Serif" font-size="10.00">/Detectors/GlobalTracking</text>
<text text-anchor="middle" x="1806" y="-8" font-family="Helvetica,sans-Serif" font-size="10.00">/src/MatchTOF.cxx</text>
</a>
</g>
</g>
<!-- Node4&#45;&gt;Node5 -->
<g id="edge4" class="edge"><title>Node4&#45;&gt;Node5</title>
<path fill="none" stroke="midnightblue" d="M1951.03,-87.0854C1924.1,-76.1167 1893.69,-63.725 1867.69,-53.1328"/>
<polygon fill="midnightblue" stroke="midnightblue" points="1949.81,-90.3688 1960.39,-90.9005 1952.45,-83.8861 1949.81,-90.3688"/>
</g>
<!-- Node6 -->
<g id="node6" class="node"><title>Node6</title>
<g id="a_node6"><a xlink:href="../../dd/d7c/run__match__tof_8C.html" target="_top" xlink:title="/home/travis/build\l/AliceO2Group/AliceO2\l/macro/run_match_tof.C">
<polygon fill="none" stroke="black" points="1117,-6.5 1117,-47.5 1239,-47.5 1239,-6.5 1117,-6.5"/>
<text text-anchor="start" x="1125" y="-35.5" font-family="Helvetica,sans-Serif" font-size="10.00">/home/travis/build</text>
<text text-anchor="start" x="1125" y="-24.5" font-family="Helvetica,sans-Serif" font-size="10.00">/AliceO2Group/AliceO2</text>
<text text-anchor="middle" x="1178" y="-13.5" font-family="Helvetica,sans-Serif" font-size="10.00">/macro/run_match_tof.C</text>
</a>
</g>
</g>
<!-- Node4&#45;&gt;Node6 -->
<g id="edge5" class="edge"><title>Node4&#45;&gt;Node6</title>
<path fill="none" stroke="midnightblue" d="M1923.77,-90.1095C1664.65,-46.1772 1365.87,-33.2077 1239.38,-29.4432"/>
<polygon fill="midnightblue" stroke="midnightblue" points="1923.3,-93.5796 1933.75,-91.8196 1924.48,-86.6802 1923.3,-93.5796"/>
</g>
<!-- Node7&#45;&gt;Node4 -->
<g id="edge7" class="edge"><title>Node7&#45;&gt;Node4</title>
<path fill="none" stroke="midnightblue" d="M1908.43,-176.105C1929.43,-165.36 1952.89,-153.361 1973,-143.069"/>
<polygon fill="midnightblue" stroke="midnightblue" points="1906.6,-173.112 1899.29,-180.783 1909.78,-179.344 1906.6,-173.112"/>
</g>
<!-- Node8 -->
<g id="node8" class="node"><title>Node8</title>
<g id="a_node8"><a xlink:href="../../dc/d59/MatchTPCITS_8cxx.html" target="_top" xlink:title="/home/travis/build\l/AliceO2Group/AliceO2\l/Detectors/GlobalTracking\l/src/MatchTPCITS.cxx">
<polygon fill="none" stroke="black" points="1784.5,-91 1784.5,-143 1915.5,-143 1915.5,-91 1784.5,-91"/>
<text text-anchor="start" x="1792.5" y="-131" font-family="Helvetica,sans-Serif" font-size="10.00">/home/travis/build</text>
<text text-anchor="start" x="1792.5" y="-120" font-family="Helvetica,sans-Serif" font-size="10.00">/AliceO2Group/AliceO2</text>
<text text-anchor="start" x="1792.5" y="-109" font-family="Helvetica,sans-Serif" font-size="10.00">/Detectors/GlobalTracking</text>
<text text-anchor="middle" x="1850" y="-98" font-family="Helvetica,sans-Serif" font-size="10.00">/src/MatchTPCITS.cxx</text>
</a>
</g>
</g>
<!-- Node7&#45;&gt;Node8 -->
<g id="edge8" class="edge"><title>Node7&#45;&gt;Node8</title>
<path fill="none" stroke="midnightblue" d="M1850,-170.489C1850,-161.309 1850,-151.616 1850,-143.092"/>
<polygon fill="midnightblue" stroke="midnightblue" points="1846.5,-170.547 1850,-180.547 1853.5,-170.547 1846.5,-170.547"/>
</g>
<!-- Node9 -->
<g id="node9" class="node"><title>Node9</title>
<g id="a_node9"><a xlink:href="../../d9/d84/run__match__TPCITS_8C.html" target="_top" xlink:title="/home/travis/build\l/AliceO2Group/AliceO2\l/macro/run_match_TPCITS.C">
<polygon fill="none" stroke="black" points="1619.5,-96.5 1619.5,-137.5 1766.5,-137.5 1766.5,-96.5 1619.5,-96.5"/>
<text text-anchor="start" x="1627.5" y="-125.5" font-family="Helvetica,sans-Serif" font-size="10.00">/home/travis/build</text>
<text text-anchor="start" x="1627.5" y="-114.5" font-family="Helvetica,sans-Serif" font-size="10.00">/AliceO2Group/AliceO2</text>
<text text-anchor="middle" x="1693" y="-103.5" font-family="Helvetica,sans-Serif" font-size="10.00">/macro/run_match_TPCITS.C</text>
</a>
</g>
</g>
<!-- Node7&#45;&gt;Node9 -->
<g id="edge9" class="edge"><title>Node7&#45;&gt;Node9</title>
<path fill="none" stroke="midnightblue" d="M1796.21,-175.85C1773.66,-163.208 1748.07,-148.868 1728.02,-137.628"/>
<polygon fill="midnightblue" stroke="midnightblue" points="1794.58,-178.946 1805.01,-180.783 1798,-172.84 1794.58,-178.946"/>
</g>
<!-- Node12&#45;&gt;Node5 -->
<g id="edge14" class="edge"><title>Node12&#45;&gt;Node5</title>
<path fill="none" stroke="midnightblue" d="M1172.95,-203.33C1292.23,-198.134 1506.59,-183.466 1572,-144 1597.13,-128.839 1586.32,-107.336 1610,-90 1648.3,-61.9591 1699.71,-46.3199 1740.26,-37.7648"/>
<polygon fill="midnightblue" stroke="midnightblue" points="1172.61,-199.841 1162.77,-203.76 1172.91,-206.834 1172.61,-199.841"/>
</g>
<!-- Node12&#45;&gt;Node6 -->
<g id="edge19" class="edge"><title>Node12&#45;&gt;Node6</title>
<path fill="none" stroke="midnightblue" d="M1009.07,-203.387C854.547,-197.609 532.509,-181.201 499,-144 482.938,-126.167 482.819,-107.725 499,-90 540.25,-44.8124 957.746,-32.1741 1116.86,-28.9838"/>
<polygon fill="midnightblue" stroke="midnightblue" points="1009.32,-206.898 1019.45,-203.768 1009.58,-199.903 1009.32,-206.898"/>
</g>
<!-- Node12&#45;&gt;Node8 -->
<g id="edge15" class="edge"><title>Node12&#45;&gt;Node8</title>
<path fill="none" stroke="midnightblue" d="M1172.98,-204.98C1302.32,-201.942 1561.07,-190.057 1775,-144 1778.1,-143.333 1781.25,-142.576 1784.41,-141.75"/>
<polygon fill="midnightblue" stroke="midnightblue" points="1172.68,-201.486 1162.76,-205.208 1172.83,-208.484 1172.68,-201.486"/>
</g>
<!-- Node12&#45;&gt;Node9 -->
<g id="edge20" class="edge"><title>Node12&#45;&gt;Node9</title>
<path fill="none" stroke="midnightblue" d="M1172.93,-200.366C1274.94,-192.38 1454.16,-175.153 1605,-144 1613.74,-142.196 1622.86,-139.937 1631.79,-137.508"/>
<polygon fill="midnightblue" stroke="midnightblue" points="1172.4,-196.897 1162.7,-201.156 1172.94,-203.876 1172.4,-196.897"/>
</g>
<!-- Node13 -->
<g id="node13" class="node"><title>Node13</title>
<g id="a_node13"><a xlink:href="../../d8/dee/Propagator_8cxx.html" target="_top" xlink:title="/home/travis/build\l/AliceO2Group/AliceO2\l/Detectors/Base/src/Propagator.cxx">
<polygon fill="none" stroke="black" points="508.5,-96.5 508.5,-137.5 681.5,-137.5 681.5,-96.5 508.5,-96.5"/>
<text text-anchor="start" x="516.5" y="-125.5" font-family="Helvetica,sans-Serif" font-size="10.00">/home/travis/build</text>
<text text-anchor="start" x="516.5" y="-114.5" font-family="Helvetica,sans-Serif" font-size="10.00">/AliceO2Group/AliceO2</text>
<text text-anchor="middle" x="595" y="-103.5" font-family="Helvetica,sans-Serif" font-size="10.00">/Detectors/Base/src/Propagator.cxx</text>
</a>
</g>
</g>
<!-- Node12&#45;&gt;Node13 -->
<g id="edge13" class="edge"><title>Node12&#45;&gt;Node13</title>
<path fill="none" stroke="midnightblue" d="M1009.24,-196.023C928.055,-185.485 800.267,-167.19 691,-144 682.048,-142.1 672.688,-139.872 663.472,-137.534"/>
<polygon fill="midnightblue" stroke="midnightblue" points="1009.03,-199.525 1019.39,-197.333 1009.92,-192.583 1009.03,-199.525"/>
</g>
<!-- Node14 -->
<g id="node14" class="node"><title>Node14</title>
<g id="a_node14"><a xlink:href="../../d7/dca/CookedTracker_8cxx.html" target="_top" xlink:title="Implementation of the &quot;Cooked Matrix&quot; ITS tracker. ">
<polygon fill="none" stroke="black" points="700,-91 700,-143 886,-143 886,-91 700,-91"/>
<text text-anchor="start" x="708" y="-131" font-family="Helvetica,sans-Serif" font-size="10.00">/home/travis/build</text>
<text text-anchor="start" x="708" y="-120" font-family="Helvetica,sans-Serif" font-size="10.00">/AliceO2Group/AliceO2</text>
<text text-anchor="start" x="708" y="-109" font-family="Helvetica,sans-Serif" font-size="10.00">/Detectors/ITSMFT/ITS</text>
<text text-anchor="middle" x="793" y="-98" font-family="Helvetica,sans-Serif" font-size="10.00">/reconstruction/src/CookedTracker.cxx</text>
</a>
</g>
</g>
<!-- Node12&#45;&gt;Node14 -->
<g id="edge16" class="edge"><title>Node12&#45;&gt;Node14</title>
<path fill="none" stroke="midnightblue" d="M1009.59,-181.959C968.718,-169.89 919.24,-155.279 877.897,-143.07"/>
<polygon fill="midnightblue" stroke="midnightblue" points="1008.66,-185.334 1019.24,-184.81 1010.64,-178.621 1008.66,-185.334"/>
</g>
<!-- Node15 -->
<g id="node15" class="node"><title>Node15</title>
<g id="a_node15"><a xlink:href="../../d6/dbc/CookedTrackerSpec_8cxx.html" target="_top" xlink:title="/home/travis/build\l/AliceO2Group/AliceO2\l/Detectors/ITSMFT/ITS\l/workflow/src/CookedTrackerSpec.cxx">
<polygon fill="none" stroke="black" points="904,-91 904,-143 1090,-143 1090,-91 904,-91"/>
<text text-anchor="start" x="912" y="-131" font-family="Helvetica,sans-Serif" font-size="10.00">/home/travis/build</text>
<text text-anchor="start" x="912" y="-120" font-family="Helvetica,sans-Serif" font-size="10.00">/AliceO2Group/AliceO2</text>
<text text-anchor="start" x="912" y="-109" font-family="Helvetica,sans-Serif" font-size="10.00">/Detectors/ITSMFT/ITS</text>
<text text-anchor="middle" x="997" y="-98" font-family="Helvetica,sans-Serif" font-size="10.00">/workflow/src/CookedTrackerSpec.cxx</text>
</a>
</g>
</g>
<!-- Node12&#45;&gt;Node15 -->
<g id="edge17" class="edge"><title>Node12&#45;&gt;Node15</title>
<path fill="none" stroke="midnightblue" d="M1056.45,-173.658C1045.73,-163.617 1034.07,-152.703 1023.94,-143.221"/>
<polygon fill="midnightblue" stroke="midnightblue" points="1054.37,-176.504 1064.06,-180.783 1059.16,-171.393 1054.37,-176.504"/>
</g>
<!-- Node16 -->
<g id="node16" class="node"><title>Node16</title>
<g id="a_node16"><a xlink:href="../../d7/da1/TrackerSpec_8cxx.html" target="_top" xlink:title="/home/travis/build\l/AliceO2Group/AliceO2\l/Detectors/ITSMFT/ITS\l/workflow/src/TrackerSpec.cxx">
<polygon fill="none" stroke="black" points="1108,-91 1108,-143 1260,-143 1260,-91 1108,-91"/>
<text text-anchor="start" x="1116" y="-131" font-family="Helvetica,sans-Serif" font-size="10.00">/home/travis/build</text>
<text text-anchor="start" x="1116" y="-120" font-family="Helvetica,sans-Serif" font-size="10.00">/AliceO2Group/AliceO2</text>
<text text-anchor="start" x="1116" y="-109" font-family="Helvetica,sans-Serif" font-size="10.00">/Detectors/ITSMFT/ITS</text>
<text text-anchor="middle" x="1184" y="-98" font-family="Helvetica,sans-Serif" font-size="10.00">/workflow/src/TrackerSpec.cxx</text>
</a>
</g>
</g>
<!-- Node12&#45;&gt;Node16 -->
<g id="edge18" class="edge"><title>Node12&#45;&gt;Node16</title>
<path fill="none" stroke="midnightblue" d="M1125.42,-173.431C1136.01,-163.407 1147.51,-152.533 1157.48,-143.092"/>
<polygon fill="midnightblue" stroke="midnightblue" points="1122.76,-171.131 1117.9,-180.547 1127.57,-176.216 1122.76,-171.131"/>
</g>
<!-- Node17 -->
<g id="node17" class="node"><title>Node17</title>
<g id="a_node17"><a xlink:href="../../dc/d97/run__rec__ca_8C.html" target="_top" xlink:title="/home/travis/build\l/AliceO2Group/AliceO2\l/macro/run_rec_ca.C">
<polygon fill="none" stroke="black" points="1278,-96.5 1278,-137.5 1396,-137.5 1396,-96.5 1278,-96.5"/>
<text text-anchor="start" x="1286" y="-125.5" font-family="Helvetica,sans-Serif" font-size="10.00">/home/travis/build</text>
<text text-anchor="start" x="1286" y="-114.5" font-family="Helvetica,sans-Serif" font-size="10.00">/AliceO2Group/AliceO2</text>
<text text-anchor="middle" x="1337" y="-103.5" font-family="Helvetica,sans-Serif" font-size="10.00">/macro/run_rec_ca.C</text>
</a>
</g>
</g>
<!-- Node12&#45;&gt;Node17 -->
<g id="edge21" class="edge"><title>Node12&#45;&gt;Node17</title>
<path fill="none" stroke="midnightblue" d="M1172.34,-178.245C1202.74,-167.719 1237.52,-155.498 1269,-144 1274.58,-141.962 1280.4,-139.796 1286.19,-137.618"/>
<polygon fill="midnightblue" stroke="midnightblue" points="1170.94,-175.025 1162.63,-181.599 1173.22,-181.641 1170.94,-175.025"/>
</g>
<!-- Node18 -->
<g id="node18" class="node"><title>Node18</title>
<g id="a_node18"><a xlink:href="../../da/d77/run__test__vert__ca__its_8C.html" target="_top" xlink:title="/home/travis/build\l/AliceO2Group/AliceO2\l/macro/run_test_vert_ca_its.C">
<polygon fill="none" stroke="black" points="1414.5,-96.5 1414.5,-137.5 1563.5,-137.5 1563.5,-96.5 1414.5,-96.5"/>
<text text-anchor="start" x="1422.5" y="-125.5" font-family="Helvetica,sans-Serif" font-size="10.00">/home/travis/build</text>
<text text-anchor="start" x="1422.5" y="-114.5" font-family="Helvetica,sans-Serif" font-size="10.00">/AliceO2Group/AliceO2</text>
<text text-anchor="middle" x="1489" y="-103.5" font-family="Helvetica,sans-Serif" font-size="10.00">/macro/run_test_vert_ca_its.C</text>
</a>
</g>
</g>
<!-- Node12&#45;&gt;Node18 -->
<g id="edge22" class="edge"><title>Node12&#45;&gt;Node18</title>
<path fill="none" stroke="midnightblue" d="M1172.55,-192.328C1236.24,-181.066 1326.76,-163.774 1405,-144 1412.7,-142.055 1420.73,-139.827 1428.65,-137.512"/>
<polygon fill="midnightblue" stroke="midnightblue" points="1171.8,-188.905 1162.56,-194.084 1173.01,-195.799 1171.8,-188.905"/>
</g>
<!-- Node19 -->
<g id="node19" class="node"><title>Node19</title>
<g id="a_node19"><a xlink:href="../../d6/db2/run__trac__ca__its_8C.html" target="_top" xlink:title="/home/travis/build\l/AliceO2Group/AliceO2\l/macro/run_trac_ca_its.C">
<polygon fill="none" stroke="black" points="-0.5,-96.5 -0.5,-137.5 126.5,-137.5 126.5,-96.5 -0.5,-96.5"/>
<text text-anchor="start" x="7.5" y="-125.5" font-family="Helvetica,sans-Serif" font-size="10.00">/home/travis/build</text>
<text text-anchor="start" x="7.5" y="-114.5" font-family="Helvetica,sans-Serif" font-size="10.00">/AliceO2Group/AliceO2</text>
<text text-anchor="middle" x="63" y="-103.5" font-family="Helvetica,sans-Serif" font-size="10.00">/macro/run_trac_ca_its.C</text>
</a>
</g>
</g>
<!-- Node12&#45;&gt;Node19 -->
<g id="edge23" class="edge"><title>Node12&#45;&gt;Node19</title>
<path fill="none" stroke="midnightblue" d="M1009.11,-203.649C809.306,-197.436 301.035,-178.635 135,-144 127.194,-142.372 119.092,-140.078 111.262,-137.521"/>
<polygon fill="midnightblue" stroke="midnightblue" points="1009.15,-207.151 1019.25,-203.961 1009.36,-200.155 1009.15,-207.151"/>
</g>
<!-- Node20 -->
<g id="node20" class="node"><title>Node20</title>
<g id="a_node20"><a xlink:href="../../d4/da9/run__vert__ca__its_8C.html" target="_top" xlink:title="/home/travis/build\l/AliceO2Group/AliceO2\l/macro/run_vert_ca_its.C">
<polygon fill="none" stroke="black" points="144.5,-96.5 144.5,-137.5 271.5,-137.5 271.5,-96.5 144.5,-96.5"/>
<text text-anchor="start" x="152.5" y="-125.5" font-family="Helvetica,sans-Serif" font-size="10.00">/home/travis/build</text>
<text text-anchor="start" x="152.5" y="-114.5" font-family="Helvetica,sans-Serif" font-size="10.00">/AliceO2Group/AliceO2</text>
<text text-anchor="middle" x="208" y="-103.5" font-family="Helvetica,sans-Serif" font-size="10.00">/macro/run_vert_ca_its.C</text>
</a>
</g>
</g>
<!-- Node12&#45;&gt;Node20 -->
<g id="edge24" class="edge"><title>Node12&#45;&gt;Node20</title>
<path fill="none" stroke="midnightblue" d="M1009.09,-206.863C861.732,-206.844 542.873,-199.618 281,-144 273.236,-142.351 265.173,-140.081 257.361,-137.564"/>
<polygon fill="midnightblue" stroke="midnightblue" points="1009.41,-210.363 1019.4,-206.852 1009.4,-203.363 1009.41,-210.363"/>
</g>
<!-- Node21 -->
<g id="node21" class="node"><title>Node21</title>
<g id="a_node21"><a xlink:href="../../d2/dd7/SimpleDigitizerWorkflow_8cxx.html" target="_top" xlink:title="/home/travis/build\l/AliceO2Group/AliceO2\l/Steer/DigitizerWorkflow\l/src/SimpleDigitizerWorkflow.cxx">
<polygon fill="none" stroke="black" points="290,-91 290,-143 452,-143 452,-91 290,-91"/>
<text text-anchor="start" x="298" y="-131" font-family="Helvetica,sans-Serif" font-size="10.00">/home/travis/build</text>
<text text-anchor="start" x="298" y="-120" font-family="Helvetica,sans-Serif" font-size="10.00">/AliceO2Group/AliceO2</text>
<text text-anchor="start" x="298" y="-109" font-family="Helvetica,sans-Serif" font-size="10.00">/Steer/DigitizerWorkflow</text>
<text text-anchor="middle" x="371" y="-98" font-family="Helvetica,sans-Serif" font-size="10.00">/src/SimpleDigitizerWorkflow.cxx</text>
</a>
</g>
</g>
<!-- Node12&#45;&gt;Node21 -->
<g id="edge25" class="edge"><title>Node12&#45;&gt;Node21</title>
<path fill="none" stroke="midnightblue" d="M1009,-202.27C888.967,-195.817 658.737,-179.672 466,-144 461.46,-143.16 456.821,-142.208 452.155,-141.176"/>
<polygon fill="midnightblue" stroke="midnightblue" points="1009.04,-205.777 1019.21,-202.81 1009.41,-198.787 1009.04,-205.777"/>
</g>
</g>
</svg>
