<?xml version="1.0" encoding="UTF-8" standalone="no"?>
<!DOCTYPE svg PUBLIC "-//W3C//DTD SVG 1.1//EN"
 "http://www.w3.org/Graphics/SVG/1.1/DTD/svg11.dtd">
<!-- Generated by graphviz version 2.36.0 (20140111.2315)
 -->
<!-- Title: BenchClustering Pages: 1 -->
<svg width="515pt" height="348pt"
 viewBox="0.00 0.00 515.00 348.00" xmlns="http://www.w3.org/2000/svg" xmlns:xlink="http://www.w3.org/1999/xlink">
<g id="graph0" class="graph" transform="scale(1 1) rotate(0) translate(4 344)">
<title>BenchClustering</title>
<!-- Node1 -->
<g id="node1" class="node"><title>Node1</title>
<polygon fill="#bfbfbf" stroke="black" points="186,-0.5 186,-57.5 290,-57.5 290,-0.5 186,-0.5"/>
<text text-anchor="middle" x="238" y="-45.5" font-family="Helvetica,sans-Serif" font-size="10.00">BenchClustering</text>
<polyline fill="none" stroke="black" points="186,-38.5 290,-38.5 "/>
<text text-anchor="middle" x="238" y="-26.5" font-family="Helvetica,sans-Serif" font-size="10.00"> </text>
<polyline fill="none" stroke="black" points="186,-19.5 290,-19.5 "/>
<text text-anchor="start" x="194" y="-7.5" font-family="Helvetica,sans-Serif" font-size="10.00">+ BenchClustering()</text>
</g>
<!-- Node2 -->
<g id="node2" class="node"><title>Node2</title>
<polygon fill="none" stroke="#bfbfbf" points="-0.5,-194.5 -0.5,-251.5 100.5,-251.5 100.5,-194.5 -0.5,-194.5"/>
<text text-anchor="middle" x="50" y="-239.5" font-family="Helvetica,sans-Serif" font-size="10.00">benchmark::Fixture</text>
<polyline fill="none" stroke="#bfbfbf" points="-0.5,-232.5 100.5,-232.5 "/>
<text text-anchor="middle" x="50" y="-220.5" font-family="Helvetica,sans-Serif" font-size="10.00"> </text>
<polyline fill="none" stroke="#bfbfbf" points="-0.5,-213.5 100.5,-213.5 "/>
<text text-anchor="middle" x="50" y="-201.5" font-family="Helvetica,sans-Serif" font-size="10.00"> </text>
</g>
<!-- Node2&#45;&gt;Node1 -->
<g id="edge1" class="edge"><title>Node2&#45;&gt;Node1</title>
<path fill="none" stroke="midnightblue" d="M63.061,-184.667C73.0395,-160.154 88.7124,-128.57 110,-106 131.19,-83.5329 160.489,-65.4806 185.708,-52.617"/>
<polygon fill="none" stroke="midnightblue" points="59.7866,-183.43 59.3885,-194.018 66.302,-185.99 59.7866,-183.43"/>
</g>
<!-- Node3 -->
<g id="node3" class="node"><title>Node3</title>
<g id="a_node3"><a xlink:href="../../d5/dae/classo2_1_1mid_1_1Clusterizer.html" target="_top" xlink:title="Clusterizing algorithm for MID. ">
<polygon fill="none" stroke="black" points="119,-145 119,-301 221,-301 221,-145 119,-145"/>
<text text-anchor="middle" x="170" y="-289" font-family="Helvetica,sans-Serif" font-size="10.00">o2::mid::Clusterizer</text>
<polyline fill="none" stroke="black" points="119,-282 221,-282 "/>
<text text-anchor="middle" x="170" y="-270" font-family="Helvetica,sans-Serif" font-size="10.00"> </text>
<polyline fill="none" stroke="black" points="119,-263 221,-263 "/>
<text text-anchor="start" x="127" y="-251" font-family="Helvetica,sans-Serif" font-size="10.00">+ Clusterizer()</text>
<text text-anchor="start" x="127" y="-240" font-family="Helvetica,sans-Serif" font-size="10.00">+ ~Clusterizer()</text>
<text text-anchor="start" x="127" y="-229" font-family="Helvetica,sans-Serif" font-size="10.00">+ Clusterizer()</text>
<text text-anchor="start" x="127" y="-218" font-family="Helvetica,sans-Serif" font-size="10.00">+ operator=()</text>
<text text-anchor="start" x="127" y="-207" font-family="Helvetica,sans-Serif" font-size="10.00">+ Clusterizer()</text>
<text text-anchor="start" x="127" y="-196" font-family="Helvetica,sans-Serif" font-size="10.00">+ operator=()</text>
<text text-anchor="start" x="127" y="-185" font-family="Helvetica,sans-Serif" font-size="10.00">+ init()</text>
<text text-anchor="start" x="127" y="-174" font-family="Helvetica,sans-Serif" font-size="10.00">+ process()</text>
<text text-anchor="start" x="127" y="-163" font-family="Helvetica,sans-Serif" font-size="10.00">+ getClusters()</text>
<text text-anchor="start" x="127" y="-152" font-family="Helvetica,sans-Serif" font-size="10.00">+ getNClusters()</text>
</a>
</g>
</g>
<!-- Node3&#45;&gt;Node1 -->
<g id="edge2" class="edge"><title>Node3&#45;&gt;Node1</title>
<path fill="none" stroke="#404040" d="M197.364,-144.736C206.581,-118.712 216.475,-90.7757 224.193,-68.9854"/>
<polygon fill="none" stroke="#404040" points="224.232,-68.8747 222.464,-61.8835 228.238,-57.5632 230.005,-64.5544 224.232,-68.8747"/>
<text text-anchor="middle" x="249.5" y="-79.5" font-family="Helvetica,sans-Serif" font-size="10.00"> +clusterizer</text>
</g>
<!-- Node4 -->
<g id="node4" class="node"><title>Node4</title>
<g id="a_node4"><a xlink:href="../../d1/d66/classo2_1_1mid_1_1Mapping.html" target="_top" xlink:title="{o2::mid::Mapping\n||+ Mapping()\l+ ~Mapping()\l+ Mapping()\l+ operator=()\l+ Mapping()\l+ operator=()\l+ stripByLocation()\l+ stripByLocationInBoard()\l+ stripByPosition()\l+ getStripSize()\l+ getNStripsNBP()\l+ getFirstColumn()\l+ getFirstBoardBP()\l+ getLastBoardBP()\l+ getBoardId()\l+ getNeighbours()\l+ isValid()\l}">
<polygon fill="none" stroke="black" points="239.5,-106.5 239.5,-339.5 372.5,-339.5 372.5,-106.5 239.5,-106.5"/>
<text text-anchor="middle" x="306" y="-327.5" font-family="Helvetica,sans-Serif" font-size="10.00">o2::mid::Mapping</text>
<polyline fill="none" stroke="black" points="239.5,-320.5 372.5,-320.5 "/>
<text text-anchor="middle" x="306" y="-308.5" font-family="Helvetica,sans-Serif" font-size="10.00"> </text>
<polyline fill="none" stroke="black" points="239.5,-301.5 372.5,-301.5 "/>
<text text-anchor="start" x="247.5" y="-289.5" font-family="Helvetica,sans-Serif" font-size="10.00">+ Mapping()</text>
<text text-anchor="start" x="247.5" y="-278.5" font-family="Helvetica,sans-Serif" font-size="10.00">+ ~Mapping()</text>
<text text-anchor="start" x="247.5" y="-267.5" font-family="Helvetica,sans-Serif" font-size="10.00">+ Mapping()</text>
<text text-anchor="start" x="247.5" y="-256.5" font-family="Helvetica,sans-Serif" font-size="10.00">+ operator=()</text>
<text text-anchor="start" x="247.5" y="-245.5" font-family="Helvetica,sans-Serif" font-size="10.00">+ Mapping()</text>
<text text-anchor="start" x="247.5" y="-234.5" font-family="Helvetica,sans-Serif" font-size="10.00">+ operator=()</text>
<text text-anchor="start" x="247.5" y="-223.5" font-family="Helvetica,sans-Serif" font-size="10.00">+ stripByLocation()</text>
<text text-anchor="start" x="247.5" y="-212.5" font-family="Helvetica,sans-Serif" font-size="10.00">+ stripByLocationInBoard()</text>
<text text-anchor="start" x="247.5" y="-201.5" font-family="Helvetica,sans-Serif" font-size="10.00">+ stripByPosition()</text>
<text text-anchor="start" x="247.5" y="-190.5" font-family="Helvetica,sans-Serif" font-size="10.00">+ getStripSize()</text>
<text text-anchor="start" x="247.5" y="-179.5" font-family="Helvetica,sans-Serif" font-size="10.00">+ getNStripsNBP()</text>
<text text-anchor="start" x="247.5" y="-168.5" font-family="Helvetica,sans-Serif" font-size="10.00">+ getFirstColumn()</text>
<text text-anchor="start" x="247.5" y="-157.5" font-family="Helvetica,sans-Serif" font-size="10.00">+ getFirstBoardBP()</text>
<text text-anchor="start" x="247.5" y="-146.5" font-family="Helvetica,sans-Serif" font-size="10.00">+ getLastBoardBP()</text>
<text text-anchor="start" x="247.5" y="-135.5" font-family="Helvetica,sans-Serif" font-size="10.00">+ getBoardId()</text>
<text text-anchor="start" x="247.5" y="-124.5" font-family="Helvetica,sans-Serif" font-size="10.00">+ getNeighbours()</text>
<text text-anchor="start" x="247.5" y="-113.5" font-family="Helvetica,sans-Serif" font-size="10.00">+ isValid()</text>
</a>
</g>
</g>
<!-- Node4&#45;&gt;Node1 -->
<g id="edge3" class="edge"><title>Node4&#45;&gt;Node1</title>
<path fill="none" stroke="#404040" d="M292.75,-106.401C289.607,-95.8569 285.744,-85.5598 281,-76 279.547,-73.0714 277.846,-70.1993 275.976,-67.4105"/>
<polygon fill="none" stroke="#404040" points="275.869,-67.2707 269.052,-64.9206 268.599,-57.7237 275.417,-60.0738 275.869,-67.2707"/>
<text text-anchor="middle" x="317" y="-79.5" font-family="Helvetica,sans-Serif" font-size="10.00"> +midMapping</text>
</g>
<!-- Node5 -->
<g id="node5" class="node"><title>Node5</title>
<g id="a_node5"><a xlink:href="../../d6/dde/classo2_1_1mid_1_1PreClusterizer.html" target="_top" xlink:title="Pre&#45;clustering algorithm for MID. ">
<polygon fill="none" stroke="black" points="390.5,-145 390.5,-301 507.5,-301 507.5,-145 390.5,-145"/>
<text text-anchor="middle" x="449" y="-289" font-family="Helvetica,sans-Serif" font-size="10.00">o2::mid::PreClusterizer</text>
<polyline fill="none" stroke="black" points="390.5,-282 507.5,-282 "/>
<text text-anchor="middle" x="449" y="-270" font-family="Helvetica,sans-Serif" font-size="10.00"> </text>
<polyline fill="none" stroke="black" points="390.5,-263 507.5,-263 "/>
<text text-anchor="start" x="398.5" y="-251" font-family="Helvetica,sans-Serif" font-size="10.00">+ PreClusterizer()</text>
<text text-anchor="start" x="398.5" y="-240" font-family="Helvetica,sans-Serif" font-size="10.00">+ ~PreClusterizer()</text>
<text text-anchor="start" x="398.5" y="-229" font-family="Helvetica,sans-Serif" font-size="10.00">+ PreClusterizer()</text>
<text text-anchor="start" x="398.5" y="-218" font-family="Helvetica,sans-Serif" font-size="10.00">+ operator=()</text>
<text text-anchor="start" x="398.5" y="-207" font-family="Helvetica,sans-Serif" font-size="10.00">+ PreClusterizer()</text>
<text text-anchor="start" x="398.5" y="-196" font-family="Helvetica,sans-Serif" font-size="10.00">+ operator=()</text>
<text text-anchor="start" x="398.5" y="-185" font-family="Helvetica,sans-Serif" font-size="10.00">+ init()</text>
<text text-anchor="start" x="398.5" y="-174" font-family="Helvetica,sans-Serif" font-size="10.00">+ process()</text>
<text text-anchor="start" x="398.5" y="-163" font-family="Helvetica,sans-Serif" font-size="10.00">+ getPreClusters()</text>
<text text-anchor="start" x="398.5" y="-152" font-family="Helvetica,sans-Serif" font-size="10.00">+ getNPreClusters()</text>
</a>
</g>
</g>
<!-- Node5&#45;&gt;Node1 -->
<g id="edge4" class="edge"><title>Node5&#45;&gt;Node1</title>
<path fill="none" stroke="#404040" d="M413.185,-144.753C397.762,-119.263 377.363,-93.0901 352,-76 336.757,-65.7288 318.867,-57.1621 301.837,-50.3157"/>
<polygon fill="none" stroke="#404040" points="301.428,-50.1584 294.392,-51.7381 290.227,-45.8509 297.263,-44.2712 301.428,-50.1584"/>
<text text-anchor="middle" x="402" y="-79.5" font-family="Helvetica,sans-Serif" font-size="10.00"> +preClusterizer</text>
</g>
</g>
</svg>
