<?xml version="1.0" encoding="UTF-8" standalone="no"?>
<!DOCTYPE svg PUBLIC "-//W3C//DTD SVG 1.1//EN"
 "http://www.w3.org/Graphics/SVG/1.1/DTD/svg11.dtd">
<!-- Generated by graphviz version 2.36.0 (20140111.2315)
 -->
<!-- Title: /home/travis/build/AliceO2Group/AliceO2/Detectors/MUON/MID/Clustering/test/bench_Clusterizer.cxx Pages: 1 -->
<!--zoomable 354 -->
<svg id="main" version="1.1" xmlns="http://www.w3.org/2000/svg" xmlns:xlink="http://www.w3.org/1999/xlink" xml:space="preserve" onload="init(evt)">
<style type="text/css"><![CDATA[
.edge:hover path { stroke: red; }
.edge:hover polygon { stroke: red; fill: red; }
]]></style>
<script type="text/javascript"><![CDATA[
var edges = document.getElementsByTagName('g');
if (edges && edges.length) {
  for (var i=0;i<edges.length;i++) {
    if (edges[i].id.substr(0,4)=='edge') {
      edges[i].setAttribute('class','edge');
    }
  }
}
]]></script>
        <defs>
                <circle id="rim" cx="0" cy="0" r="7"/>
                <circle id="rim2" cx="0" cy="0" r="3.5"/>
                <g id="zoomPlus">
                        <use xlink:href="#rim" fill="#404040">
                                <set attributeName="fill" to="#808080" begin="zoomplus.mouseover" end="zoomplus.mouseout"/>
                        </use>
                        <path d="M-4,0h8M0,-4v8" fill="none" stroke="white" stroke-width="1.5" pointer-events="none"/>
                </g>
                <g id="zoomMin">
                        <use xlink:href="#rim" fill="#404040">
                                <set attributeName="fill" to="#808080" begin="zoomminus.mouseover" end="zoomminus.mouseout"/>
                        </use>
                        <path d="M-4,0h8" fill="none" stroke="white" stroke-width="1.5" pointer-events="none"/>
                </g>
                <g id="dirArrow">
                        <path fill="none" stroke="white" stroke-width="1.5" d="M0,-3.0v7 M-2.5,-0.5L0,-3.0L2.5,-0.5"/>
                </g>
               <g id="resetDef">
                       <use xlink:href="#rim2" fill="#404040">
                               <set attributeName="fill" to="#808080" begin="reset.mouseover" end="reset.mouseout"/>
                       </use>
               </g>
        </defs>

<script type="text/javascript">
var viewWidth = 1013;
var viewHeight = 354;
var sectionId = 'dynsection-0';
</script>
<script xlink:href="../../svgpan.js"/>
<svg id="graph" class="graph">
<g id="viewport">
<title>/home/travis/build/AliceO2Group/AliceO2/Detectors/MUON/MID/Clustering/test/bench_Clusterizer.cxx</title>
<!-- Node1 -->
<g id="node1" class="node"><title>Node1</title>
<polygon fill="#bfbfbf" stroke="black" points="250.5,-293 250.5,-345 415.5,-345 415.5,-293 250.5,-293"/>
<text text-anchor="start" x="258.5" y="-333" font-family="Helvetica,sans-Serif" font-size="10.00">/home/travis/build</text>
<text text-anchor="start" x="258.5" y="-322" font-family="Helvetica,sans-Serif" font-size="10.00">/AliceO2Group/AliceO2</text>
<text text-anchor="start" x="258.5" y="-311" font-family="Helvetica,sans-Serif" font-size="10.00">/Detectors/MUON/MID/Clustering</text>
<text text-anchor="middle" x="333" y="-300" font-family="Helvetica,sans-Serif" font-size="10.00">/test/bench_Clusterizer.cxx</text>
</g>
<!-- Node2 -->
<g id="node2" class="node"><title>Node2</title>
<polygon fill="none" stroke="#bfbfbf" points="0,-236.5 0,-255.5 124,-255.5 124,-236.5 0,-236.5"/>
<text text-anchor="middle" x="62" y="-243.5" font-family="Helvetica,sans-Serif" font-size="10.00">benchmark/benchmark.h</text>
</g>
<!-- Node1&#45;&gt;Node2 -->
<g id="edge1" class="edge"><title>Node1&#45;&gt;Node2</title>
<path fill="none" stroke="midnightblue" d="M250.219,-296.312C202.065,-283.696 143.389,-268.323 104.484,-258.131"/>
<polygon fill="midnightblue" stroke="midnightblue" points="105.111,-254.677 94.55,-255.528 103.336,-261.448 105.111,-254.677"/>
</g>
<!-- Node3 -->
<g id="node3" class="node"><title>Node3</title>
<polygon fill="none" stroke="#bfbfbf" points="142,-236.5 142,-255.5 196,-255.5 196,-236.5 142,-236.5"/>
<text text-anchor="middle" x="169" y="-243.5" font-family="Helvetica,sans-Serif" font-size="10.00">iostream</text>
</g>
<!-- Node1&#45;&gt;Node3 -->
<g id="edge2" class="edge"><title>Node1&#45;&gt;Node3</title>
<path fill="none" stroke="midnightblue" d="M275.18,-292.968C249.226,-281.732 219.724,-268.96 198.415,-259.735"/>
<polygon fill="midnightblue" stroke="midnightblue" points="199.522,-256.4 188.955,-255.639 196.741,-262.824 199.522,-256.4"/>
</g>
<!-- Node4 -->
<g id="node4" class="node"><title>Node4</title>
<polygon fill="none" stroke="#bfbfbf" points="214.5,-236.5 214.5,-255.5 263.5,-255.5 263.5,-236.5 214.5,-236.5"/>
<text text-anchor="middle" x="239" y="-243.5" font-family="Helvetica,sans-Serif" font-size="10.00">random</text>
</g>
<!-- Node1&#45;&gt;Node4 -->
<g id="edge3" class="edge"><title>Node1&#45;&gt;Node4</title>
<path fill="none" stroke="midnightblue" d="M299.859,-292.968C286.212,-282.66 270.853,-271.059 258.978,-262.09"/>
<polygon fill="midnightblue" stroke="midnightblue" points="260.752,-259.044 250.663,-255.81 256.533,-264.63 260.752,-259.044"/>
</g>
<!-- Node5 -->
<g id="node5" class="node"><title>Node5</title>
<g id="a_node5"><a xlink:href="../../d4/d73/MID_2Base_2include_2MIDBase_2Mapping_8h.html" target="_top" xlink:title="Mapping for MID. ">
<polygon fill="none" stroke="black" points="313,-118.5 313,-137.5 419,-137.5 419,-118.5 313,-118.5"/>
<text text-anchor="middle" x="366" y="-125.5" font-family="Helvetica,sans-Serif" font-size="10.00">MIDBase/Mapping.h</text>
</a>
</g>
</g>
<!-- Node1&#45;&gt;Node5 -->
<g id="edge4" class="edge"><title>Node1&#45;&gt;Node5</title>
<path fill="none" stroke="midnightblue" d="M315.883,-292.947C298.686,-264.398 277.219,-216.921 296,-180 304.468,-163.352 321.2,-150.853 336.182,-142.395"/>
<polygon fill="midnightblue" stroke="midnightblue" points="337.976,-145.406 345.194,-137.651 334.715,-139.212 337.976,-145.406"/>
</g>
<!-- Node9 -->
<g id="node9" class="node"><title>Node9</title>
<g id="a_node9"><a xlink:href="../../d3/d53/ColumnData_8h.html" target="_top" xlink:title="Strip pattern (aka digits) ">
<polygon fill="none" stroke="black" points="819,-180.5 819,-199.5 977,-199.5 977,-180.5 819,-180.5"/>
<text text-anchor="middle" x="898" y="-187.5" font-family="Helvetica,sans-Serif" font-size="10.00">DataFormatsMID/ColumnData.h</text>
</a>
</g>
</g>
<!-- Node1&#45;&gt;Node9 -->
<g id="edge9" class="edge"><title>Node1&#45;&gt;Node9</title>
<path fill="none" stroke="midnightblue" d="M415.524,-310.049C495.961,-301.124 621.261,-284.091 727,-256 778.741,-242.254 836.482,-218.429 869.889,-203.758"/>
<polygon fill="midnightblue" stroke="midnightblue" points="871.721,-206.774 879.442,-199.52 868.882,-200.376 871.721,-206.774"/>
</g>
<!-- Node13 -->
<g id="node13" class="node"><title>Node13</title>
<g id="a_node13"><a xlink:href="../../d8/d04/PreClusters_8h.html" target="_top" xlink:title="Pre&#45;clusters structure for MID. ">
<polygon fill="none" stroke="black" points="313.5,-180.5 313.5,-199.5 456.5,-199.5 456.5,-180.5 313.5,-180.5"/>
<text text-anchor="middle" x="385" y="-187.5" font-family="Helvetica,sans-Serif" font-size="10.00">MIDClustering/PreClusters.h</text>
</a>
</g>
</g>
<!-- Node1&#45;&gt;Node13 -->
<g id="edge14" class="edge"><title>Node1&#45;&gt;Node13</title>
<path fill="none" stroke="midnightblue" d="M343.274,-292.909C353.397,-268.184 368.616,-231.015 377.605,-209.061"/>
<polygon fill="midnightblue" stroke="midnightblue" points="380.917,-210.208 381.467,-199.628 374.439,-207.556 380.917,-210.208"/>
</g>
<!-- Node14 -->
<g id="node14" class="node"><title>Node14</title>
<g id="a_node14"><a xlink:href="../../d7/d1a/PreClusterizer_8h.html" target="_top" xlink:title="Pre&#45;Cluster reconstruction algorithm for MID. ">
<polygon fill="none" stroke="black" points="565.5,-236.5 565.5,-255.5 718.5,-255.5 718.5,-236.5 565.5,-236.5"/>
<text text-anchor="middle" x="642" y="-243.5" font-family="Helvetica,sans-Serif" font-size="10.00">MIDClustering/PreClusterizer.h</text>
</a>
</g>
</g>
<!-- Node1&#45;&gt;Node14 -->
<g id="edge17" class="edge"><title>Node1&#45;&gt;Node14</title>
<path fill="none" stroke="midnightblue" d="M415.806,-298.973C473.099,-285.809 547.292,-268.761 594.78,-257.85"/>
<polygon fill="midnightblue" stroke="midnightblue" points="595.823,-261.202 604.785,-255.551 594.255,-254.379 595.823,-261.202"/>
</g>
<!-- Node17 -->
<g id="node17" class="node"><title>Node17</title>
<g id="a_node17"><a xlink:href="../../d5/d53/Clusterizer_8h.html" target="_top" xlink:title="Cluster reconstruction algorithm for MID. ">
<polygon fill="none" stroke="black" points="409,-236.5 409,-255.5 547,-255.5 547,-236.5 409,-236.5"/>
<text text-anchor="middle" x="478" y="-243.5" font-family="Helvetica,sans-Serif" font-size="10.00">MIDClustering/Clusterizer.h</text>
</a>
</g>
</g>
<!-- Node1&#45;&gt;Node17 -->
<g id="edge26" class="edge"><title>Node1&#45;&gt;Node17</title>
<path fill="none" stroke="midnightblue" d="M384.122,-292.968C406.757,-281.885 432.445,-269.306 451.221,-260.112"/>
<polygon fill="midnightblue" stroke="midnightblue" points="452.915,-263.18 460.357,-255.639 449.837,-256.893 452.915,-263.18"/>
</g>
<!-- Node6 -->
<g id="node6" class="node"><title>Node6</title>
<polygon fill="none" stroke="#bfbfbf" points="374,-0.5 374,-19.5 412,-19.5 412,-0.5 374,-0.5"/>
<text text-anchor="middle" x="393" y="-7.5" font-family="Helvetica,sans-Serif" font-size="10.00">array</text>
</g>
<!-- Node5&#45;&gt;Node6 -->
<g id="edge5" class="edge"><title>Node5&#45;&gt;Node6</title>
<path fill="none" stroke="midnightblue" d="M356.309,-118.198C342.703,-104.722 320.788,-78.2035 332,-56 339.017,-42.1041 352.573,-31.4421 365.127,-23.9923"/>
<polygon fill="midnightblue" stroke="midnightblue" points="366.899,-27.0126 373.984,-19.1351 363.533,-20.8751 366.899,-27.0126"/>
</g>
<!-- Node7 -->
<g id="node7" class="node"><title>Node7</title>
<polygon fill="none" stroke="#bfbfbf" points="463,-56.5 463,-75.5 507,-75.5 507,-56.5 463,-56.5"/>
<text text-anchor="middle" x="485" y="-63.5" font-family="Helvetica,sans-Serif" font-size="10.00">vector</text>
</g>
<!-- Node5&#45;&gt;Node7 -->
<g id="edge6" class="edge"><title>Node5&#45;&gt;Node7</title>
<path fill="none" stroke="midnightblue" d="M383.05,-118.403C402.844,-108.423 435.717,-91.8487 458.77,-80.2253"/>
<polygon fill="midnightblue" stroke="midnightblue" points="460.628,-83.208 467.982,-75.5806 457.477,-76.9575 460.628,-83.208"/>
</g>
<!-- Node8 -->
<g id="node8" class="node"><title>Node8</title>
<g id="a_node8"><a xlink:href="../../d7/d0a/MpArea_8h.html" target="_top" xlink:title="Mapping area for MID. ">
<polygon fill="none" stroke="black" points="341.5,-56.5 341.5,-75.5 444.5,-75.5 444.5,-56.5 341.5,-56.5"/>
<text text-anchor="middle" x="393" y="-63.5" font-family="Helvetica,sans-Serif" font-size="10.00">MIDBase/MpArea.h</text>
</a>
</g>
</g>
<!-- Node5&#45;&gt;Node8 -->
<g id="edge7" class="edge"><title>Node5&#45;&gt;Node8</title>
<path fill="none" stroke="midnightblue" d="M369.868,-118.403C373.798,-109.671 380,-95.8893 384.993,-84.7936"/>
<polygon fill="midnightblue" stroke="midnightblue" points="388.227,-86.1361 389.139,-75.5806 381.843,-83.2635 388.227,-86.1361"/>
</g>
<!-- Node8&#45;&gt;Node6 -->
<g id="edge8" class="edge"><title>Node8&#45;&gt;Node6</title>
<path fill="none" stroke="midnightblue" d="M393,-56.083C393,-49.0059 393,-38.8611 393,-29.9865"/>
<polygon fill="midnightblue" stroke="midnightblue" points="396.5,-29.751 393,-19.7511 389.5,-29.7511 396.5,-29.751"/>
</g>
<!-- Node9&#45;&gt;Node6 -->
<g id="edge13" class="edge"><title>Node9&#45;&gt;Node6</title>
<path fill="none" stroke="midnightblue" d="M893.221,-180.248C883.901,-164.057 861.676,-129.49 833,-112 695.882,-28.3711 496.348,-13.9111 422.183,-11.4701"/>
<polygon fill="midnightblue" stroke="midnightblue" points="422.267,-7.97119 412.173,-11.1904 422.071,-14.9685 422.267,-7.97119"/>
</g>
<!-- Node10 -->
<g id="node10" class="node"><title>Node10</title>
<polygon fill="none" stroke="#bfbfbf" points="729.5,-113 729.5,-143 824.5,-143 824.5,-113 729.5,-113"/>
<text text-anchor="start" x="737.5" y="-131" font-family="Helvetica,sans-Serif" font-size="10.00">boost/serialization</text>
<text text-anchor="middle" x="777" y="-120" font-family="Helvetica,sans-Serif" font-size="10.00">/access.hpp</text>
</g>
<!-- Node9&#45;&gt;Node10 -->
<g id="edge10" class="edge"><title>Node9&#45;&gt;Node10</title>
<path fill="none" stroke="midnightblue" d="M880.664,-180.403C863.51,-171.898 836.697,-158.602 814.638,-147.663"/>
<polygon fill="midnightblue" stroke="midnightblue" points="816.031,-144.448 805.517,-143.141 812.921,-150.719 816.031,-144.448"/>
</g>
<!-- Node11 -->
<g id="node11" class="node"><title>Node11</title>
<polygon fill="none" stroke="#bfbfbf" points="881.5,-113 881.5,-143 976.5,-143 976.5,-113 881.5,-113"/>
<text text-anchor="start" x="889.5" y="-131" font-family="Helvetica,sans-Serif" font-size="10.00">boost/serialization</text>
<text text-anchor="middle" x="929" y="-120" font-family="Helvetica,sans-Serif" font-size="10.00">/array.hpp</text>
</g>
<!-- Node9&#45;&gt;Node11 -->
<g id="edge11" class="edge"><title>Node9&#45;&gt;Node11</title>
<path fill="none" stroke="midnightblue" d="M902.442,-180.403C906.248,-173.037 911.91,-162.077 917.03,-152.168"/>
<polygon fill="midnightblue" stroke="midnightblue" points="920.213,-153.632 921.694,-143.141 913.994,-150.418 920.213,-153.632"/>
</g>
<!-- Node12 -->
<g id="node12" class="node"><title>Node12</title>
<polygon fill="none" stroke="#bfbfbf" points="665,-118.5 665,-137.5 711,-137.5 711,-118.5 665,-118.5"/>
<text text-anchor="middle" x="688" y="-125.5" font-family="Helvetica,sans-Serif" font-size="10.00">cstdint</text>
</g>
<!-- Node9&#45;&gt;Node12 -->
<g id="edge12" class="edge"><title>Node9&#45;&gt;Node12</title>
<path fill="none" stroke="midnightblue" d="M855.533,-180.429C819.282,-172.587 766.022,-159.814 721,-144 718.877,-143.254 716.704,-142.424 714.535,-141.548"/>
<polygon fill="midnightblue" stroke="midnightblue" points="715.8,-138.282 705.232,-137.53 713.024,-144.708 715.8,-138.282"/>
</g>
<!-- Node13&#45;&gt;Node5 -->
<g id="edge16" class="edge"><title>Node13&#45;&gt;Node5</title>
<path fill="none" stroke="midnightblue" d="M382.278,-180.403C379.541,-171.76 375.237,-158.17 371.742,-147.134"/>
<polygon fill="midnightblue" stroke="midnightblue" points="375.073,-146.057 368.717,-137.581 368.399,-148.171 375.073,-146.057"/>
</g>
<!-- Node13&#45;&gt;Node7 -->
<g id="edge15" class="edge"><title>Node13&#45;&gt;Node7</title>
<path fill="none" stroke="midnightblue" d="M393.652,-180.287C402.35,-171.401 416.008,-157.097 427,-144 443.729,-124.068 461.532,-99.9435 472.934,-84.0719"/>
<polygon fill="midnightblue" stroke="midnightblue" points="475.894,-85.9487 478.851,-75.7747 470.195,-81.8845 475.894,-85.9487"/>
</g>
<!-- Node14&#45;&gt;Node5 -->
<g id="edge20" class="edge"><title>Node14&#45;&gt;Node5</title>
<path fill="none" stroke="midnightblue" d="M639.585,-236.277C635.191,-222.113 624.49,-194.264 605,-180 577.473,-159.855 490.233,-144.896 429.154,-136.555"/>
<polygon fill="midnightblue" stroke="midnightblue" points="429.587,-133.082 419.211,-135.224 428.658,-140.02 429.587,-133.082"/>
</g>
<!-- Node14&#45;&gt;Node7 -->
<g id="edge19" class="edge"><title>Node14&#45;&gt;Node7</title>
<path fill="none" stroke="midnightblue" d="M718.903,-240.21C814.628,-233.449 967.72,-219.695 985,-200 1010.79,-170.601 1011.39,-140.869 985,-112 953.413,-77.4425 622.606,-69.1939 517.125,-67.4354"/>
<polygon fill="midnightblue" stroke="midnightblue" points="517.13,-63.9351 507.076,-67.2764 517.019,-70.9343 517.13,-63.9351"/>
</g>
<!-- Node14&#45;&gt;Node9 -->
<g id="edge24" class="edge"><title>Node14&#45;&gt;Node9</title>
<path fill="none" stroke="midnightblue" d="M682.564,-236.444C727.316,-227.004 799.383,-211.802 847.695,-201.611"/>
<polygon fill="midnightblue" stroke="midnightblue" points="848.564,-205.005 857.626,-199.516 847.119,-198.156 848.564,-205.005"/>
</g>
<!-- Node14&#45;&gt;Node13 -->
<g id="edge25" class="edge"><title>Node14&#45;&gt;Node13</title>
<path fill="none" stroke="midnightblue" d="M601.278,-236.444C556.351,-227.004 484.002,-211.802 435.501,-201.611"/>
<polygon fill="midnightblue" stroke="midnightblue" points="436.038,-198.148 425.532,-199.516 434.598,-204.998 436.038,-198.148"/>
</g>
<!-- Node15 -->
<g id="node15" class="node"><title>Node15</title>
<polygon fill="none" stroke="#bfbfbf" points="513.5,-180.5 513.5,-199.5 596.5,-199.5 596.5,-180.5 513.5,-180.5"/>
<text text-anchor="middle" x="555" y="-187.5" font-family="Helvetica,sans-Serif" font-size="10.00">unordered_map</text>
</g>
<!-- Node14&#45;&gt;Node15 -->
<g id="edge18" class="edge"><title>Node14&#45;&gt;Node15</title>
<path fill="none" stroke="midnightblue" d="M628.022,-236.324C614.45,-227.9 593.62,-214.971 577.675,-205.074"/>
<polygon fill="midnightblue" stroke="midnightblue" points="579.286,-201.954 568.943,-199.655 575.594,-207.902 579.286,-201.954"/>
</g>
<!-- Node16 -->
<g id="node16" class="node"><title>Node16</title>
<g id="a_node16"><a xlink:href="../../d6/d31/Cluster2D_8h.html" target="_top" xlink:title="Reconstructed cluster per RPC. ">
<polygon fill="none" stroke="black" points="653,-180.5 653,-199.5 801,-199.5 801,-180.5 653,-180.5"/>
<text text-anchor="middle" x="727" y="-187.5" font-family="Helvetica,sans-Serif" font-size="10.00">DataFormatsMID/Cluster2D.h</text>
</a>
</g>
</g>
<!-- Node14&#45;&gt;Node16 -->
<g id="edge21" class="edge"><title>Node14&#45;&gt;Node16</title>
<path fill="none" stroke="midnightblue" d="M655.657,-236.324C668.916,-227.9 689.268,-214.971 704.846,-205.074"/>
<polygon fill="midnightblue" stroke="midnightblue" points="706.813,-207.971 713.377,-199.655 703.06,-202.063 706.813,-207.971"/>
</g>
<!-- Node16&#45;&gt;Node10 -->
<g id="edge22" class="edge"><title>Node16&#45;&gt;Node10</title>
<path fill="none" stroke="midnightblue" d="M734.164,-180.403C740.556,-172.733 750.194,-161.167 758.71,-150.948"/>
<polygon fill="midnightblue" stroke="midnightblue" points="761.503,-153.064 765.216,-143.141 756.125,-148.582 761.503,-153.064"/>
</g>
<!-- Node16&#45;&gt;Node12 -->
<g id="edge23" class="edge"><title>Node16&#45;&gt;Node12</title>
<path fill="none" stroke="midnightblue" d="M721.412,-180.403C715.62,-171.493 706.411,-157.325 699.126,-146.118"/>
<polygon fill="midnightblue" stroke="midnightblue" points="701.962,-144.058 693.577,-137.581 696.093,-147.873 701.962,-144.058"/>
</g>
<!-- Node17&#45;&gt;Node5 -->
<g id="edge29" class="edge"><title>Node17&#45;&gt;Node5</title>
<path fill="none" stroke="midnightblue" d="M412.361,-236.446C368.884,-229.278 317.467,-217.393 304,-200 287.991,-179.324 316.122,-156.798 339.528,-142.786"/>
<polygon fill="midnightblue" stroke="midnightblue" points="341.53,-145.674 348.484,-137.681 338.063,-139.592 341.53,-145.674"/>
</g>
<!-- Node17&#45;&gt;Node7 -->
<g id="edge28" class="edge"><title>Node17&#45;&gt;Node7</title>
<path fill="none" stroke="midnightblue" d="M478.338,-236.415C479.407,-209.227 482.736,-124.563 484.244,-86.2169"/>
<polygon fill="midnightblue" stroke="midnightblue" points="487.754,-86.0483 484.649,-75.9185 480.759,-85.7732 487.754,-86.0483"/>
</g>
<!-- Node17&#45;&gt;Node9 -->
<g id="edge31" class="edge"><title>Node17&#45;&gt;Node9</title>
<path fill="none" stroke="midnightblue" d="M544.55,-236.444C619.815,-226.767 742.171,-211.035 821.364,-200.853"/>
<polygon fill="midnightblue" stroke="midnightblue" points="822.289,-204.263 831.761,-199.516 821.396,-197.32 822.289,-204.263"/>
</g>
<!-- Node17&#45;&gt;Node13 -->
<g id="edge32" class="edge"><title>Node17&#45;&gt;Node13</title>
<path fill="none" stroke="midnightblue" d="M463.058,-236.324C448.415,-227.822 425.866,-214.729 408.762,-204.797"/>
<polygon fill="midnightblue" stroke="midnightblue" points="410.31,-201.649 399.905,-199.655 406.795,-207.703 410.31,-201.649"/>
</g>
<!-- Node17&#45;&gt;Node15 -->
<g id="edge27" class="edge"><title>Node17&#45;&gt;Node15</title>
<path fill="none" stroke="midnightblue" d="M490.371,-236.324C502.158,-228.058 520.132,-215.453 534.136,-205.632"/>
<polygon fill="midnightblue" stroke="midnightblue" points="536.482,-208.262 542.659,-199.655 532.462,-202.531 536.482,-208.262"/>
</g>
<!-- Node17&#45;&gt;Node16 -->
<g id="edge30" class="edge"><title>Node17&#45;&gt;Node16</title>
<path fill="none" stroke="midnightblue" d="M517.455,-236.444C560.892,-227.023 630.786,-211.866 677.776,-201.675"/>
<polygon fill="midnightblue" stroke="midnightblue" points="678.699,-205.056 687.73,-199.516 677.215,-198.215 678.699,-205.056"/>
</g>
</g>
</svg>
        <g id="navigator" transform="translate(0 0)" fill="#404254">
                <rect fill="#f2f5e9" fill-opacity="0.5" stroke="#606060" stroke-width=".5" x="0" y="0" width="60" height="60"/>
                <use id="zoomplus" xlink:href="#zoomPlus" x="17" y="9" onmousedown="handleZoom(evt,'in')"/>
                <use id="zoomminus" xlink:href="#zoomMin" x="42" y="9" onmousedown="handleZoom(evt,'out')"/>
                <use id="reset" xlink:href="#resetDef" x="30" y="36" onmousedown="handleReset()"/>
                <g id="arrowUp" xlink:href="#dirArrow" transform="translate(30 24)" onmousedown="handlePan(0,-1)">
                  <use xlink:href="#rim" fill="#404040">
                        <set attributeName="fill" to="#808080" begin="arrowUp.mouseover" end="arrowUp.mouseout"/>
                  </use>
                  <path fill="none" stroke="white" stroke-width="1.5" d="M0,-3.0v7 M-2.5,-0.5L0,-3.0L2.5,-0.5"/>
                </g>
                <g id="arrowRight" xlink:href="#dirArrow" transform="rotate(90) translate(36 -43)" onmousedown="handlePan(1,0)">
                  <use xlink:href="#rim" fill="#404040">
                        <set attributeName="fill" to="#808080" begin="arrowRight.mouseover" end="arrowRight.mouseout"/>
                  </use>
                  <path fill="none" stroke="white" stroke-width="1.5" d="M0,-3.0v7 M-2.5,-0.5L0,-3.0L2.5,-0.5"/>
                </g>
                <g id="arrowDown" xlink:href="#dirArrow" transform="rotate(180) translate(-30 -48)" onmousedown="handlePan(0,1)">
                  <use xlink:href="#rim" fill="#404040">
                        <set attributeName="fill" to="#808080" begin="arrowDown.mouseover" end="arrowDown.mouseout"/>
                  </use>
                  <path fill="none" stroke="white" stroke-width="1.5" d="M0,-3.0v7 M-2.5,-0.5L0,-3.0L2.5,-0.5"/>
                </g>
                <g id="arrowLeft" xlink:href="#dirArrow" transform="rotate(270) translate(-36 17)" onmousedown="handlePan(-1,0)">
                  <use xlink:href="#rim" fill="#404040">
                        <set attributeName="fill" to="#808080" begin="arrowLeft.mouseover" end="arrowLeft.mouseout"/>
                  </use>
                  <path fill="none" stroke="white" stroke-width="1.5" d="M0,-3.0v7 M-2.5,-0.5L0,-3.0L2.5,-0.5"/>
                </g>
        </g>
        <svg viewBox="0 0 15 15" width="100%" height="30px" preserveAspectRatio="xMaxYMin meet">
         <g id="arrow_out" transform="scale(0.3 0.3)">
          <a xlink:href="bench__Clusterizer_8cxx__incl_org.svg" target="_base">
           <rect id="button" ry="5" rx="5" y="6" x="6" height="38" width="38"
                fill="#f2f5e9" fill-opacity="0.5" stroke="#606060" stroke-width="1.0"/>
           <path id="arrow"
             d="M 11.500037,31.436501 C 11.940474,20.09759 22.043105,11.32322 32.158766,21.979434 L 37.068811,17.246167 C 37.068811,17.246167 37.088388,32 37.088388,32 L 22.160133,31.978069 C 22.160133,31.978069 26.997745,27.140456 26.997745,27.140456 C 18.528582,18.264221 13.291696,25.230495 11.500037,31.436501 z"
             style="fill:#404040;"/>
          </a>
         </g>
        </svg>
</svg>
