<?xml version="1.0" encoding="UTF-8" standalone="no"?>
<!DOCTYPE svg PUBLIC "-//W3C//DTD SVG 1.1//EN"
 "http://www.w3.org/Graphics/SVG/1.1/DTD/svg11.dtd">
<!-- Generated by graphviz version 2.36.0 (20140111.2315)
 -->
<!-- Title: /home/travis/build/AliceO2Group/AliceO2/Detectors/TPC/simulation/include/TPCSimulation/GEMAmplification.h Pages: 1 -->
<svg width="1634pt" height="702pt"
 viewBox="0.00 0.00 1634.03 702.00" xmlns="http://www.w3.org/2000/svg" xmlns:xlink="http://www.w3.org/1999/xlink">
<g id="graph0" class="graph" transform="scale(1 1) rotate(0) translate(4 698)">
<title>/home/travis/build/AliceO2Group/AliceO2/Detectors/TPC/simulation/include/TPCSimulation/GEMAmplification.h</title>
<!-- Node1 -->
<g id="node1" class="node"><title>Node1</title>
<polygon fill="#bfbfbf" stroke="black" points="455.534,-641 455.534,-693 664.534,-693 664.534,-641 455.534,-641"/>
<text text-anchor="start" x="463.534" y="-681" font-family="Helvetica,sans-Serif" font-size="10.00">/home/travis/build</text>
<text text-anchor="start" x="463.534" y="-670" font-family="Helvetica,sans-Serif" font-size="10.00">/AliceO2Group/AliceO2</text>
<text text-anchor="start" x="463.534" y="-659" font-family="Helvetica,sans-Serif" font-size="10.00">/Detectors/TPC/simulation</text>
<text text-anchor="middle" x="560.034" y="-648" font-family="Helvetica,sans-Serif" font-size="10.00">/include/TPCSimulation/GEMAmplification.h</text>
</g>
<!-- Node2 -->
<g id="node2" class="node"><title>Node2</title>
<g id="a_node2"><a xlink:href="../../db/dac/RandomRing_8h.html" target="_top" xlink:title="TPCBase/RandomRing.h">
<polygon fill="none" stroke="black" points="78.034,-528.5 78.034,-547.5 206.034,-547.5 206.034,-528.5 78.034,-528.5"/>
<text text-anchor="middle" x="142.034" y="-535.5" font-family="Helvetica,sans-Serif" font-size="10.00">TPCBase/RandomRing.h</text>
</a>
</g>
</g>
<!-- Node1&#45;&gt;Node2 -->
<g id="edge1" class="edge"><title>Node1&#45;&gt;Node2</title>
<path fill="none" stroke="midnightblue" d="M455.5,-664.893C381.416,-660.158 281.776,-645.539 204.034,-604 182.847,-592.68 164.711,-571.45 153.624,-556.334"/>
<polygon fill="midnightblue" stroke="midnightblue" points="156.28,-554.026 147.667,-547.856 150.552,-558.05 156.28,-554.026"/>
</g>
<!-- Node8 -->
<g id="node8" class="node"><title>Node8</title>
<g id="a_node8"><a xlink:href="../../db/d5b/ParameterGas_8h.html" target="_top" xlink:title="Definition of the parameter class for the detector gas. ">
<polygon fill="none" stroke="black" points="213.034,-584.5 213.034,-603.5 347.034,-603.5 347.034,-584.5 213.034,-584.5"/>
<text text-anchor="middle" x="280.034" y="-591.5" font-family="Helvetica,sans-Serif" font-size="10.00">TPCBase/ParameterGas.h</text>
</a>
</g>
</g>
<!-- Node1&#45;&gt;Node8 -->
<g id="edge7" class="edge"><title>Node1&#45;&gt;Node8</title>
<path fill="none" stroke="midnightblue" d="M461.317,-640.968C414.255,-629.035 360.359,-615.368 323.647,-606.059"/>
<polygon fill="midnightblue" stroke="midnightblue" points="324.322,-602.619 313.768,-603.554 322.601,-609.405 324.322,-602.619"/>
</g>
<!-- Node9 -->
<g id="node9" class="node"><title>Node9</title>
<g id="a_node9"><a xlink:href="../../de/d2b/ParameterGEM_8h.html" target="_top" xlink:title="Definition of the parameter class for the GEM stack. ">
<polygon fill="none" stroke="black" points="262.034,-472.5 262.034,-491.5 400.034,-491.5 400.034,-472.5 262.034,-472.5"/>
<text text-anchor="middle" x="331.034" y="-479.5" font-family="Helvetica,sans-Serif" font-size="10.00">TPCBase/ParameterGEM.h</text>
</a>
</g>
</g>
<!-- Node1&#45;&gt;Node9 -->
<g id="edge9" class="edge"><title>Node1&#45;&gt;Node9</title>
<path fill="none" stroke="midnightblue" d="M528.673,-640.938C480.387,-602.352 389.303,-529.564 349.942,-498.11"/>
<polygon fill="midnightblue" stroke="midnightblue" points="351.937,-495.223 341.94,-491.715 347.567,-500.692 351.937,-495.223"/>
</g>
<!-- Node11 -->
<g id="node11" class="node"><title>Node11</title>
<g id="a_node11"><a xlink:href="../../df/d26/CRU_8h.html" target="_top" xlink:title="TPCBase/CRU.h">
<polygon fill="none" stroke="black" points="1401.53,-360.5 1401.53,-379.5 1494.53,-379.5 1494.53,-360.5 1401.53,-360.5"/>
<text text-anchor="middle" x="1448.03" y="-367.5" font-family="Helvetica,sans-Serif" font-size="10.00">TPCBase/CRU.h</text>
</a>
</g>
</g>
<!-- Node1&#45;&gt;Node11 -->
<g id="edge12" class="edge"><title>Node1&#45;&gt;Node11</title>
<path fill="none" stroke="midnightblue" d="M664.687,-661.956C901.306,-651.417 1457.03,-618.231 1457.03,-539 1457.03,-539 1457.03,-539 1457.03,-481 1457.03,-448.841 1453.17,-411.569 1450.5,-389.711"/>
<polygon fill="midnightblue" stroke="midnightblue" points="1453.94,-389.018 1449.21,-379.538 1447,-389.899 1453.94,-389.018"/>
</g>
<!-- Node28 -->
<g id="node28" class="node"><title>Node28</title>
<g id="a_node28"><a xlink:href="../../de/d41/PadPos_8h.html" target="_top" xlink:title="TPCBase/PadPos.h">
<polygon fill="none" stroke="black" points="1017.53,-304.5 1017.53,-323.5 1122.53,-323.5 1122.53,-304.5 1017.53,-304.5"/>
<text text-anchor="middle" x="1070.03" y="-311.5" font-family="Helvetica,sans-Serif" font-size="10.00">TPCBase/PadPos.h</text>
</a>
</g>
</g>
<!-- Node1&#45;&gt;Node28 -->
<g id="edge34" class="edge"><title>Node1&#45;&gt;Node28</title>
<path fill="none" stroke="midnightblue" d="M664.85,-663.369C826.712,-656.421 1119.03,-631.12 1119.03,-539 1119.03,-539 1119.03,-539 1119.03,-425 1119.03,-389.466 1097.43,-352.627 1082.92,-331.88"/>
<polygon fill="midnightblue" stroke="midnightblue" points="1085.56,-329.568 1076.85,-323.542 1079.9,-333.687 1085.56,-329.568"/>
</g>
<!-- Node29 -->
<g id="node29" class="node"><title>Node29</title>
<g id="a_node29"><a xlink:href="../../d8/d81/CalDet_8h.html" target="_top" xlink:title="TPCBase/CalDet.h">
<polygon fill="none" stroke="black" points="688.534,-584.5 688.534,-603.5 789.534,-603.5 789.534,-584.5 688.534,-584.5"/>
<text text-anchor="middle" x="739.034" y="-591.5" font-family="Helvetica,sans-Serif" font-size="10.00">TPCBase/CalDet.h</text>
</a>
</g>
</g>
<!-- Node1&#45;&gt;Node29 -->
<g id="edge35" class="edge"><title>Node1&#45;&gt;Node29</title>
<path fill="none" stroke="midnightblue" d="M623.143,-640.968C651.854,-629.58 684.546,-616.613 707.87,-607.361"/>
<polygon fill="midnightblue" stroke="midnightblue" points="709.249,-610.579 717.254,-603.639 706.668,-604.073 709.249,-610.579"/>
</g>
<!-- Node3 -->
<g id="node3" class="node"><title>Node3</title>
<polygon fill="none" stroke="#bfbfbf" points="494.034,-472.5 494.034,-491.5 584.034,-491.5 584.034,-472.5 494.034,-472.5"/>
<text text-anchor="middle" x="539.034" y="-479.5" font-family="Helvetica,sans-Serif" font-size="10.00">boost/format.hpp</text>
</g>
<!-- Node2&#45;&gt;Node3 -->
<g id="edge2" class="edge"><title>Node2&#45;&gt;Node3</title>
<path fill="none" stroke="midnightblue" d="M204.94,-528.444C281.889,-517.977 410.913,-500.427 484.06,-490.478"/>
<polygon fill="midnightblue" stroke="midnightblue" points="484.562,-493.942 493.999,-489.126 483.619,-487.005 484.562,-493.942"/>
</g>
<!-- Node4 -->
<g id="node4" class="node"><title>Node4</title>
<polygon fill="none" stroke="#bfbfbf" points="162.034,-472.5 162.034,-491.5 206.034,-491.5 206.034,-472.5 162.034,-472.5"/>
<text text-anchor="middle" x="184.034" y="-479.5" font-family="Helvetica,sans-Serif" font-size="10.00">Vc/Vc</text>
</g>
<!-- Node2&#45;&gt;Node4 -->
<g id="edge3" class="edge"><title>Node2&#45;&gt;Node4</title>
<path fill="none" stroke="midnightblue" d="M148.969,-528.083C154.963,-520.377 163.786,-509.033 171.082,-499.653"/>
<polygon fill="midnightblue" stroke="midnightblue" points="173.851,-501.793 177.228,-491.751 168.325,-497.496 173.851,-501.793"/>
</g>
<!-- Node5 -->
<g id="node5" class="node"><title>Node5</title>
<polygon fill="none" stroke="#bfbfbf" points="263.034,-416.5 263.034,-435.5 301.034,-435.5 301.034,-416.5 263.034,-416.5"/>
<text text-anchor="middle" x="282.034" y="-423.5" font-family="Helvetica,sans-Serif" font-size="10.00">array</text>
</g>
<!-- Node2&#45;&gt;Node5 -->
<g id="edge4" class="edge"><title>Node2&#45;&gt;Node5</title>
<path fill="none" stroke="midnightblue" d="M80.6201,-528.452C33.8254,-519.397 -18.5677,-502.132 7.03404,-472 38.3484,-435.145 188.486,-428.409 252.746,-427.227"/>
<polygon fill="midnightblue" stroke="midnightblue" points="253.051,-430.723 262.997,-427.072 252.946,-423.723 253.051,-430.723"/>
</g>
<!-- Node6 -->
<g id="node6" class="node"><title>Node6</title>
<polygon fill="none" stroke="#bfbfbf" points="16.034,-472.5 16.034,-491.5 58.034,-491.5 58.034,-472.5 16.034,-472.5"/>
<text text-anchor="middle" x="37.034" y="-479.5" font-family="Helvetica,sans-Serif" font-size="10.00">TF1.h</text>
</g>
<!-- Node2&#45;&gt;Node6 -->
<g id="edge5" class="edge"><title>Node2&#45;&gt;Node6</title>
<path fill="none" stroke="midnightblue" d="M125.164,-528.324C108.325,-519.664 82.2275,-506.242 62.796,-496.249"/>
<polygon fill="midnightblue" stroke="midnightblue" points="64.3559,-493.116 53.8622,-491.655 61.1544,-499.341 64.3559,-493.116"/>
</g>
<!-- Node7 -->
<g id="node7" class="node"><title>Node7</title>
<polygon fill="none" stroke="#bfbfbf" points="76.034,-472.5 76.034,-491.5 144.034,-491.5 144.034,-472.5 76.034,-472.5"/>
<text text-anchor="middle" x="110.034" y="-479.5" font-family="Helvetica,sans-Serif" font-size="10.00">TRandom.h</text>
</g>
<!-- Node2&#45;&gt;Node7 -->
<g id="edge6" class="edge"><title>Node2&#45;&gt;Node7</title>
<path fill="none" stroke="midnightblue" d="M136.75,-528.083C132.323,-520.613 125.871,-509.724 120.416,-500.52"/>
<polygon fill="midnightblue" stroke="midnightblue" points="123.329,-498.57 115.22,-491.751 117.307,-502.138 123.329,-498.57"/>
</g>
<!-- Node8&#45;&gt;Node5 -->
<g id="edge8" class="edge"><title>Node8&#45;&gt;Node5</title>
<path fill="none" stroke="midnightblue" d="M275.139,-584.392C264.43,-564.426 240.819,-513.502 253.034,-472 256.046,-461.765 262.189,-451.66 268.048,-443.627"/>
<polygon fill="midnightblue" stroke="midnightblue" points="270.966,-445.577 274.361,-435.541 265.448,-441.269 270.966,-445.577"/>
</g>
<!-- Node9&#45;&gt;Node5 -->
<g id="edge10" class="edge"><title>Node9&#45;&gt;Node5</title>
<path fill="none" stroke="midnightblue" d="M322.943,-472.083C315.879,-464.298 305.446,-452.801 296.885,-443.367"/>
<polygon fill="midnightblue" stroke="midnightblue" points="299.287,-440.805 289.975,-435.751 294.103,-445.509 299.287,-440.805"/>
</g>
<!-- Node10 -->
<g id="node10" class="node"><title>Node10</title>
<polygon fill="none" stroke="#bfbfbf" points="596.034,-136.5 596.034,-155.5 640.034,-155.5 640.034,-136.5 596.034,-136.5"/>
<text text-anchor="middle" x="618.034" y="-143.5" font-family="Helvetica,sans-Serif" font-size="10.00">cmath</text>
</g>
<!-- Node9&#45;&gt;Node10 -->
<g id="edge11" class="edge"><title>Node9&#45;&gt;Node10</title>
<path fill="none" stroke="midnightblue" d="M339.487,-472.438C355.801,-454.962 390.034,-413.258 390.034,-371 390.034,-371 390.034,-371 390.034,-257 390.034,-171.208 522.604,-152.294 585.568,-148.149"/>
<polygon fill="midnightblue" stroke="midnightblue" points="585.973,-151.632 595.757,-147.568 585.574,-144.643 585.973,-151.632"/>
</g>
<!-- Node12 -->
<g id="node12" class="node"><title>Node12</title>
<g id="a_node12"><a xlink:href="../../d1/d73/Defs_8h.html" target="_top" xlink:title="Common definitions for 2D coordinates. ">
<polygon fill="none" stroke="black" points="882.034,-192.5 882.034,-211.5 1008.03,-211.5 1008.03,-192.5 882.034,-192.5"/>
<text text-anchor="middle" x="945.034" y="-199.5" font-family="Helvetica,sans-Serif" font-size="10.00">DataFormatsTPC/Defs.h</text>
</a>
</g>
</g>
<!-- Node11&#45;&gt;Node12 -->
<g id="edge13" class="edge"><title>Node11&#45;&gt;Node12</title>
<path fill="none" stroke="midnightblue" d="M1436.36,-360.25C1405.5,-337.595 1318.45,-276.786 1236.03,-248 1164.52,-223.022 1078.3,-211.883 1018.36,-206.931"/>
<polygon fill="midnightblue" stroke="midnightblue" points="1018.47,-203.429 1008.22,-206.132 1017.92,-210.407 1018.47,-203.429"/>
</g>
<!-- Node25 -->
<g id="node25" class="node"><title>Node25</title>
<g id="a_node25"><a xlink:href="../../d3/dd6/Sector_8h.html" target="_top" xlink:title="TPCBase/Sector.h">
<polygon fill="none" stroke="black" points="1411.53,-248.5 1411.53,-267.5 1510.53,-267.5 1510.53,-248.5 1411.53,-248.5"/>
<text text-anchor="middle" x="1461.03" y="-255.5" font-family="Helvetica,sans-Serif" font-size="10.00">TPCBase/Sector.h</text>
</a>
</g>
</g>
<!-- Node11&#45;&gt;Node25 -->
<g id="edge28" class="edge"><title>Node11&#45;&gt;Node25</title>
<path fill="none" stroke="midnightblue" d="M1449.05,-360.368C1451.15,-342.617 1455.99,-301.666 1458.84,-277.597"/>
<polygon fill="midnightblue" stroke="midnightblue" points="1462.32,-277.933 1460.02,-267.591 1455.37,-277.112 1462.32,-277.933"/>
</g>
<!-- Node27 -->
<g id="node27" class="node"><title>Node27</title>
<g id="a_node27"><a xlink:href="../../dc/d14/ROC_8h.html" target="_top" xlink:title="TPCBase/ROC.h">
<polygon fill="none" stroke="black" points="1223.53,-304.5 1223.53,-323.5 1316.53,-323.5 1316.53,-304.5 1223.53,-304.5"/>
<text text-anchor="middle" x="1270.03" y="-311.5" font-family="Helvetica,sans-Serif" font-size="10.00">TPCBase/ROC.h</text>
</a>
</g>
</g>
<!-- Node11&#45;&gt;Node27 -->
<g id="edge31" class="edge"><title>Node11&#45;&gt;Node27</title>
<path fill="none" stroke="midnightblue" d="M1419.83,-360.444C1389.62,-351.28 1341.52,-336.688 1308,-326.519"/>
<polygon fill="midnightblue" stroke="midnightblue" points="1308.69,-323.07 1298.11,-323.516 1306.66,-329.769 1308.69,-323.07"/>
</g>
<!-- Node12&#45;&gt;Node10 -->
<g id="edge14" class="edge"><title>Node12&#45;&gt;Node10</title>
<path fill="none" stroke="midnightblue" d="M893.22,-192.444C825.039,-181.184 707.222,-161.728 650.457,-152.354"/>
<polygon fill="midnightblue" stroke="midnightblue" points="650.709,-148.848 640.272,-150.672 649.568,-155.755 650.709,-148.848"/>
</g>
<!-- Node13 -->
<g id="node13" class="node"><title>Node13</title>
<g id="a_node13"><a xlink:href="../../d2/dd0/Cartesian2D_8h.html" target="_top" xlink:title="MathUtils/Cartesian2D.h">
<polygon fill="none" stroke="black" points="449.534,-74.5 449.534,-93.5 574.534,-93.5 574.534,-74.5 449.534,-74.5"/>
<text text-anchor="middle" x="512.034" y="-81.5" font-family="Helvetica,sans-Serif" font-size="10.00">MathUtils/Cartesian2D.h</text>
</a>
</g>
</g>
<!-- Node12&#45;&gt;Node13 -->
<g id="edge15" class="edge"><title>Node12&#45;&gt;Node13</title>
<path fill="none" stroke="midnightblue" d="M913.195,-192.47C836.169,-171.835 639.784,-119.224 553.622,-96.1414"/>
<polygon fill="midnightblue" stroke="midnightblue" points="554.485,-92.7493 543.92,-93.5423 552.674,-99.5109 554.485,-92.7493"/>
</g>
<!-- Node16 -->
<g id="node16" class="node"><title>Node16</title>
<g id="a_node16"><a xlink:href="../../dd/d76/Cartesian3D_8h.html" target="_top" xlink:title="MathUtils/Cartesian3D.h">
<polygon fill="none" stroke="black" points="882.534,-136.5 882.534,-155.5 1007.53,-155.5 1007.53,-136.5 882.534,-136.5"/>
<text text-anchor="middle" x="945.034" y="-143.5" font-family="Helvetica,sans-Serif" font-size="10.00">MathUtils/Cartesian3D.h</text>
</a>
</g>
</g>
<!-- Node12&#45;&gt;Node16 -->
<g id="edge18" class="edge"><title>Node12&#45;&gt;Node16</title>
<path fill="none" stroke="midnightblue" d="M945.034,-192.083C945.034,-185.006 945.034,-174.861 945.034,-165.986"/>
<polygon fill="midnightblue" stroke="midnightblue" points="948.534,-165.751 945.034,-155.751 941.534,-165.751 948.534,-165.751"/>
</g>
<!-- Node14 -->
<g id="node14" class="node"><title>Node14</title>
<polygon fill="none" stroke="#bfbfbf" points="345.534,-1 345.534,-31 496.534,-31 496.534,-1 345.534,-1"/>
<text text-anchor="start" x="353.534" y="-19" font-family="Helvetica,sans-Serif" font-size="10.00">Math/GenVector/Displacement</text>
<text text-anchor="middle" x="421.034" y="-8" font-family="Helvetica,sans-Serif" font-size="10.00">Vector2D.h</text>
</g>
<!-- Node13&#45;&gt;Node14 -->
<g id="edge16" class="edge"><title>Node13&#45;&gt;Node14</title>
<path fill="none" stroke="midnightblue" d="M500.137,-74.3717C487.255,-65.0286 466.254,-49.7966 449.127,-37.375"/>
<polygon fill="midnightblue" stroke="midnightblue" points="450.737,-34.2194 440.587,-31.1815 446.627,-39.8859 450.737,-34.2194"/>
</g>
<!-- Node15 -->
<g id="node15" class="node"><title>Node15</title>
<polygon fill="none" stroke="#bfbfbf" points="515.034,-6.5 515.034,-25.5 691.034,-25.5 691.034,-6.5 515.034,-6.5"/>
<text text-anchor="middle" x="603.034" y="-13.5" font-family="Helvetica,sans-Serif" font-size="10.00">Math/GenVector/PositionVector2D.h</text>
</g>
<!-- Node13&#45;&gt;Node15 -->
<g id="edge17" class="edge"><title>Node13&#45;&gt;Node15</title>
<path fill="none" stroke="midnightblue" d="M523.931,-74.3717C538.918,-63.5015 564.896,-44.6602 582.976,-31.5474"/>
<polygon fill="midnightblue" stroke="midnightblue" points="585.094,-34.3349 591.134,-25.6305 580.984,-28.6684 585.094,-34.3349"/>
</g>
<!-- Node16&#45;&gt;Node13 -->
<g id="edge27" class="edge"><title>Node16&#45;&gt;Node13</title>
<path fill="none" stroke="midnightblue" d="M882.526,-138.77C810.369,-131.216 688.237,-117.32 584.034,-100 576.241,-98.7046 568.008,-97.1592 560.005,-95.5602"/>
<polygon fill="midnightblue" stroke="midnightblue" points="560.538,-92.0968 550.039,-93.521 559.134,-98.9547 560.538,-92.0968"/>
</g>
<!-- Node17 -->
<g id="node17" class="node"><title>Node17</title>
<polygon fill="none" stroke="#bfbfbf" points="687.534,-69 687.534,-99 838.534,-99 838.534,-69 687.534,-69"/>
<text text-anchor="start" x="695.534" y="-87" font-family="Helvetica,sans-Serif" font-size="10.00">Math/GenVector/Displacement</text>
<text text-anchor="middle" x="763.034" y="-76" font-family="Helvetica,sans-Serif" font-size="10.00">Vector3D.h</text>
</g>
<!-- Node16&#45;&gt;Node17 -->
<g id="edge19" class="edge"><title>Node16&#45;&gt;Node17</title>
<path fill="none" stroke="midnightblue" d="M918.958,-136.403C892.031,-127.526 849.278,-113.432 815.345,-102.245"/>
<polygon fill="midnightblue" stroke="midnightblue" points="816.171,-98.8323 805.577,-99.0253 813.979,-105.48 816.171,-98.8323"/>
</g>
<!-- Node18 -->
<g id="node18" class="node"><title>Node18</title>
<polygon fill="none" stroke="#bfbfbf" points="857.034,-74.5 857.034,-93.5 1033.03,-93.5 1033.03,-74.5 857.034,-74.5"/>
<text text-anchor="middle" x="945.034" y="-81.5" font-family="Helvetica,sans-Serif" font-size="10.00">Math/GenVector/PositionVector3D.h</text>
</g>
<!-- Node16&#45;&gt;Node18 -->
<g id="edge20" class="edge"><title>Node16&#45;&gt;Node18</title>
<path fill="none" stroke="midnightblue" d="M945.034,-136.403C945.034,-127.938 945.034,-114.728 945.034,-103.82"/>
<polygon fill="midnightblue" stroke="midnightblue" points="948.534,-103.581 945.034,-93.5806 941.534,-103.581 948.534,-103.581"/>
</g>
<!-- Node19 -->
<g id="node19" class="node"><title>Node19</title>
<polygon fill="none" stroke="#bfbfbf" points="1050.53,-74.5 1050.53,-93.5 1199.53,-93.5 1199.53,-74.5 1050.53,-74.5"/>
<text text-anchor="middle" x="1125.03" y="-81.5" font-family="Helvetica,sans-Serif" font-size="10.00">Math/GenVector/Rotation3D.h</text>
</g>
<!-- Node16&#45;&gt;Node19 -->
<g id="edge21" class="edge"><title>Node16&#45;&gt;Node19</title>
<path fill="none" stroke="midnightblue" d="M970.824,-136.403C1001.97,-126.022 1054.52,-108.506 1089.49,-96.849"/>
<polygon fill="midnightblue" stroke="midnightblue" points="1090.91,-100.063 1099.29,-93.5806 1088.7,-93.4225 1090.91,-100.063"/>
</g>
<!-- Node20 -->
<g id="node20" class="node"><title>Node20</title>
<polygon fill="none" stroke="#bfbfbf" points="1218.03,-74.5 1218.03,-93.5 1374.03,-93.5 1374.03,-74.5 1218.03,-74.5"/>
<text text-anchor="middle" x="1296.03" y="-81.5" font-family="Helvetica,sans-Serif" font-size="10.00">Math/GenVector/Transform3D.h</text>
</g>
<!-- Node16&#45;&gt;Node20 -->
<g id="edge22" class="edge"><title>Node16&#45;&gt;Node20</title>
<path fill="none" stroke="midnightblue" d="M994.951,-136.467C1058.5,-125.604 1168.18,-106.855 1236.16,-95.2346"/>
<polygon fill="midnightblue" stroke="midnightblue" points="1237.02,-98.6384 1246.29,-93.5034 1235.84,-91.7385 1237.02,-98.6384"/>
</g>
<!-- Node21 -->
<g id="node21" class="node"><title>Node21</title>
<polygon fill="none" stroke="#bfbfbf" points="1392.03,-74.5 1392.03,-93.5 1552.03,-93.5 1552.03,-74.5 1392.03,-74.5"/>
<text text-anchor="middle" x="1472.03" y="-81.5" font-family="Helvetica,sans-Serif" font-size="10.00">Math/GenVector/Translation3D.h</text>
</g>
<!-- Node16&#45;&gt;Node21 -->
<g id="edge23" class="edge"><title>Node16&#45;&gt;Node21</title>
<path fill="none" stroke="midnightblue" d="M1007.56,-139.855C1092.69,-132.56 1249.71,-118.064 1383.03,-100 1393.39,-98.597 1404.39,-96.907 1414.99,-95.1748"/>
<polygon fill="midnightblue" stroke="midnightblue" points="1415.72,-98.6027 1425.01,-93.5092 1414.57,-91.6975 1415.72,-98.6027"/>
</g>
<!-- Node22 -->
<g id="node22" class="node"><title>Node22</title>
<polygon fill="none" stroke="#bfbfbf" points="1570.03,-74.5 1570.03,-93.5 1626.03,-93.5 1626.03,-74.5 1570.03,-74.5"/>
<text text-anchor="middle" x="1598.03" y="-81.5" font-family="Helvetica,sans-Serif" font-size="10.00">Rtypes.h</text>
</g>
<!-- Node16&#45;&gt;Node22 -->
<g id="edge24" class="edge"><title>Node16&#45;&gt;Node22</title>
<path fill="none" stroke="midnightblue" d="M1007.6,-142.903C1142.54,-137.979 1457.13,-124.224 1561.03,-100 1564.11,-99.2835 1567.26,-98.3473 1570.36,-97.2923"/>
<polygon fill="midnightblue" stroke="midnightblue" points="1571.86,-100.468 1579.96,-93.6408 1569.37,-93.9254 1571.86,-100.468"/>
</g>
<!-- Node23 -->
<g id="node23" class="node"><title>Node23</title>
<polygon fill="none" stroke="#bfbfbf" points="593.034,-74.5 593.034,-93.5 669.034,-93.5 669.034,-74.5 593.034,-74.5"/>
<text text-anchor="middle" x="631.034" y="-81.5" font-family="Helvetica,sans-Serif" font-size="10.00">TGeoMatrix.h</text>
</g>
<!-- Node16&#45;&gt;Node23 -->
<g id="edge25" class="edge"><title>Node16&#45;&gt;Node23</title>
<path fill="none" stroke="midnightblue" d="M882.483,-137.018C828.047,-129.465 747.244,-116.787 678.034,-100 673.914,-99.0006 669.63,-97.8269 665.399,-96.5837"/>
<polygon fill="midnightblue" stroke="midnightblue" points="666.314,-93.2034 655.727,-93.6058 664.255,-99.8935 666.314,-93.2034"/>
</g>
<!-- Node24 -->
<g id="node24" class="node"><title>Node24</title>
<polygon fill="none" stroke="#bfbfbf" points="367.534,-74.5 367.534,-93.5 412.534,-93.5 412.534,-74.5 367.534,-74.5"/>
<text text-anchor="middle" x="390.034" y="-81.5" font-family="Helvetica,sans-Serif" font-size="10.00">iosfwd</text>
</g>
<!-- Node16&#45;&gt;Node24 -->
<g id="edge26" class="edge"><title>Node16&#45;&gt;Node24</title>
<path fill="none" stroke="midnightblue" d="M882.273,-143.484C786.222,-140.251 597.344,-130.281 440.034,-100 434.361,-98.9079 428.412,-97.4296 422.678,-95.825"/>
<polygon fill="midnightblue" stroke="midnightblue" points="423.275,-92.3512 412.692,-92.8568 421.28,-99.061 423.275,-92.3512"/>
</g>
<!-- Node25&#45;&gt;Node12 -->
<g id="edge30" class="edge"><title>Node25&#45;&gt;Node12</title>
<path fill="none" stroke="midnightblue" d="M1411.45,-249.825C1406.58,-249.181 1401.71,-248.562 1397.03,-248 1263.78,-232.004 1107.93,-217.388 1018.43,-209.387"/>
<polygon fill="midnightblue" stroke="midnightblue" points="1018.65,-205.893 1008.38,-208.491 1018.03,-212.865 1018.65,-205.893"/>
</g>
<!-- Node26 -->
<g id="node26" class="node"><title>Node26</title>
<g id="a_node26"><a xlink:href="../../d0/dda/DataFormats_2Detectors_2TPC_2include_2DataFormatsTPC_2Constants_8h.html" target="_top" xlink:title="DataFormatsTPC/Constants.h">
<polygon fill="none" stroke="black" points="1386.03,-192.5 1386.03,-211.5 1536.03,-211.5 1536.03,-192.5 1386.03,-192.5"/>
<text text-anchor="middle" x="1461.03" y="-199.5" font-family="Helvetica,sans-Serif" font-size="10.00">DataFormatsTPC/Constants.h</text>
</a>
</g>
</g>
<!-- Node25&#45;&gt;Node26 -->
<g id="edge29" class="edge"><title>Node25&#45;&gt;Node26</title>
<path fill="none" stroke="midnightblue" d="M1461.03,-248.083C1461.03,-241.006 1461.03,-230.861 1461.03,-221.986"/>
<polygon fill="midnightblue" stroke="midnightblue" points="1464.53,-221.751 1461.03,-211.751 1457.53,-221.751 1464.53,-221.751"/>
</g>
<!-- Node27&#45;&gt;Node12 -->
<g id="edge32" class="edge"><title>Node27&#45;&gt;Node12</title>
<path fill="none" stroke="midnightblue" d="M1264.53,-304.134C1255.1,-289.763 1234.39,-261.623 1209.03,-248 1149.94,-216.255 1073.61,-205.998 1018.23,-203.092"/>
<polygon fill="midnightblue" stroke="midnightblue" points="1018.3,-199.592 1008.15,-202.632 1017.98,-206.584 1018.3,-199.592"/>
</g>
<!-- Node27&#45;&gt;Node25 -->
<g id="edge33" class="edge"><title>Node27&#45;&gt;Node25</title>
<path fill="none" stroke="midnightblue" d="M1300.3,-304.444C1332.99,-295.201 1385.22,-280.436 1421.22,-270.257"/>
<polygon fill="midnightblue" stroke="midnightblue" points="1422.24,-273.605 1430.91,-267.516 1420.34,-266.869 1422.24,-273.605"/>
</g>
<!-- Node29&#45;&gt;Node3 -->
<g id="edge39" class="edge"><title>Node29&#45;&gt;Node3</title>
<path fill="none" stroke="midnightblue" d="M688.464,-586.855C640.032,-579.93 571.647,-567.089 553.034,-548 541.334,-536.001 538.402,-516.705 538.056,-502.248"/>
<polygon fill="midnightblue" stroke="midnightblue" points="541.56,-501.977 538.215,-491.924 534.561,-501.869 541.56,-501.977"/>
</g>
<!-- Node29&#45;&gt;Node12 -->
<g id="edge43" class="edge"><title>Node29&#45;&gt;Node12</title>
<path fill="none" stroke="midnightblue" d="M688.356,-588.624C628.144,-582.527 532.275,-569.709 504.034,-548 437.486,-496.844 434.231,-426.045 486.034,-360 579.346,-241.036 767.505,-211.714 871.6,-204.812"/>
<polygon fill="midnightblue" stroke="midnightblue" points="871.945,-208.298 881.713,-204.195 871.518,-201.311 871.945,-208.298"/>
</g>
<!-- Node29&#45;&gt;Node25 -->
<g id="edge73" class="edge"><title>Node29&#45;&gt;Node25</title>
<path fill="none" stroke="midnightblue" d="M789.833,-591.577C969.048,-585.893 1561.03,-561.199 1561.03,-483 1561.03,-483 1561.03,-483 1561.03,-369 1561.03,-324.984 1516.65,-290.796 1487.02,-272.875"/>
<polygon fill="midnightblue" stroke="midnightblue" points="1488.4,-269.629 1478,-267.636 1484.89,-275.683 1488.4,-269.629"/>
</g>
<!-- Node29&#45;&gt;Node27 -->
<g id="edge72" class="edge"><title>Node29&#45;&gt;Node27</title>
<path fill="none" stroke="midnightblue" d="M789.664,-589.094C931.203,-576.996 1325.45,-534.847 1399.03,-436 1432.83,-390.605 1351.1,-347.858 1302.67,-327.475"/>
<polygon fill="midnightblue" stroke="midnightblue" points="1303.77,-324.14 1293.19,-323.587 1301.11,-330.618 1303.77,-324.14"/>
</g>
<!-- Node30 -->
<g id="node30" class="node"><title>Node30</title>
<polygon fill="none" stroke="#bfbfbf" points="602.034,-472.5 602.034,-491.5 654.034,-491.5 654.034,-472.5 602.034,-472.5"/>
<text text-anchor="middle" x="628.034" y="-479.5" font-family="Helvetica,sans-Serif" font-size="10.00">memory</text>
</g>
<!-- Node29&#45;&gt;Node30 -->
<g id="edge36" class="edge"><title>Node29&#45;&gt;Node30</title>
<path fill="none" stroke="midnightblue" d="M688.439,-587.126C641.497,-580.511 576.603,-567.994 561.034,-548 545.584,-528.157 573.481,-508.488 597.853,-496.072"/>
<polygon fill="midnightblue" stroke="midnightblue" points="599.446,-499.189 606.923,-491.683 596.397,-492.888 599.446,-499.189"/>
</g>
<!-- Node31 -->
<g id="node31" class="node"><title>Node31</title>
<polygon fill="none" stroke="#bfbfbf" points="495.034,-360.5 495.034,-379.5 539.034,-379.5 539.034,-360.5 495.034,-360.5"/>
<text text-anchor="middle" x="517.034" y="-367.5" font-family="Helvetica,sans-Serif" font-size="10.00">vector</text>
</g>
<!-- Node29&#45;&gt;Node31 -->
<g id="edge37" class="edge"><title>Node29&#45;&gt;Node31</title>
<path fill="none" stroke="midnightblue" d="M688.178,-589.87C645.666,-585.389 584.674,-574.493 538.034,-548 508.237,-531.074 497.711,-523.837 485.034,-492 470.833,-456.337 491.471,-412.273 505.626,-388.386"/>
<polygon fill="midnightblue" stroke="midnightblue" points="508.696,-390.078 511,-379.737 502.75,-386.384 508.696,-390.078"/>
</g>
<!-- Node32 -->
<g id="node32" class="node"><title>Node32</title>
<polygon fill="none" stroke="#bfbfbf" points="1349.53,-416.5 1349.53,-435.5 1390.53,-435.5 1390.53,-416.5 1349.53,-416.5"/>
<text text-anchor="middle" x="1370.03" y="-423.5" font-family="Helvetica,sans-Serif" font-size="10.00">string</text>
</g>
<!-- Node29&#45;&gt;Node32 -->
<g id="edge38" class="edge"><title>Node29&#45;&gt;Node32</title>
<path fill="none" stroke="midnightblue" d="M786.281,-584.466C830.808,-576.146 899.278,-562.638 958.034,-548 1102.18,-512.089 1271.55,-458.769 1339.54,-436.902"/>
<polygon fill="midnightblue" stroke="midnightblue" points="1340.75,-440.19 1349.19,-433.789 1338.6,-433.527 1340.75,-440.19"/>
</g>
<!-- Node33 -->
<g id="node33" class="node"><title>Node33</title>
<polygon fill="none" stroke="#bfbfbf" points="570.034,-528.5 570.034,-547.5 696.034,-547.5 696.034,-528.5 570.034,-528.5"/>
<text text-anchor="middle" x="633.034" y="-535.5" font-family="Helvetica,sans-Serif" font-size="10.00">boost/range/combine.hpp</text>
</g>
<!-- Node29&#45;&gt;Node33 -->
<g id="edge40" class="edge"><title>Node29&#45;&gt;Node33</title>
<path fill="none" stroke="midnightblue" d="M722.003,-584.324C705.004,-575.664 678.658,-562.242 659.041,-552.249"/>
<polygon fill="midnightblue" stroke="midnightblue" points="660.522,-549.075 650.023,-547.655 657.344,-555.312 660.522,-549.075"/>
</g>
<!-- Node34 -->
<g id="node34" class="node"><title>Node34</title>
<polygon fill="none" stroke="#bfbfbf" points="714.534,-528.5 714.534,-547.5 763.534,-547.5 763.534,-528.5 714.534,-528.5"/>
<text text-anchor="middle" x="739.034" y="-535.5" font-family="Helvetica,sans-Serif" font-size="10.00">cassert</text>
</g>
<!-- Node29&#45;&gt;Node34 -->
<g id="edge41" class="edge"><title>Node29&#45;&gt;Node34</title>
<path fill="none" stroke="midnightblue" d="M739.034,-584.083C739.034,-577.006 739.034,-566.861 739.034,-557.986"/>
<polygon fill="midnightblue" stroke="midnightblue" points="742.534,-557.751 739.034,-547.751 735.534,-557.751 742.534,-557.751"/>
</g>
<!-- Node35 -->
<g id="node35" class="node"><title>Node35</title>
<polygon fill="none" stroke="#bfbfbf" points="672.534,-472.5 672.534,-491.5 743.534,-491.5 743.534,-472.5 672.534,-472.5"/>
<text text-anchor="middle" x="708.034" y="-479.5" font-family="Helvetica,sans-Serif" font-size="10.00">FairLogger.h</text>
</g>
<!-- Node29&#45;&gt;Node35 -->
<g id="edge42" class="edge"><title>Node29&#45;&gt;Node35</title>
<path fill="none" stroke="midnightblue" d="M749.249,-584.142C762.407,-571.608 782.416,-547.992 772.034,-528 764.881,-514.226 751.363,-503.783 738.587,-496.441"/>
<polygon fill="midnightblue" stroke="midnightblue" points="739.992,-493.225 729.517,-491.64 736.717,-499.412 739.992,-493.225"/>
</g>
<!-- Node36 -->
<g id="node36" class="node"><title>Node36</title>
<g id="a_node36"><a xlink:href="../../d7/d2c/Mapper_8h.html" target="_top" xlink:title="TPCBase/Mapper.h">
<polygon fill="none" stroke="black" points="901.534,-472.5 901.534,-491.5 1004.53,-491.5 1004.53,-472.5 901.534,-472.5"/>
<text text-anchor="middle" x="953.034" y="-479.5" font-family="Helvetica,sans-Serif" font-size="10.00">TPCBase/Mapper.h</text>
</a>
</g>
</g>
<!-- Node29&#45;&gt;Node36 -->
<g id="edge44" class="edge"><title>Node29&#45;&gt;Node36</title>
<path fill="none" stroke="midnightblue" d="M789.689,-587.682C841.57,-581.197 917.451,-568.493 938.034,-548 950.079,-536.008 953.244,-516.402 953.751,-501.854"/>
<polygon fill="midnightblue" stroke="midnightblue" points="957.249,-501.498 953.707,-491.513 950.25,-501.528 957.249,-501.498"/>
</g>
<!-- Node44 -->
<g id="node44" class="node"><title>Node44</title>
<g id="a_node44"><a xlink:href="../../db/d9b/CalArray_8h.html" target="_top" xlink:title="TPCBase/CalArray.h">
<polygon fill="none" stroke="black" points="820.534,-528.5 820.534,-547.5 929.534,-547.5 929.534,-528.5 820.534,-528.5"/>
<text text-anchor="middle" x="875.034" y="-535.5" font-family="Helvetica,sans-Serif" font-size="10.00">TPCBase/CalArray.h</text>
</a>
</g>
</g>
<!-- Node29&#45;&gt;Node44 -->
<g id="edge74" class="edge"><title>Node29&#45;&gt;Node44</title>
<path fill="none" stroke="midnightblue" d="M760.584,-584.444C783.065,-575.517 818.522,-561.439 844.014,-551.317"/>
<polygon fill="midnightblue" stroke="midnightblue" points="845.583,-554.46 853.585,-547.516 842.999,-547.954 845.583,-554.46"/>
</g>
<!-- Node36&#45;&gt;Node5 -->
<g id="edge47" class="edge"><title>Node36&#45;&gt;Node5</title>
<path fill="none" stroke="midnightblue" d="M901.309,-473.214C897.835,-472.776 894.386,-472.367 891.034,-472 668.715,-447.681 399.265,-432.885 311.319,-428.431"/>
<polygon fill="midnightblue" stroke="midnightblue" points="311.441,-424.933 301.278,-427.927 311.09,-431.924 311.441,-424.933"/>
</g>
<!-- Node36&#45;&gt;Node10 -->
<g id="edge49" class="edge"><title>Node36&#45;&gt;Node10</title>
<path fill="none" stroke="midnightblue" d="M901.276,-473.473C897.81,-472.974 894.372,-472.479 891.034,-472 834.603,-463.905 680.133,-473.316 637.034,-436 614.28,-416.299 618.034,-401.098 618.034,-371 618.034,-371 618.034,-371 618.034,-257 618.034,-224.948 618.034,-187.643 618.034,-165.749"/>
<polygon fill="midnightblue" stroke="midnightblue" points="621.534,-165.558 618.034,-155.558 614.534,-165.558 621.534,-165.558"/>
</g>
<!-- Node36&#45;&gt;Node12 -->
<g id="edge50" class="edge"><title>Node36&#45;&gt;Node12</title>
<path fill="none" stroke="midnightblue" d="M927.873,-472.378C911.615,-465.343 891.741,-453.645 882.034,-436 841.184,-361.746 904.2,-259.393 932.464,-219.683"/>
<polygon fill="midnightblue" stroke="midnightblue" points="935.305,-221.728 938.371,-211.587 929.65,-217.602 935.305,-221.728"/>
</g>
<!-- Node36&#45;&gt;Node25 -->
<g id="edge71" class="edge"><title>Node36&#45;&gt;Node25</title>
<path fill="none" stroke="midnightblue" d="M1004.58,-477.45C1070.4,-472.136 1187.47,-460.055 1285.03,-436 1310.29,-429.773 1315.06,-423.265 1340.03,-416 1411.27,-395.278 1456.57,-437.841 1503.03,-380 1528.45,-348.364 1496.29,-300.347 1475.72,-275.378"/>
<polygon fill="midnightblue" stroke="midnightblue" points="1478.21,-272.896 1469.05,-267.572 1472.89,-277.446 1478.21,-272.896"/>
</g>
<!-- Node36&#45;&gt;Node28 -->
<g id="edge51" class="edge"><title>Node36&#45;&gt;Node28</title>
<path fill="none" stroke="midnightblue" d="M975.474,-472.477C1001.14,-461.35 1037.82,-440.393 1023.03,-416 1005.1,-386.421 971.965,-409.579 954.034,-380 949.426,-372.399 949.012,-367.334 954.034,-360 966.413,-341.92 987.194,-331.103 1007.78,-324.632"/>
<polygon fill="midnightblue" stroke="midnightblue" points="1008.84,-327.968 1017.5,-321.873 1006.93,-321.234 1008.84,-327.968"/>
</g>
<!-- Node36&#45;&gt;Node31 -->
<g id="edge46" class="edge"><title>Node36&#45;&gt;Node31</title>
<path fill="none" stroke="midnightblue" d="M901.292,-473.355C897.822,-472.884 894.379,-472.428 891.034,-472 818.957,-462.779 629.18,-471.952 566.034,-436 547.094,-425.217 533.192,-403.837 525.13,-388.54"/>
<polygon fill="midnightblue" stroke="midnightblue" points="528.25,-386.954 520.682,-379.54 521.975,-390.055 528.25,-386.954"/>
</g>
<!-- Node36&#45;&gt;Node32 -->
<g id="edge48" class="edge"><title>Node36&#45;&gt;Node32</title>
<path fill="none" stroke="midnightblue" d="M1004.65,-477.136C1078.37,-471.116 1217.86,-457.865 1335.03,-436 1336.5,-435.727 1337.99,-435.427 1339.5,-435.107"/>
<polygon fill="midnightblue" stroke="midnightblue" points="1340.47,-438.475 1349.41,-432.794 1338.87,-431.659 1340.47,-438.475"/>
</g>
<!-- Node37 -->
<g id="node37" class="node"><title>Node37</title>
<polygon fill="none" stroke="#bfbfbf" points="799.534,-416.5 799.534,-435.5 834.534,-435.5 834.534,-416.5 799.534,-416.5"/>
<text text-anchor="middle" x="817.034" y="-423.5" font-family="Helvetica,sans-Serif" font-size="10.00">map</text>
</g>
<!-- Node36&#45;&gt;Node37 -->
<g id="edge45" class="edge"><title>Node36&#45;&gt;Node37</title>
<path fill="none" stroke="midnightblue" d="M931.484,-472.444C907.813,-463.045 869.756,-447.934 844.093,-437.744"/>
<polygon fill="midnightblue" stroke="midnightblue" points="845.176,-434.408 834.591,-433.971 842.593,-440.914 845.176,-434.408"/>
</g>
<!-- Node38 -->
<g id="node38" class="node"><title>Node38</title>
<g id="a_node38"><a xlink:href="../../dd/d0b/PadSecPos_8h.html" target="_top" xlink:title="TPCBase/PadSecPos.h">
<polygon fill="none" stroke="black" points="1223.03,-360.5 1223.03,-379.5 1345.03,-379.5 1345.03,-360.5 1223.03,-360.5"/>
<text text-anchor="middle" x="1284.03" y="-367.5" font-family="Helvetica,sans-Serif" font-size="10.00">TPCBase/PadSecPos.h</text>
</a>
</g>
</g>
<!-- Node36&#45;&gt;Node38 -->
<g id="edge52" class="edge"><title>Node36&#45;&gt;Node38</title>
<path fill="none" stroke="midnightblue" d="M1004.59,-480.049C1082.71,-477.558 1226.01,-468.551 1264.03,-436 1277.33,-424.62 1281.93,-404.628 1283.45,-389.812"/>
<polygon fill="midnightblue" stroke="midnightblue" points="1286.95,-389.924 1284.11,-379.719 1279.97,-389.471 1286.95,-389.924"/>
</g>
<!-- Node39 -->
<g id="node39" class="node"><title>Node39</title>
<g id="a_node39"><a xlink:href="../../da/d61/PadROCPos_8h.html" target="_top" xlink:title="TPCBase/PadROCPos.h">
<polygon fill="none" stroke="black" points="963.034,-360.5 963.034,-379.5 1091.03,-379.5 1091.03,-360.5 963.034,-360.5"/>
<text text-anchor="middle" x="1027.03" y="-367.5" font-family="Helvetica,sans-Serif" font-size="10.00">TPCBase/PadROCPos.h</text>
</a>
</g>
</g>
<!-- Node36&#45;&gt;Node39 -->
<g id="edge55" class="edge"><title>Node36&#45;&gt;Node39</title>
<path fill="none" stroke="midnightblue" d="M1001.08,-472.458C1021.98,-466.101 1044.5,-455.074 1057.03,-436 1067.21,-420.516 1055.36,-401.026 1043.69,-387.445"/>
<polygon fill="midnightblue" stroke="midnightblue" points="1046.01,-384.797 1036.64,-379.841 1040.87,-389.555 1046.01,-384.797"/>
</g>
<!-- Node40 -->
<g id="node40" class="node"><title>Node40</title>
<g id="a_node40"><a xlink:href="../../d3/d54/DigitPos_8h.html" target="_top" xlink:title="TPCBase/DigitPos.h">
<polygon fill="none" stroke="black" points="1147.03,-416.5 1147.03,-435.5 1255.03,-435.5 1255.03,-416.5 1147.03,-416.5"/>
<text text-anchor="middle" x="1201.03" y="-423.5" font-family="Helvetica,sans-Serif" font-size="10.00">TPCBase/DigitPos.h</text>
</a>
</g>
</g>
<!-- Node36&#45;&gt;Node40 -->
<g id="edge59" class="edge"><title>Node36&#45;&gt;Node40</title>
<path fill="none" stroke="midnightblue" d="M992.33,-472.444C1035.59,-463.023 1105.21,-447.866 1152.01,-437.675"/>
<polygon fill="midnightblue" stroke="midnightblue" points="1152.9,-441.064 1161.92,-435.516 1151.41,-434.224 1152.9,-441.064"/>
</g>
<!-- Node41 -->
<g id="node41" class="node"><title>Node41</title>
<g id="a_node41"><a xlink:href="../../d1/d1f/FECInfo_8h.html" target="_top" xlink:title="TPCBase/FECInfo.h">
<polygon fill="none" stroke="black" points="450.534,-248.5 450.534,-267.5 557.534,-267.5 557.534,-248.5 450.534,-248.5"/>
<text text-anchor="middle" x="504.034" y="-255.5" font-family="Helvetica,sans-Serif" font-size="10.00">TPCBase/FECInfo.h</text>
</a>
</g>
</g>
<!-- Node36&#45;&gt;Node41 -->
<g id="edge64" class="edge"><title>Node36&#45;&gt;Node41</title>
<path fill="none" stroke="midnightblue" d="M901.285,-473.412C897.817,-472.927 894.375,-472.452 891.034,-472 827.337,-463.383 657.421,-471.797 604.034,-436 574.505,-416.201 529.521,-317.946 511.695,-276.981"/>
<polygon fill="midnightblue" stroke="midnightblue" points="514.857,-275.473 507.685,-267.675 508.428,-278.243 514.857,-275.473"/>
</g>
<!-- Node42 -->
<g id="node42" class="node"><title>Node42</title>
<g id="a_node42"><a xlink:href="../../da/d9d/PadRegionInfo_8h.html" target="_top" xlink:title="TPCBase/PadRegionInfo.h">
<polygon fill="none" stroke="black" points="646.534,-416.5 646.534,-435.5 781.534,-435.5 781.534,-416.5 646.534,-416.5"/>
<text text-anchor="middle" x="714.034" y="-423.5" font-family="Helvetica,sans-Serif" font-size="10.00">TPCBase/PadRegionInfo.h</text>
</a>
</g>
</g>
<!-- Node36&#45;&gt;Node42 -->
<g id="edge66" class="edge"><title>Node36&#45;&gt;Node42</title>
<path fill="none" stroke="midnightblue" d="M915.164,-472.444C873.558,-463.043 806.665,-447.929 761.565,-437.739"/>
<polygon fill="midnightblue" stroke="midnightblue" points="762.253,-434.306 751.727,-435.516 760.71,-441.134 762.253,-434.306"/>
</g>
<!-- Node43 -->
<g id="node43" class="node"><title>Node43</title>
<g id="a_node43"><a xlink:href="../../d6/d42/PartitionInfo_8h.html" target="_top" xlink:title="TPCBase/PartitionInfo.h">
<polygon fill="none" stroke="black" points="891.534,-416.5 891.534,-435.5 1014.53,-435.5 1014.53,-416.5 891.534,-416.5"/>
<text text-anchor="middle" x="953.034" y="-423.5" font-family="Helvetica,sans-Serif" font-size="10.00">TPCBase/PartitionInfo.h</text>
</a>
</g>
</g>
<!-- Node36&#45;&gt;Node43 -->
<g id="edge70" class="edge"><title>Node36&#45;&gt;Node43</title>
<path fill="none" stroke="midnightblue" d="M953.034,-472.083C953.034,-465.006 953.034,-454.861 953.034,-445.986"/>
<polygon fill="midnightblue" stroke="midnightblue" points="956.534,-445.751 953.034,-435.751 949.534,-445.751 956.534,-445.751"/>
</g>
<!-- Node38&#45;&gt;Node25 -->
<g id="edge53" class="edge"><title>Node38&#45;&gt;Node25</title>
<path fill="none" stroke="midnightblue" d="M1297.92,-360.368C1328.43,-341.412 1401.5,-296.001 1438.6,-272.942"/>
<polygon fill="midnightblue" stroke="midnightblue" points="1440.56,-275.843 1447.21,-267.591 1436.87,-269.897 1440.56,-275.843"/>
</g>
<!-- Node38&#45;&gt;Node28 -->
<g id="edge54" class="edge"><title>Node38&#45;&gt;Node28</title>
<path fill="none" stroke="midnightblue" d="M1250.13,-360.444C1213.18,-351.122 1153.98,-336.183 1113.62,-325.997"/>
<polygon fill="midnightblue" stroke="midnightblue" points="1114.34,-322.57 1103.78,-323.516 1112.62,-329.357 1114.34,-322.57"/>
</g>
<!-- Node39&#45;&gt;Node12 -->
<g id="edge56" class="edge"><title>Node39&#45;&gt;Node12</title>
<path fill="none" stroke="midnightblue" d="M1022.63,-360.075C1009.61,-333.719 971.155,-255.878 953.758,-220.661"/>
<polygon fill="midnightblue" stroke="midnightblue" points="956.833,-218.984 949.266,-211.568 950.557,-222.084 956.833,-218.984"/>
</g>
<!-- Node39&#45;&gt;Node27 -->
<g id="edge57" class="edge"><title>Node39&#45;&gt;Node27</title>
<path fill="none" stroke="midnightblue" d="M1065.54,-360.444C1107.84,-351.043 1175.85,-335.929 1221.71,-325.739"/>
<polygon fill="midnightblue" stroke="midnightblue" points="1222.71,-329.102 1231.71,-323.516 1221.19,-322.269 1222.71,-329.102"/>
</g>
<!-- Node39&#45;&gt;Node28 -->
<g id="edge58" class="edge"><title>Node39&#45;&gt;Node28</title>
<path fill="none" stroke="midnightblue" d="M1034.13,-360.083C1040.27,-352.377 1049.3,-341.033 1056.77,-331.653"/>
<polygon fill="midnightblue" stroke="midnightblue" points="1059.57,-333.754 1063.07,-323.751 1054.1,-329.394 1059.57,-333.754"/>
</g>
<!-- Node40&#45;&gt;Node11 -->
<g id="edge61" class="edge"><title>Node40&#45;&gt;Node11</title>
<path fill="none" stroke="midnightblue" d="M1240.17,-416.444C1283.26,-407.023 1352.59,-391.866 1399.21,-381.675"/>
<polygon fill="midnightblue" stroke="midnightblue" points="1400.06,-385.072 1409.08,-379.516 1398.56,-378.233 1400.06,-385.072"/>
</g>
<!-- Node40&#45;&gt;Node12 -->
<g id="edge60" class="edge"><title>Node40&#45;&gt;Node12</title>
<path fill="none" stroke="midnightblue" d="M1197.93,-416.325C1189.9,-394.865 1166.51,-338.532 1131.03,-304 1086.52,-260.67 1019.68,-230.522 979.417,-215.042"/>
<polygon fill="midnightblue" stroke="midnightblue" points="980.619,-211.755 970.027,-211.513 978.156,-218.307 980.619,-211.755"/>
</g>
<!-- Node40&#45;&gt;Node28 -->
<g id="edge62" class="edge"><title>Node40&#45;&gt;Node28</title>
<path fill="none" stroke="midnightblue" d="M1192.6,-416.172C1180.1,-403.266 1155.68,-378.747 1133.03,-360 1119.87,-349.102 1104.24,-337.929 1091.85,-329.443"/>
<polygon fill="midnightblue" stroke="midnightblue" points="1093.72,-326.482 1083.47,-323.78 1089.79,-332.281 1093.72,-326.482"/>
</g>
<!-- Node40&#45;&gt;Node38 -->
<g id="edge63" class="edge"><title>Node40&#45;&gt;Node38</title>
<path fill="none" stroke="midnightblue" d="M1214.37,-416.324C1227.2,-407.979 1246.82,-395.212 1261.97,-385.352"/>
<polygon fill="midnightblue" stroke="midnightblue" points="1264.26,-388.042 1270.73,-379.655 1260.44,-382.174 1264.26,-388.042"/>
</g>
<!-- Node41&#45;&gt;Node24 -->
<g id="edge65" class="edge"><title>Node41&#45;&gt;Node24</title>
<path fill="none" stroke="midnightblue" d="M498.224,-248.234C480.231,-221.086 425.207,-138.067 401.309,-102.012"/>
<polygon fill="midnightblue" stroke="midnightblue" points="404.139,-99.946 395.697,-93.5442 398.304,-103.813 404.139,-99.946"/>
</g>
<!-- Node42&#45;&gt;Node12 -->
<g id="edge68" class="edge"><title>Node42&#45;&gt;Node12</title>
<path fill="none" stroke="midnightblue" d="M718.311,-416.416C732.589,-388.529 781.329,-299.332 845.034,-248 863.169,-233.387 886.807,-222.465 906.547,-215.042"/>
<polygon fill="midnightblue" stroke="midnightblue" points="907.949,-218.257 916.174,-211.579 905.579,-211.671 907.949,-218.257"/>
</g>
<!-- Node42&#45;&gt;Node28 -->
<g id="edge69" class="edge"><title>Node42&#45;&gt;Node28</title>
<path fill="none" stroke="midnightblue" d="M740.801,-416.492C780.223,-403.985 856.236,-379.958 921.034,-360 958.621,-348.423 1001.63,-335.464 1031.75,-326.437"/>
<polygon fill="midnightblue" stroke="midnightblue" points="1032.87,-329.756 1041.44,-323.534 1030.86,-323.05 1032.87,-329.756"/>
</g>
<!-- Node42&#45;&gt;Node31 -->
<g id="edge67" class="edge"><title>Node42&#45;&gt;Node31</title>
<path fill="none" stroke="midnightblue" d="M682.819,-416.444C646.225,-406.413 585.899,-389.877 548.989,-379.759"/>
<polygon fill="midnightblue" stroke="midnightblue" points="549.808,-376.355 539.238,-377.086 547.957,-383.106 549.808,-376.355"/>
</g>
<!-- Node44&#45;&gt;Node3 -->
<g id="edge80" class="edge"><title>Node44&#45;&gt;Node3</title>
<path fill="none" stroke="midnightblue" d="M820.955,-528.484C766.337,-519.857 679.249,-506.033 594.202,-492.182"/>
<polygon fill="midnightblue" stroke="midnightblue" points="594.544,-488.692 584.111,-490.537 593.418,-495.6 594.544,-488.692"/>
</g>
<!-- Node44&#45;&gt;Node4 -->
<g id="edge75" class="edge"><title>Node44&#45;&gt;Node4</title>
<path fill="none" stroke="midnightblue" d="M820.525,-532.054C804.874,-530.683 787.782,-529.234 772.034,-528 541.52,-509.936 483.112,-514.963 253.034,-492 240.977,-490.797 227.777,-489.155 216.179,-487.603"/>
<polygon fill="midnightblue" stroke="midnightblue" points="216.44,-484.106 206.058,-486.218 215.491,-491.041 216.44,-484.106"/>
</g>
<!-- Node44&#45;&gt;Node30 -->
<g id="edge76" class="edge"><title>Node44&#45;&gt;Node30</title>
<path fill="none" stroke="midnightblue" d="M832.279,-528.481C791.473,-520.226 728.034,-507.07 664.207,-492.204"/>
<polygon fill="midnightblue" stroke="midnightblue" points="664.912,-488.775 654.378,-489.902 663.316,-495.59 664.912,-488.775"/>
</g>
<!-- Node44&#45;&gt;Node31 -->
<g id="edge77" class="edge"><title>Node44&#45;&gt;Node31</title>
<path fill="none" stroke="midnightblue" d="M862.015,-528.32C840.226,-514.218 794.569,-486.454 752.034,-472 661.96,-441.392 614.22,-496.778 541.034,-436 527.317,-424.609 521.439,-404.619 518.92,-389.806"/>
<polygon fill="midnightblue" stroke="midnightblue" points="522.366,-389.165 517.575,-379.716 515.427,-390.09 522.366,-389.165"/>
</g>
<!-- Node44&#45;&gt;Node32 -->
<g id="edge78" class="edge"><title>Node44&#45;&gt;Node32</title>
<path fill="none" stroke="midnightblue" d="M916.381,-528.437C997.077,-511.61 1181.13,-472.671 1335.03,-436 1336.48,-435.655 1337.97,-435.296 1339.46,-434.929"/>
<polygon fill="midnightblue" stroke="midnightblue" points="1340.49,-438.28 1349.34,-432.452 1338.79,-431.49 1340.49,-438.28"/>
</g>
<!-- Node44&#45;&gt;Node35 -->
<g id="edge81" class="edge"><title>Node44&#45;&gt;Node35</title>
<path fill="none" stroke="midnightblue" d="M848.572,-528.444C820.356,-519.32 775.494,-504.813 744.066,-494.651"/>
<polygon fill="midnightblue" stroke="midnightblue" points="744.964,-491.263 734.372,-491.516 742.81,-497.923 744.964,-491.263"/>
</g>
<!-- Node44&#45;&gt;Node36 -->
<g id="edge82" class="edge"><title>Node44&#45;&gt;Node36</title>
<path fill="none" stroke="midnightblue" d="M887.566,-528.324C899.62,-519.979 918.061,-507.212 932.303,-497.352"/>
<polygon fill="midnightblue" stroke="midnightblue" points="934.303,-500.224 940.533,-491.655 930.319,-494.469 934.303,-500.224"/>
</g>
<!-- Node45 -->
<g id="node45" class="node"><title>Node45</title>
<polygon fill="none" stroke="#bfbfbf" points="821.034,-472.5 821.034,-491.5 883.034,-491.5 883.034,-472.5 821.034,-472.5"/>
<text text-anchor="middle" x="852.034" y="-479.5" font-family="Helvetica,sans-Serif" font-size="10.00">type_traits</text>
</g>
<!-- Node44&#45;&gt;Node45 -->
<g id="edge79" class="edge"><title>Node44&#45;&gt;Node45</title>
<path fill="none" stroke="midnightblue" d="M871.236,-528.083C868.121,-520.77 863.611,-510.181 859.745,-501.103"/>
<polygon fill="midnightblue" stroke="midnightblue" points="862.9,-499.58 855.761,-491.751 856.46,-502.323 862.9,-499.58"/>
</g>
</g>
</svg>
