<?xml version="1.0" encoding="UTF-8" standalone="no"?>
<!DOCTYPE svg PUBLIC "-//W3C//DTD SVG 1.1//EN"
 "http://www.w3.org/Graphics/SVG/1.1/DTD/svg11.dtd">
<!-- Generated by graphviz version 2.36.0 (20140111.2315)
 -->
<!-- Title: /home/travis/build/AliceO2Group/AliceO2/macro/run_digi2raw_its.C Pages: 1 -->
<svg width="1372pt" height="366pt"
 viewBox="0.00 0.00 1372.00 366.00" xmlns="http://www.w3.org/2000/svg" xmlns:xlink="http://www.w3.org/1999/xlink">
<g id="graph0" class="graph" transform="scale(1 1) rotate(0) translate(4 362)">
<title>/home/travis/build/AliceO2Group/AliceO2/macro/run_digi2raw_its.C</title>
<!-- Node1 -->
<g id="node1" class="node"><title>Node1</title>
<polygon fill="#bfbfbf" stroke="black" points="69.5,-316.5 69.5,-357.5 200.5,-357.5 200.5,-316.5 69.5,-316.5"/>
<text text-anchor="start" x="77.5" y="-345.5" font-family="Helvetica,sans-Serif" font-size="10.00">/home/travis/build</text>
<text text-anchor="start" x="77.5" y="-334.5" font-family="Helvetica,sans-Serif" font-size="10.00">/AliceO2Group/AliceO2</text>
<text text-anchor="middle" x="135" y="-323.5" font-family="Helvetica,sans-Serif" font-size="10.00">/macro/run_digi2raw_its.C</text>
</g>
<!-- Node2 -->
<g id="node2" class="node"><title>Node2</title>
<polygon fill="none" stroke="#bfbfbf" points="36,-254.5 36,-273.5 88,-273.5 88,-254.5 36,-254.5"/>
<text text-anchor="middle" x="62" y="-261.5" font-family="Helvetica,sans-Serif" font-size="10.00">sstream</text>
</g>
<!-- Node1&#45;&gt;Node2 -->
<g id="edge1" class="edge"><title>Node1&#45;&gt;Node2</title>
<path fill="none" stroke="midnightblue" d="M114.665,-316.223C103.235,-305.105 89.1545,-291.411 78.4291,-280.979"/>
<polygon fill="midnightblue" stroke="midnightblue" points="80.5898,-278.198 70.9809,-273.735 75.7093,-283.216 80.5898,-278.198"/>
</g>
<!-- Node3 -->
<g id="node3" class="node"><title>Node3</title>
<polygon fill="none" stroke="#bfbfbf" points="94.5,-118.5 94.5,-137.5 171.5,-137.5 171.5,-118.5 94.5,-118.5"/>
<text text-anchor="middle" x="133" y="-125.5" font-family="Helvetica,sans-Serif" font-size="10.00">TStopwatch.h</text>
</g>
<!-- Node1&#45;&gt;Node3 -->
<g id="edge2" class="edge"><title>Node1&#45;&gt;Node3</title>
<path fill="none" stroke="midnightblue" d="M134.957,-316.298C134.874,-286.705 134.638,-229.018 134,-180 133.861,-169.307 133.631,-157.355 133.426,-147.711"/>
<polygon fill="midnightblue" stroke="midnightblue" points="136.924,-147.583 133.205,-137.662 129.926,-147.737 136.924,-147.583"/>
</g>
<!-- Node4 -->
<g id="node4" class="node"><title>Node4</title>
<g id="a_node4"><a xlink:href="../../dd/db8/RawPixelReader_8h.html" target="_top" xlink:title="Definition of the Alpide pixel reader for raw data processing. ">
<polygon fill="none" stroke="black" points="591.5,-249 591.5,-279 710.5,-279 710.5,-249 591.5,-249"/>
<text text-anchor="start" x="599.5" y="-267" font-family="Helvetica,sans-Serif" font-size="10.00">ITSMFTReconstruction</text>
<text text-anchor="middle" x="651" y="-256" font-family="Helvetica,sans-Serif" font-size="10.00">/RawPixelReader.h</text>
</a>
</g>
</g>
<!-- Node1&#45;&gt;Node4 -->
<g id="edge3" class="edge"><title>Node1&#45;&gt;Node4</title>
<path fill="none" stroke="midnightblue" d="M200.614,-326.972C298.368,-313.521 481.432,-288.332 581.432,-274.572"/>
<polygon fill="midnightblue" stroke="midnightblue" points="582.004,-278.027 591.434,-273.196 581.05,-271.092 582.004,-278.027"/>
</g>
<!-- Node24 -->
<g id="node24" class="node"><title>Node24</title>
<g id="a_node24"><a xlink:href="../../d3/d57/ChipMappingITS_8h.html" target="_top" xlink:title="ITSMFTReconstruction\l/ChipMappingITS.h">
<polygon fill="none" stroke="black" points="6.5,-181 6.5,-211 125.5,-211 125.5,-181 6.5,-181"/>
<text text-anchor="start" x="14.5" y="-199" font-family="Helvetica,sans-Serif" font-size="10.00">ITSMFTReconstruction</text>
<text text-anchor="middle" x="66" y="-188" font-family="Helvetica,sans-Serif" font-size="10.00">/ChipMappingITS.h</text>
</a>
</g>
</g>
<!-- Node1&#45;&gt;Node24 -->
<g id="edge45" class="edge"><title>Node1&#45;&gt;Node24</title>
<path fill="none" stroke="midnightblue" d="M127.451,-316.416C120.273,-298.342 108.84,-270.916 97,-248 92.1799,-238.671 86.3179,-228.736 80.9943,-220.136"/>
<polygon fill="midnightblue" stroke="midnightblue" points="83.7954,-218.016 75.5037,-211.421 77.8728,-221.747 83.7954,-218.016"/>
</g>
<!-- Node4&#45;&gt;Node3 -->
<g id="edge38" class="edge"><title>Node4&#45;&gt;Node3</title>
<path fill="none" stroke="midnightblue" d="M591.304,-259.283C493.952,-252.596 305.668,-236.871 244,-212 205.557,-196.496 168.59,-164.274 148.519,-144.854"/>
<polygon fill="midnightblue" stroke="midnightblue" points="150.795,-142.182 141.226,-137.634 145.87,-147.157 150.795,-142.182"/>
</g>
<!-- Node5 -->
<g id="node5" class="node"><title>Node5</title>
<g id="a_node5"><a xlink:href="../../df/d2e/PixelReader_8h.html" target="_top" xlink:title="Abstract class for Alpide data reader class. ">
<polygon fill="none" stroke="black" points="916.5,-181 916.5,-211 1035.5,-211 1035.5,-181 916.5,-181"/>
<text text-anchor="start" x="924.5" y="-199" font-family="Helvetica,sans-Serif" font-size="10.00">ITSMFTReconstruction</text>
<text text-anchor="middle" x="976" y="-188" font-family="Helvetica,sans-Serif" font-size="10.00">/PixelReader.h</text>
</a>
</g>
</g>
<!-- Node4&#45;&gt;Node5 -->
<g id="edge4" class="edge"><title>Node4&#45;&gt;Node5</title>
<path fill="none" stroke="midnightblue" d="M710.557,-251.328C762.267,-241.137 839.134,-225.85 906,-212 906.213,-211.956 906.426,-211.912 906.64,-211.867"/>
<polygon fill="midnightblue" stroke="midnightblue" points="907.365,-215.292 916.438,-209.821 905.934,-208.439 907.365,-215.292"/>
</g>
<!-- Node7 -->
<g id="node7" class="node"><title>Node7</title>
<g id="a_node7"><a xlink:href="../../da/d8d/PixelData_8h.html" target="_top" xlink:title="Transient data classes for single pixel and set of pixels from current chip. ">
<polygon fill="none" stroke="black" points="1015.5,-113 1015.5,-143 1134.5,-143 1134.5,-113 1015.5,-113"/>
<text text-anchor="start" x="1023.5" y="-131" font-family="Helvetica,sans-Serif" font-size="10.00">ITSMFTReconstruction</text>
<text text-anchor="middle" x="1075" y="-120" font-family="Helvetica,sans-Serif" font-size="10.00">/PixelData.h</text>
</a>
</g>
</g>
<!-- Node4&#45;&gt;Node7 -->
<g id="edge21" class="edge"><title>Node4&#45;&gt;Node7</title>
<path fill="none" stroke="midnightblue" d="M710.671,-262.594C807.645,-260.756 993.693,-251.954 1044,-212 1061.8,-197.86 1069.38,-172.378 1072.61,-153.365"/>
<polygon fill="midnightblue" stroke="midnightblue" points="1076.1,-153.707 1074.02,-143.318 1069.16,-152.734 1076.1,-153.707"/>
</g>
<!-- Node8 -->
<g id="node8" class="node"><title>Node8</title>
<g id="a_node8"><a xlink:href="../../d0/d06/ITSMFT_2common_2base_2include_2ITSMFTBase_2Digit_8h.html" target="_top" xlink:title="ITSMFTBase/Digit.h">
<polygon fill="none" stroke="black" points="1257.5,-56.5 1257.5,-75.5 1364.5,-75.5 1364.5,-56.5 1257.5,-56.5"/>
<text text-anchor="middle" x="1311" y="-63.5" font-family="Helvetica,sans-Serif" font-size="10.00">ITSMFTBase/Digit.h</text>
</a>
</g>
</g>
<!-- Node4&#45;&gt;Node8 -->
<g id="edge32" class="edge"><title>Node4&#45;&gt;Node8</title>
<path fill="none" stroke="midnightblue" d="M710.518,-260.053C817.073,-254.167 1035.93,-239.13 1107,-212 1185.96,-181.858 1262.71,-113.808 1295.01,-82.8585"/>
<polygon fill="midnightblue" stroke="midnightblue" points="1297.51,-85.3131 1302.25,-75.8351 1292.63,-80.2918 1297.51,-85.3131"/>
</g>
<!-- Node10 -->
<g id="node10" class="node"><title>Node10</title>
<polygon fill="none" stroke="#bfbfbf" points="584,-56.5 584,-75.5 628,-75.5 628,-56.5 584,-56.5"/>
<text text-anchor="middle" x="606" y="-63.5" font-family="Helvetica,sans-Serif" font-size="10.00">vector</text>
</g>
<!-- Node4&#45;&gt;Node10 -->
<g id="edge40" class="edge"><title>Node4&#45;&gt;Node10</title>
<path fill="none" stroke="midnightblue" d="M638.7,-248.907C631.016,-239.221 621.715,-225.683 617,-212 602.108,-168.785 602.778,-114.169 604.447,-85.8943"/>
<polygon fill="midnightblue" stroke="midnightblue" points="607.947,-86.027 605.156,-75.8063 600.964,-85.5365 607.947,-86.027"/>
</g>
<!-- Node16 -->
<g id="node16" class="node"><title>Node16</title>
<polygon fill="none" stroke="#bfbfbf" points="1131.5,-56.5 1131.5,-75.5 1180.5,-75.5 1180.5,-56.5 1131.5,-56.5"/>
<text text-anchor="middle" x="1156" y="-63.5" font-family="Helvetica,sans-Serif" font-size="10.00">cassert</text>
</g>
<!-- Node4&#45;&gt;Node16 -->
<g id="edge44" class="edge"><title>Node4&#45;&gt;Node16</title>
<path fill="none" stroke="midnightblue" d="M710.837,-260.132C810.509,-254.62 1005.74,-240.486 1068,-212 1108.92,-193.28 1121.4,-183.469 1143,-144 1152.85,-126.009 1155.6,-102.392 1156.2,-86.0807"/>
<polygon fill="midnightblue" stroke="midnightblue" points="1159.7,-85.7225 1156.33,-75.6799 1152.7,-85.6357 1159.7,-85.7225"/>
</g>
<!-- Node20 -->
<g id="node20" class="node"><title>Node20</title>
<g id="a_node20"><a xlink:href="../../d8/da2/AlpideCoder_8h.html" target="_top" xlink:title="class for the ALPIDE data decoding/encoding ">
<polygon fill="none" stroke="black" points="253.5,-181 253.5,-211 372.5,-211 372.5,-181 253.5,-181"/>
<text text-anchor="start" x="261.5" y="-199" font-family="Helvetica,sans-Serif" font-size="10.00">ITSMFTReconstruction</text>
<text text-anchor="middle" x="313" y="-188" font-family="Helvetica,sans-Serif" font-size="10.00">/AlpideCoder.h</text>
</a>
</g>
</g>
<!-- Node4&#45;&gt;Node20 -->
<g id="edge22" class="edge"><title>Node4&#45;&gt;Node20</title>
<path fill="none" stroke="midnightblue" d="M591.419,-251.448C538.31,-241.14 458.462,-225.615 389,-212 386.938,-211.596 384.844,-211.185 382.731,-210.77"/>
<polygon fill="midnightblue" stroke="midnightblue" points="383.226,-207.3 372.739,-208.806 381.876,-214.169 383.226,-207.3"/>
</g>
<!-- Node4&#45;&gt;Node24 -->
<g id="edge29" class="edge"><title>Node4&#45;&gt;Node24</title>
<path fill="none" stroke="midnightblue" d="M591.467,-256.462C504.236,-246.859 336.57,-228.309 194,-212 175.063,-209.834 154.555,-207.448 135.619,-205.229"/>
<polygon fill="midnightblue" stroke="midnightblue" points="135.919,-201.74 125.579,-204.051 135.103,-208.693 135.919,-201.74"/>
</g>
<!-- Node26 -->
<g id="node26" class="node"><title>Node26</title>
<g id="a_node26"><a xlink:href="../../da/de8/RootChain_8h.html" target="_top" xlink:title="CommonUtils/RootChain.h">
<polygon fill="none" stroke="black" points="398,-186.5 398,-205.5 532,-205.5 532,-186.5 398,-186.5"/>
<text text-anchor="middle" x="465" y="-193.5" font-family="Helvetica,sans-Serif" font-size="10.00">CommonUtils/RootChain.h</text>
</a>
</g>
</g>
<!-- Node4&#45;&gt;Node26 -->
<g id="edge33" class="edge"><title>Node4&#45;&gt;Node26</title>
<path fill="none" stroke="midnightblue" d="M611.098,-248.841C577.675,-236.982 530.492,-220.239 498.879,-209.022"/>
<polygon fill="midnightblue" stroke="midnightblue" points="499.794,-205.632 489.199,-205.587 497.453,-212.229 499.794,-205.632"/>
</g>
<!-- Node27 -->
<g id="node27" class="node"><title>Node27</title>
<polygon fill="none" stroke="#bfbfbf" points="526,-118.5 526,-137.5 578,-137.5 578,-118.5 526,-118.5"/>
<text text-anchor="middle" x="552" y="-125.5" font-family="Helvetica,sans-Serif" font-size="10.00">memory</text>
</g>
<!-- Node4&#45;&gt;Node27 -->
<g id="edge42" class="edge"><title>Node4&#45;&gt;Node27</title>
<path fill="none" stroke="midnightblue" d="M626.253,-248.933C612.248,-239.912 595.323,-227.08 584,-212 569.256,-192.364 560.482,-165.102 555.951,-147.261"/>
<polygon fill="midnightblue" stroke="midnightblue" points="559.357,-146.457 553.662,-137.523 552.543,-148.058 559.357,-146.457"/>
</g>
<!-- Node29 -->
<g id="node29" class="node"><title>Node29</title>
<polygon fill="none" stroke="#bfbfbf" points="626,-186.5 626,-205.5 676,-205.5 676,-186.5 626,-186.5"/>
<text text-anchor="middle" x="651" y="-193.5" font-family="Helvetica,sans-Serif" font-size="10.00">TTree.h</text>
</g>
<!-- Node4&#45;&gt;Node29 -->
<g id="edge37" class="edge"><title>Node4&#45;&gt;Node29</title>
<path fill="none" stroke="midnightblue" d="M651,-248.679C651,-239.101 651,-226.394 651,-215.977"/>
<polygon fill="midnightblue" stroke="midnightblue" points="654.5,-215.828 651,-205.828 647.5,-215.828 654.5,-215.828"/>
</g>
<!-- Node30 -->
<g id="node30" class="node"><title>Node30</title>
<polygon fill="none" stroke="#bfbfbf" points="694.5,-186.5 694.5,-205.5 765.5,-205.5 765.5,-186.5 694.5,-186.5"/>
<text text-anchor="middle" x="730" y="-193.5" font-family="Helvetica,sans-Serif" font-size="10.00">FairLogger.h</text>
</g>
<!-- Node4&#45;&gt;Node30 -->
<g id="edge39" class="edge"><title>Node4&#45;&gt;Node30</title>
<path fill="none" stroke="midnightblue" d="M668.142,-248.679C680.947,-237.981 698.428,-223.377 711.54,-212.422"/>
<polygon fill="midnightblue" stroke="midnightblue" points="714.003,-214.926 719.433,-205.828 709.515,-209.554 714.003,-214.926"/>
</g>
<!-- Node31 -->
<g id="node31" class="node"><title>Node31</title>
<polygon fill="none" stroke="#bfbfbf" points="784,-186.5 784,-205.5 824,-205.5 824,-186.5 784,-186.5"/>
<text text-anchor="middle" x="804" y="-193.5" font-family="Helvetica,sans-Serif" font-size="10.00">limits</text>
</g>
<!-- Node4&#45;&gt;Node31 -->
<g id="edge41" class="edge"><title>Node4&#45;&gt;Node31</title>
<path fill="none" stroke="midnightblue" d="M686.811,-248.928C711.506,-239.036 744.981,-225.251 774,-212 775.357,-211.38 776.744,-210.734 778.139,-210.073"/>
<polygon fill="midnightblue" stroke="midnightblue" points="779.824,-213.146 787.282,-205.62 776.759,-206.853 779.824,-213.146"/>
</g>
<!-- Node32 -->
<g id="node32" class="node"><title>Node32</title>
<polygon fill="none" stroke="#bfbfbf" points="842,-186.5 842,-205.5 898,-205.5 898,-186.5 842,-186.5"/>
<text text-anchor="middle" x="870" y="-193.5" font-family="Helvetica,sans-Serif" font-size="10.00">algorithm</text>
</g>
<!-- Node4&#45;&gt;Node32 -->
<g id="edge43" class="edge"><title>Node4&#45;&gt;Node32</title>
<path fill="none" stroke="midnightblue" d="M707.256,-248.977C743.475,-239.522 791.39,-226.215 833,-212 835.556,-211.127 838.191,-210.172 840.822,-209.18"/>
<polygon fill="midnightblue" stroke="midnightblue" points="842.152,-212.419 850.184,-205.51 839.596,-205.902 842.152,-212.419"/>
</g>
<!-- Node6 -->
<g id="node6" class="node"><title>Node6</title>
<polygon fill="none" stroke="#bfbfbf" points="400,-0.5 400,-19.5 456,-19.5 456,-0.5 400,-0.5"/>
<text text-anchor="middle" x="428" y="-7.5" font-family="Helvetica,sans-Serif" font-size="10.00">Rtypes.h</text>
</g>
<!-- Node5&#45;&gt;Node6 -->
<g id="edge5" class="edge"><title>Node5&#45;&gt;Node6</title>
<path fill="none" stroke="midnightblue" d="M916.442,-182.162C912.91,-181.424 909.409,-180.699 906,-180 824.369,-163.269 795.324,-183.587 722,-144 673.879,-118.02 683.861,-82.4567 636,-56 581.932,-26.1119 509.755,-16.0694 466.193,-12.6986"/>
<polygon fill="midnightblue" stroke="midnightblue" points="466.246,-9.19398 456.028,-11.9935 465.761,-16.1772 466.246,-9.19398"/>
</g>
<!-- Node5&#45;&gt;Node7 -->
<g id="edge6" class="edge"><title>Node5&#45;&gt;Node7</title>
<path fill="none" stroke="midnightblue" d="M997.482,-180.679C1011.46,-171.361 1029.88,-159.082 1045.25,-148.83"/>
<polygon fill="midnightblue" stroke="midnightblue" points="1047.52,-151.526 1053.9,-143.066 1043.64,-145.701 1047.52,-151.526"/>
</g>
<!-- Node5&#45;&gt;Node10 -->
<g id="edge20" class="edge"><title>Node5&#45;&gt;Node10</title>
<path fill="none" stroke="midnightblue" d="M916.476,-181.987C912.935,-181.293 909.423,-180.625 906,-180 800.759,-160.783 760.76,-197.297 668,-144 643.892,-130.148 625.468,-102.993 615.188,-84.9182"/>
<polygon fill="midnightblue" stroke="midnightblue" points="618.171,-83.078 610.33,-75.9531 612.017,-86.4128 618.171,-83.078"/>
</g>
<!-- Node12 -->
<g id="node12" class="node"><title>Node12</title>
<g id="a_node12"><a xlink:href="../../d7/dcd/MCCompLabel_8h.html" target="_top" xlink:title="SimulationDataFormat\l/MCCompLabel.h">
<polygon fill="none" stroke="black" points="731,-113 731,-143 845,-143 845,-113 731,-113"/>
<text text-anchor="start" x="739" y="-131" font-family="Helvetica,sans-Serif" font-size="10.00">SimulationDataFormat</text>
<text text-anchor="middle" x="788" y="-120" font-family="Helvetica,sans-Serif" font-size="10.00">/MCCompLabel.h</text>
</a>
</g>
</g>
<!-- Node5&#45;&gt;Node12 -->
<g id="edge12" class="edge"><title>Node5&#45;&gt;Node12</title>
<path fill="none" stroke="midnightblue" d="M935.669,-180.841C906.949,-170.759 868.178,-157.147 837.569,-146.402"/>
<polygon fill="midnightblue" stroke="midnightblue" points="838.536,-143.032 827.941,-143.022 836.217,-149.637 838.536,-143.032"/>
</g>
<!-- Node14 -->
<g id="node14" class="node"><title>Node14</title>
<g id="a_node14"><a xlink:href="../../db/d14/MCTruthContainer_8h.html" target="_top" xlink:title="Definition of a container to keep Monte Carlo truth external to simulation objects. ">
<polygon fill="none" stroke="black" points="883,-113 883,-143 997,-143 997,-113 883,-113"/>
<text text-anchor="start" x="891" y="-131" font-family="Helvetica,sans-Serif" font-size="10.00">SimulationDataFormat</text>
<text text-anchor="middle" x="940" y="-120" font-family="Helvetica,sans-Serif" font-size="10.00">/MCTruthContainer.h</text>
</a>
</g>
</g>
<!-- Node5&#45;&gt;Node14 -->
<g id="edge14" class="edge"><title>Node5&#45;&gt;Node14</title>
<path fill="none" stroke="midnightblue" d="M968.189,-180.679C963.66,-172.376 957.848,-161.721 952.679,-152.245"/>
<polygon fill="midnightblue" stroke="midnightblue" points="955.657,-150.396 947.796,-143.293 949.512,-153.748 955.657,-150.396"/>
</g>
<!-- Node7&#45;&gt;Node8 -->
<g id="edge7" class="edge"><title>Node7&#45;&gt;Node8</title>
<path fill="none" stroke="midnightblue" d="M1130.33,-112.933C1172.23,-102.281 1228.97,-87.8545 1267.61,-78.0302"/>
<polygon fill="midnightblue" stroke="midnightblue" points="1268.69,-81.3688 1277.52,-75.5127 1266.96,-74.5847 1268.69,-81.3688"/>
</g>
<!-- Node7&#45;&gt;Node10 -->
<g id="edge10" class="edge"><title>Node7&#45;&gt;Node10</title>
<path fill="none" stroke="midnightblue" d="M1015.23,-113.603C1012.12,-113.031 1009.03,-112.492 1006,-112 859.94,-88.2493 821.932,-93.5707 675,-76 662.969,-74.5613 649.774,-72.8685 638.174,-71.3415"/>
<polygon fill="midnightblue" stroke="midnightblue" points="638.422,-67.8437 628.048,-69.9978 637.501,-74.7829 638.422,-67.8437"/>
</g>
<!-- Node11 -->
<g id="node11" class="node"><title>Node11</title>
<polygon fill="none" stroke="#bfbfbf" points="1199,-56.5 1199,-75.5 1239,-75.5 1239,-56.5 1199,-56.5"/>
<text text-anchor="middle" x="1219" y="-63.5" font-family="Helvetica,sans-Serif" font-size="10.00">utility</text>
</g>
<!-- Node7&#45;&gt;Node11 -->
<g id="edge11" class="edge"><title>Node7&#45;&gt;Node11</title>
<path fill="none" stroke="midnightblue" d="M1108.76,-112.933C1133.2,-102.749 1165.92,-89.1157 1189.36,-79.3519"/>
<polygon fill="midnightblue" stroke="midnightblue" points="1190.89,-82.5027 1198.78,-75.4257 1188.2,-76.0411 1190.89,-82.5027"/>
</g>
<!-- Node8&#45;&gt;Node6 -->
<g id="edge8" class="edge"><title>Node8&#45;&gt;Node6</title>
<path fill="none" stroke="midnightblue" d="M1257.42,-57.0224C1254.24,-56.6488 1251.08,-56.3038 1248,-56 947.708,-26.3676 583.481,-14.9745 466.278,-11.9159"/>
<polygon fill="midnightblue" stroke="midnightblue" points="466.119,-8.41083 456.033,-11.6536 465.94,-15.4085 466.119,-8.41083"/>
</g>
<!-- Node9 -->
<g id="node9" class="node"><title>Node9</title>
<polygon fill="none" stroke="#bfbfbf" points="1288.5,-0.5 1288.5,-19.5 1333.5,-19.5 1333.5,-0.5 1288.5,-0.5"/>
<text text-anchor="middle" x="1311" y="-7.5" font-family="Helvetica,sans-Serif" font-size="10.00">climits</text>
</g>
<!-- Node8&#45;&gt;Node9 -->
<g id="edge9" class="edge"><title>Node8&#45;&gt;Node9</title>
<path fill="none" stroke="midnightblue" d="M1311,-56.083C1311,-49.0059 1311,-38.8611 1311,-29.9865"/>
<polygon fill="midnightblue" stroke="midnightblue" points="1314.5,-29.751 1311,-19.7511 1307.5,-29.7511 1314.5,-29.751"/>
</g>
<!-- Node13 -->
<g id="node13" class="node"><title>Node13</title>
<polygon fill="none" stroke="#bfbfbf" points="684,-56.5 684,-75.5 812,-75.5 812,-56.5 684,-56.5"/>
<text text-anchor="middle" x="748" y="-63.5" font-family="Helvetica,sans-Serif" font-size="10.00">AliTPCCommonRtypes.h</text>
</g>
<!-- Node12&#45;&gt;Node13 -->
<g id="edge13" class="edge"><title>Node12&#45;&gt;Node13</title>
<path fill="none" stroke="midnightblue" d="M778.521,-112.781C772.828,-104.242 765.546,-93.3184 759.522,-84.2834"/>
<polygon fill="midnightblue" stroke="midnightblue" points="762.28,-82.1096 753.82,-75.7305 756.455,-85.9925 762.28,-82.1096"/>
</g>
<!-- Node15 -->
<g id="node15" class="node"><title>Node15</title>
<polygon fill="none" stroke="#bfbfbf" points="830,-56.5 830,-75.5 892,-75.5 892,-56.5 830,-56.5"/>
<text text-anchor="middle" x="861" y="-63.5" font-family="Helvetica,sans-Serif" font-size="10.00">TNamed.h</text>
</g>
<!-- Node14&#45;&gt;Node15 -->
<g id="edge15" class="edge"><title>Node14&#45;&gt;Node15</title>
<path fill="none" stroke="midnightblue" d="M921.278,-112.781C909.088,-103.523 893.208,-91.4618 880.807,-82.0435"/>
<polygon fill="midnightblue" stroke="midnightblue" points="882.576,-78.9916 872.495,-75.7305 878.342,-84.5661 882.576,-78.9916"/>
</g>
<!-- Node14&#45;&gt;Node16 -->
<g id="edge16" class="edge"><title>Node14&#45;&gt;Node16</title>
<path fill="none" stroke="midnightblue" d="M990.642,-112.933C1030.93,-101.741 1086.22,-86.3825 1121.54,-76.573"/>
<polygon fill="midnightblue" stroke="midnightblue" points="1122.68,-79.8884 1131.38,-73.8396 1120.81,-73.1438 1122.68,-79.8884"/>
</g>
<!-- Node17 -->
<g id="node17" class="node"><title>Node17</title>
<polygon fill="none" stroke="#bfbfbf" points="910.5,-56.5 910.5,-75.5 969.5,-75.5 969.5,-56.5 910.5,-56.5"/>
<text text-anchor="middle" x="940" y="-63.5" font-family="Helvetica,sans-Serif" font-size="10.00">stdexcept</text>
</g>
<!-- Node14&#45;&gt;Node17 -->
<g id="edge17" class="edge"><title>Node14&#45;&gt;Node17</title>
<path fill="none" stroke="midnightblue" d="M940,-112.781C940,-104.781 940,-94.6887 940,-86.0168"/>
<polygon fill="midnightblue" stroke="midnightblue" points="943.5,-85.7305 940,-75.7305 936.5,-85.7306 943.5,-85.7305"/>
</g>
<!-- Node18 -->
<g id="node18" class="node"><title>Node18</title>
<polygon fill="none" stroke="#bfbfbf" points="987.5,-56.5 987.5,-75.5 1032.5,-75.5 1032.5,-56.5 987.5,-56.5"/>
<text text-anchor="middle" x="1010" y="-63.5" font-family="Helvetica,sans-Serif" font-size="10.00">gsl/gsl</text>
</g>
<!-- Node14&#45;&gt;Node18 -->
<g id="edge18" class="edge"><title>Node14&#45;&gt;Node18</title>
<path fill="none" stroke="midnightblue" d="M956.589,-112.781C967.285,-103.613 981.188,-91.6957 992.128,-82.3186"/>
<polygon fill="midnightblue" stroke="midnightblue" points="994.5,-84.8959 999.814,-75.7305 989.944,-79.5811 994.5,-84.8959"/>
</g>
<!-- Node19 -->
<g id="node19" class="node"><title>Node19</title>
<polygon fill="none" stroke="#bfbfbf" points="1051,-56.5 1051,-75.5 1113,-75.5 1113,-56.5 1051,-56.5"/>
<text text-anchor="middle" x="1082" y="-63.5" font-family="Helvetica,sans-Serif" font-size="10.00">type_traits</text>
</g>
<!-- Node14&#45;&gt;Node19 -->
<g id="edge19" class="edge"><title>Node14&#45;&gt;Node19</title>
<path fill="none" stroke="midnightblue" d="M973.293,-112.933C997.25,-102.81 1029.28,-89.2779 1052.35,-79.5267"/>
<polygon fill="midnightblue" stroke="midnightblue" points="1053.8,-82.7163 1061.65,-75.6 1051.07,-76.2682 1053.8,-82.7163"/>
</g>
<!-- Node20&#45;&gt;Node3 -->
<g id="edge28" class="edge"><title>Node20&#45;&gt;Node3</title>
<path fill="none" stroke="midnightblue" d="M274.385,-180.841C242.181,-169.033 196.775,-152.384 166.184,-141.168"/>
<polygon fill="midnightblue" stroke="midnightblue" points="167.012,-137.743 156.419,-137.587 164.602,-144.316 167.012,-137.743"/>
</g>
<!-- Node20&#45;&gt;Node6 -->
<g id="edge23" class="edge"><title>Node20&#45;&gt;Node6</title>
<path fill="none" stroke="midnightblue" d="M265.357,-180.85C247.587,-173 229.255,-161.231 219,-144 211.726,-131.778 211.442,-124.047 219,-112 256.491,-52.2433 340.431,-26.9844 389.768,-16.985"/>
<polygon fill="midnightblue" stroke="midnightblue" points="390.578,-20.3936 399.742,-15.0759 389.262,-13.5184 390.578,-20.3936"/>
</g>
<!-- Node20&#45;&gt;Node10 -->
<g id="edge25" class="edge"><title>Node20&#45;&gt;Node10</title>
<path fill="none" stroke="midnightblue" d="M320.872,-180.702C332.072,-161.796 354.453,-128.904 383,-112 443.564,-76.1359 527.875,-68.3972 573.52,-67.0056"/>
<polygon fill="midnightblue" stroke="midnightblue" points="573.799,-70.5004 583.72,-66.7821 573.646,-63.5021 573.799,-70.5004"/>
</g>
<!-- Node21 -->
<g id="node21" class="node"><title>Node21</title>
<polygon fill="none" stroke="#bfbfbf" points="228.5,-118.5 228.5,-137.5 271.5,-137.5 271.5,-118.5 228.5,-118.5"/>
<text text-anchor="middle" x="250" y="-125.5" font-family="Helvetica,sans-Serif" font-size="10.00">cstdio</text>
</g>
<!-- Node20&#45;&gt;Node21 -->
<g id="edge24" class="edge"><title>Node20&#45;&gt;Node21</title>
<path fill="none" stroke="midnightblue" d="M299.33,-180.679C289.41,-170.286 275.971,-156.208 265.626,-145.37"/>
<polygon fill="midnightblue" stroke="midnightblue" points="267.864,-142.645 258.427,-137.828 262.8,-147.479 267.864,-142.645"/>
</g>
<!-- Node22 -->
<g id="node22" class="node"><title>Node22</title>
<polygon fill="none" stroke="#bfbfbf" points="392.5,-118.5 392.5,-137.5 433.5,-137.5 433.5,-118.5 392.5,-118.5"/>
<text text-anchor="middle" x="413" y="-125.5" font-family="Helvetica,sans-Serif" font-size="10.00">string</text>
</g>
<!-- Node20&#45;&gt;Node22 -->
<g id="edge26" class="edge"><title>Node20&#45;&gt;Node22</title>
<path fill="none" stroke="midnightblue" d="M334.699,-180.679C351.468,-169.611 374.571,-154.363 391.333,-143.3"/>
<polygon fill="midnightblue" stroke="midnightblue" points="393.494,-146.067 399.912,-137.638 389.638,-140.225 393.494,-146.067"/>
</g>
<!-- Node23 -->
<g id="node23" class="node"><title>Node23</title>
<polygon fill="none" stroke="#bfbfbf" points="290,-118.5 290,-137.5 336,-137.5 336,-118.5 290,-118.5"/>
<text text-anchor="middle" x="313" y="-125.5" font-family="Helvetica,sans-Serif" font-size="10.00">cstdint</text>
</g>
<!-- Node20&#45;&gt;Node23 -->
<g id="edge27" class="edge"><title>Node20&#45;&gt;Node23</title>
<path fill="none" stroke="midnightblue" d="M313,-180.679C313,-171.101 313,-158.394 313,-147.977"/>
<polygon fill="midnightblue" stroke="midnightblue" points="316.5,-147.828 313,-137.828 309.5,-147.828 316.5,-147.828"/>
</g>
<!-- Node24&#45;&gt;Node6 -->
<g id="edge30" class="edge"><title>Node24&#45;&gt;Node6</title>
<path fill="none" stroke="midnightblue" d="M65.2889,-180.78C65.1698,-162.565 67.747,-131.077 85,-112 165.003,-23.5394 318.129,-10.9707 389.549,-10.205"/>
<polygon fill="midnightblue" stroke="midnightblue" points="389.892,-13.704 399.881,-10.1718 389.87,-6.70408 389.892,-13.704"/>
</g>
<!-- Node25 -->
<g id="node25" class="node"><title>Node25</title>
<polygon fill="none" stroke="#bfbfbf" points="0,-118.5 0,-137.5 38,-137.5 38,-118.5 0,-118.5"/>
<text text-anchor="middle" x="19" y="-125.5" font-family="Helvetica,sans-Serif" font-size="10.00">array</text>
</g>
<!-- Node24&#45;&gt;Node25 -->
<g id="edge31" class="edge"><title>Node24&#45;&gt;Node25</title>
<path fill="none" stroke="midnightblue" d="M55.8017,-180.679C48.5459,-170.49 38.7676,-156.759 31.114,-146.011"/>
<polygon fill="midnightblue" stroke="midnightblue" points="33.9385,-143.944 25.2868,-137.828 28.2366,-148.004 33.9385,-143.944"/>
</g>
<!-- Node26&#45;&gt;Node22 -->
<g id="edge36" class="edge"><title>Node26&#45;&gt;Node22</title>
<path fill="none" stroke="midnightblue" d="M458.202,-186.372C450.149,-176.151 436.545,-158.884 426.36,-145.957"/>
<polygon fill="midnightblue" stroke="midnightblue" points="428.904,-143.53 419.966,-137.841 423.405,-147.862 428.904,-143.53"/>
</g>
<!-- Node26&#45;&gt;Node27 -->
<g id="edge34" class="edge"><title>Node26&#45;&gt;Node27</title>
<path fill="none" stroke="midnightblue" d="M476.374,-186.372C490.572,-175.6 515.088,-157.002 532.351,-143.906"/>
<polygon fill="midnightblue" stroke="midnightblue" points="534.772,-146.463 540.623,-137.63 530.541,-140.886 534.772,-146.463"/>
</g>
<!-- Node28 -->
<g id="node28" class="node"><title>Node28</title>
<polygon fill="none" stroke="#bfbfbf" points="452,-118.5 452,-137.5 508,-137.5 508,-118.5 452,-118.5"/>
<text text-anchor="middle" x="480" y="-125.5" font-family="Helvetica,sans-Serif" font-size="10.00">TChain.h</text>
</g>
<!-- Node26&#45;&gt;Node28 -->
<g id="edge35" class="edge"><title>Node26&#45;&gt;Node28</title>
<path fill="none" stroke="midnightblue" d="M466.961,-186.372C469.172,-176.643 472.835,-160.528 475.716,-147.85"/>
<polygon fill="midnightblue" stroke="midnightblue" points="479.187,-148.368 477.991,-137.841 472.361,-146.817 479.187,-148.368"/>
</g>
</g>
</svg>
