<?xml version="1.0" encoding="UTF-8" standalone="no"?>
<!DOCTYPE svg PUBLIC "-//W3C//DTD SVG 1.1//EN"
 "http://www.w3.org/Graphics/SVG/1.1/DTD/svg11.dtd">
<!-- Generated by graphviz version 2.36.0 (20140111.2315)
 -->
<!-- Title: hmm_vec4 Pages: 1 -->
<!--zoomable 746 -->
<svg id="main" version="1.1" xmlns="http://www.w3.org/2000/svg" xmlns:xlink="http://www.w3.org/1999/xlink" xml:space="preserve" onload="init(evt)">
<style type="text/css"><![CDATA[
.edge:hover path { stroke: red; }
.edge:hover polygon { stroke: red; fill: red; }
]]></style>
<script type="text/javascript"><![CDATA[
var edges = document.getElementsByTagName('g');
if (edges && edges.length) {
  for (var i=0;i<edges.length;i++) {
    if (edges[i].id.substr(0,4)=='edge') {
      edges[i].setAttribute('class','edge');
    }
  }
}
]]></script>
        <defs>
                <circle id="rim" cx="0" cy="0" r="7"/>
                <circle id="rim2" cx="0" cy="0" r="3.5"/>
                <g id="zoomPlus">
                        <use xlink:href="#rim" fill="#404040">
                                <set attributeName="fill" to="#808080" begin="zoomplus.mouseover" end="zoomplus.mouseout"/>
                        </use>
                        <path d="M-4,0h8M0,-4v8" fill="none" stroke="white" stroke-width="1.5" pointer-events="none"/>
                </g>
                <g id="zoomMin">
                        <use xlink:href="#rim" fill="#404040">
                                <set attributeName="fill" to="#808080" begin="zoomminus.mouseover" end="zoomminus.mouseout"/>
                        </use>
                        <path d="M-4,0h8" fill="none" stroke="white" stroke-width="1.5" pointer-events="none"/>
                </g>
                <g id="dirArrow">
                        <path fill="none" stroke="white" stroke-width="1.5" d="M0,-3.0v7 M-2.5,-0.5L0,-3.0L2.5,-0.5"/>
                </g>
               <g id="resetDef">
                       <use xlink:href="#rim2" fill="#404040">
                               <set attributeName="fill" to="#808080" begin="reset.mouseover" end="reset.mouseout"/>
                       </use>
               </g>
        </defs>

<script type="text/javascript">
var viewWidth = 1141;
var viewHeight = 746;
var sectionId = 'dynsection-0';
</script>
<script xlink:href="../../svgpan.js"/>
<svg id="graph" class="graph">
<g id="viewport">
<title>hmm_vec4</title>
<!-- Node1 -->
<g id="node1" class="node"><title>Node1</title>
<polygon fill="#bfbfbf" stroke="black" points="253.194,-0.5 253.194,-101.5 318.194,-101.5 318.194,-0.5 253.194,-0.5"/>
<text text-anchor="middle" x="285.694" y="-89.5" font-family="Helvetica,sans-Serif" font-size="10.00">hmm_vec4</text>
<polyline fill="none" stroke="black" points="253.194,-82.5 318.194,-82.5 "/>
<text text-anchor="start" x="261.194" y="-70.5" font-family="Helvetica,sans-Serif" font-size="10.00">+ X</text>
<text text-anchor="start" x="261.194" y="-59.5" font-family="Helvetica,sans-Serif" font-size="10.00">+ Y</text>
<text text-anchor="start" x="261.194" y="-48.5" font-family="Helvetica,sans-Serif" font-size="10.00">+ Z</text>
<text text-anchor="start" x="261.194" y="-37.5" font-family="Helvetica,sans-Serif" font-size="10.00">+ W</text>
<text text-anchor="start" x="261.194" y="-26.5" font-family="Helvetica,sans-Serif" font-size="10.00">+ G</text>
<polyline fill="none" stroke="black" points="253.194,-19.5 318.194,-19.5 "/>
<text text-anchor="middle" x="285.694" y="-7.5" font-family="Helvetica,sans-Serif" font-size="10.00"> </text>
</g>
<!-- Node2 -->
<g id="node2" class="node"><title>Node2</title>
<polygon fill="none" stroke="#bfbfbf" points="447.194,-679 447.194,-737 476.194,-737 476.194,-679 447.194,-679"/>
<polyline fill="none" stroke="#bfbfbf" points="447.194,-717 476.194,-717 "/>
<text text-anchor="middle" x="461.694" y="-705" font-family="Helvetica,sans-Serif" font-size="10.00"> </text>
<polyline fill="none" stroke="#bfbfbf" points="447.194,-698 476.194,-698 "/>
<text text-anchor="middle" x="461.694" y="-686" font-family="Helvetica,sans-Serif" font-size="10.00"> </text>
</g>
<!-- Node2&#45;&gt;Node1 -->
<g id="edge1" class="edge"><title>Node2&#45;&gt;Node1</title>
<path fill="none" stroke="#404040" d="M447.146,-707.153C388.656,-707.455 171.546,-705.451 124.694,-660 -47.5668,-492.889 -35.0407,-299.122 124.694,-120 154.994,-86.0226 205.081,-68.5147 241.352,-59.8424"/>
<polygon fill="none" stroke="#404040" points="241.363,-59.8402 246.349,-54.6305 253.075,-57.2291 248.089,-62.4388 241.363,-59.8402"/>
<text text-anchor="middle" x="44.6941" y="-333.5" font-family="Helvetica,sans-Serif" font-size="10.00"> +@130</text>
</g>
<!-- Node2&#45;&gt;Node1 -->
<g id="edge19" class="edge"><title>Node2&#45;&gt;Node1</title>
<path fill="none" stroke="#404040" d="M446.921,-706.673C394.893,-705.205 221.275,-697.527 183.694,-660 60.2628,-536.746 114.893,-442.661 139.694,-270 149.572,-201.23 142.535,-175.972 183.694,-120 198.657,-99.6525 221.666,-83.5572 242.046,-72.1442"/>
<polygon fill="none" stroke="#404040" points="242.132,-72.0984 245.541,-65.744 252.718,-66.4468 249.309,-72.8013 242.132,-72.0984"/>
<text text-anchor="middle" x="157.694" y="-333.5" font-family="Helvetica,sans-Serif" font-size="10.00"> +@132</text>
</g>
<!-- Node2&#45;&gt;Node1 -->
<g id="edge20" class="edge"><title>Node2&#45;&gt;Node1</title>
<path fill="none" stroke="#404040" d="M447.037,-705.949C402.686,-702.462 271.215,-689.759 242.694,-660 182.347,-597.033 186.294,-356.33 198.694,-270 208.572,-201.23 214.073,-183.306 242.694,-120 244.097,-116.898 245.622,-113.77 247.234,-110.649"/>
<polygon fill="none" stroke="#404040" points="247.237,-110.643 246.607,-103.459 252.996,-100.115 253.626,-107.298 247.237,-110.643"/>
<text text-anchor="middle" x="216.694" y="-333.5" font-family="Helvetica,sans-Serif" font-size="10.00"> +@134</text>
</g>
<!-- Node2&#45;&gt;Node1 -->
<g id="edge21" class="edge"><title>Node2&#45;&gt;Node1</title>
<path fill="none" stroke="#404040" d="M447.041,-705.612C406.339,-701.433 293.407,-687.524 270.694,-660 203.256,-578.279 250.774,-251.02 274.453,-113.43"/>
<polygon fill="none" stroke="#404040" points="274.472,-113.325 271.559,-106.728 276.528,-101.502 279.441,-108.099 274.472,-113.325"/>
<text text-anchor="middle" x="269.694" y="-333.5" font-family="Helvetica,sans-Serif" font-size="10.00"> +@126</text>
</g>
<!-- Node2&#45;&gt;Node1 -->
<g id="edge22" class="edge"><title>Node2&#45;&gt;Node1</title>
<path fill="none" stroke="#404040" d="M447.045,-705.089C410.035,-699.933 314.382,-684.452 295.694,-660 292.405,-655.696 291.796,-275.416 291.694,-270 290.7,-217.345 289.014,-157.551 287.683,-113.921"/>
<polygon fill="none" stroke="#404040" points="287.678,-113.773 283.495,-107.899 287.309,-101.779 291.492,-107.653 287.678,-113.773"/>
<text text-anchor="middle" x="310.694" y="-333.5" font-family="Helvetica,sans-Serif" font-size="10.00"> +@128</text>
</g>
<!-- Node3 -->
<g id="node3" class="node"><title>Node3</title>
<g id="a_node3"><a xlink:href="../../dc/db2/unionhmm__vec2.html" target="_top" xlink:title="{hmm_vec2\n||}">
<polygon fill="none" stroke="black" points="370.194,-452.5 370.194,-509.5 435.194,-509.5 435.194,-452.5 370.194,-452.5"/>
<text text-anchor="middle" x="402.694" y="-497.5" font-family="Helvetica,sans-Serif" font-size="10.00">hmm_vec2</text>
<polyline fill="none" stroke="black" points="370.194,-490.5 435.194,-490.5 "/>
<text text-anchor="middle" x="402.694" y="-478.5" font-family="Helvetica,sans-Serif" font-size="10.00"> </text>
<polyline fill="none" stroke="black" points="370.194,-471.5 435.194,-471.5 "/>
<text text-anchor="middle" x="402.694" y="-459.5" font-family="Helvetica,sans-Serif" font-size="10.00"> </text>
</a>
</g>
</g>
<!-- Node2&#45;&gt;Node3 -->
<g id="edge3" class="edge"><title>Node2&#45;&gt;Node3</title>
<path fill="none" stroke="#404040" d="M446.926,-707.417C416.391,-707.375 346.586,-702.397 315.694,-660 289.522,-624.079 297.574,-600.583 315.694,-560 324.959,-539.251 342.773,-521.726 359.88,-508.576"/>
<polygon fill="none" stroke="#404040" points="360.103,-508.415 362.597,-501.648 369.802,-501.348 367.307,-508.114 360.103,-508.415"/>
<text text-anchor="middle" x="333.694" y="-607.5" font-family="Helvetica,sans-Serif" font-size="10.00"> +@106</text>
</g>
<!-- Node2&#45;&gt;Node3 -->
<g id="edge4" class="edge"><title>Node2&#45;&gt;Node3</title>
<path fill="none" stroke="#404040" d="M447.088,-703.965C426.697,-698.855 390.434,-686.393 374.694,-660 349.21,-617.268 366.199,-558.927 382.722,-520.867"/>
<polygon fill="none" stroke="#404040" points="382.814,-520.666 381.66,-513.548 387.788,-509.746 388.941,-516.864 382.814,-520.666"/>
<text text-anchor="middle" x="392.694" y="-607.5" font-family="Helvetica,sans-Serif" font-size="10.00"> +@108</text>
</g>
<!-- Node2&#45;&gt;Node3 -->
<g id="edge5" class="edge"><title>Node2&#45;&gt;Node3</title>
<path fill="none" stroke="#404040" d="M447.142,-686.301C442.189,-678.391 437.06,-669.084 433.694,-660 424.524,-635.251 414.014,-566.122 407.889,-521.655"/>
<polygon fill="none" stroke="#404040" points="407.859,-521.44 403.089,-516.033 406.245,-509.55 411.016,-514.957 407.859,-521.44"/>
<text text-anchor="middle" x="451.694" y="-607.5" font-family="Helvetica,sans-Serif" font-size="10.00"> +@110</text>
</g>
<!-- Node2&#45;&gt;Node3 -->
<g id="edge7" class="edge"><title>Node2&#45;&gt;Node3</title>
<path fill="none" stroke="#404040" d="M470.585,-678.806C478.618,-648.152 486.799,-598.407 469.694,-560 464.829,-549.076 457.857,-550.74 449.694,-542 443.09,-534.928 436.424,-527.001 430.27,-519.284"/>
<polygon fill="none" stroke="#404040" points="430.175,-519.162 423.33,-516.893 422.792,-509.702 429.637,-511.971 430.175,-519.162"/>
<text text-anchor="middle" x="498.694" y="-607.5" font-family="Helvetica,sans-Serif" font-size="10.00"> +@104</text>
</g>
<!-- Node5 -->
<g id="node5" class="node"><title>Node5</title>
<g id="a_node5"><a xlink:href="../../d9/dfd/unionhmm__vec3.html" target="_top" xlink:title="{hmm_vec3\n|+ X\l+ Y\l+ Z\l+ G\l|}">
<polygon fill="none" stroke="black" points="619.194,-161 619.194,-251 684.194,-251 684.194,-161 619.194,-161"/>
<text text-anchor="middle" x="651.694" y="-239" font-family="Helvetica,sans-Serif" font-size="10.00">hmm_vec3</text>
<polyline fill="none" stroke="black" points="619.194,-232 684.194,-232 "/>
<text text-anchor="start" x="627.194" y="-220" font-family="Helvetica,sans-Serif" font-size="10.00">+ X</text>
<text text-anchor="start" x="627.194" y="-209" font-family="Helvetica,sans-Serif" font-size="10.00">+ Y</text>
<text text-anchor="start" x="627.194" y="-198" font-family="Helvetica,sans-Serif" font-size="10.00">+ Z</text>
<text text-anchor="start" x="627.194" y="-187" font-family="Helvetica,sans-Serif" font-size="10.00">+ G</text>
<polyline fill="none" stroke="black" points="619.194,-180 684.194,-180 "/>
<text text-anchor="middle" x="651.694" y="-168" font-family="Helvetica,sans-Serif" font-size="10.00"> </text>
</a>
</g>
</g>
<!-- Node2&#45;&gt;Node5 -->
<g id="edge9" class="edge"><title>Node2&#45;&gt;Node5</title>
<path fill="none" stroke="#404040" d="M476.257,-700.234C490.565,-692.687 511.541,-678.994 520.694,-660 539.988,-619.962 543.845,-597.939 520.694,-560 511.583,-545.068 494.806,-556.932 485.694,-542 457.45,-495.715 477.985,-473.671 485.694,-420 495.572,-351.23 485.485,-323.595 529.694,-270 549.688,-245.761 581.437,-229.781 607.534,-219.981"/>
<polygon fill="none" stroke="#404040" points="607.751,-219.904 612.075,-214.133 619.065,-215.905 614.741,-221.676 607.751,-219.904"/>
<text text-anchor="middle" x="503.694" y="-478.5" font-family="Helvetica,sans-Serif" font-size="10.00"> +@118</text>
</g>
<!-- Node2&#45;&gt;Node5 -->
<g id="edge11" class="edge"><title>Node2&#45;&gt;Node5</title>
<path fill="none" stroke="#404040" d="M476.396,-703.13C495.375,-697.278 527.732,-684.201 542.694,-660 570.795,-614.548 548.449,-472.632 557.694,-420 569.713,-351.572 569.729,-331.686 601.694,-270 604.591,-264.409 608.019,-258.833 611.701,-253.441"/>
<polygon fill="none" stroke="#404040" points="611.979,-253.056 612.261,-245.851 619.021,-243.34 618.739,-250.545 611.979,-253.056"/>
<text text-anchor="middle" x="575.694" y="-478.5" font-family="Helvetica,sans-Serif" font-size="10.00"> +@120</text>
</g>
<!-- Node2&#45;&gt;Node5 -->
<g id="edge13" class="edge"><title>Node2&#45;&gt;Node5</title>
<path fill="none" stroke="#404040" d="M476.446,-704.471C498.974,-699.814 541.747,-687.699 564.694,-660 589.865,-629.617 627.838,-377.566 643.987,-263.133"/>
<polygon fill="none" stroke="#404040" points="643.996,-263.073 640.869,-256.575 645.664,-251.19 648.791,-257.688 643.996,-263.073"/>
<text text-anchor="middle" x="637.694" y="-478.5" font-family="Helvetica,sans-Serif" font-size="10.00"> +@122</text>
</g>
<!-- Node2&#45;&gt;Node5 -->
<g id="edge14" class="edge"><title>Node2&#45;&gt;Node5</title>
<path fill="none" stroke="#404040" d="M476.451,-705.186C502.778,-701.269 558.387,-689.826 593.694,-660 639.598,-621.222 644.537,-600.148 659.694,-542 684.56,-446.606 673.002,-330.72 662.345,-263.268"/>
<polygon fill="none" stroke="#404040" points="662.316,-263.094 657.398,-257.821 660.374,-251.252 665.293,-256.526 662.316,-263.094"/>
<text text-anchor="middle" x="692.694" y="-478.5" font-family="Helvetica,sans-Serif" font-size="10.00"> +@112</text>
</g>
<!-- Node2&#45;&gt;Node5 -->
<g id="edge15" class="edge"><title>Node2&#45;&gt;Node5</title>
<path fill="none" stroke="#404040" d="M476.503,-706.584C508.958,-704.978 587.536,-697.228 638.694,-660 689.133,-623.295 697.09,-601.845 714.694,-542 749.031,-425.274 723.913,-384.832 683.694,-270 682.805,-267.46 681.832,-264.893 680.799,-262.322"/>
<polygon fill="none" stroke="#404040" points="680.705,-262.106 674.649,-258.191 675.933,-251.095 681.989,-255.01 680.705,-262.106"/>
<text text-anchor="middle" x="749.694" y="-478.5" font-family="Helvetica,sans-Serif" font-size="10.00"> +@124</text>
</g>
<!-- Node2&#45;&gt;Node5 -->
<g id="edge16" class="edge"><title>Node2&#45;&gt;Node5</title>
<path fill="none" stroke="#404040" d="M476.359,-707.529C514.635,-708.208 619.391,-705.502 688.694,-660 742.293,-624.809 752.348,-603.131 771.694,-542 808.83,-424.658 787.002,-373.043 719.694,-270 712.558,-259.075 703.12,-248.75 693.555,-239.741"/>
<polygon fill="none" stroke="#404040" points="693.342,-239.551 686.206,-238.516 684.416,-231.531 691.552,-232.565 693.342,-239.551"/>
<text text-anchor="middle" x="807.694" y="-478.5" font-family="Helvetica,sans-Serif" font-size="10.00"> +@114</text>
</g>
<!-- Node2&#45;&gt;Node5 -->
<g id="edge17" class="edge"><title>Node2&#45;&gt;Node5</title>
<path fill="none" stroke="#404040" d="M476.383,-705.974C527.381,-702.196 696.154,-687.806 741.694,-660 797.531,-625.907 809.09,-604.093 829.694,-542 868.775,-424.225 849.78,-362.167 766.694,-270 747.438,-248.64 719.183,-233.019 695.499,-222.676"/>
<polygon fill="none" stroke="#404040" points="695.38,-222.626 688.304,-224.016 684.299,-218.02 691.375,-216.629 695.38,-222.626"/>
<text text-anchor="middle" x="866.694" y="-478.5" font-family="Helvetica,sans-Serif" font-size="10.00"> +@116</text>
</g>
<!-- Node3&#45;&gt;Node1 -->
<g id="edge2" class="edge"><title>Node3&#45;&gt;Node1</title>
<path fill="none" stroke="#404040" d="M400.616,-452.349C395.232,-390.63 377.732,-237.807 329.694,-120 328.03,-115.919 326.114,-111.818 324.032,-107.763"/>
<polygon fill="none" stroke="#404040" points="323.991,-107.689 317.591,-104.367 318.195,-97.1817 324.596,-100.503 323.991,-107.689"/>
<text text-anchor="middle" x="382.194" y="-214.5" font-family="Helvetica,sans-Serif" font-size="10.00"> +ZW</text>
<text text-anchor="middle" x="382.194" y="-203.5" font-family="Helvetica,sans-Serif" font-size="10.00">+YZ</text>
<text text-anchor="middle" x="382.194" y="-192.5" font-family="Helvetica,sans-Serif" font-size="10.00">+XY</text>
</g>
<!-- Node3&#45;&gt;Node5 -->
<g id="edge10" class="edge"><title>Node3&#45;&gt;Node5</title>
<path fill="none" stroke="#404040" d="M402.884,-452.192C403.805,-401.47 408.541,-296.689 431.694,-270 475.375,-219.647 556.299,-208.235 606.885,-206.349"/>
<polygon fill="none" stroke="#404040" points="607.055,-206.345 612.957,-202.203 619.051,-206.057 613.149,-210.2 607.055,-206.345"/>
<text text-anchor="middle" x="444.694" y="-350" font-family="Helvetica,sans-Serif" font-size="10.00"> +VW</text>
<text text-anchor="middle" x="444.694" y="-339" font-family="Helvetica,sans-Serif" font-size="10.00">+UV</text>
<text text-anchor="middle" x="444.694" y="-328" font-family="Helvetica,sans-Serif" font-size="10.00">+YZ</text>
<text text-anchor="middle" x="444.694" y="-317" font-family="Helvetica,sans-Serif" font-size="10.00">+XY</text>
</g>
<!-- Node4 -->
<g id="node4" class="node"><title>Node4</title>
<g id="a_node4"><a xlink:href="../../d4/dc3/classfloat.html" target="_top" xlink:title="{float\n||}">
<polygon fill="none" stroke="black" points="966.194,-679.5 966.194,-736.5 1001.19,-736.5 1001.19,-679.5 966.194,-679.5"/>
<text text-anchor="middle" x="983.694" y="-724.5" font-family="Helvetica,sans-Serif" font-size="10.00">float</text>
<polyline fill="none" stroke="black" points="966.194,-717.5 1001.19,-717.5 "/>
<text text-anchor="middle" x="983.694" y="-705.5" font-family="Helvetica,sans-Serif" font-size="10.00"> </text>
<polyline fill="none" stroke="black" points="966.194,-698.5 1001.19,-698.5 "/>
<text text-anchor="middle" x="983.694" y="-686.5" font-family="Helvetica,sans-Serif" font-size="10.00"> </text>
</a>
</g>
</g>
<!-- Node4&#45;&gt;Node1 -->
<g id="edge18" class="edge"><title>Node4&#45;&gt;Node1</title>
<path fill="none" stroke="#404040" d="M979.018,-679.31C965.539,-606.083 920.988,-403.794 820.694,-270 775.703,-209.981 759.066,-194.947 692.694,-160 570.91,-95.8769 408.126,-67.6575 330.514,-57.2138"/>
<polygon fill="none" stroke="#404040" points="330.265,-57.1814 323.798,-60.3731 318.365,-55.6317 324.832,-52.4401 330.265,-57.1814"/>
<text text-anchor="middle" x="920.694" y="-394" font-family="Helvetica,sans-Serif" font-size="10.00"> +Ignored0_</text>
<text text-anchor="middle" x="920.694" y="-383" font-family="Helvetica,sans-Serif" font-size="10.00">+Ignored2_</text>
<text text-anchor="middle" x="920.694" y="-372" font-family="Helvetica,sans-Serif" font-size="10.00">+Ignored1_</text>
<text text-anchor="middle" x="920.694" y="-361" font-family="Helvetica,sans-Serif" font-size="10.00">+Ignored4_</text>
<text text-anchor="middle" x="920.694" y="-350" font-family="Helvetica,sans-Serif" font-size="10.00">+Ignored3_</text>
<text text-anchor="middle" x="920.694" y="-339" font-family="Helvetica,sans-Serif" font-size="10.00">+A</text>
<text text-anchor="middle" x="920.694" y="-328" font-family="Helvetica,sans-Serif" font-size="10.00">+R</text>
<text text-anchor="middle" x="920.694" y="-317" font-family="Helvetica,sans-Serif" font-size="10.00">+Elements</text>
<text text-anchor="middle" x="920.694" y="-306" font-family="Helvetica,sans-Serif" font-size="10.00">+B</text>
<text text-anchor="start" x="894.694" y="-295" font-family="Helvetica,sans-Serif" font-size="10.00">+Ignored5</text>
<text text-anchor="middle" x="920.694" y="-284" font-family="Helvetica,sans-Serif" font-size="10.00">_</text>
<text text-anchor="middle" x="920.694" y="-273" font-family="Helvetica,sans-Serif" font-size="10.00">...</text>
</g>
<!-- Node4&#45;&gt;Node3 -->
<g id="edge6" class="edge"><title>Node4&#45;&gt;Node3</title>
<path fill="none" stroke="#404040" d="M966.146,-701.015C905.054,-680.266 695.873,-609.968 520.694,-560 489.389,-551.071 476.972,-559.767 449.694,-542 440.689,-536.135 432.667,-527.952 425.911,-519.512"/>
<polygon fill="none" stroke="#404040" points="425.719,-519.254 418.934,-516.813 418.578,-509.611 425.363,-512.052 425.719,-519.254"/>
<text text-anchor="middle" x="864.694" y="-651.5" font-family="Helvetica,sans-Serif" font-size="10.00"> +Height</text>
<text text-anchor="middle" x="864.694" y="-640.5" font-family="Helvetica,sans-Serif" font-size="10.00">+Elements</text>
<text text-anchor="middle" x="864.694" y="-629.5" font-family="Helvetica,sans-Serif" font-size="10.00">+U</text>
<text text-anchor="middle" x="864.694" y="-618.5" font-family="Helvetica,sans-Serif" font-size="10.00">+V</text>
<text text-anchor="middle" x="864.694" y="-607.5" font-family="Helvetica,sans-Serif" font-size="10.00">+Width</text>
<text text-anchor="middle" x="864.694" y="-596.5" font-family="Helvetica,sans-Serif" font-size="10.00">+X</text>
<text text-anchor="middle" x="864.694" y="-585.5" font-family="Helvetica,sans-Serif" font-size="10.00">+Y</text>
<text text-anchor="middle" x="864.694" y="-574.5" font-family="Helvetica,sans-Serif" font-size="10.00">+Left</text>
<text text-anchor="middle" x="864.694" y="-563.5" font-family="Helvetica,sans-Serif" font-size="10.00">+Right</text>
</g>
<!-- Node4&#45;&gt;Node5 -->
<g id="edge12" class="edge"><title>Node4&#45;&gt;Node5</title>
<path fill="none" stroke="#404040" d="M999.441,-679.448C1040.3,-603.916 1139.62,-391.139 1036.69,-270 993.448,-219.102 788.329,-209.236 696.421,-207.389"/>
<polygon fill="none" stroke="#404040" points="696.23,-207.386 690.162,-211.281 684.232,-207.178 690.3,-203.282 696.23,-207.386"/>
<text text-anchor="middle" x="1106.69" y="-533.5" font-family="Helvetica,sans-Serif" font-size="10.00"> +Ignored0_</text>
<text text-anchor="middle" x="1106.69" y="-522.5" font-family="Helvetica,sans-Serif" font-size="10.00">+Ignored2_</text>
<text text-anchor="middle" x="1106.69" y="-511.5" font-family="Helvetica,sans-Serif" font-size="10.00">+Ignored1_</text>
<text text-anchor="middle" x="1106.69" y="-500.5" font-family="Helvetica,sans-Serif" font-size="10.00">+Ignored3_</text>
<text text-anchor="middle" x="1106.69" y="-489.5" font-family="Helvetica,sans-Serif" font-size="10.00">+R</text>
<text text-anchor="middle" x="1106.69" y="-478.5" font-family="Helvetica,sans-Serif" font-size="10.00">+Elements</text>
<text text-anchor="middle" x="1106.69" y="-467.5" font-family="Helvetica,sans-Serif" font-size="10.00">+B</text>
<text text-anchor="middle" x="1106.69" y="-456.5" font-family="Helvetica,sans-Serif" font-size="10.00">+U</text>
<text text-anchor="middle" x="1106.69" y="-445.5" font-family="Helvetica,sans-Serif" font-size="10.00">+V</text>
<text text-anchor="middle" x="1106.69" y="-434.5" font-family="Helvetica,sans-Serif" font-size="10.00">+W</text>
<text text-anchor="middle" x="1106.69" y="-423.5" font-family="Helvetica,sans-Serif" font-size="10.00">...</text>
</g>
<!-- Node5&#45;&gt;Node1 -->
<g id="edge8" class="edge"><title>Node5&#45;&gt;Node1</title>
<path fill="none" stroke="#404040" d="M618.892,-191.288C552.855,-163.682 403.859,-101.397 329.552,-70.3339"/>
<polygon fill="none" stroke="#404040" points="329.363,-70.255 322.284,-71.6314 318.291,-65.6267 325.37,-64.2504 329.363,-70.255"/>
<text text-anchor="middle" x="506.194" y="-134" font-family="Helvetica,sans-Serif" font-size="10.00"> +RGB</text>
<text text-anchor="middle" x="506.194" y="-123" font-family="Helvetica,sans-Serif" font-size="10.00">+XYZ</text>
</g>
</g>
</svg>
        <g id="navigator" transform="translate(0 0)" fill="#404254">
                <rect fill="#f2f5e9" fill-opacity="0.5" stroke="#606060" stroke-width=".5" x="0" y="0" width="60" height="60"/>
                <use id="zoomplus" xlink:href="#zoomPlus" x="17" y="9" onmousedown="handleZoom(evt,'in')"/>
                <use id="zoomminus" xlink:href="#zoomMin" x="42" y="9" onmousedown="handleZoom(evt,'out')"/>
                <use id="reset" xlink:href="#resetDef" x="30" y="36" onmousedown="handleReset()"/>
                <g id="arrowUp" xlink:href="#dirArrow" transform="translate(30 24)" onmousedown="handlePan(0,-1)">
                  <use xlink:href="#rim" fill="#404040">
                        <set attributeName="fill" to="#808080" begin="arrowUp.mouseover" end="arrowUp.mouseout"/>
                  </use>
                  <path fill="none" stroke="white" stroke-width="1.5" d="M0,-3.0v7 M-2.5,-0.5L0,-3.0L2.5,-0.5"/>
                </g>
                <g id="arrowRight" xlink:href="#dirArrow" transform="rotate(90) translate(36 -43)" onmousedown="handlePan(1,0)">
                  <use xlink:href="#rim" fill="#404040">
                        <set attributeName="fill" to="#808080" begin="arrowRight.mouseover" end="arrowRight.mouseout"/>
                  </use>
                  <path fill="none" stroke="white" stroke-width="1.5" d="M0,-3.0v7 M-2.5,-0.5L0,-3.0L2.5,-0.5"/>
                </g>
                <g id="arrowDown" xlink:href="#dirArrow" transform="rotate(180) translate(-30 -48)" onmousedown="handlePan(0,1)">
                  <use xlink:href="#rim" fill="#404040">
                        <set attributeName="fill" to="#808080" begin="arrowDown.mouseover" end="arrowDown.mouseout"/>
                  </use>
                  <path fill="none" stroke="white" stroke-width="1.5" d="M0,-3.0v7 M-2.5,-0.5L0,-3.0L2.5,-0.5"/>
                </g>
                <g id="arrowLeft" xlink:href="#dirArrow" transform="rotate(270) translate(-36 17)" onmousedown="handlePan(-1,0)">
                  <use xlink:href="#rim" fill="#404040">
                        <set attributeName="fill" to="#808080" begin="arrowLeft.mouseover" end="arrowLeft.mouseout"/>
                  </use>
                  <path fill="none" stroke="white" stroke-width="1.5" d="M0,-3.0v7 M-2.5,-0.5L0,-3.0L2.5,-0.5"/>
                </g>
        </g>
        <svg viewBox="0 0 15 15" width="100%" height="30px" preserveAspectRatio="xMaxYMin meet">
         <g id="arrow_out" transform="scale(0.3 0.3)">
          <a xlink:href="unionhmm__vec4__coll__graph_org.svg" target="_base">
           <rect id="button" ry="5" rx="5" y="6" x="6" height="38" width="38"
                fill="#f2f5e9" fill-opacity="0.5" stroke="#606060" stroke-width="1.0"/>
           <path id="arrow"
             d="M 11.500037,31.436501 C 11.940474,20.09759 22.043105,11.32322 32.158766,21.979434 L 37.068811,17.246167 C 37.068811,17.246167 37.088388,32 37.088388,32 L 22.160133,31.978069 C 22.160133,31.978069 26.997745,27.140456 26.997745,27.140456 C 18.528582,18.264221 13.291696,25.230495 11.500037,31.436501 z"
             style="fill:#404040;"/>
          </a>
         </g>
        </svg>
</svg>
