<?xml version="1.0" encoding="UTF-8" standalone="no"?>
<!DOCTYPE svg PUBLIC "-//W3C//DTD SVG 1.1//EN"
 "http://www.w3.org/Graphics/SVG/1.1/DTD/svg11.dtd">
<!-- Generated by graphviz version 2.36.0 (20140111.2315)
 -->
<!-- Title: /home/travis/build/AliceO2Group/AliceO2/DataFormats/Detectors/ITSMFT/ITS/include/DataFormatsITS/TrackITS.h Pages: 1 -->
<svg width="1744pt" height="384pt"
 viewBox="0.00 0.00 1744.00 384.00" xmlns="http://www.w3.org/2000/svg" xmlns:xlink="http://www.w3.org/1999/xlink">
<g id="graph0" class="graph" transform="scale(1 1) rotate(0) translate(4 380)">
<title>/home/travis/build/AliceO2Group/AliceO2/DataFormats/Detectors/ITSMFT/ITS/include/DataFormatsITS/TrackITS.h</title>
<!-- Node1 -->
<g id="node1" class="node"><title>Node1</title>
<polygon fill="#bfbfbf" stroke="black" points="839,-312.5 839,-375.5 1007,-375.5 1007,-312.5 839,-312.5"/>
<text text-anchor="start" x="847" y="-363.5" font-family="Helvetica,sans-Serif" font-size="10.00">/home/travis/build</text>
<text text-anchor="start" x="847" y="-352.5" font-family="Helvetica,sans-Serif" font-size="10.00">/AliceO2Group/AliceO2</text>
<text text-anchor="start" x="847" y="-341.5" font-family="Helvetica,sans-Serif" font-size="10.00">/DataFormats/Detectors</text>
<text text-anchor="start" x="847" y="-330.5" font-family="Helvetica,sans-Serif" font-size="10.00">/ITSMFT/ITS/include/DataFormats</text>
<text text-anchor="middle" x="923" y="-319.5" font-family="Helvetica,sans-Serif" font-size="10.00">ITS/TrackITS.h</text>
</g>
<!-- Node2 -->
<g id="node2" class="node"><title>Node2</title>
<g id="a_node2"><a xlink:href="../../dd/dea/TrackITS_8cxx.html" target="_top" xlink:title="Implementation of the ITS cooked track. ">
<polygon fill="none" stroke="black" points="48.5,-218 48.5,-270 201.5,-270 201.5,-218 48.5,-218"/>
<text text-anchor="start" x="56.5" y="-258" font-family="Helvetica,sans-Serif" font-size="10.00">/home/travis/build</text>
<text text-anchor="start" x="56.5" y="-247" font-family="Helvetica,sans-Serif" font-size="10.00">/AliceO2Group/AliceO2</text>
<text text-anchor="start" x="56.5" y="-236" font-family="Helvetica,sans-Serif" font-size="10.00">/DataFormats/Detectors</text>
<text text-anchor="middle" x="125" y="-225" font-family="Helvetica,sans-Serif" font-size="10.00">/ITSMFT/ITS/src/TrackITS.cxx</text>
</a>
</g>
</g>
<!-- Node1&#45;&gt;Node2 -->
<g id="edge1" class="edge"><title>Node1&#45;&gt;Node2</title>
<path fill="none" stroke="midnightblue" d="M828.665,-341.781C691.037,-338.288 427.867,-325.11 210,-276 202.798,-274.377 195.376,-272.304 188.056,-270.003"/>
<polygon fill="midnightblue" stroke="midnightblue" points="828.678,-345.282 838.759,-342.025 828.847,-338.284 828.678,-345.282"/>
</g>
<!-- Node3 -->
<g id="node3" class="node"><title>Node3</title>
<g id="a_node3"><a xlink:href="../../d3/dac/MatchTPCITS_8h.html" target="_top" xlink:title="Class to perform TPC ITS matching. ">
<polygon fill="none" stroke="black" points="219.5,-218 219.5,-270 412.5,-270 412.5,-218 219.5,-218"/>
<text text-anchor="start" x="227.5" y="-258" font-family="Helvetica,sans-Serif" font-size="10.00">/home/travis/build</text>
<text text-anchor="start" x="227.5" y="-247" font-family="Helvetica,sans-Serif" font-size="10.00">/AliceO2Group/AliceO2</text>
<text text-anchor="start" x="227.5" y="-236" font-family="Helvetica,sans-Serif" font-size="10.00">/Detectors/GlobalTracking</text>
<text text-anchor="middle" x="316" y="-225" font-family="Helvetica,sans-Serif" font-size="10.00">/include/GlobalTracking/MatchTPCITS.h</text>
</a>
</g>
</g>
<!-- Node1&#45;&gt;Node3 -->
<g id="edge2" class="edge"><title>Node1&#45;&gt;Node3</title>
<path fill="none" stroke="midnightblue" d="M828.36,-334.66C727.079,-324.732 562.06,-305.667 422,-276 413.841,-274.272 405.393,-272.236 396.992,-270.046"/>
<polygon fill="midnightblue" stroke="midnightblue" points="828.274,-338.168 838.566,-335.65 828.951,-331.201 828.274,-338.168"/>
</g>
<!-- Node9 -->
<g id="node9" class="node"><title>Node9</title>
<g id="a_node9"><a xlink:href="../../d4/d33/DisplayEvents_8C.html" target="_top" xlink:title="Simple macro to display ITS digits, clusters and tracks. ">
<polygon fill="none" stroke="black" points="431,-218 431,-270 583,-270 583,-218 431,-218"/>
<text text-anchor="start" x="439" y="-258" font-family="Helvetica,sans-Serif" font-size="10.00">/home/travis/build</text>
<text text-anchor="start" x="439" y="-247" font-family="Helvetica,sans-Serif" font-size="10.00">/AliceO2Group/AliceO2</text>
<text text-anchor="start" x="439" y="-236" font-family="Helvetica,sans-Serif" font-size="10.00">/Detectors/ITSMFT/ITS</text>
<text text-anchor="middle" x="507" y="-225" font-family="Helvetica,sans-Serif" font-size="10.00">/macros/EVE/DisplayEvents.C</text>
</a>
</g>
</g>
<!-- Node1&#45;&gt;Node9 -->
<g id="edge8" class="edge"><title>Node1&#45;&gt;Node9</title>
<path fill="none" stroke="midnightblue" d="M828.746,-327.632C762.264,-315.878 671.443,-297.975 593,-276 586.581,-274.202 579.954,-272.159 573.359,-270.001"/>
<polygon fill="midnightblue" stroke="midnightblue" points="828.333,-331.112 838.788,-329.393 829.543,-324.218 828.333,-331.112"/>
</g>
<!-- Node10 -->
<g id="node10" class="node"><title>Node10</title>
<g id="a_node10"><a xlink:href="../../dc/df8/CheckTracks_8C.html" target="_top" xlink:title="Simple macro to check ITSU tracks. ">
<polygon fill="none" stroke="black" points="601.5,-218 601.5,-270 744.5,-270 744.5,-218 601.5,-218"/>
<text text-anchor="start" x="609.5" y="-258" font-family="Helvetica,sans-Serif" font-size="10.00">/home/travis/build</text>
<text text-anchor="start" x="609.5" y="-247" font-family="Helvetica,sans-Serif" font-size="10.00">/AliceO2Group/AliceO2</text>
<text text-anchor="start" x="609.5" y="-236" font-family="Helvetica,sans-Serif" font-size="10.00">/Detectors/ITSMFT/ITS</text>
<text text-anchor="middle" x="673" y="-225" font-family="Helvetica,sans-Serif" font-size="10.00">/macros/test/CheckTracks.C</text>
</a>
</g>
</g>
<!-- Node1&#45;&gt;Node10 -->
<g id="edge9" class="edge"><title>Node1&#45;&gt;Node10</title>
<path fill="none" stroke="midnightblue" d="M835.455,-308.682C803.074,-295.989 766.998,-281.847 737.083,-270.121"/>
<polygon fill="midnightblue" stroke="midnightblue" points="834.339,-312.004 844.927,-312.395 836.894,-305.487 834.339,-312.004"/>
</g>
<!-- Node11 -->
<g id="node11" class="node"><title>Node11</title>
<g id="a_node11"><a xlink:href="../../d5/df6/DisplayTrack_8C.html" target="_top" xlink:title="Simple macro to display ITSU tracks. ">
<polygon fill="none" stroke="black" points="762.5,-218 762.5,-270 905.5,-270 905.5,-218 762.5,-218"/>
<text text-anchor="start" x="770.5" y="-258" font-family="Helvetica,sans-Serif" font-size="10.00">/home/travis/build</text>
<text text-anchor="start" x="770.5" y="-247" font-family="Helvetica,sans-Serif" font-size="10.00">/AliceO2Group/AliceO2</text>
<text text-anchor="start" x="770.5" y="-236" font-family="Helvetica,sans-Serif" font-size="10.00">/Detectors/ITSMFT/ITS</text>
<text text-anchor="middle" x="834" y="-225" font-family="Helvetica,sans-Serif" font-size="10.00">/macros/test/DisplayTrack.C</text>
</a>
</g>
</g>
<!-- Node1&#45;&gt;Node11 -->
<g id="edge10" class="edge"><title>Node1&#45;&gt;Node11</title>
<path fill="none" stroke="midnightblue" d="M888.268,-304.756C877.686,-293.104 866.329,-280.598 856.753,-270.054"/>
<polygon fill="midnightblue" stroke="midnightblue" points="885.77,-307.211 895.084,-312.261 890.952,-302.505 885.77,-307.211"/>
</g>
<!-- Node12 -->
<g id="node12" class="node"><title>Node12</title>
<g id="a_node12"><a xlink:href="../../d6/d0c/CookedTracker_8h.html" target="_top" xlink:title="Definition of the &quot;Cooked Matrix&quot; ITS tracker. ">
<polygon fill="none" stroke="black" points="923.5,-212.5 923.5,-275.5 1102.5,-275.5 1102.5,-212.5 923.5,-212.5"/>
<text text-anchor="start" x="931.5" y="-263.5" font-family="Helvetica,sans-Serif" font-size="10.00">/home/travis/build</text>
<text text-anchor="start" x="931.5" y="-252.5" font-family="Helvetica,sans-Serif" font-size="10.00">/AliceO2Group/AliceO2</text>
<text text-anchor="start" x="931.5" y="-241.5" font-family="Helvetica,sans-Serif" font-size="10.00">/Detectors/ITSMFT/ITS</text>
<text text-anchor="start" x="931.5" y="-230.5" font-family="Helvetica,sans-Serif" font-size="10.00">/reconstruction/include</text>
<text text-anchor="middle" x="1013" y="-219.5" font-family="Helvetica,sans-Serif" font-size="10.00">/ITSReconstruction/CookedTracker.h</text>
</a>
</g>
</g>
<!-- Node1&#45;&gt;Node12 -->
<g id="edge11" class="edge"><title>Node1&#45;&gt;Node12</title>
<path fill="none" stroke="midnightblue" d="M958.185,-304.687C967.035,-295.051 976.417,-284.835 984.871,-275.63"/>
<polygon fill="midnightblue" stroke="midnightblue" points="955.416,-302.528 951.23,-312.261 960.572,-307.263 955.416,-302.528"/>
</g>
<!-- Node18 -->
<g id="node18" class="node"><title>Node18</title>
<g id="a_node18"><a xlink:href="../../d6/dbc/CookedTrackerSpec_8cxx.html" target="_top" xlink:title="/home/travis/build\l/AliceO2Group/AliceO2\l/Detectors/ITSMFT/ITS\l/workflow/src/CookedTrackerSpec.cxx">
<polygon fill="none" stroke="black" points="1038,-6 1038,-58 1224,-58 1224,-6 1038,-6"/>
<text text-anchor="start" x="1046" y="-46" font-family="Helvetica,sans-Serif" font-size="10.00">/home/travis/build</text>
<text text-anchor="start" x="1046" y="-35" font-family="Helvetica,sans-Serif" font-size="10.00">/AliceO2Group/AliceO2</text>
<text text-anchor="start" x="1046" y="-24" font-family="Helvetica,sans-Serif" font-size="10.00">/Detectors/ITSMFT/ITS</text>
<text text-anchor="middle" x="1131" y="-13" font-family="Helvetica,sans-Serif" font-size="10.00">/workflow/src/CookedTrackerSpec.cxx</text>
</a>
</g>
</g>
<!-- Node1&#45;&gt;Node18 -->
<g id="edge24" class="edge"><title>Node1&#45;&gt;Node18</title>
<path fill="none" stroke="midnightblue" d="M1017.02,-331.19C1051.89,-321.907 1088.42,-305.381 1111,-276 1160.78,-211.224 1146.87,-106.003 1137.01,-58.1376"/>
<polygon fill="midnightblue" stroke="midnightblue" points="1016.1,-327.812 1007.24,-333.621 1017.79,-334.606 1016.1,-327.812"/>
</g>
<!-- Node20 -->
<g id="node20" class="node"><title>Node20</title>
<g id="a_node20"><a xlink:href="../../d7/da0/ITSMFT_2ITS_2tracking_2include_2ITStracking_2Tracker_8h.html" target="_top" xlink:title="/home/travis/build\l/AliceO2Group/AliceO2\l/Detectors/ITSMFT/ITS\l/tracking/include/ITStracking\l/Tracker.h">
<polygon fill="none" stroke="black" points="1276.5,-212.5 1276.5,-275.5 1417.5,-275.5 1417.5,-212.5 1276.5,-212.5"/>
<text text-anchor="start" x="1284.5" y="-263.5" font-family="Helvetica,sans-Serif" font-size="10.00">/home/travis/build</text>
<text text-anchor="start" x="1284.5" y="-252.5" font-family="Helvetica,sans-Serif" font-size="10.00">/AliceO2Group/AliceO2</text>
<text text-anchor="start" x="1284.5" y="-241.5" font-family="Helvetica,sans-Serif" font-size="10.00">/Detectors/ITSMFT/ITS</text>
<text text-anchor="start" x="1284.5" y="-230.5" font-family="Helvetica,sans-Serif" font-size="10.00">/tracking/include/ITStracking</text>
<text text-anchor="middle" x="1347" y="-219.5" font-family="Helvetica,sans-Serif" font-size="10.00">/Tracker.h</text>
</a>
</g>
</g>
<!-- Node1&#45;&gt;Node20 -->
<g id="edge19" class="edge"><title>Node1&#45;&gt;Node20</title>
<path fill="none" stroke="midnightblue" d="M1016.83,-321.734C1074.34,-308.652 1149.46,-291.481 1216,-276 1235.58,-271.446 1256.78,-266.453 1276.32,-261.83"/>
<polygon fill="midnightblue" stroke="midnightblue" points="1016,-318.333 1007.03,-323.963 1017.55,-325.158 1016,-318.333"/>
</g>
<!-- Node22 -->
<g id="node22" class="node"><title>Node22</title>
<g id="a_node22"><a xlink:href="../../d7/da1/TrackerSpec_8cxx.html" target="_top" xlink:title="/home/travis/build\l/AliceO2Group/AliceO2\l/Detectors/ITSMFT/ITS\l/workflow/src/TrackerSpec.cxx">
<polygon fill="none" stroke="black" points="1159,-112 1159,-164 1311,-164 1311,-112 1159,-112"/>
<text text-anchor="start" x="1167" y="-152" font-family="Helvetica,sans-Serif" font-size="10.00">/home/travis/build</text>
<text text-anchor="start" x="1167" y="-141" font-family="Helvetica,sans-Serif" font-size="10.00">/AliceO2Group/AliceO2</text>
<text text-anchor="start" x="1167" y="-130" font-family="Helvetica,sans-Serif" font-size="10.00">/Detectors/ITSMFT/ITS</text>
<text text-anchor="middle" x="1235" y="-119" font-family="Helvetica,sans-Serif" font-size="10.00">/workflow/src/TrackerSpec.cxx</text>
</a>
</g>
</g>
<!-- Node1&#45;&gt;Node22 -->
<g id="edge25" class="edge"><title>Node1&#45;&gt;Node22</title>
<path fill="none" stroke="midnightblue" d="M1017.06,-329.629C1059.31,-320.04 1107.89,-303.705 1145,-276 1184.22,-246.716 1211.37,-194.939 1224.96,-164.112"/>
<polygon fill="midnightblue" stroke="midnightblue" points="1016.06,-326.265 1007.03,-331.807 1017.54,-333.105 1016.06,-326.265"/>
</g>
<!-- Node25 -->
<g id="node25" class="node"><title>Node25</title>
<g id="a_node25"><a xlink:href="../../d9/d98/TrackWriterSpec_8cxx.html" target="_top" xlink:title="/home/travis/build\l/AliceO2Group/AliceO2\l/Detectors/ITSMFT/ITS\l/workflow/src/TrackWriterSpec.cxx">
<polygon fill="none" stroke="black" points="1436,-218 1436,-270 1606,-270 1606,-218 1436,-218"/>
<text text-anchor="start" x="1444" y="-258" font-family="Helvetica,sans-Serif" font-size="10.00">/home/travis/build</text>
<text text-anchor="start" x="1444" y="-247" font-family="Helvetica,sans-Serif" font-size="10.00">/AliceO2Group/AliceO2</text>
<text text-anchor="start" x="1444" y="-236" font-family="Helvetica,sans-Serif" font-size="10.00">/Detectors/ITSMFT/ITS</text>
<text text-anchor="middle" x="1521" y="-225" font-family="Helvetica,sans-Serif" font-size="10.00">/workflow/src/TrackWriterSpec.cxx</text>
</a>
</g>
</g>
<!-- Node1&#45;&gt;Node25 -->
<g id="edge26" class="edge"><title>Node1&#45;&gt;Node25</title>
<path fill="none" stroke="midnightblue" d="M1017.3,-335.629C1119.07,-326.473 1285.44,-308.01 1426,-276 1433.53,-274.286 1441.31,-272.231 1449.03,-270.005"/>
<polygon fill="midnightblue" stroke="midnightblue" points="1016.7,-332.168 1007.05,-336.539 1017.32,-339.141 1016.7,-332.168"/>
</g>
<!-- Node4 -->
<g id="node4" class="node"><title>Node4</title>
<g id="a_node4"><a xlink:href="../../d0/d74/MatchTOF_8h.html" target="_top" xlink:title="Class to perform TOF matching to global tracks. ">
<polygon fill="none" stroke="black" points="49,-112 49,-164 225,-164 225,-112 49,-112"/>
<text text-anchor="start" x="57" y="-152" font-family="Helvetica,sans-Serif" font-size="10.00">/home/travis/build</text>
<text text-anchor="start" x="57" y="-141" font-family="Helvetica,sans-Serif" font-size="10.00">/AliceO2Group/AliceO2</text>
<text text-anchor="start" x="57" y="-130" font-family="Helvetica,sans-Serif" font-size="10.00">/Detectors/GlobalTracking</text>
<text text-anchor="middle" x="137" y="-119" font-family="Helvetica,sans-Serif" font-size="10.00">/include/GlobalTracking/MatchTOF.h</text>
</a>
</g>
</g>
<!-- Node3&#45;&gt;Node4 -->
<g id="edge3" class="edge"><title>Node3&#45;&gt;Node4</title>
<path fill="none" stroke="midnightblue" d="M263.886,-212.721C237.329,-197.291 205.418,-178.751 180.242,-164.124"/>
<polygon fill="midnightblue" stroke="midnightblue" points="262.264,-215.827 272.669,-217.825 265.781,-209.774 262.264,-215.827"/>
</g>
<!-- Node7 -->
<g id="node7" class="node"><title>Node7</title>
<g id="a_node7"><a xlink:href="../../dc/d59/MatchTPCITS_8cxx.html" target="_top" xlink:title="/home/travis/build\l/AliceO2Group/AliceO2\l/Detectors/GlobalTracking\l/src/MatchTPCITS.cxx">
<polygon fill="none" stroke="black" points="243.5,-112 243.5,-164 374.5,-164 374.5,-112 243.5,-112"/>
<text text-anchor="start" x="251.5" y="-152" font-family="Helvetica,sans-Serif" font-size="10.00">/home/travis/build</text>
<text text-anchor="start" x="251.5" y="-141" font-family="Helvetica,sans-Serif" font-size="10.00">/AliceO2Group/AliceO2</text>
<text text-anchor="start" x="251.5" y="-130" font-family="Helvetica,sans-Serif" font-size="10.00">/Detectors/GlobalTracking</text>
<text text-anchor="middle" x="309" y="-119" font-family="Helvetica,sans-Serif" font-size="10.00">/src/MatchTPCITS.cxx</text>
</a>
</g>
</g>
<!-- Node3&#45;&gt;Node7 -->
<g id="edge6" class="edge"><title>Node3&#45;&gt;Node7</title>
<path fill="none" stroke="midnightblue" d="M313.633,-207.836C312.672,-193.56 311.584,-177.385 310.703,-164.304"/>
<polygon fill="midnightblue" stroke="midnightblue" points="310.142,-208.082 314.305,-217.825 317.126,-207.612 310.142,-208.082"/>
</g>
<!-- Node8 -->
<g id="node8" class="node"><title>Node8</title>
<g id="a_node8"><a xlink:href="../../d9/d84/run__match__TPCITS_8C.html" target="_top" xlink:title="/home/travis/build\l/AliceO2Group/AliceO2\l/macro/run_match_TPCITS.C">
<polygon fill="none" stroke="black" points="392.5,-117.5 392.5,-158.5 539.5,-158.5 539.5,-117.5 392.5,-117.5"/>
<text text-anchor="start" x="400.5" y="-146.5" font-family="Helvetica,sans-Serif" font-size="10.00">/home/travis/build</text>
<text text-anchor="start" x="400.5" y="-135.5" font-family="Helvetica,sans-Serif" font-size="10.00">/AliceO2Group/AliceO2</text>
<text text-anchor="middle" x="466" y="-124.5" font-family="Helvetica,sans-Serif" font-size="10.00">/macro/run_match_TPCITS.C</text>
</a>
</g>
</g>
<!-- Node3&#45;&gt;Node8 -->
<g id="edge7" class="edge"><title>Node3&#45;&gt;Node8</title>
<path fill="none" stroke="midnightblue" d="M360.537,-212.121C385.464,-194.838 415.801,-173.805 437.527,-158.741"/>
<polygon fill="midnightblue" stroke="midnightblue" points="358.535,-209.25 352.311,-217.825 362.523,-215.003 358.535,-209.25"/>
</g>
<!-- Node5 -->
<g id="node5" class="node"><title>Node5</title>
<g id="a_node5"><a xlink:href="../../db/d6a/MatchTOF_8cxx.html" target="_top" xlink:title="/home/travis/build\l/AliceO2Group/AliceO2\l/Detectors/GlobalTracking\l/src/MatchTOF.cxx">
<polygon fill="none" stroke="black" points="-0.5,-6 -0.5,-58 130.5,-58 130.5,-6 -0.5,-6"/>
<text text-anchor="start" x="7.5" y="-46" font-family="Helvetica,sans-Serif" font-size="10.00">/home/travis/build</text>
<text text-anchor="start" x="7.5" y="-35" font-family="Helvetica,sans-Serif" font-size="10.00">/AliceO2Group/AliceO2</text>
<text text-anchor="start" x="7.5" y="-24" font-family="Helvetica,sans-Serif" font-size="10.00">/Detectors/GlobalTracking</text>
<text text-anchor="middle" x="65" y="-13" font-family="Helvetica,sans-Serif" font-size="10.00">/src/MatchTOF.cxx</text>
</a>
</g>
</g>
<!-- Node4&#45;&gt;Node5 -->
<g id="edge4" class="edge"><title>Node4&#45;&gt;Node5</title>
<path fill="none" stroke="midnightblue" d="M113.801,-103.49C103.645,-88.8205 91.9263,-71.8935 82.5182,-58.3041"/>
<polygon fill="midnightblue" stroke="midnightblue" points="111.001,-105.595 119.571,-111.825 116.756,-101.61 111.001,-105.595"/>
</g>
<!-- Node6 -->
<g id="node6" class="node"><title>Node6</title>
<g id="a_node6"><a xlink:href="../../dd/d7c/run__match__tof_8C.html" target="_top" xlink:title="/home/travis/build\l/AliceO2Group/AliceO2\l/macro/run_match_tof.C">
<polygon fill="none" stroke="black" points="149,-11.5 149,-52.5 271,-52.5 271,-11.5 149,-11.5"/>
<text text-anchor="start" x="157" y="-40.5" font-family="Helvetica,sans-Serif" font-size="10.00">/home/travis/build</text>
<text text-anchor="start" x="157" y="-29.5" font-family="Helvetica,sans-Serif" font-size="10.00">/AliceO2Group/AliceO2</text>
<text text-anchor="middle" x="210" y="-18.5" font-family="Helvetica,sans-Serif" font-size="10.00">/macro/run_match_tof.C</text>
</a>
</g>
</g>
<!-- Node4&#45;&gt;Node6 -->
<g id="edge5" class="edge"><title>Node4&#45;&gt;Node6</title>
<path fill="none" stroke="midnightblue" d="M160.594,-103.387C172.335,-86.6595 186.121,-67.0188 196.143,-52.7413"/>
<polygon fill="midnightblue" stroke="midnightblue" points="157.552,-101.629 154.671,-111.825 163.281,-105.65 157.552,-101.629"/>
</g>
<!-- Node13 -->
<g id="node13" class="node"><title>Node13</title>
<g id="a_node13"><a xlink:href="../../d3/d9f/CookedTrackerTask_8h.html" target="_top" xlink:title="Definition of the ITS &quot;Cooked Matrix&quot; tracker task. ">
<polygon fill="none" stroke="black" points="557.5,-101 557.5,-175 728.5,-175 728.5,-101 557.5,-101"/>
<text text-anchor="start" x="565.5" y="-163" font-family="Helvetica,sans-Serif" font-size="10.00">/home/travis/build</text>
<text text-anchor="start" x="565.5" y="-152" font-family="Helvetica,sans-Serif" font-size="10.00">/AliceO2Group/AliceO2</text>
<text text-anchor="start" x="565.5" y="-141" font-family="Helvetica,sans-Serif" font-size="10.00">/Detectors/ITSMFT/ITS</text>
<text text-anchor="start" x="565.5" y="-130" font-family="Helvetica,sans-Serif" font-size="10.00">/reconstruction/include</text>
<text text-anchor="start" x="565.5" y="-119" font-family="Helvetica,sans-Serif" font-size="10.00">/ITSReconstruction/CookedTracker</text>
<text text-anchor="middle" x="643" y="-108" font-family="Helvetica,sans-Serif" font-size="10.00">Task.h</text>
</a>
</g>
</g>
<!-- Node12&#45;&gt;Node13 -->
<g id="edge12" class="edge"><title>Node12&#45;&gt;Node13</title>
<path fill="none" stroke="midnightblue" d="M913.413,-211.968C834.882,-192.51 811.594,-197.688 738,-176 734.944,-175.099 731.848,-174.143 728.733,-173.142"/>
<polygon fill="midnightblue" stroke="midnightblue" points="912.718,-215.402 923.271,-214.466 914.437,-208.616 912.718,-215.402"/>
</g>
<!-- Node16 -->
<g id="node16" class="node"><title>Node16</title>
<g id="a_node16"><a xlink:href="../../d7/dca/CookedTracker_8cxx.html" target="_top" xlink:title="Implementation of the &quot;Cooked Matrix&quot; ITS tracker. ">
<polygon fill="none" stroke="black" points="747,-112 747,-164 933,-164 933,-112 747,-112"/>
<text text-anchor="start" x="755" y="-152" font-family="Helvetica,sans-Serif" font-size="10.00">/home/travis/build</text>
<text text-anchor="start" x="755" y="-141" font-family="Helvetica,sans-Serif" font-size="10.00">/AliceO2Group/AliceO2</text>
<text text-anchor="start" x="755" y="-130" font-family="Helvetica,sans-Serif" font-size="10.00">/Detectors/ITSMFT/ITS</text>
<text text-anchor="middle" x="840" y="-119" font-family="Helvetica,sans-Serif" font-size="10.00">/reconstruction/src/CookedTracker.cxx</text>
</a>
</g>
</g>
<!-- Node12&#45;&gt;Node16 -->
<g id="edge15" class="edge"><title>Node12&#45;&gt;Node16</title>
<path fill="none" stroke="midnightblue" d="M953.148,-207.02C929.555,-192.836 903.03,-176.891 881.596,-164.006"/>
<polygon fill="midnightblue" stroke="midnightblue" points="951.656,-210.206 962.03,-212.359 955.263,-204.207 951.656,-210.206"/>
</g>
<!-- Node17 -->
<g id="node17" class="node"><title>Node17</title>
<g id="a_node17"><a xlink:href="../../d2/d0b/CookedTrackerSpec_8h.html" target="_top" xlink:title="/home/travis/build\l/AliceO2Group/AliceO2\l/Detectors/ITSMFT/ITS\l/workflow/include/ITSWorkflow\l/CookedTrackerSpec.h">
<polygon fill="none" stroke="black" points="951,-106.5 951,-169.5 1103,-169.5 1103,-106.5 951,-106.5"/>
<text text-anchor="start" x="959" y="-157.5" font-family="Helvetica,sans-Serif" font-size="10.00">/home/travis/build</text>
<text text-anchor="start" x="959" y="-146.5" font-family="Helvetica,sans-Serif" font-size="10.00">/AliceO2Group/AliceO2</text>
<text text-anchor="start" x="959" y="-135.5" font-family="Helvetica,sans-Serif" font-size="10.00">/Detectors/ITSMFT/ITS</text>
<text text-anchor="start" x="959" y="-124.5" font-family="Helvetica,sans-Serif" font-size="10.00">/workflow/include/ITSWorkflow</text>
<text text-anchor="middle" x="1027" y="-113.5" font-family="Helvetica,sans-Serif" font-size="10.00">/CookedTrackerSpec.h</text>
</a>
</g>
</g>
<!-- Node12&#45;&gt;Node17 -->
<g id="edge16" class="edge"><title>Node12&#45;&gt;Node17</title>
<path fill="none" stroke="midnightblue" d="M1018.48,-202.268C1019.94,-191.458 1021.49,-179.964 1022.86,-169.781"/>
<polygon fill="midnightblue" stroke="midnightblue" points="1014.99,-201.981 1017.12,-212.359 1021.93,-202.915 1014.99,-201.981"/>
</g>
<!-- Node14 -->
<g id="node14" class="node"><title>Node14</title>
<g id="a_node14"><a xlink:href="../../d5/da2/CookedTrackerTask_8cxx.html" target="_top" xlink:title="Implementation of the ITS &quot;Cooked Matrix&quot; tracker task. ">
<polygon fill="none" stroke="black" points="467.5,-0.5 467.5,-63.5 634.5,-63.5 634.5,-0.5 467.5,-0.5"/>
<text text-anchor="start" x="475.5" y="-51.5" font-family="Helvetica,sans-Serif" font-size="10.00">/home/travis/build</text>
<text text-anchor="start" x="475.5" y="-40.5" font-family="Helvetica,sans-Serif" font-size="10.00">/AliceO2Group/AliceO2</text>
<text text-anchor="start" x="475.5" y="-29.5" font-family="Helvetica,sans-Serif" font-size="10.00">/Detectors/ITSMFT/ITS</text>
<text text-anchor="start" x="475.5" y="-18.5" font-family="Helvetica,sans-Serif" font-size="10.00">/reconstruction/src/CookedTracker</text>
<text text-anchor="middle" x="551" y="-7.5" font-family="Helvetica,sans-Serif" font-size="10.00">Task.cxx</text>
</a>
</g>
</g>
<!-- Node13&#45;&gt;Node14 -->
<g id="edge13" class="edge"><title>Node13&#45;&gt;Node14</title>
<path fill="none" stroke="midnightblue" d="M604.449,-93.421C595.653,-83.4773 586.483,-73.1115 578.273,-63.8307"/>
<polygon fill="midnightblue" stroke="midnightblue" points="601.834,-95.7467 611.081,-100.918 607.077,-91.1087 601.834,-95.7467"/>
</g>
<!-- Node15 -->
<g id="node15" class="node"><title>Node15</title>
<g id="a_node15"><a xlink:href="../../dd/d4e/run__trac__its_8C.html" target="_top" xlink:title="/home/travis/build\l/AliceO2Group/AliceO2\l/macro/run_trac_its.C">
<polygon fill="none" stroke="black" points="653,-11.5 653,-52.5 771,-52.5 771,-11.5 653,-11.5"/>
<text text-anchor="start" x="661" y="-40.5" font-family="Helvetica,sans-Serif" font-size="10.00">/home/travis/build</text>
<text text-anchor="start" x="661" y="-29.5" font-family="Helvetica,sans-Serif" font-size="10.00">/AliceO2Group/AliceO2</text>
<text text-anchor="middle" x="712" y="-18.5" font-family="Helvetica,sans-Serif" font-size="10.00">/macro/run_trac_its.C</text>
</a>
</g>
</g>
<!-- Node13&#45;&gt;Node15 -->
<g id="edge14" class="edge"><title>Node13&#45;&gt;Node15</title>
<path fill="none" stroke="midnightblue" d="M672.588,-92.403C681.799,-78.5204 691.486,-63.919 698.952,-52.6667"/>
<polygon fill="midnightblue" stroke="midnightblue" points="669.551,-90.6499 666.939,-100.918 675.384,-94.5199 669.551,-90.6499"/>
</g>
<!-- Node17&#45;&gt;Node18 -->
<g id="edge17" class="edge"><title>Node17&#45;&gt;Node18</title>
<path fill="none" stroke="midnightblue" d="M1065.02,-98.9753C1078.62,-85.3828 1093.59,-70.4142 1105.82,-58.1755"/>
<polygon fill="midnightblue" stroke="midnightblue" points="1062.24,-96.8131 1057.64,-106.359 1067.19,-101.763 1062.24,-96.8131"/>
</g>
<!-- Node19 -->
<g id="node19" class="node"><title>Node19</title>
<g id="a_node19"><a xlink:href="../../d5/d99/ITSMFT_2ITS_2workflow_2src_2RecoWorkflow_8cxx.html" target="_top" xlink:title="/home/travis/build\l/AliceO2Group/AliceO2\l/Detectors/ITSMFT/ITS\l/workflow/src/RecoWorkflow.cxx">
<polygon fill="none" stroke="black" points="858.5,-6 858.5,-58 1019.5,-58 1019.5,-6 858.5,-6"/>
<text text-anchor="start" x="866.5" y="-46" font-family="Helvetica,sans-Serif" font-size="10.00">/home/travis/build</text>
<text text-anchor="start" x="866.5" y="-35" font-family="Helvetica,sans-Serif" font-size="10.00">/AliceO2Group/AliceO2</text>
<text text-anchor="start" x="866.5" y="-24" font-family="Helvetica,sans-Serif" font-size="10.00">/Detectors/ITSMFT/ITS</text>
<text text-anchor="middle" x="939" y="-13" font-family="Helvetica,sans-Serif" font-size="10.00">/workflow/src/RecoWorkflow.cxx</text>
</a>
</g>
</g>
<!-- Node17&#45;&gt;Node19 -->
<g id="edge18" class="edge"><title>Node17&#45;&gt;Node19</title>
<path fill="none" stroke="midnightblue" d="M994.505,-98.5974C983.09,-85.1058 970.562,-70.3008 960.302,-58.1755"/>
<polygon fill="midnightblue" stroke="midnightblue" points="991.942,-100.986 1001.07,-106.359 997.285,-96.4644 991.942,-100.986"/>
</g>
<!-- Node21 -->
<g id="node21" class="node"><title>Node21</title>
<g id="a_node21"><a xlink:href="../../d7/dd9/ITSMFT_2ITS_2tracking_2src_2Tracker_8cxx.html" target="_top" xlink:title="/home/travis/build\l/AliceO2Group/AliceO2\l/Detectors/ITSMFT/ITS\l/tracking/src/Tracker.cxx">
<polygon fill="none" stroke="black" points="1329.5,-112 1329.5,-164 1454.5,-164 1454.5,-112 1329.5,-112"/>
<text text-anchor="start" x="1337.5" y="-152" font-family="Helvetica,sans-Serif" font-size="10.00">/home/travis/build</text>
<text text-anchor="start" x="1337.5" y="-141" font-family="Helvetica,sans-Serif" font-size="10.00">/AliceO2Group/AliceO2</text>
<text text-anchor="start" x="1337.5" y="-130" font-family="Helvetica,sans-Serif" font-size="10.00">/Detectors/ITSMFT/ITS</text>
<text text-anchor="middle" x="1392" y="-119" font-family="Helvetica,sans-Serif" font-size="10.00">/tracking/src/Tracker.cxx</text>
</a>
</g>
</g>
<!-- Node20&#45;&gt;Node21 -->
<g id="edge20" class="edge"><title>Node20&#45;&gt;Node21</title>
<path fill="none" stroke="midnightblue" d="M1364.27,-203.079C1369.93,-190.003 1376.06,-175.848 1381.11,-164.175"/>
<polygon fill="midnightblue" stroke="midnightblue" points="1361.02,-201.791 1360.26,-212.359 1367.44,-204.571 1361.02,-201.791"/>
</g>
<!-- Node20&#45;&gt;Node22 -->
<g id="edge21" class="edge"><title>Node20&#45;&gt;Node22</title>
<path fill="none" stroke="midnightblue" d="M1306.46,-205.353C1291.71,-191.66 1275.41,-176.527 1262.11,-164.175"/>
<polygon fill="midnightblue" stroke="midnightblue" points="1304.29,-208.119 1314,-212.359 1309.06,-202.99 1304.29,-208.119"/>
</g>
<!-- Node23 -->
<g id="node23" class="node"><title>Node23</title>
<g id="a_node23"><a xlink:href="../../dc/d97/run__rec__ca_8C.html" target="_top" xlink:title="/home/travis/build\l/AliceO2Group/AliceO2\l/macro/run_rec_ca.C">
<polygon fill="none" stroke="black" points="1473,-117.5 1473,-158.5 1591,-158.5 1591,-117.5 1473,-117.5"/>
<text text-anchor="start" x="1481" y="-146.5" font-family="Helvetica,sans-Serif" font-size="10.00">/home/travis/build</text>
<text text-anchor="start" x="1481" y="-135.5" font-family="Helvetica,sans-Serif" font-size="10.00">/AliceO2Group/AliceO2</text>
<text text-anchor="middle" x="1532" y="-124.5" font-family="Helvetica,sans-Serif" font-size="10.00">/macro/run_rec_ca.C</text>
</a>
</g>
</g>
<!-- Node20&#45;&gt;Node23 -->
<g id="edge22" class="edge"><title>Node20&#45;&gt;Node23</title>
<path fill="none" stroke="midnightblue" d="M1410.36,-207.379C1439.4,-191.057 1472.7,-172.337 1497.11,-158.615"/>
<polygon fill="midnightblue" stroke="midnightblue" points="1408.51,-204.408 1401.51,-212.359 1411.94,-210.51 1408.51,-204.408"/>
</g>
<!-- Node24 -->
<g id="node24" class="node"><title>Node24</title>
<g id="a_node24"><a xlink:href="../../d6/db2/run__trac__ca__its_8C.html" target="_top" xlink:title="/home/travis/build\l/AliceO2Group/AliceO2\l/macro/run_trac_ca_its.C">
<polygon fill="none" stroke="black" points="1609.5,-117.5 1609.5,-158.5 1736.5,-158.5 1736.5,-117.5 1609.5,-117.5"/>
<text text-anchor="start" x="1617.5" y="-146.5" font-family="Helvetica,sans-Serif" font-size="10.00">/home/travis/build</text>
<text text-anchor="start" x="1617.5" y="-135.5" font-family="Helvetica,sans-Serif" font-size="10.00">/AliceO2Group/AliceO2</text>
<text text-anchor="middle" x="1673" y="-124.5" font-family="Helvetica,sans-Serif" font-size="10.00">/macro/run_trac_ca_its.C</text>
</a>
</g>
</g>
<!-- Node20&#45;&gt;Node24 -->
<g id="edge23" class="edge"><title>Node20&#45;&gt;Node24</title>
<path fill="none" stroke="midnightblue" d="M1427.51,-212.059C1504.23,-190.634 1528.78,-200.964 1600,-176 1613.14,-171.394 1626.92,-164.892 1638.92,-158.621"/>
<polygon fill="midnightblue" stroke="midnightblue" points="1426.53,-208.699 1417.89,-214.833 1428.47,-215.425 1426.53,-208.699"/>
</g>
</g>
</svg>
