<?xml version="1.0" encoding="UTF-8" standalone="no"?>
<!DOCTYPE svg PUBLIC "-//W3C//DTD SVG 1.1//EN"
 "http://www.w3.org/Graphics/SVG/1.1/DTD/svg11.dtd">
<!-- Generated by graphviz version 2.36.0 (20140111.2315)
 -->
<!-- Title: /home/travis/build/AliceO2Group/AliceO2/Detectors/TPC/base/include/TPCBase/CalDet.h Pages: 1 -->
<!--zoomable 646 -->
<svg id="main" version="1.1" xmlns="http://www.w3.org/2000/svg" xmlns:xlink="http://www.w3.org/1999/xlink" xml:space="preserve" onload="init(evt)">
<style type="text/css"><![CDATA[
.edge:hover path { stroke: red; }
.edge:hover polygon { stroke: red; fill: red; }
]]></style>
<script type="text/javascript"><![CDATA[
var edges = document.getElementsByTagName('g');
if (edges && edges.length) {
  for (var i=0;i<edges.length;i++) {
    if (edges[i].id.substr(0,4)=='edge') {
      edges[i].setAttribute('class','edge');
    }
  }
}
]]></script>
        <defs>
                <circle id="rim" cx="0" cy="0" r="7"/>
                <circle id="rim2" cx="0" cy="0" r="3.5"/>
                <g id="zoomPlus">
                        <use xlink:href="#rim" fill="#404040">
                                <set attributeName="fill" to="#808080" begin="zoomplus.mouseover" end="zoomplus.mouseout"/>
                        </use>
                        <path d="M-4,0h8M0,-4v8" fill="none" stroke="white" stroke-width="1.5" pointer-events="none"/>
                </g>
                <g id="zoomMin">
                        <use xlink:href="#rim" fill="#404040">
                                <set attributeName="fill" to="#808080" begin="zoomminus.mouseover" end="zoomminus.mouseout"/>
                        </use>
                        <path d="M-4,0h8" fill="none" stroke="white" stroke-width="1.5" pointer-events="none"/>
                </g>
                <g id="dirArrow">
                        <path fill="none" stroke="white" stroke-width="1.5" d="M0,-3.0v7 M-2.5,-0.5L0,-3.0L2.5,-0.5"/>
                </g>
               <g id="resetDef">
                       <use xlink:href="#rim2" fill="#404040">
                               <set attributeName="fill" to="#808080" begin="reset.mouseover" end="reset.mouseout"/>
                       </use>
               </g>
        </defs>

<script type="text/javascript">
var viewWidth = 1621;
var viewHeight = 646;
var sectionId = 'dynsection-0';
</script>
<script xlink:href="../../svgpan.js"/>
<svg id="graph" class="graph">
<g id="viewport">
<title>/home/travis/build/AliceO2Group/AliceO2/Detectors/TPC/base/include/TPCBase/CalDet.h</title>
<!-- Node1 -->
<g id="node1" class="node"><title>Node1</title>
<polygon fill="#bfbfbf" stroke="black" points="909.5,-585 909.5,-637 1052.5,-637 1052.5,-585 909.5,-585"/>
<text text-anchor="start" x="917.5" y="-625" font-family="Helvetica,sans-Serif" font-size="10.00">/home/travis/build</text>
<text text-anchor="start" x="917.5" y="-614" font-family="Helvetica,sans-Serif" font-size="10.00">/AliceO2Group/AliceO2</text>
<text text-anchor="start" x="917.5" y="-603" font-family="Helvetica,sans-Serif" font-size="10.00">/Detectors/TPC/base/include</text>
<text text-anchor="middle" x="981" y="-592" font-family="Helvetica,sans-Serif" font-size="10.00">/TPCBase/CalDet.h</text>
</g>
<!-- Node2 -->
<g id="node2" class="node"><title>Node2</title>
<polygon fill="none" stroke="#bfbfbf" points="773,-472.5 773,-491.5 825,-491.5 825,-472.5 773,-472.5"/>
<text text-anchor="middle" x="799" y="-479.5" font-family="Helvetica,sans-Serif" font-size="10.00">memory</text>
</g>
<!-- Node1&#45;&gt;Node2 -->
<g id="edge1" class="edge"><title>Node1&#45;&gt;Node2</title>
<path fill="none" stroke="midnightblue" d="M945.043,-584.909C907.677,-558.835 850.48,-518.923 819.936,-497.609"/>
<polygon fill="midnightblue" stroke="midnightblue" points="821.568,-494.48 811.364,-491.628 817.562,-500.221 821.568,-494.48"/>
</g>
<!-- Node3 -->
<g id="node3" class="node"><title>Node3</title>
<polygon fill="none" stroke="#bfbfbf" points="1318,-360.5 1318,-379.5 1362,-379.5 1362,-360.5 1318,-360.5"/>
<text text-anchor="middle" x="1340" y="-367.5" font-family="Helvetica,sans-Serif" font-size="10.00">vector</text>
</g>
<!-- Node1&#45;&gt;Node3 -->
<g id="edge2" class="edge"><title>Node1&#45;&gt;Node3</title>
<path fill="none" stroke="midnightblue" d="M1052.86,-598.664C1154.75,-580.953 1333.07,-543.354 1371,-492 1394.3,-460.446 1369.2,-413.071 1352.46,-387.987"/>
<polygon fill="midnightblue" stroke="midnightblue" points="1355.16,-385.745 1346.57,-379.544 1349.42,-389.749 1355.16,-385.745"/>
</g>
<!-- Node4 -->
<g id="node4" class="node"><title>Node4</title>
<polygon fill="none" stroke="#bfbfbf" points="448.5,-416.5 448.5,-435.5 489.5,-435.5 489.5,-416.5 448.5,-416.5"/>
<text text-anchor="middle" x="469" y="-423.5" font-family="Helvetica,sans-Serif" font-size="10.00">string</text>
</g>
<!-- Node1&#45;&gt;Node4 -->
<g id="edge3" class="edge"><title>Node1&#45;&gt;Node4</title>
<path fill="none" stroke="midnightblue" d="M910.882,-584.938C797.684,-544.479 579.281,-466.417 499.3,-437.83"/>
<polygon fill="midnightblue" stroke="midnightblue" points="500.411,-434.51 489.816,-434.44 498.055,-441.102 500.411,-434.51"/>
</g>
<!-- Node5 -->
<g id="node5" class="node"><title>Node5</title>
<polygon fill="none" stroke="#bfbfbf" points="1183,-472.5 1183,-491.5 1273,-491.5 1273,-472.5 1183,-472.5"/>
<text text-anchor="middle" x="1228" y="-479.5" font-family="Helvetica,sans-Serif" font-size="10.00">boost/format.hpp</text>
</g>
<!-- Node1&#45;&gt;Node5 -->
<g id="edge4" class="edge"><title>Node1&#45;&gt;Node5</title>
<path fill="none" stroke="midnightblue" d="M1029.8,-584.909C1081.6,-558.273 1161.49,-517.196 1202.22,-496.258"/>
<polygon fill="midnightblue" stroke="midnightblue" points="1203.93,-499.313 1211.22,-491.628 1200.73,-493.088 1203.93,-499.313"/>
</g>
<!-- Node6 -->
<g id="node6" class="node"><title>Node6</title>
<polygon fill="none" stroke="#bfbfbf" points="1419,-528.5 1419,-547.5 1545,-547.5 1545,-528.5 1419,-528.5"/>
<text text-anchor="middle" x="1482" y="-535.5" font-family="Helvetica,sans-Serif" font-size="10.00">boost/range/combine.hpp</text>
</g>
<!-- Node1&#45;&gt;Node6 -->
<g id="edge5" class="edge"><title>Node1&#45;&gt;Node6</title>
<path fill="none" stroke="midnightblue" d="M1052.51,-599.865C1148.12,-586.317 1316.53,-562.45 1411.58,-548.98"/>
<polygon fill="midnightblue" stroke="midnightblue" points="1412.26,-552.419 1421.67,-547.55 1411.27,-545.488 1412.26,-552.419"/>
</g>
<!-- Node7 -->
<g id="node7" class="node"><title>Node7</title>
<polygon fill="none" stroke="#bfbfbf" points="1563.5,-528.5 1563.5,-547.5 1612.5,-547.5 1612.5,-528.5 1563.5,-528.5"/>
<text text-anchor="middle" x="1588" y="-535.5" font-family="Helvetica,sans-Serif" font-size="10.00">cassert</text>
</g>
<!-- Node1&#45;&gt;Node7 -->
<g id="edge6" class="edge"><title>Node1&#45;&gt;Node7</title>
<path fill="none" stroke="midnightblue" d="M1052.52,-605.743C1159.54,-598.605 1367.71,-581.75 1553.28,-547.859"/>
<polygon fill="midnightblue" stroke="midnightblue" points="1554.02,-551.281 1563.22,-546.023 1552.75,-544.398 1554.02,-551.281"/>
</g>
<!-- Node8 -->
<g id="node8" class="node"><title>Node8</title>
<polygon fill="none" stroke="#bfbfbf" points="1291.5,-472.5 1291.5,-491.5 1362.5,-491.5 1362.5,-472.5 1291.5,-472.5"/>
<text text-anchor="middle" x="1327" y="-479.5" font-family="Helvetica,sans-Serif" font-size="10.00">FairLogger.h</text>
</g>
<!-- Node1&#45;&gt;Node8 -->
<g id="edge7" class="edge"><title>Node1&#45;&gt;Node8</title>
<path fill="none" stroke="midnightblue" d="M1049.36,-584.909C1123.3,-557.768 1238.1,-515.631 1294.07,-495.087"/>
<polygon fill="midnightblue" stroke="midnightblue" points="1295.31,-498.359 1303.49,-491.628 1292.9,-491.788 1295.31,-498.359"/>
</g>
<!-- Node9 -->
<g id="node9" class="node"><title>Node9</title>
<g id="a_node9"><a xlink:href="../../d1/d73/Defs_8h.html" target="_top" xlink:title="Common definitions for 2D coordinates. ">
<polygon fill="none" stroke="black" points="685,-192.5 685,-211.5 811,-211.5 811,-192.5 685,-192.5"/>
<text text-anchor="middle" x="748" y="-199.5" font-family="Helvetica,sans-Serif" font-size="10.00">DataFormatsTPC/Defs.h</text>
</a>
</g>
</g>
<!-- Node1&#45;&gt;Node9 -->
<g id="edge8" class="edge"><title>Node1&#45;&gt;Node9</title>
<path fill="none" stroke="midnightblue" d="M909.474,-610.639C743.067,-610.203 344,-597.247 344,-483 344,-483 344,-483 344,-313 344,-245.26 558.13,-217.85 674.604,-207.952"/>
<polygon fill="midnightblue" stroke="midnightblue" points="675.197,-211.415 684.875,-207.103 674.621,-204.439 675.197,-211.415"/>
</g>
<!-- Node23 -->
<g id="node23" class="node"><title>Node23</title>
<g id="a_node23"><a xlink:href="../../d7/d2c/Mapper_8h.html" target="_top" xlink:title="TPCBase/Mapper.h">
<polygon fill="none" stroke="black" points="881.5,-472.5 881.5,-491.5 984.5,-491.5 984.5,-472.5 881.5,-472.5"/>
<text text-anchor="middle" x="933" y="-479.5" font-family="Helvetica,sans-Serif" font-size="10.00">TPCBase/Mapper.h</text>
</a>
</g>
</g>
<!-- Node1&#45;&gt;Node23 -->
<g id="edge23" class="edge"><title>Node1&#45;&gt;Node23</title>
<path fill="none" stroke="midnightblue" d="M971.517,-584.909C962.172,-560.184 948.124,-523.015 939.826,-501.061"/>
<polygon fill="midnightblue" stroke="midnightblue" points="943.07,-499.745 936.261,-491.628 936.522,-502.219 943.07,-499.745"/>
</g>
<!-- Node28 -->
<g id="node28" class="node"><title>Node28</title>
<g id="a_node28"><a xlink:href="../../d3/dd6/Sector_8h.html" target="_top" xlink:title="TPCBase/Sector.h">
<polygon fill="none" stroke="black" points="491.5,-248.5 491.5,-267.5 590.5,-267.5 590.5,-248.5 491.5,-248.5"/>
<text text-anchor="middle" x="541" y="-255.5" font-family="Helvetica,sans-Serif" font-size="10.00">TPCBase/Sector.h</text>
</a>
</g>
</g>
<!-- Node1&#45;&gt;Node28 -->
<g id="edge59" class="edge"><title>Node1&#45;&gt;Node28</title>
<path fill="none" stroke="midnightblue" d="M909.342,-609.717C750.348,-607.155 382,-589.703 382,-483 382,-483 382,-483 382,-369 382,-314.316 446.391,-284.684 493.219,-270.365"/>
<polygon fill="midnightblue" stroke="midnightblue" points="494.295,-273.697 502.916,-267.538 492.336,-266.977 494.295,-273.697"/>
</g>
<!-- Node31 -->
<g id="node31" class="node"><title>Node31</title>
<g id="a_node31"><a xlink:href="../../dc/d14/ROC_8h.html" target="_top" xlink:title="TPCBase/ROC.h">
<polygon fill="none" stroke="black" points="588.5,-304.5 588.5,-323.5 681.5,-323.5 681.5,-304.5 588.5,-304.5"/>
<text text-anchor="middle" x="635" y="-311.5" font-family="Helvetica,sans-Serif" font-size="10.00">TPCBase/ROC.h</text>
</a>
</g>
</g>
<!-- Node1&#45;&gt;Node31 -->
<g id="edge58" class="edge"><title>Node1&#45;&gt;Node31</title>
<path fill="none" stroke="midnightblue" d="M909.379,-608.675C758.141,-603.934 420,-582.236 420,-483 420,-483 420,-483 420,-425 420,-353.76 514.71,-328.629 578.41,-319.783"/>
<polygon fill="midnightblue" stroke="midnightblue" points="578.879,-323.252 588.348,-318.499 577.982,-316.31 578.879,-323.252"/>
</g>
<!-- Node37 -->
<g id="node37" class="node"><title>Node37</title>
<g id="a_node37"><a xlink:href="../../db/d9b/CalArray_8h.html" target="_top" xlink:title="TPCBase/CalArray.h">
<polygon fill="none" stroke="black" points="970.5,-528.5 970.5,-547.5 1079.5,-547.5 1079.5,-528.5 970.5,-528.5"/>
<text text-anchor="middle" x="1025" y="-535.5" font-family="Helvetica,sans-Serif" font-size="10.00">TPCBase/CalArray.h</text>
</a>
</g>
</g>
<!-- Node1&#45;&gt;Node37 -->
<g id="edge60" class="edge"><title>Node1&#45;&gt;Node37</title>
<path fill="none" stroke="midnightblue" d="M996.637,-584.768C1002.45,-575.385 1008.92,-564.955 1014.2,-556.425"/>
<polygon fill="midnightblue" stroke="midnightblue" points="1017.28,-558.101 1019.57,-547.757 1011.33,-554.414 1017.28,-558.101"/>
</g>
<!-- Node10 -->
<g id="node10" class="node"><title>Node10</title>
<polygon fill="none" stroke="#bfbfbf" points="1034,-136.5 1034,-155.5 1078,-155.5 1078,-136.5 1034,-136.5"/>
<text text-anchor="middle" x="1056" y="-143.5" font-family="Helvetica,sans-Serif" font-size="10.00">cmath</text>
</g>
<!-- Node9&#45;&gt;Node10 -->
<g id="edge9" class="edge"><title>Node9&#45;&gt;Node10</title>
<path fill="none" stroke="midnightblue" d="M796.804,-192.444C860.413,-181.291 969.888,-162.098 1023.92,-152.624"/>
<polygon fill="midnightblue" stroke="midnightblue" points="1024.71,-156.039 1033.96,-150.865 1023.5,-149.144 1024.71,-156.039"/>
</g>
<!-- Node11 -->
<g id="node11" class="node"><title>Node11</title>
<g id="a_node11"><a xlink:href="../../d2/dd0/Cartesian2D_8h.html" target="_top" xlink:title="MathUtils/Cartesian2D.h">
<polygon fill="none" stroke="black" points="103.5,-74.5 103.5,-93.5 228.5,-93.5 228.5,-74.5 103.5,-74.5"/>
<text text-anchor="middle" x="166" y="-81.5" font-family="Helvetica,sans-Serif" font-size="10.00">MathUtils/Cartesian2D.h</text>
</a>
</g>
</g>
<!-- Node9&#45;&gt;Node11 -->
<g id="edge10" class="edge"><title>Node9&#45;&gt;Node11</title>
<path fill="none" stroke="midnightblue" d="M703.874,-192.48C615.296,-175.332 409.546,-135.277 237,-100 230.2,-98.6097 223.038,-97.123 215.985,-95.646"/>
<polygon fill="midnightblue" stroke="midnightblue" points="216.292,-92.1339 205.785,-93.501 214.851,-98.984 216.292,-92.1339"/>
</g>
<!-- Node14 -->
<g id="node14" class="node"><title>Node14</title>
<g id="a_node14"><a xlink:href="../../dd/d76/Cartesian3D_8h.html" target="_top" xlink:title="MathUtils/Cartesian3D.h">
<polygon fill="none" stroke="black" points="708.5,-136.5 708.5,-155.5 833.5,-155.5 833.5,-136.5 708.5,-136.5"/>
<text text-anchor="middle" x="771" y="-143.5" font-family="Helvetica,sans-Serif" font-size="10.00">MathUtils/Cartesian3D.h</text>
</a>
</g>
</g>
<!-- Node9&#45;&gt;Node14 -->
<g id="edge13" class="edge"><title>Node9&#45;&gt;Node14</title>
<path fill="none" stroke="midnightblue" d="M751.798,-192.083C754.913,-184.77 759.423,-174.181 763.289,-165.103"/>
<polygon fill="midnightblue" stroke="midnightblue" points="766.574,-166.323 767.273,-155.751 760.134,-163.58 766.574,-166.323"/>
</g>
<!-- Node12 -->
<g id="node12" class="node"><title>Node12</title>
<polygon fill="none" stroke="#bfbfbf" points="-0.5,-1 -0.5,-31 150.5,-31 150.5,-1 -0.5,-1"/>
<text text-anchor="start" x="7.5" y="-19" font-family="Helvetica,sans-Serif" font-size="10.00">Math/GenVector/Displacement</text>
<text text-anchor="middle" x="75" y="-8" font-family="Helvetica,sans-Serif" font-size="10.00">Vector2D.h</text>
</g>
<!-- Node11&#45;&gt;Node12 -->
<g id="edge11" class="edge"><title>Node11&#45;&gt;Node12</title>
<path fill="none" stroke="midnightblue" d="M154.103,-74.3717C141.221,-65.0286 120.22,-49.7966 103.093,-37.375"/>
<polygon fill="midnightblue" stroke="midnightblue" points="104.703,-34.2194 94.5532,-31.1815 100.593,-39.8859 104.703,-34.2194"/>
</g>
<!-- Node13 -->
<g id="node13" class="node"><title>Node13</title>
<polygon fill="none" stroke="#bfbfbf" points="169,-6.5 169,-25.5 345,-25.5 345,-6.5 169,-6.5"/>
<text text-anchor="middle" x="257" y="-13.5" font-family="Helvetica,sans-Serif" font-size="10.00">Math/GenVector/PositionVector2D.h</text>
</g>
<!-- Node11&#45;&gt;Node13 -->
<g id="edge12" class="edge"><title>Node11&#45;&gt;Node13</title>
<path fill="none" stroke="midnightblue" d="M177.897,-74.3717C192.884,-63.5015 218.862,-44.6602 236.942,-31.5474"/>
<polygon fill="midnightblue" stroke="midnightblue" points="239.06,-34.3349 245.1,-25.6305 234.95,-28.6684 239.06,-34.3349"/>
</g>
<!-- Node14&#45;&gt;Node11 -->
<g id="edge22" class="edge"><title>Node14&#45;&gt;Node11</title>
<path fill="none" stroke="midnightblue" d="M708.23,-142.239C608.132,-137.269 406.363,-124.928 237,-100 228.848,-98.8001 220.226,-97.2341 211.908,-95.5676"/>
<polygon fill="midnightblue" stroke="midnightblue" points="212.466,-92.1089 201.963,-93.5026 211.043,-98.9627 212.466,-92.1089"/>
</g>
<!-- Node15 -->
<g id="node15" class="node"><title>Node15</title>
<polygon fill="none" stroke="#bfbfbf" points="934.5,-69 934.5,-99 1085.5,-99 1085.5,-69 934.5,-69"/>
<text text-anchor="start" x="942.5" y="-87" font-family="Helvetica,sans-Serif" font-size="10.00">Math/GenVector/Displacement</text>
<text text-anchor="middle" x="1010" y="-76" font-family="Helvetica,sans-Serif" font-size="10.00">Vector3D.h</text>
</g>
<!-- Node14&#45;&gt;Node15 -->
<g id="edge14" class="edge"><title>Node14&#45;&gt;Node15</title>
<path fill="none" stroke="midnightblue" d="M804.989,-136.467C841.128,-127.395 899.179,-112.821 944.299,-101.494"/>
<polygon fill="midnightblue" stroke="midnightblue" points="945.161,-104.886 954.008,-99.0565 943.457,-98.0968 945.161,-104.886"/>
</g>
<!-- Node16 -->
<g id="node16" class="node"><title>Node16</title>
<polygon fill="none" stroke="#bfbfbf" points="1104,-74.5 1104,-93.5 1280,-93.5 1280,-74.5 1104,-74.5"/>
<text text-anchor="middle" x="1192" y="-81.5" font-family="Helvetica,sans-Serif" font-size="10.00">Math/GenVector/PositionVector3D.h</text>
</g>
<!-- Node14&#45;&gt;Node16 -->
<g id="edge15" class="edge"><title>Node14&#45;&gt;Node16</title>
<path fill="none" stroke="midnightblue" d="M833.56,-136.538C898.654,-127.674 1003.52,-113.226 1094,-100 1104.76,-98.4274 1116.17,-96.7177 1127.27,-95.0343"/>
<polygon fill="midnightblue" stroke="midnightblue" points="1127.98,-98.4665 1137.33,-93.5003 1126.92,-91.5464 1127.98,-98.4665"/>
</g>
<!-- Node17 -->
<g id="node17" class="node"><title>Node17</title>
<polygon fill="none" stroke="#bfbfbf" points="246.5,-74.5 246.5,-93.5 395.5,-93.5 395.5,-74.5 246.5,-74.5"/>
<text text-anchor="middle" x="321" y="-81.5" font-family="Helvetica,sans-Serif" font-size="10.00">Math/GenVector/Rotation3D.h</text>
</g>
<!-- Node14&#45;&gt;Node17 -->
<g id="edge16" class="edge"><title>Node14&#45;&gt;Node17</title>
<path fill="none" stroke="midnightblue" d="M708.364,-138.347C635.371,-130.352 511.196,-115.998 405,-100 395.65,-98.5914 385.741,-96.9528 376.132,-95.2864"/>
<polygon fill="midnightblue" stroke="midnightblue" points="376.719,-91.836 366.264,-93.5482 375.505,-98.7299 376.719,-91.836"/>
</g>
<!-- Node18 -->
<g id="node18" class="node"><title>Node18</title>
<polygon fill="none" stroke="#bfbfbf" points="414,-74.5 414,-93.5 570,-93.5 570,-74.5 414,-74.5"/>
<text text-anchor="middle" x="492" y="-81.5" font-family="Helvetica,sans-Serif" font-size="10.00">Math/GenVector/Transform3D.h</text>
</g>
<!-- Node14&#45;&gt;Node18 -->
<g id="edge17" class="edge"><title>Node14&#45;&gt;Node18</title>
<path fill="none" stroke="midnightblue" d="M731.322,-136.467C681.431,-125.738 595.768,-107.316 541.603,-95.6673"/>
<polygon fill="midnightblue" stroke="midnightblue" points="542.053,-92.1842 531.541,-93.5034 540.581,-99.0277 542.053,-92.1842"/>
</g>
<!-- Node19 -->
<g id="node19" class="node"><title>Node19</title>
<polygon fill="none" stroke="#bfbfbf" points="588,-74.5 588,-93.5 748,-93.5 748,-74.5 588,-74.5"/>
<text text-anchor="middle" x="668" y="-81.5" font-family="Helvetica,sans-Serif" font-size="10.00">Math/GenVector/Translation3D.h</text>
</g>
<!-- Node14&#45;&gt;Node19 -->
<g id="edge18" class="edge"><title>Node14&#45;&gt;Node19</title>
<path fill="none" stroke="midnightblue" d="M756.243,-136.403C739.339,-126.557 711.417,-110.291 691.51,-98.6949"/>
<polygon fill="midnightblue" stroke="midnightblue" points="693.133,-95.5898 682.73,-93.5806 689.609,-101.638 693.133,-95.5898"/>
</g>
<!-- Node20 -->
<g id="node20" class="node"><title>Node20</title>
<polygon fill="none" stroke="#bfbfbf" points="766,-74.5 766,-93.5 822,-93.5 822,-74.5 766,-74.5"/>
<text text-anchor="middle" x="794" y="-81.5" font-family="Helvetica,sans-Serif" font-size="10.00">Rtypes.h</text>
</g>
<!-- Node14&#45;&gt;Node20 -->
<g id="edge19" class="edge"><title>Node14&#45;&gt;Node20</title>
<path fill="none" stroke="midnightblue" d="M774.295,-136.403C777.609,-127.76 782.818,-114.17 787.049,-103.134"/>
<polygon fill="midnightblue" stroke="midnightblue" points="790.399,-104.171 790.711,-93.5806 783.863,-101.665 790.399,-104.171"/>
</g>
<!-- Node21 -->
<g id="node21" class="node"><title>Node21</title>
<polygon fill="none" stroke="#bfbfbf" points="840,-74.5 840,-93.5 916,-93.5 916,-74.5 840,-74.5"/>
<text text-anchor="middle" x="878" y="-81.5" font-family="Helvetica,sans-Serif" font-size="10.00">TGeoMatrix.h</text>
</g>
<!-- Node14&#45;&gt;Node21 -->
<g id="edge20" class="edge"><title>Node14&#45;&gt;Node21</title>
<path fill="none" stroke="midnightblue" d="M786.33,-136.403C803.97,-126.512 833.16,-110.144 853.858,-98.5378"/>
<polygon fill="midnightblue" stroke="midnightblue" points="855.688,-101.524 862.698,-93.5806 852.264,-95.4188 855.688,-101.524"/>
</g>
<!-- Node22 -->
<g id="node22" class="node"><title>Node22</title>
<polygon fill="none" stroke="#bfbfbf" points="1298.5,-74.5 1298.5,-93.5 1343.5,-93.5 1343.5,-74.5 1298.5,-74.5"/>
<text text-anchor="middle" x="1321" y="-81.5" font-family="Helvetica,sans-Serif" font-size="10.00">iosfwd</text>
</g>
<!-- Node14&#45;&gt;Node22 -->
<g id="edge21" class="edge"><title>Node14&#45;&gt;Node22</title>
<path fill="none" stroke="midnightblue" d="M833.783,-142.199C952.11,-136.48 1203.8,-122.105 1288,-100 1290.5,-99.3428 1293.05,-98.5097 1295.57,-97.5741"/>
<polygon fill="midnightblue" stroke="midnightblue" points="1297.1,-100.727 1304.95,-93.6135 1294.38,-94.2782 1297.1,-100.727"/>
</g>
<!-- Node23&#45;&gt;Node3 -->
<g id="edge25" class="edge"><title>Node23&#45;&gt;Node3</title>
<path fill="none" stroke="midnightblue" d="M984.571,-473.295C987.761,-472.849 990.923,-472.413 994,-472 1059.89,-463.147 1233.4,-469.192 1291,-436 1309.88,-425.119 1323.8,-403.759 1331.88,-388.494"/>
<polygon fill="midnightblue" stroke="midnightblue" points="1335.02,-390.028 1336.34,-379.515 1328.75,-386.914 1335.02,-390.028"/>
</g>
<!-- Node23&#45;&gt;Node4 -->
<g id="edge27" class="edge"><title>Node23&#45;&gt;Node4</title>
<path fill="none" stroke="midnightblue" d="M881.142,-473.746C876.364,-473.132 871.594,-472.541 867,-472 705.987,-453.044 663.641,-464.27 504,-436 502.533,-435.74 501.036,-435.451 499.529,-435.14"/>
<polygon fill="midnightblue" stroke="midnightblue" points="500.144,-431.69 489.614,-432.858 498.574,-438.512 500.144,-431.69"/>
</g>
<!-- Node23&#45;&gt;Node9 -->
<g id="edge29" class="edge"><title>Node23&#45;&gt;Node9</title>
<path fill="none" stroke="midnightblue" d="M984.53,-473.046C1055.02,-461.965 1173.67,-442.508 1181,-436 1203.61,-415.936 1201,-401.225 1201,-371 1201,-371 1201,-371 1201,-313 1201,-235.877 949.92,-212.619 821.611,-205.769"/>
<polygon fill="midnightblue" stroke="midnightblue" points="821.631,-202.266 811.465,-205.248 821.272,-209.257 821.631,-202.266"/>
</g>
<!-- Node23&#45;&gt;Node10 -->
<g id="edge28" class="edge"><title>Node23&#45;&gt;Node10</title>
<path fill="none" stroke="midnightblue" d="M984.629,-472.973C1061.75,-460.902 1198.55,-439.145 1203,-436 1229.97,-416.945 1239,-404.024 1239,-371 1239,-371 1239,-371 1239,-257 1239,-187.468 1140.75,-160.774 1088.23,-151.472"/>
<polygon fill="midnightblue" stroke="midnightblue" points="1088.51,-147.971 1078.07,-149.789 1087.37,-154.877 1088.51,-147.971"/>
</g>
<!-- Node24 -->
<g id="node24" class="node"><title>Node24</title>
<polygon fill="none" stroke="#bfbfbf" points="939.5,-416.5 939.5,-435.5 974.5,-435.5 974.5,-416.5 939.5,-416.5"/>
<text text-anchor="middle" x="957" y="-423.5" font-family="Helvetica,sans-Serif" font-size="10.00">map</text>
</g>
<!-- Node23&#45;&gt;Node24 -->
<g id="edge24" class="edge"><title>Node23&#45;&gt;Node24</title>
<path fill="none" stroke="midnightblue" d="M936.963,-472.083C940.213,-464.77 944.919,-454.181 948.954,-445.103"/>
<polygon fill="midnightblue" stroke="midnightblue" points="952.248,-446.311 953.111,-435.751 945.851,-443.468 952.248,-446.311"/>
</g>
<!-- Node25 -->
<g id="node25" class="node"><title>Node25</title>
<polygon fill="none" stroke="#bfbfbf" points="993,-416.5 993,-435.5 1031,-435.5 1031,-416.5 993,-416.5"/>
<text text-anchor="middle" x="1012" y="-423.5" font-family="Helvetica,sans-Serif" font-size="10.00">array</text>
</g>
<!-- Node23&#45;&gt;Node25 -->
<g id="edge26" class="edge"><title>Node23&#45;&gt;Node25</title>
<path fill="none" stroke="midnightblue" d="M945.693,-472.324C957.901,-463.979 976.578,-451.212 991.003,-441.352"/>
<polygon fill="midnightblue" stroke="midnightblue" points="993.058,-444.187 999.339,-435.655 989.108,-438.408 993.058,-444.187"/>
</g>
<!-- Node26 -->
<g id="node26" class="node"><title>Node26</title>
<g id="a_node26"><a xlink:href="../../de/d41/PadPos_8h.html" target="_top" xlink:title="TPCBase/PadPos.h">
<polygon fill="none" stroke="black" points="879.5,-304.5 879.5,-323.5 984.5,-323.5 984.5,-304.5 879.5,-304.5"/>
<text text-anchor="middle" x="932" y="-311.5" font-family="Helvetica,sans-Serif" font-size="10.00">TPCBase/PadPos.h</text>
</a>
</g>
</g>
<!-- Node23&#45;&gt;Node26 -->
<g id="edge30" class="edge"><title>Node23&#45;&gt;Node26</title>
<path fill="none" stroke="midnightblue" d="M881.448,-472.933C841.083,-465.44 789.709,-452.894 777,-436 771.656,-428.897 771.461,-422.952 777,-416 821.607,-360.007 889.393,-435.993 934,-380 944.315,-367.052 942.158,-347.613 938.432,-333.366"/>
<polygon fill="midnightblue" stroke="midnightblue" points="941.738,-332.209 935.457,-323.677 935.046,-334.264 941.738,-332.209"/>
</g>
<!-- Node27 -->
<g id="node27" class="node"><title>Node27</title>
<g id="a_node27"><a xlink:href="../../dd/d0b/PadSecPos_8h.html" target="_top" xlink:title="TPCBase/PadSecPos.h">
<polygon fill="none" stroke="black" points="486,-360.5 486,-379.5 608,-379.5 608,-360.5 486,-360.5"/>
<text text-anchor="middle" x="547" y="-367.5" font-family="Helvetica,sans-Serif" font-size="10.00">TPCBase/PadSecPos.h</text>
</a>
</g>
</g>
<!-- Node23&#45;&gt;Node27 -->
<g id="edge31" class="edge"><title>Node23&#45;&gt;Node27</title>
<path fill="none" stroke="midnightblue" d="M881.486,-473.91C876.591,-473.256 871.702,-472.61 867,-472 802.164,-463.583 627.31,-475.221 575,-436 560.429,-425.075 553.344,-405.012 549.962,-390.054"/>
<polygon fill="midnightblue" stroke="midnightblue" points="553.329,-389.024 548.034,-379.847 546.451,-390.323 553.329,-389.024"/>
</g>
<!-- Node23&#45;&gt;Node28 -->
<g id="edge57" class="edge"><title>Node23&#45;&gt;Node28</title>
<path fill="none" stroke="midnightblue" d="M881.491,-473.873C876.594,-473.227 871.704,-472.593 867,-472 728.947,-454.599 685.932,-485.791 556,-436 515.812,-420.6 496.762,-418.232 477,-380 457.307,-341.901 497.185,-297.386 522.431,-274.434"/>
<polygon fill="midnightblue" stroke="midnightblue" points="524.811,-277.002 530.019,-267.776 520.194,-271.741 524.811,-277.002"/>
</g>
<!-- Node30 -->
<g id="node30" class="node"><title>Node30</title>
<g id="a_node30"><a xlink:href="../../da/d61/PadROCPos_8h.html" target="_top" xlink:title="TPCBase/PadROCPos.h">
<polygon fill="none" stroke="black" points="776,-360.5 776,-379.5 904,-379.5 904,-360.5 776,-360.5"/>
<text text-anchor="middle" x="840" y="-367.5" font-family="Helvetica,sans-Serif" font-size="10.00">TPCBase/PadROCPos.h</text>
</a>
</g>
</g>
<!-- Node23&#45;&gt;Node30 -->
<g id="edge36" class="edge"><title>Node23&#45;&gt;Node30</title>
<path fill="none" stroke="midnightblue" d="M883.518,-472.472C830.498,-462.834 752.729,-447.051 744,-436 725.037,-411.992 762.434,-393.579 795.95,-382.58"/>
<polygon fill="midnightblue" stroke="midnightblue" points="797.198,-385.858 805.704,-379.542 795.116,-379.175 797.198,-385.858"/>
</g>
<!-- Node32 -->
<g id="node32" class="node"><title>Node32</title>
<g id="a_node32"><a xlink:href="../../d3/d54/DigitPos_8h.html" target="_top" xlink:title="TPCBase/DigitPos.h">
<polygon fill="none" stroke="black" points="584,-416.5 584,-435.5 692,-435.5 692,-416.5 584,-416.5"/>
<text text-anchor="middle" x="638" y="-423.5" font-family="Helvetica,sans-Serif" font-size="10.00">TPCBase/DigitPos.h</text>
</a>
</g>
</g>
<!-- Node23&#45;&gt;Node32 -->
<g id="edge42" class="edge"><title>Node23&#45;&gt;Node32</title>
<path fill="none" stroke="midnightblue" d="M886.256,-472.444C834.255,-462.925 750.249,-447.547 694.576,-437.356"/>
<polygon fill="midnightblue" stroke="midnightblue" points="694.992,-433.874 684.525,-435.516 693.731,-440.76 694.992,-433.874"/>
</g>
<!-- Node34 -->
<g id="node34" class="node"><title>Node34</title>
<g id="a_node34"><a xlink:href="../../d1/d1f/FECInfo_8h.html" target="_top" xlink:title="TPCBase/FECInfo.h">
<polygon fill="none" stroke="black" points="1267.5,-248.5 1267.5,-267.5 1374.5,-267.5 1374.5,-248.5 1267.5,-248.5"/>
<text text-anchor="middle" x="1321" y="-255.5" font-family="Helvetica,sans-Serif" font-size="10.00">TPCBase/FECInfo.h</text>
</a>
</g>
</g>
<!-- Node23&#45;&gt;Node34 -->
<g id="edge50" class="edge"><title>Node23&#45;&gt;Node34</title>
<path fill="none" stroke="midnightblue" d="M984.58,-473.359C987.767,-472.896 990.927,-472.44 994,-472 1051.52,-463.759 1207.49,-472.133 1253,-436 1303.02,-396.289 1316.28,-315.114 1319.77,-278.127"/>
<polygon fill="midnightblue" stroke="midnightblue" points="1323.29,-278.026 1320.59,-267.779 1316.31,-277.47 1323.29,-278.026"/>
</g>
<!-- Node35 -->
<g id="node35" class="node"><title>Node35</title>
<g id="a_node35"><a xlink:href="../../da/d9d/PadRegionInfo_8h.html" target="_top" xlink:title="TPCBase/PadRegionInfo.h">
<polygon fill="none" stroke="black" points="786.5,-416.5 786.5,-435.5 921.5,-435.5 921.5,-416.5 786.5,-416.5"/>
<text text-anchor="middle" x="854" y="-423.5" font-family="Helvetica,sans-Serif" font-size="10.00">TPCBase/PadRegionInfo.h</text>
</a>
</g>
</g>
<!-- Node23&#45;&gt;Node35 -->
<g id="edge52" class="edge"><title>Node23&#45;&gt;Node35</title>
<path fill="none" stroke="midnightblue" d="M920.307,-472.324C908.099,-463.979 889.422,-451.212 874.997,-441.352"/>
<polygon fill="midnightblue" stroke="midnightblue" points="876.892,-438.408 866.661,-435.655 872.942,-444.187 876.892,-438.408"/>
</g>
<!-- Node36 -->
<g id="node36" class="node"><title>Node36</title>
<g id="a_node36"><a xlink:href="../../d6/d42/PartitionInfo_8h.html" target="_top" xlink:title="TPCBase/PartitionInfo.h">
<polygon fill="none" stroke="black" points="1049.5,-416.5 1049.5,-435.5 1172.5,-435.5 1172.5,-416.5 1049.5,-416.5"/>
<text text-anchor="middle" x="1111" y="-423.5" font-family="Helvetica,sans-Serif" font-size="10.00">TPCBase/PartitionInfo.h</text>
</a>
</g>
</g>
<!-- Node23&#45;&gt;Node36 -->
<g id="edge56" class="edge"><title>Node23&#45;&gt;Node36</title>
<path fill="none" stroke="midnightblue" d="M961.205,-472.444C991.41,-463.28 1039.51,-448.688 1073.03,-438.519"/>
<polygon fill="midnightblue" stroke="midnightblue" points="1074.37,-441.769 1082.93,-435.516 1072.34,-435.07 1074.37,-441.769"/>
</g>
<!-- Node27&#45;&gt;Node26 -->
<g id="edge35" class="edge"><title>Node27&#45;&gt;Node26</title>
<path fill="none" stroke="midnightblue" d="M608.004,-360.444C679.343,-350.438 796.833,-333.958 869.013,-323.834"/>
<polygon fill="midnightblue" stroke="midnightblue" points="869.906,-327.244 879.323,-322.388 868.934,-320.311 869.906,-327.244"/>
</g>
<!-- Node27&#45;&gt;Node28 -->
<g id="edge32" class="edge"><title>Node27&#45;&gt;Node28</title>
<path fill="none" stroke="midnightblue" d="M546.529,-360.368C545.561,-342.617 543.327,-301.666 542.014,-277.597"/>
<polygon fill="midnightblue" stroke="midnightblue" points="545.508,-277.386 541.469,-267.591 538.519,-277.767 545.508,-277.386"/>
</g>
<!-- Node28&#45;&gt;Node9 -->
<g id="edge34" class="edge"><title>Node28&#45;&gt;Node9</title>
<path fill="none" stroke="midnightblue" d="M573.8,-248.444C609.38,-239.162 666.314,-224.309 705.347,-214.127"/>
<polygon fill="midnightblue" stroke="midnightblue" points="706.561,-217.427 715.354,-211.516 704.794,-210.654 706.561,-217.427"/>
</g>
<!-- Node29 -->
<g id="node29" class="node"><title>Node29</title>
<g id="a_node29"><a xlink:href="../../d0/dda/DataFormats_2Detectors_2TPC_2include_2DataFormatsTPC_2Constants_8h.html" target="_top" xlink:title="DataFormatsTPC/Constants.h">
<polygon fill="none" stroke="black" points="466,-192.5 466,-211.5 616,-211.5 616,-192.5 466,-192.5"/>
<text text-anchor="middle" x="541" y="-199.5" font-family="Helvetica,sans-Serif" font-size="10.00">DataFormatsTPC/Constants.h</text>
</a>
</g>
</g>
<!-- Node28&#45;&gt;Node29 -->
<g id="edge33" class="edge"><title>Node28&#45;&gt;Node29</title>
<path fill="none" stroke="midnightblue" d="M541,-248.083C541,-241.006 541,-230.861 541,-221.986"/>
<polygon fill="midnightblue" stroke="midnightblue" points="544.5,-221.751 541,-211.751 537.5,-221.751 544.5,-221.751"/>
</g>
<!-- Node30&#45;&gt;Node9 -->
<g id="edge37" class="edge"><title>Node30&#45;&gt;Node9</title>
<path fill="none" stroke="midnightblue" d="M835.054,-360.075C820.447,-333.719 777.306,-255.878 757.788,-220.661"/>
<polygon fill="midnightblue" stroke="midnightblue" points="760.657,-218.618 752.749,-211.568 754.535,-222.011 760.657,-218.618"/>
</g>
<!-- Node30&#45;&gt;Node26 -->
<g id="edge41" class="edge"><title>Node30&#45;&gt;Node26</title>
<path fill="none" stroke="midnightblue" d="M854.781,-360.324C869.267,-351.822 891.573,-338.729 908.493,-328.797"/>
<polygon fill="midnightblue" stroke="midnightblue" points="910.403,-331.735 917.255,-323.655 906.859,-325.698 910.403,-331.735"/>
</g>
<!-- Node30&#45;&gt;Node31 -->
<g id="edge38" class="edge"><title>Node30&#45;&gt;Node31</title>
<path fill="none" stroke="midnightblue" d="M807.517,-360.444C772.28,-351.162 715.896,-336.309 677.241,-326.127"/>
<polygon fill="midnightblue" stroke="midnightblue" points="677.893,-322.679 667.331,-323.516 676.109,-329.448 677.893,-322.679"/>
</g>
<!-- Node31&#45;&gt;Node9 -->
<g id="edge39" class="edge"><title>Node31&#45;&gt;Node9</title>
<path fill="none" stroke="midnightblue" d="M642.625,-304.317C653.914,-291.592 675.91,-267.296 696,-248 706.763,-237.662 719.413,-226.691 729.541,-218.17"/>
<polygon fill="midnightblue" stroke="midnightblue" points="731.917,-220.746 737.359,-211.656 727.436,-215.368 731.917,-220.746"/>
</g>
<!-- Node31&#45;&gt;Node28 -->
<g id="edge40" class="edge"><title>Node31&#45;&gt;Node28</title>
<path fill="none" stroke="midnightblue" d="M619.897,-304.324C605.097,-295.822 582.306,-282.729 565.018,-272.797"/>
<polygon fill="midnightblue" stroke="midnightblue" points="566.48,-269.601 556.065,-267.655 562.993,-275.671 566.48,-269.601"/>
</g>
<!-- Node32&#45;&gt;Node9 -->
<g id="edge43" class="edge"><title>Node32&#45;&gt;Node9</title>
<path fill="none" stroke="midnightblue" d="M672.943,-416.403C692.341,-409.755 715.093,-398.473 728,-380 761.894,-331.488 756.291,-256.597 751.301,-221.873"/>
<polygon fill="midnightblue" stroke="midnightblue" points="754.715,-221.061 749.69,-211.734 747.802,-222.159 754.715,-221.061"/>
</g>
<!-- Node32&#45;&gt;Node26 -->
<g id="edge48" class="edge"><title>Node32&#45;&gt;Node26</title>
<path fill="none" stroke="midnightblue" d="M692.009,-419.271C767.363,-410.812 896.695,-394.425 913,-380 926.051,-368.453 930.359,-348.488 931.673,-333.723"/>
<polygon fill="midnightblue" stroke="midnightblue" points="935.171,-333.838 932.189,-323.672 928.18,-333.479 935.171,-333.838"/>
</g>
<!-- Node32&#45;&gt;Node27 -->
<g id="edge49" class="edge"><title>Node32&#45;&gt;Node27</title>
<path fill="none" stroke="midnightblue" d="M623.379,-416.324C609.051,-407.822 586.987,-394.729 570.251,-384.797"/>
<polygon fill="midnightblue" stroke="midnightblue" points="571.97,-381.748 561.584,-379.655 568.398,-387.768 571.97,-381.748"/>
</g>
<!-- Node33 -->
<g id="node33" class="node"><title>Node33</title>
<g id="a_node33"><a xlink:href="../../df/d26/CRU_8h.html" target="_top" xlink:title="TPCBase/CRU.h">
<polygon fill="none" stroke="black" points="626.5,-360.5 626.5,-379.5 719.5,-379.5 719.5,-360.5 626.5,-360.5"/>
<text text-anchor="middle" x="673" y="-367.5" font-family="Helvetica,sans-Serif" font-size="10.00">TPCBase/CRU.h</text>
</a>
</g>
</g>
<!-- Node32&#45;&gt;Node33 -->
<g id="edge44" class="edge"><title>Node32&#45;&gt;Node33</title>
<path fill="none" stroke="midnightblue" d="M643.78,-416.083C648.672,-408.534 655.827,-397.495 661.833,-388.23"/>
<polygon fill="midnightblue" stroke="midnightblue" points="664.826,-390.046 667.328,-379.751 658.952,-386.239 664.826,-390.046"/>
</g>
<!-- Node33&#45;&gt;Node9 -->
<g id="edge45" class="edge"><title>Node33&#45;&gt;Node9</title>
<path fill="none" stroke="midnightblue" d="M677.032,-360.075C688.889,-333.832 723.808,-256.545 739.815,-221.117"/>
<polygon fill="midnightblue" stroke="midnightblue" points="743.201,-222.122 744.129,-211.568 736.822,-219.24 743.201,-222.122"/>
</g>
<!-- Node33&#45;&gt;Node28 -->
<g id="edge46" class="edge"><title>Node33&#45;&gt;Node28</title>
<path fill="none" stroke="midnightblue" d="M644.498,-360.377C624.378,-353.176 597.768,-341.279 579,-324 564.761,-310.891 554.282,-291.202 547.976,-276.93"/>
<polygon fill="midnightblue" stroke="midnightblue" points="551.196,-275.559 544.128,-267.667 544.732,-278.244 551.196,-275.559"/>
</g>
<!-- Node33&#45;&gt;Node31 -->
<g id="edge47" class="edge"><title>Node33&#45;&gt;Node31</title>
<path fill="none" stroke="midnightblue" d="M666.725,-360.083C661.358,-352.455 653.482,-341.264 646.921,-331.941"/>
<polygon fill="midnightblue" stroke="midnightblue" points="649.775,-329.915 641.158,-323.751 644.051,-333.943 649.775,-329.915"/>
</g>
<!-- Node34&#45;&gt;Node22 -->
<g id="edge51" class="edge"><title>Node34&#45;&gt;Node22</title>
<path fill="none" stroke="midnightblue" d="M1321,-248.234C1321,-221.548 1321,-140.877 1321,-103.893"/>
<polygon fill="midnightblue" stroke="midnightblue" points="1324.5,-103.544 1321,-93.5442 1317.5,-103.544 1324.5,-103.544"/>
</g>
<!-- Node35&#45;&gt;Node3 -->
<g id="edge53" class="edge"><title>Node35&#45;&gt;Node3</title>
<path fill="none" stroke="midnightblue" d="M921.542,-416.971C924.399,-416.641 927.228,-416.316 930,-416 1070.47,-399.974 1238.14,-381.901 1307.5,-374.471"/>
<polygon fill="midnightblue" stroke="midnightblue" points="1308.2,-377.917 1317.77,-373.372 1307.46,-370.956 1308.2,-377.917"/>
</g>
<!-- Node35&#45;&gt;Node9 -->
<g id="edge54" class="edge"><title>Node35&#45;&gt;Node9</title>
<path fill="none" stroke="midnightblue" d="M902.288,-416.475C940.091,-408.703 988.185,-396.005 1000,-380 1010.14,-366.269 1011.17,-327.794 993,-304 951.914,-250.185 877.102,-224.865 820.916,-213.063"/>
<polygon fill="midnightblue" stroke="midnightblue" points="821.501,-209.611 811.009,-211.08 820.127,-216.475 821.501,-209.611"/>
</g>
<!-- Node35&#45;&gt;Node26 -->
<g id="edge55" class="edge"><title>Node35&#45;&gt;Node26</title>
<path fill="none" stroke="midnightblue" d="M921.83,-417.645C945.436,-411.454 969.593,-400.233 984,-380 996.939,-361.829 975.369,-341.939 956.201,-329.009"/>
<polygon fill="midnightblue" stroke="midnightblue" points="958.01,-326.012 947.696,-323.59 954.248,-331.915 958.01,-326.012"/>
</g>
<!-- Node37&#45;&gt;Node2 -->
<g id="edge62" class="edge"><title>Node37&#45;&gt;Node2</title>
<path fill="none" stroke="midnightblue" d="M989.19,-528.444C946.991,-518.361 877.281,-501.704 834.999,-491.602"/>
<polygon fill="midnightblue" stroke="midnightblue" points="835.671,-488.164 825.131,-489.244 834.044,-494.972 835.671,-488.164"/>
</g>
<!-- Node37&#45;&gt;Node3 -->
<g id="edge63" class="edge"><title>Node37&#45;&gt;Node3</title>
<path fill="none" stroke="midnightblue" d="M1047.57,-528.418C1069.98,-519.748 1105.19,-505.709 1135,-492 1152.7,-483.86 1155.78,-478.882 1174,-472 1234.91,-448.999 1267.6,-479.549 1316,-436 1329.25,-424.074 1335.21,-404.169 1337.87,-389.522"/>
<polygon fill="midnightblue" stroke="midnightblue" points="1341.34,-389.967 1339.33,-379.565 1334.41,-388.951 1341.34,-389.967"/>
</g>
<!-- Node37&#45;&gt;Node4 -->
<g id="edge64" class="edge"><title>Node37&#45;&gt;Node4</title>
<path fill="none" stroke="midnightblue" d="M988.451,-528.429C957.013,-520.545 910.744,-507.712 872,-492 854.314,-484.828 852.252,-477.577 834,-472 692.904,-428.884 649.149,-462.439 504,-436 502.534,-435.733 501.039,-435.438 499.532,-435.123"/>
<polygon fill="midnightblue" stroke="midnightblue" points="500.152,-431.674 489.62,-432.824 498.571,-438.493 500.152,-431.674"/>
</g>
<!-- Node37&#45;&gt;Node5 -->
<g id="edge66" class="edge"><title>Node37&#45;&gt;Node5</title>
<path fill="none" stroke="midnightblue" d="M1057.17,-528.444C1092.06,-519.162 1147.89,-504.309 1186.17,-494.127"/>
<polygon fill="midnightblue" stroke="midnightblue" points="1187.22,-497.47 1195.98,-491.516 1185.42,-490.705 1187.22,-497.47"/>
</g>
<!-- Node37&#45;&gt;Node8 -->
<g id="edge67" class="edge"><title>Node37&#45;&gt;Node8</title>
<path fill="none" stroke="midnightblue" d="M1075.78,-528.479C1125.54,-520.046 1203.8,-506.562 1281.23,-492.109"/>
<polygon fill="midnightblue" stroke="midnightblue" points="1281.97,-495.531 1291.15,-490.25 1280.68,-488.651 1281.97,-495.531"/>
</g>
<!-- Node37&#45;&gt;Node23 -->
<g id="edge68" class="edge"><title>Node37&#45;&gt;Node23</title>
<path fill="none" stroke="midnightblue" d="M1010.22,-528.324C995.733,-519.822 973.427,-506.729 956.507,-496.797"/>
<polygon fill="midnightblue" stroke="midnightblue" points="958.141,-493.698 947.745,-491.655 954.597,-499.735 958.141,-493.698"/>
</g>
<!-- Node38 -->
<g id="node38" class="node"><title>Node38</title>
<polygon fill="none" stroke="#bfbfbf" points="1003,-472.5 1003,-491.5 1047,-491.5 1047,-472.5 1003,-472.5"/>
<text text-anchor="middle" x="1025" y="-479.5" font-family="Helvetica,sans-Serif" font-size="10.00">Vc/Vc</text>
</g>
<!-- Node37&#45;&gt;Node38 -->
<g id="edge61" class="edge"><title>Node37&#45;&gt;Node38</title>
<path fill="none" stroke="midnightblue" d="M1025,-528.083C1025,-521.006 1025,-510.861 1025,-501.986"/>
<polygon fill="midnightblue" stroke="midnightblue" points="1028.5,-501.751 1025,-491.751 1021.5,-501.751 1028.5,-501.751"/>
</g>
<!-- Node39 -->
<g id="node39" class="node"><title>Node39</title>
<polygon fill="none" stroke="#bfbfbf" points="1065,-472.5 1065,-491.5 1127,-491.5 1127,-472.5 1065,-472.5"/>
<text text-anchor="middle" x="1096" y="-479.5" font-family="Helvetica,sans-Serif" font-size="10.00">type_traits</text>
</g>
<!-- Node37&#45;&gt;Node39 -->
<g id="edge65" class="edge"><title>Node37&#45;&gt;Node39</title>
<path fill="none" stroke="midnightblue" d="M1036.41,-528.324C1047.11,-520.185 1063.34,-507.839 1076.16,-498.087"/>
<polygon fill="midnightblue" stroke="midnightblue" points="1078.54,-500.673 1084.39,-491.834 1074.31,-495.102 1078.54,-500.673"/>
</g>
</g>
</svg>
        <g id="navigator" transform="translate(0 0)" fill="#404254">
                <rect fill="#f2f5e9" fill-opacity="0.5" stroke="#606060" stroke-width=".5" x="0" y="0" width="60" height="60"/>
                <use id="zoomplus" xlink:href="#zoomPlus" x="17" y="9" onmousedown="handleZoom(evt,'in')"/>
                <use id="zoomminus" xlink:href="#zoomMin" x="42" y="9" onmousedown="handleZoom(evt,'out')"/>
                <use id="reset" xlink:href="#resetDef" x="30" y="36" onmousedown="handleReset()"/>
                <g id="arrowUp" xlink:href="#dirArrow" transform="translate(30 24)" onmousedown="handlePan(0,-1)">
                  <use xlink:href="#rim" fill="#404040">
                        <set attributeName="fill" to="#808080" begin="arrowUp.mouseover" end="arrowUp.mouseout"/>
                  </use>
                  <path fill="none" stroke="white" stroke-width="1.5" d="M0,-3.0v7 M-2.5,-0.5L0,-3.0L2.5,-0.5"/>
                </g>
                <g id="arrowRight" xlink:href="#dirArrow" transform="rotate(90) translate(36 -43)" onmousedown="handlePan(1,0)">
                  <use xlink:href="#rim" fill="#404040">
                        <set attributeName="fill" to="#808080" begin="arrowRight.mouseover" end="arrowRight.mouseout"/>
                  </use>
                  <path fill="none" stroke="white" stroke-width="1.5" d="M0,-3.0v7 M-2.5,-0.5L0,-3.0L2.5,-0.5"/>
                </g>
                <g id="arrowDown" xlink:href="#dirArrow" transform="rotate(180) translate(-30 -48)" onmousedown="handlePan(0,1)">
                  <use xlink:href="#rim" fill="#404040">
                        <set attributeName="fill" to="#808080" begin="arrowDown.mouseover" end="arrowDown.mouseout"/>
                  </use>
                  <path fill="none" stroke="white" stroke-width="1.5" d="M0,-3.0v7 M-2.5,-0.5L0,-3.0L2.5,-0.5"/>
                </g>
                <g id="arrowLeft" xlink:href="#dirArrow" transform="rotate(270) translate(-36 17)" onmousedown="handlePan(-1,0)">
                  <use xlink:href="#rim" fill="#404040">
                        <set attributeName="fill" to="#808080" begin="arrowLeft.mouseover" end="arrowLeft.mouseout"/>
                  </use>
                  <path fill="none" stroke="white" stroke-width="1.5" d="M0,-3.0v7 M-2.5,-0.5L0,-3.0L2.5,-0.5"/>
                </g>
        </g>
        <svg viewBox="0 0 15 15" width="100%" height="30px" preserveAspectRatio="xMaxYMin meet">
         <g id="arrow_out" transform="scale(0.3 0.3)">
          <a xlink:href="CalDet_8h__incl_org.svg" target="_base">
           <rect id="button" ry="5" rx="5" y="6" x="6" height="38" width="38"
                fill="#f2f5e9" fill-opacity="0.5" stroke="#606060" stroke-width="1.0"/>
           <path id="arrow"
             d="M 11.500037,31.436501 C 11.940474,20.09759 22.043105,11.32322 32.158766,21.979434 L 37.068811,17.246167 C 37.068811,17.246167 37.088388,32 37.088388,32 L 22.160133,31.978069 C 22.160133,31.978069 26.997745,27.140456 26.997745,27.140456 C 18.528582,18.264221 13.291696,25.230495 11.500037,31.436501 z"
             style="fill:#404040;"/>
          </a>
         </g>
        </svg>
</svg>
