<?xml version="1.0" encoding="UTF-8" standalone="no"?>
<!DOCTYPE svg PUBLIC "-//W3C//DTD SVG 1.1//EN"
 "http://www.w3.org/Graphics/SVG/1.1/DTD/svg11.dtd">
<!-- Generated by graphviz version 2.36.0 (20140111.2315)
 -->
<!-- Title: o2::steer::O2MCApplication Pages: 1 -->
<!--zoomable 1376 -->
<svg id="main" version="1.1" xmlns="http://www.w3.org/2000/svg" xmlns:xlink="http://www.w3.org/1999/xlink" xml:space="preserve" onload="init(evt)">
<style type="text/css"><![CDATA[
.edge:hover path { stroke: red; }
.edge:hover polygon { stroke: red; fill: red; }
]]></style>
<script type="text/javascript"><![CDATA[
var edges = document.getElementsByTagName('g');
if (edges && edges.length) {
  for (var i=0;i<edges.length;i++) {
    if (edges[i].id.substr(0,4)=='edge') {
      edges[i].setAttribute('class','edge');
    }
  }
}
]]></script>
        <defs>
                <circle id="rim" cx="0" cy="0" r="7"/>
                <circle id="rim2" cx="0" cy="0" r="3.5"/>
                <g id="zoomPlus">
                        <use xlink:href="#rim" fill="#404040">
                                <set attributeName="fill" to="#808080" begin="zoomplus.mouseover" end="zoomplus.mouseout"/>
                        </use>
                        <path d="M-4,0h8M0,-4v8" fill="none" stroke="white" stroke-width="1.5" pointer-events="none"/>
                </g>
                <g id="zoomMin">
                        <use xlink:href="#rim" fill="#404040">
                                <set attributeName="fill" to="#808080" begin="zoomminus.mouseover" end="zoomminus.mouseout"/>
                        </use>
                        <path d="M-4,0h8" fill="none" stroke="white" stroke-width="1.5" pointer-events="none"/>
                </g>
                <g id="dirArrow">
                        <path fill="none" stroke="white" stroke-width="1.5" d="M0,-3.0v7 M-2.5,-0.5L0,-3.0L2.5,-0.5"/>
                </g>
               <g id="resetDef">
                       <use xlink:href="#rim2" fill="#404040">
                               <set attributeName="fill" to="#808080" begin="reset.mouseover" end="reset.mouseout"/>
                       </use>
               </g>
        </defs>

<script type="text/javascript">
var viewWidth = 906;
var viewHeight = 1376;
var sectionId = 'dynsection-1';
</script>
<script xlink:href="../../svgpan.js"/>
<svg id="graph" class="graph">
<g id="viewport">
<title>o2::steer::O2MCApplication</title>
<!-- Node1 -->
<g id="node1" class="node"><title>Node1</title>
<polygon fill="#bfbfbf" stroke="black" points="356.5,-1 356.5,-157 493.5,-157 493.5,-1 356.5,-1"/>
<text text-anchor="middle" x="425" y="-145" font-family="Helvetica,sans-Serif" font-size="10.00">o2::steer::O2MCApplication</text>
<polyline fill="none" stroke="black" points="356.5,-138 493.5,-138 "/>
<text text-anchor="middle" x="425" y="-126" font-family="Helvetica,sans-Serif" font-size="10.00"> </text>
<polyline fill="none" stroke="black" points="356.5,-119 493.5,-119 "/>
<text text-anchor="start" x="364.5" y="-107" font-family="Helvetica,sans-Serif" font-size="10.00">+ ~O2MCApplication()</text>
<text text-anchor="start" x="364.5" y="-96" font-family="Helvetica,sans-Serif" font-size="10.00">+ SendData()</text>
<text text-anchor="start" x="364.5" y="-85" font-family="Helvetica,sans-Serif" font-size="10.00">+ initLate()</text>
<text text-anchor="start" x="364.5" y="-74" font-family="Helvetica,sans-Serif" font-size="10.00">+ FinishEvent()</text>
<text text-anchor="start" x="364.5" y="-63" font-family="Helvetica,sans-Serif" font-size="10.00">+ FinishRun()</text>
<text text-anchor="start" x="364.5" y="-52" font-family="Helvetica,sans-Serif" font-size="10.00">+ attachSubEventInfo()</text>
<text text-anchor="start" x="364.5" y="-41" font-family="Helvetica,sans-Serif" font-size="10.00">+ GeneratePrimaries()</text>
<text text-anchor="start" x="364.5" y="-30" font-family="Helvetica,sans-Serif" font-size="10.00">+ setPrimaries()</text>
<text text-anchor="start" x="364.5" y="-19" font-family="Helvetica,sans-Serif" font-size="10.00">+ setSimDataChannel()</text>
<text text-anchor="start" x="364.5" y="-8" font-family="Helvetica,sans-Serif" font-size="10.00">+ setSubEventInfo()</text>
</g>
<!-- Node2 -->
<g id="node2" class="node"><title>Node2</title>
<g id="a_node2"><a xlink:href="../../d8/d15/classo2_1_1steer_1_1O2MCApplicationBase.html" target="_top" xlink:title="{o2::steer::O2MCApplicationBase\n||+ O2MCApplicationBase()\l+ O2MCApplicationBase()\l+ ~O2MCApplicationBase()\l+ Stepping()\l+ TrackingRmax()\l+ TrackingZmax()\l}">
<polygon fill="none" stroke="black" points="61,-207 61,-319 221,-319 221,-207 61,-207"/>
<text text-anchor="middle" x="141" y="-307" font-family="Helvetica,sans-Serif" font-size="10.00">o2::steer::O2MCApplicationBase</text>
<polyline fill="none" stroke="black" points="61,-300 221,-300 "/>
<text text-anchor="middle" x="141" y="-288" font-family="Helvetica,sans-Serif" font-size="10.00"> </text>
<polyline fill="none" stroke="black" points="61,-281 221,-281 "/>
<text text-anchor="start" x="69" y="-269" font-family="Helvetica,sans-Serif" font-size="10.00">+ O2MCApplicationBase()</text>
<text text-anchor="start" x="69" y="-258" font-family="Helvetica,sans-Serif" font-size="10.00">+ O2MCApplicationBase()</text>
<text text-anchor="start" x="69" y="-247" font-family="Helvetica,sans-Serif" font-size="10.00">+ ~O2MCApplicationBase()</text>
<text text-anchor="start" x="69" y="-236" font-family="Helvetica,sans-Serif" font-size="10.00">+ Stepping()</text>
<text text-anchor="start" x="69" y="-225" font-family="Helvetica,sans-Serif" font-size="10.00">+ TrackingRmax()</text>
<text text-anchor="start" x="69" y="-214" font-family="Helvetica,sans-Serif" font-size="10.00">+ TrackingZmax()</text>
</a>
</g>
</g>
<!-- Node2&#45;&gt;Node1 -->
<g id="edge1" class="edge"><title>Node2&#45;&gt;Node1</title>
<path fill="none" stroke="midnightblue" d="M229.823,-205.078C270.538,-178.986 318.07,-148.526 356.033,-124.197"/>
<polygon fill="none" stroke="midnightblue" points="227.775,-202.233 221.244,-210.576 231.552,-208.127 227.775,-202.233"/>
</g>
<!-- Node3 -->
<g id="node3" class="node"><title>Node3</title>
<g id="a_node3"><a xlink:href="../../d8/def/classFairMCApplication.html" target="_top" xlink:title="{FairMCApplication\n||}">
<polygon fill="none" stroke="black" points="52.5,-434.5 52.5,-491.5 149.5,-491.5 149.5,-434.5 52.5,-434.5"/>
<text text-anchor="middle" x="101" y="-479.5" font-family="Helvetica,sans-Serif" font-size="10.00">FairMCApplication</text>
<polyline fill="none" stroke="black" points="52.5,-472.5 149.5,-472.5 "/>
<text text-anchor="middle" x="101" y="-460.5" font-family="Helvetica,sans-Serif" font-size="10.00"> </text>
<polyline fill="none" stroke="black" points="52.5,-453.5 149.5,-453.5 "/>
<text text-anchor="middle" x="101" y="-441.5" font-family="Helvetica,sans-Serif" font-size="10.00"> </text>
</a>
</g>
</g>
<!-- Node3&#45;&gt;Node2 -->
<g id="edge2" class="edge"><title>Node3&#45;&gt;Node2</title>
<path fill="none" stroke="midnightblue" d="M108.573,-424.511C114.571,-394.823 123.038,-352.911 129.816,-319.36"/>
<polygon fill="none" stroke="midnightblue" points="105.111,-423.974 106.562,-434.469 111.973,-425.36 105.111,-423.974"/>
</g>
<!-- Node4 -->
<g id="node4" class="node"><title>Node4</title>
<g id="a_node4"><a xlink:href="../../d7/d2f/structo2_1_1conf_1_1SimCutParams.html" target="_top" xlink:title="{o2::conf::SimCutParams\n||+ O2ParamDef()\l}">
<polygon fill="none" stroke="black" points="167.5,-434.5 167.5,-491.5 292.5,-491.5 292.5,-434.5 167.5,-434.5"/>
<text text-anchor="middle" x="230" y="-479.5" font-family="Helvetica,sans-Serif" font-size="10.00">o2::conf::SimCutParams</text>
<polyline fill="none" stroke="black" points="167.5,-472.5 292.5,-472.5 "/>
<text text-anchor="middle" x="230" y="-460.5" font-family="Helvetica,sans-Serif" font-size="10.00"> </text>
<polyline fill="none" stroke="black" points="167.5,-453.5 292.5,-453.5 "/>
<text text-anchor="start" x="175.5" y="-441.5" font-family="Helvetica,sans-Serif" font-size="10.00">+ O2ParamDef()</text>
</a>
</g>
</g>
<!-- Node4&#45;&gt;Node2 -->
<g id="edge3" class="edge"><title>Node4&#45;&gt;Node2</title>
<path fill="none" stroke="#404040" d="M217.625,-434.469C205.6,-407.718 186.875,-366.059 170.945,-330.62"/>
<polygon fill="none" stroke="#404040" points="170.804,-330.305 164.695,-326.472 165.884,-319.36 171.992,-323.192 170.804,-330.305"/>
<text text-anchor="middle" x="222.5" y="-352.5" font-family="Helvetica,sans-Serif" font-size="10.00"> #mCutParams</text>
</g>
<!-- Node5 -->
<g id="node5" class="node"><title>Node5</title>
<g id="a_node5"><a xlink:href="../../d7/d50/classo2_1_1conf_1_1ConfigurableParamHelper.html" target="_top" xlink:title="{o2::conf::ConfigurableParam\lHelper\&lt; SimCutParams \&gt;\n||+ getName()\l+ printKeyValues()\l+ putKeyValues()\l+ initFrom()\l+ serializeTo()\l+ Instance()\l}">
<polygon fill="none" stroke="black" points="48.5,-594.5 48.5,-717.5 189.5,-717.5 189.5,-594.5 48.5,-594.5"/>
<text text-anchor="start" x="56.5" y="-705.5" font-family="Helvetica,sans-Serif" font-size="10.00">o2::conf::ConfigurableParam</text>
<text text-anchor="middle" x="119" y="-694.5" font-family="Helvetica,sans-Serif" font-size="10.00">Helper&lt; SimCutParams &gt;</text>
<polyline fill="none" stroke="black" points="48.5,-687.5 189.5,-687.5 "/>
<text text-anchor="middle" x="119" y="-675.5" font-family="Helvetica,sans-Serif" font-size="10.00"> </text>
<polyline fill="none" stroke="black" points="48.5,-668.5 189.5,-668.5 "/>
<text text-anchor="start" x="56.5" y="-656.5" font-family="Helvetica,sans-Serif" font-size="10.00">+ getName()</text>
<text text-anchor="start" x="56.5" y="-645.5" font-family="Helvetica,sans-Serif" font-size="10.00">+ printKeyValues()</text>
<text text-anchor="start" x="56.5" y="-634.5" font-family="Helvetica,sans-Serif" font-size="10.00">+ putKeyValues()</text>
<text text-anchor="start" x="56.5" y="-623.5" font-family="Helvetica,sans-Serif" font-size="10.00">+ initFrom()</text>
<text text-anchor="start" x="56.5" y="-612.5" font-family="Helvetica,sans-Serif" font-size="10.00">+ serializeTo()</text>
<text text-anchor="start" x="56.5" y="-601.5" font-family="Helvetica,sans-Serif" font-size="10.00">+ Instance()</text>
</a>
</g>
</g>
<!-- Node5&#45;&gt;Node4 -->
<g id="edge4" class="edge"><title>Node5&#45;&gt;Node4</title>
<path fill="none" stroke="midnightblue" d="M159.511,-585.292C178.342,-552.889 199.661,-516.204 213.876,-491.746"/>
<polygon fill="none" stroke="midnightblue" points="156.272,-583.899 154.274,-594.304 162.324,-587.417 156.272,-583.899"/>
</g>
<!-- Node6 -->
<g id="node6" class="node"><title>Node6</title>
<g id="a_node6"><a xlink:href="../../d6/d14/classo2_1_1conf_1_1ConfigurableParam.html" target="_top" xlink:title="{o2::conf::ConfigurableParam\n||+ getName()\l+ printKeyValues()\l+ toString()\l+ printAllRegisteredParamNames()\l+ printAllKeyValuePairs()\l+ writeJSON()\l+ writeINI()\l+ getValueAs()\l+ setValue()\l+ setValue()\l+ initialize()\l+ toCCDB()\l+ fromCCDB()\l+ updateFromString()\l# ConfigurableParam()\l# ~ConfigurableParam()\l# putKeyValues()\l# serializeTo()\l# initFrom()\l# setRegisterMode()\l# initPropertyTree()\l# updateThroughStorageMap()\l# updateThroughStorageMapWith\lConversion()\l}">
<polygon fill="none" stroke="black" points="49.5,-929 49.5,-1239 218.5,-1239 218.5,-929 49.5,-929"/>
<text text-anchor="middle" x="134" y="-1227" font-family="Helvetica,sans-Serif" font-size="10.00">o2::conf::ConfigurableParam</text>
<polyline fill="none" stroke="black" points="49.5,-1220 218.5,-1220 "/>
<text text-anchor="middle" x="134" y="-1208" font-family="Helvetica,sans-Serif" font-size="10.00"> </text>
<polyline fill="none" stroke="black" points="49.5,-1201 218.5,-1201 "/>
<text text-anchor="start" x="57.5" y="-1189" font-family="Helvetica,sans-Serif" font-size="10.00">+ getName()</text>
<text text-anchor="start" x="57.5" y="-1178" font-family="Helvetica,sans-Serif" font-size="10.00">+ printKeyValues()</text>
<text text-anchor="start" x="57.5" y="-1167" font-family="Helvetica,sans-Serif" font-size="10.00">+ toString()</text>
<text text-anchor="start" x="57.5" y="-1156" font-family="Helvetica,sans-Serif" font-size="10.00">+ printAllRegisteredParamNames()</text>
<text text-anchor="start" x="57.5" y="-1145" font-family="Helvetica,sans-Serif" font-size="10.00">+ printAllKeyValuePairs()</text>
<text text-anchor="start" x="57.5" y="-1134" font-family="Helvetica,sans-Serif" font-size="10.00">+ writeJSON()</text>
<text text-anchor="start" x="57.5" y="-1123" font-family="Helvetica,sans-Serif" font-size="10.00">+ writeINI()</text>
<text text-anchor="start" x="57.5" y="-1112" font-family="Helvetica,sans-Serif" font-size="10.00">+ getValueAs()</text>
<text text-anchor="start" x="57.5" y="-1101" font-family="Helvetica,sans-Serif" font-size="10.00">+ setValue()</text>
<text text-anchor="start" x="57.5" y="-1090" font-family="Helvetica,sans-Serif" font-size="10.00">+ setValue()</text>
<text text-anchor="start" x="57.5" y="-1079" font-family="Helvetica,sans-Serif" font-size="10.00">+ initialize()</text>
<text text-anchor="start" x="57.5" y="-1068" font-family="Helvetica,sans-Serif" font-size="10.00">+ toCCDB()</text>
<text text-anchor="start" x="57.5" y="-1057" font-family="Helvetica,sans-Serif" font-size="10.00">+ fromCCDB()</text>
<text text-anchor="start" x="57.5" y="-1046" font-family="Helvetica,sans-Serif" font-size="10.00">+ updateFromString()</text>
<text text-anchor="start" x="57.5" y="-1035" font-family="Helvetica,sans-Serif" font-size="10.00"># ConfigurableParam()</text>
<text text-anchor="start" x="57.5" y="-1024" font-family="Helvetica,sans-Serif" font-size="10.00"># ~ConfigurableParam()</text>
<text text-anchor="start" x="57.5" y="-1013" font-family="Helvetica,sans-Serif" font-size="10.00"># putKeyValues()</text>
<text text-anchor="start" x="57.5" y="-1002" font-family="Helvetica,sans-Serif" font-size="10.00"># serializeTo()</text>
<text text-anchor="start" x="57.5" y="-991" font-family="Helvetica,sans-Serif" font-size="10.00"># initFrom()</text>
<text text-anchor="start" x="57.5" y="-980" font-family="Helvetica,sans-Serif" font-size="10.00"># setRegisterMode()</text>
<text text-anchor="start" x="57.5" y="-969" font-family="Helvetica,sans-Serif" font-size="10.00"># initPropertyTree()</text>
<text text-anchor="start" x="57.5" y="-958" font-family="Helvetica,sans-Serif" font-size="10.00"># updateThroughStorageMap()</text>
<text text-anchor="start" x="57.5" y="-947" font-family="Helvetica,sans-Serif" font-size="10.00"># updateThroughStorageMapWith</text>
<text text-anchor="start" x="57.5" y="-936" font-family="Helvetica,sans-Serif" font-size="10.00">Conversion()</text>
</a>
</g>
</g>
<!-- Node6&#45;&gt;Node5 -->
<g id="edge5" class="edge"><title>Node6&#45;&gt;Node5</title>
<path fill="none" stroke="midnightblue" d="M123.238,-918.793C122.772,-909.053 122.353,-899.399 122,-890 119.809,-831.584 119.136,-764.879 118.965,-717.854"/>
<polygon fill="none" stroke="midnightblue" points="119.752,-919.152 123.741,-928.967 126.743,-918.806 119.752,-919.152"/>
</g>
<!-- Node9 -->
<g id="node9" class="node"><title>Node9</title>
<g id="a_node9"><a xlink:href="../../d7/d50/classo2_1_1conf_1_1ConfigurableParamHelper.html" target="_top" xlink:title="{o2::conf::ConfigurableParam\lHelper\&lt; P \&gt;\n||+ getName()\l+ printKeyValues()\l+ putKeyValues()\l+ initFrom()\l+ serializeTo()\l+ Instance()\l}">
<polygon fill="none" stroke="black" points="131.5,-766.5 131.5,-889.5 272.5,-889.5 272.5,-766.5 131.5,-766.5"/>
<text text-anchor="start" x="139.5" y="-877.5" font-family="Helvetica,sans-Serif" font-size="10.00">o2::conf::ConfigurableParam</text>
<text text-anchor="middle" x="202" y="-866.5" font-family="Helvetica,sans-Serif" font-size="10.00">Helper&lt; P &gt;</text>
<polyline fill="none" stroke="black" points="131.5,-859.5 272.5,-859.5 "/>
<text text-anchor="middle" x="202" y="-847.5" font-family="Helvetica,sans-Serif" font-size="10.00"> </text>
<polyline fill="none" stroke="black" points="131.5,-840.5 272.5,-840.5 "/>
<text text-anchor="start" x="139.5" y="-828.5" font-family="Helvetica,sans-Serif" font-size="10.00">+ getName()</text>
<text text-anchor="start" x="139.5" y="-817.5" font-family="Helvetica,sans-Serif" font-size="10.00">+ printKeyValues()</text>
<text text-anchor="start" x="139.5" y="-806.5" font-family="Helvetica,sans-Serif" font-size="10.00">+ putKeyValues()</text>
<text text-anchor="start" x="139.5" y="-795.5" font-family="Helvetica,sans-Serif" font-size="10.00">+ initFrom()</text>
<text text-anchor="start" x="139.5" y="-784.5" font-family="Helvetica,sans-Serif" font-size="10.00">+ serializeTo()</text>
<text text-anchor="start" x="139.5" y="-773.5" font-family="Helvetica,sans-Serif" font-size="10.00">+ Instance()</text>
</a>
</g>
</g>
<!-- Node6&#45;&gt;Node9 -->
<g id="edge9" class="edge"><title>Node6&#45;&gt;Node9</title>
<path fill="none" stroke="midnightblue" d="M177.963,-918.784C180.693,-908.587 183.329,-898.74 185.792,-889.542"/>
<polygon fill="none" stroke="midnightblue" points="174.525,-918.094 175.32,-928.659 181.287,-919.904 174.525,-918.094"/>
</g>
<!-- Node7 -->
<g id="node7" class="node"><title>Node7</title>
<polygon fill="none" stroke="#bfbfbf" points="-0.5,-1288.5 -0.5,-1367.5 130.5,-1367.5 130.5,-1288.5 -0.5,-1288.5"/>
<text text-anchor="start" x="7.5" y="-1355.5" font-family="Helvetica,sans-Serif" font-size="10.00">map&lt; std::string, o2</text>
<text text-anchor="start" x="7.5" y="-1344.5" font-family="Helvetica,sans-Serif" font-size="10.00">::conf::ConfigurableParam</text>
<text text-anchor="middle" x="65" y="-1333.5" font-family="Helvetica,sans-Serif" font-size="10.00">::EParamProvenance &gt; *</text>
<polyline fill="none" stroke="#bfbfbf" points="-0.5,-1326.5 130.5,-1326.5 "/>
<text text-anchor="middle" x="65" y="-1314.5" font-family="Helvetica,sans-Serif" font-size="10.00"> </text>
<polyline fill="none" stroke="#bfbfbf" points="-0.5,-1307.5 130.5,-1307.5 "/>
<text text-anchor="middle" x="65" y="-1295.5" font-family="Helvetica,sans-Serif" font-size="10.00"> </text>
</g>
<!-- Node7&#45;&gt;Node6 -->
<g id="edge6" class="edge"><title>Node7&#45;&gt;Node6</title>
<path fill="none" stroke="#404040" d="M67.2468,-1288.41C68.2821,-1278.43 69.7936,-1267.75 72,-1258 72.5283,-1255.67 73.0789,-1253.32 73.6499,-1250.97"/>
<polygon fill="none" stroke="#404040" points="73.7029,-1250.76 71.3095,-1243.96 76.6679,-1239.13 79.0614,-1245.93 73.7029,-1250.76"/>
<text text-anchor="middle" x="126.5" y="-1261.5" font-family="Helvetica,sans-Serif" font-size="10.00"> #sValueProvenanceMap</text>
</g>
<!-- Node8 -->
<g id="node8" class="node"><title>Node8</title>
<polygon fill="none" stroke="#bfbfbf" points="148.5,-1288.5 148.5,-1367.5 257.5,-1367.5 257.5,-1288.5 148.5,-1288.5"/>
<text text-anchor="start" x="156.5" y="-1355.5" font-family="Helvetica,sans-Serif" font-size="10.00">map&lt; std::string, std</text>
<text text-anchor="start" x="156.5" y="-1344.5" font-family="Helvetica,sans-Serif" font-size="10.00">::pair&lt; std::type_info</text>
<text text-anchor="middle" x="203" y="-1333.5" font-family="Helvetica,sans-Serif" font-size="10.00"> const &amp;, void * &gt; &gt; *</text>
<polyline fill="none" stroke="#bfbfbf" points="148.5,-1326.5 257.5,-1326.5 "/>
<text text-anchor="middle" x="203" y="-1314.5" font-family="Helvetica,sans-Serif" font-size="10.00"> </text>
<polyline fill="none" stroke="#bfbfbf" points="148.5,-1307.5 257.5,-1307.5 "/>
<text text-anchor="middle" x="203" y="-1295.5" font-family="Helvetica,sans-Serif" font-size="10.00"> </text>
</g>
<!-- Node8&#45;&gt;Node6 -->
<g id="edge7" class="edge"><title>Node8&#45;&gt;Node6</title>
<path fill="none" stroke="#404040" d="M191.99,-1288.39C188.84,-1277.34 185.191,-1264.54 181.288,-1250.85"/>
<polygon fill="none" stroke="#404040" points="181.245,-1250.7 175.753,-1246.03 177.955,-1239.16 183.447,-1243.83 181.245,-1250.7"/>
<text text-anchor="middle" x="234.5" y="-1261.5" font-family="Helvetica,sans-Serif" font-size="10.00"> #sKeyToStorageMap</text>
</g>
<!-- Node9&#45;&gt;Node5 -->
<g id="edge8" class="edge"><title>Node9&#45;&gt;Node5</title>
<path fill="none" stroke="orange" d="M167.714,-756.776C161.39,-743.823 154.836,-730.398 148.662,-717.754"/>
<polygon fill="orange" stroke="orange" points="164.737,-758.656 172.27,-766.106 171.027,-755.585 164.737,-758.656"/>
<text text-anchor="middle" x="207" y="-739.5" font-family="Helvetica,sans-Serif" font-size="10.00"> &lt; SimCutParams &gt;</text>
</g>
<!-- Node10 -->
<g id="node10" class="node"><title>Node10</title>
<polygon fill="none" stroke="#bfbfbf" points="207.5,-627.5 207.5,-684.5 252.5,-684.5 252.5,-627.5 207.5,-627.5"/>
<text text-anchor="middle" x="230" y="-672.5" font-family="Helvetica,sans-Serif" font-size="10.00">double</text>
<polyline fill="none" stroke="#bfbfbf" points="207.5,-665.5 252.5,-665.5 "/>
<text text-anchor="middle" x="230" y="-653.5" font-family="Helvetica,sans-Serif" font-size="10.00"> </text>
<polyline fill="none" stroke="#bfbfbf" points="207.5,-646.5 252.5,-646.5 "/>
<text text-anchor="middle" x="230" y="-634.5" font-family="Helvetica,sans-Serif" font-size="10.00"> </text>
</g>
<!-- Node10&#45;&gt;Node4 -->
<g id="edge10" class="edge"><title>Node10&#45;&gt;Node4</title>
<path fill="none" stroke="#404040" d="M230,-627.227C230,-594.834 230,-541.022 230,-504.099"/>
<polygon fill="none" stroke="#404040" points="230,-503.807 226,-497.807 230,-491.807 234,-497.807 230,-503.807"/>
<text text-anchor="middle" x="273" y="-568" font-family="Helvetica,sans-Serif" font-size="10.00"> +maxRTracking</text>
<text text-anchor="middle" x="273" y="-557" font-family="Helvetica,sans-Serif" font-size="10.00">+maxAbsZTracking</text>
</g>
<!-- Node11 -->
<g id="node11" class="node"><title>Node11</title>
<polygon fill="none" stroke="#bfbfbf" points="321.5,-627.5 321.5,-684.5 356.5,-684.5 356.5,-627.5 321.5,-627.5"/>
<text text-anchor="middle" x="339" y="-672.5" font-family="Helvetica,sans-Serif" font-size="10.00">bool</text>
<polyline fill="none" stroke="#bfbfbf" points="321.5,-665.5 356.5,-665.5 "/>
<text text-anchor="middle" x="339" y="-653.5" font-family="Helvetica,sans-Serif" font-size="10.00"> </text>
<polyline fill="none" stroke="#bfbfbf" points="321.5,-646.5 356.5,-646.5 "/>
<text text-anchor="middle" x="339" y="-634.5" font-family="Helvetica,sans-Serif" font-size="10.00"> </text>
</g>
<!-- Node11&#45;&gt;Node4 -->
<g id="edge11" class="edge"><title>Node11&#45;&gt;Node4</title>
<path fill="none" stroke="#404040" d="M337.105,-627.441C334.707,-606.297 329.28,-576.942 317,-554 306.284,-533.979 289.821,-515.308 274.088,-500.22"/>
<polygon fill="none" stroke="#404040" points="273.764,-499.92 266.644,-498.779 264.958,-491.768 272.079,-492.909 273.764,-499.92"/>
<text text-anchor="middle" x="357.5" y="-562.5" font-family="Helvetica,sans-Serif" font-size="10.00"> +stepFiltering</text>
</g>
<!-- Node12 -->
<g id="node12" class="node"><title>Node12</title>
<polygon fill="none" stroke="#bfbfbf" points="239,-234.5 239,-291.5 331,-291.5 331,-234.5 239,-234.5"/>
<text text-anchor="middle" x="285" y="-279.5" font-family="Helvetica,sans-Serif" font-size="10.00">FairMQChannel *</text>
<polyline fill="none" stroke="#bfbfbf" points="239,-272.5 331,-272.5 "/>
<text text-anchor="middle" x="285" y="-260.5" font-family="Helvetica,sans-Serif" font-size="10.00"> </text>
<polyline fill="none" stroke="#bfbfbf" points="239,-253.5 331,-253.5 "/>
<text text-anchor="middle" x="285" y="-241.5" font-family="Helvetica,sans-Serif" font-size="10.00"> </text>
</g>
<!-- Node12&#45;&gt;Node1 -->
<g id="edge12" class="edge"><title>Node12&#45;&gt;Node1</title>
<path fill="none" stroke="#404040" d="M296.444,-234.401C304.34,-216.882 315.775,-194.17 329,-176 334.882,-167.919 341.449,-159.88 348.314,-152.093"/>
<polygon fill="none" stroke="#404040" points="348.426,-151.969 349.492,-144.837 356.485,-143.078 355.419,-150.21 348.426,-151.969"/>
<text text-anchor="middle" x="375" y="-179.5" font-family="Helvetica,sans-Serif" font-size="10.00"> +mSimDataChannel</text>
</g>
<!-- Node13 -->
<g id="node13" class="node"><title>Node13</title>
<polygon fill="none" stroke="#bfbfbf" points="349.5,-234.5 349.5,-291.5 500.5,-291.5 500.5,-234.5 349.5,-234.5"/>
<text text-anchor="middle" x="425" y="-279.5" font-family="Helvetica,sans-Serif" font-size="10.00">vector&lt; o2::Base::Detector * &gt;</text>
<polyline fill="none" stroke="#bfbfbf" points="349.5,-272.5 500.5,-272.5 "/>
<text text-anchor="middle" x="425" y="-260.5" font-family="Helvetica,sans-Serif" font-size="10.00"> </text>
<polyline fill="none" stroke="#bfbfbf" points="349.5,-253.5 500.5,-253.5 "/>
<text text-anchor="middle" x="425" y="-241.5" font-family="Helvetica,sans-Serif" font-size="10.00"> </text>
</g>
<!-- Node13&#45;&gt;Node1 -->
<g id="edge13" class="edge"><title>Node13&#45;&gt;Node1</title>
<path fill="none" stroke="#404040" d="M425,-234.358C425,-216.829 425,-193.074 425,-169.457"/>
<polygon fill="none" stroke="#404040" points="425,-169.153 421,-163.153 425,-157.153 429,-163.153 425,-169.153"/>
<text text-anchor="middle" x="475.5" y="-179.5" font-family="Helvetica,sans-Serif" font-size="10.00"> +mActiveO2Detectors</text>
</g>
<!-- Node14 -->
<g id="node14" class="node"><title>Node14</title>
<polygon fill="none" stroke="#bfbfbf" points="518.5,-234.5 518.5,-291.5 619.5,-291.5 619.5,-234.5 518.5,-234.5"/>
<text text-anchor="middle" x="569" y="-279.5" font-family="Helvetica,sans-Serif" font-size="10.00">vector&lt; TParticle &gt;</text>
<polyline fill="none" stroke="#bfbfbf" points="518.5,-272.5 619.5,-272.5 "/>
<text text-anchor="middle" x="569" y="-260.5" font-family="Helvetica,sans-Serif" font-size="10.00"> </text>
<polyline fill="none" stroke="#bfbfbf" points="518.5,-253.5 619.5,-253.5 "/>
<text text-anchor="middle" x="569" y="-241.5" font-family="Helvetica,sans-Serif" font-size="10.00"> </text>
</g>
<!-- Node14&#45;&gt;Node1 -->
<g id="edge14" class="edge"><title>Node14&#45;&gt;Node1</title>
<path fill="none" stroke="#404040" d="M559.663,-234.134C552.986,-216.507 542.906,-193.777 530,-176 521.919,-164.869 512.386,-154.038 502.414,-143.904"/>
<polygon fill="none" stroke="#404040" points="502.113,-143.607 495.031,-142.247 493.563,-135.187 500.645,-136.547 502.113,-143.607"/>
<text text-anchor="middle" x="567.5" y="-179.5" font-family="Helvetica,sans-Serif" font-size="10.00"> +mPrimaries</text>
</g>
<!-- Node15 -->
<g id="node15" class="node"><title>Node15</title>
<g id="a_node15"><a xlink:href="../../d8/dff/structo2_1_1Data_1_1SubEventInfo.html" target="_top" xlink:title="{o2::Data::SubEventInfo\n||+ ClassDefNV()\l}">
<polygon fill="none" stroke="black" points="637.5,-234.5 637.5,-291.5 756.5,-291.5 756.5,-234.5 637.5,-234.5"/>
<text text-anchor="middle" x="697" y="-279.5" font-family="Helvetica,sans-Serif" font-size="10.00">o2::Data::SubEventInfo</text>
<polyline fill="none" stroke="black" points="637.5,-272.5 756.5,-272.5 "/>
<text text-anchor="middle" x="697" y="-260.5" font-family="Helvetica,sans-Serif" font-size="10.00"> </text>
<polyline fill="none" stroke="black" points="637.5,-253.5 756.5,-253.5 "/>
<text text-anchor="start" x="645.5" y="-241.5" font-family="Helvetica,sans-Serif" font-size="10.00">+ ClassDefNV()</text>
</a>
</g>
</g>
<!-- Node15&#45;&gt;Node1 -->
<g id="edge15" class="edge"><title>Node15&#45;&gt;Node1</title>
<path fill="none" stroke="#404040" d="M669.471,-234.204C651.022,-216.39 625.674,-193.427 601,-176 570.864,-154.716 535.509,-134.598 504.424,-118.33"/>
<polygon fill="none" stroke="#404040" points="504.28,-118.256 497.113,-119.051 493.622,-112.741 500.789,-111.946 504.28,-118.256"/>
<text text-anchor="middle" x="654.5" y="-179.5" font-family="Helvetica,sans-Serif" font-size="10.00"> +mSubEventInfo</text>
</g>
<!-- Node16 -->
<g id="node16" class="node"><title>Node16</title>
<polygon fill="none" stroke="#bfbfbf" points="441.5,-434.5 441.5,-491.5 492.5,-491.5 492.5,-434.5 441.5,-434.5"/>
<text text-anchor="middle" x="467" y="-479.5" font-family="Helvetica,sans-Serif" font-size="10.00">uint32_t</text>
<polyline fill="none" stroke="#bfbfbf" points="441.5,-472.5 492.5,-472.5 "/>
<text text-anchor="middle" x="467" y="-460.5" font-family="Helvetica,sans-Serif" font-size="10.00"> </text>
<polyline fill="none" stroke="#bfbfbf" points="441.5,-453.5 492.5,-453.5 "/>
<text text-anchor="middle" x="467" y="-441.5" font-family="Helvetica,sans-Serif" font-size="10.00"> </text>
</g>
<!-- Node16&#45;&gt;Node15 -->
<g id="edge16" class="edge"><title>Node16&#45;&gt;Node15</title>
<path fill="none" stroke="#404040" d="M475.722,-434.357C486.601,-404.935 508.256,-359.693 544,-338 576.64,-318.191 593.561,-336.485 628,-320 639.168,-314.655 650.114,-307.157 659.881,-299.383"/>
<polygon fill="none" stroke="#404040" points="660.007,-299.277 662.049,-292.361 669.218,-291.585 667.177,-298.502 660.007,-299.277"/>
<text text-anchor="middle" x="564.5" y="-363.5" font-family="Helvetica,sans-Serif" font-size="10.00"> +index</text>
<text text-anchor="middle" x="564.5" y="-352.5" font-family="Helvetica,sans-Serif" font-size="10.00">+eventID</text>
<text text-anchor="middle" x="564.5" y="-341.5" font-family="Helvetica,sans-Serif" font-size="10.00">+seed</text>
</g>
<!-- Node17 -->
<g id="node17" class="node"><title>Node17</title>
<g id="a_node17"><a xlink:href="../../d4/db1/classo2_1_1dataformats_1_1MCEventHeader.html" target="_top" xlink:title="{o2::dataformats::MCEvent\lHeader\n||+ MCEventHeader()\l+ MCEventHeader()\l+ operator=()\l+ ~MCEventHeader()\l+ setEmbeddingFileName()\l+ setEmbeddingEventIndex()\l+ Reset()\l# ClassDefOverride()\l}">
<polygon fill="none" stroke="black" points="510.5,-390.5 510.5,-535.5 653.5,-535.5 653.5,-390.5 510.5,-390.5"/>
<text text-anchor="start" x="518.5" y="-523.5" font-family="Helvetica,sans-Serif" font-size="10.00">o2::dataformats::MCEvent</text>
<text text-anchor="middle" x="582" y="-512.5" font-family="Helvetica,sans-Serif" font-size="10.00">Header</text>
<polyline fill="none" stroke="black" points="510.5,-505.5 653.5,-505.5 "/>
<text text-anchor="middle" x="582" y="-493.5" font-family="Helvetica,sans-Serif" font-size="10.00"> </text>
<polyline fill="none" stroke="black" points="510.5,-486.5 653.5,-486.5 "/>
<text text-anchor="start" x="518.5" y="-474.5" font-family="Helvetica,sans-Serif" font-size="10.00">+ MCEventHeader()</text>
<text text-anchor="start" x="518.5" y="-463.5" font-family="Helvetica,sans-Serif" font-size="10.00">+ MCEventHeader()</text>
<text text-anchor="start" x="518.5" y="-452.5" font-family="Helvetica,sans-Serif" font-size="10.00">+ operator=()</text>
<text text-anchor="start" x="518.5" y="-441.5" font-family="Helvetica,sans-Serif" font-size="10.00">+ ~MCEventHeader()</text>
<text text-anchor="start" x="518.5" y="-430.5" font-family="Helvetica,sans-Serif" font-size="10.00">+ setEmbeddingFileName()</text>
<text text-anchor="start" x="518.5" y="-419.5" font-family="Helvetica,sans-Serif" font-size="10.00">+ setEmbeddingEventIndex()</text>
<text text-anchor="start" x="518.5" y="-408.5" font-family="Helvetica,sans-Serif" font-size="10.00">+ Reset()</text>
<text text-anchor="start" x="518.5" y="-397.5" font-family="Helvetica,sans-Serif" font-size="10.00"># ClassDefOverride()</text>
</a>
</g>
</g>
<!-- Node17&#45;&gt;Node15 -->
<g id="edge17" class="edge"><title>Node17&#45;&gt;Node15</title>
<path fill="none" stroke="#404040" d="M583.722,-390.273C586.719,-372.171 592.23,-353.494 602,-338 609.496,-326.112 616.758,-328.435 628,-320 636.697,-313.475 645.836,-306.298 654.513,-299.323"/>
<polygon fill="none" stroke="#404040" points="654.743,-299.136 656.885,-292.251 664.065,-291.58 661.923,-298.465 654.743,-299.136"/>
<text text-anchor="middle" x="647.5" y="-352.5" font-family="Helvetica,sans-Serif" font-size="10.00"> +mMCEventHeader</text>
</g>
<!-- Node18 -->
<g id="node18" class="node"><title>Node18</title>
<g id="a_node18"><a xlink:href="../../dd/d8f/classFairMCEventHeader.html" target="_top" xlink:title="{FairMCEventHeader\n||}">
<polygon fill="none" stroke="black" points="444,-627.5 444,-684.5 550,-684.5 550,-627.5 444,-627.5"/>
<text text-anchor="middle" x="497" y="-672.5" font-family="Helvetica,sans-Serif" font-size="10.00">FairMCEventHeader</text>
<polyline fill="none" stroke="black" points="444,-665.5 550,-665.5 "/>
<text text-anchor="middle" x="497" y="-653.5" font-family="Helvetica,sans-Serif" font-size="10.00"> </text>
<polyline fill="none" stroke="black" points="444,-646.5 550,-646.5 "/>
<text text-anchor="middle" x="497" y="-634.5" font-family="Helvetica,sans-Serif" font-size="10.00"> </text>
</a>
</g>
</g>
<!-- Node18&#45;&gt;Node17 -->
<g id="edge18" class="edge"><title>Node18&#45;&gt;Node17</title>
<path fill="none" stroke="midnightblue" d="M513.458,-618.017C523.872,-594.618 537.679,-563.591 550.172,-535.52"/>
<polygon fill="none" stroke="midnightblue" points="510.228,-616.668 509.36,-627.227 516.623,-619.514 510.228,-616.668"/>
</g>
<!-- Node19 -->
<g id="node19" class="node"><title>Node19</title>
<polygon fill="none" stroke="#bfbfbf" points="567.5,-627.5 567.5,-684.5 596.5,-684.5 596.5,-627.5 567.5,-627.5"/>
<text text-anchor="middle" x="582" y="-672.5" font-family="Helvetica,sans-Serif" font-size="10.00">int</text>
<polyline fill="none" stroke="#bfbfbf" points="567.5,-665.5 596.5,-665.5 "/>
<text text-anchor="middle" x="582" y="-653.5" font-family="Helvetica,sans-Serif" font-size="10.00"> </text>
<polyline fill="none" stroke="#bfbfbf" points="567.5,-646.5 596.5,-646.5 "/>
<text text-anchor="middle" x="582" y="-634.5" font-family="Helvetica,sans-Serif" font-size="10.00"> </text>
</g>
<!-- Node19&#45;&gt;Node17 -->
<g id="edge19" class="edge"><title>Node19&#45;&gt;Node17</title>
<path fill="none" stroke="#404040" d="M582,-627.227C582,-606.224 582,-576.216 582,-547.646"/>
<polygon fill="none" stroke="#404040" points="582,-547.52 578,-541.52 582,-535.52 586,-541.52 582,-547.52"/>
<text text-anchor="middle" x="636" y="-562.5" font-family="Helvetica,sans-Serif" font-size="10.00"> #mEmbeddingFileName</text>
</g>
<!-- Node20 -->
<g id="node20" class="node"><title>Node20</title>
<polygon fill="none" stroke="#bfbfbf" points="695,-627.5 695,-684.5 731,-684.5 731,-627.5 695,-627.5"/>
<text text-anchor="middle" x="713" y="-672.5" font-family="Helvetica,sans-Serif" font-size="10.00">Int_t</text>
<polyline fill="none" stroke="#bfbfbf" points="695,-665.5 731,-665.5 "/>
<text text-anchor="middle" x="713" y="-653.5" font-family="Helvetica,sans-Serif" font-size="10.00"> </text>
<polyline fill="none" stroke="#bfbfbf" points="695,-646.5 731,-646.5 "/>
<text text-anchor="middle" x="713" y="-634.5" font-family="Helvetica,sans-Serif" font-size="10.00"> </text>
</g>
<!-- Node20&#45;&gt;Node17 -->
<g id="edge20" class="edge"><title>Node20&#45;&gt;Node17</title>
<path fill="none" stroke="#404040" d="M712.708,-627.381C711.213,-605.652 706.218,-575.549 691,-554 683.89,-543.932 677.197,-544.356 664.084,-536.627"/>
<polygon fill="none" stroke="#404040" points="663.839,-536.462 656.628,-536.418 653.896,-529.745 661.107,-529.789 663.839,-536.462"/>
<text text-anchor="middle" x="759.5" y="-562.5" font-family="Helvetica,sans-Serif" font-size="10.00"> #mEmbeddingEventIndex</text>
</g>
<!-- Node21 -->
<g id="node21" class="node"><title>Node21</title>
<polygon fill="none" stroke="#bfbfbf" points="671.5,-434.5 671.5,-491.5 722.5,-491.5 722.5,-434.5 671.5,-434.5"/>
<text text-anchor="middle" x="697" y="-479.5" font-family="Helvetica,sans-Serif" font-size="10.00">uint16_t</text>
<polyline fill="none" stroke="#bfbfbf" points="671.5,-472.5 722.5,-472.5 "/>
<text text-anchor="middle" x="697" y="-460.5" font-family="Helvetica,sans-Serif" font-size="10.00"> </text>
<polyline fill="none" stroke="#bfbfbf" points="671.5,-453.5 722.5,-453.5 "/>
<text text-anchor="middle" x="697" y="-441.5" font-family="Helvetica,sans-Serif" font-size="10.00"> </text>
</g>
<!-- Node21&#45;&gt;Node15 -->
<g id="edge21" class="edge"><title>Node21&#45;&gt;Node15</title>
<path fill="none" stroke="#404040" d="M697,-434.469C697,-400.504 697,-342.508 697,-303.724"/>
<polygon fill="none" stroke="#404040" points="697,-303.616 693,-297.616 697,-291.616 701,-297.616 697,-303.616"/>
<text text-anchor="middle" x="714" y="-358" font-family="Helvetica,sans-Serif" font-size="10.00"> +part</text>
<text text-anchor="middle" x="714" y="-347" font-family="Helvetica,sans-Serif" font-size="10.00">+nparts</text>
</g>
<!-- Node22 -->
<g id="node22" class="node"><title>Node22</title>
<g id="a_node22"><a xlink:href="../../d4/dc3/classfloat.html" target="_top" xlink:title="{float\n||}">
<polygon fill="none" stroke="black" points="740.5,-434.5 740.5,-491.5 775.5,-491.5 775.5,-434.5 740.5,-434.5"/>
<text text-anchor="middle" x="758" y="-479.5" font-family="Helvetica,sans-Serif" font-size="10.00">float</text>
<polyline fill="none" stroke="black" points="740.5,-472.5 775.5,-472.5 "/>
<text text-anchor="middle" x="758" y="-460.5" font-family="Helvetica,sans-Serif" font-size="10.00"> </text>
<polyline fill="none" stroke="black" points="740.5,-453.5 775.5,-453.5 "/>
<text text-anchor="middle" x="758" y="-441.5" font-family="Helvetica,sans-Serif" font-size="10.00"> </text>
</a>
</g>
</g>
<!-- Node22&#45;&gt;Node15 -->
<g id="edge22" class="edge"><title>Node22&#45;&gt;Node15</title>
<path fill="none" stroke="#404040" d="M754.845,-434.354C751.423,-408.851 744.93,-370.182 734,-338 729.947,-326.065 724.325,-313.618 718.686,-302.412"/>
<polygon fill="none" stroke="#404040" points="718.642,-302.327 712.323,-298.853 713.099,-291.684 719.418,-295.158 718.642,-302.327"/>
<text text-anchor="middle" x="770" y="-352.5" font-family="Helvetica,sans-Serif" font-size="10.00"> +eventtime</text>
</g>
<!-- Node23 -->
<g id="node23" class="node"><title>Node23</title>
<polygon fill="none" stroke="#bfbfbf" points="808,-434.5 808,-491.5 854,-491.5 854,-434.5 808,-434.5"/>
<text text-anchor="middle" x="831" y="-479.5" font-family="Helvetica,sans-Serif" font-size="10.00">int32_t</text>
<polyline fill="none" stroke="#bfbfbf" points="808,-472.5 854,-472.5 "/>
<text text-anchor="middle" x="831" y="-460.5" font-family="Helvetica,sans-Serif" font-size="10.00"> </text>
<polyline fill="none" stroke="#bfbfbf" points="808,-453.5 854,-453.5 "/>
<text text-anchor="middle" x="831" y="-441.5" font-family="Helvetica,sans-Serif" font-size="10.00"> </text>
</g>
<!-- Node23&#45;&gt;Node15 -->
<g id="edge23" class="edge"><title>Node23&#45;&gt;Node15</title>
<path fill="none" stroke="#404040" d="M829.532,-434.404C826.931,-407.7 819.754,-367.1 800,-338 789.551,-322.608 774.779,-309.315 759.677,-298.412"/>
<polygon fill="none" stroke="#404040" points="759.639,-298.387 752.429,-298.289 749.746,-291.595 756.957,-291.693 759.639,-298.387"/>
<text text-anchor="middle" x="857" y="-363.5" font-family="Helvetica,sans-Serif" font-size="10.00"> +runID</text>
<text text-anchor="middle" x="857" y="-352.5" font-family="Helvetica,sans-Serif" font-size="10.00">+maxEvents</text>
<text text-anchor="middle" x="857" y="-341.5" font-family="Helvetica,sans-Serif" font-size="10.00">+npersistenttracks</text>
</g>
</g>
</svg>
        <g id="navigator" transform="translate(0 0)" fill="#404254">
                <rect fill="#f2f5e9" fill-opacity="0.5" stroke="#606060" stroke-width=".5" x="0" y="0" width="60" height="60"/>
                <use id="zoomplus" xlink:href="#zoomPlus" x="17" y="9" onmousedown="handleZoom(evt,'in')"/>
                <use id="zoomminus" xlink:href="#zoomMin" x="42" y="9" onmousedown="handleZoom(evt,'out')"/>
                <use id="reset" xlink:href="#resetDef" x="30" y="36" onmousedown="handleReset()"/>
                <g id="arrowUp" xlink:href="#dirArrow" transform="translate(30 24)" onmousedown="handlePan(0,-1)">
                  <use xlink:href="#rim" fill="#404040">
                        <set attributeName="fill" to="#808080" begin="arrowUp.mouseover" end="arrowUp.mouseout"/>
                  </use>
                  <path fill="none" stroke="white" stroke-width="1.5" d="M0,-3.0v7 M-2.5,-0.5L0,-3.0L2.5,-0.5"/>
                </g>
                <g id="arrowRight" xlink:href="#dirArrow" transform="rotate(90) translate(36 -43)" onmousedown="handlePan(1,0)">
                  <use xlink:href="#rim" fill="#404040">
                        <set attributeName="fill" to="#808080" begin="arrowRight.mouseover" end="arrowRight.mouseout"/>
                  </use>
                  <path fill="none" stroke="white" stroke-width="1.5" d="M0,-3.0v7 M-2.5,-0.5L0,-3.0L2.5,-0.5"/>
                </g>
                <g id="arrowDown" xlink:href="#dirArrow" transform="rotate(180) translate(-30 -48)" onmousedown="handlePan(0,1)">
                  <use xlink:href="#rim" fill="#404040">
                        <set attributeName="fill" to="#808080" begin="arrowDown.mouseover" end="arrowDown.mouseout"/>
                  </use>
                  <path fill="none" stroke="white" stroke-width="1.5" d="M0,-3.0v7 M-2.5,-0.5L0,-3.0L2.5,-0.5"/>
                </g>
                <g id="arrowLeft" xlink:href="#dirArrow" transform="rotate(270) translate(-36 17)" onmousedown="handlePan(-1,0)">
                  <use xlink:href="#rim" fill="#404040">
                        <set attributeName="fill" to="#808080" begin="arrowLeft.mouseover" end="arrowLeft.mouseout"/>
                  </use>
                  <path fill="none" stroke="white" stroke-width="1.5" d="M0,-3.0v7 M-2.5,-0.5L0,-3.0L2.5,-0.5"/>
                </g>
        </g>
        <svg viewBox="0 0 15 15" width="100%" height="30px" preserveAspectRatio="xMaxYMin meet">
         <g id="arrow_out" transform="scale(0.3 0.3)">
          <a xlink:href="classo2_1_1steer_1_1O2MCApplication__coll__graph_org.svg" target="_base">
           <rect id="button" ry="5" rx="5" y="6" x="6" height="38" width="38"
                fill="#f2f5e9" fill-opacity="0.5" stroke="#606060" stroke-width="1.0"/>
           <path id="arrow"
             d="M 11.500037,31.436501 C 11.940474,20.09759 22.043105,11.32322 32.158766,21.979434 L 37.068811,17.246167 C 37.068811,17.246167 37.088388,32 37.088388,32 L 22.160133,31.978069 C 22.160133,31.978069 26.997745,27.140456 26.997745,27.140456 C 18.528582,18.264221 13.291696,25.230495 11.500037,31.436501 z"
             style="fill:#404040;"/>
          </a>
         </g>
        </svg>
</svg>
