<?xml version="1.0" encoding="UTF-8" standalone="no"?>
<!DOCTYPE svg PUBLIC "-//W3C//DTD SVG 1.1//EN"
 "http://www.w3.org/Graphics/SVG/1.1/DTD/svg11.dtd">
<!-- Generated by graphviz version 2.36.0 (20140111.2315)
 -->
<!-- Title: /home/travis/build/AliceO2Group/AliceO2/Framework/Core/include/Framework/CallbackService.h Pages: 1 -->
<!--zoomable 332 -->
<svg id="main" version="1.1" xmlns="http://www.w3.org/2000/svg" xmlns:xlink="http://www.w3.org/1999/xlink" xml:space="preserve" onload="init(evt)">
<style type="text/css"><![CDATA[
.edge:hover path { stroke: red; }
.edge:hover polygon { stroke: red; fill: red; }
]]></style>
<script type="text/javascript"><![CDATA[
var edges = document.getElementsByTagName('g');
if (edges && edges.length) {
  for (var i=0;i<edges.length;i++) {
    if (edges[i].id.substr(0,4)=='edge') {
      edges[i].setAttribute('class','edge');
    }
  }
}
]]></script>
        <defs>
                <circle id="rim" cx="0" cy="0" r="7"/>
                <circle id="rim2" cx="0" cy="0" r="3.5"/>
                <g id="zoomPlus">
                        <use xlink:href="#rim" fill="#404040">
                                <set attributeName="fill" to="#808080" begin="zoomplus.mouseover" end="zoomplus.mouseout"/>
                        </use>
                        <path d="M-4,0h8M0,-4v8" fill="none" stroke="white" stroke-width="1.5" pointer-events="none"/>
                </g>
                <g id="zoomMin">
                        <use xlink:href="#rim" fill="#404040">
                                <set attributeName="fill" to="#808080" begin="zoomminus.mouseover" end="zoomminus.mouseout"/>
                        </use>
                        <path d="M-4,0h8" fill="none" stroke="white" stroke-width="1.5" pointer-events="none"/>
                </g>
                <g id="dirArrow">
                        <path fill="none" stroke="white" stroke-width="1.5" d="M0,-3.0v7 M-2.5,-0.5L0,-3.0L2.5,-0.5"/>
                </g>
               <g id="resetDef">
                       <use xlink:href="#rim2" fill="#404040">
                               <set attributeName="fill" to="#808080" begin="reset.mouseover" end="reset.mouseout"/>
                       </use>
               </g>
        </defs>

<script type="text/javascript">
var viewWidth = 3124;
var viewHeight = 332;
var sectionId = 'dynsection-1';
</script>
<script xlink:href="../../svgpan.js"/>
<svg id="graph" class="graph">
<g id="viewport">
<title>/home/travis/build/AliceO2Group/AliceO2/Framework/Core/include/Framework/CallbackService.h</title>
<!-- Node1 -->
<g id="node1" class="node"><title>Node1</title>
<polygon fill="#bfbfbf" stroke="black" points="1566.5,-271 1566.5,-323 1717.5,-323 1717.5,-271 1566.5,-271"/>
<text text-anchor="start" x="1574.5" y="-311" font-family="Helvetica,sans-Serif" font-size="10.00">/home/travis/build</text>
<text text-anchor="start" x="1574.5" y="-300" font-family="Helvetica,sans-Serif" font-size="10.00">/AliceO2Group/AliceO2</text>
<text text-anchor="start" x="1574.5" y="-289" font-family="Helvetica,sans-Serif" font-size="10.00">/Framework/Core/include</text>
<text text-anchor="middle" x="1642" y="-278" font-family="Helvetica,sans-Serif" font-size="10.00">/Framework/CallbackService.h</text>
</g>
<!-- Node2 -->
<g id="node2" class="node"><title>Node2</title>
<g id="a_node2"><a xlink:href="../../db/dac/DataProcessingDevice_8cxx.html" target="_top" xlink:title="/home/travis/build\l/AliceO2Group/AliceO2\l/Framework/Core/src/DataProcessing\lDevice.cxx">
<polygon fill="none" stroke="black" points="0,-181 0,-233 182,-233 182,-181 0,-181"/>
<text text-anchor="start" x="8" y="-221" font-family="Helvetica,sans-Serif" font-size="10.00">/home/travis/build</text>
<text text-anchor="start" x="8" y="-210" font-family="Helvetica,sans-Serif" font-size="10.00">/AliceO2Group/AliceO2</text>
<text text-anchor="start" x="8" y="-199" font-family="Helvetica,sans-Serif" font-size="10.00">/Framework/Core/src/DataProcessing</text>
<text text-anchor="middle" x="91" y="-188" font-family="Helvetica,sans-Serif" font-size="10.00">Device.cxx</text>
</a>
</g>
</g>
<!-- Node1&#45;&gt;Node2 -->
<g id="edge1" class="edge"><title>Node1&#45;&gt;Node2</title>
<path fill="none" stroke="midnightblue" d="M1555.93,-294.712C1285.75,-290.292 456.739,-273.765 191,-234 188.073,-233.562 185.107,-233.072 182.121,-232.54"/>
<polygon fill="midnightblue" stroke="midnightblue" points="1556.02,-298.214 1566.07,-294.876 1556.13,-291.215 1556.02,-298.214"/>
</g>
<!-- Node3 -->
<g id="node3" class="node"><title>Node3</title>
<g id="a_node3"><a xlink:href="../../d0/d9f/DataSourceDevice_8cxx.html" target="_top" xlink:title="/home/travis/build\l/AliceO2Group/AliceO2\l/Framework/Core/src/DataSource\lDevice.cxx">
<polygon fill="none" stroke="black" points="200,-181 200,-233 364,-233 364,-181 200,-181"/>
<text text-anchor="start" x="208" y="-221" font-family="Helvetica,sans-Serif" font-size="10.00">/home/travis/build</text>
<text text-anchor="start" x="208" y="-210" font-family="Helvetica,sans-Serif" font-size="10.00">/AliceO2Group/AliceO2</text>
<text text-anchor="start" x="208" y="-199" font-family="Helvetica,sans-Serif" font-size="10.00">/Framework/Core/src/DataSource</text>
<text text-anchor="middle" x="282" y="-188" font-family="Helvetica,sans-Serif" font-size="10.00">Device.cxx</text>
</a>
</g>
</g>
<!-- Node1&#45;&gt;Node3 -->
<g id="edge2" class="edge"><title>Node1&#45;&gt;Node3</title>
<path fill="none" stroke="midnightblue" d="M1555.88,-294.366C1308.94,-289.271 601.496,-271.709 373,-234 370.082,-233.518 367.124,-232.976 364.147,-232.384"/>
<polygon fill="midnightblue" stroke="midnightblue" points="1556.17,-297.872 1566.24,-294.578 1556.31,-290.874 1556.17,-297.872"/>
</g>
<!-- Node4 -->
<g id="node4" class="node"><title>Node4</title>
<g id="a_node4"><a xlink:href="../../d7/d54/runDataProcessing_8cxx.html" target="_top" xlink:title="/home/travis/build\l/AliceO2Group/AliceO2\l/Framework/Core/src/runDataProcessing.cxx">
<polygon fill="none" stroke="black" points="382,-186.5 382,-227.5 596,-227.5 596,-186.5 382,-186.5"/>
<text text-anchor="start" x="390" y="-215.5" font-family="Helvetica,sans-Serif" font-size="10.00">/home/travis/build</text>
<text text-anchor="start" x="390" y="-204.5" font-family="Helvetica,sans-Serif" font-size="10.00">/AliceO2Group/AliceO2</text>
<text text-anchor="middle" x="489" y="-193.5" font-family="Helvetica,sans-Serif" font-size="10.00">/Framework/Core/src/runDataProcessing.cxx</text>
</a>
</g>
</g>
<!-- Node1&#45;&gt;Node4 -->
<g id="edge3" class="edge"><title>Node1&#45;&gt;Node4</title>
<path fill="none" stroke="midnightblue" d="M1556.35,-295.524C1378.3,-293.515 955.595,-283.444 605,-234 593.045,-232.314 580.496,-230.041 568.249,-227.537"/>
<polygon fill="midnightblue" stroke="midnightblue" points="1556.4,-299.025 1566.44,-295.632 1556.48,-292.025 1556.4,-299.025"/>
</g>
<!-- Node5 -->
<g id="node5" class="node"><title>Node5</title>
<g id="a_node5"><a xlink:href="../../dc/d58/test__BoostSerializedProcessing_8cxx.html" target="_top" xlink:title="/home/travis/build\l/AliceO2Group/AliceO2\l/Framework/Core/test/test\l_BoostSerializedProcessing.cxx">
<polygon fill="none" stroke="black" points="614,-181 614,-233 772,-233 772,-181 614,-181"/>
<text text-anchor="start" x="622" y="-221" font-family="Helvetica,sans-Serif" font-size="10.00">/home/travis/build</text>
<text text-anchor="start" x="622" y="-210" font-family="Helvetica,sans-Serif" font-size="10.00">/AliceO2Group/AliceO2</text>
<text text-anchor="start" x="622" y="-199" font-family="Helvetica,sans-Serif" font-size="10.00">/Framework/Core/test/test</text>
<text text-anchor="middle" x="693" y="-188" font-family="Helvetica,sans-Serif" font-size="10.00">_BoostSerializedProcessing.cxx</text>
</a>
</g>
</g>
<!-- Node1&#45;&gt;Node5 -->
<g id="edge4" class="edge"><title>Node1&#45;&gt;Node5</title>
<path fill="none" stroke="midnightblue" d="M1555.83,-295.809C1400.09,-294.134 1061.93,-284.389 782,-234 778.831,-233.43 775.615,-232.79 772.377,-232.095"/>
<polygon fill="midnightblue" stroke="midnightblue" points="1556.24,-299.313 1566.27,-295.912 1556.31,-292.314 1556.24,-299.313"/>
</g>
<!-- Node6 -->
<g id="node6" class="node"><title>Node6</title>
<g id="a_node6"><a xlink:href="../../db/d30/test__CallbackService_8cxx.html" target="_top" xlink:title="/home/travis/build\l/AliceO2Group/AliceO2\l/Framework/Core/test/test\l_CallbackService.cxx">
<polygon fill="none" stroke="black" points="790.5,-181 790.5,-233 921.5,-233 921.5,-181 790.5,-181"/>
<text text-anchor="start" x="798.5" y="-221" font-family="Helvetica,sans-Serif" font-size="10.00">/home/travis/build</text>
<text text-anchor="start" x="798.5" y="-210" font-family="Helvetica,sans-Serif" font-size="10.00">/AliceO2Group/AliceO2</text>
<text text-anchor="start" x="798.5" y="-199" font-family="Helvetica,sans-Serif" font-size="10.00">/Framework/Core/test/test</text>
<text text-anchor="middle" x="856" y="-188" font-family="Helvetica,sans-Serif" font-size="10.00">_CallbackService.cxx</text>
</a>
</g>
</g>
<!-- Node1&#45;&gt;Node6 -->
<g id="edge5" class="edge"><title>Node1&#45;&gt;Node6</title>
<path fill="none" stroke="midnightblue" d="M1556.12,-295.31C1421.45,-292.711 1153.02,-281.402 931,-234 927.9,-233.338 924.752,-232.585 921.589,-231.763"/>
<polygon fill="midnightblue" stroke="midnightblue" points="1556.31,-298.813 1566.37,-295.495 1556.44,-291.815 1556.31,-298.813"/>
</g>
<!-- Node7 -->
<g id="node7" class="node"><title>Node7</title>
<g id="a_node7"><a xlink:href="../../d5/d47/test__CustomGUIGL_8cxx.html" target="_top" xlink:title="/home/travis/build\l/AliceO2Group/AliceO2\l/Framework/Core/test/test\l_CustomGUIGL.cxx">
<polygon fill="none" stroke="black" points="939.5,-181 939.5,-233 1070.5,-233 1070.5,-181 939.5,-181"/>
<text text-anchor="start" x="947.5" y="-221" font-family="Helvetica,sans-Serif" font-size="10.00">/home/travis/build</text>
<text text-anchor="start" x="947.5" y="-210" font-family="Helvetica,sans-Serif" font-size="10.00">/AliceO2Group/AliceO2</text>
<text text-anchor="start" x="947.5" y="-199" font-family="Helvetica,sans-Serif" font-size="10.00">/Framework/Core/test/test</text>
<text text-anchor="middle" x="1005" y="-188" font-family="Helvetica,sans-Serif" font-size="10.00">_CustomGUIGL.cxx</text>
</a>
</g>
</g>
<!-- Node1&#45;&gt;Node7 -->
<g id="edge6" class="edge"><title>Node1&#45;&gt;Node7</title>
<path fill="none" stroke="midnightblue" d="M1555.97,-292.489C1444.85,-286.597 1245.98,-271.429 1080,-234 1076.91,-233.303 1073.77,-232.521 1070.61,-231.675"/>
<polygon fill="midnightblue" stroke="midnightblue" points="1555.95,-295.993 1566.12,-293.014 1556.31,-289.002 1555.95,-295.993"/>
</g>
<!-- Node8 -->
<g id="node8" class="node"><title>Node8</title>
<g id="a_node8"><a xlink:href="../../d6/dd1/test__CustomGUISokol_8cxx.html" target="_top" xlink:title="/home/travis/build\l/AliceO2Group/AliceO2\l/Framework/Core/test/test\l_CustomGUISokol.cxx">
<polygon fill="none" stroke="black" points="1088.5,-181 1088.5,-233 1219.5,-233 1219.5,-181 1088.5,-181"/>
<text text-anchor="start" x="1096.5" y="-221" font-family="Helvetica,sans-Serif" font-size="10.00">/home/travis/build</text>
<text text-anchor="start" x="1096.5" y="-210" font-family="Helvetica,sans-Serif" font-size="10.00">/AliceO2Group/AliceO2</text>
<text text-anchor="start" x="1096.5" y="-199" font-family="Helvetica,sans-Serif" font-size="10.00">/Framework/Core/test/test</text>
<text text-anchor="middle" x="1154" y="-188" font-family="Helvetica,sans-Serif" font-size="10.00">_CustomGUISokol.cxx</text>
</a>
</g>
</g>
<!-- Node1&#45;&gt;Node8 -->
<g id="edge7" class="edge"><title>Node1&#45;&gt;Node8</title>
<path fill="none" stroke="midnightblue" d="M1556.17,-287.791C1472.01,-278.649 1340.46,-261.436 1229,-234 1225.92,-233.242 1222.79,-232.411 1219.64,-231.525"/>
<polygon fill="midnightblue" stroke="midnightblue" points="1555.88,-291.28 1566.2,-288.866 1556.63,-284.32 1555.88,-291.28"/>
</g>
<!-- Node9 -->
<g id="node9" class="node"><title>Node9</title>
<g id="a_node9"><a xlink:href="../../dd/d19/test__Services_8cxx.html" target="_top" xlink:title="/home/travis/build\l/AliceO2Group/AliceO2\l/Framework/Core/test/test\l_Services.cxx">
<polygon fill="none" stroke="black" points="1237.5,-181 1237.5,-233 1368.5,-233 1368.5,-181 1237.5,-181"/>
<text text-anchor="start" x="1245.5" y="-221" font-family="Helvetica,sans-Serif" font-size="10.00">/home/travis/build</text>
<text text-anchor="start" x="1245.5" y="-210" font-family="Helvetica,sans-Serif" font-size="10.00">/AliceO2Group/AliceO2</text>
<text text-anchor="start" x="1245.5" y="-199" font-family="Helvetica,sans-Serif" font-size="10.00">/Framework/Core/test/test</text>
<text text-anchor="middle" x="1303" y="-188" font-family="Helvetica,sans-Serif" font-size="10.00">_Services.cxx</text>
</a>
</g>
</g>
<!-- Node1&#45;&gt;Node9 -->
<g id="edge8" class="edge"><title>Node1&#45;&gt;Node9</title>
<path fill="none" stroke="midnightblue" d="M1556.51,-278.265C1504.55,-266.906 1437.05,-251.119 1378,-234 1374.96,-233.117 1371.85,-232.184 1368.73,-231.215"/>
<polygon fill="midnightblue" stroke="midnightblue" points="1555.84,-281.701 1566.36,-280.405 1557.33,-274.861 1555.84,-281.701"/>
</g>
<!-- Node10 -->
<g id="node10" class="node"><title>Node10</title>
<g id="a_node10"><a xlink:href="../../da/d12/test__SimpleStatefulProcessing01_8cxx.html" target="_top" xlink:title="/home/travis/build\l/AliceO2Group/AliceO2\l/Framework/Core/test/test\l_SimpleStatefulProcessing01.cxx">
<polygon fill="none" stroke="black" points="1387,-181 1387,-233 1551,-233 1551,-181 1387,-181"/>
<text text-anchor="start" x="1395" y="-221" font-family="Helvetica,sans-Serif" font-size="10.00">/home/travis/build</text>
<text text-anchor="start" x="1395" y="-210" font-family="Helvetica,sans-Serif" font-size="10.00">/AliceO2Group/AliceO2</text>
<text text-anchor="start" x="1395" y="-199" font-family="Helvetica,sans-Serif" font-size="10.00">/Framework/Core/test/test</text>
<text text-anchor="middle" x="1469" y="-188" font-family="Helvetica,sans-Serif" font-size="10.00">_SimpleStatefulProcessing01.cxx</text>
</a>
</g>
</g>
<!-- Node1&#45;&gt;Node10 -->
<g id="edge9" class="edge"><title>Node1&#45;&gt;Node10</title>
<path fill="none" stroke="midnightblue" d="M1583.23,-266.105C1562.11,-255.36 1538.52,-243.361 1518.28,-233.069"/>
<polygon fill="midnightblue" stroke="midnightblue" points="1581.93,-269.368 1592.43,-270.783 1585.1,-263.129 1581.93,-269.368"/>
</g>
<!-- Node11 -->
<g id="node11" class="node"><title>Node11</title>
<g id="a_node11"><a xlink:href="../../d4/d92/test__SimpleStringProcessing_8cxx.html" target="_top" xlink:title="/home/travis/build\l/AliceO2Group/AliceO2\l/Framework/Core/test/test\l_SimpleStringProcessing.cxx">
<polygon fill="none" stroke="black" points="1569.5,-181 1569.5,-233 1714.5,-233 1714.5,-181 1569.5,-181"/>
<text text-anchor="start" x="1577.5" y="-221" font-family="Helvetica,sans-Serif" font-size="10.00">/home/travis/build</text>
<text text-anchor="start" x="1577.5" y="-210" font-family="Helvetica,sans-Serif" font-size="10.00">/AliceO2Group/AliceO2</text>
<text text-anchor="start" x="1577.5" y="-199" font-family="Helvetica,sans-Serif" font-size="10.00">/Framework/Core/test/test</text>
<text text-anchor="middle" x="1642" y="-188" font-family="Helvetica,sans-Serif" font-size="10.00">_SimpleStringProcessing.cxx</text>
</a>
</g>
</g>
<!-- Node1&#45;&gt;Node11 -->
<g id="edge10" class="edge"><title>Node1&#45;&gt;Node11</title>
<path fill="none" stroke="midnightblue" d="M1642,-260.489C1642,-251.309 1642,-241.616 1642,-233.092"/>
<polygon fill="midnightblue" stroke="midnightblue" points="1638.5,-260.547 1642,-270.547 1645.5,-260.547 1638.5,-260.547"/>
</g>
<!-- Node12 -->
<g id="node12" class="node"><title>Node12</title>
<g id="a_node12"><a xlink:href="../../d5/dc8/MakeRootTreeWriterSpec_8h.html" target="_top" xlink:title="Configurable generator for RootTreeWriter processor spec. ">
<polygon fill="none" stroke="black" points="1771,-181 1771,-233 1935,-233 1935,-181 1771,-181"/>
<text text-anchor="start" x="1779" y="-221" font-family="Helvetica,sans-Serif" font-size="10.00">/home/travis/build</text>
<text text-anchor="start" x="1779" y="-210" font-family="Helvetica,sans-Serif" font-size="10.00">/AliceO2Group/AliceO2</text>
<text text-anchor="start" x="1779" y="-199" font-family="Helvetica,sans-Serif" font-size="10.00">/Framework/Utils/include</text>
<text text-anchor="middle" x="1853" y="-188" font-family="Helvetica,sans-Serif" font-size="10.00">/Utils/MakeRootTreeWriterSpec.h</text>
</a>
</g>
</g>
<!-- Node1&#45;&gt;Node12 -->
<g id="edge11" class="edge"><title>Node1&#45;&gt;Node12</title>
<path fill="none" stroke="midnightblue" d="M1711.67,-266.942C1737.89,-256.008 1767.45,-243.679 1792.74,-233.133"/>
<polygon fill="midnightblue" stroke="midnightblue" points="1710.06,-263.821 1702.18,-270.901 1712.76,-270.281 1710.06,-263.821"/>
</g>
<!-- Node15 -->
<g id="node15" class="node"><title>Node15</title>
<g id="a_node15"><a xlink:href="../../d1/d02/test__RootTreeWriterWorkflow_8cxx.html" target="_top" xlink:title="/home/travis/build\l/AliceO2Group/AliceO2\l/Framework/Utils/test\l/test_RootTreeWriterWorkflow.cxx">
<polygon fill="none" stroke="black" points="1457,-91 1457,-143 1625,-143 1625,-91 1457,-91"/>
<text text-anchor="start" x="1465" y="-131" font-family="Helvetica,sans-Serif" font-size="10.00">/home/travis/build</text>
<text text-anchor="start" x="1465" y="-120" font-family="Helvetica,sans-Serif" font-size="10.00">/AliceO2Group/AliceO2</text>
<text text-anchor="start" x="1465" y="-109" font-family="Helvetica,sans-Serif" font-size="10.00">/Framework/Utils/test</text>
<text text-anchor="middle" x="1541" y="-98" font-family="Helvetica,sans-Serif" font-size="10.00">/test_RootTreeWriterWorkflow.cxx</text>
</a>
</g>
</g>
<!-- Node1&#45;&gt;Node15 -->
<g id="edge21" class="edge"><title>Node1&#45;&gt;Node15</title>
<path fill="none" stroke="midnightblue" d="M1697.44,-264.674C1707.75,-256.135 1717.13,-245.894 1723,-234 1733.63,-212.481 1736.97,-199.516 1723,-180 1716.67,-171.161 1669.67,-155.267 1625.02,-141.785"/>
<polygon fill="midnightblue" stroke="midnightblue" points="1695.18,-261.991 1689.4,-270.87 1699.46,-267.534 1695.18,-261.991"/>
</g>
<!-- Node20 -->
<g id="node20" class="node"><title>Node20</title>
<g id="a_node20"><a xlink:href="../../d9/db2/EMCALDigitWriterSpec_8cxx.html" target="_top" xlink:title="/home/travis/build\l/AliceO2Group/AliceO2\l/Steer/DigitizerWorkflow\l/src/EMCALDigitWriterSpec.cxx">
<polygon fill="none" stroke="black" points="1953,-181 1953,-233 2111,-233 2111,-181 1953,-181"/>
<text text-anchor="start" x="1961" y="-221" font-family="Helvetica,sans-Serif" font-size="10.00">/home/travis/build</text>
<text text-anchor="start" x="1961" y="-210" font-family="Helvetica,sans-Serif" font-size="10.00">/AliceO2Group/AliceO2</text>
<text text-anchor="start" x="1961" y="-199" font-family="Helvetica,sans-Serif" font-size="10.00">/Steer/DigitizerWorkflow</text>
<text text-anchor="middle" x="2032" y="-188" font-family="Helvetica,sans-Serif" font-size="10.00">/src/EMCALDigitWriterSpec.cxx</text>
</a>
</g>
</g>
<!-- Node1&#45;&gt;Node20 -->
<g id="edge22" class="edge"><title>Node1&#45;&gt;Node20</title>
<path fill="none" stroke="midnightblue" d="M1727.72,-280.409C1788.41,-268.883 1871.57,-252.1 1944,-234 1946.94,-233.266 1949.92,-232.498 1952.93,-231.705"/>
<polygon fill="midnightblue" stroke="midnightblue" points="1726.97,-276.988 1717.8,-282.285 1728.27,-283.867 1726.97,-276.988"/>
</g>
<!-- Node21 -->
<g id="node21" class="node"><title>Node21</title>
<g id="a_node21"><a xlink:href="../../d9/d87/FITDigitWriterSpec_8cxx.html" target="_top" xlink:title="/home/travis/build\l/AliceO2Group/AliceO2\l/Steer/DigitizerWorkflow\l/src/FITDigitWriterSpec.cxx">
<polygon fill="none" stroke="black" points="2129.5,-181 2129.5,-233 2268.5,-233 2268.5,-181 2129.5,-181"/>
<text text-anchor="start" x="2137.5" y="-221" font-family="Helvetica,sans-Serif" font-size="10.00">/home/travis/build</text>
<text text-anchor="start" x="2137.5" y="-210" font-family="Helvetica,sans-Serif" font-size="10.00">/AliceO2Group/AliceO2</text>
<text text-anchor="start" x="2137.5" y="-199" font-family="Helvetica,sans-Serif" font-size="10.00">/Steer/DigitizerWorkflow</text>
<text text-anchor="middle" x="2199" y="-188" font-family="Helvetica,sans-Serif" font-size="10.00">/src/FITDigitWriterSpec.cxx</text>
</a>
</g>
</g>
<!-- Node1&#45;&gt;Node21 -->
<g id="edge23" class="edge"><title>Node1&#45;&gt;Node21</title>
<path fill="none" stroke="midnightblue" d="M1727.77,-289.661C1823.91,-281.447 1984,-264.435 2119,-234 2122.42,-233.229 2125.9,-232.374 2129.4,-231.458"/>
<polygon fill="midnightblue" stroke="midnightblue" points="1727.19,-286.197 1717.52,-290.524 1727.78,-293.172 1727.19,-286.197"/>
</g>
<!-- Node22 -->
<g id="node22" class="node"><title>Node22</title>
<g id="a_node22"><a xlink:href="../../d9/d59/GRPUpdaterSpec_8cxx.html" target="_top" xlink:title="/home/travis/build\l/AliceO2Group/AliceO2\l/Steer/DigitizerWorkflow\l/src/GRPUpdaterSpec.cxx">
<polygon fill="none" stroke="black" points="2287,-181 2287,-233 2421,-233 2421,-181 2287,-181"/>
<text text-anchor="start" x="2295" y="-221" font-family="Helvetica,sans-Serif" font-size="10.00">/home/travis/build</text>
<text text-anchor="start" x="2295" y="-210" font-family="Helvetica,sans-Serif" font-size="10.00">/AliceO2Group/AliceO2</text>
<text text-anchor="start" x="2295" y="-199" font-family="Helvetica,sans-Serif" font-size="10.00">/Steer/DigitizerWorkflow</text>
<text text-anchor="middle" x="2354" y="-188" font-family="Helvetica,sans-Serif" font-size="10.00">/src/GRPUpdaterSpec.cxx</text>
</a>
</g>
</g>
<!-- Node1&#45;&gt;Node22 -->
<g id="edge24" class="edge"><title>Node1&#45;&gt;Node22</title>
<path fill="none" stroke="midnightblue" d="M1727.74,-293.822C1850.64,-289.307 2083.44,-275.556 2277,-234 2280.17,-233.319 2283.4,-232.55 2286.64,-231.715"/>
<polygon fill="midnightblue" stroke="midnightblue" points="1727.5,-290.328 1717.64,-294.182 1727.75,-297.324 1727.5,-290.328"/>
</g>
<!-- Node23 -->
<g id="node23" class="node"><title>Node23</title>
<g id="a_node23"><a xlink:href="../../df/d17/ITSMFTDigitWriterSpec_8cxx.html" target="_top" xlink:title="/home/travis/build\l/AliceO2Group/AliceO2\l/Steer/DigitizerWorkflow\l/src/ITSMFTDigitWriterSpec.cxx">
<polygon fill="none" stroke="black" points="2439,-181 2439,-233 2599,-233 2599,-181 2439,-181"/>
<text text-anchor="start" x="2447" y="-221" font-family="Helvetica,sans-Serif" font-size="10.00">/home/travis/build</text>
<text text-anchor="start" x="2447" y="-210" font-family="Helvetica,sans-Serif" font-size="10.00">/AliceO2Group/AliceO2</text>
<text text-anchor="start" x="2447" y="-199" font-family="Helvetica,sans-Serif" font-size="10.00">/Steer/DigitizerWorkflow</text>
<text text-anchor="middle" x="2519" y="-188" font-family="Helvetica,sans-Serif" font-size="10.00">/src/ITSMFTDigitWriterSpec.cxx</text>
</a>
</g>
</g>
<!-- Node1&#45;&gt;Node23 -->
<g id="edge25" class="edge"><title>Node1&#45;&gt;Node23</title>
<path fill="none" stroke="midnightblue" d="M1727.84,-295.004C1873.43,-292.036 2177.58,-280.291 2430,-234 2432.85,-233.477 2435.74,-232.9 2438.65,-232.277"/>
<polygon fill="midnightblue" stroke="midnightblue" points="1727.57,-291.509 1717.64,-295.203 1727.7,-298.508 1727.57,-291.509"/>
</g>
<!-- Node24 -->
<g id="node24" class="node"><title>Node24</title>
<g id="a_node24"><a xlink:href="../../d5/d8f/TOFClusterWriterSpec_8cxx.html" target="_top" xlink:title="/home/travis/build\l/AliceO2Group/AliceO2\l/Steer/DigitizerWorkflow\l/src/TOFClusterWriterSpec.cxx">
<polygon fill="none" stroke="black" points="2617.5,-181 2617.5,-233 2772.5,-233 2772.5,-181 2617.5,-181"/>
<text text-anchor="start" x="2625.5" y="-221" font-family="Helvetica,sans-Serif" font-size="10.00">/home/travis/build</text>
<text text-anchor="start" x="2625.5" y="-210" font-family="Helvetica,sans-Serif" font-size="10.00">/AliceO2Group/AliceO2</text>
<text text-anchor="start" x="2625.5" y="-199" font-family="Helvetica,sans-Serif" font-size="10.00">/Steer/DigitizerWorkflow</text>
<text text-anchor="middle" x="2695" y="-188" font-family="Helvetica,sans-Serif" font-size="10.00">/src/TOFClusterWriterSpec.cxx</text>
</a>
</g>
</g>
<!-- Node1&#45;&gt;Node24 -->
<g id="edge26" class="edge"><title>Node1&#45;&gt;Node24</title>
<path fill="none" stroke="midnightblue" d="M1727.65,-296.966C1897.17,-297.459 2286.82,-291.532 2608,-234 2611.1,-233.444 2614.25,-232.816 2617.42,-232.131"/>
<polygon fill="midnightblue" stroke="midnightblue" points="1727.55,-293.466 1717.54,-296.928 1727.53,-300.465 1727.55,-293.466"/>
</g>
<!-- Node25 -->
<g id="node25" class="node"><title>Node25</title>
<g id="a_node25"><a xlink:href="../../d1/d80/TOFDigitWriterSpec_8cxx.html" target="_top" xlink:title="/home/travis/build\l/AliceO2Group/AliceO2\l/Steer/DigitizerWorkflow\l/src/TOFDigitWriterSpec.cxx">
<polygon fill="none" stroke="black" points="2790.5,-181 2790.5,-233 2933.5,-233 2933.5,-181 2790.5,-181"/>
<text text-anchor="start" x="2798.5" y="-221" font-family="Helvetica,sans-Serif" font-size="10.00">/home/travis/build</text>
<text text-anchor="start" x="2798.5" y="-210" font-family="Helvetica,sans-Serif" font-size="10.00">/AliceO2Group/AliceO2</text>
<text text-anchor="start" x="2798.5" y="-199" font-family="Helvetica,sans-Serif" font-size="10.00">/Steer/DigitizerWorkflow</text>
<text text-anchor="middle" x="2862" y="-188" font-family="Helvetica,sans-Serif" font-size="10.00">/src/TOFDigitWriterSpec.cxx</text>
</a>
</g>
</g>
<!-- Node1&#45;&gt;Node25 -->
<g id="edge27" class="edge"><title>Node1&#45;&gt;Node25</title>
<path fill="none" stroke="midnightblue" d="M1728.02,-294.168C1957.25,-288.83 2579.13,-271.253 2781,-234 2784.05,-233.437 2787.14,-232.792 2790.26,-232.081"/>
<polygon fill="midnightblue" stroke="midnightblue" points="1727.64,-290.675 1717.73,-294.405 1727.8,-297.673 1727.64,-290.675"/>
</g>
<!-- Node26 -->
<g id="node26" class="node"><title>Node26</title>
<g id="a_node26"><a xlink:href="../../d8/dd2/TPCDigitRootWriterSpec_8cxx.html" target="_top" xlink:title="/home/travis/build\l/AliceO2Group/AliceO2\l/Steer/DigitizerWorkflow\l/src/TPCDigitRootWriterSpec.cxx">
<polygon fill="none" stroke="black" points="2951.5,-181 2951.5,-233 3116.5,-233 3116.5,-181 2951.5,-181"/>
<text text-anchor="start" x="2959.5" y="-221" font-family="Helvetica,sans-Serif" font-size="10.00">/home/travis/build</text>
<text text-anchor="start" x="2959.5" y="-210" font-family="Helvetica,sans-Serif" font-size="10.00">/AliceO2Group/AliceO2</text>
<text text-anchor="start" x="2959.5" y="-199" font-family="Helvetica,sans-Serif" font-size="10.00">/Steer/DigitizerWorkflow</text>
<text text-anchor="middle" x="3034" y="-188" font-family="Helvetica,sans-Serif" font-size="10.00">/src/TPCDigitRootWriterSpec.cxx</text>
</a>
</g>
</g>
<!-- Node1&#45;&gt;Node26 -->
<g id="edge28" class="edge"><title>Node1&#45;&gt;Node26</title>
<path fill="none" stroke="midnightblue" d="M1728.07,-294.451C1979.05,-289.529 2707.19,-272.265 2942,-234 2945.11,-233.493 2948.27,-232.918 2951.45,-232.287"/>
<polygon fill="midnightblue" stroke="midnightblue" points="1727.84,-290.955 1717.91,-294.649 1727.97,-297.953 1727.84,-290.955"/>
</g>
<!-- Node13 -->
<g id="node13" class="node"><title>Node13</title>
<g id="a_node13"><a xlink:href="../../d0/d80/TPC_2workflow_2src_2RecoWorkflow_8cxx.html" target="_top" xlink:title="/home/travis/build\l/AliceO2Group/AliceO2\l/Detectors/TPC/workflow\l/src/RecoWorkflow.cxx">
<polygon fill="none" stroke="black" points="1643,-91 1643,-143 1771,-143 1771,-91 1643,-91"/>
<text text-anchor="start" x="1651" y="-131" font-family="Helvetica,sans-Serif" font-size="10.00">/home/travis/build</text>
<text text-anchor="start" x="1651" y="-120" font-family="Helvetica,sans-Serif" font-size="10.00">/AliceO2Group/AliceO2</text>
<text text-anchor="start" x="1651" y="-109" font-family="Helvetica,sans-Serif" font-size="10.00">/Detectors/TPC/workflow</text>
<text text-anchor="middle" x="1707" y="-98" font-family="Helvetica,sans-Serif" font-size="10.00">/src/RecoWorkflow.cxx</text>
</a>
</g>
</g>
<!-- Node12&#45;&gt;Node13 -->
<g id="edge12" class="edge"><title>Node12&#45;&gt;Node13</title>
<path fill="none" stroke="midnightblue" d="M1802.2,-175.38C1784.68,-164.823 1765.28,-153.13 1748.59,-143.069"/>
<polygon fill="midnightblue" stroke="midnightblue" points="1800.79,-178.618 1811.16,-180.783 1804.4,-172.623 1800.79,-178.618"/>
</g>
<!-- Node14 -->
<g id="node14" class="node"><title>Node14</title>
<g id="a_node14"><a xlink:href="../../da/dcf/test__RootTreeWriter_8cxx.html" target="_top" xlink:title="/home/travis/build\l/AliceO2Group/AliceO2\l/Framework/Utils/test\l/test_RootTreeWriter.cxx">
<polygon fill="none" stroke="black" points="1789.5,-91 1789.5,-143 1916.5,-143 1916.5,-91 1789.5,-91"/>
<text text-anchor="start" x="1797.5" y="-131" font-family="Helvetica,sans-Serif" font-size="10.00">/home/travis/build</text>
<text text-anchor="start" x="1797.5" y="-120" font-family="Helvetica,sans-Serif" font-size="10.00">/AliceO2Group/AliceO2</text>
<text text-anchor="start" x="1797.5" y="-109" font-family="Helvetica,sans-Serif" font-size="10.00">/Framework/Utils/test</text>
<text text-anchor="middle" x="1853" y="-98" font-family="Helvetica,sans-Serif" font-size="10.00">/test_RootTreeWriter.cxx</text>
</a>
</g>
</g>
<!-- Node12&#45;&gt;Node14 -->
<g id="edge13" class="edge"><title>Node12&#45;&gt;Node14</title>
<path fill="none" stroke="midnightblue" d="M1853,-170.489C1853,-161.309 1853,-151.616 1853,-143.092"/>
<polygon fill="midnightblue" stroke="midnightblue" points="1849.5,-170.547 1853,-180.547 1856.5,-170.547 1849.5,-170.547"/>
</g>
<!-- Node12&#45;&gt;Node15 -->
<g id="edge14" class="edge"><title>Node12&#45;&gt;Node15</title>
<path fill="none" stroke="midnightblue" d="M1760.73,-179.976C1717.8,-167.866 1667.09,-153.563 1625.2,-141.75"/>
<polygon fill="midnightblue" stroke="midnightblue" points="1760.04,-183.418 1770.62,-182.764 1761.94,-176.681 1760.04,-183.418"/>
</g>
<!-- Node16 -->
<g id="node16" class="node"><title>Node16</title>
<g id="a_node16"><a xlink:href="../../d5/d5b/HMPIDDigitWriterSpec_8h.html" target="_top" xlink:title="/home/travis/build\l/AliceO2Group/AliceO2\l/Steer/DigitizerWorkflow\l/src/HMPIDDigitWriterSpec.h">
<polygon fill="none" stroke="black" points="1935,-91 1935,-143 2081,-143 2081,-91 1935,-91"/>
<text text-anchor="start" x="1943" y="-131" font-family="Helvetica,sans-Serif" font-size="10.00">/home/travis/build</text>
<text text-anchor="start" x="1943" y="-120" font-family="Helvetica,sans-Serif" font-size="10.00">/AliceO2Group/AliceO2</text>
<text text-anchor="start" x="1943" y="-109" font-family="Helvetica,sans-Serif" font-size="10.00">/Steer/DigitizerWorkflow</text>
<text text-anchor="middle" x="2008" y="-98" font-family="Helvetica,sans-Serif" font-size="10.00">/src/HMPIDDigitWriterSpec.h</text>
</a>
</g>
</g>
<!-- Node12&#45;&gt;Node16 -->
<g id="edge15" class="edge"><title>Node12&#45;&gt;Node16</title>
<path fill="none" stroke="midnightblue" d="M1906.17,-175.815C1924.96,-165.145 1945.88,-153.268 1963.84,-143.069"/>
<polygon fill="midnightblue" stroke="midnightblue" points="1904.38,-172.802 1897.42,-180.783 1907.84,-178.889 1904.38,-172.802"/>
</g>
<!-- Node18 -->
<g id="node18" class="node"><title>Node18</title>
<g id="a_node18"><a xlink:href="../../d8/d60/MCHDigitWriterSpec_8h.html" target="_top" xlink:title="/home/travis/build\l/AliceO2Group/AliceO2\l/Steer/DigitizerWorkflow\l/src/MCHDigitWriterSpec.h">
<polygon fill="none" stroke="black" points="2099.5,-91 2099.5,-143 2236.5,-143 2236.5,-91 2099.5,-91"/>
<text text-anchor="start" x="2107.5" y="-131" font-family="Helvetica,sans-Serif" font-size="10.00">/home/travis/build</text>
<text text-anchor="start" x="2107.5" y="-120" font-family="Helvetica,sans-Serif" font-size="10.00">/AliceO2Group/AliceO2</text>
<text text-anchor="start" x="2107.5" y="-109" font-family="Helvetica,sans-Serif" font-size="10.00">/Steer/DigitizerWorkflow</text>
<text text-anchor="middle" x="2168" y="-98" font-family="Helvetica,sans-Serif" font-size="10.00">/src/MCHDigitWriterSpec.h</text>
</a>
</g>
</g>
<!-- Node12&#45;&gt;Node18 -->
<g id="edge17" class="edge"><title>Node12&#45;&gt;Node18</title>
<path fill="none" stroke="midnightblue" d="M1945.25,-179.717C2010.3,-162.755 2028.81,-161.711 2090,-144 2093.02,-143.127 2096.09,-142.212 2099.19,-141.268"/>
<polygon fill="midnightblue" stroke="midnightblue" points="1944.08,-176.406 1935.3,-182.339 1945.86,-183.174 1944.08,-176.406"/>
</g>
<!-- Node19 -->
<g id="node19" class="node"><title>Node19</title>
<g id="a_node19"><a xlink:href="../../da/d27/TRDDigitWriterSpec_8h.html" target="_top" xlink:title="/home/travis/build\l/AliceO2Group/AliceO2\l/Steer/DigitizerWorkflow\l/src/TRDDigitWriterSpec.h">
<polygon fill="none" stroke="black" points="2255,-91 2255,-143 2389,-143 2389,-91 2255,-91"/>
<text text-anchor="start" x="2263" y="-131" font-family="Helvetica,sans-Serif" font-size="10.00">/home/travis/build</text>
<text text-anchor="start" x="2263" y="-120" font-family="Helvetica,sans-Serif" font-size="10.00">/AliceO2Group/AliceO2</text>
<text text-anchor="start" x="2263" y="-109" font-family="Helvetica,sans-Serif" font-size="10.00">/Steer/DigitizerWorkflow</text>
<text text-anchor="middle" x="2322" y="-98" font-family="Helvetica,sans-Serif" font-size="10.00">/src/TRDDigitWriterSpec.h</text>
</a>
</g>
</g>
<!-- Node12&#45;&gt;Node19 -->
<g id="edge19" class="edge"><title>Node12&#45;&gt;Node19</title>
<path fill="none" stroke="midnightblue" d="M1945.33,-179.881C2077.97,-154.37 2116.79,-172.984 2245,-144 2248.17,-143.284 2251.38,-142.488 2254.62,-141.63"/>
<polygon fill="midnightblue" stroke="midnightblue" points="1944.33,-176.512 1935.2,-181.881 1945.68,-183.38 1944.33,-176.512"/>
</g>
<!-- Node17 -->
<g id="node17" class="node"><title>Node17</title>
<g id="a_node17"><a xlink:href="../../d2/dd7/SimpleDigitizerWorkflow_8cxx.html" target="_top" xlink:title="/home/travis/build\l/AliceO2Group/AliceO2\l/Steer/DigitizerWorkflow\l/src/SimpleDigitizerWorkflow.cxx">
<polygon fill="none" stroke="black" points="2087,-1 2087,-53 2249,-53 2249,-1 2087,-1"/>
<text text-anchor="start" x="2095" y="-41" font-family="Helvetica,sans-Serif" font-size="10.00">/home/travis/build</text>
<text text-anchor="start" x="2095" y="-30" font-family="Helvetica,sans-Serif" font-size="10.00">/AliceO2Group/AliceO2</text>
<text text-anchor="start" x="2095" y="-19" font-family="Helvetica,sans-Serif" font-size="10.00">/Steer/DigitizerWorkflow</text>
<text text-anchor="middle" x="2168" y="-8" font-family="Helvetica,sans-Serif" font-size="10.00">/src/SimpleDigitizerWorkflow.cxx</text>
</a>
</g>
</g>
<!-- Node16&#45;&gt;Node17 -->
<g id="edge16" class="edge"><title>Node16&#45;&gt;Node17</title>
<path fill="none" stroke="midnightblue" d="M2062.62,-85.9601C2082.09,-75.2526 2103.79,-63.3145 2122.42,-53.0687"/>
<polygon fill="midnightblue" stroke="midnightblue" points="2060.93,-82.8967 2053.85,-90.7827 2064.3,-89.0303 2060.93,-82.8967"/>
</g>
<!-- Node18&#45;&gt;Node17 -->
<g id="edge18" class="edge"><title>Node18&#45;&gt;Node17</title>
<path fill="none" stroke="midnightblue" d="M2168,-80.4892C2168,-71.3088 2168,-61.616 2168,-53.0921"/>
<polygon fill="midnightblue" stroke="midnightblue" points="2164.5,-80.5467 2168,-90.5468 2171.5,-80.5468 2164.5,-80.5467"/>
</g>
<!-- Node19&#45;&gt;Node17 -->
<g id="edge20" class="edge"><title>Node19&#45;&gt;Node17</title>
<path fill="none" stroke="midnightblue" d="M2269.18,-85.8154C2250.5,-75.1451 2229.72,-63.2684 2211.87,-53.0687"/>
<polygon fill="midnightblue" stroke="midnightblue" points="2267.45,-88.8601 2277.87,-90.7827 2270.92,-82.7824 2267.45,-88.8601"/>
</g>
</g>
</svg>
        <g id="navigator" transform="translate(0 0)" fill="#404254">
                <rect fill="#f2f5e9" fill-opacity="0.5" stroke="#606060" stroke-width=".5" x="0" y="0" width="60" height="60"/>
                <use id="zoomplus" xlink:href="#zoomPlus" x="17" y="9" onmousedown="handleZoom(evt,'in')"/>
                <use id="zoomminus" xlink:href="#zoomMin" x="42" y="9" onmousedown="handleZoom(evt,'out')"/>
                <use id="reset" xlink:href="#resetDef" x="30" y="36" onmousedown="handleReset()"/>
                <g id="arrowUp" xlink:href="#dirArrow" transform="translate(30 24)" onmousedown="handlePan(0,-1)">
                  <use xlink:href="#rim" fill="#404040">
                        <set attributeName="fill" to="#808080" begin="arrowUp.mouseover" end="arrowUp.mouseout"/>
                  </use>
                  <path fill="none" stroke="white" stroke-width="1.5" d="M0,-3.0v7 M-2.5,-0.5L0,-3.0L2.5,-0.5"/>
                </g>
                <g id="arrowRight" xlink:href="#dirArrow" transform="rotate(90) translate(36 -43)" onmousedown="handlePan(1,0)">
                  <use xlink:href="#rim" fill="#404040">
                        <set attributeName="fill" to="#808080" begin="arrowRight.mouseover" end="arrowRight.mouseout"/>
                  </use>
                  <path fill="none" stroke="white" stroke-width="1.5" d="M0,-3.0v7 M-2.5,-0.5L0,-3.0L2.5,-0.5"/>
                </g>
                <g id="arrowDown" xlink:href="#dirArrow" transform="rotate(180) translate(-30 -48)" onmousedown="handlePan(0,1)">
                  <use xlink:href="#rim" fill="#404040">
                        <set attributeName="fill" to="#808080" begin="arrowDown.mouseover" end="arrowDown.mouseout"/>
                  </use>
                  <path fill="none" stroke="white" stroke-width="1.5" d="M0,-3.0v7 M-2.5,-0.5L0,-3.0L2.5,-0.5"/>
                </g>
                <g id="arrowLeft" xlink:href="#dirArrow" transform="rotate(270) translate(-36 17)" onmousedown="handlePan(-1,0)">
                  <use xlink:href="#rim" fill="#404040">
                        <set attributeName="fill" to="#808080" begin="arrowLeft.mouseover" end="arrowLeft.mouseout"/>
                  </use>
                  <path fill="none" stroke="white" stroke-width="1.5" d="M0,-3.0v7 M-2.5,-0.5L0,-3.0L2.5,-0.5"/>
                </g>
        </g>
        <svg viewBox="0 0 15 15" width="100%" height="30px" preserveAspectRatio="xMaxYMin meet">
         <g id="arrow_out" transform="scale(0.3 0.3)">
          <a xlink:href="CallbackService_8h__dep__incl_org.svg" target="_base">
           <rect id="button" ry="5" rx="5" y="6" x="6" height="38" width="38"
                fill="#f2f5e9" fill-opacity="0.5" stroke="#606060" stroke-width="1.0"/>
           <path id="arrow"
             d="M 11.500037,31.436501 C 11.940474,20.09759 22.043105,11.32322 32.158766,21.979434 L 37.068811,17.246167 C 37.068811,17.246167 37.088388,32 37.088388,32 L 22.160133,31.978069 C 22.160133,31.978069 26.997745,27.140456 26.997745,27.140456 C 18.528582,18.264221 13.291696,25.230495 11.500037,31.436501 z"
             style="fill:#404040;"/>
          </a>
         </g>
        </svg>
</svg>
