<?xml version="1.0" encoding="UTF-8" standalone="no"?>
<!DOCTYPE svg PUBLIC "-//W3C//DTD SVG 1.1//EN"
 "http://www.w3.org/Graphics/SVG/1.1/DTD/svg11.dtd">
<!-- Generated by graphviz version 2.36.0 (20140111.2315)
 -->
<!-- Title: /home/travis/build/AliceO2Group/AliceO2/Detectors/FIT/simulation/src/Digitizer.cxx Pages: 1 -->
<svg width="2955pt" height="458pt"
 viewBox="0.00 0.00 2955.00 458.00" xmlns="http://www.w3.org/2000/svg" xmlns:xlink="http://www.w3.org/1999/xlink">
<g id="graph0" class="graph" transform="scale(1 1) rotate(0) translate(4 454)">
<title>/home/travis/build/AliceO2Group/AliceO2/Detectors/FIT/simulation/src/Digitizer.cxx</title>
<!-- Node1 -->
<g id="node1" class="node"><title>Node1</title>
<polygon fill="#bfbfbf" stroke="black" points="944,-397 944,-449 1072,-449 1072,-397 944,-397"/>
<text text-anchor="start" x="952" y="-437" font-family="Helvetica,sans-Serif" font-size="10.00">/home/travis/build</text>
<text text-anchor="start" x="952" y="-426" font-family="Helvetica,sans-Serif" font-size="10.00">/AliceO2Group/AliceO2</text>
<text text-anchor="start" x="952" y="-415" font-family="Helvetica,sans-Serif" font-size="10.00">/Detectors/FIT/simulation</text>
<text text-anchor="middle" x="1008" y="-404" font-family="Helvetica,sans-Serif" font-size="10.00">/src/Digitizer.cxx</text>
</g>
<!-- Node2 -->
<g id="node2" class="node"><title>Node2</title>
<g id="a_node2"><a xlink:href="../../d3/da0/FIT_2simulation_2include_2FITSimulation_2Digitizer_8h.html" target="_top" xlink:title="FITSimulation/Digitizer.h">
<polygon fill="none" stroke="black" points="854.5,-340.5 854.5,-359.5 979.5,-359.5 979.5,-340.5 854.5,-340.5"/>
<text text-anchor="middle" x="917" y="-347.5" font-family="Helvetica,sans-Serif" font-size="10.00">FITSimulation/Digitizer.h</text>
</a>
</g>
</g>
<!-- Node1&#45;&gt;Node2 -->
<g id="edge1" class="edge"><title>Node1&#45;&gt;Node2</title>
<path fill="none" stroke="midnightblue" d="M975.917,-396.968C962.705,-386.66 947.836,-375.059 936.341,-366.09"/>
<polygon fill="midnightblue" stroke="midnightblue" points="938.328,-363.202 928.291,-359.81 934.022,-368.72 938.328,-363.202"/>
</g>
<!-- Node39 -->
<g id="node39" class="node"><title>Node39</title>
<polygon fill="none" stroke="#bfbfbf" points="72.5,-74.5 72.5,-93.5 121.5,-93.5 121.5,-74.5 72.5,-74.5"/>
<text text-anchor="middle" x="97" y="-81.5" font-family="Helvetica,sans-Serif" font-size="10.00">cassert</text>
</g>
<!-- Node1&#45;&gt;Node39 -->
<g id="edge74" class="edge"><title>Node1&#45;&gt;Node39</title>
<path fill="none" stroke="midnightblue" d="M943.797,-420.313C721.768,-413.64 0,-384.595 0,-289 0,-289 0,-289 0,-219 0,-167.467 47.6561,-122.341 76.1613,-99.9594"/>
<polygon fill="midnightblue" stroke="midnightblue" points="78.4738,-102.598 84.3189,-93.7615 74.239,-97.0243 78.4738,-102.598"/>
</g>
<!-- Node44 -->
<g id="node44" class="node"><title>Node44</title>
<g id="a_node44"><a xlink:href="../../db/d14/MCTruthContainer_8h.html" target="_top" xlink:title="Definition of a container to keep Monte Carlo truth external to simulation objects. ">
<polygon fill="none" stroke="black" points="246,-273 246,-303 360,-303 360,-273 246,-273"/>
<text text-anchor="start" x="254" y="-291" font-family="Helvetica,sans-Serif" font-size="10.00">SimulationDataFormat</text>
<text text-anchor="middle" x="303" y="-280" font-family="Helvetica,sans-Serif" font-size="10.00">/MCTruthContainer.h</text>
</a>
</g>
</g>
<!-- Node1&#45;&gt;Node44 -->
<g id="edge65" class="edge"><title>Node1&#45;&gt;Node44</title>
<path fill="none" stroke="midnightblue" d="M943.88,-409.904C810.759,-384.79 505.548,-327.211 369.992,-301.638"/>
<polygon fill="midnightblue" stroke="midnightblue" points="370.615,-298.194 360.139,-299.779 369.317,-305.073 370.615,-298.194"/>
</g>
<!-- Node50 -->
<g id="node50" class="node"><title>Node50</title>
<g id="a_node50"><a xlink:href="../../d4/d6a/FIT_2simulation_2include_2FITSimulation_2MCLabel_8h.html" target="_top" xlink:title="FITSimulation/MCLabel.h">
<polygon fill="none" stroke="black" points="1074,-278.5 1074,-297.5 1202,-297.5 1202,-278.5 1074,-278.5"/>
<text text-anchor="middle" x="1138" y="-285.5" font-family="Helvetica,sans-Serif" font-size="10.00">FITSimulation/MCLabel.h</text>
</a>
</g>
</g>
<!-- Node1&#45;&gt;Node50 -->
<g id="edge64" class="edge"><title>Node1&#45;&gt;Node50</title>
<path fill="none" stroke="midnightblue" d="M1008.18,-396.893C1009.54,-379.225 1013.98,-355.971 1027,-340 1042.76,-320.669 1067.46,-308.336 1089.57,-300.651"/>
<polygon fill="midnightblue" stroke="midnightblue" points="1090.74,-303.95 1099.17,-297.537 1088.58,-297.292 1090.74,-303.95"/>
</g>
<!-- Node51 -->
<g id="node51" class="node"><title>Node51</title>
<g id="a_node51"><a xlink:href="../../d9/d80/InteractionRecord_8h.html" target="_top" xlink:title="CommonDataFormat/Interaction\lRecord.h">
<polygon fill="none" stroke="black" points="386.5,-137 386.5,-167 543.5,-167 543.5,-137 386.5,-137"/>
<text text-anchor="start" x="394.5" y="-155" font-family="Helvetica,sans-Serif" font-size="10.00">CommonDataFormat/Interaction</text>
<text text-anchor="middle" x="465" y="-144" font-family="Helvetica,sans-Serif" font-size="10.00">Record.h</text>
</a>
</g>
</g>
<!-- Node1&#45;&gt;Node51 -->
<g id="edge66" class="edge"><title>Node1&#45;&gt;Node51</title>
<path fill="none" stroke="midnightblue" d="M943.7,-399.822C913.366,-388.783 876.907,-374.677 845,-360 712.294,-298.957 561.963,-211.228 497.334,-172.565"/>
<polygon fill="midnightblue" stroke="midnightblue" points="498.809,-169.368 488.433,-167.225 495.208,-175.371 498.809,-169.368"/>
</g>
<!-- Node54 -->
<g id="node54" class="node"><title>Node54</title>
<polygon fill="none" stroke="#bfbfbf" points="1036.5,-340.5 1036.5,-359.5 1089.5,-359.5 1089.5,-340.5 1036.5,-340.5"/>
<text text-anchor="middle" x="1063" y="-347.5" font-family="Helvetica,sans-Serif" font-size="10.00">TMath.h</text>
</g>
<!-- Node1&#45;&gt;Node54 -->
<g id="edge71" class="edge"><title>Node1&#45;&gt;Node54</title>
<path fill="none" stroke="midnightblue" d="M1027.55,-396.768C1034.97,-387.183 1043.24,-376.506 1049.93,-367.877"/>
<polygon fill="midnightblue" stroke="midnightblue" points="1052.86,-369.806 1056.22,-359.757 1047.33,-365.519 1052.86,-369.806"/>
</g>
<!-- Node55 -->
<g id="node55" class="node"><title>Node55</title>
<polygon fill="none" stroke="#bfbfbf" points="1108,-340.5 1108,-359.5 1176,-359.5 1176,-340.5 1108,-340.5"/>
<text text-anchor="middle" x="1142" y="-347.5" font-family="Helvetica,sans-Serif" font-size="10.00">TRandom.h</text>
</g>
<!-- Node1&#45;&gt;Node55 -->
<g id="edge72" class="edge"><title>Node1&#45;&gt;Node55</title>
<path fill="none" stroke="midnightblue" d="M1055.24,-396.968C1075.97,-385.986 1099.47,-373.537 1116.77,-364.366"/>
<polygon fill="midnightblue" stroke="midnightblue" points="1118.5,-367.414 1125.7,-359.639 1115.22,-361.228 1118.5,-367.414"/>
</g>
<!-- Node56 -->
<g id="node56" class="node"><title>Node56</title>
<polygon fill="none" stroke="#bfbfbf" points="1194,-340.5 1194,-359.5 1250,-359.5 1250,-340.5 1194,-340.5"/>
<text text-anchor="middle" x="1222" y="-347.5" font-family="Helvetica,sans-Serif" font-size="10.00">algorithm</text>
</g>
<!-- Node1&#45;&gt;Node56 -->
<g id="edge73" class="edge"><title>Node1&#45;&gt;Node56</title>
<path fill="none" stroke="midnightblue" d="M1072.21,-400.698C1109.76,-388.24 1155.72,-372.989 1186.76,-362.693"/>
<polygon fill="midnightblue" stroke="midnightblue" points="1187.89,-366.005 1196.28,-359.534 1185.68,-359.362 1187.89,-366.005"/>
</g>
<!-- Node57 -->
<g id="node57" class="node"><title>Node57</title>
<polygon fill="none" stroke="#bfbfbf" points="1268,-340.5 1268,-359.5 1322,-359.5 1322,-340.5 1268,-340.5"/>
<text text-anchor="middle" x="1295" y="-347.5" font-family="Helvetica,sans-Serif" font-size="10.00">iostream</text>
</g>
<!-- Node1&#45;&gt;Node57 -->
<g id="edge75" class="edge"><title>Node1&#45;&gt;Node57</title>
<path fill="none" stroke="midnightblue" d="M1072.05,-406.155C1129.31,-391.99 1211.2,-371.73 1258.15,-360.117"/>
<polygon fill="midnightblue" stroke="midnightblue" points="1259.03,-363.505 1267.89,-357.706 1257.34,-356.71 1259.03,-363.505"/>
</g>
<!-- Node3 -->
<g id="node3" class="node"><title>Node3</title>
<g id="a_node3"><a xlink:href="../../d1/dde/FIT_2base_2include_2FITBase_2Digit_8h.html" target="_top" xlink:title="FITBase/Digit.h">
<polygon fill="none" stroke="black" points="1811,-210.5 1811,-229.5 1897,-229.5 1897,-210.5 1811,-210.5"/>
<text text-anchor="middle" x="1854" y="-217.5" font-family="Helvetica,sans-Serif" font-size="10.00">FITBase/Digit.h</text>
</a>
</g>
</g>
<!-- Node2&#45;&gt;Node3 -->
<g id="edge2" class="edge"><title>Node2&#45;&gt;Node3</title>
<path fill="none" stroke="midnightblue" d="M931.565,-340.373C946.268,-331.554 969.524,-317.301 989,-304 1008.67,-290.565 1009.58,-280.061 1032,-272 1180.87,-218.47 1585.47,-250.606 1743,-236 1761.95,-234.243 1782.64,-231.637 1800.96,-229.088"/>
<polygon fill="midnightblue" stroke="midnightblue" points="1801.46,-232.552 1810.87,-227.683 1800.48,-225.621 1801.46,-232.552"/>
</g>
<!-- Node7 -->
<g id="node7" class="node"><title>Node7</title>
<g id="a_node7"><a xlink:href="../../de/d6b/FIT_2simulation_2include_2FITSimulation_2Detector_8h.html" target="_top" xlink:title="FITSimulation/Detector.h">
<polygon fill="none" stroke="black" points="854,-278.5 854,-297.5 980,-297.5 980,-278.5 854,-278.5"/>
<text text-anchor="middle" x="917" y="-285.5" font-family="Helvetica,sans-Serif" font-size="10.00">FITSimulation/Detector.h</text>
</a>
</g>
</g>
<!-- Node2&#45;&gt;Node7 -->
<g id="edge7" class="edge"><title>Node2&#45;&gt;Node7</title>
<path fill="none" stroke="midnightblue" d="M917,-340.403C917,-331.938 917,-318.728 917,-307.82"/>
<polygon fill="midnightblue" stroke="midnightblue" points="920.5,-307.581 917,-297.581 913.5,-307.581 920.5,-307.581"/>
</g>
<!-- Node2&#45;&gt;Node44 -->
<g id="edge54" class="edge"><title>Node2&#45;&gt;Node44</title>
<path fill="none" stroke="midnightblue" d="M854.462,-342.889C738.338,-331.541 490.344,-307.307 370.542,-295.6"/>
<polygon fill="midnightblue" stroke="midnightblue" points="370.693,-292.098 360.4,-294.609 370.012,-299.065 370.693,-292.098"/>
</g>
<!-- Node48 -->
<g id="node48" class="node"><title>Node48</title>
<g id="a_node48"><a xlink:href="../../d7/dcd/MCCompLabel_8h.html" target="_top" xlink:title="SimulationDataFormat\l/MCCompLabel.h">
<polygon fill="none" stroke="black" points="2047,-205 2047,-235 2161,-235 2161,-205 2047,-205"/>
<text text-anchor="start" x="2055" y="-223" font-family="Helvetica,sans-Serif" font-size="10.00">SimulationDataFormat</text>
<text text-anchor="middle" x="2104" y="-212" font-family="Helvetica,sans-Serif" font-size="10.00">/MCCompLabel.h</text>
</a>
</g>
</g>
<!-- Node2&#45;&gt;Node48 -->
<g id="edge60" class="edge"><title>Node2&#45;&gt;Node48</title>
<path fill="none" stroke="midnightblue" d="M943.283,-340.388C965.777,-332.479 998.61,-319.632 1025,-304 1044.59,-292.397 1043.66,-279.932 1065,-272 1163.83,-235.266 1892.35,-249.284 2036.8,-235.78"/>
<polygon fill="midnightblue" stroke="midnightblue" points="2037.32,-239.243 2046.88,-234.667 2036.56,-232.286 2037.32,-239.243"/>
</g>
<!-- Node2&#45;&gt;Node50 -->
<g id="edge62" class="edge"><title>Node2&#45;&gt;Node50</title>
<path fill="none" stroke="midnightblue" d="M948.664,-340.403C987.558,-329.844 1053.64,-311.903 1096.55,-300.254"/>
<polygon fill="midnightblue" stroke="midnightblue" points="1097.66,-303.578 1106.39,-297.581 1095.83,-296.823 1097.66,-303.578"/>
</g>
<!-- Node4 -->
<g id="node4" class="node"><title>Node4</title>
<g id="a_node4"><a xlink:href="../../df/d5d/common_2include_2CommonDataFormat_2TimeStamp_8h.html" target="_top" xlink:title="CommonDataFormat/TimeStamp.h">
<polygon fill="none" stroke="black" points="1769,-142.5 1769,-161.5 1939,-161.5 1939,-142.5 1769,-142.5"/>
<text text-anchor="middle" x="1854" y="-149.5" font-family="Helvetica,sans-Serif" font-size="10.00">CommonDataFormat/TimeStamp.h</text>
</a>
</g>
</g>
<!-- Node3&#45;&gt;Node4 -->
<g id="edge3" class="edge"><title>Node3&#45;&gt;Node4</title>
<path fill="none" stroke="midnightblue" d="M1854,-210.372C1854,-200.643 1854,-184.528 1854,-171.85"/>
<polygon fill="midnightblue" stroke="midnightblue" points="1857.5,-171.841 1854,-161.841 1850.5,-171.841 1857.5,-171.841"/>
</g>
<!-- Node5 -->
<g id="node5" class="node"><title>Node5</title>
<polygon fill="none" stroke="#bfbfbf" points="1591,-74.5 1591,-93.5 1647,-93.5 1647,-74.5 1591,-74.5"/>
<text text-anchor="middle" x="1619" y="-81.5" font-family="Helvetica,sans-Serif" font-size="10.00">Rtypes.h</text>
</g>
<!-- Node3&#45;&gt;Node5 -->
<g id="edge6" class="edge"><title>Node3&#45;&gt;Node5</title>
<path fill="none" stroke="midnightblue" d="M1887.62,-210.354C1908.99,-202.927 1934.99,-189.858 1948,-168 1955.27,-155.778 1957.42,-146.654 1948,-136 1904.69,-87.0224 1719.28,-116.423 1656,-100 1653.01,-99.2241 1649.94,-98.2638 1646.91,-97.2069"/>
<polygon fill="midnightblue" stroke="midnightblue" points="1648.09,-93.9115 1637.5,-93.6085 1645.59,-100.45 1648.09,-93.9115"/>
</g>
<!-- Node6 -->
<g id="node6" class="node"><title>Node6</title>
<polygon fill="none" stroke="#bfbfbf" points="1665.5,-74.5 1665.5,-93.5 1710.5,-93.5 1710.5,-74.5 1665.5,-74.5"/>
<text text-anchor="middle" x="1688" y="-81.5" font-family="Helvetica,sans-Serif" font-size="10.00">iosfwd</text>
</g>
<!-- Node3&#45;&gt;Node6 -->
<g id="edge5" class="edge"><title>Node3&#45;&gt;Node6</title>
<path fill="none" stroke="midnightblue" d="M1879.64,-210.426C1914.99,-198.353 1975.03,-176.833 1981,-168 1988.97,-156.218 1990.35,-146.719 1981,-136 1942.38,-91.7056 1775.25,-117.008 1719,-100 1716.86,-99.3533 1714.69,-98.5757 1712.53,-97.7192"/>
<polygon fill="midnightblue" stroke="midnightblue" points="1713.94,-94.516 1703.38,-93.6207 1711.08,-100.904 1713.94,-94.516"/>
</g>
<!-- Node4&#45;&gt;Node5 -->
<g id="edge4" class="edge"><title>Node4&#45;&gt;Node5</title>
<path fill="none" stroke="midnightblue" d="M1814.48,-142.454C1774.2,-133.362 1710.11,-117.847 1656,-100 1653.43,-99.1539 1650.79,-98.2177 1648.16,-97.2386"/>
<polygon fill="midnightblue" stroke="midnightblue" points="1649.38,-93.9577 1638.79,-93.5885 1646.84,-100.48 1649.38,-93.9577"/>
</g>
<!-- Node8 -->
<g id="node8" class="node"><title>Node8</title>
<g id="a_node8"><a xlink:href="../../d4/d25/BaseHits_8h.html" target="_top" xlink:title="SimulationDataFormat\l/BaseHits.h">
<polygon fill="none" stroke="black" points="1915,-205 1915,-235 2029,-235 2029,-205 1915,-205"/>
<text text-anchor="start" x="1923" y="-223" font-family="Helvetica,sans-Serif" font-size="10.00">SimulationDataFormat</text>
<text text-anchor="middle" x="1972" y="-212" font-family="Helvetica,sans-Serif" font-size="10.00">/BaseHits.h</text>
</a>
</g>
</g>
<!-- Node7&#45;&gt;Node8 -->
<g id="edge8" class="edge"><title>Node7&#45;&gt;Node8</title>
<path fill="none" stroke="midnightblue" d="M974.511,-278.483C992.847,-276.04 1013.24,-273.606 1032,-272 1416.05,-239.109 1518.87,-286.471 1904.84,-235.979"/>
<polygon fill="midnightblue" stroke="midnightblue" points="1905.42,-239.432 1914.88,-234.652 1904.51,-232.493 1905.42,-239.432"/>
</g>
<!-- Node19 -->
<g id="node19" class="node"><title>Node19</title>
<g id="a_node19"><a xlink:href="../../d1/d3a/Base_2include_2DetectorsBase_2Detector_8h.html" target="_top" xlink:title="DetectorsBase/Detector.h">
<polygon fill="none" stroke="black" points="851.5,-210.5 851.5,-229.5 982.5,-229.5 982.5,-210.5 851.5,-210.5"/>
<text text-anchor="middle" x="917" y="-217.5" font-family="Helvetica,sans-Serif" font-size="10.00">DetectorsBase/Detector.h</text>
</a>
</g>
</g>
<!-- Node7&#45;&gt;Node19 -->
<g id="edge21" class="edge"><title>Node7&#45;&gt;Node19</title>
<path fill="none" stroke="midnightblue" d="M917,-278.372C917,-268.643 917,-252.528 917,-239.85"/>
<polygon fill="midnightblue" stroke="midnightblue" points="920.5,-239.841 917,-229.841 913.5,-239.841 920.5,-239.841"/>
</g>
<!-- Node38 -->
<g id="node38" class="node"><title>Node38</title>
<g id="a_node38"><a xlink:href="../../d0/d91/ShmAllocator_8h.html" target="_top" xlink:title="CommonUtils/ShmAllocator.h">
<polygon fill="none" stroke="black" points="184,-142.5 184,-161.5 330,-161.5 330,-142.5 184,-142.5"/>
<text text-anchor="middle" x="257" y="-149.5" font-family="Helvetica,sans-Serif" font-size="10.00">CommonUtils/ShmAllocator.h</text>
</a>
</g>
</g>
<!-- Node7&#45;&gt;Node38 -->
<g id="edge53" class="edge"><title>Node7&#45;&gt;Node38</title>
<path fill="none" stroke="midnightblue" d="M874.962,-278.465C759.129,-254.947 435.563,-189.254 308.838,-163.525"/>
<polygon fill="midnightblue" stroke="midnightblue" points="309.48,-160.084 298.983,-161.524 308.087,-166.944 309.48,-160.084"/>
</g>
<!-- Node42 -->
<g id="node42" class="node"><title>Node42</title>
<g id="a_node42"><a xlink:href="../../d1/db1/FIT_2base_2include_2FITBase_2Geometry_8h.html" target="_top" xlink:title="FITBase/Geometry.h">
<polygon fill="none" stroke="black" points="1626,-210.5 1626,-229.5 1734,-229.5 1734,-210.5 1626,-210.5"/>
<text text-anchor="middle" x="1680" y="-217.5" font-family="Helvetica,sans-Serif" font-size="10.00">FITBase/Geometry.h</text>
</a>
</g>
</g>
<!-- Node7&#45;&gt;Node42 -->
<g id="edge50" class="edge"><title>Node7&#45;&gt;Node42</title>
<path fill="none" stroke="midnightblue" d="M956.024,-278.47C968.144,-276.071 981.581,-273.665 994,-272 1221.44,-241.501 1493.93,-228.054 1615.71,-223.243"/>
<polygon fill="midnightblue" stroke="midnightblue" points="1616.11,-226.73 1625.97,-222.845 1615.84,-219.736 1616.11,-226.73"/>
</g>
<!-- Node9 -->
<g id="node9" class="node"><title>Node9</title>
<g id="a_node9"><a xlink:href="../../dd/d76/Cartesian3D_8h.html" target="_top" xlink:title="MathUtils/Cartesian3D.h">
<polygon fill="none" stroke="black" points="2033.5,-142.5 2033.5,-161.5 2158.5,-161.5 2158.5,-142.5 2033.5,-142.5"/>
<text text-anchor="middle" x="2096" y="-149.5" font-family="Helvetica,sans-Serif" font-size="10.00">MathUtils/Cartesian3D.h</text>
</a>
</g>
</g>
<!-- Node8&#45;&gt;Node9 -->
<g id="edge9" class="edge"><title>Node8&#45;&gt;Node9</title>
<path fill="none" stroke="midnightblue" d="M1998.6,-204.841C2019.95,-193.476 2049.73,-177.628 2070.72,-166.454"/>
<polygon fill="midnightblue" stroke="midnightblue" points="2072.51,-169.47 2079.69,-161.682 2069.22,-163.291 2072.51,-169.47"/>
</g>
<!-- Node9&#45;&gt;Node5 -->
<g id="edge15" class="edge"><title>Node9&#45;&gt;Node5</title>
<path fill="none" stroke="midnightblue" d="M2033.36,-142.606C2016.38,-140.391 1997.99,-138.049 1981,-136 1836.72,-118.601 1796.89,-135.636 1656,-100 1653.01,-99.2426 1649.93,-98.2943 1646.9,-97.2447"/>
<polygon fill="midnightblue" stroke="midnightblue" points="1648.08,-93.9486 1637.49,-93.6554 1645.58,-100.489 1648.08,-93.9486"/>
</g>
<!-- Node9&#45;&gt;Node6 -->
<g id="edge17" class="edge"><title>Node9&#45;&gt;Node6</title>
<path fill="none" stroke="midnightblue" d="M2054.94,-142.425C2043.35,-140.162 2030.71,-137.84 2019,-136 1886.34,-115.147 1847.87,-137.762 1719,-100 1716.81,-99.358 1714.58,-98.5737 1712.38,-97.7039"/>
<polygon fill="midnightblue" stroke="midnightblue" points="1713.61,-94.4196 1703.05,-93.5194 1710.74,-100.806 1713.61,-94.4196"/>
</g>
<!-- Node10 -->
<g id="node10" class="node"><title>Node10</title>
<polygon fill="none" stroke="#bfbfbf" points="1728.5,-69 1728.5,-99 1879.5,-99 1879.5,-69 1728.5,-69"/>
<text text-anchor="start" x="1736.5" y="-87" font-family="Helvetica,sans-Serif" font-size="10.00">Math/GenVector/Displacement</text>
<text text-anchor="middle" x="1804" y="-76" font-family="Helvetica,sans-Serif" font-size="10.00">Vector3D.h</text>
</g>
<!-- Node9&#45;&gt;Node10 -->
<g id="edge10" class="edge"><title>Node9&#45;&gt;Node10</title>
<path fill="none" stroke="midnightblue" d="M2058.13,-142.439C2012.1,-132.037 1933.47,-114.263 1875.83,-101.236"/>
<polygon fill="midnightblue" stroke="midnightblue" points="1876.57,-97.8156 1866.05,-99.0247 1875.03,-104.643 1876.57,-97.8156"/>
</g>
<!-- Node11 -->
<g id="node11" class="node"><title>Node11</title>
<polygon fill="none" stroke="#bfbfbf" points="1898,-74.5 1898,-93.5 2074,-93.5 2074,-74.5 1898,-74.5"/>
<text text-anchor="middle" x="1986" y="-81.5" font-family="Helvetica,sans-Serif" font-size="10.00">Math/GenVector/PositionVector3D.h</text>
</g>
<!-- Node9&#45;&gt;Node11 -->
<g id="edge11" class="edge"><title>Node9&#45;&gt;Node11</title>
<path fill="none" stroke="midnightblue" d="M2081.62,-142.372C2063.17,-131.304 2030.95,-111.972 2009.06,-98.838"/>
<polygon fill="midnightblue" stroke="midnightblue" points="2010.76,-95.7742 2000.38,-93.6305 2007.16,-101.777 2010.76,-95.7742"/>
</g>
<!-- Node12 -->
<g id="node12" class="node"><title>Node12</title>
<polygon fill="none" stroke="#bfbfbf" points="2091.5,-74.5 2091.5,-93.5 2240.5,-93.5 2240.5,-74.5 2091.5,-74.5"/>
<text text-anchor="middle" x="2166" y="-81.5" font-family="Helvetica,sans-Serif" font-size="10.00">Math/GenVector/Rotation3D.h</text>
</g>
<!-- Node9&#45;&gt;Node12 -->
<g id="edge12" class="edge"><title>Node9&#45;&gt;Node12</title>
<path fill="none" stroke="midnightblue" d="M2105.15,-142.372C2116.3,-131.856 2135.37,-113.882 2149.19,-100.85"/>
<polygon fill="midnightblue" stroke="midnightblue" points="2151.75,-103.248 2156.62,-93.8411 2146.95,-98.1547 2151.75,-103.248"/>
</g>
<!-- Node13 -->
<g id="node13" class="node"><title>Node13</title>
<polygon fill="none" stroke="#bfbfbf" points="2259,-74.5 2259,-93.5 2415,-93.5 2415,-74.5 2259,-74.5"/>
<text text-anchor="middle" x="2337" y="-81.5" font-family="Helvetica,sans-Serif" font-size="10.00">Math/GenVector/Transform3D.h</text>
</g>
<!-- Node9&#45;&gt;Node13 -->
<g id="edge13" class="edge"><title>Node9&#45;&gt;Node13</title>
<path fill="none" stroke="midnightblue" d="M2127.51,-142.372C2170.75,-130.53 2248.53,-109.229 2296.18,-96.179"/>
<polygon fill="midnightblue" stroke="midnightblue" points="2297.15,-99.543 2305.87,-93.5259 2295.3,-92.7916 2297.15,-99.543"/>
</g>
<!-- Node14 -->
<g id="node14" class="node"><title>Node14</title>
<polygon fill="none" stroke="#bfbfbf" points="2433,-74.5 2433,-93.5 2593,-93.5 2593,-74.5 2433,-74.5"/>
<text text-anchor="middle" x="2513" y="-81.5" font-family="Helvetica,sans-Serif" font-size="10.00">Math/GenVector/Translation3D.h</text>
</g>
<!-- Node9&#45;&gt;Node14 -->
<g id="edge14" class="edge"><title>Node9&#45;&gt;Node14</title>
<path fill="none" stroke="midnightblue" d="M2134.77,-142.435C2145.51,-140.197 2157.18,-137.885 2168,-136 2281.19,-116.272 2310.45,-117.549 2424,-100 2433.54,-98.5257 2443.64,-96.8923 2453.48,-95.2619"/>
<polygon fill="midnightblue" stroke="midnightblue" points="2454.32,-98.6702 2463.61,-93.5706 2453.17,-91.7658 2454.32,-98.6702"/>
</g>
<!-- Node15 -->
<g id="node15" class="node"><title>Node15</title>
<polygon fill="none" stroke="#bfbfbf" points="2611,-74.5 2611,-93.5 2687,-93.5 2687,-74.5 2611,-74.5"/>
<text text-anchor="middle" x="2649" y="-81.5" font-family="Helvetica,sans-Serif" font-size="10.00">TGeoMatrix.h</text>
</g>
<!-- Node9&#45;&gt;Node15 -->
<g id="edge16" class="edge"><title>Node9&#45;&gt;Node15</title>
<path fill="none" stroke="midnightblue" d="M2132.47,-142.496C2143.81,-140.098 2156.37,-137.687 2168,-136 2359.55,-108.21 2412.15,-137.664 2602,-100 2606.57,-99.0942 2611.31,-97.8971 2615.95,-96.573"/>
<polygon fill="midnightblue" stroke="midnightblue" points="2617.31,-99.8172 2625.84,-93.5358 2615.26,-93.1256 2617.31,-99.8172"/>
</g>
<!-- Node16 -->
<g id="node16" class="node"><title>Node16</title>
<g id="a_node16"><a xlink:href="../../d2/dd0/Cartesian2D_8h.html" target="_top" xlink:title="MathUtils/Cartesian2D.h">
<polygon fill="none" stroke="black" points="2705.5,-74.5 2705.5,-93.5 2830.5,-93.5 2830.5,-74.5 2705.5,-74.5"/>
<text text-anchor="middle" x="2768" y="-81.5" font-family="Helvetica,sans-Serif" font-size="10.00">MathUtils/Cartesian2D.h</text>
</a>
</g>
</g>
<!-- Node9&#45;&gt;Node16 -->
<g id="edge18" class="edge"><title>Node9&#45;&gt;Node16</title>
<path fill="none" stroke="midnightblue" d="M2132.09,-142.469C2143.52,-140.041 2156.24,-137.619 2168,-136 2401.02,-103.938 2462.98,-132.062 2696,-100 2704.46,-98.8366 2713.4,-97.2581 2722.01,-95.5606"/>
<polygon fill="midnightblue" stroke="midnightblue" points="2722.82,-98.9684 2731.91,-93.5309 2721.41,-92.111 2722.82,-98.9684"/>
</g>
<!-- Node17 -->
<g id="node17" class="node"><title>Node17</title>
<polygon fill="none" stroke="#bfbfbf" points="2601.5,-1 2601.5,-31 2752.5,-31 2752.5,-1 2601.5,-1"/>
<text text-anchor="start" x="2609.5" y="-19" font-family="Helvetica,sans-Serif" font-size="10.00">Math/GenVector/Displacement</text>
<text text-anchor="middle" x="2677" y="-8" font-family="Helvetica,sans-Serif" font-size="10.00">Vector2D.h</text>
</g>
<!-- Node16&#45;&gt;Node17 -->
<g id="edge19" class="edge"><title>Node16&#45;&gt;Node17</title>
<path fill="none" stroke="midnightblue" d="M2756.1,-74.3717C2743.22,-65.0286 2722.22,-49.7966 2705.09,-37.375"/>
<polygon fill="midnightblue" stroke="midnightblue" points="2706.7,-34.2194 2696.55,-31.1815 2702.59,-39.8859 2706.7,-34.2194"/>
</g>
<!-- Node18 -->
<g id="node18" class="node"><title>Node18</title>
<polygon fill="none" stroke="#bfbfbf" points="2771,-6.5 2771,-25.5 2947,-25.5 2947,-6.5 2771,-6.5"/>
<text text-anchor="middle" x="2859" y="-13.5" font-family="Helvetica,sans-Serif" font-size="10.00">Math/GenVector/PositionVector2D.h</text>
</g>
<!-- Node16&#45;&gt;Node18 -->
<g id="edge20" class="edge"><title>Node16&#45;&gt;Node18</title>
<path fill="none" stroke="midnightblue" d="M2779.9,-74.3717C2794.88,-63.5015 2820.86,-44.6602 2838.94,-31.5474"/>
<polygon fill="midnightblue" stroke="midnightblue" points="2841.06,-34.3349 2847.1,-25.6305 2836.95,-28.6684 2841.06,-34.3349"/>
</g>
<!-- Node19&#45;&gt;Node5 -->
<g id="edge33" class="edge"><title>Node19&#45;&gt;Node5</title>
<path fill="none" stroke="midnightblue" d="M982.785,-218.415C1144.69,-216.373 1552.72,-207.338 1599,-168 1617.41,-152.352 1620.48,-122.979 1620.29,-103.705"/>
<polygon fill="midnightblue" stroke="midnightblue" points="1623.78,-103.555 1619.89,-93.7034 1616.79,-103.836 1623.78,-103.555"/>
</g>
<!-- Node20 -->
<g id="node20" class="node"><title>Node20</title>
<polygon fill="none" stroke="#bfbfbf" points="979.5,-74.5 979.5,-93.5 1014.5,-93.5 1014.5,-74.5 979.5,-74.5"/>
<text text-anchor="middle" x="997" y="-81.5" font-family="Helvetica,sans-Serif" font-size="10.00">map</text>
</g>
<!-- Node19&#45;&gt;Node20 -->
<g id="edge22" class="edge"><title>Node19&#45;&gt;Node20</title>
<path fill="none" stroke="midnightblue" d="M897.696,-210.445C881.636,-202.156 859.866,-187.909 850,-168 843.685,-155.257 841.755,-147.588 850,-136 877.062,-97.9668 934.566,-88.0415 969.086,-85.6074"/>
<polygon fill="midnightblue" stroke="midnightblue" points="969.62,-89.0839 979.419,-85.0541 969.246,-82.0939 969.62,-89.0839"/>
</g>
<!-- Node21 -->
<g id="node21" class="node"><title>Node21</title>
<polygon fill="none" stroke="#bfbfbf" points="1379,-142.5 1379,-161.5 1423,-161.5 1423,-142.5 1379,-142.5"/>
<text text-anchor="middle" x="1401" y="-149.5" font-family="Helvetica,sans-Serif" font-size="10.00">vector</text>
</g>
<!-- Node19&#45;&gt;Node21 -->
<g id="edge23" class="edge"><title>Node19&#45;&gt;Node21</title>
<path fill="none" stroke="midnightblue" d="M982.591,-217.286C1070.82,-213.685 1232.03,-202.53 1365,-168 1367.83,-167.266 1370.72,-166.354 1373.58,-165.344"/>
<polygon fill="midnightblue" stroke="midnightblue" points="1374.99,-168.552 1383.03,-161.653 1372.44,-162.032 1374.99,-168.552"/>
</g>
<!-- Node22 -->
<g id="node22" class="node"><title>Node22</title>
<polygon fill="none" stroke="#bfbfbf" points="1307.5,-74.5 1307.5,-93.5 1380.5,-93.5 1380.5,-74.5 1307.5,-74.5"/>
<text text-anchor="middle" x="1344" y="-81.5" font-family="Helvetica,sans-Serif" font-size="10.00">initializer_list</text>
</g>
<!-- Node19&#45;&gt;Node22 -->
<g id="edge24" class="edge"><title>Node19&#45;&gt;Node22</title>
<path fill="none" stroke="midnightblue" d="M982.615,-215.211C1093.04,-208.21 1306.44,-191.764 1331,-168 1348.01,-151.543 1348.68,-122.608 1346.89,-103.621"/>
<polygon fill="midnightblue" stroke="midnightblue" points="1350.34,-103.008 1345.62,-93.5229 1343.39,-103.881 1350.34,-103.008"/>
</g>
<!-- Node23 -->
<g id="node23" class="node"><title>Node23</title>
<polygon fill="none" stroke="#bfbfbf" points="1441,-142.5 1441,-161.5 1493,-161.5 1493,-142.5 1441,-142.5"/>
<text text-anchor="middle" x="1467" y="-149.5" font-family="Helvetica,sans-Serif" font-size="10.00">memory</text>
</g>
<!-- Node19&#45;&gt;Node23 -->
<g id="edge25" class="edge"><title>Node19&#45;&gt;Node23</title>
<path fill="none" stroke="midnightblue" d="M982.565,-218.653C1081.3,-216.758 1273.39,-207.715 1431,-168 1433.99,-167.247 1437.05,-166.287 1440.07,-165.218"/>
<polygon fill="midnightblue" stroke="midnightblue" points="1441.38,-168.464 1449.41,-161.55 1438.82,-161.948 1441.38,-168.464"/>
</g>
<!-- Node24 -->
<g id="node24" class="node"><title>Node24</title>
<polygon fill="none" stroke="#bfbfbf" points="1511.5,-142.5 1511.5,-161.5 1590.5,-161.5 1590.5,-142.5 1511.5,-142.5"/>
<text text-anchor="middle" x="1551" y="-149.5" font-family="Helvetica,sans-Serif" font-size="10.00">FairDetector.h</text>
</g>
<!-- Node19&#45;&gt;Node24 -->
<g id="edge26" class="edge"><title>Node19&#45;&gt;Node24</title>
<path fill="none" stroke="midnightblue" d="M982.546,-217.763C1091.39,-214.712 1315.86,-204.187 1502,-168 1506.87,-167.052 1511.95,-165.805 1516.91,-164.434"/>
<polygon fill="midnightblue" stroke="midnightblue" points="1518.23,-167.693 1526.83,-161.501 1516.25,-160.981 1518.23,-167.693"/>
</g>
<!-- Node25 -->
<g id="node25" class="node"><title>Node25</title>
<polygon fill="none" stroke="#bfbfbf" points="562,-142.5 562,-161.5 662,-161.5 662,-142.5 562,-142.5"/>
<text text-anchor="middle" x="612" y="-149.5" font-family="Helvetica,sans-Serif" font-size="10.00">FairRootManager.h</text>
</g>
<!-- Node19&#45;&gt;Node25 -->
<g id="edge27" class="edge"><title>Node19&#45;&gt;Node25</title>
<path fill="none" stroke="midnightblue" d="M872.878,-210.468C823.545,-200.786 741.338,-184.224 671,-168 665.593,-166.753 659.923,-165.386 654.324,-164.002"/>
<polygon fill="midnightblue" stroke="midnightblue" points="654.948,-160.55 644.397,-161.513 653.245,-167.34 654.948,-160.55"/>
</g>
<!-- Node26 -->
<g id="node26" class="node"><title>Node26</title>
<g id="a_node26"><a xlink:href="../../d0/d9a/MaterialManager_8h.html" target="_top" xlink:title="DetectorsBase/MaterialManager.h">
<polygon fill="none" stroke="black" points="1157.5,-142.5 1157.5,-161.5 1322.5,-161.5 1322.5,-142.5 1157.5,-142.5"/>
<text text-anchor="middle" x="1240" y="-149.5" font-family="Helvetica,sans-Serif" font-size="10.00">DetectorsBase/MaterialManager.h</text>
</a>
</g>
</g>
<!-- Node19&#45;&gt;Node26 -->
<g id="edge28" class="edge"><title>Node19&#45;&gt;Node26</title>
<path fill="none" stroke="midnightblue" d="M958.895,-210.439C1017.71,-198.421 1124.68,-176.565 1188.35,-163.555"/>
<polygon fill="midnightblue" stroke="midnightblue" points="1189.08,-166.977 1198.18,-161.546 1187.68,-160.118 1189.08,-166.977"/>
</g>
<!-- Node28 -->
<g id="node28" class="node"><title>Node28</title>
<polygon fill="none" stroke="#bfbfbf" points="680.5,-142.5 680.5,-161.5 733.5,-161.5 733.5,-142.5 680.5,-142.5"/>
<text text-anchor="middle" x="707" y="-149.5" font-family="Helvetica,sans-Serif" font-size="10.00">cxxabi.h</text>
</g>
<!-- Node19&#45;&gt;Node28 -->
<g id="edge34" class="edge"><title>Node19&#45;&gt;Node28</title>
<path fill="none" stroke="midnightblue" d="M883.063,-210.419C847.519,-201.129 790.259,-185.301 742,-168 739.742,-167.191 737.421,-166.309 735.101,-165.393"/>
<polygon fill="midnightblue" stroke="midnightblue" points="736.303,-162.103 725.724,-161.521 733.631,-168.573 736.303,-162.103"/>
</g>
<!-- Node29 -->
<g id="node29" class="node"><title>Node29</title>
<polygon fill="none" stroke="#bfbfbf" points="751.5,-142.5 751.5,-161.5 802.5,-161.5 802.5,-142.5 751.5,-142.5"/>
<text text-anchor="middle" x="777" y="-149.5" font-family="Helvetica,sans-Serif" font-size="10.00">typeinfo</text>
</g>
<!-- Node19&#45;&gt;Node29 -->
<g id="edge35" class="edge"><title>Node19&#45;&gt;Node29</title>
<path fill="none" stroke="midnightblue" d="M898.697,-210.372C874.696,-199.057 832.375,-179.105 804.508,-165.968"/>
<polygon fill="midnightblue" stroke="midnightblue" points="805.845,-162.729 795.307,-161.63 802.86,-169.061 805.845,-162.729"/>
</g>
<!-- Node30 -->
<g id="node30" class="node"><title>Node30</title>
<polygon fill="none" stroke="#bfbfbf" points="66,-142.5 66,-161.5 128,-161.5 128,-142.5 66,-142.5"/>
<text text-anchor="middle" x="97" y="-149.5" font-family="Helvetica,sans-Serif" font-size="10.00">type_traits</text>
</g>
<!-- Node19&#45;&gt;Node30 -->
<g id="edge36" class="edge"><title>Node19&#45;&gt;Node30</title>
<path fill="none" stroke="midnightblue" d="M851.361,-216.84C689.972,-211.183 277.129,-194.511 142,-168 137.727,-167.162 133.3,-166.03 128.964,-164.761"/>
<polygon fill="midnightblue" stroke="midnightblue" points="129.719,-161.329 119.128,-161.628 127.594,-167.998 129.719,-161.329"/>
</g>
<!-- Node31 -->
<g id="node31" class="node"><title>Node31</title>
<polygon fill="none" stroke="#bfbfbf" points="859.5,-142.5 859.5,-161.5 900.5,-161.5 900.5,-142.5 859.5,-142.5"/>
<text text-anchor="middle" x="880" y="-149.5" font-family="Helvetica,sans-Serif" font-size="10.00">string</text>
</g>
<!-- Node19&#45;&gt;Node31 -->
<g id="edge37" class="edge"><title>Node19&#45;&gt;Node31</title>
<path fill="none" stroke="midnightblue" d="M912.163,-210.372C906.543,-200.348 897.124,-183.546 889.927,-170.708"/>
<polygon fill="midnightblue" stroke="midnightblue" points="892.899,-168.852 884.956,-161.841 886.794,-172.275 892.899,-168.852"/>
</g>
<!-- Node32 -->
<g id="node32" class="node"><title>Node32</title>
<polygon fill="none" stroke="#bfbfbf" points="918.5,-142.5 918.5,-161.5 989.5,-161.5 989.5,-142.5 918.5,-142.5"/>
<text text-anchor="middle" x="954" y="-149.5" font-family="Helvetica,sans-Serif" font-size="10.00">TMessage.h</text>
</g>
<!-- Node19&#45;&gt;Node32 -->
<g id="edge38" class="edge"><title>Node19&#45;&gt;Node32</title>
<path fill="none" stroke="midnightblue" d="M921.837,-210.372C927.457,-200.348 936.876,-183.546 944.073,-170.708"/>
<polygon fill="midnightblue" stroke="midnightblue" points="947.206,-172.275 949.044,-161.841 941.101,-168.852 947.206,-172.275"/>
</g>
<!-- Node33 -->
<g id="node33" class="node"><title>Node33</title>
<g id="a_node33"><a xlink:href="../../de/d61/ShmManager_8h.html" target="_top" xlink:title="CommonUtils/ShmManager.h">
<polygon fill="none" stroke="black" points="203,-74.5 203,-93.5 349,-93.5 349,-74.5 203,-74.5"/>
<text text-anchor="middle" x="276" y="-81.5" font-family="Helvetica,sans-Serif" font-size="10.00">CommonUtils/ShmManager.h</text>
</a>
</g>
</g>
<!-- Node19&#45;&gt;Node33 -->
<g id="edge39" class="edge"><title>Node19&#45;&gt;Node33</title>
<path fill="none" stroke="midnightblue" d="M851.5,-215.012C717.244,-206.519 419.824,-185.956 377,-168 356.638,-159.462 356.026,-150.058 339,-136 324.188,-123.77 307.26,-110.083 294.684,-99.969"/>
<polygon fill="midnightblue" stroke="midnightblue" points="296.741,-97.132 286.753,-93.6001 292.359,-102.59 296.741,-97.132"/>
</g>
<!-- Node19&#45;&gt;Node38 -->
<g id="edge44" class="edge"><title>Node19&#45;&gt;Node38</title>
<path fill="none" stroke="midnightblue" d="M851.068,-214.895C744.276,-207.851 526.963,-191.874 344,-168 333.75,-166.662 322.862,-164.989 312.383,-163.248"/>
<polygon fill="midnightblue" stroke="midnightblue" points="312.942,-159.793 302.497,-161.568 311.769,-166.694 312.942,-159.793"/>
</g>
<!-- Node19&#45;&gt;Node39 -->
<g id="edge49" class="edge"><title>Node19&#45;&gt;Node39</title>
<path fill="none" stroke="midnightblue" d="M851.259,-217.219C681.092,-212.223 235.239,-196.546 175,-168 159.146,-160.487 127.795,-123.512 110.048,-101.527"/>
<polygon fill="midnightblue" stroke="midnightblue" points="112.744,-99.2954 103.767,-93.6687 107.276,-103.666 112.744,-99.2954"/>
</g>
<!-- Node40 -->
<g id="node40" class="node"><title>Node40</title>
<polygon fill="none" stroke="#bfbfbf" points="1008,-142.5 1008,-161.5 1070,-161.5 1070,-142.5 1008,-142.5"/>
<text text-anchor="middle" x="1039" y="-149.5" font-family="Helvetica,sans-Serif" font-size="10.00">sys/shm.h</text>
</g>
<!-- Node19&#45;&gt;Node40 -->
<g id="edge47" class="edge"><title>Node19&#45;&gt;Node40</title>
<path fill="none" stroke="midnightblue" d="M932.949,-210.372C953.591,-199.205 989.781,-179.627 1014.07,-166.488"/>
<polygon fill="midnightblue" stroke="midnightblue" points="1015.92,-169.467 1023.05,-161.63 1012.59,-163.31 1015.92,-169.467"/>
</g>
<!-- Node41 -->
<g id="node41" class="node"><title>Node41</title>
<polygon fill="none" stroke="#bfbfbf" points="1088.5,-142.5 1088.5,-161.5 1139.5,-161.5 1139.5,-142.5 1088.5,-142.5"/>
<text text-anchor="middle" x="1114" y="-149.5" font-family="Helvetica,sans-Serif" font-size="10.00">unistd.h</text>
</g>
<!-- Node19&#45;&gt;Node41 -->
<g id="edge48" class="edge"><title>Node19&#45;&gt;Node41</title>
<path fill="none" stroke="midnightblue" d="M946.641,-210.464C979.143,-200.906 1032.71,-184.574 1078,-168 1080.25,-167.175 1082.57,-166.292 1084.9,-165.381"/>
<polygon fill="midnightblue" stroke="midnightblue" points="1086.36,-168.564 1094.32,-161.568 1083.73,-162.076 1086.36,-168.564"/>
</g>
<!-- Node26&#45;&gt;Node5 -->
<g id="edge29" class="edge"><title>Node26&#45;&gt;Node5</title>
<path fill="none" stroke="midnightblue" d="M1289.16,-142.439C1365.55,-129.136 1511.18,-103.777 1580.49,-91.7067"/>
<polygon fill="midnightblue" stroke="midnightblue" points="1581.29,-95.1202 1590.54,-89.9564 1580.09,-88.224 1581.29,-95.1202"/>
</g>
<!-- Node26&#45;&gt;Node20 -->
<g id="edge30" class="edge"><title>Node26&#45;&gt;Node20</title>
<path fill="none" stroke="midnightblue" d="M1208.23,-142.372C1160.13,-129.308 1069.64,-104.731 1024.32,-92.421"/>
<polygon fill="midnightblue" stroke="midnightblue" points="1025.16,-89.0225 1014.6,-89.7789 1023.33,-95.7777 1025.16,-89.0225"/>
</g>
<!-- Node26&#45;&gt;Node22 -->
<g id="edge32" class="edge"><title>Node26&#45;&gt;Node22</title>
<path fill="none" stroke="midnightblue" d="M1253.6,-142.372C1270.96,-131.353 1301.23,-112.145 1321.92,-99.0142"/>
<polygon fill="midnightblue" stroke="midnightblue" points="1323.83,-101.944 1330.4,-93.6305 1320.08,-96.0336 1323.83,-101.944"/>
</g>
<!-- Node27 -->
<g id="node27" class="node"><title>Node27</title>
<polygon fill="none" stroke="#bfbfbf" points="1198.5,-74.5 1198.5,-93.5 1281.5,-93.5 1281.5,-74.5 1198.5,-74.5"/>
<text text-anchor="middle" x="1240" y="-81.5" font-family="Helvetica,sans-Serif" font-size="10.00">unordered_map</text>
</g>
<!-- Node26&#45;&gt;Node27 -->
<g id="edge31" class="edge"><title>Node26&#45;&gt;Node27</title>
<path fill="none" stroke="midnightblue" d="M1240,-142.372C1240,-132.643 1240,-116.528 1240,-103.85"/>
<polygon fill="midnightblue" stroke="midnightblue" points="1243.5,-103.841 1240,-93.8411 1236.5,-103.841 1243.5,-103.841"/>
</g>
<!-- Node34 -->
<g id="node34" class="node"><title>Node34</title>
<polygon fill="none" stroke="#bfbfbf" points="146.5,-6.5 146.5,-25.5 175.5,-25.5 175.5,-6.5 146.5,-6.5"/>
<text text-anchor="middle" x="161" y="-13.5" font-family="Helvetica,sans-Serif" font-size="10.00">list</text>
</g>
<!-- Node33&#45;&gt;Node34 -->
<g id="edge40" class="edge"><title>Node33&#45;&gt;Node34</title>
<path fill="none" stroke="midnightblue" d="M259.846,-74.4985C241.317,-64.6428 210.126,-47.7334 184,-32 183.592,-31.7541 183.18,-31.5045 182.766,-31.2518"/>
<polygon fill="midnightblue" stroke="midnightblue" points="184.356,-28.1161 174.033,-25.7312 180.615,-34.033 184.356,-28.1161"/>
</g>
<!-- Node35 -->
<g id="node35" class="node"><title>Node35</title>
<polygon fill="none" stroke="#bfbfbf" points="193.5,-6.5 193.5,-25.5 242.5,-25.5 242.5,-6.5 193.5,-6.5"/>
<text text-anchor="middle" x="218" y="-13.5" font-family="Helvetica,sans-Serif" font-size="10.00">cstddef</text>
</g>
<!-- Node33&#45;&gt;Node35 -->
<g id="edge41" class="edge"><title>Node33&#45;&gt;Node35</title>
<path fill="none" stroke="midnightblue" d="M268.418,-74.3717C259.35,-64.053 243.969,-46.5513 232.575,-33.5854"/>
<polygon fill="midnightblue" stroke="midnightblue" points="235,-31.0424 225.769,-25.8411 229.742,-35.6632 235,-31.0424"/>
</g>
<!-- Node36 -->
<g id="node36" class="node"><title>Node36</title>
<polygon fill="none" stroke="#bfbfbf" points="261,-1 261,-31 409,-31 409,-1 261,-1"/>
<text text-anchor="start" x="269" y="-19" font-family="Helvetica,sans-Serif" font-size="10.00">boost/interprocess</text>
<text text-anchor="middle" x="335" y="-8" font-family="Helvetica,sans-Serif" font-size="10.00">/managed_external_buffer.hpp</text>
</g>
<!-- Node33&#45;&gt;Node36 -->
<g id="edge42" class="edge"><title>Node33&#45;&gt;Node36</title>
<path fill="none" stroke="midnightblue" d="M283.713,-74.3717C291.759,-65.3715 304.69,-50.9067 315.554,-38.7534"/>
<polygon fill="midnightblue" stroke="midnightblue" points="318.267,-40.9695 322.323,-31.1815 313.049,-36.3042 318.267,-40.9695"/>
</g>
<!-- Node37 -->
<g id="node37" class="node"><title>Node37</title>
<polygon fill="none" stroke="#bfbfbf" points="427,-1 427,-31 547,-31 547,-1 427,-1"/>
<text text-anchor="start" x="435" y="-19" font-family="Helvetica,sans-Serif" font-size="10.00">boost/interprocess</text>
<text text-anchor="middle" x="487" y="-8" font-family="Helvetica,sans-Serif" font-size="10.00">/allocators/allocator.hpp</text>
</g>
<!-- Node33&#45;&gt;Node37 -->
<g id="edge43" class="edge"><title>Node33&#45;&gt;Node37</title>
<path fill="none" stroke="midnightblue" d="M303.585,-74.3717C336.161,-64.182 391.13,-46.9877 432.416,-34.0738"/>
<polygon fill="midnightblue" stroke="midnightblue" points="433.564,-37.382 442.063,-31.0562 431.474,-30.7012 433.564,-37.382"/>
</g>
<!-- Node38&#45;&gt;Node33 -->
<g id="edge45" class="edge"><title>Node38&#45;&gt;Node33</title>
<path fill="none" stroke="midnightblue" d="M259.484,-142.372C262.313,-132.544 267.018,-116.202 270.684,-103.467"/>
<polygon fill="midnightblue" stroke="midnightblue" points="274.052,-104.419 273.455,-93.8411 267.325,-102.483 274.052,-104.419"/>
</g>
<!-- Node38&#45;&gt;Node39 -->
<g id="edge46" class="edge"><title>Node38&#45;&gt;Node39</title>
<path fill="none" stroke="midnightblue" d="M236.083,-142.372C208.217,-130.877 158.742,-110.469 126.931,-97.3465"/>
<polygon fill="midnightblue" stroke="midnightblue" points="128.248,-94.1037 117.669,-93.5259 125.579,-100.575 128.248,-94.1037"/>
</g>
<!-- Node42&#45;&gt;Node5 -->
<g id="edge51" class="edge"><title>Node42&#45;&gt;Node5</title>
<path fill="none" stroke="midnightblue" d="M1689.97,-210.474C1706.69,-195.114 1737.05,-161.976 1721,-136 1716.77,-129.153 1676.75,-110.426 1648.13,-97.6745"/>
<polygon fill="midnightblue" stroke="midnightblue" points="1649.48,-94.4476 1638.92,-93.6049 1646.65,-100.85 1649.48,-94.4476"/>
</g>
<!-- Node43 -->
<g id="node43" class="node"><title>Node43</title>
<polygon fill="none" stroke="#bfbfbf" points="1647.5,-142.5 1647.5,-161.5 1712.5,-161.5 1712.5,-142.5 1647.5,-142.5"/>
<text text-anchor="middle" x="1680" y="-149.5" font-family="Helvetica,sans-Serif" font-size="10.00">TVector3.h</text>
</g>
<!-- Node42&#45;&gt;Node43 -->
<g id="edge52" class="edge"><title>Node42&#45;&gt;Node43</title>
<path fill="none" stroke="midnightblue" d="M1680,-210.372C1680,-200.643 1680,-184.528 1680,-171.85"/>
<polygon fill="midnightblue" stroke="midnightblue" points="1683.5,-171.841 1680,-161.841 1676.5,-171.841 1683.5,-171.841"/>
</g>
<!-- Node44&#45;&gt;Node30 -->
<g id="edge59" class="edge"><title>Node44&#45;&gt;Node30</title>
<path fill="none" stroke="midnightblue" d="M260.392,-272.971C236.834,-264.199 207.637,-251.601 184,-236 155.253,-217.026 127.421,-188.031 111.267,-169.815"/>
<polygon fill="midnightblue" stroke="midnightblue" points="113.525,-167.078 104.322,-161.829 108.243,-171.671 113.525,-167.078"/>
</g>
<!-- Node44&#45;&gt;Node39 -->
<g id="edge56" class="edge"><title>Node44&#45;&gt;Node39</title>
<path fill="none" stroke="midnightblue" d="M245.814,-279.537C184.424,-267.945 91.1158,-238.982 57,-168 45.805,-144.707 64.6721,-117.757 80.1155,-101.042"/>
<polygon fill="midnightblue" stroke="midnightblue" points="82.7863,-103.317 87.2751,-93.7204 77.7813,-98.4234 82.7863,-103.317"/>
</g>
<!-- Node45 -->
<g id="node45" class="node"><title>Node45</title>
<polygon fill="none" stroke="#bfbfbf" points="193,-210.5 193,-229.5 255,-229.5 255,-210.5 193,-210.5"/>
<text text-anchor="middle" x="224" y="-217.5" font-family="Helvetica,sans-Serif" font-size="10.00">TNamed.h</text>
</g>
<!-- Node44&#45;&gt;Node45 -->
<g id="edge55" class="edge"><title>Node44&#45;&gt;Node45</title>
<path fill="none" stroke="midnightblue" d="M285.858,-272.679C273.053,-261.981 255.572,-247.377 242.46,-236.422"/>
<polygon fill="midnightblue" stroke="midnightblue" points="244.485,-233.554 234.567,-229.828 239.997,-238.926 244.485,-233.554"/>
</g>
<!-- Node46 -->
<g id="node46" class="node"><title>Node46</title>
<polygon fill="none" stroke="#bfbfbf" points="273.5,-210.5 273.5,-229.5 332.5,-229.5 332.5,-210.5 273.5,-210.5"/>
<text text-anchor="middle" x="303" y="-217.5" font-family="Helvetica,sans-Serif" font-size="10.00">stdexcept</text>
</g>
<!-- Node44&#45;&gt;Node46 -->
<g id="edge57" class="edge"><title>Node44&#45;&gt;Node46</title>
<path fill="none" stroke="midnightblue" d="M303,-272.679C303,-263.101 303,-250.394 303,-239.977"/>
<polygon fill="midnightblue" stroke="midnightblue" points="306.5,-239.828 303,-229.828 299.5,-239.828 306.5,-239.828"/>
</g>
<!-- Node47 -->
<g id="node47" class="node"><title>Node47</title>
<polygon fill="none" stroke="#bfbfbf" points="350.5,-210.5 350.5,-229.5 395.5,-229.5 395.5,-210.5 350.5,-210.5"/>
<text text-anchor="middle" x="373" y="-217.5" font-family="Helvetica,sans-Serif" font-size="10.00">gsl/gsl</text>
</g>
<!-- Node44&#45;&gt;Node47 -->
<g id="edge58" class="edge"><title>Node44&#45;&gt;Node47</title>
<path fill="none" stroke="midnightblue" d="M318.189,-272.679C329.428,-262.082 344.73,-247.655 356.31,-236.736"/>
<polygon fill="midnightblue" stroke="midnightblue" points="358.762,-239.235 363.637,-229.828 353.96,-234.142 358.762,-239.235"/>
</g>
<!-- Node49 -->
<g id="node49" class="node"><title>Node49</title>
<polygon fill="none" stroke="#bfbfbf" points="2177,-142.5 2177,-161.5 2305,-161.5 2305,-142.5 2177,-142.5"/>
<text text-anchor="middle" x="2241" y="-149.5" font-family="Helvetica,sans-Serif" font-size="10.00">AliTPCCommonRtypes.h</text>
</g>
<!-- Node48&#45;&gt;Node49 -->
<g id="edge61" class="edge"><title>Node48&#45;&gt;Node49</title>
<path fill="none" stroke="midnightblue" d="M2133.39,-204.841C2157.19,-193.374 2190.47,-177.342 2213.7,-166.153"/>
<polygon fill="midnightblue" stroke="midnightblue" points="2215.49,-169.175 2222.98,-161.682 2212.45,-162.869 2215.49,-169.175"/>
</g>
<!-- Node50&#45;&gt;Node48 -->
<g id="edge63" class="edge"><title>Node50&#45;&gt;Node48</title>
<path fill="none" stroke="midnightblue" d="M1202.2,-287.027C1348.68,-286.299 1718.84,-279.991 2036.54,-236.042"/>
<polygon fill="midnightblue" stroke="midnightblue" points="2037.45,-239.449 2046.87,-234.597 2036.48,-232.516 2037.45,-239.449"/>
</g>
<!-- Node51&#45;&gt;Node5 -->
<g id="edge67" class="edge"><title>Node51&#45;&gt;Node5</title>
<path fill="none" stroke="midnightblue" d="M543.614,-137.096C546.78,-136.696 549.918,-136.328 553,-136 922.815,-96.6769 1017.64,-120.103 1389,-100 1456.47,-96.3478 1534.99,-90.988 1580.64,-87.7619"/>
<polygon fill="midnightblue" stroke="midnightblue" points="1580.96,-91.248 1590.69,-87.0487 1580.46,-84.2656 1580.96,-91.248"/>
</g>
<!-- Node51&#45;&gt;Node6 -->
<g id="edge68" class="edge"><title>Node51&#45;&gt;Node6</title>
<path fill="none" stroke="midnightblue" d="M543.61,-137.055C546.777,-136.666 549.916,-136.312 553,-136 796.777,-111.357 1416.41,-155.774 1655,-100 1657.67,-99.3769 1660.38,-98.5324 1663.04,-97.5598"/>
<polygon fill="midnightblue" stroke="midnightblue" points="1664.48,-100.753 1672.34,-93.6423 1661.76,-94.3027 1664.48,-100.753"/>
</g>
<!-- Node52 -->
<g id="node52" class="node"><title>Node52</title>
<polygon fill="none" stroke="#bfbfbf" points="566,-74.5 566,-93.5 610,-93.5 610,-74.5 566,-74.5"/>
<text text-anchor="middle" x="588" y="-81.5" font-family="Helvetica,sans-Serif" font-size="10.00">cmath</text>
</g>
<!-- Node51&#45;&gt;Node52 -->
<g id="edge69" class="edge"><title>Node51&#45;&gt;Node52</title>
<path fill="none" stroke="midnightblue" d="M491.387,-136.841C512.567,-125.476 542.102,-109.628 562.927,-98.454"/>
<polygon fill="midnightblue" stroke="midnightblue" points="564.663,-101.494 571.82,-93.6819 561.354,-95.326 564.663,-101.494"/>
</g>
<!-- Node53 -->
<g id="node53" class="node"><title>Node53</title>
<g id="a_node53"><a xlink:href="../../d4/dc6/LHCConstants_8h.html" target="_top" xlink:title="Header to collect LHC related constants. ">
<polygon fill="none" stroke="black" points="370,-74.5 370,-93.5 548,-93.5 548,-74.5 370,-74.5"/>
<text text-anchor="middle" x="459" y="-81.5" font-family="Helvetica,sans-Serif" font-size="10.00">CommonConstants/LHCConstants.h</text>
</a>
</g>
</g>
<!-- Node51&#45;&gt;Node53 -->
<g id="edge70" class="edge"><title>Node51&#45;&gt;Node53</title>
<path fill="none" stroke="midnightblue" d="M463.698,-136.679C462.827,-127.101 461.672,-114.394 460.725,-103.977"/>
<polygon fill="midnightblue" stroke="midnightblue" points="464.194,-103.47 459.803,-93.8283 457.222,-104.104 464.194,-103.47"/>
</g>
</g>
</svg>
