<?xml version="1.0" encoding="UTF-8" standalone="no"?>
<!DOCTYPE svg PUBLIC "-//W3C//DTD SVG 1.1//EN"
 "http://www.w3.org/Graphics/SVG/1.1/DTD/svg11.dtd">
<!-- Generated by graphviz version 2.36.0 (20140111.2315)
 -->
<!-- Title: /home/travis/build/AliceO2Group/AliceO2/Framework/Core/include/Framework/DataRelayer.h Pages: 1 -->
<svg width="2162pt" height="434pt"
 viewBox="0.00 0.00 2161.56 434.00" xmlns="http://www.w3.org/2000/svg" xmlns:xlink="http://www.w3.org/1999/xlink">
<g id="graph0" class="graph" transform="scale(1 1) rotate(0) translate(4 430)">
<title>/home/travis/build/AliceO2Group/AliceO2/Framework/Core/include/Framework/DataRelayer.h</title>
<!-- Node1 -->
<g id="node1" class="node"><title>Node1</title>
<polygon fill="#bfbfbf" stroke="black" points="1629.56,-373 1629.56,-425 1763.56,-425 1763.56,-373 1629.56,-373"/>
<text text-anchor="start" x="1637.56" y="-413" font-family="Helvetica,sans-Serif" font-size="10.00">/home/travis/build</text>
<text text-anchor="start" x="1637.56" y="-402" font-family="Helvetica,sans-Serif" font-size="10.00">/AliceO2Group/AliceO2</text>
<text text-anchor="start" x="1637.56" y="-391" font-family="Helvetica,sans-Serif" font-size="10.00">/Framework/Core/include</text>
<text text-anchor="middle" x="1696.56" y="-380" font-family="Helvetica,sans-Serif" font-size="10.00">/Framework/DataRelayer.h</text>
</g>
<!-- Node2 -->
<g id="node2" class="node"><title>Node2</title>
<g id="a_node2"><a xlink:href="../../d5/d19/InputRoute_8h.html" target="_top" xlink:title="Framework/InputRoute.h">
<polygon fill="none" stroke="black" points="1783.06,-316.5 1783.06,-335.5 1908.06,-335.5 1908.06,-316.5 1783.06,-316.5"/>
<text text-anchor="middle" x="1845.56" y="-323.5" font-family="Helvetica,sans-Serif" font-size="10.00">Framework/InputRoute.h</text>
</a>
</g>
</g>
<!-- Node1&#45;&gt;Node2 -->
<g id="edge1" class="edge"><title>Node1&#45;&gt;Node2</title>
<path fill="none" stroke="midnightblue" d="M1749.09,-372.968C1772.46,-361.834 1798.99,-349.191 1818.31,-339.986"/>
<polygon fill="midnightblue" stroke="midnightblue" points="1819.91,-343.1 1827.43,-335.639 1816.9,-336.781 1819.91,-343.1"/>
</g>
<!-- Node17 -->
<g id="node17" class="node"><title>Node17</title>
<g id="a_node17"><a xlink:href="../../d3/da3/DataDescriptorMatcher_8h.html" target="_top" xlink:title="Framework/DataDescriptor\lMatcher.h">
<polygon fill="none" stroke="black" points="1137.56,-193 1137.56,-223 1271.56,-223 1271.56,-193 1137.56,-193"/>
<text text-anchor="start" x="1145.56" y="-211" font-family="Helvetica,sans-Serif" font-size="10.00">Framework/DataDescriptor</text>
<text text-anchor="middle" x="1204.56" y="-200" font-family="Helvetica,sans-Serif" font-size="10.00">Matcher.h</text>
</a>
</g>
</g>
<!-- Node1&#45;&gt;Node17 -->
<g id="edge57" class="edge"><title>Node1&#45;&gt;Node17</title>
<path fill="none" stroke="midnightblue" d="M1629.28,-381.904C1553.02,-362.5 1425.9,-326.602 1322.56,-280 1290.48,-265.533 1256.28,-244.23 1233,-228.734"/>
<polygon fill="midnightblue" stroke="midnightblue" points="1234.89,-225.788 1224.64,-223.106 1230.98,-231.595 1234.89,-225.788"/>
</g>
<!-- Node28 -->
<g id="node28" class="node"><title>Node28</title>
<polygon fill="none" stroke="#bfbfbf" points="1992.56,-6.5 1992.56,-25.5 2036.56,-25.5 2036.56,-6.5 1992.56,-6.5"/>
<text text-anchor="middle" x="2014.56" y="-13.5" font-family="Helvetica,sans-Serif" font-size="10.00">vector</text>
</g>
<!-- Node1&#45;&gt;Node28 -->
<g id="edge76" class="edge"><title>Node1&#45;&gt;Node28</title>
<path fill="none" stroke="midnightblue" d="M1696.25,-372.753C1696.94,-331.311 1703.55,-247.89 1742.56,-192 1775.2,-145.235 1927.3,-62.5008 1988.73,-30.3241"/>
<polygon fill="midnightblue" stroke="midnightblue" points="1990.52,-33.3336 1997.77,-25.6073 1987.29,-27.1264 1990.52,-33.3336"/>
</g>
<!-- Node39 -->
<g id="node39" class="node"><title>Node39</title>
<polygon fill="none" stroke="#bfbfbf" points="2104.06,-260.5 2104.06,-279.5 2153.06,-279.5 2153.06,-260.5 2104.06,-260.5"/>
<text text-anchor="middle" x="2128.56" y="-267.5" font-family="Helvetica,sans-Serif" font-size="10.00">cstddef</text>
</g>
<!-- Node1&#45;&gt;Node39 -->
<g id="edge75" class="edge"><title>Node1&#45;&gt;Node39</title>
<path fill="none" stroke="midnightblue" d="M1763.87,-394.427C1862.35,-388.048 2039.66,-371.853 2091.56,-336 2107.55,-324.954 2117.49,-304.606 2122.99,-289.608"/>
<polygon fill="midnightblue" stroke="midnightblue" points="2126.4,-290.436 2126.23,-279.843 2119.76,-288.231 2126.4,-290.436"/>
</g>
<!-- Node40 -->
<g id="node40" class="node"><title>Node40</title>
<g id="a_node40"><a xlink:href="../../d7/d12/ForwardRoute_8h.html" target="_top" xlink:title="Framework/ForwardRoute.h">
<polygon fill="none" stroke="black" points="1944.56,-316.5 1944.56,-335.5 2082.56,-335.5 2082.56,-316.5 1944.56,-316.5"/>
<text text-anchor="middle" x="2013.56" y="-323.5" font-family="Helvetica,sans-Serif" font-size="10.00">Framework/ForwardRoute.h</text>
</a>
</g>
</g>
<!-- Node1&#45;&gt;Node40 -->
<g id="edge58" class="edge"><title>Node1&#45;&gt;Node40</title>
<path fill="none" stroke="midnightblue" d="M1763.79,-382.943C1824.23,-369.405 1911.53,-349.852 1965.3,-337.809"/>
<polygon fill="midnightblue" stroke="midnightblue" points="1966.27,-341.179 1975.26,-335.578 1964.74,-334.348 1966.27,-341.179"/>
</g>
<!-- Node41 -->
<g id="node41" class="node"><title>Node41</title>
<g id="a_node41"><a xlink:href="../../df/dd6/CompletionPolicy_8h.html" target="_top" xlink:title="Framework/CompletionPolicy.h">
<polygon fill="none" stroke="black" points="1542.06,-260.5 1542.06,-279.5 1695.06,-279.5 1695.06,-260.5 1542.06,-260.5"/>
<text text-anchor="middle" x="1618.56" y="-267.5" font-family="Helvetica,sans-Serif" font-size="10.00">Framework/CompletionPolicy.h</text>
</a>
</g>
</g>
<!-- Node1&#45;&gt;Node41 -->
<g id="edge62" class="edge"><title>Node1&#45;&gt;Node41</title>
<path fill="none" stroke="midnightblue" d="M1681.15,-372.909C1665.76,-347.847 1642.51,-309.999 1629.11,-288.172"/>
<polygon fill="midnightblue" stroke="midnightblue" points="1632.07,-286.317 1623.86,-279.628 1626.11,-289.981 1632.07,-286.317"/>
</g>
<!-- Node42 -->
<g id="node42" class="node"><title>Node42</title>
<g id="a_node42"><a xlink:href="../../d9/d32/PartRef_8h.html" target="_top" xlink:title="Framework/PartRef.h">
<polygon fill="none" stroke="black" points="1009.56,-198.5 1009.56,-217.5 1119.56,-217.5 1119.56,-198.5 1009.56,-198.5"/>
<text text-anchor="middle" x="1064.56" y="-205.5" font-family="Helvetica,sans-Serif" font-size="10.00">Framework/PartRef.h</text>
</a>
</g>
</g>
<!-- Node1&#45;&gt;Node42 -->
<g id="edge69" class="edge"><title>Node1&#45;&gt;Node42</title>
<path fill="none" stroke="midnightblue" d="M1629.39,-387.106C1571.03,-376.765 1484.64,-359.336 1411.56,-336 1351.24,-316.739 1337.25,-308.199 1280.56,-280 1264.52,-272.021 1262.08,-266.926 1245.56,-260 1220.93,-249.675 1153.84,-231.714 1108.63,-220.096"/>
<polygon fill="midnightblue" stroke="midnightblue" points="1109.33,-216.663 1098.78,-217.575 1107.6,-223.444 1109.33,-216.663"/>
</g>
<!-- Node44 -->
<g id="node44" class="node"><title>Node44</title>
<g id="a_node44"><a xlink:href="../../d4/def/TimesliceIndex_8h.html" target="_top" xlink:title="Framework/TimesliceIndex.h">
<polygon fill="none" stroke="black" points="1094.06,-260.5 1094.06,-279.5 1237.06,-279.5 1237.06,-260.5 1094.06,-260.5"/>
<text text-anchor="middle" x="1165.56" y="-267.5" font-family="Helvetica,sans-Serif" font-size="10.00">Framework/TimesliceIndex.h</text>
</a>
</g>
</g>
<!-- Node1&#45;&gt;Node44 -->
<g id="edge70" class="edge"><title>Node1&#45;&gt;Node44</title>
<path fill="none" stroke="midnightblue" d="M1629.54,-392.821C1522.57,-383.862 1318.49,-363.732 1251.56,-336 1224.17,-324.653 1197.75,-302.464 1181.59,-287.194"/>
<polygon fill="midnightblue" stroke="midnightblue" points="1183.73,-284.394 1174.12,-279.933 1178.85,-289.413 1183.73,-284.394"/>
</g>
<!-- Node3 -->
<g id="node3" class="node"><title>Node3</title>
<g id="a_node3"><a xlink:href="../../d2/dd9/ExpirationHandler_8h.html" target="_top" xlink:title="Framework/ExpirationHandler.h">
<polygon fill="none" stroke="black" points="1331.56,-260.5 1331.56,-279.5 1485.56,-279.5 1485.56,-260.5 1331.56,-260.5"/>
<text text-anchor="middle" x="1408.56" y="-267.5" font-family="Helvetica,sans-Serif" font-size="10.00">Framework/ExpirationHandler.h</text>
</a>
</g>
</g>
<!-- Node2&#45;&gt;Node3 -->
<g id="edge2" class="edge"><title>Node2&#45;&gt;Node3</title>
<path fill="none" stroke="midnightblue" d="M1782.95,-317.263C1705.16,-307.651 1572.37,-291.242 1487.63,-280.771"/>
<polygon fill="midnightblue" stroke="midnightblue" points="1487.9,-277.277 1477.54,-279.524 1487.04,-284.224 1487.9,-277.277"/>
</g>
<!-- Node5 -->
<g id="node5" class="node"><title>Node5</title>
<polygon fill="none" stroke="#bfbfbf" points="1451.06,-198.5 1451.06,-217.5 1510.06,-217.5 1510.06,-198.5 1451.06,-198.5"/>
<text text-anchor="middle" x="1480.56" y="-205.5" font-family="Helvetica,sans-Serif" font-size="10.00">functional</text>
</g>
<!-- Node2&#45;&gt;Node5 -->
<g id="edge56" class="edge"><title>Node2&#45;&gt;Node5</title>
<path fill="none" stroke="midnightblue" d="M1782.73,-321.696C1703.76,-316.574 1573.57,-304.621 1532.56,-280 1511.95,-267.625 1497.03,-243.641 1488.59,-226.993"/>
<polygon fill="midnightblue" stroke="midnightblue" points="1491.65,-225.265 1484.18,-217.744 1485.33,-228.277 1491.65,-225.265"/>
</g>
<!-- Node6 -->
<g id="node6" class="node"><title>Node6</title>
<g id="a_node6"><a xlink:href="../../d5/d3f/InputSpec_8h.html" target="_top" xlink:title="Framework/InputSpec.h">
<polygon fill="none" stroke="black" points="1801.06,-260.5 1801.06,-279.5 1922.06,-279.5 1922.06,-260.5 1801.06,-260.5"/>
<text text-anchor="middle" x="1861.56" y="-267.5" font-family="Helvetica,sans-Serif" font-size="10.00">Framework/InputSpec.h</text>
</a>
</g>
</g>
<!-- Node2&#45;&gt;Node6 -->
<g id="edge5" class="edge"><title>Node2&#45;&gt;Node6</title>
<path fill="none" stroke="midnightblue" d="M1848.2,-316.083C1850.34,-308.849 1853.44,-298.409 1856.11,-289.397"/>
<polygon fill="midnightblue" stroke="midnightblue" points="1859.48,-290.333 1858.97,-279.751 1852.77,-288.345 1859.48,-290.333"/>
</g>
<!-- Node15 -->
<g id="node15" class="node"><title>Node15</title>
<polygon fill="none" stroke="#bfbfbf" points="2055.06,-6.5 2055.06,-25.5 2096.06,-25.5 2096.06,-6.5 2055.06,-6.5"/>
<text text-anchor="middle" x="2075.56" y="-13.5" font-family="Helvetica,sans-Serif" font-size="10.00">string</text>
</g>
<!-- Node2&#45;&gt;Node15 -->
<g id="edge55" class="edge"><title>Node2&#45;&gt;Node15</title>
<path fill="none" stroke="midnightblue" d="M1898.02,-316.496C1954.87,-303.938 2037.56,-274.427 2037.56,-209 2037.56,-209 2037.56,-209 2037.56,-139 2037.56,-100.351 2055.16,-57.8037 2066.4,-34.5639"/>
<polygon fill="midnightblue" stroke="midnightblue" points="2069.55,-36.0986 2070.9,-25.5903 2063.29,-32.9625 2069.55,-36.0986"/>
</g>
<!-- Node2&#45;&gt;Node39 -->
<g id="edge54" class="edge"><title>Node2&#45;&gt;Node39</title>
<path fill="none" stroke="midnightblue" d="M1890.4,-316.444C1946.98,-305.648 2043.04,-287.318 2094.16,-277.564"/>
<polygon fill="midnightblue" stroke="midnightblue" points="2094.89,-280.987 2104.06,-275.675 2093.58,-274.111 2094.89,-280.987"/>
</g>
<!-- Node4 -->
<g id="node4" class="node"><title>Node4</title>
<polygon fill="none" stroke="#bfbfbf" points="8.55912,-6.5 8.55912,-25.5 54.5591,-25.5 54.5591,-6.5 8.55912,-6.5"/>
<text text-anchor="middle" x="31.5591" y="-13.5" font-family="Helvetica,sans-Serif" font-size="10.00">cstdint</text>
</g>
<!-- Node3&#45;&gt;Node4 -->
<g id="edge3" class="edge"><title>Node3&#45;&gt;Node4</title>
<path fill="none" stroke="midnightblue" d="M1331.17,-263.906C1085.24,-247.395 331.677,-194.222 228.559,-156 152.538,-127.822 78.7798,-62.712 47.3787,-32.6869"/>
<polygon fill="midnightblue" stroke="midnightblue" points="49.6175,-29.9824 40.0038,-25.5295 44.7423,-35.0056 49.6175,-29.9824"/>
</g>
<!-- Node3&#45;&gt;Node5 -->
<g id="edge4" class="edge"><title>Node3&#45;&gt;Node5</title>
<path fill="none" stroke="midnightblue" d="M1418.87,-260.403C1430.21,-250.958 1448.63,-235.606 1462.4,-224.134"/>
<polygon fill="midnightblue" stroke="midnightblue" points="1464.82,-226.671 1470.26,-217.581 1460.34,-221.294 1464.82,-226.671"/>
</g>
<!-- Node7 -->
<g id="node7" class="node"><title>Node7</title>
<g id="a_node7"><a xlink:href="../../dc/dca/Lifetime_8h.html" target="_top" xlink:title="Framework/Lifetime.h">
<polygon fill="none" stroke="black" points="1822.06,-198.5 1822.06,-217.5 1933.06,-217.5 1933.06,-198.5 1822.06,-198.5"/>
<text text-anchor="middle" x="1877.56" y="-205.5" font-family="Helvetica,sans-Serif" font-size="10.00">Framework/Lifetime.h</text>
</a>
</g>
</g>
<!-- Node6&#45;&gt;Node7 -->
<g id="edge6" class="edge"><title>Node6&#45;&gt;Node7</title>
<path fill="none" stroke="midnightblue" d="M1863.85,-260.403C1866.13,-251.849 1869.71,-238.45 1872.63,-227.476"/>
<polygon fill="midnightblue" stroke="midnightblue" points="1876.08,-228.145 1875.27,-217.581 1869.31,-226.341 1876.08,-228.145"/>
</g>
<!-- Node8 -->
<g id="node8" class="node"><title>Node8</title>
<g id="a_node8"><a xlink:href="../../d0/d1b/ConcreteDataMatcher_8h.html" target="_top" xlink:title="Framework/ConcreteDataMatcher.h">
<polygon fill="none" stroke="black" points="1268.06,-130.5 1268.06,-149.5 1441.06,-149.5 1441.06,-130.5 1268.06,-130.5"/>
<text text-anchor="middle" x="1354.56" y="-137.5" font-family="Helvetica,sans-Serif" font-size="10.00">Framework/ConcreteDataMatcher.h</text>
</a>
</g>
</g>
<!-- Node6&#45;&gt;Node8 -->
<g id="edge7" class="edge"><title>Node6&#45;&gt;Node8</title>
<path fill="none" stroke="midnightblue" d="M1833.52,-260.439C1784.36,-245.571 1679.31,-214.42 1589.56,-192 1527.36,-176.462 1455.21,-161.212 1407.44,-151.497"/>
<polygon fill="midnightblue" stroke="midnightblue" points="1408.12,-148.064 1397.63,-149.51 1406.73,-154.925 1408.12,-148.064"/>
</g>
<!-- Node6&#45;&gt;Node15 -->
<g id="edge51" class="edge"><title>Node6&#45;&gt;Node15</title>
<path fill="none" stroke="midnightblue" d="M1895.28,-260.413C1916.15,-253.582 1942.19,-242.101 1959.56,-224 2011.45,-169.93 1981.73,-130.179 2023.56,-68 2032.67,-54.4559 2045.82,-41.6028 2056.61,-32.1879"/>
<polygon fill="midnightblue" stroke="midnightblue" points="2058.91,-34.826 2064.3,-25.704 2054.4,-29.4744 2058.91,-34.826"/>
</g>
<!-- Node6&#45;&gt;Node17 -->
<g id="edge17" class="edge"><title>Node6&#45;&gt;Node17</title>
<path fill="none" stroke="midnightblue" d="M1800.93,-263.463C1681.11,-252.521 1414.19,-228.144 1281.92,-216.065"/>
<polygon fill="midnightblue" stroke="midnightblue" points="1282.14,-212.57 1271.86,-215.146 1281.5,-219.541 1282.14,-212.57"/>
</g>
<!-- Node36 -->
<g id="node36" class="node"><title>Node36</title>
<polygon fill="none" stroke="#bfbfbf" points="1535.56,-130.5 1535.56,-149.5 1581.56,-149.5 1581.56,-130.5 1535.56,-130.5"/>
<text text-anchor="middle" x="1558.56" y="-137.5" font-family="Helvetica,sans-Serif" font-size="10.00">variant</text>
</g>
<!-- Node6&#45;&gt;Node36 -->
<g id="edge53" class="edge"><title>Node6&#45;&gt;Node36</title>
<path fill="none" stroke="midnightblue" d="M1891.81,-260.488C1909.68,-253.726 1930.86,-242.295 1941.56,-224 1948.74,-211.723 1950.93,-202.7 1941.56,-192 1918.6,-165.783 1680.55,-148.524 1591.73,-142.955"/>
<polygon fill="midnightblue" stroke="midnightblue" points="1591.86,-139.456 1581.67,-142.334 1591.43,-146.443 1591.86,-139.456"/>
</g>
<!-- Node38 -->
<g id="node38" class="node"><title>Node38</title>
<polygon fill="none" stroke="#bfbfbf" points="1751.56,-198.5 1751.56,-217.5 1803.56,-217.5 1803.56,-198.5 1751.56,-198.5"/>
<text text-anchor="middle" x="1777.56" y="-205.5" font-family="Helvetica,sans-Serif" font-size="10.00">ostream</text>
</g>
<!-- Node6&#45;&gt;Node38 -->
<g id="edge52" class="edge"><title>Node6&#45;&gt;Node38</title>
<path fill="none" stroke="midnightblue" d="M1849.52,-260.403C1836.05,-250.78 1813.99,-235.024 1797.84,-223.489"/>
<polygon fill="midnightblue" stroke="midnightblue" points="1799.74,-220.545 1789.57,-217.581 1795.67,-226.241 1799.74,-220.545"/>
</g>
<!-- Node9 -->
<g id="node9" class="node"><title>Node9</title>
<g id="a_node9"><a xlink:href="../../dc/dcd/DataHeader_8h.html" target="_top" xlink:title="Headers/DataHeader.h">
<polygon fill="none" stroke="black" points="419.059,-68.5 419.059,-87.5 536.059,-87.5 536.059,-68.5 419.059,-68.5"/>
<text text-anchor="middle" x="477.559" y="-75.5" font-family="Helvetica,sans-Serif" font-size="10.00">Headers/DataHeader.h</text>
</a>
</g>
</g>
<!-- Node8&#45;&gt;Node9 -->
<g id="edge8" class="edge"><title>Node8&#45;&gt;Node9</title>
<path fill="none" stroke="midnightblue" d="M1305.84,-130.446C1290.73,-128.046 1273.99,-125.646 1258.56,-124 996.635,-96.0586 683.313,-84.6258 546.808,-80.7251"/>
<polygon fill="midnightblue" stroke="midnightblue" points="546.598,-77.2179 536.503,-80.4354 546.401,-84.2151 546.598,-77.2179"/>
</g>
<!-- Node9&#45;&gt;Node4 -->
<g id="edge9" class="edge"><title>Node9&#45;&gt;Node4</title>
<path fill="none" stroke="midnightblue" d="M418.722,-71.687C312.579,-61.9422 96.9308,-41.3547 63.5591,-32 61.2163,-31.3433 58.8314,-30.53 56.4737,-29.6246"/>
<polygon fill="midnightblue" stroke="midnightblue" points="57.6784,-26.3317 47.1126,-25.5478 54.8834,-32.7496 57.6784,-26.3317"/>
</g>
<!-- Node10 -->
<g id="node10" class="node"><title>Node10</title>
<polygon fill="none" stroke="#bfbfbf" points="72.5591,-6.5 72.5591,-25.5 124.559,-25.5 124.559,-6.5 72.5591,-6.5"/>
<text text-anchor="middle" x="98.5591" y="-13.5" font-family="Helvetica,sans-Serif" font-size="10.00">memory</text>
</g>
<!-- Node9&#45;&gt;Node10 -->
<g id="edge10" class="edge"><title>Node9&#45;&gt;Node10</title>
<path fill="none" stroke="midnightblue" d="M418.777,-71.2802C335.082,-62.7999 185.912,-46.3473 133.559,-32 130.901,-31.2716 128.181,-30.3827 125.489,-29.4048"/>
<polygon fill="midnightblue" stroke="midnightblue" points="126.609,-26.0831 116.025,-25.6015 123.999,-32.5781 126.609,-26.0831"/>
</g>
<!-- Node11 -->
<g id="node11" class="node"><title>Node11</title>
<polygon fill="none" stroke="#bfbfbf" points="143.059,-6.5 143.059,-25.5 192.059,-25.5 192.059,-6.5 143.059,-6.5"/>
<text text-anchor="middle" x="167.559" y="-13.5" font-family="Helvetica,sans-Serif" font-size="10.00">cassert</text>
</g>
<!-- Node9&#45;&gt;Node11 -->
<g id="edge11" class="edge"><title>Node9&#45;&gt;Node11</title>
<path fill="none" stroke="midnightblue" d="M418.807,-69.3198C349.984,-59.9963 240.313,-44.0295 200.559,-32 198.221,-31.2926 195.834,-30.4548 193.465,-29.5426"/>
<polygon fill="midnightblue" stroke="midnightblue" points="194.585,-26.2154 184.014,-25.5161 191.842,-32.6554 194.585,-26.2154"/>
</g>
<!-- Node12 -->
<g id="node12" class="node"><title>Node12</title>
<polygon fill="none" stroke="#bfbfbf" points="517.559,-6.5 517.559,-25.5 563.559,-25.5 563.559,-6.5 517.559,-6.5"/>
<text text-anchor="middle" x="540.559" y="-13.5" font-family="Helvetica,sans-Serif" font-size="10.00">cstring</text>
</g>
<!-- Node9&#45;&gt;Node12 -->
<g id="edge12" class="edge"><title>Node9&#45;&gt;Node12</title>
<path fill="none" stroke="midnightblue" d="M486.585,-68.4035C496.316,-59.1361 512.017,-44.1828 523.982,-32.7876"/>
<polygon fill="midnightblue" stroke="midnightblue" points="526.722,-35.0117 531.549,-25.5806 521.894,-29.9427 526.722,-35.0117"/>
</g>
<!-- Node13 -->
<g id="node13" class="node"><title>Node13</title>
<polygon fill="none" stroke="#bfbfbf" points="287.559,-6.5 287.559,-25.5 343.559,-25.5 343.559,-6.5 287.559,-6.5"/>
<text text-anchor="middle" x="315.559" y="-13.5" font-family="Helvetica,sans-Serif" font-size="10.00">algorithm</text>
</g>
<!-- Node9&#45;&gt;Node13 -->
<g id="edge13" class="edge"><title>Node9&#45;&gt;Node13</title>
<path fill="none" stroke="midnightblue" d="M453.022,-68.4896C427.741,-59.6455 387.242,-45.2674 352.559,-32 350.32,-31.1433 348.01,-30.2442 345.689,-29.3299"/>
<polygon fill="midnightblue" stroke="midnightblue" points="346.83,-26.0166 336.245,-25.5545 344.231,-32.5165 346.83,-26.0166"/>
</g>
<!-- Node14 -->
<g id="node14" class="node"><title>Node14</title>
<polygon fill="none" stroke="#bfbfbf" points="210.059,-6.5 210.059,-25.5 269.059,-25.5 269.059,-6.5 210.059,-6.5"/>
<text text-anchor="middle" x="239.559" y="-13.5" font-family="Helvetica,sans-Serif" font-size="10.00">stdexcept</text>
</g>
<!-- Node9&#45;&gt;Node14 -->
<g id="edge14" class="edge"><title>Node9&#45;&gt;Node14</title>
<path fill="none" stroke="midnightblue" d="M431.223,-68.4987C390.572,-60.5735 330.077,-47.6422 278.559,-32 275.6,-31.1016 272.546,-30.0866 269.509,-29.0186"/>
<polygon fill="midnightblue" stroke="midnightblue" points="270.603,-25.6917 260.01,-25.5049 268.175,-32.2569 270.603,-25.6917"/>
</g>
<!-- Node9&#45;&gt;Node15 -->
<g id="edge15" class="edge"><title>Node9&#45;&gt;Node15</title>
<path fill="none" stroke="midnightblue" d="M536.272,-76.0036C812.231,-71.2323 1970.08,-50.2019 2044.56,-32 2046.91,-31.4252 2049.3,-30.6568 2051.64,-29.7705"/>
<polygon fill="midnightblue" stroke="midnightblue" points="2053.18,-32.9154 2060.9,-25.6571 2050.34,-26.5182 2053.18,-32.9154"/>
</g>
<!-- Node16 -->
<g id="node16" class="node"><title>Node16</title>
<g id="a_node16"><a xlink:href="../../d7/df8/Types_8h.html" target="_top" xlink:title="MemoryResources/Types.h">
<polygon fill="none" stroke="black" points="362.059,-6.5 362.059,-25.5 499.059,-25.5 499.059,-6.5 362.059,-6.5"/>
<text text-anchor="middle" x="430.559" y="-13.5" font-family="Helvetica,sans-Serif" font-size="10.00">MemoryResources/Types.h</text>
</a>
</g>
</g>
<!-- Node9&#45;&gt;Node16 -->
<g id="edge16" class="edge"><title>Node9&#45;&gt;Node16</title>
<path fill="none" stroke="midnightblue" d="M470.825,-68.4035C463.775,-59.4034 452.524,-45.0408 443.705,-33.7824"/>
<polygon fill="midnightblue" stroke="midnightblue" points="446.203,-31.2946 437.281,-25.5806 440.692,-35.6112 446.203,-31.2946"/>
</g>
<!-- Node17&#45;&gt;Node4 -->
<g id="edge45" class="edge"><title>Node17&#45;&gt;Node4</title>
<path fill="none" stroke="midnightblue" d="M1137.51,-193.193C1134.49,-192.753 1131.5,-192.351 1128.56,-192 943.923,-169.933 470.088,-211.325 292.559,-156 222.394,-134.134 217.991,-101.465 152.559,-68 114.57,-48.5705 102.669,-49.0613 63.5591,-32 61.9739,-31.3085 60.3498,-30.5874 58.7147,-29.8516"/>
<polygon fill="midnightblue" stroke="midnightblue" points="59.9696,-26.5764 49.4216,-25.5808 57.0465,-32.9369 59.9696,-26.5764"/>
</g>
<!-- Node17&#45;&gt;Node8 -->
<g id="edge18" class="edge"><title>Node17&#45;&gt;Node8</title>
<path fill="none" stroke="midnightblue" d="M1236.74,-192.841C1263.03,-181.272 1299.89,-165.055 1325.34,-153.855"/>
<polygon fill="midnightblue" stroke="midnightblue" points="1327.08,-156.913 1334.83,-149.682 1324.26,-150.506 1327.08,-156.913"/>
</g>
<!-- Node17&#45;&gt;Node9 -->
<g id="edge25" class="edge"><title>Node17&#45;&gt;Node9</title>
<path fill="none" stroke="midnightblue" d="M1137.18,-194.134C1103.82,-186.081 1063.71,-173.787 1030.56,-156 1011.1,-145.56 1012.95,-132.466 992.559,-124 913.728,-91.2708 667.739,-82.335 546.504,-79.9037"/>
<polygon fill="midnightblue" stroke="midnightblue" points="546.294,-76.3991 536.229,-79.7073 546.16,-83.3979 546.294,-76.3991"/>
</g>
<!-- Node17&#45;&gt;Node15 -->
<g id="edge47" class="edge"><title>Node17&#45;&gt;Node15</title>
<path fill="none" stroke="midnightblue" d="M1271.66,-203.865C1330.33,-199.052 1416.67,-186.859 1485.56,-156 1506.65,-146.551 1505.8,-134.168 1526.56,-124 1736.55,-21.1482 1820.21,-97.8858 2044.56,-32 2046.75,-31.3567 2048.98,-30.5715 2051.18,-29.7011"/>
<polygon fill="midnightblue" stroke="midnightblue" points="2052.82,-32.8032 2060.51,-25.5155 2049.95,-26.4168 2052.82,-32.8032"/>
</g>
<!-- Node18 -->
<g id="node18" class="node"><title>Node18</title>
<g id="a_node18"><a xlink:href="../../d6/dc9/DataProcessingHeader_8h.html" target="_top" xlink:title="Framework/DataProcessing\lHeader.h">
<polygon fill="none" stroke="black" points="301.559,-125 301.559,-155 439.559,-155 439.559,-125 301.559,-125"/>
<text text-anchor="start" x="309.559" y="-143" font-family="Helvetica,sans-Serif" font-size="10.00">Framework/DataProcessing</text>
<text text-anchor="middle" x="370.559" y="-132" font-family="Helvetica,sans-Serif" font-size="10.00">Header.h</text>
</a>
</g>
</g>
<!-- Node17&#45;&gt;Node18 -->
<g id="edge19" class="edge"><title>Node17&#45;&gt;Node18</title>
<path fill="none" stroke="midnightblue" d="M1137.5,-193.282C1134.48,-192.817 1131.49,-192.387 1128.56,-192 882.186,-159.534 587.883,-147.231 449.652,-142.999"/>
<polygon fill="midnightblue" stroke="midnightblue" points="449.671,-139.498 439.57,-142.696 449.461,-146.495 449.671,-139.498"/>
</g>
<!-- Node20 -->
<g id="node20" class="node"><title>Node20</title>
<g id="a_node20"><a xlink:href="../../d4/d00/Headers_2include_2Headers_2Stack_8h.html" target="_top" xlink:title="Headers/Stack.h">
<polygon fill="none" stroke="black" points="1159.56,-130.5 1159.56,-149.5 1249.56,-149.5 1249.56,-130.5 1159.56,-130.5"/>
<text text-anchor="middle" x="1204.56" y="-137.5" font-family="Helvetica,sans-Serif" font-size="10.00">Headers/Stack.h</text>
</a>
</g>
</g>
<!-- Node17&#45;&gt;Node20 -->
<g id="edge26" class="edge"><title>Node17&#45;&gt;Node20</title>
<path fill="none" stroke="midnightblue" d="M1204.56,-192.679C1204.56,-183.101 1204.56,-170.394 1204.56,-159.977"/>
<polygon fill="midnightblue" stroke="midnightblue" points="1208.06,-159.828 1204.56,-149.828 1201.06,-159.828 1208.06,-159.828"/>
</g>
<!-- Node17&#45;&gt;Node28 -->
<g id="edge49" class="edge"><title>Node17&#45;&gt;Node28</title>
<path fill="none" stroke="midnightblue" d="M1271.63,-200.773C1322.23,-194.264 1392.46,-181.296 1449.56,-156 1471.67,-146.206 1473.14,-136.956 1493.56,-124 1537.23,-96.291 1546.11,-83.1558 1595.56,-68 1760.72,-17.3765 1815.87,-77.334 1982.56,-32 1984.91,-31.3615 1987.3,-30.5608 1989.66,-29.6636"/>
<polygon fill="midnightblue" stroke="midnightblue" points="1991.24,-32.7913 1999.02,-25.5996 1988.45,-26.3699 1991.24,-32.7913"/>
</g>
<!-- Node34 -->
<g id="node34" class="node"><title>Node34</title>
<polygon fill="none" stroke="#bfbfbf" points="1039.56,-130.5 1039.56,-149.5 1077.56,-149.5 1077.56,-130.5 1039.56,-130.5"/>
<text text-anchor="middle" x="1058.56" y="-137.5" font-family="Helvetica,sans-Serif" font-size="10.00">array</text>
</g>
<!-- Node17&#45;&gt;Node34 -->
<g id="edge44" class="edge"><title>Node17&#45;&gt;Node34</title>
<path fill="none" stroke="midnightblue" d="M1169.88,-192.912C1146.18,-183.067 1114.19,-169.344 1086.56,-156 1085.41,-155.447 1084.25,-154.872 1083.07,-154.283"/>
<polygon fill="midnightblue" stroke="midnightblue" points="1084.63,-151.145 1074.14,-149.644 1081.4,-157.358 1084.63,-151.145"/>
</g>
<!-- Node35 -->
<g id="node35" class="node"><title>Node35</title>
<polygon fill="none" stroke="#bfbfbf" points="1096.06,-130.5 1096.06,-149.5 1141.06,-149.5 1141.06,-130.5 1096.06,-130.5"/>
<text text-anchor="middle" x="1118.56" y="-137.5" font-family="Helvetica,sans-Serif" font-size="10.00">iosfwd</text>
</g>
<!-- Node17&#45;&gt;Node35 -->
<g id="edge46" class="edge"><title>Node17&#45;&gt;Node35</title>
<path fill="none" stroke="midnightblue" d="M1185.9,-192.679C1171.83,-181.879 1152.57,-167.098 1138.25,-156.11"/>
<polygon fill="midnightblue" stroke="midnightblue" points="1140.13,-153.14 1130.06,-149.828 1135.86,-158.693 1140.13,-153.14"/>
</g>
<!-- Node17&#45;&gt;Node36 -->
<g id="edge48" class="edge"><title>Node17&#45;&gt;Node36</title>
<path fill="none" stroke="midnightblue" d="M1271.68,-200.648C1336.5,-193.477 1437,-179.615 1521.56,-156 1524.38,-155.213 1527.27,-154.279 1530.14,-153.266"/>
<polygon fill="midnightblue" stroke="midnightblue" points="1531.56,-156.471 1539.64,-149.625 1529.05,-149.934 1531.56,-156.471"/>
</g>
<!-- Node37 -->
<g id="node37" class="node"><title>Node37</title>
<g id="a_node37"><a xlink:href="../../d4/de7/DataDescriptorMatcher_8inc.html" target="_top" xlink:title="DataDescriptorMatcher.inc">
<polygon fill="none" stroke="black" points="849.559,-130.5 849.559,-149.5 983.559,-149.5 983.559,-130.5 849.559,-130.5"/>
<text text-anchor="middle" x="916.559" y="-137.5" font-family="Helvetica,sans-Serif" font-size="10.00">DataDescriptorMatcher.inc</text>
</a>
</g>
</g>
<!-- Node17&#45;&gt;Node37 -->
<g id="edge50" class="edge"><title>Node17&#45;&gt;Node37</title>
<path fill="none" stroke="midnightblue" d="M1143.13,-192.922C1089.46,-180.622 1012.67,-163.026 963.716,-151.807"/>
<polygon fill="midnightblue" stroke="midnightblue" points="964.239,-148.336 953.71,-149.514 962.676,-155.159 964.239,-148.336"/>
</g>
<!-- Node18&#45;&gt;Node4 -->
<g id="edge21" class="edge"><title>Node18&#45;&gt;Node4</title>
<path fill="none" stroke="midnightblue" d="M337.749,-124.917C301.944,-109.819 242.751,-85.6419 190.559,-68 134.98,-49.2131 118.523,-52.5178 63.5591,-32 61.7053,-31.308 59.8108,-30.5523 57.9151,-29.7599"/>
<polygon fill="midnightblue" stroke="midnightblue" points="59.1707,-26.4877 48.6116,-25.6176 56.3234,-32.8825 59.1707,-26.4877"/>
</g>
<!-- Node18&#45;&gt;Node9 -->
<g id="edge20" class="edge"><title>Node18&#45;&gt;Node9</title>
<path fill="none" stroke="midnightblue" d="M395.646,-124.933C413.053,-115.171 436.114,-102.24 453.331,-92.5856"/>
<polygon fill="midnightblue" stroke="midnightblue" points="455.212,-95.5439 462.222,-87.6 451.788,-89.4383 455.212,-95.5439"/>
</g>
<!-- Node18&#45;&gt;Node10 -->
<g id="edge23" class="edge"><title>Node18&#45;&gt;Node10</title>
<path fill="none" stroke="midnightblue" d="M353.613,-124.761C333.873,-108.835 299.719,-83.2754 266.559,-68 210.939,-42.3781 191.401,-52.1111 133.559,-32 131.294,-31.2123 128.967,-30.3466 126.643,-29.4408"/>
<polygon fill="midnightblue" stroke="midnightblue" points="127.839,-26.1485 117.259,-25.5888 125.181,-32.6241 127.839,-26.1485"/>
</g>
<!-- Node18&#45;&gt;Node11 -->
<g id="edge24" class="edge"><title>Node18&#45;&gt;Node11</title>
<path fill="none" stroke="midnightblue" d="M375.336,-124.739C379.618,-109.031 383.442,-83.8969 370.559,-68 321.933,-7.99859 273.926,-56.1223 200.559,-32 198.289,-31.2537 195.967,-30.3988 193.657,-29.4839"/>
<polygon fill="midnightblue" stroke="midnightblue" points="194.973,-26.2402 184.404,-25.5102 192.211,-32.6722 194.973,-26.2402"/>
</g>
<!-- Node19 -->
<g id="node19" class="node"><title>Node19</title>
<polygon fill="none" stroke="#bfbfbf" points="319.059,-68.5 319.059,-87.5 362.059,-87.5 362.059,-68.5 319.059,-68.5"/>
<text text-anchor="middle" x="340.559" y="-75.5" font-family="Helvetica,sans-Serif" font-size="10.00">cstdio</text>
</g>
<!-- Node18&#45;&gt;Node19 -->
<g id="edge22" class="edge"><title>Node18&#45;&gt;Node19</title>
<path fill="none" stroke="midnightblue" d="M363.45,-124.781C359.27,-116.422 353.948,-105.777 349.487,-96.8565"/>
<polygon fill="midnightblue" stroke="midnightblue" points="352.527,-95.1095 344.924,-87.7305 346.266,-98.2401 352.527,-95.1095"/>
</g>
<!-- Node20&#45;&gt;Node9 -->
<g id="edge43" class="edge"><title>Node20&#45;&gt;Node9</title>
<path fill="none" stroke="midnightblue" d="M1177.38,-130.435C1168.59,-127.975 1158.73,-125.542 1149.56,-124 931.633,-87.3632 669.227,-80.295 546.787,-79.105"/>
<polygon fill="midnightblue" stroke="midnightblue" points="546.473,-75.6022 536.443,-79.0153 546.412,-82.6019 546.473,-75.6022"/>
</g>
<!-- Node21 -->
<g id="node21" class="node"><title>Node21</title>
<g id="a_node21"><a xlink:href="../../dc/d03/MemoryResources_8h.html" target="_top" xlink:title="MemoryResources/MemoryResources.h">
<polygon fill="none" stroke="black" points="1125.06,-68.5 1125.06,-87.5 1318.06,-87.5 1318.06,-68.5 1125.06,-68.5"/>
<text text-anchor="middle" x="1221.56" y="-75.5" font-family="Helvetica,sans-Serif" font-size="10.00">MemoryResources/MemoryResources.h</text>
</a>
</g>
</g>
<!-- Node20&#45;&gt;Node21 -->
<g id="edge27" class="edge"><title>Node20&#45;&gt;Node21</title>
<path fill="none" stroke="midnightblue" d="M1206.99,-130.403C1209.42,-121.849 1213.22,-108.45 1216.32,-97.4762"/>
<polygon fill="midnightblue" stroke="midnightblue" points="1219.77,-98.156 1219.13,-87.5806 1213.03,-96.2477 1219.77,-98.156"/>
</g>
<!-- Node21&#45;&gt;Node12 -->
<g id="edge32" class="edge"><title>Node21&#45;&gt;Node12</title>
<path fill="none" stroke="midnightblue" d="M1125.02,-74.6525C970.366,-70.1612 674.164,-58.3538 572.559,-32 570.065,-31.353 567.527,-30.5146 565.029,-29.5649"/>
<polygon fill="midnightblue" stroke="midnightblue" points="566.318,-26.309 555.753,-25.5209 563.521,-32.7257 566.318,-26.309"/>
</g>
<!-- Node21&#45;&gt;Node15 -->
<g id="edge33" class="edge"><title>Node21&#45;&gt;Node15</title>
<path fill="none" stroke="midnightblue" d="M1318.26,-76.4757C1505.27,-74.6789 1909.9,-66.7626 2044.56,-32 2046.9,-31.3947 2049.28,-30.6055 2051.63,-29.7058"/>
<polygon fill="midnightblue" stroke="midnightblue" points="2053.18,-32.8462 2060.88,-25.5726 2050.32,-26.4546 2053.18,-32.8462"/>
</g>
<!-- Node21&#45;&gt;Node16 -->
<g id="edge42" class="edge"><title>Node21&#45;&gt;Node16</title>
<path fill="none" stroke="midnightblue" d="M1124.9,-74.7879C987.454,-70.7607 727.878,-59.8948 508.559,-32 499.216,-30.8117 489.307,-29.1898 479.798,-27.4503"/>
<polygon fill="midnightblue" stroke="midnightblue" points="480.161,-23.9567 469.684,-25.5315 478.856,-30.8341 480.161,-23.9567"/>
</g>
<!-- Node22 -->
<g id="node22" class="node"><title>Node22</title>
<polygon fill="none" stroke="#bfbfbf" points="1334.56,-1 1334.56,-31 1434.56,-31 1434.56,-1 1334.56,-1"/>
<text text-anchor="start" x="1342.56" y="-19" font-family="Helvetica,sans-Serif" font-size="10.00">boost/container/flat</text>
<text text-anchor="middle" x="1384.56" y="-8" font-family="Helvetica,sans-Serif" font-size="10.00">_map.hpp</text>
</g>
<!-- Node21&#45;&gt;Node22 -->
<g id="edge28" class="edge"><title>Node21&#45;&gt;Node22</title>
<path fill="none" stroke="midnightblue" d="M1244.91,-68.4035C1268.82,-59.6025 1306.66,-45.6737 1336.93,-34.534"/>
<polygon fill="midnightblue" stroke="midnightblue" points="1338.28,-37.7643 1346.46,-31.0253 1335.86,-31.1952 1338.28,-37.7643"/>
</g>
<!-- Node23 -->
<g id="node23" class="node"><title>Node23</title>
<polygon fill="none" stroke="#bfbfbf" points="1452.56,-1 1452.56,-31 1568.56,-31 1568.56,-1 1452.56,-1"/>
<text text-anchor="start" x="1460.56" y="-19" font-family="Helvetica,sans-Serif" font-size="10.00">boost/container/pmr</text>
<text text-anchor="middle" x="1510.56" y="-8" font-family="Helvetica,sans-Serif" font-size="10.00">/memory_resource.hpp</text>
</g>
<!-- Node21&#45;&gt;Node23 -->
<g id="edge29" class="edge"><title>Node21&#45;&gt;Node23</title>
<path fill="none" stroke="midnightblue" d="M1265,-68.4642C1307.7,-60.0153 1374.96,-46.5432 1442.51,-32.2022"/>
<polygon fill="midnightblue" stroke="midnightblue" points="1443.42,-35.5864 1452.47,-30.0805 1441.96,-28.7399 1443.42,-35.5864"/>
</g>
<!-- Node24 -->
<g id="node24" class="node"><title>Node24</title>
<polygon fill="none" stroke="#bfbfbf" points="1586.56,-1 1586.56,-31 1742.56,-31 1742.56,-1 1586.56,-1"/>
<text text-anchor="start" x="1594.56" y="-19" font-family="Helvetica,sans-Serif" font-size="10.00">boost/container/pmr</text>
<text text-anchor="middle" x="1664.56" y="-8" font-family="Helvetica,sans-Serif" font-size="10.00">/monotonic_buffer_resource.hpp</text>
</g>
<!-- Node21&#45;&gt;Node24 -->
<g id="edge30" class="edge"><title>Node21&#45;&gt;Node24</title>
<path fill="none" stroke="midnightblue" d="M1296.14,-68.4854C1365.82,-60.3161 1472.98,-47.2045 1576.38,-31.9843"/>
<polygon fill="midnightblue" stroke="midnightblue" points="1577,-35.4316 1586.38,-30.5049 1575.97,-28.507 1577,-35.4316"/>
</g>
<!-- Node25 -->
<g id="node25" class="node"><title>Node25</title>
<polygon fill="none" stroke="#bfbfbf" points="1761.06,-1 1761.06,-31 1894.06,-31 1894.06,-1 1761.06,-1"/>
<text text-anchor="start" x="1769.06" y="-19" font-family="Helvetica,sans-Serif" font-size="10.00">boost/container/pmr</text>
<text text-anchor="middle" x="1827.56" y="-8" font-family="Helvetica,sans-Serif" font-size="10.00">/polymorphic_allocator.hpp</text>
</g>
<!-- Node21&#45;&gt;Node25 -->
<g id="edge31" class="edge"><title>Node21&#45;&gt;Node25</title>
<path fill="none" stroke="midnightblue" d="M1318.15,-72.0032C1422.36,-65.883 1593.36,-53.7336 1750.57,-32.0308"/>
<polygon fill="midnightblue" stroke="midnightblue" points="1751.48,-35.4372 1760.9,-30.5875 1750.51,-28.5045 1751.48,-35.4372"/>
</g>
<!-- Node26 -->
<g id="node26" class="node"><title>Node26</title>
<polygon fill="none" stroke="#bfbfbf" points="1912.56,-6.5 1912.56,-25.5 1974.56,-25.5 1974.56,-6.5 1912.56,-6.5"/>
<text text-anchor="middle" x="1943.56" y="-13.5" font-family="Helvetica,sans-Serif" font-size="10.00">type_traits</text>
</g>
<!-- Node21&#45;&gt;Node26 -->
<g id="edge34" class="edge"><title>Node21&#45;&gt;Node26</title>
<path fill="none" stroke="midnightblue" d="M1318.21,-72.1394C1492.6,-63.1441 1846.99,-43.7491 1902.56,-32 1906.26,-31.2171 1910.08,-30.1688 1913.83,-28.9885"/>
<polygon fill="midnightblue" stroke="midnightblue" points="1915.16,-32.2323 1923.46,-25.6475 1912.86,-25.6191 1915.16,-32.2323"/>
</g>
<!-- Node27 -->
<g id="node27" class="node"><title>Node27</title>
<polygon fill="none" stroke="#bfbfbf" points="581.559,-6.5 581.559,-25.5 621.559,-25.5 621.559,-6.5 581.559,-6.5"/>
<text text-anchor="middle" x="601.559" y="-13.5" font-family="Helvetica,sans-Serif" font-size="10.00">utility</text>
</g>
<!-- Node21&#45;&gt;Node27 -->
<g id="edge35" class="edge"><title>Node21&#45;&gt;Node27</title>
<path fill="none" stroke="midnightblue" d="M1124.84,-74.3151C981.705,-69.5482 720.7,-57.5957 630.559,-32 628.596,-31.4426 626.612,-30.7453 624.651,-29.9586"/>
<polygon fill="midnightblue" stroke="midnightblue" points="625.785,-26.6235 615.249,-25.512 622.793,-32.9515 625.785,-26.6235"/>
</g>
<!-- Node21&#45;&gt;Node28 -->
<g id="edge36" class="edge"><title>Node21&#45;&gt;Node28</title>
<path fill="none" stroke="midnightblue" d="M1318.11,-73.3303C1508.59,-65.7922 1919.82,-47.9322 1982.56,-32 1985.06,-31.3657 1987.6,-30.5358 1990.1,-29.5915"/>
<polygon fill="midnightblue" stroke="midnightblue" points="1991.6,-32.7539 1999.37,-25.5549 1988.81,-26.3351 1991.6,-32.7539"/>
</g>
<!-- Node29 -->
<g id="node29" class="node"><title>Node29</title>
<polygon fill="none" stroke="#bfbfbf" points="640.059,-6.5 640.059,-25.5 723.059,-25.5 723.059,-6.5 640.059,-6.5"/>
<text text-anchor="middle" x="681.559" y="-13.5" font-family="Helvetica,sans-Serif" font-size="10.00">unordered_map</text>
</g>
<!-- Node21&#45;&gt;Node29 -->
<g id="edge37" class="edge"><title>Node21&#45;&gt;Node29</title>
<path fill="none" stroke="midnightblue" d="M1124.99,-73.8243C1025.58,-69.2293 866.583,-58.1803 731.559,-32 726.517,-31.0224 721.257,-29.7425 716.123,-28.3421"/>
<polygon fill="midnightblue" stroke="midnightblue" points="717.073,-24.9736 706.494,-25.5483 715.123,-31.6963 717.073,-24.9736"/>
</g>
<!-- Node30 -->
<g id="node30" class="node"><title>Node30</title>
<polygon fill="none" stroke="#bfbfbf" points="741.059,-6.5 741.059,-25.5 838.059,-25.5 838.059,-6.5 741.059,-6.5"/>
<text text-anchor="middle" x="789.559" y="-13.5" font-family="Helvetica,sans-Serif" font-size="10.00">FairMQMessage.h</text>
</g>
<!-- Node21&#45;&gt;Node30 -->
<g id="edge38" class="edge"><title>Node21&#45;&gt;Node30</title>
<path fill="none" stroke="midnightblue" d="M1125.05,-69.1082C1048.97,-62.0015 940.439,-49.8969 846.559,-32 840.764,-30.8952 834.687,-29.5271 828.751,-28.0705"/>
<polygon fill="midnightblue" stroke="midnightblue" points="829.522,-24.6551 818.966,-25.5663 827.786,-31.4365 829.522,-24.6551"/>
</g>
<!-- Node31 -->
<g id="node31" class="node"><title>Node31</title>
<polygon fill="none" stroke="#bfbfbf" points="856.059,-6.5 856.059,-25.5 987.059,-25.5 987.059,-6.5 856.059,-6.5"/>
<text text-anchor="middle" x="921.559" y="-13.5" font-family="Helvetica,sans-Serif" font-size="10.00">FairMQTransportFactory.h</text>
</g>
<!-- Node21&#45;&gt;Node31 -->
<g id="edge39" class="edge"><title>Node21&#45;&gt;Node31</title>
<path fill="none" stroke="midnightblue" d="M1178.22,-68.4175C1132.72,-59.3952 1059.1,-44.7658 995.559,-32 988.402,-30.5621 980.858,-29.0401 973.432,-27.5384"/>
<polygon fill="midnightblue" stroke="midnightblue" points="973.924,-24.0671 963.429,-25.5132 972.535,-30.9279 973.924,-24.0671"/>
</g>
<!-- Node32 -->
<g id="node32" class="node"><title>Node32</title>
<polygon fill="none" stroke="#bfbfbf" points="1005.06,-6.5 1005.06,-25.5 1142.06,-25.5 1142.06,-6.5 1005.06,-6.5"/>
<text text-anchor="middle" x="1073.56" y="-13.5" font-family="Helvetica,sans-Serif" font-size="10.00">fairmq/MemoryResources.h</text>
</g>
<!-- Node21&#45;&gt;Node32 -->
<g id="edge40" class="edge"><title>Node21&#45;&gt;Node32</title>
<path fill="none" stroke="midnightblue" d="M1200.35,-68.4035C1175.19,-58.2004 1133.02,-41.1055 1104.28,-29.4544"/>
<polygon fill="midnightblue" stroke="midnightblue" points="1105.31,-26.0941 1094.72,-25.5806 1102.68,-32.5813 1105.31,-26.0941"/>
</g>
<!-- Node33 -->
<g id="node33" class="node"><title>Node33</title>
<polygon fill="none" stroke="#bfbfbf" points="1160.56,-6.5 1160.56,-25.5 1316.56,-25.5 1316.56,-6.5 1160.56,-6.5"/>
<text text-anchor="middle" x="1238.56" y="-13.5" font-family="Helvetica,sans-Serif" font-size="10.00">fairmq/MemoryResourceTools.h</text>
</g>
<!-- Node21&#45;&gt;Node33 -->
<g id="edge41" class="edge"><title>Node21&#45;&gt;Node33</title>
<path fill="none" stroke="midnightblue" d="M1223.99,-68.4035C1226.42,-59.849 1230.22,-46.4497 1233.32,-35.4762"/>
<polygon fill="midnightblue" stroke="midnightblue" points="1236.77,-36.156 1236.13,-25.5806 1230.03,-34.2477 1236.77,-36.156"/>
</g>
<!-- Node40&#45;&gt;Node6 -->
<g id="edge59" class="edge"><title>Node40&#45;&gt;Node6</title>
<path fill="none" stroke="midnightblue" d="M1989.47,-316.444C1964.01,-307.399 1923.67,-293.064 1895.1,-282.916"/>
<polygon fill="midnightblue" stroke="midnightblue" points="1896.13,-279.566 1885.53,-279.516 1893.78,-286.162 1896.13,-279.566"/>
</g>
<!-- Node40&#45;&gt;Node15 -->
<g id="edge61" class="edge"><title>Node40&#45;&gt;Node15</title>
<path fill="none" stroke="midnightblue" d="M2022.51,-316.452C2031.01,-307.915 2043.62,-294.072 2051.56,-280 2067.93,-250.988 2075.56,-242.31 2075.56,-209 2075.56,-209 2075.56,-209 2075.56,-139 2075.56,-102.414 2075.56,-59.6562 2075.56,-35.7123"/>
<polygon fill="midnightblue" stroke="midnightblue" points="2079.06,-35.5788 2075.56,-25.5789 2072.06,-35.5789 2079.06,-35.5788"/>
</g>
<!-- Node40&#45;&gt;Node39 -->
<g id="edge60" class="edge"><title>Node40&#45;&gt;Node39</title>
<path fill="none" stroke="midnightblue" d="M2031.78,-316.444C2050.45,-307.675 2079.72,-293.935 2101.18,-283.858"/>
<polygon fill="midnightblue" stroke="midnightblue" points="2102.86,-286.935 2110.42,-279.516 2099.88,-280.599 2102.86,-286.935"/>
</g>
<!-- Node41&#45;&gt;Node5 -->
<g id="edge65" class="edge"><title>Node41&#45;&gt;Node5</title>
<path fill="none" stroke="midnightblue" d="M1598.79,-260.403C1575.42,-250.245 1536.34,-233.255 1509.56,-221.607"/>
<polygon fill="midnightblue" stroke="midnightblue" points="1510.86,-218.358 1500.29,-217.581 1508.07,-224.778 1510.86,-218.358"/>
</g>
<!-- Node41&#45;&gt;Node15 -->
<g id="edge66" class="edge"><title>Node41&#45;&gt;Node15</title>
<path fill="none" stroke="midnightblue" d="M1631.76,-260.364C1654.22,-245.774 1701.43,-215.537 1742.56,-192 1854.55,-127.911 1992.02,-58.5126 2048.94,-30.1719"/>
<polygon fill="midnightblue" stroke="midnightblue" points="2050.59,-33.2595 2057.99,-25.6745 2047.47,-26.991 2050.59,-33.2595"/>
</g>
<!-- Node41&#45;&gt;Node28 -->
<g id="edge67" class="edge"><title>Node41&#45;&gt;Node28</title>
<path fill="none" stroke="midnightblue" d="M1617.79,-260.434C1615.48,-229.054 1612.11,-119.527 1671.56,-68 1724.13,-22.4336 1915.63,-51.012 1982.56,-32 1984.9,-31.3351 1987.28,-30.5162 1989.64,-29.6071"/>
<polygon fill="midnightblue" stroke="midnightblue" points="1991.23,-32.7308 1999,-25.5246 1988.43,-26.3146 1991.23,-32.7308"/>
</g>
<!-- Node41&#45;&gt;Node42 -->
<g id="edge63" class="edge"><title>Node41&#45;&gt;Node42</title>
<path fill="none" stroke="midnightblue" d="M1542.01,-263.275C1424.74,-254.281 1206.03,-236.574 1128.56,-224 1121.6,-222.87 1114.26,-221.411 1107.15,-219.848"/>
<polygon fill="midnightblue" stroke="midnightblue" points="1107.47,-216.332 1096.94,-217.51 1105.91,-223.155 1107.47,-216.332"/>
</g>
<!-- Node43 -->
<g id="node43" class="node"><title>Node43</title>
<polygon fill="none" stroke="#bfbfbf" points="1528.06,-198.5 1528.06,-217.5 1581.06,-217.5 1581.06,-198.5 1528.06,-198.5"/>
<text text-anchor="middle" x="1554.56" y="-205.5" font-family="Helvetica,sans-Serif" font-size="10.00">gsl/span</text>
</g>
<!-- Node41&#45;&gt;Node43 -->
<g id="edge68" class="edge"><title>Node41&#45;&gt;Node43</title>
<path fill="none" stroke="midnightblue" d="M1609.39,-260.403C1599.41,-251.047 1583.25,-235.895 1571.05,-224.46"/>
<polygon fill="midnightblue" stroke="midnightblue" points="1573.4,-221.867 1563.71,-217.581 1568.61,-226.973 1573.4,-221.867"/>
</g>
<!-- Node42&#45;&gt;Node10 -->
<g id="edge64" class="edge"><title>Node42&#45;&gt;Node10</title>
<path fill="none" stroke="midnightblue" d="M1009.41,-207.259C855.635,-207.367 424.708,-203.317 292.559,-156 253.592,-142.047 157.288,-65.2127 116.875,-32.1436"/>
<polygon fill="midnightblue" stroke="midnightblue" points="119.089,-29.433 109.141,-25.7897 114.646,-34.8419 119.089,-29.433"/>
</g>
<!-- Node44&#45;&gt;Node4 -->
<g id="edge73" class="edge"><title>Node44&#45;&gt;Node4</title>
<path fill="none" stroke="midnightblue" d="M1094.03,-268.868C850.187,-268.07 64.5764,-262.51 27.5591,-224 -22.2885,-172.142 8.2407,-74.8689 23.9446,-34.8719"/>
<polygon fill="midnightblue" stroke="midnightblue" points="27.1926,-36.1758 27.7315,-25.5947 20.7117,-33.5304 27.1926,-36.1758"/>
</g>
<!-- Node44&#45;&gt;Node17 -->
<g id="edge71" class="edge"><title>Node44&#45;&gt;Node17</title>
<path fill="none" stroke="midnightblue" d="M1171.15,-260.403C1176.03,-252.885 1183.35,-241.624 1189.9,-231.556"/>
<polygon fill="midnightblue" stroke="midnightblue" points="1192.85,-233.433 1195.37,-223.141 1186.98,-229.618 1192.85,-233.433"/>
</g>
<!-- Node44&#45;&gt;Node28 -->
<g id="edge72" class="edge"><title>Node44&#45;&gt;Node28</title>
<path fill="none" stroke="midnightblue" d="M1194.88,-260.457C1245.19,-245.876 1351.29,-215.489 1441.56,-192 1507.49,-174.844 1534.36,-194.516 1590.56,-156 1629.81,-129.095 1610.66,-92.324 1651.56,-68 1778.75,7.63623 1840.07,-71.9461 1982.56,-32 1984.9,-31.3432 1987.29,-30.5299 1989.64,-29.6244"/>
<polygon fill="midnightblue" stroke="midnightblue" points="1991.23,-32.7494 1999.01,-25.5476 1988.44,-26.3316 1991.23,-32.7494"/>
</g>
<!-- Node45 -->
<g id="node45" class="node"><title>Node45</title>
<g id="a_node45"><a xlink:href="../../d6/d56/TimesliceIndex_8inc.html" target="_top" xlink:title="TimesliceIndex.inc">
<polygon fill="none" stroke="black" points="36.5591,-198.5 36.5591,-217.5 134.559,-217.5 134.559,-198.5 36.5591,-198.5"/>
<text text-anchor="middle" x="85.5591" y="-205.5" font-family="Helvetica,sans-Serif" font-size="10.00">TimesliceIndex.inc</text>
</a>
</g>
</g>
<!-- Node44&#45;&gt;Node45 -->
<g id="edge74" class="edge"><title>Node44&#45;&gt;Node45</title>
<path fill="none" stroke="midnightblue" d="M1093.8,-267.594C893.57,-263.388 331.467,-249.586 148.559,-224 141.21,-222.972 133.463,-221.477 126.012,-219.824"/>
<polygon fill="midnightblue" stroke="midnightblue" points="126.634,-216.375 116.099,-217.502 125.037,-223.191 126.634,-216.375"/>
</g>
</g>
</svg>
