<?xml version="1.0" encoding="UTF-8" standalone="no"?>
<!DOCTYPE svg PUBLIC "-//W3C//DTD SVG 1.1//EN"
 "http://www.w3.org/Graphics/SVG/1.1/DTD/svg11.dtd">
<!-- Generated by graphviz version 2.36.0 (20140111.2315)
 -->
<!-- Title: /home/travis/build/AliceO2Group/AliceO2/Framework/Core/src/LifetimeHelpers.cxx Pages: 1 -->
<svg width="2514pt" height="378pt"
 viewBox="0.00 0.00 2513.52 378.00" xmlns="http://www.w3.org/2000/svg" xmlns:xlink="http://www.w3.org/1999/xlink">
<g id="graph0" class="graph" transform="scale(1 1) rotate(0) translate(4 374)">
<title>/home/travis/build/AliceO2Group/AliceO2/Framework/Core/src/LifetimeHelpers.cxx</title>
<!-- Node1 -->
<g id="node1" class="node"><title>Node1</title>
<polygon fill="#bfbfbf" stroke="black" points="1158.52,-317 1158.52,-369 1304.52,-369 1304.52,-317 1158.52,-317"/>
<text text-anchor="start" x="1166.52" y="-357" font-family="Helvetica,sans-Serif" font-size="10.00">/home/travis/build</text>
<text text-anchor="start" x="1166.52" y="-346" font-family="Helvetica,sans-Serif" font-size="10.00">/AliceO2Group/AliceO2</text>
<text text-anchor="start" x="1166.52" y="-335" font-family="Helvetica,sans-Serif" font-size="10.00">/Framework/Core/src/Lifetime</text>
<text text-anchor="middle" x="1231.52" y="-324" font-family="Helvetica,sans-Serif" font-size="10.00">Helpers.cxx</text>
</g>
<!-- Node2 -->
<g id="node2" class="node"><title>Node2</title>
<g id="a_node2"><a xlink:href="../../d8/deb/LifetimeHelpers_8h.html" target="_top" xlink:title="Framework/LifetimeHelpers.h">
<polygon fill="none" stroke="black" points="185.024,-130.5 185.024,-149.5 330.024,-149.5 330.024,-130.5 185.024,-130.5"/>
<text text-anchor="middle" x="257.524" y="-137.5" font-family="Helvetica,sans-Serif" font-size="10.00">Framework/LifetimeHelpers.h</text>
</a>
</g>
</g>
<!-- Node1&#45;&gt;Node2 -->
<g id="edge1" class="edge"><title>Node1&#45;&gt;Node2</title>
<path fill="none" stroke="midnightblue" d="M1158.24,-341.468C988.201,-339.398 571.437,-329.292 441.524,-280 369.332,-252.608 301.48,-187.594 272.404,-157.194"/>
<polygon fill="midnightblue" stroke="midnightblue" points="274.661,-154.484 265.26,-149.597 269.561,-159.28 274.661,-154.484"/>
</g>
<!-- Node10 -->
<g id="node10" class="node"><title>Node10</title>
<g id="a_node10"><a xlink:href="../../d8/d17/ServiceRegistry_8h.html" target="_top" xlink:title="Framework/ServiceRegistry.h">
<polygon fill="none" stroke="black" points="378.524,-68.5 378.524,-87.5 524.524,-87.5 524.524,-68.5 378.524,-68.5"/>
<text text-anchor="middle" x="451.524" y="-75.5" font-family="Helvetica,sans-Serif" font-size="10.00">Framework/ServiceRegistry.h</text>
</a>
</g>
</g>
<!-- Node1&#45;&gt;Node10 -->
<g id="edge10" class="edge"><title>Node1&#45;&gt;Node10</title>
<path fill="none" stroke="midnightblue" d="M1158.45,-340.422C1016.89,-336.428 710.819,-322.955 615.524,-280 541.549,-246.655 527.195,-223.069 481.524,-156 469.189,-137.886 460.893,-113.975 456.208,-97.633"/>
<polygon fill="midnightblue" stroke="midnightblue" points="459.512,-96.4419 453.536,-87.6934 452.752,-98.2592 459.512,-96.4419"/>
</g>
<!-- Node15 -->
<g id="node15" class="node"><title>Node15</title>
<g id="a_node15"><a xlink:href="../../d9/d66/RawDeviceService_8h.html" target="_top" xlink:title="Framework/RawDeviceService.h">
<polygon fill="none" stroke="black" points="2012.02,-68.5 2012.02,-87.5 2173.02,-87.5 2173.02,-68.5 2012.02,-68.5"/>
<text text-anchor="middle" x="2092.52" y="-75.5" font-family="Helvetica,sans-Serif" font-size="10.00">Framework/RawDeviceService.h</text>
</a>
</g>
</g>
<!-- Node1&#45;&gt;Node15 -->
<g id="edge17" class="edge"><title>Node1&#45;&gt;Node15</title>
<path fill="none" stroke="midnightblue" d="M1304.53,-323.219C1349.86,-311.335 1409.25,-295.363 1461.52,-280 1690.08,-212.829 1962.02,-122.718 2057.39,-90.8045"/>
<polygon fill="midnightblue" stroke="midnightblue" points="2058.73,-94.0466 2067.11,-87.5517 2056.51,-87.409 2058.73,-94.0466"/>
</g>
<!-- Node18 -->
<g id="node18" class="node"><title>Node18</title>
<g id="a_node18"><a xlink:href="../../d5/d3f/InputSpec_8h.html" target="_top" xlink:title="Framework/InputSpec.h">
<polygon fill="none" stroke="black" points="1171.02,-260.5 1171.02,-279.5 1292.02,-279.5 1292.02,-260.5 1171.02,-260.5"/>
<text text-anchor="middle" x="1231.52" y="-267.5" font-family="Helvetica,sans-Serif" font-size="10.00">Framework/InputSpec.h</text>
</a>
</g>
</g>
<!-- Node1&#45;&gt;Node18 -->
<g id="edge21" class="edge"><title>Node1&#45;&gt;Node18</title>
<path fill="none" stroke="midnightblue" d="M1231.52,-316.768C1231.52,-307.89 1231.52,-298.074 1231.52,-289.816"/>
<polygon fill="midnightblue" stroke="midnightblue" points="1235.02,-289.757 1231.52,-279.757 1228.02,-289.757 1235.02,-289.757"/>
</g>
<!-- Node21 -->
<g id="node21" class="node"><title>Node21</title>
<g id="a_node21"><a xlink:href="../../dc/dcd/DataHeader_8h.html" target="_top" xlink:title="Headers/DataHeader.h">
<polygon fill="none" stroke="black" points="795.024,-68.5 795.024,-87.5 912.024,-87.5 912.024,-68.5 795.024,-68.5"/>
<text text-anchor="middle" x="853.524" y="-75.5" font-family="Helvetica,sans-Serif" font-size="10.00">Headers/DataHeader.h</text>
</a>
</g>
</g>
<!-- Node1&#45;&gt;Node21 -->
<g id="edge70" class="edge"><title>Node1&#45;&gt;Node21</title>
<path fill="none" stroke="midnightblue" d="M1158.26,-328.425C1020.78,-301.296 732.767,-236.054 675.524,-156 644.079,-112.025 722.098,-92.9217 784.641,-84.7903"/>
<polygon fill="midnightblue" stroke="midnightblue" points="785.42,-88.2211 794.921,-83.5319 784.569,-81.273 785.42,-88.2211"/>
</g>
<!-- Node28 -->
<g id="node28" class="node"><title>Node28</title>
<g id="a_node28"><a xlink:href="../../d6/dc9/DataProcessingHeader_8h.html" target="_top" xlink:title="Framework/DataProcessing\lHeader.h">
<polygon fill="none" stroke="black" points="490.524,-125 490.524,-155 628.524,-155 628.524,-125 490.524,-125"/>
<text text-anchor="start" x="498.524" y="-143" font-family="Helvetica,sans-Serif" font-size="10.00">Framework/DataProcessing</text>
<text text-anchor="middle" x="559.524" y="-132" font-family="Helvetica,sans-Serif" font-size="10.00">Header.h</text>
</a>
</g>
</g>
<!-- Node1&#45;&gt;Node28 -->
<g id="edge73" class="edge"><title>Node1&#45;&gt;Node28</title>
<path fill="none" stroke="midnightblue" d="M1158.33,-342.298C1019.96,-341.581 726.347,-333.573 642.524,-280 600.82,-253.346 577.217,-197.592 566.546,-165.383"/>
<polygon fill="midnightblue" stroke="midnightblue" points="569.757,-163.926 563.415,-155.438 563.08,-166.028 569.757,-163.926"/>
</g>
<!-- Node30 -->
<g id="node30" class="node"><title>Node30</title>
<g id="a_node30"><a xlink:href="../../d4/d00/Headers_2include_2Headers_2Stack_8h.html" target="_top" xlink:title="Headers/Stack.h">
<polygon fill="none" stroke="black" points="1364.52,-130.5 1364.52,-149.5 1454.52,-149.5 1454.52,-130.5 1364.52,-130.5"/>
<text text-anchor="middle" x="1409.52" y="-137.5" font-family="Helvetica,sans-Serif" font-size="10.00">Headers/Stack.h</text>
</a>
</g>
</g>
<!-- Node1&#45;&gt;Node30 -->
<g id="edge71" class="edge"><title>Node1&#45;&gt;Node30</title>
<path fill="none" stroke="midnightblue" d="M1261.79,-316.831C1274.25,-305.965 1288.53,-292.821 1300.52,-280 1339.12,-238.725 1378.63,-184.85 1397.74,-157.9"/>
<polygon fill="midnightblue" stroke="midnightblue" points="1400.72,-159.748 1403.61,-149.556 1394.99,-155.719 1400.72,-159.748"/>
</g>
<!-- Node31 -->
<g id="node31" class="node"><title>Node31</title>
<g id="a_node31"><a xlink:href="../../dc/d03/MemoryResources_8h.html" target="_top" xlink:title="MemoryResources/MemoryResources.h">
<polygon fill="none" stroke="black" points="1424.02,-68.5 1424.02,-87.5 1617.02,-87.5 1617.02,-68.5 1424.02,-68.5"/>
<text text-anchor="middle" x="1520.52" y="-75.5" font-family="Helvetica,sans-Serif" font-size="10.00">MemoryResources/MemoryResources.h</text>
</a>
</g>
</g>
<!-- Node1&#45;&gt;Node31 -->
<g id="edge72" class="edge"><title>Node1&#45;&gt;Node31</title>
<path fill="none" stroke="midnightblue" d="M1304.62,-329.244C1365.62,-314.613 1449.87,-284.371 1496.52,-224 1525.31,-186.749 1525.07,-127.873 1522.69,-97.8937"/>
<polygon fill="midnightblue" stroke="midnightblue" points="1526.14,-97.2164 1521.69,-87.6009 1519.17,-97.8921 1526.14,-97.2164"/>
</g>
<!-- Node46 -->
<g id="node46" class="node"><title>Node46</title>
<polygon fill="none" stroke="#bfbfbf" points="1586.52,-260.5 1586.52,-279.5 1704.52,-279.5 1704.52,-260.5 1586.52,-260.5"/>
<text text-anchor="middle" x="1645.52" y="-267.5" font-family="Helvetica,sans-Serif" font-size="10.00">fairmq/FairMQDevice.h</text>
</g>
<!-- Node1&#45;&gt;Node46 -->
<g id="edge74" class="edge"><title>Node1&#45;&gt;Node46</title>
<path fill="none" stroke="midnightblue" d="M1304.59,-329.47C1384.62,-315.744 1511.47,-293.99 1585.79,-281.244"/>
<polygon fill="midnightblue" stroke="midnightblue" points="1586.65,-284.647 1595.92,-279.507 1585.47,-277.748 1586.65,-284.647"/>
</g>
<!-- Node3 -->
<g id="node3" class="node"><title>Node3</title>
<g id="a_node3"><a xlink:href="../../d2/dd9/ExpirationHandler_8h.html" target="_top" xlink:title="Framework/ExpirationHandler.h">
<polygon fill="none" stroke="black" points="14.524,-68.5 14.524,-87.5 168.524,-87.5 168.524,-68.5 14.524,-68.5"/>
<text text-anchor="middle" x="91.524" y="-75.5" font-family="Helvetica,sans-Serif" font-size="10.00">Framework/ExpirationHandler.h</text>
</a>
</g>
</g>
<!-- Node2&#45;&gt;Node3 -->
<g id="edge2" class="edge"><title>Node2&#45;&gt;Node3</title>
<path fill="none" stroke="midnightblue" d="M233.74,-130.403C205.142,-120.067 156.973,-102.656 124.722,-90.9994"/>
<polygon fill="midnightblue" stroke="midnightblue" points="125.858,-87.6883 115.264,-87.5806 123.478,-94.2715 125.858,-87.6883"/>
</g>
<!-- Node5 -->
<g id="node5" class="node"><title>Node5</title>
<polygon fill="none" stroke="#bfbfbf" points="62.024,-6.5 62.024,-25.5 121.024,-25.5 121.024,-6.5 62.024,-6.5"/>
<text text-anchor="middle" x="91.524" y="-13.5" font-family="Helvetica,sans-Serif" font-size="10.00">functional</text>
</g>
<!-- Node2&#45;&gt;Node5 -->
<g id="edge8" class="edge"><title>Node2&#45;&gt;Node5</title>
<path fill="none" stroke="midnightblue" d="M184.825,-134.301C118.609,-128.326 27.8492,-115.296 5.52397,-88 -14.1382,-63.96 24.6043,-42.1709 56.2799,-29.2503"/>
<polygon fill="midnightblue" stroke="midnightblue" points="57.7665,-32.4273 65.8108,-25.5325 55.2226,-25.9059 57.7665,-32.4273"/>
</g>
<!-- Node6 -->
<g id="node6" class="node"><title>Node6</title>
<g id="a_node6"><a xlink:href="../../d9/d32/PartRef_8h.html" target="_top" xlink:title="Framework/PartRef.h">
<polygon fill="none" stroke="black" points="250.524,-68.5 250.524,-87.5 360.524,-87.5 360.524,-68.5 250.524,-68.5"/>
<text text-anchor="middle" x="305.524" y="-75.5" font-family="Helvetica,sans-Serif" font-size="10.00">Framework/PartRef.h</text>
</a>
</g>
</g>
<!-- Node2&#45;&gt;Node6 -->
<g id="edge5" class="edge"><title>Node2&#45;&gt;Node6</title>
<path fill="none" stroke="midnightblue" d="M264.401,-130.403C271.673,-121.314 283.319,-106.756 292.365,-95.4489"/>
<polygon fill="midnightblue" stroke="midnightblue" points="295.146,-97.5757 298.659,-87.5806 289.679,-93.2029 295.146,-97.5757"/>
</g>
<!-- Node8 -->
<g id="node8" class="node"><title>Node8</title>
<polygon fill="none" stroke="#bfbfbf" points="186.524,-68.5 186.524,-87.5 232.524,-87.5 232.524,-68.5 186.524,-68.5"/>
<text text-anchor="middle" x="209.524" y="-75.5" font-family="Helvetica,sans-Serif" font-size="10.00">chrono</text>
</g>
<!-- Node2&#45;&gt;Node8 -->
<g id="edge7" class="edge"><title>Node2&#45;&gt;Node8</title>
<path fill="none" stroke="midnightblue" d="M250.647,-130.403C243.375,-121.314 231.729,-106.756 222.683,-95.4489"/>
<polygon fill="midnightblue" stroke="midnightblue" points="225.368,-93.2029 216.388,-87.5806 219.902,-97.5757 225.368,-93.2029"/>
</g>
<!-- Node9 -->
<g id="node9" class="node"><title>Node9</title>
<polygon fill="none" stroke="#bfbfbf" points="900.024,-6.5 900.024,-25.5 941.024,-25.5 941.024,-6.5 900.024,-6.5"/>
<text text-anchor="middle" x="920.524" y="-13.5" font-family="Helvetica,sans-Serif" font-size="10.00">string</text>
</g>
<!-- Node2&#45;&gt;Node9 -->
<g id="edge9" class="edge"><title>Node2&#45;&gt;Node9</title>
<path fill="none" stroke="midnightblue" d="M310.158,-130.476C365.87,-121.173 456.25,-105.282 533.524,-88 567.61,-80.3769 575.242,-74.6855 609.524,-68 732.673,-43.9842 769.268,-67.7898 889.524,-32 891.666,-31.3626 893.843,-30.5916 895.999,-29.7395"/>
<polygon fill="midnightblue" stroke="midnightblue" points="897.448,-32.9259 905.148,-25.6488 894.591,-26.5356 897.448,-32.9259"/>
</g>
<!-- Node4 -->
<g id="node4" class="node"><title>Node4</title>
<polygon fill="none" stroke="#bfbfbf" points="435.524,-6.5 435.524,-25.5 481.524,-25.5 481.524,-6.5 435.524,-6.5"/>
<text text-anchor="middle" x="458.524" y="-13.5" font-family="Helvetica,sans-Serif" font-size="10.00">cstdint</text>
</g>
<!-- Node3&#45;&gt;Node4 -->
<g id="edge3" class="edge"><title>Node3&#45;&gt;Node4</title>
<path fill="none" stroke="midnightblue" d="M163.906,-68.4637C254.813,-57.5584 401.928,-39.2309 426.524,-32 428.809,-31.3283 431.136,-30.5155 433.441,-29.6198"/>
<polygon fill="midnightblue" stroke="midnightblue" points="434.85,-32.8237 442.62,-25.6204 432.054,-26.4064 434.85,-32.8237"/>
</g>
<!-- Node3&#45;&gt;Node5 -->
<g id="edge4" class="edge"><title>Node3&#45;&gt;Node5</title>
<path fill="none" stroke="midnightblue" d="M91.524,-68.4035C91.524,-59.9381 91.524,-46.7283 91.524,-35.8199"/>
<polygon fill="midnightblue" stroke="midnightblue" points="95.0241,-35.5806 91.524,-25.5806 88.0241,-35.5806 95.0241,-35.5806"/>
</g>
<!-- Node7 -->
<g id="node7" class="node"><title>Node7</title>
<polygon fill="none" stroke="#bfbfbf" points="365.524,-6.5 365.524,-25.5 417.524,-25.5 417.524,-6.5 365.524,-6.5"/>
<text text-anchor="middle" x="391.524" y="-13.5" font-family="Helvetica,sans-Serif" font-size="10.00">memory</text>
</g>
<!-- Node6&#45;&gt;Node7 -->
<g id="edge6" class="edge"><title>Node6&#45;&gt;Node7</title>
<path fill="none" stroke="midnightblue" d="M317.846,-68.4035C331.64,-58.7797 354.223,-43.0242 370.756,-31.4891"/>
<polygon fill="midnightblue" stroke="midnightblue" points="373.026,-34.1729 379.225,-25.5806 369.021,-28.432 373.026,-34.1729"/>
</g>
<!-- Node10&#45;&gt;Node5 -->
<g id="edge12" class="edge"><title>Node10&#45;&gt;Node5</title>
<path fill="none" stroke="midnightblue" d="M400.327,-68.4672C327.912,-56.398 197.09,-34.5943 131.413,-23.6482"/>
<polygon fill="midnightblue" stroke="midnightblue" points="131.89,-20.1795 121.451,-21.9878 130.739,-27.0843 131.89,-20.1795"/>
</g>
<!-- Node10&#45;&gt;Node9 -->
<g id="edge13" class="edge"><title>Node10&#45;&gt;Node9</title>
<path fill="none" stroke="midnightblue" d="M524.625,-69.4332C529.328,-68.9477 533.993,-68.4668 538.524,-68 694.517,-51.9318 738.659,-74.7999 889.524,-32 891.72,-31.3769 893.951,-30.6058 896.158,-29.745"/>
<polygon fill="midnightblue" stroke="midnightblue" points="897.787,-32.8506 905.489,-25.5753 894.931,-26.4596 897.787,-32.8506"/>
</g>
<!-- Node11 -->
<g id="node11" class="node"><title>Node11</title>
<polygon fill="none" stroke="#bfbfbf" points="288.024,-6.5 288.024,-25.5 347.024,-25.5 347.024,-6.5 288.024,-6.5"/>
<text text-anchor="middle" x="317.524" y="-13.5" font-family="Helvetica,sans-Serif" font-size="10.00">exception</text>
</g>
<!-- Node10&#45;&gt;Node11 -->
<g id="edge11" class="edge"><title>Node10&#45;&gt;Node11</title>
<path fill="none" stroke="midnightblue" d="M432.325,-68.4035C409.737,-58.2896 372.025,-41.4036 346.023,-29.761"/>
<polygon fill="midnightblue" stroke="midnightblue" points="347.244,-26.4729 336.687,-25.5806 344.384,-32.8617 347.244,-26.4729"/>
</g>
<!-- Node12 -->
<g id="node12" class="node"><title>Node12</title>
<polygon fill="none" stroke="#bfbfbf" points="745.524,-6.5 745.524,-25.5 807.524,-25.5 807.524,-6.5 745.524,-6.5"/>
<text text-anchor="middle" x="776.524" y="-13.5" font-family="Helvetica,sans-Serif" font-size="10.00">type_traits</text>
</g>
<!-- Node10&#45;&gt;Node12 -->
<g id="edge14" class="edge"><title>Node10&#45;&gt;Node12</title>
<path fill="none" stroke="midnightblue" d="M524.693,-69.3564C582.525,-62.3714 664.977,-50.3097 735.524,-32 738.929,-31.1164 742.446,-30.0602 745.924,-28.9231"/>
<polygon fill="midnightblue" stroke="midnightblue" points="747.206,-32.1826 755.492,-25.5801 744.897,-25.5743 747.206,-32.1826"/>
</g>
<!-- Node13 -->
<g id="node13" class="node"><title>Node13</title>
<polygon fill="none" stroke="#bfbfbf" points="219.024,-6.5 219.024,-25.5 270.024,-25.5 270.024,-6.5 219.024,-6.5"/>
<text text-anchor="middle" x="244.524" y="-13.5" font-family="Helvetica,sans-Serif" font-size="10.00">typeinfo</text>
</g>
<!-- Node10&#45;&gt;Node13 -->
<g id="edge15" class="edge"><title>Node10&#45;&gt;Node13</title>
<path fill="none" stroke="midnightblue" d="M411.124,-68.4322C375.71,-60.4645 323.074,-47.508 278.524,-32 276.395,-31.259 274.214,-30.4408 272.035,-29.5804"/>
<polygon fill="midnightblue" stroke="midnightblue" points="273.234,-26.2879 262.659,-25.6458 270.525,-32.7427 273.234,-26.2879"/>
</g>
<!-- Node14 -->
<g id="node14" class="node"><title>Node14</title>
<polygon fill="none" stroke="#bfbfbf" points="644.024,-6.5 644.024,-25.5 727.024,-25.5 727.024,-6.5 644.024,-6.5"/>
<text text-anchor="middle" x="685.524" y="-13.5" font-family="Helvetica,sans-Serif" font-size="10.00">unordered_map</text>
</g>
<!-- Node10&#45;&gt;Node14 -->
<g id="edge16" class="edge"><title>Node10&#45;&gt;Node14</title>
<path fill="none" stroke="midnightblue" d="M488.453,-68.4338C525.503,-59.7187 584.142,-45.5962 634.524,-32 638.684,-30.8774 643.023,-29.6653 647.337,-28.4338"/>
<polygon fill="midnightblue" stroke="midnightblue" points="648.632,-31.7026 657.263,-25.5578 646.684,-24.9791 648.632,-31.7026"/>
</g>
<!-- Node15&#45;&gt;Node9 -->
<g id="edge19" class="edge"><title>Node15&#45;&gt;Node9</title>
<path fill="none" stroke="midnightblue" d="M2011.83,-74.7859C1759.75,-67.7426 1000.7,-45.5245 949.524,-32 947.551,-31.4787 945.56,-30.8073 943.594,-30.0385"/>
<polygon fill="midnightblue" stroke="midnightblue" points="944.723,-26.7022 934.183,-25.6247 941.75,-33.0398 944.723,-26.7022"/>
</g>
<!-- Node16 -->
<g id="node16" class="node"><title>Node16</title>
<polygon fill="none" stroke="#bfbfbf" points="2471.02,-6.5 2471.02,-25.5 2506.02,-25.5 2506.02,-6.5 2471.02,-6.5"/>
<text text-anchor="middle" x="2488.52" y="-13.5" font-family="Helvetica,sans-Serif" font-size="10.00">map</text>
</g>
<!-- Node15&#45;&gt;Node16 -->
<g id="edge18" class="edge"><title>Node15&#45;&gt;Node16</title>
<path fill="none" stroke="midnightblue" d="M2173.29,-75.644C2249.09,-72.397 2364.8,-62.3191 2460.52,-32 2462.22,-31.4619 2463.94,-30.8207 2465.64,-30.111"/>
<polygon fill="midnightblue" stroke="midnightblue" points="2467.56,-33.0682 2475.01,-25.5375 2464.49,-26.7771 2467.56,-33.0682"/>
</g>
<!-- Node17 -->
<g id="node17" class="node"><title>Node17</title>
<polygon fill="none" stroke="#bfbfbf" points="2408.52,-6.5 2408.52,-25.5 2452.52,-25.5 2452.52,-6.5 2408.52,-6.5"/>
<text text-anchor="middle" x="2430.52" y="-13.5" font-family="Helvetica,sans-Serif" font-size="10.00">vector</text>
</g>
<!-- Node15&#45;&gt;Node17 -->
<g id="edge20" class="edge"><title>Node15&#45;&gt;Node17</title>
<path fill="none" stroke="midnightblue" d="M2173.17,-71.6048C2235.7,-65.8846 2323.96,-54.4263 2398.52,-32 2400.8,-31.3141 2403.13,-30.4914 2405.43,-29.5891"/>
<polygon fill="midnightblue" stroke="midnightblue" points="2406.85,-32.7908 2414.61,-25.5788 2404.04,-26.3766 2406.85,-32.7908"/>
</g>
<!-- Node18&#45;&gt;Node9 -->
<g id="edge67" class="edge"><title>Node18&#45;&gt;Node9</title>
<path fill="none" stroke="midnightblue" d="M1274.23,-260.486C1356.32,-242.284 1522.96,-195.343 1463.52,-124 1419.42,-71.0555 1226.37,-80.0712 1158.52,-68 1065.72,-51.4889 1038.88,-62.0041 949.524,-32 947.67,-31.3775 945.789,-30.6503 943.922,-29.8581"/>
<polygon fill="midnightblue" stroke="midnightblue" points="945.424,-26.6968 934.893,-25.5368 942.402,-33.011 945.424,-26.6968"/>
</g>
<!-- Node19 -->
<g id="node19" class="node"><title>Node19</title>
<g id="a_node19"><a xlink:href="../../dc/dca/Lifetime_8h.html" target="_top" xlink:title="Framework/Lifetime.h">
<polygon fill="none" stroke="black" points="1126.02,-198.5 1126.02,-217.5 1237.02,-217.5 1237.02,-198.5 1126.02,-198.5"/>
<text text-anchor="middle" x="1181.52" y="-205.5" font-family="Helvetica,sans-Serif" font-size="10.00">Framework/Lifetime.h</text>
</a>
</g>
</g>
<!-- Node18&#45;&gt;Node19 -->
<g id="edge22" class="edge"><title>Node18&#45;&gt;Node19</title>
<path fill="none" stroke="midnightblue" d="M1224.36,-260.403C1216.79,-251.314 1204.65,-236.756 1195.23,-225.449"/>
<polygon fill="midnightblue" stroke="midnightblue" points="1197.77,-223.022 1188.67,-217.581 1192.39,-227.503 1197.77,-223.022"/>
</g>
<!-- Node20 -->
<g id="node20" class="node"><title>Node20</title>
<g id="a_node20"><a xlink:href="../../d0/d1b/ConcreteDataMatcher_8h.html" target="_top" xlink:title="Framework/ConcreteDataMatcher.h">
<polygon fill="none" stroke="black" points="685.024,-130.5 685.024,-149.5 858.024,-149.5 858.024,-130.5 685.024,-130.5"/>
<text text-anchor="middle" x="771.524" y="-137.5" font-family="Helvetica,sans-Serif" font-size="10.00">Framework/ConcreteDataMatcher.h</text>
</a>
</g>
</g>
<!-- Node18&#45;&gt;Node20 -->
<g id="edge23" class="edge"><title>Node18&#45;&gt;Node20</title>
<path fill="none" stroke="midnightblue" d="M1170.94,-262.975C1116.21,-256.55 1033.85,-244.428 964.524,-224 902.323,-205.671 833.433,-172.77 797.144,-154.376"/>
<polygon fill="midnightblue" stroke="midnightblue" points="798.302,-151.037 787.806,-149.597 795.113,-157.269 798.302,-151.037"/>
</g>
<!-- Node27 -->
<g id="node27" class="node"><title>Node27</title>
<g id="a_node27"><a xlink:href="../../d3/da3/DataDescriptorMatcher_8h.html" target="_top" xlink:title="Framework/DataDescriptor\lMatcher.h">
<polygon fill="none" stroke="black" points="973.524,-193 973.524,-223 1107.52,-223 1107.52,-193 973.524,-193"/>
<text text-anchor="start" x="981.524" y="-211" font-family="Helvetica,sans-Serif" font-size="10.00">Framework/DataDescriptor</text>
<text text-anchor="middle" x="1040.52" y="-200" font-family="Helvetica,sans-Serif" font-size="10.00">Matcher.h</text>
</a>
</g>
</g>
<!-- Node18&#45;&gt;Node27 -->
<g id="edge33" class="edge"><title>Node18&#45;&gt;Node27</title>
<path fill="none" stroke="midnightblue" d="M1204.16,-260.403C1175.78,-251.488 1130.65,-237.311 1094.96,-226.101"/>
<polygon fill="midnightblue" stroke="midnightblue" points="1095.76,-222.683 1085.17,-223.025 1093.66,-229.361 1095.76,-222.683"/>
</g>
<!-- Node43 -->
<g id="node43" class="node"><title>Node43</title>
<polygon fill="none" stroke="#bfbfbf" points="1300.52,-130.5 1300.52,-149.5 1346.52,-149.5 1346.52,-130.5 1300.52,-130.5"/>
<text text-anchor="middle" x="1323.52" y="-137.5" font-family="Helvetica,sans-Serif" font-size="10.00">variant</text>
</g>
<!-- Node18&#45;&gt;Node43 -->
<g id="edge69" class="edge"><title>Node18&#45;&gt;Node43</title>
<path fill="none" stroke="midnightblue" d="M1263.48,-260.496C1282.15,-253.777 1304.37,-242.387 1316.52,-224 1329.14,-204.909 1328.83,-177.704 1326.76,-159.712"/>
<polygon fill="midnightblue" stroke="midnightblue" points="1330.2,-159.021 1325.3,-149.626 1323.27,-160.024 1330.2,-159.021"/>
</g>
<!-- Node45 -->
<g id="node45" class="node"><title>Node45</title>
<polygon fill="none" stroke="#bfbfbf" points="1255.52,-198.5 1255.52,-217.5 1307.52,-217.5 1307.52,-198.5 1255.52,-198.5"/>
<text text-anchor="middle" x="1281.52" y="-205.5" font-family="Helvetica,sans-Serif" font-size="10.00">ostream</text>
</g>
<!-- Node18&#45;&gt;Node45 -->
<g id="edge68" class="edge"><title>Node18&#45;&gt;Node45</title>
<path fill="none" stroke="midnightblue" d="M1238.69,-260.403C1246.26,-251.314 1258.39,-236.756 1267.82,-225.449"/>
<polygon fill="midnightblue" stroke="midnightblue" points="1270.66,-227.503 1274.37,-217.581 1265.28,-223.022 1270.66,-227.503"/>
</g>
<!-- Node20&#45;&gt;Node21 -->
<g id="edge24" class="edge"><title>Node20&#45;&gt;Node21</title>
<path fill="none" stroke="midnightblue" d="M783.273,-130.403C796.425,-120.78 817.958,-105.024 833.722,-93.4891"/>
<polygon fill="midnightblue" stroke="midnightblue" points="835.794,-96.3103 841.797,-87.5806 831.66,-90.6611 835.794,-96.3103"/>
</g>
<!-- Node21&#45;&gt;Node4 -->
<g id="edge25" class="edge"><title>Node21&#45;&gt;Node4</title>
<path fill="none" stroke="midnightblue" d="M794.707,-71.9734C706.976,-64.0918 546.201,-48.0605 490.524,-32 488.236,-31.34 485.906,-30.5353 483.6,-29.645"/>
<polygon fill="midnightblue" stroke="midnightblue" points="484.985,-26.4307 474.418,-25.6544 482.194,-32.8506 484.985,-26.4307"/>
</g>
<!-- Node21&#45;&gt;Node7 -->
<g id="edge26" class="edge"><title>Node21&#45;&gt;Node7</title>
<path fill="none" stroke="midnightblue" d="M794.699,-72.9883C694.415,-65.7841 494.6,-49.7416 426.524,-32 423.705,-31.2654 420.82,-30.3393 417.974,-29.3093"/>
<polygon fill="midnightblue" stroke="midnightblue" points="419.192,-26.0265 408.608,-25.5352 416.576,-32.5192 419.192,-26.0265"/>
</g>
<!-- Node21&#45;&gt;Node9 -->
<g id="edge31" class="edge"><title>Node21&#45;&gt;Node9</title>
<path fill="none" stroke="midnightblue" d="M863.123,-68.4035C873.572,-59.047 890.491,-43.8948 903.26,-32.4599"/>
<polygon fill="midnightblue" stroke="midnightblue" points="905.828,-34.8592 910.942,-25.5806 901.158,-29.6445 905.828,-34.8592"/>
</g>
<!-- Node22 -->
<g id="node22" class="node"><title>Node22</title>
<polygon fill="none" stroke="#bfbfbf" points="500.024,-6.5 500.024,-25.5 549.024,-25.5 549.024,-6.5 500.024,-6.5"/>
<text text-anchor="middle" x="524.524" y="-13.5" font-family="Helvetica,sans-Serif" font-size="10.00">cassert</text>
</g>
<!-- Node21&#45;&gt;Node22 -->
<g id="edge27" class="edge"><title>Node21&#45;&gt;Node22</title>
<path fill="none" stroke="midnightblue" d="M795.014,-68.987C715.275,-57.9313 579.791,-38.6143 557.524,-32 555.183,-31.3045 552.793,-30.475 550.422,-29.5683"/>
<polygon fill="midnightblue" stroke="midnightblue" points="551.54,-26.2405 540.968,-25.5508 548.803,-32.683 551.54,-26.2405"/>
</g>
<!-- Node23 -->
<g id="node23" class="node"><title>Node23</title>
<polygon fill="none" stroke="#bfbfbf" points="1114.52,-6.5 1114.52,-25.5 1160.52,-25.5 1160.52,-6.5 1114.52,-6.5"/>
<text text-anchor="middle" x="1137.52" y="-13.5" font-family="Helvetica,sans-Serif" font-size="10.00">cstring</text>
</g>
<!-- Node21&#45;&gt;Node23 -->
<g id="edge28" class="edge"><title>Node21&#45;&gt;Node23</title>
<path fill="none" stroke="midnightblue" d="M912.077,-70.6962C963.585,-64.1667 1040.17,-52.0485 1104.52,-32 1106.81,-31.2893 1109.14,-30.4594 1111.45,-29.5614"/>
<polygon fill="midnightblue" stroke="midnightblue" points="1112.88,-32.7551 1120.71,-25.6166 1110.14,-26.3148 1112.88,-32.7551"/>
</g>
<!-- Node24 -->
<g id="node24" class="node"><title>Node24</title>
<polygon fill="none" stroke="#bfbfbf" points="825.524,-6.5 825.524,-25.5 881.524,-25.5 881.524,-6.5 825.524,-6.5"/>
<text text-anchor="middle" x="853.524" y="-13.5" font-family="Helvetica,sans-Serif" font-size="10.00">algorithm</text>
</g>
<!-- Node21&#45;&gt;Node24 -->
<g id="edge29" class="edge"><title>Node21&#45;&gt;Node24</title>
<path fill="none" stroke="midnightblue" d="M853.524,-68.4035C853.524,-59.9381 853.524,-46.7283 853.524,-35.8199"/>
<polygon fill="midnightblue" stroke="midnightblue" points="857.024,-35.5806 853.524,-25.5806 850.024,-35.5806 857.024,-35.5806"/>
</g>
<!-- Node25 -->
<g id="node25" class="node"><title>Node25</title>
<polygon fill="none" stroke="#bfbfbf" points="567.024,-6.5 567.024,-25.5 626.024,-25.5 626.024,-6.5 567.024,-6.5"/>
<text text-anchor="middle" x="596.524" y="-13.5" font-family="Helvetica,sans-Serif" font-size="10.00">stdexcept</text>
</g>
<!-- Node21&#45;&gt;Node25 -->
<g id="edge30" class="edge"><title>Node21&#45;&gt;Node25</title>
<path fill="none" stroke="midnightblue" d="M798.877,-68.4812C754.176,-60.8685 689.583,-48.389 634.524,-32 631.72,-31.1653 628.833,-30.2102 625.962,-29.1951"/>
<polygon fill="midnightblue" stroke="midnightblue" points="627.003,-25.8473 616.411,-25.6006 624.538,-32.3987 627.003,-25.8473"/>
</g>
<!-- Node26 -->
<g id="node26" class="node"><title>Node26</title>
<g id="a_node26"><a xlink:href="../../d7/df8/Types_8h.html" target="_top" xlink:title="MemoryResources/Types.h">
<polygon fill="none" stroke="black" points="959.024,-6.5 959.024,-25.5 1096.02,-25.5 1096.02,-6.5 959.024,-6.5"/>
<text text-anchor="middle" x="1027.52" y="-13.5" font-family="Helvetica,sans-Serif" font-size="10.00">MemoryResources/Types.h</text>
</a>
</g>
</g>
<!-- Node21&#45;&gt;Node26 -->
<g id="edge32" class="edge"><title>Node21&#45;&gt;Node26</title>
<path fill="none" stroke="midnightblue" d="M878.454,-68.4035C908.56,-58.0222 959.356,-40.5062 993.162,-28.849"/>
<polygon fill="midnightblue" stroke="midnightblue" points="994.328,-32.1494 1002.64,-25.5806 992.046,-25.5318 994.328,-32.1494"/>
</g>
<!-- Node27&#45;&gt;Node4 -->
<g id="edge61" class="edge"><title>Node27&#45;&gt;Node4</title>
<path fill="none" stroke="midnightblue" d="M991.951,-192.917C965.459,-184.201 932.637,-171.674 905.524,-156 886.113,-144.778 886.252,-134.654 866.524,-124 715.147,-42.2504 654.388,-84.4074 490.524,-32 488.387,-31.3166 486.208,-30.5225 484.042,-29.6632"/>
<polygon fill="midnightblue" stroke="midnightblue" points="485.369,-26.4235 474.805,-25.6198 482.562,-32.8361 485.369,-26.4235"/>
</g>
<!-- Node27&#45;&gt;Node9 -->
<g id="edge63" class="edge"><title>Node27&#45;&gt;Node9</title>
<path fill="none" stroke="midnightblue" d="M1107.94,-193.043C1144.62,-183.935 1184.69,-170.975 1195.52,-156 1203.86,-144.478 1203.63,-135.686 1195.52,-124 1128.99,-28.087 1056.22,-79.3429 949.524,-32 948.164,-31.3965 946.778,-30.7591 945.385,-30.101"/>
<polygon fill="midnightblue" stroke="midnightblue" points="946.826,-26.9086 936.312,-25.5996 943.715,-33.1793 946.826,-26.9086"/>
</g>
<!-- Node27&#45;&gt;Node17 -->
<g id="edge65" class="edge"><title>Node27&#45;&gt;Node17</title>
<path fill="none" stroke="midnightblue" d="M1093.21,-192.984C1127.71,-183.433 1173.64,-170.017 1213.52,-156 1248.87,-143.575 1255.09,-132.765 1291.52,-124 1351.52,-109.564 2338.9,-47.9023 2398.52,-32 2400.87,-31.373 2403.27,-30.5803 2405.63,-29.6883"/>
<polygon fill="midnightblue" stroke="midnightblue" points="2407.21,-32.8179 2414.99,-25.6325 2404.43,-26.3942 2407.21,-32.8179"/>
</g>
<!-- Node27&#45;&gt;Node20 -->
<g id="edge34" class="edge"><title>Node27&#45;&gt;Node20</title>
<path fill="none" stroke="midnightblue" d="M983.147,-192.922C933.225,-180.674 861.895,-163.173 816.145,-151.948"/>
<polygon fill="midnightblue" stroke="midnightblue" points="816.77,-148.498 806.224,-149.514 815.102,-155.296 816.77,-148.498"/>
</g>
<!-- Node27&#45;&gt;Node21 -->
<g id="edge41" class="edge"><title>Node27&#45;&gt;Node21</title>
<path fill="none" stroke="midnightblue" d="M1103.25,-192.953C1151.43,-179.316 1205.37,-155.984 1177.52,-124 1145.14,-86.8047 1007.55,-79.3667 922.425,-78.429"/>
<polygon fill="midnightblue" stroke="midnightblue" points="922.343,-74.9283 912.314,-78.3453 922.285,-81.9281 922.343,-74.9283"/>
</g>
<!-- Node27&#45;&gt;Node28 -->
<g id="edge35" class="edge"><title>Node27&#45;&gt;Node28</title>
<path fill="none" stroke="midnightblue" d="M973.39,-197.788C885.65,-185.749 732.207,-164.695 638.833,-151.882"/>
<polygon fill="midnightblue" stroke="midnightblue" points="639.255,-148.407 628.872,-150.515 638.303,-155.342 639.255,-148.407"/>
</g>
<!-- Node27&#45;&gt;Node30 -->
<g id="edge42" class="edge"><title>Node27&#45;&gt;Node30</title>
<path fill="none" stroke="midnightblue" d="M1107.63,-193.584C1110.63,-193.038 1113.61,-192.507 1116.52,-192 1222.36,-173.595 1250.47,-178.417 1355.52,-156 1360.68,-154.899 1366.08,-153.591 1371.39,-152.213"/>
<polygon fill="midnightblue" stroke="midnightblue" points="1372.64,-155.501 1381.38,-149.515 1370.81,-148.743 1372.64,-155.501"/>
</g>
<!-- Node41 -->
<g id="node41" class="node"><title>Node41</title>
<polygon fill="none" stroke="#bfbfbf" points="914.524,-130.5 914.524,-149.5 952.524,-149.5 952.524,-130.5 914.524,-130.5"/>
<text text-anchor="middle" x="933.524" y="-137.5" font-family="Helvetica,sans-Serif" font-size="10.00">array</text>
</g>
<!-- Node27&#45;&gt;Node41 -->
<g id="edge60" class="edge"><title>Node27&#45;&gt;Node41</title>
<path fill="none" stroke="midnightblue" d="M1017.57,-192.841C999.477,-181.681 974.375,-166.198 956.322,-155.063"/>
<polygon fill="midnightblue" stroke="midnightblue" points="957.948,-151.953 947.599,-149.682 954.273,-157.911 957.948,-151.953"/>
</g>
<!-- Node42 -->
<g id="node42" class="node"><title>Node42</title>
<polygon fill="none" stroke="#bfbfbf" points="971.024,-130.5 971.024,-149.5 1016.02,-149.5 1016.02,-130.5 971.024,-130.5"/>
<text text-anchor="middle" x="993.524" y="-137.5" font-family="Helvetica,sans-Serif" font-size="10.00">iosfwd</text>
</g>
<!-- Node27&#45;&gt;Node42 -->
<g id="edge62" class="edge"><title>Node27&#45;&gt;Node42</title>
<path fill="none" stroke="midnightblue" d="M1030.33,-192.679C1023.07,-182.49 1013.29,-168.759 1005.64,-158.011"/>
<polygon fill="midnightblue" stroke="midnightblue" points="1008.46,-155.944 999.811,-149.828 1002.76,-160.004 1008.46,-155.944"/>
</g>
<!-- Node27&#45;&gt;Node43 -->
<g id="edge64" class="edge"><title>Node27&#45;&gt;Node43</title>
<path fill="none" stroke="midnightblue" d="M1107.6,-193.743C1174.44,-180.428 1269.52,-161.164 1286.52,-156 1289.17,-155.197 1291.89,-154.28 1294.59,-153.305"/>
<polygon fill="midnightblue" stroke="midnightblue" points="1296.1,-156.473 1304.18,-149.612 1293.59,-149.942 1296.1,-156.473"/>
</g>
<!-- Node44 -->
<g id="node44" class="node"><title>Node44</title>
<g id="a_node44"><a xlink:href="../../d4/de7/DataDescriptorMatcher_8inc.html" target="_top" xlink:title="DataDescriptorMatcher.inc">
<polygon fill="none" stroke="black" points="1034.52,-130.5 1034.52,-149.5 1168.52,-149.5 1168.52,-130.5 1034.52,-130.5"/>
<text text-anchor="middle" x="1101.52" y="-137.5" font-family="Helvetica,sans-Serif" font-size="10.00">DataDescriptorMatcher.inc</text>
</a>
</g>
</g>
<!-- Node27&#45;&gt;Node44 -->
<g id="edge66" class="edge"><title>Node27&#45;&gt;Node44</title>
<path fill="none" stroke="midnightblue" d="M1053.76,-192.679C1063.37,-182.286 1076.38,-168.208 1086.39,-157.37"/>
<polygon fill="midnightblue" stroke="midnightblue" points="1089.15,-159.548 1093.36,-149.828 1084.01,-154.796 1089.15,-159.548"/>
</g>
<!-- Node28&#45;&gt;Node4 -->
<g id="edge37" class="edge"><title>Node28&#45;&gt;Node4</title>
<path fill="none" stroke="midnightblue" d="M615.893,-124.999C653.15,-113.023 691.553,-93.6518 670.524,-68 618.8,-4.90741 568.021,-57.4984 490.524,-32 488.393,-31.2989 486.218,-30.492 484.055,-29.624"/>
<polygon fill="midnightblue" stroke="midnightblue" points="485.386,-26.3859 474.823,-25.5647 482.568,-32.7938 485.386,-26.3859"/>
</g>
<!-- Node28&#45;&gt;Node7 -->
<g id="edge39" class="edge"><title>Node28&#45;&gt;Node7</title>
<path fill="none" stroke="midnightblue" d="M557.976,-124.768C555.508,-108.849 549.229,-83.2945 533.524,-68 497.578,-32.9937 473.399,-49.8969 426.524,-32 424.416,-31.1953 422.249,-30.3386 420.075,-29.4581"/>
<polygon fill="midnightblue" stroke="midnightblue" points="421.243,-26.1532 410.666,-25.5324 418.547,-32.6134 421.243,-26.1532"/>
</g>
<!-- Node28&#45;&gt;Node21 -->
<g id="edge36" class="edge"><title>Node28&#45;&gt;Node21</title>
<path fill="none" stroke="midnightblue" d="M628.454,-124.933C681.535,-114.1 753.749,-99.3623 801.914,-89.5326"/>
<polygon fill="midnightblue" stroke="midnightblue" points="802.714,-92.9417 811.812,-87.5127 801.314,-86.0831 802.714,-92.9417"/>
</g>
<!-- Node28&#45;&gt;Node22 -->
<g id="edge40" class="edge"><title>Node28&#45;&gt;Node22</title>
<path fill="none" stroke="midnightblue" d="M621.068,-124.917C655.821,-115.582 694.305,-102.427 704.524,-88 709.662,-80.7464 710.011,-74.9931 704.524,-68 663.002,-15.0818 621.084,-54.0126 557.524,-32 555.398,-31.2637 553.222,-30.4406 551.052,-29.5691"/>
<polygon fill="midnightblue" stroke="midnightblue" points="552.314,-26.3019 541.745,-25.5596 549.545,-32.7307 552.314,-26.3019"/>
</g>
<!-- Node29 -->
<g id="node29" class="node"><title>Node29</title>
<polygon fill="none" stroke="#bfbfbf" points="619.024,-68.5 619.024,-87.5 662.024,-87.5 662.024,-68.5 619.024,-68.5"/>
<text text-anchor="middle" x="640.524" y="-75.5" font-family="Helvetica,sans-Serif" font-size="10.00">cstdio</text>
</g>
<!-- Node28&#45;&gt;Node29 -->
<g id="edge38" class="edge"><title>Node28&#45;&gt;Node29</title>
<path fill="none" stroke="midnightblue" d="M578.72,-124.781C591.339,-115.433 607.817,-103.227 620.585,-93.77"/>
<polygon fill="midnightblue" stroke="midnightblue" points="622.785,-96.4953 628.738,-87.7305 618.619,-90.8704 622.785,-96.4953"/>
</g>
<!-- Node30&#45;&gt;Node21 -->
<g id="edge59" class="edge"><title>Node30&#45;&gt;Node21</title>
<path fill="none" stroke="midnightblue" d="M1382.55,-130.473C1373.99,-128.045 1364.43,-125.622 1355.52,-124 1202.33,-96.0961 1019.55,-85.2417 922.336,-81.2168"/>
<polygon fill="midnightblue" stroke="midnightblue" points="922.475,-77.7196 912.342,-80.8147 922.193,-84.714 922.475,-77.7196"/>
</g>
<!-- Node30&#45;&gt;Node31 -->
<g id="edge43" class="edge"><title>Node30&#45;&gt;Node31</title>
<path fill="none" stroke="midnightblue" d="M1425.43,-130.403C1443.81,-120.468 1474.28,-103.997 1495.77,-92.3812"/>
<polygon fill="midnightblue" stroke="midnightblue" points="1497.52,-95.4148 1504.65,-87.5806 1494.19,-89.2568 1497.52,-95.4148"/>
</g>
<!-- Node31&#45;&gt;Node9 -->
<g id="edge49" class="edge"><title>Node31&#45;&gt;Node9</title>
<path fill="none" stroke="midnightblue" d="M1423.96,-69.1544C1419.08,-68.7628 1414.25,-68.3762 1409.52,-68 1205.1,-51.7135 1146.74,-88.2233 949.524,-32 947.562,-31.4405 945.578,-30.7418 943.617,-29.954"/>
<polygon fill="midnightblue" stroke="midnightblue" points="944.752,-26.619 934.216,-25.5056 941.758,-32.9464 944.752,-26.619"/>
</g>
<!-- Node31&#45;&gt;Node12 -->
<g id="edge50" class="edge"><title>Node31&#45;&gt;Node12</title>
<path fill="none" stroke="midnightblue" d="M1423.7,-74.334C1258.61,-69.1991 929.536,-56.2415 816.524,-32 812.826,-31.2067 809.013,-30.1341 805.279,-28.9251"/>
<polygon fill="midnightblue" stroke="midnightblue" points="806.304,-25.5746 795.71,-25.5039 803.948,-32.1661 806.304,-25.5746"/>
</g>
<!-- Node31&#45;&gt;Node14 -->
<g id="edge53" class="edge"><title>Node31&#45;&gt;Node14</title>
<path fill="none" stroke="midnightblue" d="M1423.96,-74.2166C1244.46,-68.5851 865.901,-54.4341 736.524,-32 731.26,-31.0872 725.768,-29.8201 720.422,-28.4058"/>
<polygon fill="midnightblue" stroke="midnightblue" points="720.992,-24.9293 710.416,-25.5587 719.077,-31.662 720.992,-24.9293"/>
</g>
<!-- Node31&#45;&gt;Node17 -->
<g id="edge52" class="edge"><title>Node31&#45;&gt;Node17</title>
<path fill="none" stroke="midnightblue" d="M1617.07,-68.9736C1621.96,-68.6295 1626.8,-68.3025 1631.52,-68 1801.81,-57.1035 2232.89,-72.9937 2398.52,-32 2401.03,-31.3809 2403.57,-30.5612 2406.07,-29.6234"/>
<polygon fill="midnightblue" stroke="midnightblue" points="2407.57,-32.7877 2415.35,-25.5956 2404.78,-26.3664 2407.57,-32.7877"/>
</g>
<!-- Node31&#45;&gt;Node23 -->
<g id="edge48" class="edge"><title>Node31&#45;&gt;Node23</title>
<path fill="none" stroke="midnightblue" d="M1428.56,-68.4686C1341.25,-59.7802 1216.57,-45.6777 1169.52,-32 1167.24,-31.3352 1164.91,-30.5272 1162.6,-29.6347"/>
<polygon fill="midnightblue" stroke="midnightblue" points="1163.99,-26.4208 1153.42,-25.6405 1161.2,-32.8395 1163.99,-26.4208"/>
</g>
<!-- Node31&#45;&gt;Node26 -->
<g id="edge58" class="edge"><title>Node31&#45;&gt;Node26</title>
<path fill="none" stroke="midnightblue" d="M1423.8,-68.7742C1339.51,-61.0665 1214.1,-48.2988 1105.52,-32 1096.8,-30.6911 1087.58,-29.1004 1078.63,-27.4502"/>
<polygon fill="midnightblue" stroke="midnightblue" points="1079.18,-23.9917 1068.71,-25.5737 1077.88,-30.8699 1079.18,-23.9917"/>
</g>
<!-- Node32 -->
<g id="node32" class="node"><title>Node32</title>
<polygon fill="none" stroke="#bfbfbf" points="2156.52,-1 2156.52,-31 2256.52,-31 2256.52,-1 2156.52,-1"/>
<text text-anchor="start" x="2164.52" y="-19" font-family="Helvetica,sans-Serif" font-size="10.00">boost/container/flat</text>
<text text-anchor="middle" x="2206.52" y="-8" font-family="Helvetica,sans-Serif" font-size="10.00">_map.hpp</text>
</g>
<!-- Node31&#45;&gt;Node32 -->
<g id="edge44" class="edge"><title>Node31&#45;&gt;Node32</title>
<path fill="none" stroke="midnightblue" d="M1617.08,-69.1055C1621.96,-68.7267 1626.8,-68.3563 1631.52,-68 1857.52,-50.9551 1918.82,-67.973 2146.52,-31.9683"/>
<polygon fill="midnightblue" stroke="midnightblue" points="2147.12,-35.418 2156.44,-30.3838 2146.01,-28.5057 2147.12,-35.418"/>
</g>
<!-- Node33 -->
<g id="node33" class="node"><title>Node33</title>
<polygon fill="none" stroke="#bfbfbf" points="2274.52,-1 2274.52,-31 2390.52,-31 2390.52,-1 2274.52,-1"/>
<text text-anchor="start" x="2282.52" y="-19" font-family="Helvetica,sans-Serif" font-size="10.00">boost/container/pmr</text>
<text text-anchor="middle" x="2332.52" y="-8" font-family="Helvetica,sans-Serif" font-size="10.00">/memory_resource.hpp</text>
</g>
<!-- Node31&#45;&gt;Node33 -->
<g id="edge45" class="edge"><title>Node31&#45;&gt;Node33</title>
<path fill="none" stroke="midnightblue" d="M1617.08,-69.0305C1621.96,-68.6715 1626.8,-68.3257 1631.52,-68 1909.79,-48.8216 1984.26,-70.4416 2264.12,-32.0475"/>
<polygon fill="midnightblue" stroke="midnightblue" points="2264.74,-35.4954 2274.16,-30.6562 2263.78,-28.5616 2264.74,-35.4954"/>
</g>
<!-- Node34 -->
<g id="node34" class="node"><title>Node34</title>
<polygon fill="none" stroke="#bfbfbf" points="1178.52,-1 1178.52,-31 1334.52,-31 1334.52,-1 1178.52,-1"/>
<text text-anchor="start" x="1186.52" y="-19" font-family="Helvetica,sans-Serif" font-size="10.00">boost/container/pmr</text>
<text text-anchor="middle" x="1256.52" y="-8" font-family="Helvetica,sans-Serif" font-size="10.00">/monotonic_buffer_resource.hpp</text>
</g>
<!-- Node31&#45;&gt;Node34 -->
<g id="edge46" class="edge"><title>Node31&#45;&gt;Node34</title>
<path fill="none" stroke="midnightblue" d="M1482.98,-68.4672C1442.81,-59.3375 1378.13,-44.6375 1328.16,-33.2807"/>
<polygon fill="midnightblue" stroke="midnightblue" points="1328.9,-29.8599 1318.37,-31.0565 1327.35,-36.6858 1328.9,-29.8599"/>
</g>
<!-- Node35 -->
<g id="node35" class="node"><title>Node35</title>
<polygon fill="none" stroke="#bfbfbf" points="1353.02,-1 1353.02,-31 1486.02,-31 1486.02,-1 1353.02,-1"/>
<text text-anchor="start" x="1361.02" y="-19" font-family="Helvetica,sans-Serif" font-size="10.00">boost/container/pmr</text>
<text text-anchor="middle" x="1419.52" y="-8" font-family="Helvetica,sans-Serif" font-size="10.00">/polymorphic_allocator.hpp</text>
</g>
<!-- Node31&#45;&gt;Node35 -->
<g id="edge47" class="edge"><title>Node31&#45;&gt;Node35</title>
<path fill="none" stroke="midnightblue" d="M1506.05,-68.4035C1491.99,-60.0495 1470.15,-47.0751 1451.93,-36.2517"/>
<polygon fill="midnightblue" stroke="midnightblue" points="1453.71,-33.2391 1443.33,-31.1408 1450.14,-39.2573 1453.71,-33.2391"/>
</g>
<!-- Node36 -->
<g id="node36" class="node"><title>Node36</title>
<polygon fill="none" stroke="#bfbfbf" points="1504.52,-6.5 1504.52,-25.5 1544.52,-25.5 1544.52,-6.5 1504.52,-6.5"/>
<text text-anchor="middle" x="1524.52" y="-13.5" font-family="Helvetica,sans-Serif" font-size="10.00">utility</text>
</g>
<!-- Node31&#45;&gt;Node36 -->
<g id="edge51" class="edge"><title>Node31&#45;&gt;Node36</title>
<path fill="none" stroke="midnightblue" d="M1521.1,-68.4035C1521.66,-59.9381 1522.54,-46.7283 1523.27,-35.8199"/>
<polygon fill="midnightblue" stroke="midnightblue" points="1526.78,-35.7913 1523.95,-25.5806 1519.79,-35.3256 1526.78,-35.7913"/>
</g>
<!-- Node37 -->
<g id="node37" class="node"><title>Node37</title>
<polygon fill="none" stroke="#bfbfbf" points="1563.02,-6.5 1563.02,-25.5 1660.02,-25.5 1660.02,-6.5 1563.02,-6.5"/>
<text text-anchor="middle" x="1611.52" y="-13.5" font-family="Helvetica,sans-Serif" font-size="10.00">FairMQMessage.h</text>
</g>
<!-- Node31&#45;&gt;Node37 -->
<g id="edge54" class="edge"><title>Node31&#45;&gt;Node37</title>
<path fill="none" stroke="midnightblue" d="M1533.56,-68.4035C1548.29,-58.6905 1572.5,-42.7319 1590.03,-31.1697"/>
<polygon fill="midnightblue" stroke="midnightblue" points="1592.09,-34.0072 1598.51,-25.5806 1588.23,-28.1632 1592.09,-34.0072"/>
</g>
<!-- Node38 -->
<g id="node38" class="node"><title>Node38</title>
<polygon fill="none" stroke="#bfbfbf" points="1678.02,-6.5 1678.02,-25.5 1809.02,-25.5 1809.02,-6.5 1678.02,-6.5"/>
<text text-anchor="middle" x="1743.52" y="-13.5" font-family="Helvetica,sans-Serif" font-size="10.00">FairMQTransportFactory.h</text>
</g>
<!-- Node31&#45;&gt;Node38 -->
<g id="edge55" class="edge"><title>Node31&#45;&gt;Node38</title>
<path fill="none" stroke="midnightblue" d="M1552.47,-68.4035C1591.8,-57.8217 1658.68,-39.8269 1701.97,-28.1802"/>
<polygon fill="midnightblue" stroke="midnightblue" points="1702.89,-31.5586 1711.63,-25.5806 1701.07,-24.799 1702.89,-31.5586"/>
</g>
<!-- Node39 -->
<g id="node39" class="node"><title>Node39</title>
<polygon fill="none" stroke="#bfbfbf" points="1827.02,-6.5 1827.02,-25.5 1964.02,-25.5 1964.02,-6.5 1827.02,-6.5"/>
<text text-anchor="middle" x="1895.52" y="-13.5" font-family="Helvetica,sans-Serif" font-size="10.00">fairmq/MemoryResources.h</text>
</g>
<!-- Node31&#45;&gt;Node39 -->
<g id="edge56" class="edge"><title>Node31&#45;&gt;Node39</title>
<path fill="none" stroke="midnightblue" d="M1581.5,-68.4817C1641.62,-59.9135 1736.06,-45.9992 1817.52,-32 1825.64,-30.6053 1834.21,-29.045 1842.59,-27.4724"/>
<polygon fill="midnightblue" stroke="midnightblue" points="1843.5,-30.8631 1852.67,-25.5582 1842.19,-23.9861 1843.5,-30.8631"/>
</g>
<!-- Node40 -->
<g id="node40" class="node"><title>Node40</title>
<polygon fill="none" stroke="#bfbfbf" points="1982.52,-6.5 1982.52,-25.5 2138.52,-25.5 2138.52,-6.5 1982.52,-6.5"/>
<text text-anchor="middle" x="2060.52" y="-13.5" font-family="Helvetica,sans-Serif" font-size="10.00">fairmq/MemoryResourceTools.h</text>
</g>
<!-- Node31&#45;&gt;Node40 -->
<g id="edge57" class="edge"><title>Node31&#45;&gt;Node40</title>
<path fill="none" stroke="midnightblue" d="M1613.85,-68.4818C1725.43,-58.1612 1905.51,-41.0364 1972.52,-32 1982.77,-30.6189 1993.64,-28.9394 2004.13,-27.2108"/>
<polygon fill="midnightblue" stroke="midnightblue" points="2004.75,-30.6558 2014.03,-25.5465 2003.59,-23.7526 2004.75,-30.6558"/>
</g>
</g>
</svg>
