<?xml version="1.0" encoding="UTF-8" standalone="no"?>
<!DOCTYPE svg PUBLIC "-//W3C//DTD SVG 1.1//EN"
 "http://www.w3.org/Graphics/SVG/1.1/DTD/svg11.dtd">
<!-- Generated by graphviz version 2.36.0 (20140111.2315)
 -->
<!-- Title: /home/travis/build/AliceO2Group/AliceO2/Detectors/MUON/MID/Base/include/MIDBase/MpArea.h Pages: 1 -->
<svg width="1114pt" height="422pt"
 viewBox="0.00 0.00 1114.00 422.00" xmlns="http://www.w3.org/2000/svg" xmlns:xlink="http://www.w3.org/1999/xlink">
<g id="graph0" class="graph" transform="scale(1 1) rotate(0) translate(4 418)">
<title>/home/travis/build/AliceO2Group/AliceO2/Detectors/MUON/MID/Base/include/MIDBase/MpArea.h</title>
<!-- Node1 -->
<g id="node1" class="node"><title>Node1</title>
<polygon fill="#bfbfbf" stroke="black" points="716.5,-361 716.5,-413 859.5,-413 859.5,-361 716.5,-361"/>
<text text-anchor="start" x="724.5" y="-401" font-family="Helvetica,sans-Serif" font-size="10.00">/home/travis/build</text>
<text text-anchor="start" x="724.5" y="-390" font-family="Helvetica,sans-Serif" font-size="10.00">/AliceO2Group/AliceO2</text>
<text text-anchor="start" x="724.5" y="-379" font-family="Helvetica,sans-Serif" font-size="10.00">/Detectors/MUON/MID/Base</text>
<text text-anchor="middle" x="788" y="-368" font-family="Helvetica,sans-Serif" font-size="10.00">/include/MIDBase/MpArea.h</text>
</g>
<!-- Node2 -->
<g id="node2" class="node"><title>Node2</title>
<g id="a_node2"><a xlink:href="../../d4/d73/MID_2Base_2include_2MIDBase_2Mapping_8h.html" target="_top" xlink:title="Mapping for MID. ">
<polygon fill="none" stroke="black" points="554.5,-271 554.5,-323 697.5,-323 697.5,-271 554.5,-271"/>
<text text-anchor="start" x="562.5" y="-311" font-family="Helvetica,sans-Serif" font-size="10.00">/home/travis/build</text>
<text text-anchor="start" x="562.5" y="-300" font-family="Helvetica,sans-Serif" font-size="10.00">/AliceO2Group/AliceO2</text>
<text text-anchor="start" x="562.5" y="-289" font-family="Helvetica,sans-Serif" font-size="10.00">/Detectors/MUON/MID/Base</text>
<text text-anchor="middle" x="626" y="-278" font-family="Helvetica,sans-Serif" font-size="10.00">/include/MIDBase/Mapping.h</text>
</a>
</g>
</g>
<!-- Node1&#45;&gt;Node2 -->
<g id="edge1" class="edge"><title>Node1&#45;&gt;Node2</title>
<path fill="none" stroke="midnightblue" d="M732.699,-355.96C712.988,-345.253 691.011,-333.315 672.149,-323.069"/>
<polygon fill="midnightblue" stroke="midnightblue" points="731.119,-359.085 741.577,-360.783 734.461,-352.934 731.119,-359.085"/>
</g>
<!-- Node4 -->
<g id="node4" class="node"><title>Node4</title>
<g id="a_node4"><a xlink:href="../../d5/d6f/testMapping_8cxx.html" target="_top" xlink:title="/home/travis/build\l/AliceO2Group/AliceO2\l/Detectors/MUON/MID/Base\l/test/src/testMapping.cxx">
<polygon fill="none" stroke="black" points="136.5,-181 136.5,-233 279.5,-233 279.5,-181 136.5,-181"/>
<text text-anchor="start" x="144.5" y="-221" font-family="Helvetica,sans-Serif" font-size="10.00">/home/travis/build</text>
<text text-anchor="start" x="144.5" y="-210" font-family="Helvetica,sans-Serif" font-size="10.00">/AliceO2Group/AliceO2</text>
<text text-anchor="start" x="144.5" y="-199" font-family="Helvetica,sans-Serif" font-size="10.00">/Detectors/MUON/MID/Base</text>
<text text-anchor="middle" x="208" y="-188" font-family="Helvetica,sans-Serif" font-size="10.00">/test/src/testMapping.cxx</text>
</a>
</g>
</g>
<!-- Node1&#45;&gt;Node4 -->
<g id="edge21" class="edge"><title>Node1&#45;&gt;Node4</title>
<path fill="none" stroke="midnightblue" d="M706.436,-366.952C659.05,-355.448 598.352,-339.959 545,-324 450.596,-295.76 343.234,-257.766 275.568,-233.081"/>
<polygon fill="midnightblue" stroke="midnightblue" points="705.796,-370.398 716.338,-369.345 707.44,-363.594 705.796,-370.398"/>
</g>
<!-- Node13 -->
<g id="node13" class="node"><title>Node13</title>
<g id="a_node13"><a xlink:href="../../d0/db9/bench__Tracker_8cxx.html" target="_top" xlink:title="Benchmark tracker device for MID. ">
<polygon fill="none" stroke="black" points="772,-181 772,-233 930,-233 930,-181 772,-181"/>
<text text-anchor="start" x="780" y="-221" font-family="Helvetica,sans-Serif" font-size="10.00">/home/travis/build</text>
<text text-anchor="start" x="780" y="-210" font-family="Helvetica,sans-Serif" font-size="10.00">/AliceO2Group/AliceO2</text>
<text text-anchor="start" x="780" y="-199" font-family="Helvetica,sans-Serif" font-size="10.00">/Detectors/MUON/MID/Tracking</text>
<text text-anchor="middle" x="851" y="-188" font-family="Helvetica,sans-Serif" font-size="10.00">/test/bench_Tracker.cxx</text>
</a>
</g>
</g>
<!-- Node1&#45;&gt;Node13 -->
<g id="edge22" class="edge"><title>Node1&#45;&gt;Node13</title>
<path fill="none" stroke="midnightblue" d="M791.98,-350.61C795.42,-327.13 801.543,-295.973 812,-270 817.177,-257.142 825.015,-243.994 832.311,-233.133"/>
<polygon fill="midnightblue" stroke="midnightblue" points="788.472,-350.429 790.581,-360.811 795.407,-351.379 788.472,-350.429"/>
</g>
<!-- Node14 -->
<g id="node14" class="node"><title>Node14</title>
<g id="a_node14"><a xlink:href="../../da/de0/testTracker_8cxx.html" target="_top" xlink:title="Test tracking device for MID. ">
<polygon fill="none" stroke="black" points="948,-181 948,-233 1106,-233 1106,-181 948,-181"/>
<text text-anchor="start" x="956" y="-221" font-family="Helvetica,sans-Serif" font-size="10.00">/home/travis/build</text>
<text text-anchor="start" x="956" y="-210" font-family="Helvetica,sans-Serif" font-size="10.00">/AliceO2Group/AliceO2</text>
<text text-anchor="start" x="956" y="-199" font-family="Helvetica,sans-Serif" font-size="10.00">/Detectors/MUON/MID/Tracking</text>
<text text-anchor="middle" x="1027" y="-188" font-family="Helvetica,sans-Serif" font-size="10.00">/test/testTracker.cxx</text>
</a>
</g>
</g>
<!-- Node1&#45;&gt;Node14 -->
<g id="edge23" class="edge"><title>Node1&#45;&gt;Node14</title>
<path fill="none" stroke="midnightblue" d="M801.469,-351.559C813.751,-321.69 831.923,-281.497 845,-270 853.382,-262.63 902.686,-246.037 947.862,-231.871"/>
<polygon fill="midnightblue" stroke="midnightblue" points="798.218,-350.262 797.702,-360.844 804.705,-352.893 798.218,-350.262"/>
</g>
<!-- Node15 -->
<g id="node15" class="node"><title>Node15</title>
<g id="a_node15"><a xlink:href="../../dc/d24/MpArea_8cxx.html" target="_top" xlink:title="Implementation of mapping area for MID. ">
<polygon fill="none" stroke="black" points="854.5,-271 854.5,-323 997.5,-323 997.5,-271 854.5,-271"/>
<text text-anchor="start" x="862.5" y="-311" font-family="Helvetica,sans-Serif" font-size="10.00">/home/travis/build</text>
<text text-anchor="start" x="862.5" y="-300" font-family="Helvetica,sans-Serif" font-size="10.00">/AliceO2Group/AliceO2</text>
<text text-anchor="start" x="862.5" y="-289" font-family="Helvetica,sans-Serif" font-size="10.00">/Detectors/MUON/MID/Base</text>
<text text-anchor="middle" x="926" y="-278" font-family="Helvetica,sans-Serif" font-size="10.00">/src/MpArea.cxx</text>
</a>
</g>
</g>
<!-- Node1&#45;&gt;Node15 -->
<g id="edge20" class="edge"><title>Node1&#45;&gt;Node15</title>
<path fill="none" stroke="midnightblue" d="M835.98,-355.404C852.462,-344.894 870.713,-333.255 886.449,-323.221"/>
<polygon fill="midnightblue" stroke="midnightblue" points="834.095,-352.455 827.545,-360.783 837.859,-358.357 834.095,-352.455"/>
</g>
<!-- Node3 -->
<g id="node3" class="node"><title>Node3</title>
<g id="a_node3"><a xlink:href="../../d9/d73/MID_2Base_2src_2Mapping_8cxx.html" target="_top" xlink:title="Implementation of mapping for MID. ">
<polygon fill="none" stroke="black" points="336.5,-181 336.5,-233 479.5,-233 479.5,-181 336.5,-181"/>
<text text-anchor="start" x="344.5" y="-221" font-family="Helvetica,sans-Serif" font-size="10.00">/home/travis/build</text>
<text text-anchor="start" x="344.5" y="-210" font-family="Helvetica,sans-Serif" font-size="10.00">/AliceO2Group/AliceO2</text>
<text text-anchor="start" x="344.5" y="-199" font-family="Helvetica,sans-Serif" font-size="10.00">/Detectors/MUON/MID/Base</text>
<text text-anchor="middle" x="408" y="-188" font-family="Helvetica,sans-Serif" font-size="10.00">/src/Mapping.cxx</text>
</a>
</g>
</g>
<!-- Node2&#45;&gt;Node3 -->
<g id="edge2" class="edge"><title>Node2&#45;&gt;Node3</title>
<path fill="none" stroke="midnightblue" d="M554.371,-267.085C527.198,-256.117 496.501,-243.725 470.261,-233.133"/>
<polygon fill="midnightblue" stroke="midnightblue" points="553.239,-270.403 563.822,-270.901 555.859,-263.912 553.239,-270.403"/>
</g>
<!-- Node2&#45;&gt;Node4 -->
<g id="edge3" class="edge"><title>Node2&#45;&gt;Node4</title>
<path fill="none" stroke="midnightblue" d="M544.13,-283.266C476.608,-272.154 378.53,-254.606 294,-234 289.302,-232.855 284.481,-231.606 279.635,-230.295"/>
<polygon fill="midnightblue" stroke="midnightblue" points="543.847,-286.766 554.281,-284.926 544.977,-279.858 543.847,-286.766"/>
</g>
<!-- Node5 -->
<g id="node5" class="node"><title>Node5</title>
<g id="a_node5"><a xlink:href="../../d5/d53/Clusterizer_8h.html" target="_top" xlink:title="Cluster reconstruction algorithm for MID. ">
<polygon fill="none" stroke="black" points="369.5,-91 369.5,-143 544.5,-143 544.5,-91 369.5,-91"/>
<text text-anchor="start" x="377.5" y="-131" font-family="Helvetica,sans-Serif" font-size="10.00">/home/travis/build</text>
<text text-anchor="start" x="377.5" y="-120" font-family="Helvetica,sans-Serif" font-size="10.00">/AliceO2Group/AliceO2</text>
<text text-anchor="start" x="377.5" y="-109" font-family="Helvetica,sans-Serif" font-size="10.00">/Detectors/MUON/MID/Clustering</text>
<text text-anchor="middle" x="457" y="-98" font-family="Helvetica,sans-Serif" font-size="10.00">/include/MIDClustering/Clusterizer.h</text>
</a>
</g>
</g>
<!-- Node2&#45;&gt;Node5 -->
<g id="edge4" class="edge"><title>Node2&#45;&gt;Node5</title>
<path fill="none" stroke="midnightblue" d="M567.332,-265.57C553.149,-256.581 538.718,-245.913 527,-234 512.898,-219.662 486.402,-172.722 470.363,-143.131"/>
<polygon fill="midnightblue" stroke="midnightblue" points="565.75,-268.705 576.105,-270.947 569.408,-262.737 565.75,-268.705"/>
</g>
<!-- Node7 -->
<g id="node7" class="node"><title>Node7</title>
<g id="a_node7"><a xlink:href="../../d2/d12/bench__Clusterizer_8cxx.html" target="_top" xlink:title="Benchmark clustering device for MID. ">
<polygon fill="none" stroke="black" points="548.5,-1 548.5,-53 713.5,-53 713.5,-1 548.5,-1"/>
<text text-anchor="start" x="556.5" y="-41" font-family="Helvetica,sans-Serif" font-size="10.00">/home/travis/build</text>
<text text-anchor="start" x="556.5" y="-30" font-family="Helvetica,sans-Serif" font-size="10.00">/AliceO2Group/AliceO2</text>
<text text-anchor="start" x="556.5" y="-19" font-family="Helvetica,sans-Serif" font-size="10.00">/Detectors/MUON/MID/Clustering</text>
<text text-anchor="middle" x="631" y="-8" font-family="Helvetica,sans-Serif" font-size="10.00">/test/bench_Clusterizer.cxx</text>
</a>
</g>
</g>
<!-- Node2&#45;&gt;Node7 -->
<g id="edge17" class="edge"><title>Node2&#45;&gt;Node7</title>
<path fill="none" stroke="midnightblue" d="M684.504,-265.57C698.471,-256.606 712.615,-245.951 724,-234 739.856,-217.355 769.14,-166.228 775,-144 781.118,-120.793 788.195,-110.047 775,-90 760.858,-68.5146 737.535,-54.443 713.736,-45.2395"/>
<polygon fill="midnightblue" stroke="midnightblue" points="682.512,-262.686 675.855,-270.929 686.199,-268.637 682.512,-262.686"/>
</g>
<!-- Node9 -->
<g id="node9" class="node"><title>Node9</title>
<g id="a_node9"><a xlink:href="../../d7/d1a/PreClusterizer_8h.html" target="_top" xlink:title="Pre&#45;Cluster reconstruction algorithm for MID. ">
<polygon fill="none" stroke="black" points="161,-91 161,-143 351,-143 351,-91 161,-91"/>
<text text-anchor="start" x="169" y="-131" font-family="Helvetica,sans-Serif" font-size="10.00">/home/travis/build</text>
<text text-anchor="start" x="169" y="-120" font-family="Helvetica,sans-Serif" font-size="10.00">/AliceO2Group/AliceO2</text>
<text text-anchor="start" x="169" y="-109" font-family="Helvetica,sans-Serif" font-size="10.00">/Detectors/MUON/MID/Clustering</text>
<text text-anchor="middle" x="256" y="-98" font-family="Helvetica,sans-Serif" font-size="10.00">/include/MIDClustering/PreClusterizer.h</text>
</a>
</g>
</g>
<!-- Node2&#45;&gt;Node9 -->
<g id="edge8" class="edge"><title>Node2&#45;&gt;Node9</title>
<path fill="none" stroke="midnightblue" d="M544.405,-286.46C468.286,-276.262 361.443,-258.228 327,-234 310.343,-222.283 283.897,-173.688 268.417,-143.233"/>
<polygon fill="midnightblue" stroke="midnightblue" points="544.091,-289.949 554.463,-287.786 545.006,-283.009 544.091,-289.949"/>
</g>
<!-- Node11 -->
<g id="node11" class="node"><title>Node11</title>
<g id="a_node11"><a xlink:href="../../d8/d04/PreClusters_8h.html" target="_top" xlink:title="Pre&#45;clusters structure for MID. ">
<polygon fill="none" stroke="black" points="536.5,-181 536.5,-233 715.5,-233 715.5,-181 536.5,-181"/>
<text text-anchor="start" x="544.5" y="-221" font-family="Helvetica,sans-Serif" font-size="10.00">/home/travis/build</text>
<text text-anchor="start" x="544.5" y="-210" font-family="Helvetica,sans-Serif" font-size="10.00">/AliceO2Group/AliceO2</text>
<text text-anchor="start" x="544.5" y="-199" font-family="Helvetica,sans-Serif" font-size="10.00">/Detectors/MUON/MID/Clustering</text>
<text text-anchor="middle" x="626" y="-188" font-family="Helvetica,sans-Serif" font-size="10.00">/include/MIDClustering/PreClusters.h</text>
</a>
</g>
</g>
<!-- Node2&#45;&gt;Node11 -->
<g id="edge12" class="edge"><title>Node2&#45;&gt;Node11</title>
<path fill="none" stroke="midnightblue" d="M626,-260.489C626,-251.309 626,-241.616 626,-233.092"/>
<polygon fill="midnightblue" stroke="midnightblue" points="622.5,-260.547 626,-270.547 629.5,-260.547 622.5,-260.547"/>
</g>
<!-- Node2&#45;&gt;Node13 -->
<g id="edge18" class="edge"><title>Node2&#45;&gt;Node13</title>
<path fill="none" stroke="midnightblue" d="M699.562,-267.229C727.698,-256.225 759.539,-243.771 786.74,-233.133"/>
<polygon fill="midnightblue" stroke="midnightblue" points="698.213,-263.998 690.175,-270.901 700.763,-270.518 698.213,-263.998"/>
</g>
<!-- Node2&#45;&gt;Node14 -->
<g id="edge19" class="edge"><title>Node2&#45;&gt;Node14</title>
<path fill="none" stroke="midnightblue" d="M707.556,-281.826C770.759,-270.352 860.352,-253.018 938,-234 941.283,-233.196 944.627,-232.349 947.999,-231.471"/>
<polygon fill="midnightblue" stroke="midnightblue" points="706.863,-278.394 697.645,-283.616 708.108,-285.283 706.863,-278.394"/>
</g>
<!-- Node6 -->
<g id="node6" class="node"><title>Node6</title>
<g id="a_node6"><a xlink:href="../../d9/dd5/Clusterizer_8cxx.html" target="_top" xlink:title="Implementation of the cluster reconstruction algorithm for MID. ">
<polygon fill="none" stroke="black" points="365.5,-1 365.5,-53 530.5,-53 530.5,-1 365.5,-1"/>
<text text-anchor="start" x="373.5" y="-41" font-family="Helvetica,sans-Serif" font-size="10.00">/home/travis/build</text>
<text text-anchor="start" x="373.5" y="-30" font-family="Helvetica,sans-Serif" font-size="10.00">/AliceO2Group/AliceO2</text>
<text text-anchor="start" x="373.5" y="-19" font-family="Helvetica,sans-Serif" font-size="10.00">/Detectors/MUON/MID/Clustering</text>
<text text-anchor="middle" x="448" y="-8" font-family="Helvetica,sans-Serif" font-size="10.00">/src/Clusterizer.cxx</text>
</a>
</g>
</g>
<!-- Node5&#45;&gt;Node6 -->
<g id="edge5" class="edge"><title>Node5&#45;&gt;Node6</title>
<path fill="none" stroke="midnightblue" d="M453.368,-80.4892C452.429,-71.3088 451.438,-61.616 450.566,-53.0921"/>
<polygon fill="midnightblue" stroke="midnightblue" points="449.897,-80.9548 454.397,-90.5468 456.861,-80.2425 449.897,-80.9548"/>
</g>
<!-- Node5&#45;&gt;Node7 -->
<g id="edge6" class="edge"><title>Node5&#45;&gt;Node7</title>
<path fill="none" stroke="midnightblue" d="M515.825,-86.2492C537.143,-75.4678 560.991,-63.4068 581.432,-53.0687"/>
<polygon fill="midnightblue" stroke="midnightblue" points="514.205,-83.1463 506.861,-90.7827 517.365,-89.3928 514.205,-83.1463"/>
</g>
<!-- Node8 -->
<g id="node8" class="node"><title>Node8</title>
<g id="a_node8"><a xlink:href="../../d6/dee/testClusterizer_8cxx.html" target="_top" xlink:title="Test clustering device for MID. ">
<polygon fill="none" stroke="black" points="182.5,-1 182.5,-53 347.5,-53 347.5,-1 182.5,-1"/>
<text text-anchor="start" x="190.5" y="-41" font-family="Helvetica,sans-Serif" font-size="10.00">/home/travis/build</text>
<text text-anchor="start" x="190.5" y="-30" font-family="Helvetica,sans-Serif" font-size="10.00">/AliceO2Group/AliceO2</text>
<text text-anchor="start" x="190.5" y="-19" font-family="Helvetica,sans-Serif" font-size="10.00">/Detectors/MUON/MID/Clustering</text>
<text text-anchor="middle" x="265" y="-8" font-family="Helvetica,sans-Serif" font-size="10.00">/test/testClusterizer.cxx</text>
</a>
</g>
</g>
<!-- Node5&#45;&gt;Node8 -->
<g id="edge7" class="edge"><title>Node5&#45;&gt;Node8</title>
<path fill="none" stroke="midnightblue" d="M392.971,-86.6536C369.274,-75.7923 342.643,-63.5862 319.835,-53.1328"/>
<polygon fill="midnightblue" stroke="midnightblue" points="391.688,-89.9156 402.237,-90.9005 394.605,-83.5522 391.688,-89.9156"/>
</g>
<!-- Node9&#45;&gt;Node7 -->
<g id="edge10" class="edge"><title>Node9&#45;&gt;Node7</title>
<path fill="none" stroke="midnightblue" d="M361.184,-89.7834C440.888,-72.1939 463.2,-72.3045 539,-54 542.065,-53.2597 545.183,-52.4861 548.327,-51.6882"/>
<polygon fill="midnightblue" stroke="midnightblue" points="360.17,-86.4237 351.173,-92.0187 361.695,-93.2555 360.17,-86.4237"/>
</g>
<!-- Node9&#45;&gt;Node8 -->
<g id="edge11" class="edge"><title>Node9&#45;&gt;Node8</title>
<path fill="none" stroke="midnightblue" d="M259.632,-80.4892C260.571,-71.3088 261.562,-61.616 262.434,-53.0921"/>
<polygon fill="midnightblue" stroke="midnightblue" points="256.139,-80.2425 258.603,-90.5468 263.103,-80.9548 256.139,-80.2425"/>
</g>
<!-- Node10 -->
<g id="node10" class="node"><title>Node10</title>
<g id="a_node10"><a xlink:href="../../db/d2e/PreClusterizer_8cxx.html" target="_top" xlink:title="Implementation of the pre&#45;cluster reconstruction algorithm for MID. ">
<polygon fill="none" stroke="black" points="-0.5,-1 -0.5,-53 164.5,-53 164.5,-1 -0.5,-1"/>
<text text-anchor="start" x="7.5" y="-41" font-family="Helvetica,sans-Serif" font-size="10.00">/home/travis/build</text>
<text text-anchor="start" x="7.5" y="-30" font-family="Helvetica,sans-Serif" font-size="10.00">/AliceO2Group/AliceO2</text>
<text text-anchor="start" x="7.5" y="-19" font-family="Helvetica,sans-Serif" font-size="10.00">/Detectors/MUON/MID/Clustering</text>
<text text-anchor="middle" x="82" y="-8" font-family="Helvetica,sans-Serif" font-size="10.00">/src/PreClusterizer.cxx</text>
</a>
</g>
</g>
<!-- Node9&#45;&gt;Node10 -->
<g id="edge9" class="edge"><title>Node9&#45;&gt;Node10</title>
<path fill="none" stroke="midnightblue" d="M197.175,-86.2492C175.857,-75.4678 152.009,-63.4068 131.568,-53.0687"/>
<polygon fill="midnightblue" stroke="midnightblue" points="195.635,-89.3928 206.139,-90.7827 198.795,-83.1463 195.635,-89.3928"/>
</g>
<!-- Node11&#45;&gt;Node5 -->
<g id="edge13" class="edge"><title>Node11&#45;&gt;Node5</title>
<path fill="none" stroke="midnightblue" d="M568.588,-176.105C547.953,-165.36 524.909,-153.361 505.143,-143.069"/>
<polygon fill="midnightblue" stroke="midnightblue" points="567.085,-179.269 577.571,-180.783 570.318,-173.06 567.085,-179.269"/>
</g>
<!-- Node11&#45;&gt;Node7 -->
<g id="edge16" class="edge"><title>Node11&#45;&gt;Node7</title>
<path fill="none" stroke="midnightblue" d="M603.499,-172.164C598.767,-163.352 594.465,-153.621 592,-144 586.044,-120.751 585.35,-113.06 592,-90 595.77,-76.9262 603.202,-63.95 610.576,-53.2738"/>
<polygon fill="midnightblue" stroke="midnightblue" points="600.53,-174.022 608.528,-180.97 606.609,-170.551 600.53,-174.022"/>
</g>
<!-- Node11&#45;&gt;Node9 -->
<g id="edge14" class="edge"><title>Node11&#45;&gt;Node9</title>
<path fill="none" stroke="midnightblue" d="M526.496,-183.204C476.491,-171.648 414.988,-157.281 360,-144 357.105,-143.301 354.166,-142.588 351.2,-141.865"/>
<polygon fill="midnightblue" stroke="midnightblue" points="525.807,-186.637 536.338,-185.477 527.382,-179.817 525.807,-186.637"/>
</g>
<!-- Node12 -->
<g id="node12" class="node"><title>Node12</title>
<g id="a_node12"><a xlink:href="../../d6/d6b/PreClusters_8cxx.html" target="_top" xlink:title="Implementation of the pre&#45;clusters for MID. ">
<polygon fill="none" stroke="black" points="601.5,-91 601.5,-143 766.5,-143 766.5,-91 601.5,-91"/>
<text text-anchor="start" x="609.5" y="-131" font-family="Helvetica,sans-Serif" font-size="10.00">/home/travis/build</text>
<text text-anchor="start" x="609.5" y="-120" font-family="Helvetica,sans-Serif" font-size="10.00">/AliceO2Group/AliceO2</text>
<text text-anchor="start" x="609.5" y="-109" font-family="Helvetica,sans-Serif" font-size="10.00">/Detectors/MUON/MID/Clustering</text>
<text text-anchor="middle" x="684" y="-98" font-family="Helvetica,sans-Serif" font-size="10.00">/src/PreClusters.cxx</text>
</a>
</g>
</g>
<!-- Node11&#45;&gt;Node12 -->
<g id="edge15" class="edge"><title>Node11&#45;&gt;Node12</title>
<path fill="none" stroke="midnightblue" d="M648.432,-171.965C654.766,-162.354 661.542,-152.074 667.462,-143.092"/>
<polygon fill="midnightblue" stroke="midnightblue" points="645.357,-170.271 642.776,-180.547 651.202,-174.123 645.357,-170.271"/>
</g>
</g>
</svg>
