<?xml version="1.0" encoding="UTF-8" standalone="no"?>
<!DOCTYPE svg PUBLIC "-//W3C//DTD SVG 1.1//EN"
 "http://www.w3.org/Graphics/SVG/1.1/DTD/svg11.dtd">
<!-- Generated by graphviz version 2.36.0 (20140111.2315)
 -->
<!-- Title: sg_image_desc Pages: 1 -->
<!--zoomable 472 -->
<svg id="main" version="1.1" xmlns="http://www.w3.org/2000/svg" xmlns:xlink="http://www.w3.org/1999/xlink" xml:space="preserve" onload="init(evt)">
<style type="text/css"><![CDATA[
.edge:hover path { stroke: red; }
.edge:hover polygon { stroke: red; fill: red; }
]]></style>
<script type="text/javascript"><![CDATA[
var edges = document.getElementsByTagName('g');
if (edges && edges.length) {
  for (var i=0;i<edges.length;i++) {
    if (edges[i].id.substr(0,4)=='edge') {
      edges[i].setAttribute('class','edge');
    }
  }
}
]]></script>
        <defs>
                <circle id="rim" cx="0" cy="0" r="7"/>
                <circle id="rim2" cx="0" cy="0" r="3.5"/>
                <g id="zoomPlus">
                        <use xlink:href="#rim" fill="#404040">
                                <set attributeName="fill" to="#808080" begin="zoomplus.mouseover" end="zoomplus.mouseout"/>
                        </use>
                        <path d="M-4,0h8M0,-4v8" fill="none" stroke="white" stroke-width="1.5" pointer-events="none"/>
                </g>
                <g id="zoomMin">
                        <use xlink:href="#rim" fill="#404040">
                                <set attributeName="fill" to="#808080" begin="zoomminus.mouseover" end="zoomminus.mouseout"/>
                        </use>
                        <path d="M-4,0h8" fill="none" stroke="white" stroke-width="1.5" pointer-events="none"/>
                </g>
                <g id="dirArrow">
                        <path fill="none" stroke="white" stroke-width="1.5" d="M0,-3.0v7 M-2.5,-0.5L0,-3.0L2.5,-0.5"/>
                </g>
               <g id="resetDef">
                       <use xlink:href="#rim2" fill="#404040">
                               <set attributeName="fill" to="#808080" begin="reset.mouseover" end="reset.mouseout"/>
                       </use>
               </g>
        </defs>

<script type="text/javascript">
var viewWidth = 883;
var viewHeight = 472;
var sectionId = 'dynsection-0';
</script>
<script xlink:href="../../svgpan.js"/>
<svg id="graph" class="graph">
<g id="viewport">
<title>sg_image_desc</title>
<!-- Node1 -->
<g id="node1" class="node"><title>Node1</title>
<polygon fill="#bfbfbf" stroke="black" points="380.5,-0.5 380.5,-57.5 465.5,-57.5 465.5,-0.5 380.5,-0.5"/>
<text text-anchor="middle" x="423" y="-45.5" font-family="Helvetica,sans-Serif" font-size="10.00">sg_image_desc</text>
<polyline fill="none" stroke="black" points="380.5,-38.5 465.5,-38.5 "/>
<text text-anchor="middle" x="423" y="-26.5" font-family="Helvetica,sans-Serif" font-size="10.00"> </text>
<polyline fill="none" stroke="black" points="380.5,-19.5 465.5,-19.5 "/>
<text text-anchor="middle" x="423" y="-7.5" font-family="Helvetica,sans-Serif" font-size="10.00"> </text>
</g>
<!-- Node2 -->
<g id="node2" class="node"><title>Node2</title>
<polygon fill="none" stroke="#bfbfbf" points="-0.5,-139.5 -0.5,-196.5 50.5,-196.5 50.5,-139.5 -0.5,-139.5"/>
<text text-anchor="middle" x="25" y="-184.5" font-family="Helvetica,sans-Serif" font-size="10.00">uint32_t</text>
<polyline fill="none" stroke="#bfbfbf" points="-0.5,-177.5 50.5,-177.5 "/>
<text text-anchor="middle" x="25" y="-165.5" font-family="Helvetica,sans-Serif" font-size="10.00"> </text>
<polyline fill="none" stroke="#bfbfbf" points="-0.5,-158.5 50.5,-158.5 "/>
<text text-anchor="middle" x="25" y="-146.5" font-family="Helvetica,sans-Serif" font-size="10.00"> </text>
</g>
<!-- Node2&#45;&gt;Node1 -->
<g id="edge1" class="edge"><title>Node2&#45;&gt;Node1</title>
<path fill="none" stroke="#404040" d="M21.5362,-139.141C20.6789,-118.743 23.3429,-91.9425 40,-76 63.2568,-53.7409 267.636,-38.969 367.944,-32.9941"/>
<polygon fill="none" stroke="#404040" points="368.241,-32.9768 373.997,-28.6332 380.221,-32.2759 374.465,-36.6195 368.241,-32.9768"/>
<text text-anchor="middle" x="79.5" y="-112" font-family="Helvetica,sans-Serif" font-size="10.00"> +max_anisotropy</text>
<text text-anchor="middle" x="79.5" y="-101" font-family="Helvetica,sans-Serif" font-size="10.00">+gl_textures</text>
<text text-anchor="middle" x="79.5" y="-90" font-family="Helvetica,sans-Serif" font-size="10.00">+_end_canary</text>
<text text-anchor="middle" x="79.5" y="-79" font-family="Helvetica,sans-Serif" font-size="10.00">+_start_canary</text>
</g>
<!-- Node3 -->
<g id="node3" class="node"><title>Node3</title>
<polygon fill="none" stroke="#bfbfbf" points="76.5,-139.5 76.5,-196.5 159.5,-196.5 159.5,-139.5 76.5,-139.5"/>
<text text-anchor="middle" x="118" y="-184.5" font-family="Helvetica,sans-Serif" font-size="10.00">sg_image_type</text>
<polyline fill="none" stroke="#bfbfbf" points="76.5,-177.5 159.5,-177.5 "/>
<text text-anchor="middle" x="118" y="-165.5" font-family="Helvetica,sans-Serif" font-size="10.00"> </text>
<polyline fill="none" stroke="#bfbfbf" points="76.5,-158.5 159.5,-158.5 "/>
<text text-anchor="middle" x="118" y="-146.5" font-family="Helvetica,sans-Serif" font-size="10.00"> </text>
</g>
<!-- Node3&#45;&gt;Node1 -->
<g id="edge2" class="edge"><title>Node3&#45;&gt;Node1</title>
<path fill="none" stroke="#404040" d="M119.05,-139.409C121.37,-118.875 127.956,-91.7757 146,-76 178.284,-47.7739 297.025,-36.6182 368.139,-32.4012"/>
<polygon fill="none" stroke="#404040" points="368.423,-32.3853 374.19,-28.0561 380.404,-31.7144 374.637,-36.0436 368.423,-32.3853"/>
<text text-anchor="middle" x="160" y="-95.5" font-family="Helvetica,sans-Serif" font-size="10.00"> +type</text>
</g>
<!-- Node4 -->
<g id="node4" class="node"><title>Node4</title>
<polygon fill="none" stroke="#bfbfbf" points="192,-406.5 192,-463.5 260,-463.5 260,-406.5 192,-406.5"/>
<text text-anchor="middle" x="226" y="-451.5" font-family="Helvetica,sans-Serif" font-size="10.00">const void *</text>
<polyline fill="none" stroke="#bfbfbf" points="192,-444.5 260,-444.5 "/>
<text text-anchor="middle" x="226" y="-432.5" font-family="Helvetica,sans-Serif" font-size="10.00"> </text>
<polyline fill="none" stroke="#bfbfbf" points="192,-425.5 260,-425.5 "/>
<text text-anchor="middle" x="226" y="-413.5" font-family="Helvetica,sans-Serif" font-size="10.00"> </text>
</g>
<!-- Node4&#45;&gt;Node1 -->
<g id="edge3" class="edge"><title>Node4&#45;&gt;Node1</title>
<path fill="none" stroke="#404040" d="M217.318,-406.095C201.87,-350.866 175.537,-225.419 224,-138 241.86,-105.784 248.132,-96.0996 279,-76 306.038,-58.3946 340.316,-47.0899 368.645,-40.0946"/>
<polygon fill="none" stroke="#404040" points="368.697,-40.0824 373.631,-34.8232 380.383,-37.3546 375.45,-42.6138 368.697,-40.0824"/>
<text text-anchor="middle" x="235.5" y="-252" font-family="Helvetica,sans-Serif" font-size="10.00"> +d3d11_texture</text>
<text text-anchor="middle" x="235.5" y="-241" font-family="Helvetica,sans-Serif" font-size="10.00">+mtl_textures</text>
</g>
<!-- Node13 -->
<g id="node13" class="node"><title>Node13</title>
<g id="a_node13"><a xlink:href="../../d1/d35/structsg__subimage__content.html" target="_top" xlink:title="{sg_subimage_content\n||}">
<polygon fill="none" stroke="black" points="217,-300.5 217,-357.5 329,-357.5 329,-300.5 217,-300.5"/>
<text text-anchor="middle" x="273" y="-345.5" font-family="Helvetica,sans-Serif" font-size="10.00">sg_subimage_content</text>
<polyline fill="none" stroke="black" points="217,-338.5 329,-338.5 "/>
<text text-anchor="middle" x="273" y="-326.5" font-family="Helvetica,sans-Serif" font-size="10.00"> </text>
<polyline fill="none" stroke="black" points="217,-319.5 329,-319.5 "/>
<text text-anchor="middle" x="273" y="-307.5" font-family="Helvetica,sans-Serif" font-size="10.00"> </text>
</a>
</g>
</g>
<!-- Node4&#45;&gt;Node13 -->
<g id="edge13" class="edge"><title>Node4&#45;&gt;Node13</title>
<path fill="none" stroke="#404040" d="M238.472,-406.403C243.677,-394.885 249.816,-381.301 255.463,-368.805"/>
<polygon fill="none" stroke="#404040" points="255.528,-368.661 254.354,-361.546 260.47,-357.726 261.644,-364.841 255.528,-368.661"/>
<text text-anchor="middle" x="261.5" y="-379.5" font-family="Helvetica,sans-Serif" font-size="10.00"> +ptr</text>
</g>
<!-- Node5 -->
<g id="node5" class="node"><title>Node5</title>
<g id="a_node5"><a xlink:href="../../d4/dc3/classfloat.html" target="_top" xlink:title="{float\n||}">
<polygon fill="none" stroke="black" points="385.5,-139.5 385.5,-196.5 420.5,-196.5 420.5,-139.5 385.5,-139.5"/>
<text text-anchor="middle" x="403" y="-184.5" font-family="Helvetica,sans-Serif" font-size="10.00">float</text>
<polyline fill="none" stroke="black" points="385.5,-177.5 420.5,-177.5 "/>
<text text-anchor="middle" x="403" y="-165.5" font-family="Helvetica,sans-Serif" font-size="10.00"> </text>
<polyline fill="none" stroke="black" points="385.5,-158.5 420.5,-158.5 "/>
<text text-anchor="middle" x="403" y="-146.5" font-family="Helvetica,sans-Serif" font-size="10.00"> </text>
</a>
</g>
</g>
<!-- Node5&#45;&gt;Node1 -->
<g id="edge4" class="edge"><title>Node5&#45;&gt;Node1</title>
<path fill="none" stroke="#404040" d="M393.287,-139.391C388.307,-121.069 384.515,-96.679 391,-76 391.816,-73.398 392.837,-70.8142 394.008,-68.276"/>
<polygon fill="none" stroke="#404040" points="394.143,-68.0321 393.537,-60.8465 399.936,-57.5233 400.543,-64.7089 394.143,-68.0321"/>
<text text-anchor="middle" x="412.5" y="-101" font-family="Helvetica,sans-Serif" font-size="10.00"> +min_lod</text>
<text text-anchor="middle" x="412.5" y="-90" font-family="Helvetica,sans-Serif" font-size="10.00">+max_lod</text>
</g>
<!-- Node6 -->
<g id="node6" class="node"><title>Node6</title>
<polygon fill="none" stroke="#bfbfbf" points="441.5,-139 441.5,-197 470.5,-197 470.5,-139 441.5,-139"/>
<polyline fill="none" stroke="#bfbfbf" points="441.5,-177 470.5,-177 "/>
<text text-anchor="middle" x="456" y="-165" font-family="Helvetica,sans-Serif" font-size="10.00"> </text>
<polyline fill="none" stroke="#bfbfbf" points="441.5,-158 470.5,-158 "/>
<text text-anchor="middle" x="456" y="-146" font-family="Helvetica,sans-Serif" font-size="10.00"> </text>
</g>
<!-- Node6&#45;&gt;Node1 -->
<g id="edge5" class="edge"><title>Node6&#45;&gt;Node1</title>
<path fill="none" stroke="#404040" d="M449.242,-138.945C444.406,-118.866 437.829,-91.5621 432.469,-69.3121"/>
<polygon fill="none" stroke="#404040" points="432.446,-69.2152 427.152,-64.3188 429.636,-57.5489 434.93,-62.4453 432.446,-69.2152"/>
<text text-anchor="middle" x="463" y="-95.5" font-family="Helvetica,sans-Serif" font-size="10.00"> +@155</text>
</g>
<!-- Node7 -->
<g id="node7" class="node"><title>Node7</title>
<polygon fill="none" stroke="#bfbfbf" points="489.5,-139.5 489.5,-196.5 540.5,-196.5 540.5,-139.5 489.5,-139.5"/>
<text text-anchor="middle" x="515" y="-184.5" font-family="Helvetica,sans-Serif" font-size="10.00">sg_filter</text>
<polyline fill="none" stroke="#bfbfbf" points="489.5,-177.5 540.5,-177.5 "/>
<text text-anchor="middle" x="515" y="-165.5" font-family="Helvetica,sans-Serif" font-size="10.00"> </text>
<polyline fill="none" stroke="#bfbfbf" points="489.5,-158.5 540.5,-158.5 "/>
<text text-anchor="middle" x="515" y="-146.5" font-family="Helvetica,sans-Serif" font-size="10.00"> </text>
</g>
<!-- Node7&#45;&gt;Node1 -->
<g id="edge6" class="edge"><title>Node7&#45;&gt;Node1</title>
<path fill="none" stroke="#404040" d="M510.412,-139.097C506.219,-119.963 498.538,-94.7453 485,-76 481.998,-71.8439 478.51,-67.9028 474.747,-64.2053"/>
<polygon fill="none" stroke="#404040" points="474.53,-64.0125 467.389,-63.0104 465.567,-56.0332 472.708,-57.0352 474.53,-64.0125"/>
<text text-anchor="middle" x="531" y="-101" font-family="Helvetica,sans-Serif" font-size="10.00"> +mag_filter</text>
<text text-anchor="middle" x="531" y="-90" font-family="Helvetica,sans-Serif" font-size="10.00">+min_filter</text>
</g>
<!-- Node8 -->
<g id="node8" class="node"><title>Node8</title>
<polygon fill="none" stroke="#bfbfbf" points="297.5,-406.5 297.5,-463.5 326.5,-463.5 326.5,-406.5 297.5,-406.5"/>
<text text-anchor="middle" x="312" y="-451.5" font-family="Helvetica,sans-Serif" font-size="10.00">int</text>
<polyline fill="none" stroke="#bfbfbf" points="297.5,-444.5 326.5,-444.5 "/>
<text text-anchor="middle" x="312" y="-432.5" font-family="Helvetica,sans-Serif" font-size="10.00"> </text>
<polyline fill="none" stroke="#bfbfbf" points="297.5,-425.5 326.5,-425.5 "/>
<text text-anchor="middle" x="312" y="-413.5" font-family="Helvetica,sans-Serif" font-size="10.00"> </text>
</g>
<!-- Node8&#45;&gt;Node1 -->
<g id="edge7" class="edge"><title>Node8&#45;&gt;Node1</title>
<path fill="none" stroke="#404040" d="M322.296,-406.145C327.272,-391.895 333.014,-374.184 337,-358 367.385,-234.624 330.548,-191.272 384,-76 385.357,-73.0733 386.953,-70.1847 388.709,-67.3674"/>
<polygon fill="none" stroke="#404040" points="388.725,-67.3452 388.913,-60.1365 395.639,-57.5372 395.451,-64.7459 388.725,-67.3452"/>
<text text-anchor="middle" x="388.5" y="-274" font-family="Helvetica,sans-Serif" font-size="10.00"> +num_mipmaps</text>
<text text-anchor="middle" x="388.5" y="-263" font-family="Helvetica,sans-Serif" font-size="10.00">+depth</text>
<text text-anchor="middle" x="388.5" y="-252" font-family="Helvetica,sans-Serif" font-size="10.00">+height</text>
<text text-anchor="middle" x="388.5" y="-241" font-family="Helvetica,sans-Serif" font-size="10.00">+width</text>
<text text-anchor="middle" x="388.5" y="-230" font-family="Helvetica,sans-Serif" font-size="10.00">+sample_count</text>
<text text-anchor="middle" x="388.5" y="-219" font-family="Helvetica,sans-Serif" font-size="10.00">+layers</text>
</g>
<!-- Node8&#45;&gt;Node13 -->
<g id="edge14" class="edge"><title>Node8&#45;&gt;Node13</title>
<path fill="none" stroke="#404040" d="M301.651,-406.403C297.376,-395.002 292.342,-381.578 287.695,-369.188"/>
<polygon fill="none" stroke="#404040" points="287.611,-368.962 281.759,-364.749 283.397,-357.726 289.249,-361.939 287.611,-368.962"/>
<text text-anchor="middle" x="308" y="-379.5" font-family="Helvetica,sans-Serif" font-size="10.00"> +size</text>
</g>
<!-- Node9 -->
<g id="node9" class="node"><title>Node9</title>
<polygon fill="none" stroke="#bfbfbf" points="572.5,-139.5 572.5,-196.5 607.5,-196.5 607.5,-139.5 572.5,-139.5"/>
<text text-anchor="middle" x="590" y="-184.5" font-family="Helvetica,sans-Serif" font-size="10.00">bool</text>
<polyline fill="none" stroke="#bfbfbf" points="572.5,-177.5 607.5,-177.5 "/>
<text text-anchor="middle" x="590" y="-165.5" font-family="Helvetica,sans-Serif" font-size="10.00"> </text>
<polyline fill="none" stroke="#bfbfbf" points="572.5,-158.5 607.5,-158.5 "/>
<text text-anchor="middle" x="590" y="-146.5" font-family="Helvetica,sans-Serif" font-size="10.00"> </text>
</g>
<!-- Node9&#45;&gt;Node1 -->
<g id="edge8" class="edge"><title>Node9&#45;&gt;Node1</title>
<path fill="none" stroke="#404040" d="M587.772,-139.326C584.752,-119.294 577.655,-92.8772 561,-76 539.058,-53.7653 506.101,-42.2781 477.897,-36.3433"/>
<polygon fill="none" stroke="#404040" points="477.533,-36.2748 470.897,-39.0967 465.74,-34.0565 472.376,-31.2346 477.533,-36.2748"/>
<text text-anchor="middle" x="617.5" y="-95.5" font-family="Helvetica,sans-Serif" font-size="10.00"> +render_target</text>
</g>
<!-- Node10 -->
<g id="node10" class="node"><title>Node10</title>
<polygon fill="none" stroke="#bfbfbf" points="634,-139.5 634,-196.5 720,-196.5 720,-139.5 634,-139.5"/>
<text text-anchor="middle" x="677" y="-184.5" font-family="Helvetica,sans-Serif" font-size="10.00">sg_pixel_format</text>
<polyline fill="none" stroke="#bfbfbf" points="634,-177.5 720,-177.5 "/>
<text text-anchor="middle" x="677" y="-165.5" font-family="Helvetica,sans-Serif" font-size="10.00"> </text>
<polyline fill="none" stroke="#bfbfbf" points="634,-158.5 720,-158.5 "/>
<text text-anchor="middle" x="677" y="-146.5" font-family="Helvetica,sans-Serif" font-size="10.00"> </text>
</g>
<!-- Node10&#45;&gt;Node1 -->
<g id="edge9" class="edge"><title>Node10&#45;&gt;Node1</title>
<path fill="none" stroke="#404040" d="M677.75,-139.291C676.739,-118.971 671.89,-92.2034 655,-76 630.12,-52.1313 538.05,-39.7831 477.647,-34.1119"/>
<polygon fill="none" stroke="#404040" points="477.597,-34.1076 471.263,-37.5544 465.646,-33.0333 471.98,-29.5865 477.597,-34.1076"/>
<text text-anchor="middle" x="707.5" y="-95.5" font-family="Helvetica,sans-Serif" font-size="10.00"> +pixel_format</text>
</g>
<!-- Node11 -->
<g id="node11" class="node"><title>Node11</title>
<polygon fill="none" stroke="#bfbfbf" points="738.5,-139.5 738.5,-196.5 797.5,-196.5 797.5,-139.5 738.5,-139.5"/>
<text text-anchor="middle" x="768" y="-184.5" font-family="Helvetica,sans-Serif" font-size="10.00">sg_usage</text>
<polyline fill="none" stroke="#bfbfbf" points="738.5,-177.5 797.5,-177.5 "/>
<text text-anchor="middle" x="768" y="-165.5" font-family="Helvetica,sans-Serif" font-size="10.00"> </text>
<polyline fill="none" stroke="#bfbfbf" points="738.5,-158.5 797.5,-158.5 "/>
<text text-anchor="middle" x="768" y="-146.5" font-family="Helvetica,sans-Serif" font-size="10.00"> </text>
</g>
<!-- Node11&#45;&gt;Node1 -->
<g id="edge10" class="edge"><title>Node11&#45;&gt;Node1</title>
<path fill="none" stroke="#404040" d="M768.025,-139.374C766.472,-118.821 760.818,-91.7135 743,-76 704.691,-42.2148 559.095,-33.2181 478.137,-30.8399"/>
<polygon fill="none" stroke="#404040" points="477.721,-30.829 471.618,-34.6692 465.726,-30.5122 471.829,-26.672 477.721,-30.829"/>
<text text-anchor="middle" x="783" y="-95.5" font-family="Helvetica,sans-Serif" font-size="10.00"> +usage</text>
</g>
<!-- Node12 -->
<g id="node12" class="node"><title>Node12</title>
<g id="a_node12"><a xlink:href="../../dd/d44/structsg__image__content.html" target="_top" xlink:title="{sg_image_content\n||}">
<polygon fill="none" stroke="black" points="233,-139.5 233,-196.5 329,-196.5 329,-139.5 233,-139.5"/>
<text text-anchor="middle" x="281" y="-184.5" font-family="Helvetica,sans-Serif" font-size="10.00">sg_image_content</text>
<polyline fill="none" stroke="black" points="233,-177.5 329,-177.5 "/>
<text text-anchor="middle" x="281" y="-165.5" font-family="Helvetica,sans-Serif" font-size="10.00"> </text>
<polyline fill="none" stroke="black" points="233,-158.5 329,-158.5 "/>
<text text-anchor="middle" x="281" y="-146.5" font-family="Helvetica,sans-Serif" font-size="10.00"> </text>
</a>
</g>
</g>
<!-- Node12&#45;&gt;Node1 -->
<g id="edge11" class="edge"><title>Node12&#45;&gt;Node1</title>
<path fill="none" stroke="#404040" d="M280.425,-139.269C281.461,-119.469 285.971,-93.3699 301,-76 318.105,-56.2309 344.606,-44.9369 368.544,-38.4945"/>
<polygon fill="none" stroke="#404040" points="368.736,-38.4481 373.628,-33.1498 380.4,-35.6272 375.508,-40.9256 368.736,-38.4481"/>
<text text-anchor="middle" x="322" y="-95.5" font-family="Helvetica,sans-Serif" font-size="10.00"> +content</text>
</g>
<!-- Node13&#45;&gt;Node12 -->
<g id="edge12" class="edge"><title>Node13&#45;&gt;Node12</title>
<path fill="none" stroke="#404040" d="M274.393,-300.304C275.669,-274.96 277.57,-237.175 279.006,-208.637"/>
<polygon fill="none" stroke="#404040" points="279.006,-208.629 275.313,-202.436 279.609,-196.645 283.302,-202.838 279.006,-208.629"/>
<text text-anchor="middle" x="305" y="-246.5" font-family="Helvetica,sans-Serif" font-size="10.00"> +subimage</text>
</g>
<!-- Node14 -->
<g id="node14" class="node"><title>Node14</title>
<polygon fill="none" stroke="#bfbfbf" points="815.5,-139.5 815.5,-196.5 868.5,-196.5 868.5,-139.5 815.5,-139.5"/>
<text text-anchor="middle" x="842" y="-184.5" font-family="Helvetica,sans-Serif" font-size="10.00">sg_wrap</text>
<polyline fill="none" stroke="#bfbfbf" points="815.5,-177.5 868.5,-177.5 "/>
<text text-anchor="middle" x="842" y="-165.5" font-family="Helvetica,sans-Serif" font-size="10.00"> </text>
<polyline fill="none" stroke="#bfbfbf" points="815.5,-158.5 868.5,-158.5 "/>
<text text-anchor="middle" x="842" y="-146.5" font-family="Helvetica,sans-Serif" font-size="10.00"> </text>
</g>
<!-- Node14&#45;&gt;Node1 -->
<g id="edge15" class="edge"><title>Node14&#45;&gt;Node1</title>
<path fill="none" stroke="#404040" d="M838.337,-139.405C834.04,-118.586 824.789,-91.1131 805,-76 754.88,-37.7222 570.877,-30.8852 477.757,-29.9328"/>
<polygon fill="none" stroke="#404040" points="477.514,-29.931 471.482,-33.8835 465.514,-29.8363 471.545,-25.8837 477.514,-29.931"/>
<text text-anchor="middle" x="854.5" y="-106.5" font-family="Helvetica,sans-Serif" font-size="10.00"> +wrap_u</text>
<text text-anchor="middle" x="854.5" y="-95.5" font-family="Helvetica,sans-Serif" font-size="10.00">+wrap_v</text>
<text text-anchor="middle" x="854.5" y="-84.5" font-family="Helvetica,sans-Serif" font-size="10.00">+wrap_w</text>
</g>
</g>
</svg>
        <g id="navigator" transform="translate(0 0)" fill="#404254">
                <rect fill="#f2f5e9" fill-opacity="0.5" stroke="#606060" stroke-width=".5" x="0" y="0" width="60" height="60"/>
                <use id="zoomplus" xlink:href="#zoomPlus" x="17" y="9" onmousedown="handleZoom(evt,'in')"/>
                <use id="zoomminus" xlink:href="#zoomMin" x="42" y="9" onmousedown="handleZoom(evt,'out')"/>
                <use id="reset" xlink:href="#resetDef" x="30" y="36" onmousedown="handleReset()"/>
                <g id="arrowUp" xlink:href="#dirArrow" transform="translate(30 24)" onmousedown="handlePan(0,-1)">
                  <use xlink:href="#rim" fill="#404040">
                        <set attributeName="fill" to="#808080" begin="arrowUp.mouseover" end="arrowUp.mouseout"/>
                  </use>
                  <path fill="none" stroke="white" stroke-width="1.5" d="M0,-3.0v7 M-2.5,-0.5L0,-3.0L2.5,-0.5"/>
                </g>
                <g id="arrowRight" xlink:href="#dirArrow" transform="rotate(90) translate(36 -43)" onmousedown="handlePan(1,0)">
                  <use xlink:href="#rim" fill="#404040">
                        <set attributeName="fill" to="#808080" begin="arrowRight.mouseover" end="arrowRight.mouseout"/>
                  </use>
                  <path fill="none" stroke="white" stroke-width="1.5" d="M0,-3.0v7 M-2.5,-0.5L0,-3.0L2.5,-0.5"/>
                </g>
                <g id="arrowDown" xlink:href="#dirArrow" transform="rotate(180) translate(-30 -48)" onmousedown="handlePan(0,1)">
                  <use xlink:href="#rim" fill="#404040">
                        <set attributeName="fill" to="#808080" begin="arrowDown.mouseover" end="arrowDown.mouseout"/>
                  </use>
                  <path fill="none" stroke="white" stroke-width="1.5" d="M0,-3.0v7 M-2.5,-0.5L0,-3.0L2.5,-0.5"/>
                </g>
                <g id="arrowLeft" xlink:href="#dirArrow" transform="rotate(270) translate(-36 17)" onmousedown="handlePan(-1,0)">
                  <use xlink:href="#rim" fill="#404040">
                        <set attributeName="fill" to="#808080" begin="arrowLeft.mouseover" end="arrowLeft.mouseout"/>
                  </use>
                  <path fill="none" stroke="white" stroke-width="1.5" d="M0,-3.0v7 M-2.5,-0.5L0,-3.0L2.5,-0.5"/>
                </g>
        </g>
        <svg viewBox="0 0 15 15" width="100%" height="30px" preserveAspectRatio="xMaxYMin meet">
         <g id="arrow_out" transform="scale(0.3 0.3)">
          <a xlink:href="structsg__image__desc__coll__graph_org.svg" target="_base">
           <rect id="button" ry="5" rx="5" y="6" x="6" height="38" width="38"
                fill="#f2f5e9" fill-opacity="0.5" stroke="#606060" stroke-width="1.0"/>
           <path id="arrow"
             d="M 11.500037,31.436501 C 11.940474,20.09759 22.043105,11.32322 32.158766,21.979434 L 37.068811,17.246167 C 37.068811,17.246167 37.088388,32 37.088388,32 L 22.160133,31.978069 C 22.160133,31.978069 26.997745,27.140456 26.997745,27.140456 C 18.528582,18.264221 13.291696,25.230495 11.500037,31.436501 z"
             style="fill:#404040;"/>
          </a>
         </g>
        </svg>
</svg>
