<?xml version="1.0" encoding="UTF-8" standalone="no"?>
<!DOCTYPE svg PUBLIC "-//W3C//DTD SVG 1.1//EN"
 "http://www.w3.org/Graphics/SVG/1.1/DTD/svg11.dtd">
<!-- Generated by graphviz version 2.36.0 (20140111.2315)
 -->
<!-- Title: /home/travis/build/AliceO2Group/AliceO2/Framework/Core/src/DataProcessingStatus.h Pages: 1 -->
<svg width="372pt" height="152pt"
 viewBox="0.00 0.00 372.00 152.00" xmlns="http://www.w3.org/2000/svg" xmlns:xlink="http://www.w3.org/1999/xlink">
<g id="graph0" class="graph" transform="scale(1 1) rotate(0) translate(4 148)">
<title>/home/travis/build/AliceO2Group/AliceO2/Framework/Core/src/DataProcessingStatus.h</title>
<!-- Node1 -->
<g id="node1" class="node"><title>Node1</title>
<polygon fill="#bfbfbf" stroke="black" points="95,-91 95,-143 277,-143 277,-91 95,-91"/>
<text text-anchor="start" x="103" y="-131" font-family="Helvetica,sans-Serif" font-size="10.00">/home/travis/build</text>
<text text-anchor="start" x="103" y="-120" font-family="Helvetica,sans-Serif" font-size="10.00">/AliceO2Group/AliceO2</text>
<text text-anchor="start" x="103" y="-109" font-family="Helvetica,sans-Serif" font-size="10.00">/Framework/Core/src/DataProcessing</text>
<text text-anchor="middle" x="186" y="-98" font-family="Helvetica,sans-Serif" font-size="10.00">Status.h</text>
</g>
<!-- Node2 -->
<g id="node2" class="node"><title>Node2</title>
<g id="a_node2"><a xlink:href="../../db/dac/DataProcessingDevice_8cxx.html" target="_top" xlink:title="/home/travis/build\l/AliceO2Group/AliceO2\l/Framework/Core/src/DataProcessing\lDevice.cxx">
<polygon fill="none" stroke="black" points="0,-1 0,-53 182,-53 182,-1 0,-1"/>
<text text-anchor="start" x="8" y="-41" font-family="Helvetica,sans-Serif" font-size="10.00">/home/travis/build</text>
<text text-anchor="start" x="8" y="-30" font-family="Helvetica,sans-Serif" font-size="10.00">/AliceO2Group/AliceO2</text>
<text text-anchor="start" x="8" y="-19" font-family="Helvetica,sans-Serif" font-size="10.00">/Framework/Core/src/DataProcessing</text>
<text text-anchor="middle" x="91" y="-8" font-family="Helvetica,sans-Serif" font-size="10.00">Device.cxx</text>
</a>
</g>
</g>
<!-- Node1&#45;&gt;Node2 -->
<g id="edge1" class="edge"><title>Node1&#45;&gt;Node2</title>
<path fill="none" stroke="midnightblue" d="M151.401,-83.9506C140.475,-73.8293 128.563,-62.795 118.227,-53.221"/>
<polygon fill="midnightblue" stroke="midnightblue" points="149.062,-86.5548 158.777,-90.7827 153.819,-81.4194 149.062,-86.5548"/>
</g>
<!-- Node3 -->
<g id="node3" class="node"><title>Node3</title>
<g id="a_node3"><a xlink:href="../../d0/d9f/DataSourceDevice_8cxx.html" target="_top" xlink:title="/home/travis/build\l/AliceO2Group/AliceO2\l/Framework/Core/src/DataSource\lDevice.cxx">
<polygon fill="none" stroke="black" points="200,-1 200,-53 364,-53 364,-1 200,-1"/>
<text text-anchor="start" x="208" y="-41" font-family="Helvetica,sans-Serif" font-size="10.00">/home/travis/build</text>
<text text-anchor="start" x="208" y="-30" font-family="Helvetica,sans-Serif" font-size="10.00">/AliceO2Group/AliceO2</text>
<text text-anchor="start" x="208" y="-19" font-family="Helvetica,sans-Serif" font-size="10.00">/Framework/Core/src/DataSource</text>
<text text-anchor="middle" x="282" y="-8" font-family="Helvetica,sans-Serif" font-size="10.00">Device.cxx</text>
</a>
</g>
</g>
<!-- Node1&#45;&gt;Node3 -->
<g id="edge2" class="edge"><title>Node1&#45;&gt;Node3</title>
<path fill="none" stroke="midnightblue" d="M220.963,-83.9506C232.004,-73.8293 244.042,-62.795 254.486,-53.221"/>
<polygon fill="midnightblue" stroke="midnightblue" points="218.516,-81.4454 213.51,-90.7827 223.246,-86.6055 218.516,-81.4454"/>
</g>
</g>
</svg>
