<?xml version="1.0" encoding="UTF-8" standalone="no"?>
<!DOCTYPE svg PUBLIC "-//W3C//DTD SVG 1.1//EN"
 "http://www.w3.org/Graphics/SVG/1.1/DTD/svg11.dtd">
<!-- Generated by graphviz version 2.36.0 (20140111.2315)
 -->
<!-- Title: FairTask Pages: 1 -->
<svg width="2135pt" height="314pt"
 viewBox="0.00 0.00 2135.00 314.00" xmlns="http://www.w3.org/2000/svg" xmlns:xlink="http://www.w3.org/1999/xlink">
<g id="graph0" class="graph" transform="scale(1 1) rotate(0) translate(4 310)">
<title>FairTask</title>
<!-- Node1 -->
<g id="node1" class="node"><title>Node1</title>
<polygon fill="#bfbfbf" stroke="black" points="1054.5,-248.5 1054.5,-305.5 1109.5,-305.5 1109.5,-248.5 1054.5,-248.5"/>
<text text-anchor="middle" x="1082" y="-293.5" font-family="Helvetica,sans-Serif" font-size="10.00">FairTask</text>
<polyline fill="none" stroke="black" points="1054.5,-286.5 1109.5,-286.5 "/>
<text text-anchor="middle" x="1082" y="-274.5" font-family="Helvetica,sans-Serif" font-size="10.00"> </text>
<polyline fill="none" stroke="black" points="1054.5,-267.5 1109.5,-267.5 "/>
<text text-anchor="middle" x="1082" y="-255.5" font-family="Helvetica,sans-Serif" font-size="10.00"> </text>
</g>
<!-- Node2 -->
<g id="node2" class="node"><title>Node2</title>
<g id="a_node2"><a xlink:href="../../de/d8a/classo2_1_1EMCAL_1_1DigitizerTask.html" target="_top" xlink:title="{o2::EMCAL::DigitizerTask\n||+ DigitizerTask()\l+ ~DigitizerTask()\l+ Init()\l+ Exec()\l+ FinishTask()\l+ getDigitizer()\l+ setFairTimeUnitInNS()\l+ getFairTimeUnitInNS()\l}">
<polygon fill="none" stroke="black" points="-0.5,-39 -0.5,-173 130.5,-173 130.5,-39 -0.5,-39"/>
<text text-anchor="middle" x="65" y="-161" font-family="Helvetica,sans-Serif" font-size="10.00">o2::EMCAL::DigitizerTask</text>
<polyline fill="none" stroke="black" points="-0.5,-154 130.5,-154 "/>
<text text-anchor="middle" x="65" y="-142" font-family="Helvetica,sans-Serif" font-size="10.00"> </text>
<polyline fill="none" stroke="black" points="-0.5,-135 130.5,-135 "/>
<text text-anchor="start" x="7.5" y="-123" font-family="Helvetica,sans-Serif" font-size="10.00">+ DigitizerTask()</text>
<text text-anchor="start" x="7.5" y="-112" font-family="Helvetica,sans-Serif" font-size="10.00">+ ~DigitizerTask()</text>
<text text-anchor="start" x="7.5" y="-101" font-family="Helvetica,sans-Serif" font-size="10.00">+ Init()</text>
<text text-anchor="start" x="7.5" y="-90" font-family="Helvetica,sans-Serif" font-size="10.00">+ Exec()</text>
<text text-anchor="start" x="7.5" y="-79" font-family="Helvetica,sans-Serif" font-size="10.00">+ FinishTask()</text>
<text text-anchor="start" x="7.5" y="-68" font-family="Helvetica,sans-Serif" font-size="10.00">+ getDigitizer()</text>
<text text-anchor="start" x="7.5" y="-57" font-family="Helvetica,sans-Serif" font-size="10.00">+ setFairTimeUnitInNS()</text>
<text text-anchor="start" x="7.5" y="-46" font-family="Helvetica,sans-Serif" font-size="10.00">+ getFairTimeUnitInNS()</text>
</a>
</g>
</g>
<!-- Node1&#45;&gt;Node2 -->
<g id="edge1" class="edge"><title>Node1&#45;&gt;Node2</title>
<path fill="none" stroke="midnightblue" d="M1043.78,-275.334C877.149,-272.172 218.86,-256.914 139,-212 122.672,-202.817 109.092,-188.355 98.2145,-173.068"/>
<polygon fill="none" stroke="midnightblue" points="1043.97,-278.838 1054.04,-275.525 1044.1,-271.839 1043.97,-278.838"/>
</g>
<!-- Node3 -->
<g id="node3" class="node"><title>Node3</title>
<g id="a_node3"><a xlink:href="../../de/d40/classo2_1_1fit_1_1DigitizerTask.html" target="_top" xlink:title="{o2::fit::DigitizerTask\n||+ DigitizerTask()\l+ ~DigitizerTask()\l+ Init()\l+ Exec()\l+ FinishTask()\l+ getDigitizer()\l+ setContinuous()\l+ isContinuous()\l+ setQEDInput()\l}">
<polygon fill="none" stroke="black" points="148.5,-33.5 148.5,-178.5 253.5,-178.5 253.5,-33.5 148.5,-33.5"/>
<text text-anchor="middle" x="201" y="-166.5" font-family="Helvetica,sans-Serif" font-size="10.00">o2::fit::DigitizerTask</text>
<polyline fill="none" stroke="black" points="148.5,-159.5 253.5,-159.5 "/>
<text text-anchor="middle" x="201" y="-147.5" font-family="Helvetica,sans-Serif" font-size="10.00"> </text>
<polyline fill="none" stroke="black" points="148.5,-140.5 253.5,-140.5 "/>
<text text-anchor="start" x="156.5" y="-128.5" font-family="Helvetica,sans-Serif" font-size="10.00">+ DigitizerTask()</text>
<text text-anchor="start" x="156.5" y="-117.5" font-family="Helvetica,sans-Serif" font-size="10.00">+ ~DigitizerTask()</text>
<text text-anchor="start" x="156.5" y="-106.5" font-family="Helvetica,sans-Serif" font-size="10.00">+ Init()</text>
<text text-anchor="start" x="156.5" y="-95.5" font-family="Helvetica,sans-Serif" font-size="10.00">+ Exec()</text>
<text text-anchor="start" x="156.5" y="-84.5" font-family="Helvetica,sans-Serif" font-size="10.00">+ FinishTask()</text>
<text text-anchor="start" x="156.5" y="-73.5" font-family="Helvetica,sans-Serif" font-size="10.00">+ getDigitizer()</text>
<text text-anchor="start" x="156.5" y="-62.5" font-family="Helvetica,sans-Serif" font-size="10.00">+ setContinuous()</text>
<text text-anchor="start" x="156.5" y="-51.5" font-family="Helvetica,sans-Serif" font-size="10.00">+ isContinuous()</text>
<text text-anchor="start" x="156.5" y="-40.5" font-family="Helvetica,sans-Serif" font-size="10.00">+ setQEDInput()</text>
</a>
</g>
</g>
<!-- Node1&#45;&gt;Node3 -->
<g id="edge2" class="edge"><title>Node1&#45;&gt;Node3</title>
<path fill="none" stroke="midnightblue" d="M1043.9,-275.074C891.377,-271.091 329.842,-253.693 263,-212 249.888,-203.821 239.212,-191.769 230.649,-178.717"/>
<polygon fill="none" stroke="midnightblue" points="1044.08,-278.579 1054.16,-275.338 1044.26,-271.582 1044.08,-278.579"/>
</g>
<!-- Node4 -->
<g id="node4" class="node"><title>Node4</title>
<g id="a_node4"><a xlink:href="../../db/df6/classo2_1_1ITS_1_1ClustererTask.html" target="_top" xlink:title="{o2::ITS::ClustererTask\n||+ ClustererTask()\l+ ~ClustererTask()\l+ Init()\l+ Exec()\l+ getClusterer()\l+ run()\l+ setSelfManagedMode()\l+ isSelfManagedMode()\l+ attachFairManagerIO()\l+ getReader()\l+ loadDictionary()\l}">
<polygon fill="none" stroke="black" points="272,-22.5 272,-189.5 398,-189.5 398,-22.5 272,-22.5"/>
<text text-anchor="middle" x="335" y="-177.5" font-family="Helvetica,sans-Serif" font-size="10.00">o2::ITS::ClustererTask</text>
<polyline fill="none" stroke="black" points="272,-170.5 398,-170.5 "/>
<text text-anchor="middle" x="335" y="-158.5" font-family="Helvetica,sans-Serif" font-size="10.00"> </text>
<polyline fill="none" stroke="black" points="272,-151.5 398,-151.5 "/>
<text text-anchor="start" x="280" y="-139.5" font-family="Helvetica,sans-Serif" font-size="10.00">+ ClustererTask()</text>
<text text-anchor="start" x="280" y="-128.5" font-family="Helvetica,sans-Serif" font-size="10.00">+ ~ClustererTask()</text>
<text text-anchor="start" x="280" y="-117.5" font-family="Helvetica,sans-Serif" font-size="10.00">+ Init()</text>
<text text-anchor="start" x="280" y="-106.5" font-family="Helvetica,sans-Serif" font-size="10.00">+ Exec()</text>
<text text-anchor="start" x="280" y="-95.5" font-family="Helvetica,sans-Serif" font-size="10.00">+ getClusterer()</text>
<text text-anchor="start" x="280" y="-84.5" font-family="Helvetica,sans-Serif" font-size="10.00">+ run()</text>
<text text-anchor="start" x="280" y="-73.5" font-family="Helvetica,sans-Serif" font-size="10.00">+ setSelfManagedMode()</text>
<text text-anchor="start" x="280" y="-62.5" font-family="Helvetica,sans-Serif" font-size="10.00">+ isSelfManagedMode()</text>
<text text-anchor="start" x="280" y="-51.5" font-family="Helvetica,sans-Serif" font-size="10.00">+ attachFairManagerIO()</text>
<text text-anchor="start" x="280" y="-40.5" font-family="Helvetica,sans-Serif" font-size="10.00">+ getReader()</text>
<text text-anchor="start" x="280" y="-29.5" font-family="Helvetica,sans-Serif" font-size="10.00">+ loadDictionary()</text>
</a>
</g>
</g>
<!-- Node1&#45;&gt;Node4 -->
<g id="edge3" class="edge"><title>Node1&#45;&gt;Node4</title>
<path fill="none" stroke="midnightblue" d="M1043.97,-276.542C917.972,-277.706 516.037,-276.198 407,-212 397.096,-206.168 388.244,-198.374 380.426,-189.654"/>
<polygon fill="none" stroke="midnightblue" points="1044.3,-280.038 1054.27,-276.435 1044.23,-273.039 1044.3,-280.038"/>
</g>
<!-- Node5 -->
<g id="node5" class="node"><title>Node5</title>
<g id="a_node5"><a xlink:href="../../d8/d68/classo2_1_1ITS_1_1CookedTrackerTask.html" target="_top" xlink:title="{o2::ITS::CookedTrackerTask\n||+ CookedTrackerTask()\l+ ~CookedTrackerTask()\l+ Init()\l+ Exec()\l+ setBz()\l+ setContinuousMode()\l+ getContinuousMode()\l+ getVertexer()\l}">
<polygon fill="none" stroke="black" points="416.5,-39 416.5,-173 559.5,-173 559.5,-39 416.5,-39"/>
<text text-anchor="middle" x="488" y="-161" font-family="Helvetica,sans-Serif" font-size="10.00">o2::ITS::CookedTrackerTask</text>
<polyline fill="none" stroke="black" points="416.5,-154 559.5,-154 "/>
<text text-anchor="middle" x="488" y="-142" font-family="Helvetica,sans-Serif" font-size="10.00"> </text>
<polyline fill="none" stroke="black" points="416.5,-135 559.5,-135 "/>
<text text-anchor="start" x="424.5" y="-123" font-family="Helvetica,sans-Serif" font-size="10.00">+ CookedTrackerTask()</text>
<text text-anchor="start" x="424.5" y="-112" font-family="Helvetica,sans-Serif" font-size="10.00">+ ~CookedTrackerTask()</text>
<text text-anchor="start" x="424.5" y="-101" font-family="Helvetica,sans-Serif" font-size="10.00">+ Init()</text>
<text text-anchor="start" x="424.5" y="-90" font-family="Helvetica,sans-Serif" font-size="10.00">+ Exec()</text>
<text text-anchor="start" x="424.5" y="-79" font-family="Helvetica,sans-Serif" font-size="10.00">+ setBz()</text>
<text text-anchor="start" x="424.5" y="-68" font-family="Helvetica,sans-Serif" font-size="10.00">+ setContinuousMode()</text>
<text text-anchor="start" x="424.5" y="-57" font-family="Helvetica,sans-Serif" font-size="10.00">+ getContinuousMode()</text>
<text text-anchor="start" x="424.5" y="-46" font-family="Helvetica,sans-Serif" font-size="10.00">+ getVertexer()</text>
</a>
</g>
</g>
<!-- Node1&#45;&gt;Node5 -->
<g id="edge4" class="edge"><title>Node1&#45;&gt;Node5</title>
<path fill="none" stroke="midnightblue" d="M1044.37,-275.049C940.026,-271.835 649.399,-258.801 568,-212 551.51,-202.519 537.303,-188.148 525.633,-173.056"/>
<polygon fill="none" stroke="midnightblue" points="1044.34,-278.55 1054.44,-275.346 1044.55,-271.553 1044.34,-278.55"/>
</g>
<!-- Node6 -->
<g id="node6" class="node"><title>Node6</title>
<g id="a_node6"><a xlink:href="../../de/d22/classo2_1_1ITS_1_1DigitizerTask.html" target="_top" xlink:title="{o2::ITS::DigitizerTask\n||+ DigitizerTask()\l+ ~DigitizerTask()\l+ Init()\l+ Exec()\l+ FinishTask()\l+ getDigitizer()\l+ getDigiParams()\l+ getDigiParams()\l+ setContinuous()\l+ isContinuous()\l+ setFairTimeUnitInNS()\l+ getFairTimeUnitInNS()\l+ setAlpideROFramLength()\l+ getAlpideROFramLength()\l+ setQEDInput()\l}">
<polygon fill="none" stroke="black" points="577.5,-0.5 577.5,-211.5 716.5,-211.5 716.5,-0.5 577.5,-0.5"/>
<text text-anchor="middle" x="647" y="-199.5" font-family="Helvetica,sans-Serif" font-size="10.00">o2::ITS::DigitizerTask</text>
<polyline fill="none" stroke="black" points="577.5,-192.5 716.5,-192.5 "/>
<text text-anchor="middle" x="647" y="-180.5" font-family="Helvetica,sans-Serif" font-size="10.00"> </text>
<polyline fill="none" stroke="black" points="577.5,-173.5 716.5,-173.5 "/>
<text text-anchor="start" x="585.5" y="-161.5" font-family="Helvetica,sans-Serif" font-size="10.00">+ DigitizerTask()</text>
<text text-anchor="start" x="585.5" y="-150.5" font-family="Helvetica,sans-Serif" font-size="10.00">+ ~DigitizerTask()</text>
<text text-anchor="start" x="585.5" y="-139.5" font-family="Helvetica,sans-Serif" font-size="10.00">+ Init()</text>
<text text-anchor="start" x="585.5" y="-128.5" font-family="Helvetica,sans-Serif" font-size="10.00">+ Exec()</text>
<text text-anchor="start" x="585.5" y="-117.5" font-family="Helvetica,sans-Serif" font-size="10.00">+ FinishTask()</text>
<text text-anchor="start" x="585.5" y="-106.5" font-family="Helvetica,sans-Serif" font-size="10.00">+ getDigitizer()</text>
<text text-anchor="start" x="585.5" y="-95.5" font-family="Helvetica,sans-Serif" font-size="10.00">+ getDigiParams()</text>
<text text-anchor="start" x="585.5" y="-84.5" font-family="Helvetica,sans-Serif" font-size="10.00">+ getDigiParams()</text>
<text text-anchor="start" x="585.5" y="-73.5" font-family="Helvetica,sans-Serif" font-size="10.00">+ setContinuous()</text>
<text text-anchor="start" x="585.5" y="-62.5" font-family="Helvetica,sans-Serif" font-size="10.00">+ isContinuous()</text>
<text text-anchor="start" x="585.5" y="-51.5" font-family="Helvetica,sans-Serif" font-size="10.00">+ setFairTimeUnitInNS()</text>
<text text-anchor="start" x="585.5" y="-40.5" font-family="Helvetica,sans-Serif" font-size="10.00">+ getFairTimeUnitInNS()</text>
<text text-anchor="start" x="585.5" y="-29.5" font-family="Helvetica,sans-Serif" font-size="10.00">+ setAlpideROFramLength()</text>
<text text-anchor="start" x="585.5" y="-18.5" font-family="Helvetica,sans-Serif" font-size="10.00">+ getAlpideROFramLength()</text>
<text text-anchor="start" x="585.5" y="-7.5" font-family="Helvetica,sans-Serif" font-size="10.00">+ setQEDInput()</text>
</a>
</g>
</g>
<!-- Node1&#45;&gt;Node6 -->
<g id="edge5" class="edge"><title>Node1&#45;&gt;Node6</title>
<path fill="none" stroke="midnightblue" d="M1044.2,-272.755C963.662,-265.281 778.149,-244.926 725,-212 722.104,-210.206 719.28,-208.262 716.529,-206.191"/>
<polygon fill="none" stroke="midnightblue" points="1044.12,-276.262 1054.39,-273.684 1044.75,-269.29 1044.12,-276.262"/>
</g>
<!-- Node7 -->
<g id="node7" class="node"><title>Node7</title>
<g id="a_node7"><a xlink:href="../../d6/df5/classo2_1_1ITS_1_1HitAnalysis.html" target="_top" xlink:title="{o2::ITS::HitAnalysis\n||+ HitAnalysis()\l+ ~HitAnalysis()\l+ Init()\l+ Exec()\l+ FinishTask()\l# ProcessHits()\l}">
<polygon fill="none" stroke="black" points="734.5,-50 734.5,-162 839.5,-162 839.5,-50 734.5,-50"/>
<text text-anchor="middle" x="787" y="-150" font-family="Helvetica,sans-Serif" font-size="10.00">o2::ITS::HitAnalysis</text>
<polyline fill="none" stroke="black" points="734.5,-143 839.5,-143 "/>
<text text-anchor="middle" x="787" y="-131" font-family="Helvetica,sans-Serif" font-size="10.00"> </text>
<polyline fill="none" stroke="black" points="734.5,-124 839.5,-124 "/>
<text text-anchor="start" x="742.5" y="-112" font-family="Helvetica,sans-Serif" font-size="10.00">+ HitAnalysis()</text>
<text text-anchor="start" x="742.5" y="-101" font-family="Helvetica,sans-Serif" font-size="10.00">+ ~HitAnalysis()</text>
<text text-anchor="start" x="742.5" y="-90" font-family="Helvetica,sans-Serif" font-size="10.00">+ Init()</text>
<text text-anchor="start" x="742.5" y="-79" font-family="Helvetica,sans-Serif" font-size="10.00">+ Exec()</text>
<text text-anchor="start" x="742.5" y="-68" font-family="Helvetica,sans-Serif" font-size="10.00">+ FinishTask()</text>
<text text-anchor="start" x="742.5" y="-57" font-family="Helvetica,sans-Serif" font-size="10.00"># ProcessHits()</text>
</a>
</g>
</g>
<!-- Node1&#45;&gt;Node7 -->
<g id="edge6" class="edge"><title>Node1&#45;&gt;Node7</title>
<path fill="none" stroke="midnightblue" d="M1044.13,-274.334C994.365,-270.354 906.435,-256.954 848,-212 831.29,-199.145 818.327,-180.312 808.733,-162.131"/>
<polygon fill="none" stroke="midnightblue" points="1043.92,-277.828 1054.15,-275.048 1044.42,-270.846 1043.92,-277.828"/>
</g>
<!-- Node8 -->
<g id="node8" class="node"><title>Node8</title>
<g id="a_node8"><a xlink:href="../../db/d78/classo2_1_1ITS_1_1TrivialClustererTask.html" target="_top" xlink:title="{o2::ITS::TrivialClustererTask\n||+ TrivialClustererTask()\l+ ~TrivialClustererTask()\l+ Init()\l+ Exec()\l}">
<polygon fill="none" stroke="black" points="857.5,-61 857.5,-151 1000.5,-151 1000.5,-61 857.5,-61"/>
<text text-anchor="middle" x="929" y="-139" font-family="Helvetica,sans-Serif" font-size="10.00">o2::ITS::TrivialClustererTask</text>
<polyline fill="none" stroke="black" points="857.5,-132 1000.5,-132 "/>
<text text-anchor="middle" x="929" y="-120" font-family="Helvetica,sans-Serif" font-size="10.00"> </text>
<polyline fill="none" stroke="black" points="857.5,-113 1000.5,-113 "/>
<text text-anchor="start" x="865.5" y="-101" font-family="Helvetica,sans-Serif" font-size="10.00">+ TrivialClustererTask()</text>
<text text-anchor="start" x="865.5" y="-90" font-family="Helvetica,sans-Serif" font-size="10.00">+ ~TrivialClustererTask()</text>
<text text-anchor="start" x="865.5" y="-79" font-family="Helvetica,sans-Serif" font-size="10.00">+ Init()</text>
<text text-anchor="start" x="865.5" y="-68" font-family="Helvetica,sans-Serif" font-size="10.00">+ Exec()</text>
</a>
</g>
</g>
<!-- Node1&#45;&gt;Node8 -->
<g id="edge7" class="edge"><title>Node1&#45;&gt;Node8</title>
<path fill="none" stroke="midnightblue" d="M1046.51,-246.793C1034.47,-236.282 1021.23,-224.039 1010,-212 992.333,-193.06 974.551,-170.488 960.167,-151.135"/>
<polygon fill="none" stroke="midnightblue" points="1044.36,-249.557 1054.22,-253.43 1048.93,-244.253 1044.36,-249.557"/>
</g>
<!-- Node9 -->
<g id="node9" class="node"><title>Node9</title>
<g id="a_node9"><a xlink:href="../../d7/d6d/classo2_1_1MFT_1_1ClustererTask.html" target="_top" xlink:title="{o2::MFT::ClustererTask\n||+ ClustererTask()\l+ ~ClustererTask()\l+ Init()\l+ Exec()\l+ getClusterer()\l+ run()\l+ setSelfManagedMode()\l+ isSelfManagedMode()\l+ attachFairManagerIO()\l+ getReader()\l}">
<polygon fill="none" stroke="black" points="1019,-28 1019,-184 1145,-184 1145,-28 1019,-28"/>
<text text-anchor="middle" x="1082" y="-172" font-family="Helvetica,sans-Serif" font-size="10.00">o2::MFT::ClustererTask</text>
<polyline fill="none" stroke="black" points="1019,-165 1145,-165 "/>
<text text-anchor="middle" x="1082" y="-153" font-family="Helvetica,sans-Serif" font-size="10.00"> </text>
<polyline fill="none" stroke="black" points="1019,-146 1145,-146 "/>
<text text-anchor="start" x="1027" y="-134" font-family="Helvetica,sans-Serif" font-size="10.00">+ ClustererTask()</text>
<text text-anchor="start" x="1027" y="-123" font-family="Helvetica,sans-Serif" font-size="10.00">+ ~ClustererTask()</text>
<text text-anchor="start" x="1027" y="-112" font-family="Helvetica,sans-Serif" font-size="10.00">+ Init()</text>
<text text-anchor="start" x="1027" y="-101" font-family="Helvetica,sans-Serif" font-size="10.00">+ Exec()</text>
<text text-anchor="start" x="1027" y="-90" font-family="Helvetica,sans-Serif" font-size="10.00">+ getClusterer()</text>
<text text-anchor="start" x="1027" y="-79" font-family="Helvetica,sans-Serif" font-size="10.00">+ run()</text>
<text text-anchor="start" x="1027" y="-68" font-family="Helvetica,sans-Serif" font-size="10.00">+ setSelfManagedMode()</text>
<text text-anchor="start" x="1027" y="-57" font-family="Helvetica,sans-Serif" font-size="10.00">+ isSelfManagedMode()</text>
<text text-anchor="start" x="1027" y="-46" font-family="Helvetica,sans-Serif" font-size="10.00">+ attachFairManagerIO()</text>
<text text-anchor="start" x="1027" y="-35" font-family="Helvetica,sans-Serif" font-size="10.00">+ getReader()</text>
</a>
</g>
</g>
<!-- Node1&#45;&gt;Node9 -->
<g id="edge8" class="edge"><title>Node1&#45;&gt;Node9</title>
<path fill="none" stroke="midnightblue" d="M1082,-238.436C1082,-222.378 1082,-203.008 1082,-184.132"/>
<polygon fill="none" stroke="midnightblue" points="1078.5,-238.471 1082,-248.471 1085.5,-238.471 1078.5,-238.471"/>
</g>
<!-- Node10 -->
<g id="node10" class="node"><title>Node10</title>
<g id="a_node10"><a xlink:href="../../d0/d22/classo2_1_1MFT_1_1DigitizerTask.html" target="_top" xlink:title="{o2::MFT::DigitizerTask\n||+ DigitizerTask()\l+ ~DigitizerTask()\l+ Init()\l+ Exec()\l+ FinishTask()\l+ getDigitizer()\l+ getDigiParams()\l+ getDigiParams()\l+ setContinuous()\l+ isContinuous()\l+ setFairTimeUnitInNS()\l+ getFairTimeUnitInNS()\l+ setAlpideROFramLength()\l+ getAlpideROFramLength()\l+ setQEDInput()\l}">
<polygon fill="none" stroke="black" points="1163.5,-0.5 1163.5,-211.5 1302.5,-211.5 1302.5,-0.5 1163.5,-0.5"/>
<text text-anchor="middle" x="1233" y="-199.5" font-family="Helvetica,sans-Serif" font-size="10.00">o2::MFT::DigitizerTask</text>
<polyline fill="none" stroke="black" points="1163.5,-192.5 1302.5,-192.5 "/>
<text text-anchor="middle" x="1233" y="-180.5" font-family="Helvetica,sans-Serif" font-size="10.00"> </text>
<polyline fill="none" stroke="black" points="1163.5,-173.5 1302.5,-173.5 "/>
<text text-anchor="start" x="1171.5" y="-161.5" font-family="Helvetica,sans-Serif" font-size="10.00">+ DigitizerTask()</text>
<text text-anchor="start" x="1171.5" y="-150.5" font-family="Helvetica,sans-Serif" font-size="10.00">+ ~DigitizerTask()</text>
<text text-anchor="start" x="1171.5" y="-139.5" font-family="Helvetica,sans-Serif" font-size="10.00">+ Init()</text>
<text text-anchor="start" x="1171.5" y="-128.5" font-family="Helvetica,sans-Serif" font-size="10.00">+ Exec()</text>
<text text-anchor="start" x="1171.5" y="-117.5" font-family="Helvetica,sans-Serif" font-size="10.00">+ FinishTask()</text>
<text text-anchor="start" x="1171.5" y="-106.5" font-family="Helvetica,sans-Serif" font-size="10.00">+ getDigitizer()</text>
<text text-anchor="start" x="1171.5" y="-95.5" font-family="Helvetica,sans-Serif" font-size="10.00">+ getDigiParams()</text>
<text text-anchor="start" x="1171.5" y="-84.5" font-family="Helvetica,sans-Serif" font-size="10.00">+ getDigiParams()</text>
<text text-anchor="start" x="1171.5" y="-73.5" font-family="Helvetica,sans-Serif" font-size="10.00">+ setContinuous()</text>
<text text-anchor="start" x="1171.5" y="-62.5" font-family="Helvetica,sans-Serif" font-size="10.00">+ isContinuous()</text>
<text text-anchor="start" x="1171.5" y="-51.5" font-family="Helvetica,sans-Serif" font-size="10.00">+ setFairTimeUnitInNS()</text>
<text text-anchor="start" x="1171.5" y="-40.5" font-family="Helvetica,sans-Serif" font-size="10.00">+ getFairTimeUnitInNS()</text>
<text text-anchor="start" x="1171.5" y="-29.5" font-family="Helvetica,sans-Serif" font-size="10.00">+ setAlpideROFramLength()</text>
<text text-anchor="start" x="1171.5" y="-18.5" font-family="Helvetica,sans-Serif" font-size="10.00">+ getAlpideROFramLength()</text>
<text text-anchor="start" x="1171.5" y="-7.5" font-family="Helvetica,sans-Serif" font-size="10.00">+ setQEDInput()</text>
</a>
</g>
</g>
<!-- Node1&#45;&gt;Node10 -->
<g id="edge9" class="edge"><title>Node1&#45;&gt;Node10</title>
<path fill="none" stroke="midnightblue" d="M1117.27,-247.132C1129.4,-236.57 1142.75,-224.207 1154,-212 1157.17,-208.561 1160.34,-204.999 1163.48,-201.357"/>
<polygon fill="none" stroke="midnightblue" points="1114.82,-244.624 1109.51,-253.793 1119.38,-249.936 1114.82,-244.624"/>
</g>
<!-- Node11 -->
<g id="node11" class="node"><title>Node11</title>
<g id="a_node11"><a xlink:href="../../dc/d5b/classo2_1_1MFT_1_1TrackerTask.html" target="_top" xlink:title="{o2::MFT::TrackerTask\n||+ TrackerTask()\l+ ~TrackerTask()\l+ Init()\l+ Exec()\l+ setContinuousMode()\l+ getContinuousMode()\l}">
<polygon fill="none" stroke="black" points="1320.5,-50 1320.5,-162 1439.5,-162 1439.5,-50 1320.5,-50"/>
<text text-anchor="middle" x="1380" y="-150" font-family="Helvetica,sans-Serif" font-size="10.00">o2::MFT::TrackerTask</text>
<polyline fill="none" stroke="black" points="1320.5,-143 1439.5,-143 "/>
<text text-anchor="middle" x="1380" y="-131" font-family="Helvetica,sans-Serif" font-size="10.00"> </text>
<polyline fill="none" stroke="black" points="1320.5,-124 1439.5,-124 "/>
<text text-anchor="start" x="1328.5" y="-112" font-family="Helvetica,sans-Serif" font-size="10.00">+ TrackerTask()</text>
<text text-anchor="start" x="1328.5" y="-101" font-family="Helvetica,sans-Serif" font-size="10.00">+ ~TrackerTask()</text>
<text text-anchor="start" x="1328.5" y="-90" font-family="Helvetica,sans-Serif" font-size="10.00">+ Init()</text>
<text text-anchor="start" x="1328.5" y="-79" font-family="Helvetica,sans-Serif" font-size="10.00">+ Exec()</text>
<text text-anchor="start" x="1328.5" y="-68" font-family="Helvetica,sans-Serif" font-size="10.00">+ setContinuousMode()</text>
<text text-anchor="start" x="1328.5" y="-57" font-family="Helvetica,sans-Serif" font-size="10.00">+ getContinuousMode()</text>
</a>
</g>
</g>
<!-- Node1&#45;&gt;Node11 -->
<g id="edge10" class="edge"><title>Node1&#45;&gt;Node11</title>
<path fill="none" stroke="midnightblue" d="M1119.79,-273.529C1168.3,-268.671 1253.09,-254.313 1311,-212 1328.61,-199.132 1342.99,-180.295 1353.98,-162.117"/>
<polygon fill="none" stroke="midnightblue" points="1119.36,-270.054 1109.72,-274.452 1120,-277.024 1119.36,-270.054"/>
</g>
<!-- Node12 -->
<g id="node12" class="node"><title>Node12</title>
<g id="a_node12"><a xlink:href="../../d1/df7/classo2_1_1phos_1_1ClustererTask.html" target="_top" xlink:title="{o2::phos::ClustererTask\n||+ ClustererTask()\l+ ~ClustererTask()\l+ Init()\l+ Exec()\l}">
<polygon fill="none" stroke="black" points="1458,-61 1458,-151 1580,-151 1580,-61 1458,-61"/>
<text text-anchor="middle" x="1519" y="-139" font-family="Helvetica,sans-Serif" font-size="10.00">o2::phos::ClustererTask</text>
<polyline fill="none" stroke="black" points="1458,-132 1580,-132 "/>
<text text-anchor="middle" x="1519" y="-120" font-family="Helvetica,sans-Serif" font-size="10.00"> </text>
<polyline fill="none" stroke="black" points="1458,-113 1580,-113 "/>
<text text-anchor="start" x="1466" y="-101" font-family="Helvetica,sans-Serif" font-size="10.00">+ ClustererTask()</text>
<text text-anchor="start" x="1466" y="-90" font-family="Helvetica,sans-Serif" font-size="10.00">+ ~ClustererTask()</text>
<text text-anchor="start" x="1466" y="-79" font-family="Helvetica,sans-Serif" font-size="10.00">+ Init()</text>
<text text-anchor="start" x="1466" y="-68" font-family="Helvetica,sans-Serif" font-size="10.00">+ Exec()</text>
</a>
</g>
</g>
<!-- Node1&#45;&gt;Node12 -->
<g id="edge11" class="edge"><title>Node1&#45;&gt;Node12</title>
<path fill="none" stroke="midnightblue" d="M1119.72,-273.135C1201.88,-266.307 1393.99,-246.976 1448,-212 1470.53,-197.407 1487.72,-172.876 1499.53,-151.194"/>
<polygon fill="none" stroke="midnightblue" points="1119.25,-269.661 1109.57,-273.961 1119.82,-276.638 1119.25,-269.661"/>
</g>
<!-- Node13 -->
<g id="node13" class="node"><title>Node13</title>
<g id="a_node13"><a xlink:href="../../d2/d40/classo2_1_1phos_1_1DigitizerTask.html" target="_top" xlink:title="{o2::phos::DigitizerTask\n||+ DigitizerTask()\l+ ~DigitizerTask()\l+ Init()\l+ Exec()\l+ FinishTask()\l+ getDigitizer()\l+ setFairTimeUnitInNS()\l+ getFairTimeUnitInNS()\l}">
<polygon fill="none" stroke="black" points="1598,-39 1598,-173 1722,-173 1722,-39 1598,-39"/>
<text text-anchor="middle" x="1660" y="-161" font-family="Helvetica,sans-Serif" font-size="10.00">o2::phos::DigitizerTask</text>
<polyline fill="none" stroke="black" points="1598,-154 1722,-154 "/>
<text text-anchor="middle" x="1660" y="-142" font-family="Helvetica,sans-Serif" font-size="10.00"> </text>
<polyline fill="none" stroke="black" points="1598,-135 1722,-135 "/>
<text text-anchor="start" x="1606" y="-123" font-family="Helvetica,sans-Serif" font-size="10.00">+ DigitizerTask()</text>
<text text-anchor="start" x="1606" y="-112" font-family="Helvetica,sans-Serif" font-size="10.00">+ ~DigitizerTask()</text>
<text text-anchor="start" x="1606" y="-101" font-family="Helvetica,sans-Serif" font-size="10.00">+ Init()</text>
<text text-anchor="start" x="1606" y="-90" font-family="Helvetica,sans-Serif" font-size="10.00">+ Exec()</text>
<text text-anchor="start" x="1606" y="-79" font-family="Helvetica,sans-Serif" font-size="10.00">+ FinishTask()</text>
<text text-anchor="start" x="1606" y="-68" font-family="Helvetica,sans-Serif" font-size="10.00">+ getDigitizer()</text>
<text text-anchor="start" x="1606" y="-57" font-family="Helvetica,sans-Serif" font-size="10.00">+ setFairTimeUnitInNS()</text>
<text text-anchor="start" x="1606" y="-46" font-family="Helvetica,sans-Serif" font-size="10.00">+ getFairTimeUnitInNS()</text>
</a>
</g>
</g>
<!-- Node1&#45;&gt;Node13 -->
<g id="edge12" class="edge"><title>Node1&#45;&gt;Node13</title>
<path fill="none" stroke="midnightblue" d="M1119.62,-275.211C1223.21,-272.43 1510.16,-260.434 1589,-212 1604.47,-202.497 1617.34,-188.214 1627.68,-173.219"/>
<polygon fill="none" stroke="midnightblue" points="1119.52,-271.713 1109.61,-275.466 1119.7,-278.71 1119.52,-271.713"/>
</g>
<!-- Node14 -->
<g id="node14" class="node"><title>Node14</title>
<g id="a_node14"><a xlink:href="../../d0/dc6/classo2_1_1tof_1_1ClustererTask.html" target="_top" xlink:title="{o2::tof::ClustererTask\n||+ ClustererTask()\l+ ~ClustererTask()\l+ Init()\l+ Exec()\l}">
<polygon fill="none" stroke="black" points="1740,-61 1740,-151 1852,-151 1852,-61 1740,-61"/>
<text text-anchor="middle" x="1796" y="-139" font-family="Helvetica,sans-Serif" font-size="10.00">o2::tof::ClustererTask</text>
<polyline fill="none" stroke="black" points="1740,-132 1852,-132 "/>
<text text-anchor="middle" x="1796" y="-120" font-family="Helvetica,sans-Serif" font-size="10.00"> </text>
<polyline fill="none" stroke="black" points="1740,-113 1852,-113 "/>
<text text-anchor="start" x="1748" y="-101" font-family="Helvetica,sans-Serif" font-size="10.00">+ ClustererTask()</text>
<text text-anchor="start" x="1748" y="-90" font-family="Helvetica,sans-Serif" font-size="10.00">+ ~ClustererTask()</text>
<text text-anchor="start" x="1748" y="-79" font-family="Helvetica,sans-Serif" font-size="10.00">+ Init()</text>
<text text-anchor="start" x="1748" y="-68" font-family="Helvetica,sans-Serif" font-size="10.00">+ Exec()</text>
</a>
</g>
</g>
<!-- Node1&#45;&gt;Node14 -->
<g id="edge13" class="edge"><title>Node1&#45;&gt;Node14</title>
<path fill="none" stroke="midnightblue" d="M1119.86,-276.532C1242.51,-277.609 1627.01,-275.717 1730,-212 1752.61,-198.01 1768.77,-173.081 1779.43,-151.024"/>
<polygon fill="none" stroke="midnightblue" points="1119.85,-273.032 1109.81,-276.432 1119.78,-280.032 1119.85,-273.032"/>
</g>
<!-- Node15 -->
<g id="node15" class="node"><title>Node15</title>
<g id="a_node15"><a xlink:href="../../d0/dad/classo2_1_1tof_1_1DigitizerTask.html" target="_top" xlink:title="{o2::tof::DigitizerTask\n||+ DigitizerTask()\l+ ~DigitizerTask()\l+ Init()\l+ Exec()\l+ FinishTask()\l+ getDigitizer()\l+ setContinuous()\l+ isContinuous()\l}">
<polygon fill="none" stroke="black" points="1870,-39 1870,-173 1978,-173 1978,-39 1870,-39"/>
<text text-anchor="middle" x="1924" y="-161" font-family="Helvetica,sans-Serif" font-size="10.00">o2::tof::DigitizerTask</text>
<polyline fill="none" stroke="black" points="1870,-154 1978,-154 "/>
<text text-anchor="middle" x="1924" y="-142" font-family="Helvetica,sans-Serif" font-size="10.00"> </text>
<polyline fill="none" stroke="black" points="1870,-135 1978,-135 "/>
<text text-anchor="start" x="1878" y="-123" font-family="Helvetica,sans-Serif" font-size="10.00">+ DigitizerTask()</text>
<text text-anchor="start" x="1878" y="-112" font-family="Helvetica,sans-Serif" font-size="10.00">+ ~DigitizerTask()</text>
<text text-anchor="start" x="1878" y="-101" font-family="Helvetica,sans-Serif" font-size="10.00">+ Init()</text>
<text text-anchor="start" x="1878" y="-90" font-family="Helvetica,sans-Serif" font-size="10.00">+ Exec()</text>
<text text-anchor="start" x="1878" y="-79" font-family="Helvetica,sans-Serif" font-size="10.00">+ FinishTask()</text>
<text text-anchor="start" x="1878" y="-68" font-family="Helvetica,sans-Serif" font-size="10.00">+ getDigitizer()</text>
<text text-anchor="start" x="1878" y="-57" font-family="Helvetica,sans-Serif" font-size="10.00">+ setContinuous()</text>
<text text-anchor="start" x="1878" y="-46" font-family="Helvetica,sans-Serif" font-size="10.00">+ isContinuous()</text>
</a>
</g>
</g>
<!-- Node1&#45;&gt;Node15 -->
<g id="edge14" class="edge"><title>Node1&#45;&gt;Node15</title>
<path fill="none" stroke="midnightblue" d="M1120.08,-274.88C1267.61,-270.271 1796.56,-251.134 1860,-212 1875.17,-202.641 1887.25,-188.216 1896.65,-173.027"/>
<polygon fill="none" stroke="midnightblue" points="1119.62,-271.393 1109.73,-275.199 1119.83,-278.39 1119.62,-271.393"/>
</g>
<!-- Node16 -->
<g id="node16" class="node"><title>Node16</title>
<g id="a_node16"><a xlink:href="../../db/df7/classo2_1_1TPC_1_1ClustererTask.html" target="_top" xlink:title="{o2::TPC::ClustererTask\n||+ ClustererTask()\l+ ~ClustererTask()\l+ Init()\l+ Exec()\l+ FinishTask()\l+ setContinuousReadout()\l}">
<polygon fill="none" stroke="black" points="1996.5,-50 1996.5,-162 2127.5,-162 2127.5,-50 1996.5,-50"/>
<text text-anchor="middle" x="2062" y="-150" font-family="Helvetica,sans-Serif" font-size="10.00">o2::TPC::ClustererTask</text>
<polyline fill="none" stroke="black" points="1996.5,-143 2127.5,-143 "/>
<text text-anchor="middle" x="2062" y="-131" font-family="Helvetica,sans-Serif" font-size="10.00"> </text>
<polyline fill="none" stroke="black" points="1996.5,-124 2127.5,-124 "/>
<text text-anchor="start" x="2004.5" y="-112" font-family="Helvetica,sans-Serif" font-size="10.00">+ ClustererTask()</text>
<text text-anchor="start" x="2004.5" y="-101" font-family="Helvetica,sans-Serif" font-size="10.00">+ ~ClustererTask()</text>
<text text-anchor="start" x="2004.5" y="-90" font-family="Helvetica,sans-Serif" font-size="10.00">+ Init()</text>
<text text-anchor="start" x="2004.5" y="-79" font-family="Helvetica,sans-Serif" font-size="10.00">+ Exec()</text>
<text text-anchor="start" x="2004.5" y="-68" font-family="Helvetica,sans-Serif" font-size="10.00">+ FinishTask()</text>
<text text-anchor="start" x="2004.5" y="-57" font-family="Helvetica,sans-Serif" font-size="10.00">+ setContinuousReadout()</text>
</a>
</g>
</g>
<!-- Node1&#45;&gt;Node16 -->
<g id="edge15" class="edge"><title>Node1&#45;&gt;Node16</title>
<path fill="none" stroke="midnightblue" d="M1120.21,-275.205C1282.59,-271.572 1910.51,-254.841 1987,-212 2007.33,-200.615 2023.52,-181.151 2035.57,-162.051"/>
<polygon fill="none" stroke="midnightblue" points="1119.69,-271.716 1109.77,-275.435 1119.85,-278.714 1119.69,-271.716"/>
</g>
</g>
</svg>
