<?xml version="1.0" encoding="UTF-8" standalone="no"?>
<!DOCTYPE svg PUBLIC "-//W3C//DTD SVG 1.1//EN"
 "http://www.w3.org/Graphics/SVG/1.1/DTD/svg11.dtd">
<!-- Generated by graphviz version 2.36.0 (20140111.2315)
 -->
<!-- Title: o2::conf::ConfigurableParam Pages: 1 -->
<!--zoomable 794 -->
<svg id="main" version="1.1" xmlns="http://www.w3.org/2000/svg" xmlns:xlink="http://www.w3.org/1999/xlink" xml:space="preserve" onload="init(evt)">
<style type="text/css"><![CDATA[
.edge:hover path { stroke: red; }
.edge:hover polygon { stroke: red; fill: red; }
]]></style>
<script type="text/javascript"><![CDATA[
var edges = document.getElementsByTagName('g');
if (edges && edges.length) {
  for (var i=0;i<edges.length;i++) {
    if (edges[i].id.substr(0,4)=='edge') {
      edges[i].setAttribute('class','edge');
    }
  }
}
]]></script>
        <defs>
                <circle id="rim" cx="0" cy="0" r="7"/>
                <circle id="rim2" cx="0" cy="0" r="3.5"/>
                <g id="zoomPlus">
                        <use xlink:href="#rim" fill="#404040">
                                <set attributeName="fill" to="#808080" begin="zoomplus.mouseover" end="zoomplus.mouseout"/>
                        </use>
                        <path d="M-4,0h8M0,-4v8" fill="none" stroke="white" stroke-width="1.5" pointer-events="none"/>
                </g>
                <g id="zoomMin">
                        <use xlink:href="#rim" fill="#404040">
                                <set attributeName="fill" to="#808080" begin="zoomminus.mouseover" end="zoomminus.mouseout"/>
                        </use>
                        <path d="M-4,0h8" fill="none" stroke="white" stroke-width="1.5" pointer-events="none"/>
                </g>
                <g id="dirArrow">
                        <path fill="none" stroke="white" stroke-width="1.5" d="M0,-3.0v7 M-2.5,-0.5L0,-3.0L2.5,-0.5"/>
                </g>
               <g id="resetDef">
                       <use xlink:href="#rim2" fill="#404040">
                               <set attributeName="fill" to="#808080" begin="reset.mouseover" end="reset.mouseout"/>
                       </use>
               </g>
        </defs>

<script type="text/javascript">
var viewWidth = 830;
var viewHeight = 794;
var sectionId = 'dynsection-0';
</script>
<script xlink:href="../../svgpan.js"/>
<svg id="graph" class="graph">
<g id="viewport">
<title>o2::conf::ConfigurableParam</title>
<!-- Node1 -->
<g id="node1" class="node"><title>Node1</title>
<polygon fill="#bfbfbf" stroke="black" points="458.5,-464.5 458.5,-785.5 627.5,-785.5 627.5,-464.5 458.5,-464.5"/>
<text text-anchor="middle" x="543" y="-773.5" font-family="Helvetica,sans-Serif" font-size="10.00">o2::conf::ConfigurableParam</text>
<polyline fill="none" stroke="black" points="458.5,-766.5 627.5,-766.5 "/>
<text text-anchor="start" x="466.5" y="-754.5" font-family="Helvetica,sans-Serif" font-size="10.00"># sKeyToStorageMap</text>
<text text-anchor="start" x="466.5" y="-743.5" font-family="Helvetica,sans-Serif" font-size="10.00"># sValueProvenanceMap</text>
<polyline fill="none" stroke="black" points="458.5,-736.5 627.5,-736.5 "/>
<text text-anchor="start" x="466.5" y="-724.5" font-family="Helvetica,sans-Serif" font-size="10.00">+ getName()</text>
<text text-anchor="start" x="466.5" y="-713.5" font-family="Helvetica,sans-Serif" font-size="10.00">+ printKeyValues()</text>
<text text-anchor="start" x="466.5" y="-702.5" font-family="Helvetica,sans-Serif" font-size="10.00">+ toString()</text>
<text text-anchor="start" x="466.5" y="-691.5" font-family="Helvetica,sans-Serif" font-size="10.00">+ printAllRegisteredParamNames()</text>
<text text-anchor="start" x="466.5" y="-680.5" font-family="Helvetica,sans-Serif" font-size="10.00">+ printAllKeyValuePairs()</text>
<text text-anchor="start" x="466.5" y="-669.5" font-family="Helvetica,sans-Serif" font-size="10.00">+ writeJSON()</text>
<text text-anchor="start" x="466.5" y="-658.5" font-family="Helvetica,sans-Serif" font-size="10.00">+ writeINI()</text>
<text text-anchor="start" x="466.5" y="-647.5" font-family="Helvetica,sans-Serif" font-size="10.00">+ getValueAs()</text>
<text text-anchor="start" x="466.5" y="-636.5" font-family="Helvetica,sans-Serif" font-size="10.00">+ setValue()</text>
<text text-anchor="start" x="466.5" y="-625.5" font-family="Helvetica,sans-Serif" font-size="10.00">+ setValue()</text>
<text text-anchor="start" x="466.5" y="-614.5" font-family="Helvetica,sans-Serif" font-size="10.00">+ initialize()</text>
<text text-anchor="start" x="466.5" y="-603.5" font-family="Helvetica,sans-Serif" font-size="10.00">+ toCCDB()</text>
<text text-anchor="start" x="466.5" y="-592.5" font-family="Helvetica,sans-Serif" font-size="10.00">+ fromCCDB()</text>
<text text-anchor="start" x="466.5" y="-581.5" font-family="Helvetica,sans-Serif" font-size="10.00">+ updateFromString()</text>
<text text-anchor="start" x="466.5" y="-570.5" font-family="Helvetica,sans-Serif" font-size="10.00"># ConfigurableParam()</text>
<text text-anchor="start" x="466.5" y="-559.5" font-family="Helvetica,sans-Serif" font-size="10.00"># ~ConfigurableParam()</text>
<text text-anchor="start" x="466.5" y="-548.5" font-family="Helvetica,sans-Serif" font-size="10.00"># putKeyValues()</text>
<text text-anchor="start" x="466.5" y="-537.5" font-family="Helvetica,sans-Serif" font-size="10.00"># serializeTo()</text>
<text text-anchor="start" x="466.5" y="-526.5" font-family="Helvetica,sans-Serif" font-size="10.00"># initFrom()</text>
<text text-anchor="start" x="466.5" y="-515.5" font-family="Helvetica,sans-Serif" font-size="10.00"># setRegisterMode()</text>
<text text-anchor="start" x="466.5" y="-504.5" font-family="Helvetica,sans-Serif" font-size="10.00"># initPropertyTree()</text>
<text text-anchor="start" x="466.5" y="-493.5" font-family="Helvetica,sans-Serif" font-size="10.00"># updateThroughStorageMap()</text>
<text text-anchor="start" x="466.5" y="-482.5" font-family="Helvetica,sans-Serif" font-size="10.00"># updateThroughStorageMapWith</text>
<text text-anchor="start" x="466.5" y="-471.5" font-family="Helvetica,sans-Serif" font-size="10.00">Conversion()</text>
</g>
<!-- Node2 -->
<g id="node2" class="node"><title>Node2</title>
<g id="a_node2"><a xlink:href="../../d7/d50/classo2_1_1conf_1_1ConfigurableParamHelper.html" target="_top" xlink:title="{o2::conf::ConfigurableParam\lHelper\&lt; BazParam \&gt;\n||+ getName()\l+ printKeyValues()\l+ putKeyValues()\l+ initFrom()\l+ serializeTo()\l+ Instance()\l}">
<polygon fill="none" stroke="black" points="163.5,-130.5 163.5,-253.5 304.5,-253.5 304.5,-130.5 163.5,-130.5"/>
<text text-anchor="start" x="171.5" y="-241.5" font-family="Helvetica,sans-Serif" font-size="10.00">o2::conf::ConfigurableParam</text>
<text text-anchor="middle" x="234" y="-230.5" font-family="Helvetica,sans-Serif" font-size="10.00">Helper&lt; BazParam &gt;</text>
<polyline fill="none" stroke="black" points="163.5,-223.5 304.5,-223.5 "/>
<text text-anchor="middle" x="234" y="-211.5" font-family="Helvetica,sans-Serif" font-size="10.00"> </text>
<polyline fill="none" stroke="black" points="163.5,-204.5 304.5,-204.5 "/>
<text text-anchor="start" x="171.5" y="-192.5" font-family="Helvetica,sans-Serif" font-size="10.00">+ getName()</text>
<text text-anchor="start" x="171.5" y="-181.5" font-family="Helvetica,sans-Serif" font-size="10.00">+ printKeyValues()</text>
<text text-anchor="start" x="171.5" y="-170.5" font-family="Helvetica,sans-Serif" font-size="10.00">+ putKeyValues()</text>
<text text-anchor="start" x="171.5" y="-159.5" font-family="Helvetica,sans-Serif" font-size="10.00">+ initFrom()</text>
<text text-anchor="start" x="171.5" y="-148.5" font-family="Helvetica,sans-Serif" font-size="10.00">+ serializeTo()</text>
<text text-anchor="start" x="171.5" y="-137.5" font-family="Helvetica,sans-Serif" font-size="10.00">+ Instance()</text>
</a>
</g>
</g>
<!-- Node1&#45;&gt;Node2 -->
<g id="edge1" class="edge"><title>Node1&#45;&gt;Node2</title>
<path fill="none" stroke="midnightblue" d="M449.567,-578.623C350.555,-524.413 200.815,-423.261 144,-284 141.985,-279.062 141.8,-276.858 144,-272 148.717,-261.583 155.561,-251.996 163.401,-243.363"/>
<polygon fill="none" stroke="midnightblue" points="447.93,-581.716 458.389,-583.402 451.264,-575.561 447.93,-581.716"/>
</g>
<!-- Node4 -->
<g id="node4" class="node"><title>Node4</title>
<g id="a_node4"><a xlink:href="../../d7/d50/classo2_1_1conf_1_1ConfigurableParamHelper.html" target="_top" xlink:title="{o2::conf::ConfigurableParam\lHelper\&lt; HallSimParam \&gt;\n||+ getName()\l+ printKeyValues()\l+ putKeyValues()\l+ initFrom()\l+ serializeTo()\l+ Instance()\l}">
<polygon fill="none" stroke="black" points="-0.5,-130.5 -0.5,-253.5 140.5,-253.5 140.5,-130.5 -0.5,-130.5"/>
<text text-anchor="start" x="7.5" y="-241.5" font-family="Helvetica,sans-Serif" font-size="10.00">o2::conf::ConfigurableParam</text>
<text text-anchor="middle" x="70" y="-230.5" font-family="Helvetica,sans-Serif" font-size="10.00">Helper&lt; HallSimParam &gt;</text>
<polyline fill="none" stroke="black" points="-0.5,-223.5 140.5,-223.5 "/>
<text text-anchor="middle" x="70" y="-211.5" font-family="Helvetica,sans-Serif" font-size="10.00"> </text>
<polyline fill="none" stroke="black" points="-0.5,-204.5 140.5,-204.5 "/>
<text text-anchor="start" x="7.5" y="-192.5" font-family="Helvetica,sans-Serif" font-size="10.00">+ getName()</text>
<text text-anchor="start" x="7.5" y="-181.5" font-family="Helvetica,sans-Serif" font-size="10.00">+ printKeyValues()</text>
<text text-anchor="start" x="7.5" y="-170.5" font-family="Helvetica,sans-Serif" font-size="10.00">+ putKeyValues()</text>
<text text-anchor="start" x="7.5" y="-159.5" font-family="Helvetica,sans-Serif" font-size="10.00">+ initFrom()</text>
<text text-anchor="start" x="7.5" y="-148.5" font-family="Helvetica,sans-Serif" font-size="10.00">+ serializeTo()</text>
<text text-anchor="start" x="7.5" y="-137.5" font-family="Helvetica,sans-Serif" font-size="10.00">+ Instance()</text>
</a>
</g>
</g>
<!-- Node1&#45;&gt;Node4 -->
<g id="edge3" class="edge"><title>Node1&#45;&gt;Node4</title>
<path fill="none" stroke="midnightblue" d="M448.519,-598.937C359.786,-570.781 229.156,-516.722 150,-426 107.471,-377.257 87.2705,-304.778 77.8598,-253.624"/>
<polygon fill="none" stroke="midnightblue" points="447.728,-602.357 458.317,-601.995 449.813,-595.675 447.728,-602.357"/>
</g>
<!-- Node6 -->
<g id="node6" class="node"><title>Node6</title>
<g id="a_node6"><a xlink:href="../../d7/d50/classo2_1_1conf_1_1ConfigurableParamHelper.html" target="_top" xlink:title="{o2::conf::ConfigurableParam\lHelper\&lt; InteractionDiamondParam \&gt;\n||+ getName()\l+ printKeyValues()\l+ putKeyValues()\l+ initFrom()\l+ serializeTo()\l+ Instance()\l}">
<polygon fill="none" stroke="black" points="325,-130.5 325,-253.5 501,-253.5 501,-130.5 325,-130.5"/>
<text text-anchor="start" x="333" y="-241.5" font-family="Helvetica,sans-Serif" font-size="10.00">o2::conf::ConfigurableParam</text>
<text text-anchor="middle" x="413" y="-230.5" font-family="Helvetica,sans-Serif" font-size="10.00">Helper&lt; InteractionDiamondParam &gt;</text>
<polyline fill="none" stroke="black" points="325,-223.5 501,-223.5 "/>
<text text-anchor="middle" x="413" y="-211.5" font-family="Helvetica,sans-Serif" font-size="10.00"> </text>
<polyline fill="none" stroke="black" points="325,-204.5 501,-204.5 "/>
<text text-anchor="start" x="333" y="-192.5" font-family="Helvetica,sans-Serif" font-size="10.00">+ getName()</text>
<text text-anchor="start" x="333" y="-181.5" font-family="Helvetica,sans-Serif" font-size="10.00">+ printKeyValues()</text>
<text text-anchor="start" x="333" y="-170.5" font-family="Helvetica,sans-Serif" font-size="10.00">+ putKeyValues()</text>
<text text-anchor="start" x="333" y="-159.5" font-family="Helvetica,sans-Serif" font-size="10.00">+ initFrom()</text>
<text text-anchor="start" x="333" y="-148.5" font-family="Helvetica,sans-Serif" font-size="10.00">+ serializeTo()</text>
<text text-anchor="start" x="333" y="-137.5" font-family="Helvetica,sans-Serif" font-size="10.00">+ Instance()</text>
</a>
</g>
</g>
<!-- Node1&#45;&gt;Node6 -->
<g id="edge5" class="edge"><title>Node1&#45;&gt;Node6</title>
<path fill="none" stroke="midnightblue" d="M595.591,-454.135C604.58,-391.784 601.145,-323.844 564,-272 549.511,-251.778 533.485,-264.643 511,-254 507.739,-252.457 504.453,-250.829 501.16,-249.136"/>
<polygon fill="none" stroke="midnightblue" points="592.121,-453.672 594.045,-464.091 599.038,-454.746 592.121,-453.672"/>
</g>
<!-- Node8 -->
<g id="node8" class="node"><title>Node8</title>
<g id="a_node8"><a xlink:href="../../d7/d50/classo2_1_1conf_1_1ConfigurableParamHelper.html" target="_top" xlink:title="{o2::conf::ConfigurableParam\lHelper\&lt; SimCutParams \&gt;\n||+ getName()\l+ printKeyValues()\l+ putKeyValues()\l+ initFrom()\l+ serializeTo()\l+ Instance()\l}">
<polygon fill="none" stroke="black" points="680.5,-130.5 680.5,-253.5 821.5,-253.5 821.5,-130.5 680.5,-130.5"/>
<text text-anchor="start" x="688.5" y="-241.5" font-family="Helvetica,sans-Serif" font-size="10.00">o2::conf::ConfigurableParam</text>
<text text-anchor="middle" x="751" y="-230.5" font-family="Helvetica,sans-Serif" font-size="10.00">Helper&lt; SimCutParams &gt;</text>
<polyline fill="none" stroke="black" points="680.5,-223.5 821.5,-223.5 "/>
<text text-anchor="middle" x="751" y="-211.5" font-family="Helvetica,sans-Serif" font-size="10.00"> </text>
<polyline fill="none" stroke="black" points="680.5,-204.5 821.5,-204.5 "/>
<text text-anchor="start" x="688.5" y="-192.5" font-family="Helvetica,sans-Serif" font-size="10.00">+ getName()</text>
<text text-anchor="start" x="688.5" y="-181.5" font-family="Helvetica,sans-Serif" font-size="10.00">+ printKeyValues()</text>
<text text-anchor="start" x="688.5" y="-170.5" font-family="Helvetica,sans-Serif" font-size="10.00">+ putKeyValues()</text>
<text text-anchor="start" x="688.5" y="-159.5" font-family="Helvetica,sans-Serif" font-size="10.00">+ initFrom()</text>
<text text-anchor="start" x="688.5" y="-148.5" font-family="Helvetica,sans-Serif" font-size="10.00">+ serializeTo()</text>
<text text-anchor="start" x="688.5" y="-137.5" font-family="Helvetica,sans-Serif" font-size="10.00">+ Instance()</text>
</a>
</g>
</g>
<!-- Node1&#45;&gt;Node8 -->
<g id="edge7" class="edge"><title>Node1&#45;&gt;Node8</title>
<path fill="none" stroke="midnightblue" d="M633.531,-515.344C653.601,-487.474 673.258,-456.669 688,-426 714.687,-370.482 731.498,-301.897 740.976,-253.557"/>
<polygon fill="none" stroke="midnightblue" points="630.642,-513.366 627.58,-523.508 636.299,-517.489 630.642,-513.366"/>
</g>
<!-- Node10 -->
<g id="node10" class="node"><title>Node10</title>
<g id="a_node10"><a xlink:href="../../d7/d50/classo2_1_1conf_1_1ConfigurableParamHelper.html" target="_top" xlink:title="{o2::conf::ConfigurableParam\lHelper\&lt; StackParam \&gt;\n||+ getName()\l+ printKeyValues()\l+ putKeyValues()\l+ initFrom()\l+ serializeTo()\l+ Instance()\l}">
<polygon fill="none" stroke="black" points="520.5,-130.5 520.5,-253.5 661.5,-253.5 661.5,-130.5 520.5,-130.5"/>
<text text-anchor="start" x="528.5" y="-241.5" font-family="Helvetica,sans-Serif" font-size="10.00">o2::conf::ConfigurableParam</text>
<text text-anchor="middle" x="591" y="-230.5" font-family="Helvetica,sans-Serif" font-size="10.00">Helper&lt; StackParam &gt;</text>
<polyline fill="none" stroke="black" points="520.5,-223.5 661.5,-223.5 "/>
<text text-anchor="middle" x="591" y="-211.5" font-family="Helvetica,sans-Serif" font-size="10.00"> </text>
<polyline fill="none" stroke="black" points="520.5,-204.5 661.5,-204.5 "/>
<text text-anchor="start" x="528.5" y="-192.5" font-family="Helvetica,sans-Serif" font-size="10.00">+ getName()</text>
<text text-anchor="start" x="528.5" y="-181.5" font-family="Helvetica,sans-Serif" font-size="10.00">+ printKeyValues()</text>
<text text-anchor="start" x="528.5" y="-170.5" font-family="Helvetica,sans-Serif" font-size="10.00">+ putKeyValues()</text>
<text text-anchor="start" x="528.5" y="-159.5" font-family="Helvetica,sans-Serif" font-size="10.00">+ initFrom()</text>
<text text-anchor="start" x="528.5" y="-148.5" font-family="Helvetica,sans-Serif" font-size="10.00">+ serializeTo()</text>
<text text-anchor="start" x="528.5" y="-137.5" font-family="Helvetica,sans-Serif" font-size="10.00">+ Instance()</text>
</a>
</g>
</g>
<!-- Node1&#45;&gt;Node10 -->
<g id="edge9" class="edge"><title>Node1&#45;&gt;Node10</title>
<path fill="none" stroke="midnightblue" d="M632.143,-468.132C659.582,-411.944 686.187,-346.86 700,-284 701.145,-278.791 702.593,-276.661 700,-272 692.626,-258.743 683.49,-262.609 671,-254 667.98,-251.918 664.917,-249.768 661.839,-247.574"/>
<polygon fill="none" stroke="midnightblue" points="628.841,-466.915 627.555,-477.432 635.118,-470.013 628.841,-466.915"/>
</g>
<!-- Node12 -->
<g id="node12" class="node"><title>Node12</title>
<g id="a_node12"><a xlink:href="../../d7/d50/classo2_1_1conf_1_1ConfigurableParamHelper.html" target="_top" xlink:title="{o2::conf::ConfigurableParam\lHelper\&lt; P \&gt;\n||+ getName()\l+ printKeyValues()\l+ putKeyValues()\l+ initFrom()\l+ serializeTo()\l+ Instance()\l}">
<polygon fill="none" stroke="black" points="292.5,-302.5 292.5,-425.5 433.5,-425.5 433.5,-302.5 292.5,-302.5"/>
<text text-anchor="start" x="300.5" y="-413.5" font-family="Helvetica,sans-Serif" font-size="10.00">o2::conf::ConfigurableParam</text>
<text text-anchor="middle" x="363" y="-402.5" font-family="Helvetica,sans-Serif" font-size="10.00">Helper&lt; P &gt;</text>
<polyline fill="none" stroke="black" points="292.5,-395.5 433.5,-395.5 "/>
<text text-anchor="middle" x="363" y="-383.5" font-family="Helvetica,sans-Serif" font-size="10.00"> </text>
<polyline fill="none" stroke="black" points="292.5,-376.5 433.5,-376.5 "/>
<text text-anchor="start" x="300.5" y="-364.5" font-family="Helvetica,sans-Serif" font-size="10.00">+ getName()</text>
<text text-anchor="start" x="300.5" y="-353.5" font-family="Helvetica,sans-Serif" font-size="10.00">+ printKeyValues()</text>
<text text-anchor="start" x="300.5" y="-342.5" font-family="Helvetica,sans-Serif" font-size="10.00">+ putKeyValues()</text>
<text text-anchor="start" x="300.5" y="-331.5" font-family="Helvetica,sans-Serif" font-size="10.00">+ initFrom()</text>
<text text-anchor="start" x="300.5" y="-320.5" font-family="Helvetica,sans-Serif" font-size="10.00">+ serializeTo()</text>
<text text-anchor="start" x="300.5" y="-309.5" font-family="Helvetica,sans-Serif" font-size="10.00">+ Instance()</text>
</a>
</g>
</g>
<!-- Node1&#45;&gt;Node12 -->
<g id="edge11" class="edge"><title>Node1&#45;&gt;Node12</title>
<path fill="none" stroke="midnightblue" d="M452.437,-493.689C435.935,-469.945 419.459,-446.238 405.227,-425.76"/>
<polygon fill="none" stroke="midnightblue" points="449.69,-495.87 458.271,-502.084 455.438,-491.875 449.69,-495.87"/>
</g>
<!-- Node3 -->
<g id="node3" class="node"><title>Node3</title>
<g id="a_node3"><a xlink:href="../../df/d57/classBazParam.html" target="_top" xlink:title="{BazParam\n||+ getGasDensity()\l}">
<polygon fill="none" stroke="black" points="185.5,-17.5 185.5,-74.5 282.5,-74.5 282.5,-17.5 185.5,-17.5"/>
<text text-anchor="middle" x="234" y="-62.5" font-family="Helvetica,sans-Serif" font-size="10.00">BazParam</text>
<polyline fill="none" stroke="black" points="185.5,-55.5 282.5,-55.5 "/>
<text text-anchor="middle" x="234" y="-43.5" font-family="Helvetica,sans-Serif" font-size="10.00"> </text>
<polyline fill="none" stroke="black" points="185.5,-36.5 282.5,-36.5 "/>
<text text-anchor="start" x="193.5" y="-24.5" font-family="Helvetica,sans-Serif" font-size="10.00">+ getGasDensity()</text>
</a>
</g>
</g>
<!-- Node2&#45;&gt;Node3 -->
<g id="edge2" class="edge"><title>Node2&#45;&gt;Node3</title>
<path fill="none" stroke="midnightblue" d="M234,-120.291C234,-104.072 234,-87.7662 234,-74.6661"/>
<polygon fill="none" stroke="midnightblue" points="230.5,-120.348 234,-130.348 237.5,-120.348 230.5,-120.348"/>
</g>
<!-- Node5 -->
<g id="node5" class="node"><title>Node5</title>
<g id="a_node5"><a xlink:href="../../da/d14/structo2_1_1passive_1_1HallSimParam.html" target="_top" xlink:title="{o2::passive::HallSimParam\n|+ mCUTGAM\l+ mCUTELE\l+ mCUTNEU\l+ mCUTHAD\l|+ O2ParamDef()\l}">
<polygon fill="none" stroke="black" points="2,-1 2,-91 138,-91 138,-1 2,-1"/>
<text text-anchor="middle" x="70" y="-79" font-family="Helvetica,sans-Serif" font-size="10.00">o2::passive::HallSimParam</text>
<polyline fill="none" stroke="black" points="2,-72 138,-72 "/>
<text text-anchor="start" x="10" y="-60" font-family="Helvetica,sans-Serif" font-size="10.00">+ mCUTGAM</text>
<text text-anchor="start" x="10" y="-49" font-family="Helvetica,sans-Serif" font-size="10.00">+ mCUTELE</text>
<text text-anchor="start" x="10" y="-38" font-family="Helvetica,sans-Serif" font-size="10.00">+ mCUTNEU</text>
<text text-anchor="start" x="10" y="-27" font-family="Helvetica,sans-Serif" font-size="10.00">+ mCUTHAD</text>
<polyline fill="none" stroke="black" points="2,-20 138,-20 "/>
<text text-anchor="start" x="10" y="-8" font-family="Helvetica,sans-Serif" font-size="10.00">+ O2ParamDef()</text>
</a>
</g>
</g>
<!-- Node4&#45;&gt;Node5 -->
<g id="edge4" class="edge"><title>Node4&#45;&gt;Node5</title>
<path fill="none" stroke="midnightblue" d="M70,-120.171C70,-110.365 70,-100.53 70,-91.3936"/>
<polygon fill="none" stroke="midnightblue" points="66.5001,-120.348 70,-130.348 73.5001,-120.348 66.5001,-120.348"/>
</g>
<!-- Node7 -->
<g id="node7" class="node"><title>Node7</title>
<g id="a_node7"><a xlink:href="../../d4/dcf/structo2_1_1eventgen_1_1InteractionDiamondParam.html" target="_top" xlink:title="{o2::eventgen::Interaction\lDiamondParam\n|+ position\l+ width\l|+ O2ParamDef()\l}">
<polygon fill="none" stroke="black" points="350.5,-6.5 350.5,-85.5 475.5,-85.5 475.5,-6.5 350.5,-6.5"/>
<text text-anchor="start" x="358.5" y="-73.5" font-family="Helvetica,sans-Serif" font-size="10.00">o2::eventgen::Interaction</text>
<text text-anchor="middle" x="413" y="-62.5" font-family="Helvetica,sans-Serif" font-size="10.00">DiamondParam</text>
<polyline fill="none" stroke="black" points="350.5,-55.5 475.5,-55.5 "/>
<text text-anchor="start" x="358.5" y="-43.5" font-family="Helvetica,sans-Serif" font-size="10.00">+ position</text>
<text text-anchor="start" x="358.5" y="-32.5" font-family="Helvetica,sans-Serif" font-size="10.00">+ width</text>
<polyline fill="none" stroke="black" points="350.5,-25.5 475.5,-25.5 "/>
<text text-anchor="start" x="358.5" y="-13.5" font-family="Helvetica,sans-Serif" font-size="10.00">+ O2ParamDef()</text>
</a>
</g>
</g>
<!-- Node6&#45;&gt;Node7 -->
<g id="edge6" class="edge"><title>Node6&#45;&gt;Node7</title>
<path fill="none" stroke="midnightblue" d="M413,-120.036C413,-108.254 413,-96.4347 413,-85.841"/>
<polygon fill="none" stroke="midnightblue" points="409.5,-120.348 413,-130.348 416.5,-120.348 409.5,-120.348"/>
</g>
<!-- Node9 -->
<g id="node9" class="node"><title>Node9</title>
<g id="a_node9"><a xlink:href="../../d7/d2f/structo2_1_1conf_1_1SimCutParams.html" target="_top" xlink:title="{o2::conf::SimCutParams\n|+ stepFiltering\l+ maxRTracking\l+ maxAbsZTracking\l|+ O2ParamDef()\l}">
<polygon fill="none" stroke="black" points="688.5,-6.5 688.5,-85.5 813.5,-85.5 813.5,-6.5 688.5,-6.5"/>
<text text-anchor="middle" x="751" y="-73.5" font-family="Helvetica,sans-Serif" font-size="10.00">o2::conf::SimCutParams</text>
<polyline fill="none" stroke="black" points="688.5,-66.5 813.5,-66.5 "/>
<text text-anchor="start" x="696.5" y="-54.5" font-family="Helvetica,sans-Serif" font-size="10.00">+ stepFiltering</text>
<text text-anchor="start" x="696.5" y="-43.5" font-family="Helvetica,sans-Serif" font-size="10.00">+ maxRTracking</text>
<text text-anchor="start" x="696.5" y="-32.5" font-family="Helvetica,sans-Serif" font-size="10.00">+ maxAbsZTracking</text>
<polyline fill="none" stroke="black" points="688.5,-25.5 813.5,-25.5 "/>
<text text-anchor="start" x="696.5" y="-13.5" font-family="Helvetica,sans-Serif" font-size="10.00">+ O2ParamDef()</text>
</a>
</g>
</g>
<!-- Node8&#45;&gt;Node9 -->
<g id="edge8" class="edge"><title>Node8&#45;&gt;Node9</title>
<path fill="none" stroke="midnightblue" d="M751,-120.036C751,-108.254 751,-96.4347 751,-85.841"/>
<polygon fill="none" stroke="midnightblue" points="747.5,-120.348 751,-130.348 754.5,-120.348 747.5,-120.348"/>
</g>
<!-- Node11 -->
<g id="node11" class="node"><title>Node11</title>
<g id="a_node11"><a xlink:href="../../da/d0d/structo2_1_1sim_1_1StackParam.html" target="_top" xlink:title="{o2::sim::StackParam\n|+ storeSecondaries\l+ pruneKine\l|+ O2ParamDef()\l}">
<polygon fill="none" stroke="black" points="536.5,-12 536.5,-80 645.5,-80 645.5,-12 536.5,-12"/>
<text text-anchor="middle" x="591" y="-68" font-family="Helvetica,sans-Serif" font-size="10.00">o2::sim::StackParam</text>
<polyline fill="none" stroke="black" points="536.5,-61 645.5,-61 "/>
<text text-anchor="start" x="544.5" y="-49" font-family="Helvetica,sans-Serif" font-size="10.00">+ storeSecondaries</text>
<text text-anchor="start" x="544.5" y="-38" font-family="Helvetica,sans-Serif" font-size="10.00">+ pruneKine</text>
<polyline fill="none" stroke="black" points="536.5,-31 645.5,-31 "/>
<text text-anchor="start" x="544.5" y="-19" font-family="Helvetica,sans-Serif" font-size="10.00">+ O2ParamDef()</text>
</a>
</g>
</g>
<!-- Node10&#45;&gt;Node11 -->
<g id="edge10" class="edge"><title>Node10&#45;&gt;Node11</title>
<path fill="none" stroke="midnightblue" d="M591,-120.189C591,-106.18 591,-92.1111 591,-80.1043"/>
<polygon fill="none" stroke="midnightblue" points="587.5,-120.348 591,-130.348 594.5,-120.348 587.5,-120.348"/>
</g>
<!-- Node12&#45;&gt;Node2 -->
<g id="edge13" class="edge"><title>Node12&#45;&gt;Node2</title>
<path fill="none" stroke="orange" d="M284.736,-314.725C274.255,-305.576 264.54,-295.288 257,-284 250.935,-274.921 246.47,-264.362 243.181,-253.718"/>
<polygon fill="orange" stroke="orange" points="282.56,-317.469 292.483,-321.184 287.043,-312.092 282.56,-317.469"/>
<text text-anchor="middle" x="290.5" y="-275.5" font-family="Helvetica,sans-Serif" font-size="10.00"> &lt; BazParam &gt;</text>
</g>
<!-- Node12&#45;&gt;Node4 -->
<g id="edge15" class="edge"><title>Node12&#45;&gt;Node4</title>
<path fill="none" stroke="orange" d="M282.617,-339.774C244.321,-326.668 198.931,-308.049 162,-284 148.822,-275.419 135.972,-264.726 124.256,-253.719"/>
<polygon fill="orange" stroke="orange" points="281.598,-343.123 292.192,-342.987 283.825,-336.487 281.598,-343.123"/>
<text text-anchor="middle" x="204.5" y="-275.5" font-family="Helvetica,sans-Serif" font-size="10.00"> &lt; HallSimParam &gt;</text>
</g>
<!-- Node12&#45;&gt;Node6 -->
<g id="edge12" class="edge"><title>Node12&#45;&gt;Node6</title>
<path fill="none" stroke="orange" d="M326.55,-292.304C326.223,-285.401 327.197,-278.538 330,-272 332.744,-265.601 336.289,-259.475 340.364,-253.666"/>
<polygon fill="orange" stroke="orange" points="323.107,-292.964 327.898,-302.413 330.045,-292.038 323.107,-292.964"/>
<text text-anchor="middle" x="397.5" y="-275.5" font-family="Helvetica,sans-Serif" font-size="10.00"> &lt; InteractionDiamondParam &gt;</text>
</g>
<!-- Node12&#45;&gt;Node8 -->
<g id="edge16" class="edge"><title>Node12&#45;&gt;Node8</title>
<path fill="none" stroke="orange" d="M443.506,-341.738C507.132,-323.229 597.063,-293.215 670,-254 673.411,-252.166 676.834,-250.197 680.242,-248.129"/>
<polygon fill="orange" stroke="orange" points="442.169,-338.481 433.527,-344.61 444.105,-345.208 442.169,-338.481"/>
<text text-anchor="middle" x="675" y="-275.5" font-family="Helvetica,sans-Serif" font-size="10.00"> &lt; SimCutParams &gt;</text>
</g>
<!-- Node12&#45;&gt;Node10 -->
<g id="edge14" class="edge"><title>Node12&#45;&gt;Node10</title>
<path fill="none" stroke="orange" d="M441.771,-304.268C467.306,-285.228 495.456,-264.239 520.362,-245.669"/>
<polygon fill="orange" stroke="orange" points="439.504,-301.592 433.579,-310.375 443.688,-307.204 439.504,-301.592"/>
<text text-anchor="middle" x="522" y="-275.5" font-family="Helvetica,sans-Serif" font-size="10.00"> &lt; StackParam &gt;</text>
</g>
</g>
</svg>
        <g id="navigator" transform="translate(0 0)" fill="#404254">
                <rect fill="#f2f5e9" fill-opacity="0.5" stroke="#606060" stroke-width=".5" x="0" y="0" width="60" height="60"/>
                <use id="zoomplus" xlink:href="#zoomPlus" x="17" y="9" onmousedown="handleZoom(evt,'in')"/>
                <use id="zoomminus" xlink:href="#zoomMin" x="42" y="9" onmousedown="handleZoom(evt,'out')"/>
                <use id="reset" xlink:href="#resetDef" x="30" y="36" onmousedown="handleReset()"/>
                <g id="arrowUp" xlink:href="#dirArrow" transform="translate(30 24)" onmousedown="handlePan(0,-1)">
                  <use xlink:href="#rim" fill="#404040">
                        <set attributeName="fill" to="#808080" begin="arrowUp.mouseover" end="arrowUp.mouseout"/>
                  </use>
                  <path fill="none" stroke="white" stroke-width="1.5" d="M0,-3.0v7 M-2.5,-0.5L0,-3.0L2.5,-0.5"/>
                </g>
                <g id="arrowRight" xlink:href="#dirArrow" transform="rotate(90) translate(36 -43)" onmousedown="handlePan(1,0)">
                  <use xlink:href="#rim" fill="#404040">
                        <set attributeName="fill" to="#808080" begin="arrowRight.mouseover" end="arrowRight.mouseout"/>
                  </use>
                  <path fill="none" stroke="white" stroke-width="1.5" d="M0,-3.0v7 M-2.5,-0.5L0,-3.0L2.5,-0.5"/>
                </g>
                <g id="arrowDown" xlink:href="#dirArrow" transform="rotate(180) translate(-30 -48)" onmousedown="handlePan(0,1)">
                  <use xlink:href="#rim" fill="#404040">
                        <set attributeName="fill" to="#808080" begin="arrowDown.mouseover" end="arrowDown.mouseout"/>
                  </use>
                  <path fill="none" stroke="white" stroke-width="1.5" d="M0,-3.0v7 M-2.5,-0.5L0,-3.0L2.5,-0.5"/>
                </g>
                <g id="arrowLeft" xlink:href="#dirArrow" transform="rotate(270) translate(-36 17)" onmousedown="handlePan(-1,0)">
                  <use xlink:href="#rim" fill="#404040">
                        <set attributeName="fill" to="#808080" begin="arrowLeft.mouseover" end="arrowLeft.mouseout"/>
                  </use>
                  <path fill="none" stroke="white" stroke-width="1.5" d="M0,-3.0v7 M-2.5,-0.5L0,-3.0L2.5,-0.5"/>
                </g>
        </g>
        <svg viewBox="0 0 15 15" width="100%" height="30px" preserveAspectRatio="xMaxYMin meet">
         <g id="arrow_out" transform="scale(0.3 0.3)">
          <a xlink:href="classo2_1_1conf_1_1ConfigurableParam__inherit__graph_org.svg" target="_base">
           <rect id="button" ry="5" rx="5" y="6" x="6" height="38" width="38"
                fill="#f2f5e9" fill-opacity="0.5" stroke="#606060" stroke-width="1.0"/>
           <path id="arrow"
             d="M 11.500037,31.436501 C 11.940474,20.09759 22.043105,11.32322 32.158766,21.979434 L 37.068811,17.246167 C 37.068811,17.246167 37.088388,32 37.088388,32 L 22.160133,31.978069 C 22.160133,31.978069 26.997745,27.140456 26.997745,27.140456 C 18.528582,18.264221 13.291696,25.230495 11.500037,31.436501 z"
             style="fill:#404040;"/>
          </a>
         </g>
        </svg>
</svg>
