<?xml version="1.0" encoding="UTF-8" standalone="no"?>
<!DOCTYPE svg PUBLIC "-//W3C//DTD SVG 1.1//EN"
 "http://www.w3.org/Graphics/SVG/1.1/DTD/svg11.dtd">
<!-- Generated by graphviz version 2.36.0 (20140111.2315)
 -->
<!-- Title: /home/travis/build/AliceO2Group/AliceO2/Detectors/ITSMFT/common/reconstruction/src/PixelData.cxx Pages: 1 -->
<!--zoomable 322 -->
<svg id="main" version="1.1" xmlns="http://www.w3.org/2000/svg" xmlns:xlink="http://www.w3.org/1999/xlink" xml:space="preserve" onload="init(evt)">
<style type="text/css"><![CDATA[
.edge:hover path { stroke: red; }
.edge:hover polygon { stroke: red; fill: red; }
]]></style>
<script type="text/javascript"><![CDATA[
var edges = document.getElementsByTagName('g');
if (edges && edges.length) {
  for (var i=0;i<edges.length;i++) {
    if (edges[i].id.substr(0,4)=='edge') {
      edges[i].setAttribute('class','edge');
    }
  }
}
]]></script>
        <defs>
                <circle id="rim" cx="0" cy="0" r="7"/>
                <circle id="rim2" cx="0" cy="0" r="3.5"/>
                <g id="zoomPlus">
                        <use xlink:href="#rim" fill="#404040">
                                <set attributeName="fill" to="#808080" begin="zoomplus.mouseover" end="zoomplus.mouseout"/>
                        </use>
                        <path d="M-4,0h8M0,-4v8" fill="none" stroke="white" stroke-width="1.5" pointer-events="none"/>
                </g>
                <g id="zoomMin">
                        <use xlink:href="#rim" fill="#404040">
                                <set attributeName="fill" to="#808080" begin="zoomminus.mouseover" end="zoomminus.mouseout"/>
                        </use>
                        <path d="M-4,0h8" fill="none" stroke="white" stroke-width="1.5" pointer-events="none"/>
                </g>
                <g id="dirArrow">
                        <path fill="none" stroke="white" stroke-width="1.5" d="M0,-3.0v7 M-2.5,-0.5L0,-3.0L2.5,-0.5"/>
                </g>
               <g id="resetDef">
                       <use xlink:href="#rim2" fill="#404040">
                               <set attributeName="fill" to="#808080" begin="reset.mouseover" end="reset.mouseout"/>
                       </use>
               </g>
        </defs>

<script type="text/javascript">
var viewWidth = 1427;
var viewHeight = 322;
var sectionId = 'dynsection-0';
</script>
<script xlink:href="../../svgpan.js"/>
<svg id="graph" class="graph">
<g id="viewport">
<title>/home/travis/build/AliceO2Group/AliceO2/Detectors/ITSMFT/common/reconstruction/src/PixelData.cxx</title>
<!-- Node1 -->
<g id="node1" class="node"><title>Node1</title>
<polygon fill="#bfbfbf" stroke="black" points="233,-261 233,-313 395,-313 395,-261 233,-261"/>
<text text-anchor="start" x="241" y="-301" font-family="Helvetica,sans-Serif" font-size="10.00">/home/travis/build</text>
<text text-anchor="start" x="241" y="-290" font-family="Helvetica,sans-Serif" font-size="10.00">/AliceO2Group/AliceO2</text>
<text text-anchor="start" x="241" y="-279" font-family="Helvetica,sans-Serif" font-size="10.00">/Detectors/ITSMFT/common</text>
<text text-anchor="middle" x="314" y="-268" font-family="Helvetica,sans-Serif" font-size="10.00">/reconstruction/src/PixelData.cxx</text>
</g>
<!-- Node2 -->
<g id="node2" class="node"><title>Node2</title>
<g id="a_node2"><a xlink:href="../../da/d8d/PixelData_8h.html" target="_top" xlink:title="Transient data classes for single pixel and set of pixels from current chip. ">
<polygon fill="none" stroke="black" points="90.5,-193 90.5,-223 209.5,-223 209.5,-193 90.5,-193"/>
<text text-anchor="start" x="98.5" y="-211" font-family="Helvetica,sans-Serif" font-size="10.00">ITSMFTReconstruction</text>
<text text-anchor="middle" x="150" y="-200" font-family="Helvetica,sans-Serif" font-size="10.00">/PixelData.h</text>
</a>
</g>
</g>
<!-- Node1&#45;&gt;Node2 -->
<g id="edge1" class="edge"><title>Node1&#45;&gt;Node2</title>
<path fill="none" stroke="midnightblue" d="M260.3,-260.787C237.027,-249.86 210.287,-237.306 188.965,-227.294"/>
<polygon fill="midnightblue" stroke="midnightblue" points="190.423,-224.113 179.883,-223.031 187.448,-230.449 190.423,-224.113"/>
</g>
<!-- Node8 -->
<g id="node8" class="node"><title>Node8</title>
<g id="a_node8"><a xlink:href="../../d3/dba/SegmentationAlpide_8h.html" target="_top" xlink:title="Definition of the SegmentationAlpide class. ">
<polygon fill="none" stroke="black" points="227.5,-198.5 227.5,-217.5 400.5,-217.5 400.5,-198.5 227.5,-198.5"/>
<text text-anchor="middle" x="314" y="-205.5" font-family="Helvetica,sans-Serif" font-size="10.00">ITSMFTBase/SegmentationAlpide.h</text>
</a>
</g>
</g>
<!-- Node1&#45;&gt;Node8 -->
<g id="edge7" class="edge"><title>Node1&#45;&gt;Node8</title>
<path fill="none" stroke="midnightblue" d="M314,-260.787C314,-250.069 314,-237.785 314,-227.871"/>
<polygon fill="midnightblue" stroke="midnightblue" points="317.5,-227.558 314,-217.558 310.5,-227.558 317.5,-227.558"/>
</g>
<!-- Node20 -->
<g id="node20" class="node"><title>Node20</title>
<polygon fill="none" stroke="#bfbfbf" points="418.5,-198.5 418.5,-217.5 467.5,-217.5 467.5,-198.5 418.5,-198.5"/>
<text text-anchor="middle" x="443" y="-205.5" font-family="Helvetica,sans-Serif" font-size="10.00">cassert</text>
</g>
<!-- Node1&#45;&gt;Node20 -->
<g id="edge21" class="edge"><title>Node1&#45;&gt;Node20</title>
<path fill="none" stroke="midnightblue" d="M356.239,-260.787C377.319,-248.205 402.014,-233.464 419.656,-222.934"/>
<polygon fill="midnightblue" stroke="midnightblue" points="421.87,-225.688 428.663,-217.558 418.282,-219.678 421.87,-225.688"/>
</g>
<!-- Node3 -->
<g id="node3" class="node"><title>Node3</title>
<g id="a_node3"><a xlink:href="../../d0/d06/ITSMFT_2common_2base_2include_2ITSMFTBase_2Digit_8h.html" target="_top" xlink:title="ITSMFTBase/Digit.h">
<polygon fill="none" stroke="black" points="3.5,-136.5 3.5,-155.5 110.5,-155.5 110.5,-136.5 3.5,-136.5"/>
<text text-anchor="middle" x="57" y="-143.5" font-family="Helvetica,sans-Serif" font-size="10.00">ITSMFTBase/Digit.h</text>
</a>
</g>
</g>
<!-- Node2&#45;&gt;Node3 -->
<g id="edge2" class="edge"><title>Node2&#45;&gt;Node3</title>
<path fill="none" stroke="midnightblue" d="M127.96,-192.781C113.103,-183.196 93.5896,-170.606 78.7861,-161.056"/>
<polygon fill="midnightblue" stroke="midnightblue" points="80.5618,-158.036 70.2613,-155.556 76.7669,-163.918 80.5618,-158.036"/>
</g>
<!-- Node6 -->
<g id="node6" class="node"><title>Node6</title>
<polygon fill="none" stroke="#bfbfbf" points="128,-136.5 128,-155.5 172,-155.5 172,-136.5 128,-136.5"/>
<text text-anchor="middle" x="150" y="-143.5" font-family="Helvetica,sans-Serif" font-size="10.00">vector</text>
</g>
<!-- Node2&#45;&gt;Node6 -->
<g id="edge5" class="edge"><title>Node2&#45;&gt;Node6</title>
<path fill="none" stroke="midnightblue" d="M150,-192.781C150,-184.781 150,-174.689 150,-166.017"/>
<polygon fill="midnightblue" stroke="midnightblue" points="153.5,-165.73 150,-155.731 146.5,-165.731 153.5,-165.73"/>
</g>
<!-- Node7 -->
<g id="node7" class="node"><title>Node7</title>
<polygon fill="none" stroke="#bfbfbf" points="190,-136.5 190,-155.5 230,-155.5 230,-136.5 190,-136.5"/>
<text text-anchor="middle" x="210" y="-143.5" font-family="Helvetica,sans-Serif" font-size="10.00">utility</text>
</g>
<!-- Node2&#45;&gt;Node7 -->
<g id="edge6" class="edge"><title>Node2&#45;&gt;Node7</title>
<path fill="none" stroke="midnightblue" d="M164.219,-192.781C173.208,-183.792 184.838,-172.162 194.127,-162.873"/>
<polygon fill="midnightblue" stroke="midnightblue" points="196.673,-165.277 201.269,-155.731 191.723,-160.327 196.673,-165.277"/>
</g>
<!-- Node4 -->
<g id="node4" class="node"><title>Node4</title>
<polygon fill="none" stroke="#bfbfbf" points="63,-74.5 63,-93.5 119,-93.5 119,-74.5 63,-74.5"/>
<text text-anchor="middle" x="91" y="-81.5" font-family="Helvetica,sans-Serif" font-size="10.00">Rtypes.h</text>
</g>
<!-- Node3&#45;&gt;Node4 -->
<g id="edge3" class="edge"><title>Node3&#45;&gt;Node4</title>
<path fill="none" stroke="midnightblue" d="M61.8714,-136.403C66.8704,-127.582 74.7891,-113.608 81.109,-102.455"/>
<polygon fill="midnightblue" stroke="midnightblue" points="84.2526,-104.006 86.1377,-93.5806 78.1624,-100.555 84.2526,-104.006"/>
</g>
<!-- Node5 -->
<g id="node5" class="node"><title>Node5</title>
<polygon fill="none" stroke="#bfbfbf" points="-0.5,-74.5 -0.5,-93.5 44.5,-93.5 44.5,-74.5 -0.5,-74.5"/>
<text text-anchor="middle" x="22" y="-81.5" font-family="Helvetica,sans-Serif" font-size="10.00">climits</text>
</g>
<!-- Node3&#45;&gt;Node5 -->
<g id="edge4" class="edge"><title>Node3&#45;&gt;Node5</title>
<path fill="none" stroke="midnightblue" d="M51.9854,-136.403C46.8393,-127.582 38.6877,-113.608 32.182,-102.455"/>
<polygon fill="midnightblue" stroke="midnightblue" points="35.0673,-100.455 27.0053,-93.5806 29.0209,-103.982 35.0673,-100.455"/>
</g>
<!-- Node8&#45;&gt;Node4 -->
<g id="edge8" class="edge"><title>Node8&#45;&gt;Node4</title>
<path fill="none" stroke="midnightblue" d="M307.071,-198.275C294.846,-183.433 267.984,-153.209 239,-136 194.405,-109.522 176.73,-117.754 128,-100 125.607,-99.128 123.138,-98.1972 120.665,-97.2426"/>
<polygon fill="midnightblue" stroke="midnightblue" points="121.841,-93.9439 111.255,-93.5157 119.263,-100.452 121.841,-93.9439"/>
</g>
<!-- Node9 -->
<g id="node9" class="node"><title>Node9</title>
<g id="a_node9"><a xlink:href="../../dd/d76/Cartesian3D_8h.html" target="_top" xlink:title="MathUtils/Cartesian3D.h">
<polygon fill="none" stroke="black" points="597.5,-136.5 597.5,-155.5 722.5,-155.5 722.5,-136.5 597.5,-136.5"/>
<text text-anchor="middle" x="660" y="-143.5" font-family="Helvetica,sans-Serif" font-size="10.00">MathUtils/Cartesian3D.h</text>
</a>
</g>
</g>
<!-- Node8&#45;&gt;Node9 -->
<g id="edge9" class="edge"><title>Node8&#45;&gt;Node9</title>
<path fill="none" stroke="midnightblue" d="M363.206,-198.467C425.85,-187.604 533.97,-168.855 600.981,-157.235"/>
<polygon fill="midnightblue" stroke="midnightblue" points="601.709,-160.661 610.964,-155.503 600.513,-153.764 601.709,-160.661"/>
</g>
<!-- Node9&#45;&gt;Node4 -->
<g id="edge15" class="edge"><title>Node9&#45;&gt;Node4</title>
<path fill="none" stroke="midnightblue" d="M597.197,-145.739C496.685,-145.58 294.098,-139.728 128,-100 124.931,-99.2659 121.783,-98.3184 118.681,-97.2566"/>
<polygon fill="midnightblue" stroke="midnightblue" points="119.676,-93.8901 109.085,-93.5972 117.182,-100.431 119.676,-93.8901"/>
</g>
<!-- Node10 -->
<g id="node10" class="node"><title>Node10</title>
<polygon fill="none" stroke="#bfbfbf" points="137.5,-69 137.5,-99 288.5,-99 288.5,-69 137.5,-69"/>
<text text-anchor="start" x="145.5" y="-87" font-family="Helvetica,sans-Serif" font-size="10.00">Math/GenVector/Displacement</text>
<text text-anchor="middle" x="213" y="-76" font-family="Helvetica,sans-Serif" font-size="10.00">Vector3D.h</text>
</g>
<!-- Node9&#45;&gt;Node10 -->
<g id="edge10" class="edge"><title>Node9&#45;&gt;Node10</title>
<path fill="none" stroke="midnightblue" d="M597.41,-138.201C527.255,-130.359 409.873,-116.579 298.571,-100.037"/>
<polygon fill="midnightblue" stroke="midnightblue" points="298.919,-96.5499 288.511,-98.5314 297.883,-103.473 298.919,-96.5499"/>
</g>
<!-- Node11 -->
<g id="node11" class="node"><title>Node11</title>
<polygon fill="none" stroke="#bfbfbf" points="307,-74.5 307,-93.5 483,-93.5 483,-74.5 307,-74.5"/>
<text text-anchor="middle" x="395" y="-81.5" font-family="Helvetica,sans-Serif" font-size="10.00">Math/GenVector/PositionVector3D.h</text>
</g>
<!-- Node9&#45;&gt;Node11 -->
<g id="edge11" class="edge"><title>Node9&#45;&gt;Node11</title>
<path fill="none" stroke="midnightblue" d="M622.313,-136.467C575.024,-125.76 493.899,-107.392 442.435,-95.74"/>
<polygon fill="midnightblue" stroke="midnightblue" points="443.083,-92.2981 432.557,-93.5034 441.537,-99.1253 443.083,-92.2981"/>
</g>
<!-- Node12 -->
<g id="node12" class="node"><title>Node12</title>
<polygon fill="none" stroke="#bfbfbf" points="500.5,-74.5 500.5,-93.5 649.5,-93.5 649.5,-74.5 500.5,-74.5"/>
<text text-anchor="middle" x="575" y="-81.5" font-family="Helvetica,sans-Serif" font-size="10.00">Math/GenVector/Rotation3D.h</text>
</g>
<!-- Node9&#45;&gt;Node12 -->
<g id="edge12" class="edge"><title>Node9&#45;&gt;Node12</title>
<path fill="none" stroke="midnightblue" d="M647.822,-136.403C634.188,-126.78 611.868,-111.024 595.526,-99.4891"/>
<polygon fill="midnightblue" stroke="midnightblue" points="597.344,-96.4881 587.156,-93.5806 593.307,-102.207 597.344,-96.4881"/>
</g>
<!-- Node13 -->
<g id="node13" class="node"><title>Node13</title>
<polygon fill="none" stroke="#bfbfbf" points="668,-74.5 668,-93.5 824,-93.5 824,-74.5 668,-74.5"/>
<text text-anchor="middle" x="746" y="-81.5" font-family="Helvetica,sans-Serif" font-size="10.00">Math/GenVector/Transform3D.h</text>
</g>
<!-- Node9&#45;&gt;Node13 -->
<g id="edge13" class="edge"><title>Node9&#45;&gt;Node13</title>
<path fill="none" stroke="midnightblue" d="M672.322,-136.403C686.116,-126.78 708.699,-111.024 725.232,-99.4891"/>
<polygon fill="midnightblue" stroke="midnightblue" points="727.503,-102.173 733.701,-93.5806 723.497,-96.432 727.503,-102.173"/>
</g>
<!-- Node14 -->
<g id="node14" class="node"><title>Node14</title>
<polygon fill="none" stroke="#bfbfbf" points="842,-74.5 842,-93.5 1002,-93.5 1002,-74.5 842,-74.5"/>
<text text-anchor="middle" x="922" y="-81.5" font-family="Helvetica,sans-Serif" font-size="10.00">Math/GenVector/Translation3D.h</text>
</g>
<!-- Node9&#45;&gt;Node14 -->
<g id="edge14" class="edge"><title>Node9&#45;&gt;Node14</title>
<path fill="none" stroke="midnightblue" d="M697.26,-136.467C744.014,-125.76 824.221,-107.392 875.102,-95.74"/>
<polygon fill="midnightblue" stroke="midnightblue" points="875.902,-99.1474 884.869,-93.5034 874.34,-92.3241 875.902,-99.1474"/>
</g>
<!-- Node15 -->
<g id="node15" class="node"><title>Node15</title>
<polygon fill="none" stroke="#bfbfbf" points="1020,-74.5 1020,-93.5 1096,-93.5 1096,-74.5 1020,-74.5"/>
<text text-anchor="middle" x="1058" y="-81.5" font-family="Helvetica,sans-Serif" font-size="10.00">TGeoMatrix.h</text>
</g>
<!-- Node9&#45;&gt;Node15 -->
<g id="edge16" class="edge"><title>Node9&#45;&gt;Node15</title>
<path fill="none" stroke="midnightblue" d="M722.726,-140.412C793.408,-134.445 911.434,-122.079 1011,-100 1015.23,-99.0613 1019.63,-97.9072 1023.96,-96.6597"/>
<polygon fill="midnightblue" stroke="midnightblue" points="1025.3,-99.9106 1033.84,-93.6366 1023.25,-93.2172 1025.3,-99.9106"/>
</g>
<!-- Node16 -->
<g id="node16" class="node"><title>Node16</title>
<polygon fill="none" stroke="#bfbfbf" points="1114.5,-74.5 1114.5,-93.5 1159.5,-93.5 1159.5,-74.5 1114.5,-74.5"/>
<text text-anchor="middle" x="1137" y="-81.5" font-family="Helvetica,sans-Serif" font-size="10.00">iosfwd</text>
</g>
<!-- Node9&#45;&gt;Node16 -->
<g id="edge17" class="edge"><title>Node9&#45;&gt;Node16</title>
<path fill="none" stroke="midnightblue" d="M722.76,-145.25C810.049,-144.123 972.334,-136.653 1105,-100 1107.35,-99.352 1109.73,-98.5449 1112.09,-97.6434"/>
<polygon fill="midnightblue" stroke="midnightblue" points="1113.68,-100.77 1121.45,-93.5728 1110.89,-94.3502 1113.68,-100.77"/>
</g>
<!-- Node17 -->
<g id="node17" class="node"><title>Node17</title>
<g id="a_node17"><a xlink:href="../../d2/dd0/Cartesian2D_8h.html" target="_top" xlink:title="MathUtils/Cartesian2D.h">
<polygon fill="none" stroke="black" points="1177.5,-74.5 1177.5,-93.5 1302.5,-93.5 1302.5,-74.5 1177.5,-74.5"/>
<text text-anchor="middle" x="1240" y="-81.5" font-family="Helvetica,sans-Serif" font-size="10.00">MathUtils/Cartesian2D.h</text>
</a>
</g>
</g>
<!-- Node9&#45;&gt;Node17 -->
<g id="edge18" class="edge"><title>Node9&#45;&gt;Node17</title>
<path fill="none" stroke="midnightblue" d="M722.842,-141.805C819.083,-136.378 1008.59,-123.583 1168,-100 1176.17,-98.7911 1184.81,-97.2352 1193.16,-95.585"/>
<polygon fill="midnightblue" stroke="midnightblue" points="1194.05,-98.9748 1203.15,-93.5422 1192.65,-92.1167 1194.05,-98.9748"/>
</g>
<!-- Node18 -->
<g id="node18" class="node"><title>Node18</title>
<polygon fill="none" stroke="#bfbfbf" points="1073.5,-1 1073.5,-31 1224.5,-31 1224.5,-1 1073.5,-1"/>
<text text-anchor="start" x="1081.5" y="-19" font-family="Helvetica,sans-Serif" font-size="10.00">Math/GenVector/Displacement</text>
<text text-anchor="middle" x="1149" y="-8" font-family="Helvetica,sans-Serif" font-size="10.00">Vector2D.h</text>
</g>
<!-- Node17&#45;&gt;Node18 -->
<g id="edge19" class="edge"><title>Node17&#45;&gt;Node18</title>
<path fill="none" stroke="midnightblue" d="M1228.1,-74.3717C1215.22,-65.0286 1194.22,-49.7966 1177.09,-37.375"/>
<polygon fill="midnightblue" stroke="midnightblue" points="1178.7,-34.2194 1168.55,-31.1815 1174.59,-39.8859 1178.7,-34.2194"/>
</g>
<!-- Node19 -->
<g id="node19" class="node"><title>Node19</title>
<polygon fill="none" stroke="#bfbfbf" points="1243,-6.5 1243,-25.5 1419,-25.5 1419,-6.5 1243,-6.5"/>
<text text-anchor="middle" x="1331" y="-13.5" font-family="Helvetica,sans-Serif" font-size="10.00">Math/GenVector/PositionVector2D.h</text>
</g>
<!-- Node17&#45;&gt;Node19 -->
<g id="edge20" class="edge"><title>Node17&#45;&gt;Node19</title>
<path fill="none" stroke="midnightblue" d="M1251.9,-74.3717C1266.88,-63.5015 1292.86,-44.6602 1310.94,-31.5474"/>
<polygon fill="midnightblue" stroke="midnightblue" points="1313.06,-34.3349 1319.1,-25.6305 1308.95,-28.6684 1313.06,-34.3349"/>
</g>
</g>
</svg>
        <g id="navigator" transform="translate(0 0)" fill="#404254">
                <rect fill="#f2f5e9" fill-opacity="0.5" stroke="#606060" stroke-width=".5" x="0" y="0" width="60" height="60"/>
                <use id="zoomplus" xlink:href="#zoomPlus" x="17" y="9" onmousedown="handleZoom(evt,'in')"/>
                <use id="zoomminus" xlink:href="#zoomMin" x="42" y="9" onmousedown="handleZoom(evt,'out')"/>
                <use id="reset" xlink:href="#resetDef" x="30" y="36" onmousedown="handleReset()"/>
                <g id="arrowUp" xlink:href="#dirArrow" transform="translate(30 24)" onmousedown="handlePan(0,-1)">
                  <use xlink:href="#rim" fill="#404040">
                        <set attributeName="fill" to="#808080" begin="arrowUp.mouseover" end="arrowUp.mouseout"/>
                  </use>
                  <path fill="none" stroke="white" stroke-width="1.5" d="M0,-3.0v7 M-2.5,-0.5L0,-3.0L2.5,-0.5"/>
                </g>
                <g id="arrowRight" xlink:href="#dirArrow" transform="rotate(90) translate(36 -43)" onmousedown="handlePan(1,0)">
                  <use xlink:href="#rim" fill="#404040">
                        <set attributeName="fill" to="#808080" begin="arrowRight.mouseover" end="arrowRight.mouseout"/>
                  </use>
                  <path fill="none" stroke="white" stroke-width="1.5" d="M0,-3.0v7 M-2.5,-0.5L0,-3.0L2.5,-0.5"/>
                </g>
                <g id="arrowDown" xlink:href="#dirArrow" transform="rotate(180) translate(-30 -48)" onmousedown="handlePan(0,1)">
                  <use xlink:href="#rim" fill="#404040">
                        <set attributeName="fill" to="#808080" begin="arrowDown.mouseover" end="arrowDown.mouseout"/>
                  </use>
                  <path fill="none" stroke="white" stroke-width="1.5" d="M0,-3.0v7 M-2.5,-0.5L0,-3.0L2.5,-0.5"/>
                </g>
                <g id="arrowLeft" xlink:href="#dirArrow" transform="rotate(270) translate(-36 17)" onmousedown="handlePan(-1,0)">
                  <use xlink:href="#rim" fill="#404040">
                        <set attributeName="fill" to="#808080" begin="arrowLeft.mouseover" end="arrowLeft.mouseout"/>
                  </use>
                  <path fill="none" stroke="white" stroke-width="1.5" d="M0,-3.0v7 M-2.5,-0.5L0,-3.0L2.5,-0.5"/>
                </g>
        </g>
        <svg viewBox="0 0 15 15" width="100%" height="30px" preserveAspectRatio="xMaxYMin meet">
         <g id="arrow_out" transform="scale(0.3 0.3)">
          <a xlink:href="PixelData_8cxx__incl_org.svg" target="_base">
           <rect id="button" ry="5" rx="5" y="6" x="6" height="38" width="38"
                fill="#f2f5e9" fill-opacity="0.5" stroke="#606060" stroke-width="1.0"/>
           <path id="arrow"
             d="M 11.500037,31.436501 C 11.940474,20.09759 22.043105,11.32322 32.158766,21.979434 L 37.068811,17.246167 C 37.068811,17.246167 37.088388,32 37.088388,32 L 22.160133,31.978069 C 22.160133,31.978069 26.997745,27.140456 26.997745,27.140456 C 18.528582,18.264221 13.291696,25.230495 11.500037,31.436501 z"
             style="fill:#404040;"/>
          </a>
         </g>
        </svg>
</svg>
