<?xml version="1.0" encoding="UTF-8" standalone="no"?>
<!DOCTYPE svg PUBLIC "-//W3C//DTD SVG 1.1//EN"
 "http://www.w3.org/Graphics/SVG/1.1/DTD/svg11.dtd">
<!-- Generated by graphviz version 2.36.0 (20140111.2315)
 -->
<!-- Title: /home/travis/build/AliceO2Group/AliceO2/Framework/Core/include/Framework/RawDeviceService.h Pages: 1 -->
<!--zoomable 230 -->
<svg id="main" version="1.1" xmlns="http://www.w3.org/2000/svg" xmlns:xlink="http://www.w3.org/1999/xlink" xml:space="preserve" onload="init(evt)">
<style type="text/css"><![CDATA[
.edge:hover path { stroke: red; }
.edge:hover polygon { stroke: red; fill: red; }
]]></style>
<script type="text/javascript"><![CDATA[
var edges = document.getElementsByTagName('g');
if (edges && edges.length) {
  for (var i=0;i<edges.length;i++) {
    if (edges[i].id.substr(0,4)=='edge') {
      edges[i].setAttribute('class','edge');
    }
  }
}
]]></script>
        <defs>
                <circle id="rim" cx="0" cy="0" r="7"/>
                <circle id="rim2" cx="0" cy="0" r="3.5"/>
                <g id="zoomPlus">
                        <use xlink:href="#rim" fill="#404040">
                                <set attributeName="fill" to="#808080" begin="zoomplus.mouseover" end="zoomplus.mouseout"/>
                        </use>
                        <path d="M-4,0h8M0,-4v8" fill="none" stroke="white" stroke-width="1.5" pointer-events="none"/>
                </g>
                <g id="zoomMin">
                        <use xlink:href="#rim" fill="#404040">
                                <set attributeName="fill" to="#808080" begin="zoomminus.mouseover" end="zoomminus.mouseout"/>
                        </use>
                        <path d="M-4,0h8" fill="none" stroke="white" stroke-width="1.5" pointer-events="none"/>
                </g>
                <g id="dirArrow">
                        <path fill="none" stroke="white" stroke-width="1.5" d="M0,-3.0v7 M-2.5,-0.5L0,-3.0L2.5,-0.5"/>
                </g>
               <g id="resetDef">
                       <use xlink:href="#rim2" fill="#404040">
                               <set attributeName="fill" to="#808080" begin="reset.mouseover" end="reset.mouseout"/>
                       </use>
               </g>
        </defs>

<script type="text/javascript">
var viewWidth = 966;
var viewHeight = 230;
var sectionId = 'dynsection-1';
</script>
<script xlink:href="../../svgpan.js"/>
<svg id="graph" class="graph">
<g id="viewport">
<title>/home/travis/build/AliceO2Group/AliceO2/Framework/Core/include/Framework/RawDeviceService.h</title>
<!-- Node1 -->
<g id="node1" class="node"><title>Node1</title>
<polygon fill="#bfbfbf" stroke="black" points="347,-169 347,-221 511,-221 511,-169 347,-169"/>
<text text-anchor="start" x="355" y="-209" font-family="Helvetica,sans-Serif" font-size="10.00">/home/travis/build</text>
<text text-anchor="start" x="355" y="-198" font-family="Helvetica,sans-Serif" font-size="10.00">/AliceO2Group/AliceO2</text>
<text text-anchor="start" x="355" y="-187" font-family="Helvetica,sans-Serif" font-size="10.00">/Framework/Core/include</text>
<text text-anchor="middle" x="429" y="-176" font-family="Helvetica,sans-Serif" font-size="10.00">/Framework/RawDeviceService.h</text>
</g>
<!-- Node2 -->
<g id="node2" class="node"><title>Node2</title>
<g id="a_node2"><a xlink:href="../../de/d88/SimpleRawDeviceService_8h.html" target="_top" xlink:title="/home/travis/build\l/AliceO2Group/AliceO2\l/Framework/Core/include\l/Framework/SimpleRawDeviceService.h">
<polygon fill="none" stroke="black" points="0,-79 0,-131 194,-131 194,-79 0,-79"/>
<text text-anchor="start" x="8" y="-119" font-family="Helvetica,sans-Serif" font-size="10.00">/home/travis/build</text>
<text text-anchor="start" x="8" y="-108" font-family="Helvetica,sans-Serif" font-size="10.00">/AliceO2Group/AliceO2</text>
<text text-anchor="start" x="8" y="-97" font-family="Helvetica,sans-Serif" font-size="10.00">/Framework/Core/include</text>
<text text-anchor="middle" x="97" y="-86" font-family="Helvetica,sans-Serif" font-size="10.00">/Framework/SimpleRawDeviceService.h</text>
</a>
</g>
</g>
<!-- Node1&#45;&gt;Node2 -->
<g id="edge1" class="edge"><title>Node1&#45;&gt;Node2</title>
<path fill="none" stroke="midnightblue" d="M337.1,-169.641C291.719,-157.612 237.041,-143.119 191.335,-131.004"/>
<polygon fill="midnightblue" stroke="midnightblue" points="336.37,-173.068 346.933,-172.247 338.163,-166.302 336.37,-173.068"/>
</g>
<!-- Node3 -->
<g id="node3" class="node"><title>Node3</title>
<g id="a_node3"><a xlink:href="../../d7/d54/runDataProcessing_8cxx.html" target="_top" xlink:title="/home/travis/build\l/AliceO2Group/AliceO2\l/Framework/Core/src/runDataProcessing.cxx">
<polygon fill="none" stroke="black" points="52,-0.5 52,-41.5 266,-41.5 266,-0.5 52,-0.5"/>
<text text-anchor="start" x="60" y="-29.5" font-family="Helvetica,sans-Serif" font-size="10.00">/home/travis/build</text>
<text text-anchor="start" x="60" y="-18.5" font-family="Helvetica,sans-Serif" font-size="10.00">/AliceO2Group/AliceO2</text>
<text text-anchor="middle" x="159" y="-7.5" font-family="Helvetica,sans-Serif" font-size="10.00">/Framework/Core/src/runDataProcessing.cxx</text>
</a>
</g>
</g>
<!-- Node1&#45;&gt;Node3 -->
<g id="edge6" class="edge"><title>Node1&#45;&gt;Node3</title>
<path fill="none" stroke="midnightblue" d="M336.982,-176.027C304.528,-166.618 269.147,-152.606 241,-132 217.112,-114.512 219.684,-101.743 202,-78 192.921,-65.8099 182.549,-52.2903 174.266,-41.5892"/>
<polygon fill="midnightblue" stroke="midnightblue" points="336.376,-179.491 346.948,-178.801 338.253,-172.747 336.376,-179.491"/>
</g>
<!-- Node4 -->
<g id="node4" class="node"><title>Node4</title>
<g id="a_node4"><a xlink:href="../../d1/dca/Dispatcher_8cxx.html" target="_top" xlink:title="Implementation of Dispatcher for O2 Data Sampling. ">
<polygon fill="none" stroke="black" points="250,-84.5 250,-125.5 428,-125.5 428,-84.5 250,-84.5"/>
<text text-anchor="start" x="258" y="-113.5" font-family="Helvetica,sans-Serif" font-size="10.00">/home/travis/build</text>
<text text-anchor="start" x="258" y="-102.5" font-family="Helvetica,sans-Serif" font-size="10.00">/AliceO2Group/AliceO2</text>
<text text-anchor="middle" x="339" y="-91.5" font-family="Helvetica,sans-Serif" font-size="10.00">/Framework/Core/src/Dispatcher.cxx</text>
</a>
</g>
</g>
<!-- Node1&#45;&gt;Node4 -->
<g id="edge3" class="edge"><title>Node1&#45;&gt;Node4</title>
<path fill="none" stroke="midnightblue" d="M395.51,-161.254C383.22,-149.237 369.701,-136.019 358.969,-125.525"/>
<polygon fill="midnightblue" stroke="midnightblue" points="393.371,-164.058 402.968,-168.547 398.265,-159.053 393.371,-164.058"/>
</g>
<!-- Node5 -->
<g id="node5" class="node"><title>Node5</title>
<g id="a_node5"><a xlink:href="../../dc/df3/ExternalFairMQDeviceProxy_8cxx.html" target="_top" xlink:title="/home/travis/build\l/AliceO2Group/AliceO2\l/Framework/Core/src/External\lFairMQDeviceProxy.cxx">
<polygon fill="none" stroke="black" points="446,-79 446,-131 594,-131 594,-79 446,-79"/>
<text text-anchor="start" x="454" y="-119" font-family="Helvetica,sans-Serif" font-size="10.00">/home/travis/build</text>
<text text-anchor="start" x="454" y="-108" font-family="Helvetica,sans-Serif" font-size="10.00">/AliceO2Group/AliceO2</text>
<text text-anchor="start" x="454" y="-97" font-family="Helvetica,sans-Serif" font-size="10.00">/Framework/Core/src/External</text>
<text text-anchor="middle" x="520" y="-86" font-family="Helvetica,sans-Serif" font-size="10.00">FairMQDeviceProxy.cxx</text>
</a>
</g>
</g>
<!-- Node1&#45;&gt;Node5 -->
<g id="edge4" class="edge"><title>Node1&#45;&gt;Node5</title>
<path fill="none" stroke="midnightblue" d="M462.68,-161.431C473.045,-151.407 484.29,-140.533 494.052,-131.092"/>
<polygon fill="midnightblue" stroke="midnightblue" points="460.077,-159.079 455.321,-168.547 464.943,-164.111 460.077,-159.079"/>
</g>
<!-- Node6 -->
<g id="node6" class="node"><title>Node6</title>
<g id="a_node6"><a xlink:href="../../d4/d7a/LifetimeHelpers_8cxx.html" target="_top" xlink:title="/home/travis/build\l/AliceO2Group/AliceO2\l/Framework/Core/src/Lifetime\lHelpers.cxx">
<polygon fill="none" stroke="black" points="612,-79 612,-131 758,-131 758,-79 612,-79"/>
<text text-anchor="start" x="620" y="-119" font-family="Helvetica,sans-Serif" font-size="10.00">/home/travis/build</text>
<text text-anchor="start" x="620" y="-108" font-family="Helvetica,sans-Serif" font-size="10.00">/AliceO2Group/AliceO2</text>
<text text-anchor="start" x="620" y="-97" font-family="Helvetica,sans-Serif" font-size="10.00">/Framework/Core/src/Lifetime</text>
<text text-anchor="middle" x="685" y="-86" font-family="Helvetica,sans-Serif" font-size="10.00">Helpers.cxx</text>
</a>
</g>
</g>
<!-- Node1&#45;&gt;Node6 -->
<g id="edge5" class="edge"><title>Node1&#45;&gt;Node6</title>
<path fill="none" stroke="midnightblue" d="M511.863,-165.516C544.079,-154.442 580.669,-141.864 611.886,-131.133"/>
<polygon fill="midnightblue" stroke="midnightblue" points="510.336,-162.34 502.017,-168.901 512.611,-168.96 510.336,-162.34"/>
</g>
<!-- Node7 -->
<g id="node7" class="node"><title>Node7</title>
<g id="a_node7"><a xlink:href="../../d5/d24/test__SimpleDataProcessingDevice01_8cxx.html" target="_top" xlink:title="/home/travis/build\l/AliceO2Group/AliceO2\l/Framework/Core/test/test\l_SimpleDataProcessingDevice01.cxx">
<polygon fill="none" stroke="black" points="776,-79 776,-131 958,-131 958,-79 776,-79"/>
<text text-anchor="start" x="784" y="-119" font-family="Helvetica,sans-Serif" font-size="10.00">/home/travis/build</text>
<text text-anchor="start" x="784" y="-108" font-family="Helvetica,sans-Serif" font-size="10.00">/AliceO2Group/AliceO2</text>
<text text-anchor="start" x="784" y="-97" font-family="Helvetica,sans-Serif" font-size="10.00">/Framework/Core/test/test</text>
<text text-anchor="middle" x="867" y="-86" font-family="Helvetica,sans-Serif" font-size="10.00">_SimpleDataProcessingDevice01.cxx</text>
</a>
</g>
</g>
<!-- Node1&#45;&gt;Node7 -->
<g id="edge7" class="edge"><title>Node1&#45;&gt;Node7</title>
<path fill="none" stroke="midnightblue" d="M521.574,-178.893C589.706,-167.32 684.447,-150.278 767,-132 769.89,-131.36 772.823,-130.695 775.781,-130.01"/>
<polygon fill="midnightblue" stroke="midnightblue" points="520.573,-175.513 511.297,-180.631 521.74,-182.414 520.573,-175.513"/>
</g>
<!-- Node2&#45;&gt;Node3 -->
<g id="edge2" class="edge"><title>Node2&#45;&gt;Node3</title>
<path fill="none" stroke="midnightblue" d="M122.068,-70.8459C129.546,-60.9556 137.502,-50.4327 144.108,-41.6965"/>
<polygon fill="midnightblue" stroke="midnightblue" points="119.178,-68.8642 115.939,-78.9517 124.762,-73.086 119.178,-68.8642"/>
</g>
</g>
</svg>
        <g id="navigator" transform="translate(0 0)" fill="#404254">
                <rect fill="#f2f5e9" fill-opacity="0.5" stroke="#606060" stroke-width=".5" x="0" y="0" width="60" height="60"/>
                <use id="zoomplus" xlink:href="#zoomPlus" x="17" y="9" onmousedown="handleZoom(evt,'in')"/>
                <use id="zoomminus" xlink:href="#zoomMin" x="42" y="9" onmousedown="handleZoom(evt,'out')"/>
                <use id="reset" xlink:href="#resetDef" x="30" y="36" onmousedown="handleReset()"/>
                <g id="arrowUp" xlink:href="#dirArrow" transform="translate(30 24)" onmousedown="handlePan(0,-1)">
                  <use xlink:href="#rim" fill="#404040">
                        <set attributeName="fill" to="#808080" begin="arrowUp.mouseover" end="arrowUp.mouseout"/>
                  </use>
                  <path fill="none" stroke="white" stroke-width="1.5" d="M0,-3.0v7 M-2.5,-0.5L0,-3.0L2.5,-0.5"/>
                </g>
                <g id="arrowRight" xlink:href="#dirArrow" transform="rotate(90) translate(36 -43)" onmousedown="handlePan(1,0)">
                  <use xlink:href="#rim" fill="#404040">
                        <set attributeName="fill" to="#808080" begin="arrowRight.mouseover" end="arrowRight.mouseout"/>
                  </use>
                  <path fill="none" stroke="white" stroke-width="1.5" d="M0,-3.0v7 M-2.5,-0.5L0,-3.0L2.5,-0.5"/>
                </g>
                <g id="arrowDown" xlink:href="#dirArrow" transform="rotate(180) translate(-30 -48)" onmousedown="handlePan(0,1)">
                  <use xlink:href="#rim" fill="#404040">
                        <set attributeName="fill" to="#808080" begin="arrowDown.mouseover" end="arrowDown.mouseout"/>
                  </use>
                  <path fill="none" stroke="white" stroke-width="1.5" d="M0,-3.0v7 M-2.5,-0.5L0,-3.0L2.5,-0.5"/>
                </g>
                <g id="arrowLeft" xlink:href="#dirArrow" transform="rotate(270) translate(-36 17)" onmousedown="handlePan(-1,0)">
                  <use xlink:href="#rim" fill="#404040">
                        <set attributeName="fill" to="#808080" begin="arrowLeft.mouseover" end="arrowLeft.mouseout"/>
                  </use>
                  <path fill="none" stroke="white" stroke-width="1.5" d="M0,-3.0v7 M-2.5,-0.5L0,-3.0L2.5,-0.5"/>
                </g>
        </g>
        <svg viewBox="0 0 15 15" width="100%" height="30px" preserveAspectRatio="xMaxYMin meet">
         <g id="arrow_out" transform="scale(0.3 0.3)">
          <a xlink:href="RawDeviceService_8h__dep__incl_org.svg" target="_base">
           <rect id="button" ry="5" rx="5" y="6" x="6" height="38" width="38"
                fill="#f2f5e9" fill-opacity="0.5" stroke="#606060" stroke-width="1.0"/>
           <path id="arrow"
             d="M 11.500037,31.436501 C 11.940474,20.09759 22.043105,11.32322 32.158766,21.979434 L 37.068811,17.246167 C 37.068811,17.246167 37.088388,32 37.088388,32 L 22.160133,31.978069 C 22.160133,31.978069 26.997745,27.140456 26.997745,27.140456 C 18.528582,18.264221 13.291696,25.230495 11.500037,31.436501 z"
             style="fill:#404040;"/>
          </a>
         </g>
        </svg>
</svg>
