<?xml version="1.0" encoding="UTF-8" standalone="no"?>
<!DOCTYPE svg PUBLIC "-//W3C//DTD SVG 1.1//EN"
 "http://www.w3.org/Graphics/SVG/1.1/DTD/svg11.dtd">
<!-- Generated by graphviz version 2.36.0 (20140111.2315)
 -->
<!-- Title: o2::mid::Detector Pages: 1 -->
<svg width="659pt" height="1230pt"
 viewBox="0.00 0.00 659.20 1230.00" xmlns="http://www.w3.org/2000/svg" xmlns:xlink="http://www.w3.org/1999/xlink">
<g id="graph0" class="graph" transform="scale(1 1) rotate(0) translate(4 1226)">
<title>o2::mid::Detector</title>
<!-- Node1 -->
<g id="node1" class="node"><title>Node1</title>
<polygon fill="#bfbfbf" stroke="black" points="237.197,-1 237.197,-135 355.197,-135 355.197,-1 237.197,-1"/>
<text text-anchor="middle" x="296.197" y="-123" font-family="Helvetica,sans-Serif" font-size="10.00">o2::mid::Detector</text>
<polyline fill="none" stroke="black" points="237.197,-116 355.197,-116 "/>
<text text-anchor="middle" x="296.197" y="-104" font-family="Helvetica,sans-Serif" font-size="10.00"> </text>
<polyline fill="none" stroke="black" points="237.197,-97 355.197,-97 "/>
<text text-anchor="start" x="245.197" y="-85" font-family="Helvetica,sans-Serif" font-size="10.00">+ Detector()</text>
<text text-anchor="start" x="245.197" y="-74" font-family="Helvetica,sans-Serif" font-size="10.00">+ InitializeO2Detector()</text>
<text text-anchor="start" x="245.197" y="-63" font-family="Helvetica,sans-Serif" font-size="10.00">+ ProcessHits()</text>
<text text-anchor="start" x="245.197" y="-52" font-family="Helvetica,sans-Serif" font-size="10.00">+ Register()</text>
<text text-anchor="start" x="245.197" y="-41" font-family="Helvetica,sans-Serif" font-size="10.00">+ getHits()</text>
<text text-anchor="start" x="245.197" y="-30" font-family="Helvetica,sans-Serif" font-size="10.00">+ Reset()</text>
<text text-anchor="start" x="245.197" y="-19" font-family="Helvetica,sans-Serif" font-size="10.00">+ ConstructGeometry()</text>
<text text-anchor="start" x="245.197" y="-8" font-family="Helvetica,sans-Serif" font-size="10.00">+ EndOfEvent()</text>
</g>
<!-- Node2 -->
<g id="node2" class="node"><title>Node2</title>
<g id="a_node2"><a xlink:href="../../d4/d8a/classo2_1_1Base_1_1DetImpl.html" target="_top" xlink:title="{o2::Base::DetImpl\&lt;\l Detector \&gt;\n||+ getHitBranchNames()\l+ updateHitTrackIndices()\l+ attachHits()\l+ mergeAndAdjustHits()\l+ mergeHitEntries()\l+ fillHitBranch()\l+ CloneModule()\l+ freeHitBuffers()\l+ setHits()\l+ createHitBuffers()\l+ initializeLate()\l+ BeginEvent()\l+ ~DetImpl()\l# ClassDefOverride()\l}">
<polygon fill="none" stroke="black" points="231.197,-174.5 231.197,-385.5 361.197,-385.5 361.197,-174.5 231.197,-174.5"/>
<text text-anchor="start" x="239.197" y="-373.5" font-family="Helvetica,sans-Serif" font-size="10.00">o2::Base::DetImpl&lt;</text>
<text text-anchor="middle" x="296.197" y="-362.5" font-family="Helvetica,sans-Serif" font-size="10.00"> Detector &gt;</text>
<polyline fill="none" stroke="black" points="231.197,-355.5 361.197,-355.5 "/>
<text text-anchor="middle" x="296.197" y="-343.5" font-family="Helvetica,sans-Serif" font-size="10.00"> </text>
<polyline fill="none" stroke="black" points="231.197,-336.5 361.197,-336.5 "/>
<text text-anchor="start" x="239.197" y="-324.5" font-family="Helvetica,sans-Serif" font-size="10.00">+ getHitBranchNames()</text>
<text text-anchor="start" x="239.197" y="-313.5" font-family="Helvetica,sans-Serif" font-size="10.00">+ updateHitTrackIndices()</text>
<text text-anchor="start" x="239.197" y="-302.5" font-family="Helvetica,sans-Serif" font-size="10.00">+ attachHits()</text>
<text text-anchor="start" x="239.197" y="-291.5" font-family="Helvetica,sans-Serif" font-size="10.00">+ mergeAndAdjustHits()</text>
<text text-anchor="start" x="239.197" y="-280.5" font-family="Helvetica,sans-Serif" font-size="10.00">+ mergeHitEntries()</text>
<text text-anchor="start" x="239.197" y="-269.5" font-family="Helvetica,sans-Serif" font-size="10.00">+ fillHitBranch()</text>
<text text-anchor="start" x="239.197" y="-258.5" font-family="Helvetica,sans-Serif" font-size="10.00">+ CloneModule()</text>
<text text-anchor="start" x="239.197" y="-247.5" font-family="Helvetica,sans-Serif" font-size="10.00">+ freeHitBuffers()</text>
<text text-anchor="start" x="239.197" y="-236.5" font-family="Helvetica,sans-Serif" font-size="10.00">+ setHits()</text>
<text text-anchor="start" x="239.197" y="-225.5" font-family="Helvetica,sans-Serif" font-size="10.00">+ createHitBuffers()</text>
<text text-anchor="start" x="239.197" y="-214.5" font-family="Helvetica,sans-Serif" font-size="10.00">+ initializeLate()</text>
<text text-anchor="start" x="239.197" y="-203.5" font-family="Helvetica,sans-Serif" font-size="10.00">+ BeginEvent()</text>
<text text-anchor="start" x="239.197" y="-192.5" font-family="Helvetica,sans-Serif" font-size="10.00">+ ~DetImpl()</text>
<text text-anchor="start" x="239.197" y="-181.5" font-family="Helvetica,sans-Serif" font-size="10.00"># ClassDefOverride()</text>
</a>
</g>
</g>
<!-- Node2&#45;&gt;Node1 -->
<g id="edge1" class="edge"><title>Node2&#45;&gt;Node1</title>
<path fill="none" stroke="midnightblue" d="M296.197,-164.303C296.197,-154.324 296.197,-144.463 296.197,-135.084"/>
<polygon fill="none" stroke="midnightblue" points="292.697,-164.308 296.197,-174.308 299.697,-164.308 292.697,-164.308"/>
</g>
<!-- Node3 -->
<g id="node3" class="node"><title>Node3</title>
<g id="a_node3"><a xlink:href="../../d7/d02/classo2_1_1Base_1_1Detector.html" target="_top" xlink:title="{o2::Base::Detector\n||+ Detector()\l+ Detector()\l+ ~Detector()\l+ Material()\l+ Mixture()\l+ Medium()\l+ SpecialCuts()\l+ SpecialCut()\l+ SpecialProcesses()\l+ SpecialProcess()\l+ Matrix()\l+ addAlignableVolumes()\l+ defineWrapperVolume()\l+ setNumberOfWrapperVolumes()\l+ defineLayer()\l+ defineLayerTurbo()\l+ getMaterialID()\l+ getMediumID()\l+ getMediumIDMappingAsVector()\l+ addNameTo()\l+ getHitBranchNames()\l+ updateHitTrackIndices()\l+ attachHits()\l+ fillHitBranch()\l+ mergeHitEntries()\l+ InitializeO2Detector()\l+ Initialize()\l+ initializeLate()\l+ GetCollection()\l+ setDensityFactor()\l+ getDensityFactor()\l+ initFieldTrackingParams()\l# Detector()\l# operator=()\l}">
<polygon fill="none" stroke="black" points="391.697,-705 391.697,-1125 558.697,-1125 558.697,-705 391.697,-705"/>
<text text-anchor="middle" x="475.197" y="-1113" font-family="Helvetica,sans-Serif" font-size="10.00">o2::Base::Detector</text>
<polyline fill="none" stroke="black" points="391.697,-1106 558.697,-1106 "/>
<text text-anchor="middle" x="475.197" y="-1094" font-family="Helvetica,sans-Serif" font-size="10.00"> </text>
<polyline fill="none" stroke="black" points="391.697,-1087 558.697,-1087 "/>
<text text-anchor="start" x="399.697" y="-1075" font-family="Helvetica,sans-Serif" font-size="10.00">+ Detector()</text>
<text text-anchor="start" x="399.697" y="-1064" font-family="Helvetica,sans-Serif" font-size="10.00">+ Detector()</text>
<text text-anchor="start" x="399.697" y="-1053" font-family="Helvetica,sans-Serif" font-size="10.00">+ ~Detector()</text>
<text text-anchor="start" x="399.697" y="-1042" font-family="Helvetica,sans-Serif" font-size="10.00">+ Material()</text>
<text text-anchor="start" x="399.697" y="-1031" font-family="Helvetica,sans-Serif" font-size="10.00">+ Mixture()</text>
<text text-anchor="start" x="399.697" y="-1020" font-family="Helvetica,sans-Serif" font-size="10.00">+ Medium()</text>
<text text-anchor="start" x="399.697" y="-1009" font-family="Helvetica,sans-Serif" font-size="10.00">+ SpecialCuts()</text>
<text text-anchor="start" x="399.697" y="-998" font-family="Helvetica,sans-Serif" font-size="10.00">+ SpecialCut()</text>
<text text-anchor="start" x="399.697" y="-987" font-family="Helvetica,sans-Serif" font-size="10.00">+ SpecialProcesses()</text>
<text text-anchor="start" x="399.697" y="-976" font-family="Helvetica,sans-Serif" font-size="10.00">+ SpecialProcess()</text>
<text text-anchor="start" x="399.697" y="-965" font-family="Helvetica,sans-Serif" font-size="10.00">+ Matrix()</text>
<text text-anchor="start" x="399.697" y="-954" font-family="Helvetica,sans-Serif" font-size="10.00">+ addAlignableVolumes()</text>
<text text-anchor="start" x="399.697" y="-943" font-family="Helvetica,sans-Serif" font-size="10.00">+ defineWrapperVolume()</text>
<text text-anchor="start" x="399.697" y="-932" font-family="Helvetica,sans-Serif" font-size="10.00">+ setNumberOfWrapperVolumes()</text>
<text text-anchor="start" x="399.697" y="-921" font-family="Helvetica,sans-Serif" font-size="10.00">+ defineLayer()</text>
<text text-anchor="start" x="399.697" y="-910" font-family="Helvetica,sans-Serif" font-size="10.00">+ defineLayerTurbo()</text>
<text text-anchor="start" x="399.697" y="-899" font-family="Helvetica,sans-Serif" font-size="10.00">+ getMaterialID()</text>
<text text-anchor="start" x="399.697" y="-888" font-family="Helvetica,sans-Serif" font-size="10.00">+ getMediumID()</text>
<text text-anchor="start" x="399.697" y="-877" font-family="Helvetica,sans-Serif" font-size="10.00">+ getMediumIDMappingAsVector()</text>
<text text-anchor="start" x="399.697" y="-866" font-family="Helvetica,sans-Serif" font-size="10.00">+ addNameTo()</text>
<text text-anchor="start" x="399.697" y="-855" font-family="Helvetica,sans-Serif" font-size="10.00">+ getHitBranchNames()</text>
<text text-anchor="start" x="399.697" y="-844" font-family="Helvetica,sans-Serif" font-size="10.00">+ updateHitTrackIndices()</text>
<text text-anchor="start" x="399.697" y="-833" font-family="Helvetica,sans-Serif" font-size="10.00">+ attachHits()</text>
<text text-anchor="start" x="399.697" y="-822" font-family="Helvetica,sans-Serif" font-size="10.00">+ fillHitBranch()</text>
<text text-anchor="start" x="399.697" y="-811" font-family="Helvetica,sans-Serif" font-size="10.00">+ mergeHitEntries()</text>
<text text-anchor="start" x="399.697" y="-800" font-family="Helvetica,sans-Serif" font-size="10.00">+ InitializeO2Detector()</text>
<text text-anchor="start" x="399.697" y="-789" font-family="Helvetica,sans-Serif" font-size="10.00">+ Initialize()</text>
<text text-anchor="start" x="399.697" y="-778" font-family="Helvetica,sans-Serif" font-size="10.00">+ initializeLate()</text>
<text text-anchor="start" x="399.697" y="-767" font-family="Helvetica,sans-Serif" font-size="10.00">+ GetCollection()</text>
<text text-anchor="start" x="399.697" y="-756" font-family="Helvetica,sans-Serif" font-size="10.00">+ setDensityFactor()</text>
<text text-anchor="start" x="399.697" y="-745" font-family="Helvetica,sans-Serif" font-size="10.00">+ getDensityFactor()</text>
<text text-anchor="start" x="399.697" y="-734" font-family="Helvetica,sans-Serif" font-size="10.00">+ initFieldTrackingParams()</text>
<text text-anchor="start" x="399.697" y="-723" font-family="Helvetica,sans-Serif" font-size="10.00"># Detector()</text>
<text text-anchor="start" x="399.697" y="-712" font-family="Helvetica,sans-Serif" font-size="10.00"># operator=()</text>
</a>
</g>
</g>
<!-- Node3&#45;&gt;Node2 -->
<g id="edge2" class="edge"><title>Node3&#45;&gt;Node2</title>
<path fill="none" stroke="midnightblue" d="M542.456,-694.463C541.851,-684.175 540.479,-673.981 538.197,-664 512.893,-553.352 489.291,-529.013 427.197,-434 407.97,-404.582 383.65,-374.682 361.199,-349.211"/>
<polygon fill="none" stroke="midnightblue" points="538.969,-694.905 542.811,-704.778 545.965,-694.664 538.969,-694.905"/>
</g>
<!-- Node9 -->
<g id="node9" class="node"><title>Node9</title>
<g id="a_node9"><a xlink:href="../../d4/d8a/classo2_1_1Base_1_1DetImpl.html" target="_top" xlink:title="{o2::Base::DetImpl\&lt;\l Det \&gt;\n||+ getHitBranchNames()\l+ updateHitTrackIndices()\l+ attachHits()\l+ mergeAndAdjustHits()\l+ mergeHitEntries()\l+ fillHitBranch()\l+ CloneModule()\l+ freeHitBuffers()\l+ setHits()\l+ createHitBuffers()\l+ initializeLate()\l+ BeginEvent()\l+ ~DetImpl()\l# ClassDefOverride()\l}">
<polygon fill="none" stroke="black" points="288.197,-434.5 288.197,-645.5 418.197,-645.5 418.197,-434.5 288.197,-434.5"/>
<text text-anchor="start" x="296.197" y="-633.5" font-family="Helvetica,sans-Serif" font-size="10.00">o2::Base::DetImpl&lt;</text>
<text text-anchor="middle" x="353.197" y="-622.5" font-family="Helvetica,sans-Serif" font-size="10.00"> Det &gt;</text>
<polyline fill="none" stroke="black" points="288.197,-615.5 418.197,-615.5 "/>
<text text-anchor="middle" x="353.197" y="-603.5" font-family="Helvetica,sans-Serif" font-size="10.00"> </text>
<polyline fill="none" stroke="black" points="288.197,-596.5 418.197,-596.5 "/>
<text text-anchor="start" x="296.197" y="-584.5" font-family="Helvetica,sans-Serif" font-size="10.00">+ getHitBranchNames()</text>
<text text-anchor="start" x="296.197" y="-573.5" font-family="Helvetica,sans-Serif" font-size="10.00">+ updateHitTrackIndices()</text>
<text text-anchor="start" x="296.197" y="-562.5" font-family="Helvetica,sans-Serif" font-size="10.00">+ attachHits()</text>
<text text-anchor="start" x="296.197" y="-551.5" font-family="Helvetica,sans-Serif" font-size="10.00">+ mergeAndAdjustHits()</text>
<text text-anchor="start" x="296.197" y="-540.5" font-family="Helvetica,sans-Serif" font-size="10.00">+ mergeHitEntries()</text>
<text text-anchor="start" x="296.197" y="-529.5" font-family="Helvetica,sans-Serif" font-size="10.00">+ fillHitBranch()</text>
<text text-anchor="start" x="296.197" y="-518.5" font-family="Helvetica,sans-Serif" font-size="10.00">+ CloneModule()</text>
<text text-anchor="start" x="296.197" y="-507.5" font-family="Helvetica,sans-Serif" font-size="10.00">+ freeHitBuffers()</text>
<text text-anchor="start" x="296.197" y="-496.5" font-family="Helvetica,sans-Serif" font-size="10.00">+ setHits()</text>
<text text-anchor="start" x="296.197" y="-485.5" font-family="Helvetica,sans-Serif" font-size="10.00">+ createHitBuffers()</text>
<text text-anchor="start" x="296.197" y="-474.5" font-family="Helvetica,sans-Serif" font-size="10.00">+ initializeLate()</text>
<text text-anchor="start" x="296.197" y="-463.5" font-family="Helvetica,sans-Serif" font-size="10.00">+ BeginEvent()</text>
<text text-anchor="start" x="296.197" y="-452.5" font-family="Helvetica,sans-Serif" font-size="10.00">+ ~DetImpl()</text>
<text text-anchor="start" x="296.197" y="-441.5" font-family="Helvetica,sans-Serif" font-size="10.00"># ClassDefOverride()</text>
</a>
</g>
</g>
<!-- Node3&#45;&gt;Node9 -->
<g id="edge9" class="edge"><title>Node3&#45;&gt;Node9</title>
<path fill="none" stroke="midnightblue" d="M424.809,-695.152C421.428,-684.555 417.89,-674.122 414.197,-664 411.991,-657.954 409.571,-651.815 407.009,-645.671"/>
<polygon fill="none" stroke="midnightblue" points="421.541,-696.428 427.869,-704.925 428.221,-694.336 421.541,-696.428"/>
</g>
<!-- Node4 -->
<g id="node4" class="node"><title>Node4</title>
<g id="a_node4"><a xlink:href="../../d6/d0c/classFairDetector.html" target="_top" xlink:title="{FairDetector\n||}">
<polygon fill="none" stroke="black" points="439.697,-1164.5 439.697,-1221.5 510.697,-1221.5 510.697,-1164.5 439.697,-1164.5"/>
<text text-anchor="middle" x="475.197" y="-1209.5" font-family="Helvetica,sans-Serif" font-size="10.00">FairDetector</text>
<polyline fill="none" stroke="black" points="439.697,-1202.5 510.697,-1202.5 "/>
<text text-anchor="middle" x="475.197" y="-1190.5" font-family="Helvetica,sans-Serif" font-size="10.00"> </text>
<polyline fill="none" stroke="black" points="439.697,-1183.5 510.697,-1183.5 "/>
<text text-anchor="middle" x="475.197" y="-1171.5" font-family="Helvetica,sans-Serif" font-size="10.00"> </text>
</a>
</g>
</g>
<!-- Node4&#45;&gt;Node3 -->
<g id="edge3" class="edge"><title>Node4&#45;&gt;Node3</title>
<path fill="none" stroke="midnightblue" d="M475.197,-1154C475.197,-1145.4 475.197,-1135.67 475.197,-1125.19"/>
<polygon fill="none" stroke="midnightblue" points="471.697,-1154.27 475.197,-1164.27 478.697,-1154.27 471.697,-1154.27"/>
</g>
<!-- Node5 -->
<g id="node5" class="node"><title>Node5</title>
<polygon fill="none" stroke="#bfbfbf" points="1.19656,-886.5 1.19656,-943.5 101.197,-943.5 101.197,-886.5 1.19656,-886.5"/>
<text text-anchor="middle" x="51.1966" y="-931.5" font-family="Helvetica,sans-Serif" font-size="10.00">static constexpr int</text>
<polyline fill="none" stroke="#bfbfbf" points="1.19656,-924.5 101.197,-924.5 "/>
<text text-anchor="middle" x="51.1966" y="-912.5" font-family="Helvetica,sans-Serif" font-size="10.00"> </text>
<polyline fill="none" stroke="#bfbfbf" points="1.19656,-905.5 101.197,-905.5 "/>
<text text-anchor="middle" x="51.1966" y="-893.5" font-family="Helvetica,sans-Serif" font-size="10.00"> </text>
</g>
<!-- Node5&#45;&gt;Node2 -->
<g id="edge4" class="edge"><title>Node5&#45;&gt;Node2</title>
<path fill="none" stroke="#404040" d="M41.953,-886.483C17.7408,-809.159 -39.9887,-585.689 45.1966,-434 82.1526,-368.192 160.177,-327.357 219.486,-304.604"/>
<polygon fill="none" stroke="#404040" points="219.834,-304.475 224.063,-298.634 231.081,-300.292 226.851,-306.132 219.834,-304.475"/>
<text text-anchor="middle" x="85.1966" y="-537.5" font-family="Helvetica,sans-Serif" font-size="10.00"> #NHITBUFFERS</text>
</g>
<!-- Node5&#45;&gt;Node9 -->
<g id="edge10" class="edge"><title>Node5&#45;&gt;Node9</title>
<path fill="none" stroke="#404040" d="M59.3318,-886.437C72.6969,-844.228 102.277,-762.345 146.197,-704 162.693,-682.085 168.58,-676.101 193.197,-664 227.851,-646.964 245.888,-667.15 278.197,-646 278.302,-645.931 278.407,-645.862 278.513,-645.792"/>
<polygon fill="none" stroke="#404040" points="278.348,-645.913 280.802,-639.132 288.005,-638.789 285.551,-645.57 278.348,-645.913"/>
<text text-anchor="middle" x="233.197" y="-672.5" font-family="Helvetica,sans-Serif" font-size="10.00"> #NHITBUFFERS</text>
</g>
<!-- Node6 -->
<g id="node6" class="node"><title>Node6</title>
<g id="a_node6"><a xlink:href="../../d9/db1/classbool_01_5.html" target="_top" xlink:title="{bool *\n||}">
<polygon fill="none" stroke="black" points="228.697,-511.5 228.697,-568.5 269.697,-568.5 269.697,-511.5 228.697,-511.5"/>
<text text-anchor="middle" x="249.197" y="-556.5" font-family="Helvetica,sans-Serif" font-size="10.00">bool *</text>
<polyline fill="none" stroke="black" points="228.697,-549.5 269.697,-549.5 "/>
<text text-anchor="middle" x="249.197" y="-537.5" font-family="Helvetica,sans-Serif" font-size="10.00"> </text>
<polyline fill="none" stroke="black" points="228.697,-530.5 269.697,-530.5 "/>
<text text-anchor="middle" x="249.197" y="-518.5" font-family="Helvetica,sans-Serif" font-size="10.00"> </text>
</a>
</g>
</g>
<!-- Node6&#45;&gt;Node2 -->
<g id="edge5" class="edge"><title>Node6&#45;&gt;Node2</title>
<path fill="none" stroke="#404040" d="M250.128,-511.387C251.41,-483.956 254.39,-440.788 261.197,-404 261.596,-401.842 262.016,-399.668 262.456,-397.482"/>
<polygon fill="none" stroke="#404040" points="262.466,-397.432 259.81,-390.728 264.976,-385.698 267.633,-392.402 262.466,-397.432"/>
<text text-anchor="middle" x="291.197" y="-407.5" font-family="Helvetica,sans-Serif" font-size="10.00"> #mShmBusy</text>
</g>
<!-- Node7 -->
<g id="node7" class="node"><title>Node7</title>
<polygon fill="none" stroke="#bfbfbf" points="581.697,-886.5 581.697,-943.5 610.697,-943.5 610.697,-886.5 581.697,-886.5"/>
<text text-anchor="middle" x="596.197" y="-931.5" font-family="Helvetica,sans-Serif" font-size="10.00">int</text>
<polyline fill="none" stroke="#bfbfbf" points="581.697,-924.5 610.697,-924.5 "/>
<text text-anchor="middle" x="596.197" y="-912.5" font-family="Helvetica,sans-Serif" font-size="10.00"> </text>
<polyline fill="none" stroke="#bfbfbf" points="581.697,-905.5 610.697,-905.5 "/>
<text text-anchor="middle" x="596.197" y="-893.5" font-family="Helvetica,sans-Serif" font-size="10.00"> </text>
</g>
<!-- Node7&#45;&gt;Node2 -->
<g id="edge6" class="edge"><title>Node7&#45;&gt;Node2</title>
<path fill="none" stroke="#404040" d="M597.139,-886.379C598.474,-808.311 593.035,-582.104 494.197,-434 463.23,-387.599 413.511,-349.252 371.643,-322.554"/>
<polygon fill="none" stroke="#404040" points="371.637,-322.55 364.429,-322.761 361.462,-316.189 368.67,-315.978 371.637,-322.55"/>
<text text-anchor="middle" x="613.197" y="-543" font-family="Helvetica,sans-Serif" font-size="10.00"> #mCurrentBuffer</text>
<text text-anchor="middle" x="613.197" y="-532" font-family="Helvetica,sans-Serif" font-size="10.00">#mInitialized</text>
</g>
<!-- Node7&#45;&gt;Node9 -->
<g id="edge11" class="edge"><title>Node7&#45;&gt;Node9</title>
<path fill="none" stroke="#404040" d="M600.935,-886.457C606.843,-842.41 611.369,-755.814 567.197,-704 549.411,-683.137 531.932,-699.72 508.197,-686 479.073,-669.166 451.01,-645.899 426.954,-622.929"/>
<polygon fill="none" stroke="#404040" points="426.882,-622.858 419.791,-621.542 418.279,-614.492 425.369,-615.807 426.882,-622.858"/>
<text text-anchor="middle" x="546.197" y="-678" font-family="Helvetica,sans-Serif" font-size="10.00"> #mCurrentBuffer</text>
<text text-anchor="middle" x="546.197" y="-667" font-family="Helvetica,sans-Serif" font-size="10.00">#mInitialized</text>
</g>
<!-- Node8 -->
<g id="node8" class="node"><title>Node8</title>
<polygon fill="none" stroke="#bfbfbf" points="155.197,-886.5 155.197,-943.5 241.197,-943.5 241.197,-886.5 155.197,-886.5"/>
<text text-anchor="middle" x="198.197" y="-931.5" font-family="Helvetica,sans-Serif" font-size="10.00">vector&lt; void * &gt;</text>
<polyline fill="none" stroke="#bfbfbf" points="155.197,-924.5 241.197,-924.5 "/>
<text text-anchor="middle" x="198.197" y="-912.5" font-family="Helvetica,sans-Serif" font-size="10.00"> </text>
<polyline fill="none" stroke="#bfbfbf" points="155.197,-905.5 241.197,-905.5 "/>
<text text-anchor="middle" x="198.197" y="-893.5" font-family="Helvetica,sans-Serif" font-size="10.00"> </text>
</g>
<!-- Node8&#45;&gt;Node2 -->
<g id="edge7" class="edge"><title>Node8&#45;&gt;Node2</title>
<path fill="none" stroke="#404040" d="M187.351,-886.256C159.518,-810.628 92.0443,-595.716 155.197,-434 169.127,-398.329 195.701,-365.963 222.057,-340.282"/>
<polygon fill="none" stroke="#404040" points="222.26,-340.09 223.862,-333.059 230.968,-331.834 229.366,-338.865 222.26,-340.09"/>
<text text-anchor="middle" x="187.197" y="-537.5" font-family="Helvetica,sans-Serif" font-size="10.00"> #mCachedPtr</text>
</g>
<!-- Node8&#45;&gt;Node9 -->
<g id="edge12" class="edge"><title>Node8&#45;&gt;Node9</title>
<path fill="none" stroke="#404040" d="M206.114,-886.407C219.887,-839.696 250.158,-742.47 285.197,-664 286.288,-661.556 287.41,-659.096 288.56,-656.625"/>
<polygon fill="none" stroke="#404040" points="288.585,-656.573 287.56,-649.435 293.754,-645.743 294.779,-652.881 288.585,-656.573"/>
<text text-anchor="middle" x="317.197" y="-672.5" font-family="Helvetica,sans-Serif" font-size="10.00"> #mCachedPtr</text>
</g>
<!-- Node9&#45;&gt;Node2 -->
<g id="edge8" class="edge"><title>Node9&#45;&gt;Node2</title>
<path fill="none" stroke="orange" d="M327.92,-424.589C325.062,-411.653 322.16,-398.519 319.331,-385.715"/>
<polygon fill="orange" stroke="orange" points="324.52,-425.424 330.095,-434.433 331.355,-423.914 324.52,-425.424"/>
<text text-anchor="middle" x="354.697" y="-407.5" font-family="Helvetica,sans-Serif" font-size="10.00"> &lt; Detector &gt;</text>
</g>
<!-- Node10 -->
<g id="node10" class="node"><title>Node10</title>
<polygon fill="none" stroke="#bfbfbf" points="335.697,-886.5 335.697,-943.5 370.697,-943.5 370.697,-886.5 335.697,-886.5"/>
<text text-anchor="middle" x="353.197" y="-931.5" font-family="Helvetica,sans-Serif" font-size="10.00">bool</text>
<polyline fill="none" stroke="#bfbfbf" points="335.697,-924.5 370.697,-924.5 "/>
<text text-anchor="middle" x="353.197" y="-912.5" font-family="Helvetica,sans-Serif" font-size="10.00"> </text>
<polyline fill="none" stroke="#bfbfbf" points="335.697,-905.5 370.697,-905.5 "/>
<text text-anchor="middle" x="353.197" y="-893.5" font-family="Helvetica,sans-Serif" font-size="10.00"> </text>
</g>
<!-- Node10&#45;&gt;Node9 -->
<g id="edge13" class="edge"><title>Node10&#45;&gt;Node9</title>
<path fill="none" stroke="#404040" d="M353.197,-886.269C353.197,-838.493 353.197,-738.062 353.197,-657.772"/>
<polygon fill="none" stroke="#404040" points="353.197,-657.576 349.197,-651.576 353.197,-645.576 357.197,-651.576 353.197,-657.576"/>
<text text-anchor="middle" x="383.197" y="-672.5" font-family="Helvetica,sans-Serif" font-size="10.00"> #mShmBusy</text>
</g>
</g>
</svg>
