<?xml version="1.0" encoding="UTF-8" standalone="no"?>
<!DOCTYPE svg PUBLIC "-//W3C//DTD SVG 1.1//EN"
 "http://www.w3.org/Graphics/SVG/1.1/DTD/svg11.dtd">
<!-- Generated by graphviz version 2.36.0 (20140111.2315)
 -->
<!-- Title: /home/travis/build/AliceO2Group/AliceO2/Common/SimConfig/include/SimConfig/ConfigurableParam.h Pages: 1 -->
<!--zoomable 810 -->
<svg id="main" version="1.1" xmlns="http://www.w3.org/2000/svg" xmlns:xlink="http://www.w3.org/1999/xlink" xml:space="preserve" onload="init(evt)">
<style type="text/css"><![CDATA[
.edge:hover path { stroke: red; }
.edge:hover polygon { stroke: red; fill: red; }
]]></style>
<script type="text/javascript"><![CDATA[
var edges = document.getElementsByTagName('g');
if (edges && edges.length) {
  for (var i=0;i<edges.length;i++) {
    if (edges[i].id.substr(0,4)=='edge') {
      edges[i].setAttribute('class','edge');
    }
  }
}
]]></script>
        <defs>
                <circle id="rim" cx="0" cy="0" r="7"/>
                <circle id="rim2" cx="0" cy="0" r="3.5"/>
                <g id="zoomPlus">
                        <use xlink:href="#rim" fill="#404040">
                                <set attributeName="fill" to="#808080" begin="zoomplus.mouseover" end="zoomplus.mouseout"/>
                        </use>
                        <path d="M-4,0h8M0,-4v8" fill="none" stroke="white" stroke-width="1.5" pointer-events="none"/>
                </g>
                <g id="zoomMin">
                        <use xlink:href="#rim" fill="#404040">
                                <set attributeName="fill" to="#808080" begin="zoomminus.mouseover" end="zoomminus.mouseout"/>
                        </use>
                        <path d="M-4,0h8" fill="none" stroke="white" stroke-width="1.5" pointer-events="none"/>
                </g>
                <g id="dirArrow">
                        <path fill="none" stroke="white" stroke-width="1.5" d="M0,-3.0v7 M-2.5,-0.5L0,-3.0L2.5,-0.5"/>
                </g>
               <g id="resetDef">
                       <use xlink:href="#rim2" fill="#404040">
                               <set attributeName="fill" to="#808080" begin="reset.mouseover" end="reset.mouseout"/>
                       </use>
               </g>
        </defs>

<script type="text/javascript">
var viewWidth = 1609;
var viewHeight = 810;
var sectionId = 'dynsection-1';
</script>
<script xlink:href="../../svgpan.js"/>
<svg id="graph" class="graph">
<g id="viewport">
<title>/home/travis/build/AliceO2Group/AliceO2/Common/SimConfig/include/SimConfig/ConfigurableParam.h</title>
<!-- Node1 -->
<g id="node1" class="node"><title>Node1</title>
<polygon fill="#bfbfbf" stroke="black" points="757,-749 757,-801 917,-801 917,-749 757,-749"/>
<text text-anchor="start" x="765" y="-789" font-family="Helvetica,sans-Serif" font-size="10.00">/home/travis/build</text>
<text text-anchor="start" x="765" y="-778" font-family="Helvetica,sans-Serif" font-size="10.00">/AliceO2Group/AliceO2</text>
<text text-anchor="start" x="765" y="-767" font-family="Helvetica,sans-Serif" font-size="10.00">/Common/SimConfig/include</text>
<text text-anchor="middle" x="837" y="-756" font-family="Helvetica,sans-Serif" font-size="10.00">/SimConfig/ConfigurableParam.h</text>
</g>
<!-- Node2 -->
<g id="node2" class="node"><title>Node2</title>
<g id="a_node2"><a xlink:href="../../da/d6b/ConfigurableParamHelper_8h.html" target="_top" xlink:title="/home/travis/build\l/AliceO2Group/AliceO2\l/Common/SimConfig/include\l/SimConfig/ConfigurableParamHelper.h">
<polygon fill="none" stroke="black" points="682,-659 682,-711 870,-711 870,-659 682,-659"/>
<text text-anchor="start" x="690" y="-699" font-family="Helvetica,sans-Serif" font-size="10.00">/home/travis/build</text>
<text text-anchor="start" x="690" y="-688" font-family="Helvetica,sans-Serif" font-size="10.00">/AliceO2Group/AliceO2</text>
<text text-anchor="start" x="690" y="-677" font-family="Helvetica,sans-Serif" font-size="10.00">/Common/SimConfig/include</text>
<text text-anchor="middle" x="776" y="-666" font-family="Helvetica,sans-Serif" font-size="10.00">/SimConfig/ConfigurableParamHelper.h</text>
</a>
</g>
</g>
<!-- Node1&#45;&gt;Node2 -->
<g id="edge1" class="edge"><title>Node1&#45;&gt;Node2</title>
<path fill="none" stroke="midnightblue" d="M813.612,-740.259C806.891,-730.564 799.683,-720.166 793.393,-711.092"/>
<polygon fill="midnightblue" stroke="midnightblue" points="810.783,-742.322 819.356,-748.547 816.536,-738.334 810.783,-742.322"/>
</g>
<!-- Node3 -->
<g id="node3" class="node"><title>Node3</title>
<g id="a_node3"><a xlink:href="../../d3/da9/SimCutParams_8h.html" target="_top" xlink:title="/home/travis/build\l/AliceO2Group/AliceO2\l/Common/SimConfig/include\l/SimConfig/SimCutParams.h">
<polygon fill="none" stroke="black" points="293.5,-564 293.5,-616 436.5,-616 436.5,-564 293.5,-564"/>
<text text-anchor="start" x="301.5" y="-604" font-family="Helvetica,sans-Serif" font-size="10.00">/home/travis/build</text>
<text text-anchor="start" x="301.5" y="-593" font-family="Helvetica,sans-Serif" font-size="10.00">/AliceO2Group/AliceO2</text>
<text text-anchor="start" x="301.5" y="-582" font-family="Helvetica,sans-Serif" font-size="10.00">/Common/SimConfig/include</text>
<text text-anchor="middle" x="365" y="-571" font-family="Helvetica,sans-Serif" font-size="10.00">/SimConfig/SimCutParams.h</text>
</a>
</g>
</g>
<!-- Node1&#45;&gt;Node3 -->
<g id="edge27" class="edge"><title>Node1&#45;&gt;Node3</title>
<path fill="none" stroke="midnightblue" d="M746.841,-757.313C698.779,-746.99 639.173,-731.883 588,-712 520.256,-685.679 447.199,-643.021 403.821,-616.02"/>
<polygon fill="midnightblue" stroke="midnightblue" points="746.407,-760.798 756.914,-759.443 747.855,-753.95 746.407,-760.798"/>
</g>
<!-- Node8 -->
<g id="node8" class="node"><title>Node8</title>
<g id="a_node8"><a xlink:href="../../dc/d6b/o2sim_8C.html" target="_top" xlink:title="/home/travis/build\l/AliceO2Group/AliceO2\l/macro/o2sim.C">
<polygon fill="none" stroke="black" points="164,-234.5 164,-275.5 282,-275.5 282,-234.5 164,-234.5"/>
<text text-anchor="start" x="172" y="-263.5" font-family="Helvetica,sans-Serif" font-size="10.00">/home/travis/build</text>
<text text-anchor="start" x="172" y="-252.5" font-family="Helvetica,sans-Serif" font-size="10.00">/AliceO2Group/AliceO2</text>
<text text-anchor="middle" x="223" y="-241.5" font-family="Helvetica,sans-Serif" font-size="10.00">/macro/o2sim.C</text>
</a>
</g>
</g>
<!-- Node1&#45;&gt;Node8 -->
<g id="edge34" class="edge"><title>Node1&#45;&gt;Node8</title>
<path fill="none" stroke="midnightblue" d="M746.64,-768.172C564.184,-753.919 169,-709.383 169,-591 169,-591 169,-591 169,-410 169,-365.633 171.748,-353.283 188,-312 193.082,-299.092 201.179,-285.875 208.305,-275.526"/>
<polygon fill="midnightblue" stroke="midnightblue" points="746.517,-771.673 756.756,-768.948 747.053,-764.693 746.517,-771.673"/>
</g>
<!-- Node15 -->
<g id="node15" class="node"><title>Node15</title>
<g id="a_node15"><a xlink:href="../../d9/df7/ConfigurableParamHelper_8cxx.html" target="_top" xlink:title="/home/travis/build\l/AliceO2Group/AliceO2\l/Common/SimConfig/src\l/ConfigurableParamHelper.cxx">
<polygon fill="none" stroke="black" points="455,-564 455,-616 605,-616 605,-564 455,-564"/>
<text text-anchor="start" x="463" y="-604" font-family="Helvetica,sans-Serif" font-size="10.00">/home/travis/build</text>
<text text-anchor="start" x="463" y="-593" font-family="Helvetica,sans-Serif" font-size="10.00">/AliceO2Group/AliceO2</text>
<text text-anchor="start" x="463" y="-582" font-family="Helvetica,sans-Serif" font-size="10.00">/Common/SimConfig/src</text>
<text text-anchor="middle" x="530" y="-571" font-family="Helvetica,sans-Serif" font-size="10.00">/ConfigurableParamHelper.cxx</text>
</a>
</g>
</g>
<!-- Node1&#45;&gt;Node15 -->
<g id="edge29" class="edge"><title>Node1&#45;&gt;Node15</title>
<path fill="none" stroke="midnightblue" d="M747.073,-750.456C718.129,-740.831 686.669,-728.104 660,-712 616.45,-685.702 575.034,-643.038 551.093,-616.029"/>
<polygon fill="midnightblue" stroke="midnightblue" points="746.19,-753.849 756.782,-753.602 748.348,-747.19 746.19,-753.849"/>
</g>
<!-- Node16 -->
<g id="node16" class="node"><title>Node16</title>
<g id="a_node16"><a xlink:href="../../d6/d4f/TestConfigurableParam_8cxx.html" target="_top" xlink:title="/home/travis/build\l/AliceO2Group/AliceO2\l/Common/SimConfig/test\l/TestConfigurableParam.cxx">
<polygon fill="none" stroke="black" points="623.5,-564 623.5,-616 764.5,-616 764.5,-564 623.5,-564"/>
<text text-anchor="start" x="631.5" y="-604" font-family="Helvetica,sans-Serif" font-size="10.00">/home/travis/build</text>
<text text-anchor="start" x="631.5" y="-593" font-family="Helvetica,sans-Serif" font-size="10.00">/AliceO2Group/AliceO2</text>
<text text-anchor="start" x="631.5" y="-582" font-family="Helvetica,sans-Serif" font-size="10.00">/Common/SimConfig/test</text>
<text text-anchor="middle" x="694" y="-571" font-family="Helvetica,sans-Serif" font-size="10.00">/TestConfigurableParam.cxx</text>
</a>
</g>
</g>
<!-- Node1&#45;&gt;Node16 -->
<g id="edge30" class="edge"><title>Node1&#45;&gt;Node16</title>
<path fill="none" stroke="midnightblue" d="M747.178,-760.693C718.698,-751.764 690.179,-736.861 673,-712 653.364,-683.584 666.989,-642.678 679.643,-616.468"/>
<polygon fill="midnightblue" stroke="midnightblue" points="746.239,-764.065 756.819,-763.498 748.195,-757.344 746.239,-764.065"/>
</g>
<!-- Node17 -->
<g id="node17" class="node"><title>Node17</title>
<g id="a_node17"><a xlink:href="../../de/d1c/StackParam_8h.html" target="_top" xlink:title="/home/travis/build\l/AliceO2Group/AliceO2\l/DataFormats/simulation\l/include/SimulationDataFormat\l/StackParam.h">
<polygon fill="none" stroke="black" points="782.5,-558.5 782.5,-621.5 933.5,-621.5 933.5,-558.5 782.5,-558.5"/>
<text text-anchor="start" x="790.5" y="-609.5" font-family="Helvetica,sans-Serif" font-size="10.00">/home/travis/build</text>
<text text-anchor="start" x="790.5" y="-598.5" font-family="Helvetica,sans-Serif" font-size="10.00">/AliceO2Group/AliceO2</text>
<text text-anchor="start" x="790.5" y="-587.5" font-family="Helvetica,sans-Serif" font-size="10.00">/DataFormats/simulation</text>
<text text-anchor="start" x="790.5" y="-576.5" font-family="Helvetica,sans-Serif" font-size="10.00">/include/SimulationDataFormat</text>
<text text-anchor="middle" x="858" y="-565.5" font-family="Helvetica,sans-Serif" font-size="10.00">/StackParam.h</text>
</a>
</g>
</g>
<!-- Node1&#45;&gt;Node17 -->
<g id="edge31" class="edge"><title>Node1&#45;&gt;Node17</title>
<path fill="none" stroke="midnightblue" d="M864.879,-740.561C870.671,-731.788 875.94,-721.974 879,-712 888.225,-681.935 879.848,-646.346 871.09,-621.58"/>
<polygon fill="midnightblue" stroke="midnightblue" points="861.865,-738.762 858.975,-748.955 867.591,-742.79 861.865,-738.762"/>
</g>
<!-- Node21 -->
<g id="node21" class="node"><title>Node21</title>
<g id="a_node21"><a xlink:href="../../d9/df5/HallSimParam_8h.html" target="_top" xlink:title="/home/travis/build\l/AliceO2Group/AliceO2\l/Detectors/Passive/include\l/DetectorsPassive/HallSimParam.h">
<polygon fill="none" stroke="black" points="952,-564 952,-616 1124,-616 1124,-564 952,-564"/>
<text text-anchor="start" x="960" y="-604" font-family="Helvetica,sans-Serif" font-size="10.00">/home/travis/build</text>
<text text-anchor="start" x="960" y="-593" font-family="Helvetica,sans-Serif" font-size="10.00">/AliceO2Group/AliceO2</text>
<text text-anchor="start" x="960" y="-582" font-family="Helvetica,sans-Serif" font-size="10.00">/Detectors/Passive/include</text>
<text text-anchor="middle" x="1038" y="-571" font-family="Helvetica,sans-Serif" font-size="10.00">/DetectorsPassive/HallSimParam.h</text>
</a>
</g>
</g>
<!-- Node1&#45;&gt;Node21 -->
<g id="edge32" class="edge"><title>Node1&#45;&gt;Node21</title>
<path fill="none" stroke="midnightblue" d="M870.346,-741.756C894.868,-718.239 929.158,-685.763 960,-658 975.656,-643.907 993.451,-628.571 1008.09,-616.132"/>
<polygon fill="midnightblue" stroke="midnightblue" points="867.85,-739.299 863.063,-748.751 872.7,-744.348 867.85,-739.299"/>
</g>
<!-- Node24 -->
<g id="node24" class="node"><title>Node24</title>
<g id="a_node24"><a xlink:href="../../d8/d6a/InteractionDiamondParam_8h.html" target="_top" xlink:title="/home/travis/build\l/AliceO2Group/AliceO2\l/Generators/include/Generators\l/InteractionDiamondParam.h">
<polygon fill="none" stroke="black" points="1142,-564 1142,-616 1294,-616 1294,-564 1142,-564"/>
<text text-anchor="start" x="1150" y="-604" font-family="Helvetica,sans-Serif" font-size="10.00">/home/travis/build</text>
<text text-anchor="start" x="1150" y="-593" font-family="Helvetica,sans-Serif" font-size="10.00">/AliceO2Group/AliceO2</text>
<text text-anchor="start" x="1150" y="-582" font-family="Helvetica,sans-Serif" font-size="10.00">/Generators/include/Generators</text>
<text text-anchor="middle" x="1218" y="-571" font-family="Helvetica,sans-Serif" font-size="10.00">/InteractionDiamondParam.h</text>
</a>
</g>
</g>
<!-- Node1&#45;&gt;Node24 -->
<g id="edge33" class="edge"><title>Node1&#45;&gt;Node24</title>
<path fill="none" stroke="midnightblue" d="M898.158,-743.998C914.431,-734.762 931.501,-723.867 946,-712 970.622,-691.848 965.927,-674.716 993,-658 1047.67,-624.247 1071.64,-641.029 1133,-622 1138.85,-620.186 1144.89,-618.204 1150.93,-616.15"/>
<polygon fill="midnightblue" stroke="midnightblue" points="896.269,-741.043 889.221,-748.953 899.664,-747.165 896.269,-741.043"/>
</g>
<!-- Node27 -->
<g id="node27" class="node"><title>Node27</title>
<g id="a_node27"><a xlink:href="../../dd/d03/ConfigurableParam_8cxx.html" target="_top" xlink:title="/home/travis/build\l/AliceO2Group/AliceO2\l/Common/SimConfig/src\l/ConfigurableParam.cxx">
<polygon fill="none" stroke="black" points="1002.5,-659 1002.5,-711 1127.5,-711 1127.5,-659 1002.5,-659"/>
<text text-anchor="start" x="1010.5" y="-699" font-family="Helvetica,sans-Serif" font-size="10.00">/home/travis/build</text>
<text text-anchor="start" x="1010.5" y="-688" font-family="Helvetica,sans-Serif" font-size="10.00">/AliceO2Group/AliceO2</text>
<text text-anchor="start" x="1010.5" y="-677" font-family="Helvetica,sans-Serif" font-size="10.00">/Common/SimConfig/src</text>
<text text-anchor="middle" x="1065" y="-666" font-family="Helvetica,sans-Serif" font-size="10.00">/ConfigurableParam.cxx</text>
</a>
</g>
</g>
<!-- Node1&#45;&gt;Node27 -->
<g id="edge28" class="edge"><title>Node1&#45;&gt;Node27</title>
<path fill="none" stroke="midnightblue" d="M911.411,-745.28C940.77,-733.948 974.13,-721.072 1002.24,-710.223"/>
<polygon fill="midnightblue" stroke="midnightblue" points="910.099,-742.034 902.031,-748.901 912.62,-748.565 910.099,-742.034"/>
</g>
<!-- Node28 -->
<g id="node28" class="node"><title>Node28</title>
<g id="a_node28"><a xlink:href="../../dc/d50/O2PrimaryServerDevice_8h.html" target="_top" xlink:title="/home/travis/build\l/AliceO2Group/AliceO2\l/run/O2PrimaryServerDevice.h">
<polygon fill="none" stroke="black" points="1259,-664.5 1259,-705.5 1409,-705.5 1409,-664.5 1259,-664.5"/>
<text text-anchor="start" x="1267" y="-693.5" font-family="Helvetica,sans-Serif" font-size="10.00">/home/travis/build</text>
<text text-anchor="start" x="1267" y="-682.5" font-family="Helvetica,sans-Serif" font-size="10.00">/AliceO2Group/AliceO2</text>
<text text-anchor="middle" x="1334" y="-671.5" font-family="Helvetica,sans-Serif" font-size="10.00">/run/O2PrimaryServerDevice.h</text>
</a>
</g>
</g>
<!-- Node1&#45;&gt;Node28 -->
<g id="edge35" class="edge"><title>Node1&#45;&gt;Node28</title>
<path fill="none" stroke="midnightblue" d="M927.007,-758.063C1021.99,-741.245 1169.99,-715.04 1258.91,-699.295"/>
<polygon fill="midnightblue" stroke="midnightblue" points="926.364,-754.622 917.128,-759.812 927.585,-761.515 926.364,-754.622"/>
</g>
<!-- Node2&#45;&gt;Node3 -->
<g id="edge2" class="edge"><title>Node2&#45;&gt;Node3</title>
<path fill="none" stroke="midnightblue" d="M671.87,-669.355C606.358,-658.935 520.43,-643.05 446,-622 439.77,-620.238 433.347,-618.193 426.973,-616.011"/>
<polygon fill="midnightblue" stroke="midnightblue" points="671.37,-672.819 681.793,-670.916 672.459,-665.904 671.37,-672.819"/>
</g>
<!-- Node2&#45;&gt;Node15 -->
<g id="edge15" class="edge"><title>Node2&#45;&gt;Node15</title>
<path fill="none" stroke="midnightblue" d="M700.099,-655.306C666.928,-642.765 628.374,-628.19 596.365,-616.089"/>
<polygon fill="midnightblue" stroke="midnightblue" points="699.161,-658.693 709.753,-658.955 701.637,-652.145 699.161,-658.693"/>
</g>
<!-- Node2&#45;&gt;Node16 -->
<g id="edge16" class="edge"><title>Node2&#45;&gt;Node16</title>
<path fill="none" stroke="midnightblue" d="M746.797,-650.879C736.689,-639.416 725.537,-626.767 716.096,-616.06"/>
<polygon fill="midnightblue" stroke="midnightblue" points="744.354,-653.401 753.593,-658.587 749.605,-648.772 744.354,-653.401"/>
</g>
<!-- Node2&#45;&gt;Node17 -->
<g id="edge17" class="edge"><title>Node2&#45;&gt;Node17</title>
<path fill="none" stroke="midnightblue" d="M805.241,-650.836C813.619,-641.335 822.712,-631.022 830.951,-621.677"/>
<polygon fill="midnightblue" stroke="midnightblue" points="802.395,-648.772 798.407,-658.587 807.646,-653.401 802.395,-648.772"/>
</g>
<!-- Node2&#45;&gt;Node21 -->
<g id="edge21" class="edge"><title>Node2&#45;&gt;Node21</title>
<path fill="none" stroke="midnightblue" d="M856.384,-655.467C891.814,-642.89 933.082,-628.242 967.318,-616.089"/>
<polygon fill="midnightblue" stroke="midnightblue" points="854.809,-652.312 846.556,-658.955 857.151,-658.909 854.809,-652.312"/>
</g>
<!-- Node2&#45;&gt;Node24 -->
<g id="edge24" class="edge"><title>Node2&#45;&gt;Node24</title>
<path fill="none" stroke="midnightblue" d="M880.118,-668.021C967.913,-654.158 1086.47,-634.419 1133,-622 1139.53,-620.258 1146.26,-618.227 1152.94,-616.052"/>
<polygon fill="midnightblue" stroke="midnightblue" points="879.444,-664.584 870.111,-669.596 880.533,-671.498 879.444,-664.584"/>
</g>
<!-- Node4 -->
<g id="node4" class="node"><title>Node4</title>
<g id="a_node4"><a xlink:href="../../d6/dd8/SimCutParams_8cxx.html" target="_top" xlink:title="/home/travis/build\l/AliceO2Group/AliceO2\l/Common/SimConfig/src\l/SimCutParams.cxx">
<polygon fill="none" stroke="black" points="399.5,-469 399.5,-521 524.5,-521 524.5,-469 399.5,-469"/>
<text text-anchor="start" x="407.5" y="-509" font-family="Helvetica,sans-Serif" font-size="10.00">/home/travis/build</text>
<text text-anchor="start" x="407.5" y="-498" font-family="Helvetica,sans-Serif" font-size="10.00">/AliceO2Group/AliceO2</text>
<text text-anchor="start" x="407.5" y="-487" font-family="Helvetica,sans-Serif" font-size="10.00">/Common/SimConfig/src</text>
<text text-anchor="middle" x="462" y="-476" font-family="Helvetica,sans-Serif" font-size="10.00">/SimCutParams.cxx</text>
</a>
</g>
</g>
<!-- Node3&#45;&gt;Node4 -->
<g id="edge3" class="edge"><title>Node3&#45;&gt;Node4</title>
<path fill="none" stroke="midnightblue" d="M398.607,-556.779C410.761,-545.126 424.297,-532.148 435.729,-521.187"/>
<polygon fill="midnightblue" stroke="midnightblue" points="396.046,-554.386 391.25,-563.833 400.89,-559.439 396.046,-554.386"/>
</g>
<!-- Node5 -->
<g id="node5" class="node"><title>Node5</title>
<g id="a_node5"><a xlink:href="../../df/de2/O2MCApplicationBase_8h.html" target="_top" xlink:title="/home/travis/build\l/AliceO2Group/AliceO2\l/Steer/include/Steer/O2MCApplication\lBase.h">
<polygon fill="none" stroke="black" points="199,-469 199,-521 381,-521 381,-469 199,-469"/>
<text text-anchor="start" x="207" y="-509" font-family="Helvetica,sans-Serif" font-size="10.00">/home/travis/build</text>
<text text-anchor="start" x="207" y="-498" font-family="Helvetica,sans-Serif" font-size="10.00">/AliceO2Group/AliceO2</text>
<text text-anchor="start" x="207" y="-487" font-family="Helvetica,sans-Serif" font-size="10.00">/Steer/include/Steer/O2MCApplication</text>
<text text-anchor="middle" x="290" y="-476" font-family="Helvetica,sans-Serif" font-size="10.00">Base.h</text>
</a>
</g>
</g>
<!-- Node3&#45;&gt;Node5 -->
<g id="edge4" class="edge"><title>Node3&#45;&gt;Node5</title>
<path fill="none" stroke="midnightblue" d="M338.023,-555.548C328.849,-544.173 318.761,-531.664 310.21,-521.06"/>
<polygon fill="midnightblue" stroke="midnightblue" points="335.504,-558 344.506,-563.587 340.953,-553.606 335.504,-558"/>
</g>
<!-- Node6 -->
<g id="node6" class="node"><title>Node6</title>
<g id="a_node6"><a xlink:href="../../df/d82/O2MCApplication_8h.html" target="_top" xlink:title="/home/travis/build\l/AliceO2Group/AliceO2\l/Steer/include/Steer/O2MCApplication.h">
<polygon fill="none" stroke="black" points="197.5,-390.5 197.5,-431.5 388.5,-431.5 388.5,-390.5 197.5,-390.5"/>
<text text-anchor="start" x="205.5" y="-419.5" font-family="Helvetica,sans-Serif" font-size="10.00">/home/travis/build</text>
<text text-anchor="start" x="205.5" y="-408.5" font-family="Helvetica,sans-Serif" font-size="10.00">/AliceO2Group/AliceO2</text>
<text text-anchor="middle" x="293" y="-397.5" font-family="Helvetica,sans-Serif" font-size="10.00">/Steer/include/Steer/O2MCApplication.h</text>
</a>
</g>
</g>
<!-- Node5&#45;&gt;Node6 -->
<g id="edge5" class="edge"><title>Node5&#45;&gt;Node6</title>
<path fill="none" stroke="midnightblue" d="M291.289,-458.76C291.628,-449.491 291.982,-439.821 292.279,-431.696"/>
<polygon fill="midnightblue" stroke="midnightblue" points="287.784,-458.83 290.916,-468.952 294.78,-459.086 287.784,-458.83"/>
</g>
<!-- Node7 -->
<g id="node7" class="node"><title>Node7</title>
<g id="a_node7"><a xlink:href="../../d9/d9b/O2RunSim_8h.html" target="_top" xlink:title="/home/travis/build\l/AliceO2Group/AliceO2\l/Steer/include/Steer/O2RunSim.h">
<polygon fill="none" stroke="black" points="197,-312.5 197,-353.5 359,-353.5 359,-312.5 197,-312.5"/>
<text text-anchor="start" x="205" y="-341.5" font-family="Helvetica,sans-Serif" font-size="10.00">/home/travis/build</text>
<text text-anchor="start" x="205" y="-330.5" font-family="Helvetica,sans-Serif" font-size="10.00">/AliceO2Group/AliceO2</text>
<text text-anchor="middle" x="278" y="-319.5" font-family="Helvetica,sans-Serif" font-size="10.00">/Steer/include/Steer/O2RunSim.h</text>
</a>
</g>
</g>
<!-- Node6&#45;&gt;Node7 -->
<g id="edge6" class="edge"><title>Node6&#45;&gt;Node7</title>
<path fill="none" stroke="midnightblue" d="M287.195,-380.59C285.403,-371.511 283.475,-361.742 281.85,-353.506"/>
<polygon fill="midnightblue" stroke="midnightblue" points="283.767,-381.295 289.137,-390.428 290.634,-379.94 283.767,-381.295"/>
</g>
<!-- Node14 -->
<g id="node14" class="node"><title>Node14</title>
<g id="a_node14"><a xlink:href="../../df/d3b/O2MCApplication_8cxx.html" target="_top" xlink:title="/home/travis/build\l/AliceO2Group/AliceO2\l/Steer/src/O2MCApplication.cxx">
<polygon fill="none" stroke="black" points="377,-312.5 377,-353.5 535,-353.5 535,-312.5 377,-312.5"/>
<text text-anchor="start" x="385" y="-341.5" font-family="Helvetica,sans-Serif" font-size="10.00">/home/travis/build</text>
<text text-anchor="start" x="385" y="-330.5" font-family="Helvetica,sans-Serif" font-size="10.00">/AliceO2Group/AliceO2</text>
<text text-anchor="middle" x="456" y="-319.5" font-family="Helvetica,sans-Serif" font-size="10.00">/Steer/src/O2MCApplication.cxx</text>
</a>
</g>
</g>
<!-- Node6&#45;&gt;Node14 -->
<g id="edge14" class="edge"><title>Node6&#45;&gt;Node14</title>
<path fill="none" stroke="midnightblue" d="M344.068,-386.189C366.618,-375.675 392.797,-363.469 414.166,-353.506"/>
<polygon fill="midnightblue" stroke="midnightblue" points="342.561,-383.03 334.977,-390.428 345.519,-389.374 342.561,-383.03"/>
</g>
<!-- Node7&#45;&gt;Node8 -->
<g id="edge7" class="edge"><title>Node7&#45;&gt;Node8</title>
<path fill="none" stroke="midnightblue" d="M257.771,-304.048C250.909,-294.566 243.397,-284.185 237.116,-275.506"/>
<polygon fill="midnightblue" stroke="midnightblue" points="255.138,-306.379 263.836,-312.428 260.809,-302.275 255.138,-306.379"/>
</g>
<!-- Node9 -->
<g id="node9" class="node"><title>Node9</title>
<g id="a_node9"><a xlink:href="../../db/d82/O2SimDevice_8h.html" target="_top" xlink:title="/home/travis/build\l/AliceO2Group/AliceO2\l/run/O2SimDevice.h">
<polygon fill="none" stroke="black" points="96,-156.5 96,-197.5 214,-197.5 214,-156.5 96,-156.5"/>
<text text-anchor="start" x="104" y="-185.5" font-family="Helvetica,sans-Serif" font-size="10.00">/home/travis/build</text>
<text text-anchor="start" x="104" y="-174.5" font-family="Helvetica,sans-Serif" font-size="10.00">/AliceO2Group/AliceO2</text>
<text text-anchor="middle" x="155" y="-163.5" font-family="Helvetica,sans-Serif" font-size="10.00">/run/O2SimDevice.h</text>
</a>
</g>
</g>
<!-- Node8&#45;&gt;Node9 -->
<g id="edge8" class="edge"><title>Node8&#45;&gt;Node9</title>
<path fill="none" stroke="midnightblue" d="M198.767,-226.916C190.076,-217.203 180.455,-206.45 172.452,-197.506"/>
<polygon fill="midnightblue" stroke="midnightblue" points="196.212,-229.309 205.488,-234.428 201.429,-224.642 196.212,-229.309"/>
</g>
<!-- Node13 -->
<g id="node13" class="node"><title>Node13</title>
<g id="a_node13"><a xlink:href="../../d8/d07/o2sim_8cxx.html" target="_top" xlink:title="/home/travis/build\l/AliceO2Group/AliceO2\l/run/o2sim.cxx">
<polygon fill="none" stroke="black" points="232,-156.5 232,-197.5 350,-197.5 350,-156.5 232,-156.5"/>
<text text-anchor="start" x="240" y="-185.5" font-family="Helvetica,sans-Serif" font-size="10.00">/home/travis/build</text>
<text text-anchor="start" x="240" y="-174.5" font-family="Helvetica,sans-Serif" font-size="10.00">/AliceO2Group/AliceO2</text>
<text text-anchor="middle" x="291" y="-163.5" font-family="Helvetica,sans-Serif" font-size="10.00">/run/o2sim.cxx</text>
</a>
</g>
</g>
<!-- Node8&#45;&gt;Node13 -->
<g id="edge13" class="edge"><title>Node8&#45;&gt;Node13</title>
<path fill="none" stroke="midnightblue" d="M247.233,-226.916C255.924,-217.203 265.545,-206.45 273.548,-197.506"/>
<polygon fill="midnightblue" stroke="midnightblue" points="244.571,-224.642 240.512,-234.428 249.788,-229.309 244.571,-224.642"/>
</g>
<!-- Node10 -->
<g id="node10" class="node"><title>Node10</title>
<g id="a_node10"><a xlink:href="../../db/d50/O2HitMerger_8h.html" target="_top" xlink:title="/home/travis/build\l/AliceO2Group/AliceO2\l/run/O2HitMerger.h">
<polygon fill="none" stroke="black" points="12,-78.5 12,-119.5 130,-119.5 130,-78.5 12,-78.5"/>
<text text-anchor="start" x="20" y="-107.5" font-family="Helvetica,sans-Serif" font-size="10.00">/home/travis/build</text>
<text text-anchor="start" x="20" y="-96.5" font-family="Helvetica,sans-Serif" font-size="10.00">/AliceO2Group/AliceO2</text>
<text text-anchor="middle" x="71" y="-85.5" font-family="Helvetica,sans-Serif" font-size="10.00">/run/O2HitMerger.h</text>
</a>
</g>
</g>
<!-- Node9&#45;&gt;Node10 -->
<g id="edge9" class="edge"><title>Node9&#45;&gt;Node10</title>
<path fill="none" stroke="midnightblue" d="M125.701,-149.492C114.801,-139.629 102.641,-128.627 92.5588,-119.506"/>
<polygon fill="midnightblue" stroke="midnightblue" points="123.604,-152.314 133.368,-156.428 128.301,-147.124 123.604,-152.314"/>
</g>
<!-- Node12 -->
<g id="node12" class="node"><title>Node12</title>
<g id="a_node12"><a xlink:href="../../d6/da5/O2SimDeviceRunner_8cxx.html" target="_top" xlink:title="/home/travis/build\l/AliceO2Group/AliceO2\l/run/O2SimDeviceRunner.cxx">
<polygon fill="none" stroke="black" points="166.5,-78.5 166.5,-119.5 313.5,-119.5 313.5,-78.5 166.5,-78.5"/>
<text text-anchor="start" x="174.5" y="-107.5" font-family="Helvetica,sans-Serif" font-size="10.00">/home/travis/build</text>
<text text-anchor="start" x="174.5" y="-96.5" font-family="Helvetica,sans-Serif" font-size="10.00">/AliceO2Group/AliceO2</text>
<text text-anchor="middle" x="240" y="-85.5" font-family="Helvetica,sans-Serif" font-size="10.00">/run/O2SimDeviceRunner.cxx</text>
</a>
</g>
</g>
<!-- Node9&#45;&gt;Node12 -->
<g id="edge12" class="edge"><title>Node9&#45;&gt;Node12</title>
<path fill="none" stroke="midnightblue" d="M184.648,-149.492C195.678,-139.629 207.983,-128.627 218.185,-119.506"/>
<polygon fill="midnightblue" stroke="midnightblue" points="182.011,-147.154 176.89,-156.428 186.677,-152.372 182.011,-147.154"/>
</g>
<!-- Node10&#45;&gt;Node10 -->
<g id="edge10" class="edge"><title>Node10&#45;&gt;Node10</title>
<path fill="none" stroke="midnightblue" d="M140.027,-109.753C144.975,-107.318 148,-103.733 148,-99 148,-91.6113 140.63,-87.0223 130.079,-85.2328"/>
<polygon fill="midnightblue" stroke="midnightblue" points="138.635,-106.518 130.079,-112.767 140.664,-113.217 138.635,-106.518"/>
</g>
<!-- Node11 -->
<g id="node11" class="node"><title>Node11</title>
<g id="a_node11"><a xlink:href="../../d9/d16/O2HitMergerRunner_8cxx.html" target="_top" xlink:title="/home/travis/build\l/AliceO2Group/AliceO2\l/run/O2HitMergerRunner.cxx">
<polygon fill="none" stroke="black" points="0,-0.5 0,-41.5 142,-41.5 142,-0.5 0,-0.5"/>
<text text-anchor="start" x="8" y="-29.5" font-family="Helvetica,sans-Serif" font-size="10.00">/home/travis/build</text>
<text text-anchor="start" x="8" y="-18.5" font-family="Helvetica,sans-Serif" font-size="10.00">/AliceO2Group/AliceO2</text>
<text text-anchor="middle" x="71" y="-7.5" font-family="Helvetica,sans-Serif" font-size="10.00">/run/O2HitMergerRunner.cxx</text>
</a>
</g>
</g>
<!-- Node10&#45;&gt;Node11 -->
<g id="edge11" class="edge"><title>Node10&#45;&gt;Node11</title>
<path fill="none" stroke="midnightblue" d="M71,-68.2965C71,-59.3009 71,-49.6532 71,-41.5056"/>
<polygon fill="midnightblue" stroke="midnightblue" points="67.5001,-68.4281 71,-78.4281 74.5001,-68.4281 67.5001,-68.4281"/>
</g>
<!-- Node18 -->
<g id="node18" class="node"><title>Node18</title>
<g id="a_node18"><a xlink:href="../../da/dc3/StackParam_8cxx.html" target="_top" xlink:title="/home/travis/build\l/AliceO2Group/AliceO2\l/DataFormats/simulation\l/src/StackParam.cxx">
<polygon fill="none" stroke="black" points="543,-469 543,-521 667,-521 667,-469 543,-469"/>
<text text-anchor="start" x="551" y="-509" font-family="Helvetica,sans-Serif" font-size="10.00">/home/travis/build</text>
<text text-anchor="start" x="551" y="-498" font-family="Helvetica,sans-Serif" font-size="10.00">/AliceO2Group/AliceO2</text>
<text text-anchor="start" x="551" y="-487" font-family="Helvetica,sans-Serif" font-size="10.00">/DataFormats/simulation</text>
<text text-anchor="middle" x="605" y="-476" font-family="Helvetica,sans-Serif" font-size="10.00">/src/StackParam.cxx</text>
</a>
</g>
</g>
<!-- Node17&#45;&gt;Node18 -->
<g id="edge18" class="edge"><title>Node17&#45;&gt;Node18</title>
<path fill="none" stroke="midnightblue" d="M772.832,-557.693C738.32,-545.007 699.196,-530.626 667.41,-518.941"/>
<polygon fill="midnightblue" stroke="midnightblue" points="771.841,-561.058 782.434,-561.223 774.256,-554.488 771.841,-561.058"/>
</g>
<!-- Node19 -->
<g id="node19" class="node"><title>Node19</title>
<g id="a_node19"><a xlink:href="../../d6/db7/G3Config_8cxx.html" target="_top" xlink:title="/home/travis/build\l/AliceO2Group/AliceO2\l/Detectors/gconfig/src\l/G3Config.cxx">
<polygon fill="none" stroke="black" points="685,-469 685,-521 803,-521 803,-469 685,-469"/>
<text text-anchor="start" x="693" y="-509" font-family="Helvetica,sans-Serif" font-size="10.00">/home/travis/build</text>
<text text-anchor="start" x="693" y="-498" font-family="Helvetica,sans-Serif" font-size="10.00">/AliceO2Group/AliceO2</text>
<text text-anchor="start" x="693" y="-487" font-family="Helvetica,sans-Serif" font-size="10.00">/Detectors/gconfig/src</text>
<text text-anchor="middle" x="744" y="-476" font-family="Helvetica,sans-Serif" font-size="10.00">/G3Config.cxx</text>
</a>
</g>
</g>
<!-- Node17&#45;&gt;Node19 -->
<g id="edge19" class="edge"><title>Node17&#45;&gt;Node19</title>
<path fill="none" stroke="midnightblue" d="M812.581,-551.947C799.889,-541.593 786.397,-530.587 774.768,-521.1"/>
<polygon fill="midnightblue" stroke="midnightblue" points="810.395,-554.681 820.356,-558.291 814.82,-549.257 810.395,-554.681"/>
</g>
<!-- Node20 -->
<g id="node20" class="node"><title>Node20</title>
<g id="a_node20"><a xlink:href="../../d4/d6b/G4Config_8cxx.html" target="_top" xlink:title="/home/travis/build\l/AliceO2Group/AliceO2\l/Detectors/gconfig/src\l/G4Config.cxx">
<polygon fill="none" stroke="black" points="821,-469 821,-521 939,-521 939,-469 821,-469"/>
<text text-anchor="start" x="829" y="-509" font-family="Helvetica,sans-Serif" font-size="10.00">/home/travis/build</text>
<text text-anchor="start" x="829" y="-498" font-family="Helvetica,sans-Serif" font-size="10.00">/AliceO2Group/AliceO2</text>
<text text-anchor="start" x="829" y="-487" font-family="Helvetica,sans-Serif" font-size="10.00">/Detectors/gconfig/src</text>
<text text-anchor="middle" x="880" y="-476" font-family="Helvetica,sans-Serif" font-size="10.00">/G4Config.cxx</text>
</a>
</g>
</g>
<!-- Node17&#45;&gt;Node20 -->
<g id="edge20" class="edge"><title>Node17&#45;&gt;Node20</title>
<path fill="none" stroke="midnightblue" d="M867.602,-548.409C869.799,-539.121 872.072,-529.513 874.062,-521.1"/>
<polygon fill="midnightblue" stroke="midnightblue" points="864.161,-547.753 865.265,-558.291 870.973,-549.365 864.161,-547.753"/>
</g>
<!-- Node22 -->
<g id="node22" class="node"><title>Node22</title>
<g id="a_node22"><a xlink:href="../../da/d60/Hall_8cxx.html" target="_top" xlink:title="/home/travis/build\l/AliceO2Group/AliceO2\l/Detectors/Passive/src\l/Hall.cxx">
<polygon fill="none" stroke="black" points="957,-469 957,-521 1075,-521 1075,-469 957,-469"/>
<text text-anchor="start" x="965" y="-509" font-family="Helvetica,sans-Serif" font-size="10.00">/home/travis/build</text>
<text text-anchor="start" x="965" y="-498" font-family="Helvetica,sans-Serif" font-size="10.00">/AliceO2Group/AliceO2</text>
<text text-anchor="start" x="965" y="-487" font-family="Helvetica,sans-Serif" font-size="10.00">/Detectors/Passive/src</text>
<text text-anchor="middle" x="1016" y="-476" font-family="Helvetica,sans-Serif" font-size="10.00">/Hall.cxx</text>
</a>
</g>
</g>
<!-- Node21&#45;&gt;Node22 -->
<g id="edge22" class="edge"><title>Node21&#45;&gt;Node22</title>
<path fill="none" stroke="midnightblue" d="M1029.61,-553.549C1027.05,-542.722 1024.29,-531.046 1021.93,-521.06"/>
<polygon fill="midnightblue" stroke="midnightblue" points="1026.28,-554.662 1031.99,-563.587 1033.09,-553.05 1026.28,-554.662"/>
</g>
<!-- Node23 -->
<g id="node23" class="node"><title>Node23</title>
<g id="a_node23"><a xlink:href="../../d9/dde/HallSimParam_8cxx.html" target="_top" xlink:title="/home/travis/build\l/AliceO2Group/AliceO2\l/Detectors/Passive/src\l/HallSimParam.cxx">
<polygon fill="none" stroke="black" points="1093,-469 1093,-521 1211,-521 1211,-469 1093,-469"/>
<text text-anchor="start" x="1101" y="-509" font-family="Helvetica,sans-Serif" font-size="10.00">/home/travis/build</text>
<text text-anchor="start" x="1101" y="-498" font-family="Helvetica,sans-Serif" font-size="10.00">/AliceO2Group/AliceO2</text>
<text text-anchor="start" x="1101" y="-487" font-family="Helvetica,sans-Serif" font-size="10.00">/Detectors/Passive/src</text>
<text text-anchor="middle" x="1152" y="-476" font-family="Helvetica,sans-Serif" font-size="10.00">/HallSimParam.cxx</text>
</a>
</g>
</g>
<!-- Node21&#45;&gt;Node23 -->
<g id="edge23" class="edge"><title>Node21&#45;&gt;Node23</title>
<path fill="none" stroke="midnightblue" d="M1076.69,-557.437C1091.18,-545.616 1107.44,-532.355 1121.13,-521.187"/>
<polygon fill="midnightblue" stroke="midnightblue" points="1074.39,-554.8 1068.85,-563.833 1078.81,-560.224 1074.39,-554.8"/>
</g>
<!-- Node25 -->
<g id="node25" class="node"><title>Node25</title>
<g id="a_node25"><a xlink:href="../../d9/d9d/InteractionDiamondParam_8cxx.html" target="_top" xlink:title="/home/travis/build\l/AliceO2Group/AliceO2\l/Generators/src/InteractionDiamond\lParam.cxx">
<polygon fill="none" stroke="black" points="1229,-469 1229,-521 1401,-521 1401,-469 1229,-469"/>
<text text-anchor="start" x="1237" y="-509" font-family="Helvetica,sans-Serif" font-size="10.00">/home/travis/build</text>
<text text-anchor="start" x="1237" y="-498" font-family="Helvetica,sans-Serif" font-size="10.00">/AliceO2Group/AliceO2</text>
<text text-anchor="start" x="1237" y="-487" font-family="Helvetica,sans-Serif" font-size="10.00">/Generators/src/InteractionDiamond</text>
<text text-anchor="middle" x="1315" y="-476" font-family="Helvetica,sans-Serif" font-size="10.00">Param.cxx</text>
</a>
</g>
</g>
<!-- Node24&#45;&gt;Node25 -->
<g id="edge25" class="edge"><title>Node24&#45;&gt;Node25</title>
<path fill="none" stroke="midnightblue" d="M1251.61,-556.779C1263.76,-545.126 1277.3,-532.148 1288.73,-521.187"/>
<polygon fill="midnightblue" stroke="midnightblue" points="1249.05,-554.386 1244.25,-563.833 1253.89,-559.439 1249.05,-554.386"/>
</g>
<!-- Node26 -->
<g id="node26" class="node"><title>Node26</title>
<g id="a_node26"><a xlink:href="../../dc/d20/PrimaryGenerator_8cxx.html" target="_top" xlink:title="/home/travis/build\l/AliceO2Group/AliceO2\l/Generators/src/PrimaryGenerator.cxx">
<polygon fill="none" stroke="black" points="1419,-474.5 1419,-515.5 1601,-515.5 1601,-474.5 1419,-474.5"/>
<text text-anchor="start" x="1427" y="-503.5" font-family="Helvetica,sans-Serif" font-size="10.00">/home/travis/build</text>
<text text-anchor="start" x="1427" y="-492.5" font-family="Helvetica,sans-Serif" font-size="10.00">/AliceO2Group/AliceO2</text>
<text text-anchor="middle" x="1510" y="-481.5" font-family="Helvetica,sans-Serif" font-size="10.00">/Generators/src/PrimaryGenerator.cxx</text>
</a>
</g>
</g>
<!-- Node24&#45;&gt;Node26 -->
<g id="edge26" class="edge"><title>Node24&#45;&gt;Node26</title>
<path fill="none" stroke="midnightblue" d="M1295.2,-560.625C1297.83,-559.729 1300.43,-558.852 1303,-558 1348.75,-542.819 1400.73,-527.257 1441.15,-515.521"/>
<polygon fill="midnightblue" stroke="midnightblue" points="1293.92,-557.363 1285.61,-563.936 1296.21,-563.979 1293.92,-557.363"/>
</g>
<!-- Node29 -->
<g id="node29" class="node"><title>Node29</title>
<g id="a_node29"><a xlink:href="../../db/d8f/O2PrimaryServerDeviceRunner_8cxx.html" target="_top" xlink:title="/home/travis/build\l/AliceO2Group/AliceO2\l/run/O2PrimaryServerDeviceRunner.cxx">
<polygon fill="none" stroke="black" points="1312,-569.5 1312,-610.5 1504,-610.5 1504,-569.5 1312,-569.5"/>
<text text-anchor="start" x="1320" y="-598.5" font-family="Helvetica,sans-Serif" font-size="10.00">/home/travis/build</text>
<text text-anchor="start" x="1320" y="-587.5" font-family="Helvetica,sans-Serif" font-size="10.00">/AliceO2Group/AliceO2</text>
<text text-anchor="middle" x="1408" y="-576.5" font-family="Helvetica,sans-Serif" font-size="10.00">/run/O2PrimaryServerDeviceRunner.cxx</text>
</a>
</g>
</g>
<!-- Node28&#45;&gt;Node29 -->
<g id="edge36" class="edge"><title>Node28&#45;&gt;Node29</title>
<path fill="none" stroke="midnightblue" d="M1356.23,-656.06C1367.87,-641.436 1381.84,-623.881 1392.33,-610.694"/>
<polygon fill="midnightblue" stroke="midnightblue" points="1353.18,-654.273 1349.69,-664.277 1358.66,-658.631 1353.18,-654.273"/>
</g>
</g>
</svg>
        <g id="navigator" transform="translate(0 0)" fill="#404254">
                <rect fill="#f2f5e9" fill-opacity="0.5" stroke="#606060" stroke-width=".5" x="0" y="0" width="60" height="60"/>
                <use id="zoomplus" xlink:href="#zoomPlus" x="17" y="9" onmousedown="handleZoom(evt,'in')"/>
                <use id="zoomminus" xlink:href="#zoomMin" x="42" y="9" onmousedown="handleZoom(evt,'out')"/>
                <use id="reset" xlink:href="#resetDef" x="30" y="36" onmousedown="handleReset()"/>
                <g id="arrowUp" xlink:href="#dirArrow" transform="translate(30 24)" onmousedown="handlePan(0,-1)">
                  <use xlink:href="#rim" fill="#404040">
                        <set attributeName="fill" to="#808080" begin="arrowUp.mouseover" end="arrowUp.mouseout"/>
                  </use>
                  <path fill="none" stroke="white" stroke-width="1.5" d="M0,-3.0v7 M-2.5,-0.5L0,-3.0L2.5,-0.5"/>
                </g>
                <g id="arrowRight" xlink:href="#dirArrow" transform="rotate(90) translate(36 -43)" onmousedown="handlePan(1,0)">
                  <use xlink:href="#rim" fill="#404040">
                        <set attributeName="fill" to="#808080" begin="arrowRight.mouseover" end="arrowRight.mouseout"/>
                  </use>
                  <path fill="none" stroke="white" stroke-width="1.5" d="M0,-3.0v7 M-2.5,-0.5L0,-3.0L2.5,-0.5"/>
                </g>
                <g id="arrowDown" xlink:href="#dirArrow" transform="rotate(180) translate(-30 -48)" onmousedown="handlePan(0,1)">
                  <use xlink:href="#rim" fill="#404040">
                        <set attributeName="fill" to="#808080" begin="arrowDown.mouseover" end="arrowDown.mouseout"/>
                  </use>
                  <path fill="none" stroke="white" stroke-width="1.5" d="M0,-3.0v7 M-2.5,-0.5L0,-3.0L2.5,-0.5"/>
                </g>
                <g id="arrowLeft" xlink:href="#dirArrow" transform="rotate(270) translate(-36 17)" onmousedown="handlePan(-1,0)">
                  <use xlink:href="#rim" fill="#404040">
                        <set attributeName="fill" to="#808080" begin="arrowLeft.mouseover" end="arrowLeft.mouseout"/>
                  </use>
                  <path fill="none" stroke="white" stroke-width="1.5" d="M0,-3.0v7 M-2.5,-0.5L0,-3.0L2.5,-0.5"/>
                </g>
        </g>
        <svg viewBox="0 0 15 15" width="100%" height="30px" preserveAspectRatio="xMaxYMin meet">
         <g id="arrow_out" transform="scale(0.3 0.3)">
          <a xlink:href="ConfigurableParam_8h__dep__incl_org.svg" target="_base">
           <rect id="button" ry="5" rx="5" y="6" x="6" height="38" width="38"
                fill="#f2f5e9" fill-opacity="0.5" stroke="#606060" stroke-width="1.0"/>
           <path id="arrow"
             d="M 11.500037,31.436501 C 11.940474,20.09759 22.043105,11.32322 32.158766,21.979434 L 37.068811,17.246167 C 37.068811,17.246167 37.088388,32 37.088388,32 L 22.160133,31.978069 C 22.160133,31.978069 26.997745,27.140456 26.997745,27.140456 C 18.528582,18.264221 13.291696,25.230495 11.500037,31.436501 z"
             style="fill:#404040;"/>
          </a>
         </g>
        </svg>
</svg>
