<?xml version="1.0" encoding="UTF-8" standalone="no"?>
<!DOCTYPE svg PUBLIC "-//W3C//DTD SVG 1.1//EN"
 "http://www.w3.org/Graphics/SVG/1.1/DTD/svg11.dtd">
<!-- Generated by graphviz version 2.36.0 (20140111.2315)
 -->
<!-- Title: /home/travis/build/AliceO2Group/AliceO2/Detectors/FIT/base/include/FITBase/Geometry.h Pages: 1 -->
<svg width="780pt" height="432pt"
 viewBox="0.00 0.00 780.00 432.00" xmlns="http://www.w3.org/2000/svg" xmlns:xlink="http://www.w3.org/1999/xlink">
<g id="graph0" class="graph" transform="scale(1 1) rotate(0) translate(4 428)">
<title>/home/travis/build/AliceO2Group/AliceO2/Detectors/FIT/base/include/FITBase/Geometry.h</title>
<!-- Node1 -->
<g id="node1" class="node"><title>Node1</title>
<polygon fill="#bfbfbf" stroke="black" points="236,-371 236,-423 374,-423 374,-371 236,-371"/>
<text text-anchor="start" x="244" y="-411" font-family="Helvetica,sans-Serif" font-size="10.00">/home/travis/build</text>
<text text-anchor="start" x="244" y="-400" font-family="Helvetica,sans-Serif" font-size="10.00">/AliceO2Group/AliceO2</text>
<text text-anchor="start" x="244" y="-389" font-family="Helvetica,sans-Serif" font-size="10.00">/Detectors/FIT/base/include</text>
<text text-anchor="middle" x="305" y="-378" font-family="Helvetica,sans-Serif" font-size="10.00">/FITBase/Geometry.h</text>
</g>
<!-- Node2 -->
<g id="node2" class="node"><title>Node2</title>
<g id="a_node2"><a xlink:href="../../de/db4/FIT_2base_2src_2Geometry_8cxx.html" target="_top" xlink:title="/home/travis/build\l/AliceO2Group/AliceO2\l/Detectors/FIT/base/src\l/Geometry.cxx">
<polygon fill="none" stroke="black" points="7.5,-281 7.5,-333 128.5,-333 128.5,-281 7.5,-281"/>
<text text-anchor="start" x="15.5" y="-321" font-family="Helvetica,sans-Serif" font-size="10.00">/home/travis/build</text>
<text text-anchor="start" x="15.5" y="-310" font-family="Helvetica,sans-Serif" font-size="10.00">/AliceO2Group/AliceO2</text>
<text text-anchor="start" x="15.5" y="-299" font-family="Helvetica,sans-Serif" font-size="10.00">/Detectors/FIT/base/src</text>
<text text-anchor="middle" x="68" y="-288" font-family="Helvetica,sans-Serif" font-size="10.00">/Geometry.cxx</text>
</a>
</g>
</g>
<!-- Node1&#45;&gt;Node2 -->
<g id="edge1" class="edge"><title>Node1&#45;&gt;Node2</title>
<path fill="none" stroke="midnightblue" d="M227.235,-367.427C198.825,-356.954 166.443,-344.98 137,-334 134.241,-332.971 131.421,-331.917 128.573,-330.851"/>
<polygon fill="midnightblue" stroke="midnightblue" points="226.115,-370.744 236.708,-370.917 228.535,-364.175 226.115,-370.744"/>
</g>
<!-- Node3 -->
<g id="node3" class="node"><title>Node3</title>
<g id="a_node3"><a xlink:href="../../d3/d21/RecPoints_8cxx.html" target="_top" xlink:title="/home/travis/build\l/AliceO2Group/AliceO2\l/Detectors/FIT/reconstruction\l/src/RecPoints.cxx">
<polygon fill="none" stroke="black" points="146.5,-281 146.5,-333 291.5,-333 291.5,-281 146.5,-281"/>
<text text-anchor="start" x="154.5" y="-321" font-family="Helvetica,sans-Serif" font-size="10.00">/home/travis/build</text>
<text text-anchor="start" x="154.5" y="-310" font-family="Helvetica,sans-Serif" font-size="10.00">/AliceO2Group/AliceO2</text>
<text text-anchor="start" x="154.5" y="-299" font-family="Helvetica,sans-Serif" font-size="10.00">/Detectors/FIT/reconstruction</text>
<text text-anchor="middle" x="219" y="-288" font-family="Helvetica,sans-Serif" font-size="10.00">/src/RecPoints.cxx</text>
</a>
</g>
</g>
<!-- Node1&#45;&gt;Node3 -->
<g id="edge2" class="edge"><title>Node1&#45;&gt;Node3</title>
<path fill="none" stroke="midnightblue" d="M272.885,-363.139C263.169,-353.196 252.658,-342.441 243.522,-333.092"/>
<polygon fill="midnightblue" stroke="midnightblue" points="270.633,-365.841 280.125,-370.547 275.639,-360.949 270.633,-365.841"/>
</g>
<!-- Node4 -->
<g id="node4" class="node"><title>Node4</title>
<g id="a_node4"><a xlink:href="../../de/d6b/FIT_2simulation_2include_2FITSimulation_2Detector_8h.html" target="_top" xlink:title="/home/travis/build\l/AliceO2Group/AliceO2\l/Detectors/FIT/simulation\l/include/FITSimulation/Detector.h">
<polygon fill="none" stroke="black" points="309.5,-281 309.5,-333 472.5,-333 472.5,-281 309.5,-281"/>
<text text-anchor="start" x="317.5" y="-321" font-family="Helvetica,sans-Serif" font-size="10.00">/home/travis/build</text>
<text text-anchor="start" x="317.5" y="-310" font-family="Helvetica,sans-Serif" font-size="10.00">/AliceO2Group/AliceO2</text>
<text text-anchor="start" x="317.5" y="-299" font-family="Helvetica,sans-Serif" font-size="10.00">/Detectors/FIT/simulation</text>
<text text-anchor="middle" x="391" y="-288" font-family="Helvetica,sans-Serif" font-size="10.00">/include/FITSimulation/Detector.h</text>
</a>
</g>
</g>
<!-- Node1&#45;&gt;Node4 -->
<g id="edge3" class="edge"><title>Node1&#45;&gt;Node4</title>
<path fill="none" stroke="midnightblue" d="M337.115,-363.139C346.831,-353.196 357.342,-342.441 366.478,-333.092"/>
<polygon fill="midnightblue" stroke="midnightblue" points="334.361,-360.949 329.875,-370.547 339.367,-365.841 334.361,-360.949"/>
</g>
<!-- Node14 -->
<g id="node14" class="node"><title>Node14</title>
<g id="a_node14"><a xlink:href="../../d3/d5e/FIT_2simulation_2src_2Detector_8cxx.html" target="_top" xlink:title="/home/travis/build\l/AliceO2Group/AliceO2\l/Detectors/FIT/simulation\l/src/Detector.cxx">
<polygon fill="none" stroke="black" points="644,-191 644,-243 772,-243 772,-191 644,-191"/>
<text text-anchor="start" x="652" y="-231" font-family="Helvetica,sans-Serif" font-size="10.00">/home/travis/build</text>
<text text-anchor="start" x="652" y="-220" font-family="Helvetica,sans-Serif" font-size="10.00">/AliceO2Group/AliceO2</text>
<text text-anchor="start" x="652" y="-209" font-family="Helvetica,sans-Serif" font-size="10.00">/Detectors/FIT/simulation</text>
<text text-anchor="middle" x="708" y="-198" font-family="Helvetica,sans-Serif" font-size="10.00">/src/Detector.cxx</text>
</a>
</g>
</g>
<!-- Node1&#45;&gt;Node14 -->
<g id="edge18" class="edge"><title>Node1&#45;&gt;Node14</title>
<path fill="none" stroke="midnightblue" d="M384.127,-370.644C414.739,-360.182 449.841,-347.378 481,-334 545.864,-306.15 618.02,-267.974 663.202,-243.15"/>
<polygon fill="midnightblue" stroke="midnightblue" points="382.704,-367.43 374.357,-373.956 384.951,-374.06 382.704,-367.43"/>
</g>
<!-- Node5 -->
<g id="node5" class="node"><title>Node5</title>
<g id="a_node5"><a xlink:href="../../d8/d99/readHitsDigits_8C.html" target="_top" xlink:title="/home/travis/build\l/AliceO2Group/AliceO2\l/Detectors/FIT/macros\l/readHitsDigits.C">
<polygon fill="none" stroke="black" points="0,-191 0,-243 118,-243 118,-191 0,-191"/>
<text text-anchor="start" x="8" y="-231" font-family="Helvetica,sans-Serif" font-size="10.00">/home/travis/build</text>
<text text-anchor="start" x="8" y="-220" font-family="Helvetica,sans-Serif" font-size="10.00">/AliceO2Group/AliceO2</text>
<text text-anchor="start" x="8" y="-209" font-family="Helvetica,sans-Serif" font-size="10.00">/Detectors/FIT/macros</text>
<text text-anchor="middle" x="59" y="-198" font-family="Helvetica,sans-Serif" font-size="10.00">/readHitsDigits.C</text>
</a>
</g>
</g>
<!-- Node4&#45;&gt;Node5 -->
<g id="edge4" class="edge"><title>Node4&#45;&gt;Node5</title>
<path fill="none" stroke="midnightblue" d="M299.493,-279.97C221.995,-261.541 199.42,-265.232 127,-244 124.089,-243.147 121.126,-242.225 118.147,-241.255"/>
<polygon fill="midnightblue" stroke="midnightblue" points="298.68,-283.374 309.223,-282.33 300.33,-276.571 298.68,-283.374"/>
</g>
<!-- Node6 -->
<g id="node6" class="node"><title>Node6</title>
<g id="a_node6"><a xlink:href="../../d7/db7/readRecPoints_8C.html" target="_top" xlink:title="/home/travis/build\l/AliceO2Group/AliceO2\l/Detectors/FIT/macros\l/readRecPoints.C">
<polygon fill="none" stroke="black" points="136,-191 136,-243 254,-243 254,-191 136,-191"/>
<text text-anchor="start" x="144" y="-231" font-family="Helvetica,sans-Serif" font-size="10.00">/home/travis/build</text>
<text text-anchor="start" x="144" y="-220" font-family="Helvetica,sans-Serif" font-size="10.00">/AliceO2Group/AliceO2</text>
<text text-anchor="start" x="144" y="-209" font-family="Helvetica,sans-Serif" font-size="10.00">/Detectors/FIT/macros</text>
<text text-anchor="middle" x="195" y="-198" font-family="Helvetica,sans-Serif" font-size="10.00">/readRecPoints.C</text>
</a>
</g>
</g>
<!-- Node4&#45;&gt;Node6 -->
<g id="edge5" class="edge"><title>Node4&#45;&gt;Node6</title>
<path fill="none" stroke="midnightblue" d="M325.958,-276.798C301.687,-265.9 274.363,-253.632 250.978,-243.133"/>
<polygon fill="midnightblue" stroke="midnightblue" points="324.54,-279.997 335.097,-280.901 327.407,-273.612 324.54,-279.997"/>
</g>
<!-- Node7 -->
<g id="node7" class="node"><title>Node7</title>
<g id="a_node7"><a xlink:href="../../d3/da0/FIT_2simulation_2include_2FITSimulation_2Digitizer_8h.html" target="_top" xlink:title="/home/travis/build\l/AliceO2Group/AliceO2\l/Detectors/FIT/simulation\l/include/FITSimulation/Digitizer.h">
<polygon fill="none" stroke="black" points="310.5,-191 310.5,-243 471.5,-243 471.5,-191 310.5,-191"/>
<text text-anchor="start" x="318.5" y="-231" font-family="Helvetica,sans-Serif" font-size="10.00">/home/travis/build</text>
<text text-anchor="start" x="318.5" y="-220" font-family="Helvetica,sans-Serif" font-size="10.00">/AliceO2Group/AliceO2</text>
<text text-anchor="start" x="318.5" y="-209" font-family="Helvetica,sans-Serif" font-size="10.00">/Detectors/FIT/simulation</text>
<text text-anchor="middle" x="391" y="-198" font-family="Helvetica,sans-Serif" font-size="10.00">/include/FITSimulation/Digitizer.h</text>
</a>
</g>
</g>
<!-- Node4&#45;&gt;Node7 -->
<g id="edge6" class="edge"><title>Node4&#45;&gt;Node7</title>
<path fill="none" stroke="midnightblue" d="M391,-270.489C391,-261.309 391,-251.616 391,-243.092"/>
<polygon fill="midnightblue" stroke="midnightblue" points="387.5,-270.547 391,-280.547 394.5,-270.547 387.5,-270.547"/>
</g>
<!-- Node8 -->
<g id="node8" class="node"><title>Node8</title>
<g id="a_node8"><a xlink:href="../../d4/dcd/FIT_2simulation_2include_2FITSimulation_2DigitizerTask_8h.html" target="_top" xlink:title="/home/travis/build\l/AliceO2Group/AliceO2\l/Detectors/FIT/simulation\l/include/FITSimulation/Digitizer\lTask.h">
<polygon fill="none" stroke="black" points="155.5,-90.5 155.5,-153.5 308.5,-153.5 308.5,-90.5 155.5,-90.5"/>
<text text-anchor="start" x="163.5" y="-141.5" font-family="Helvetica,sans-Serif" font-size="10.00">/home/travis/build</text>
<text text-anchor="start" x="163.5" y="-130.5" font-family="Helvetica,sans-Serif" font-size="10.00">/AliceO2Group/AliceO2</text>
<text text-anchor="start" x="163.5" y="-119.5" font-family="Helvetica,sans-Serif" font-size="10.00">/Detectors/FIT/simulation</text>
<text text-anchor="start" x="163.5" y="-108.5" font-family="Helvetica,sans-Serif" font-size="10.00">/include/FITSimulation/Digitizer</text>
<text text-anchor="middle" x="232" y="-97.5" font-family="Helvetica,sans-Serif" font-size="10.00">Task.h</text>
</a>
</g>
</g>
<!-- Node4&#45;&gt;Node8 -->
<g id="edge13" class="edge"><title>Node4&#45;&gt;Node8</title>
<path fill="none" stroke="midnightblue" d="M337.772,-275.168C324.811,-266.156 311.634,-255.578 301,-244 276.218,-217.017 256.602,-179.594 244.717,-153.538"/>
<polygon fill="midnightblue" stroke="midnightblue" points="335.979,-278.18 346.229,-280.859 339.887,-272.372 335.979,-278.18"/>
</g>
<!-- Node4&#45;&gt;Node14 -->
<g id="edge14" class="edge"><title>Node4&#45;&gt;Node14</title>
<path fill="none" stroke="midnightblue" d="M482.537,-284.885C528.564,-273.726 585.041,-259.208 635,-244 637.831,-243.138 640.715,-242.232 643.622,-241.297"/>
<polygon fill="midnightblue" stroke="midnightblue" points="481.481,-281.539 472.581,-287.286 483.123,-288.344 481.481,-281.539"/>
</g>
<!-- Node15 -->
<g id="node15" class="node"><title>Node15</title>
<g id="a_node15"><a xlink:href="../../db/d50/O2HitMerger_8h.html" target="_top" xlink:title="/home/travis/build\l/AliceO2Group/AliceO2\l/run/O2HitMerger.h">
<polygon fill="none" stroke="black" points="490,-196.5 490,-237.5 608,-237.5 608,-196.5 490,-196.5"/>
<text text-anchor="start" x="498" y="-225.5" font-family="Helvetica,sans-Serif" font-size="10.00">/home/travis/build</text>
<text text-anchor="start" x="498" y="-214.5" font-family="Helvetica,sans-Serif" font-size="10.00">/AliceO2Group/AliceO2</text>
<text text-anchor="middle" x="549" y="-203.5" font-family="Helvetica,sans-Serif" font-size="10.00">/run/O2HitMerger.h</text>
</a>
</g>
</g>
<!-- Node4&#45;&gt;Node15 -->
<g id="edge15" class="edge"><title>Node4&#45;&gt;Node15</title>
<path fill="none" stroke="midnightblue" d="M445.134,-275.85C467.831,-263.208 493.577,-248.868 513.758,-237.628"/>
<polygon fill="midnightblue" stroke="midnightblue" points="443.31,-272.859 436.276,-280.783 446.716,-278.975 443.31,-272.859"/>
</g>
<!-- Node7&#45;&gt;Node8 -->
<g id="edge7" class="edge"><title>Node7&#45;&gt;Node8</title>
<path fill="none" stroke="midnightblue" d="M339.021,-185.597C321.508,-175.354 301.963,-163.921 284.416,-153.659"/>
<polygon fill="midnightblue" stroke="midnightblue" points="337.573,-188.805 347.972,-190.833 341.108,-182.763 337.573,-188.805"/>
</g>
<!-- Node12 -->
<g id="node12" class="node"><title>Node12</title>
<g id="a_node12"><a xlink:href="../../d1/d0b/FIT_2simulation_2src_2Digitizer_8cxx.html" target="_top" xlink:title="/home/travis/build\l/AliceO2Group/AliceO2\l/Detectors/FIT/simulation\l/src/Digitizer.cxx">
<polygon fill="none" stroke="black" points="327,-96 327,-148 455,-148 455,-96 327,-96"/>
<text text-anchor="start" x="335" y="-136" font-family="Helvetica,sans-Serif" font-size="10.00">/home/travis/build</text>
<text text-anchor="start" x="335" y="-125" font-family="Helvetica,sans-Serif" font-size="10.00">/AliceO2Group/AliceO2</text>
<text text-anchor="start" x="335" y="-114" font-family="Helvetica,sans-Serif" font-size="10.00">/Detectors/FIT/simulation</text>
<text text-anchor="middle" x="391" y="-103" font-family="Helvetica,sans-Serif" font-size="10.00">/src/Digitizer.cxx</text>
</a>
</g>
</g>
<!-- Node7&#45;&gt;Node12 -->
<g id="edge11" class="edge"><title>Node7&#45;&gt;Node12</title>
<path fill="none" stroke="midnightblue" d="M391,-180.549C391,-169.722 391,-158.046 391,-148.06"/>
<polygon fill="midnightblue" stroke="midnightblue" points="387.5,-180.587 391,-190.587 394.5,-180.587 387.5,-180.587"/>
</g>
<!-- Node13 -->
<g id="node13" class="node"><title>Node13</title>
<g id="a_node13"><a xlink:href="../../dd/dfe/FITDigitizerSpec_8cxx.html" target="_top" xlink:title="/home/travis/build\l/AliceO2Group/AliceO2\l/Steer/DigitizerWorkflow\l/src/FITDigitizerSpec.cxx">
<polygon fill="none" stroke="black" points="473,-96 473,-148 601,-148 601,-96 473,-96"/>
<text text-anchor="start" x="481" y="-136" font-family="Helvetica,sans-Serif" font-size="10.00">/home/travis/build</text>
<text text-anchor="start" x="481" y="-125" font-family="Helvetica,sans-Serif" font-size="10.00">/AliceO2Group/AliceO2</text>
<text text-anchor="start" x="481" y="-114" font-family="Helvetica,sans-Serif" font-size="10.00">/Steer/DigitizerWorkflow</text>
<text text-anchor="middle" x="537" y="-103" font-family="Helvetica,sans-Serif" font-size="10.00">/src/FITDigitizerSpec.cxx</text>
</a>
</g>
</g>
<!-- Node7&#45;&gt;Node13 -->
<g id="edge12" class="edge"><title>Node7&#45;&gt;Node13</title>
<path fill="none" stroke="midnightblue" d="M439.045,-185.396C458.064,-173.281 479.652,-159.53 497.712,-148.026"/>
<polygon fill="midnightblue" stroke="midnightblue" points="437.064,-182.508 430.51,-190.833 440.824,-188.412 437.064,-182.508"/>
</g>
<!-- Node9 -->
<g id="node9" class="node"><title>Node9</title>
<g id="a_node9"><a xlink:href="../../db/d4c/Detectors_2FIT_2macros_2run__digi__fit_8C.html" target="_top" xlink:title="/home/travis/build\l/AliceO2Group/AliceO2\l/Detectors/FIT/macros\l/run_digi_fit.C">
<polygon fill="none" stroke="black" points="32,-1 32,-53 150,-53 150,-1 32,-1"/>
<text text-anchor="start" x="40" y="-41" font-family="Helvetica,sans-Serif" font-size="10.00">/home/travis/build</text>
<text text-anchor="start" x="40" y="-30" font-family="Helvetica,sans-Serif" font-size="10.00">/AliceO2Group/AliceO2</text>
<text text-anchor="start" x="40" y="-19" font-family="Helvetica,sans-Serif" font-size="10.00">/Detectors/FIT/macros</text>
<text text-anchor="middle" x="91" y="-8" font-family="Helvetica,sans-Serif" font-size="10.00">/run_digi_fit.C</text>
</a>
</g>
</g>
<!-- Node8&#45;&gt;Node9 -->
<g id="edge8" class="edge"><title>Node8&#45;&gt;Node9</title>
<path fill="none" stroke="midnightblue" d="M176.711,-84.5328C160.756,-74.0092 143.709,-62.7658 129.055,-53.1001"/>
<polygon fill="midnightblue" stroke="midnightblue" points="175.166,-87.7063 185.441,-90.2906 179.02,-81.8629 175.166,-87.7063"/>
</g>
<!-- Node10 -->
<g id="node10" class="node"><title>Node10</title>
<g id="a_node10"><a xlink:href="../../d5/d69/FIT_2simulation_2src_2DigitizerTask_8cxx.html" target="_top" xlink:title="/home/travis/build\l/AliceO2Group/AliceO2\l/Detectors/FIT/simulation\l/src/DigitizerTask.cxx">
<polygon fill="none" stroke="black" points="168,-1 168,-53 296,-53 296,-1 168,-1"/>
<text text-anchor="start" x="176" y="-41" font-family="Helvetica,sans-Serif" font-size="10.00">/home/travis/build</text>
<text text-anchor="start" x="176" y="-30" font-family="Helvetica,sans-Serif" font-size="10.00">/AliceO2Group/AliceO2</text>
<text text-anchor="start" x="176" y="-19" font-family="Helvetica,sans-Serif" font-size="10.00">/Detectors/FIT/simulation</text>
<text text-anchor="middle" x="232" y="-8" font-family="Helvetica,sans-Serif" font-size="10.00">/src/DigitizerTask.cxx</text>
</a>
</g>
</g>
<!-- Node8&#45;&gt;Node10 -->
<g id="edge9" class="edge"><title>Node8&#45;&gt;Node10</title>
<path fill="none" stroke="midnightblue" d="M232,-80.1125C232,-70.9165 232,-61.4234 232,-53.1001"/>
<polygon fill="midnightblue" stroke="midnightblue" points="228.5,-80.2905 232,-90.2906 235.5,-80.2906 228.5,-80.2905"/>
</g>
<!-- Node11 -->
<g id="node11" class="node"><title>Node11</title>
<g id="a_node11"><a xlink:href="../../d3/d84/macro_2run__digi__fit_8C.html" target="_top" xlink:title="/home/travis/build\l/AliceO2Group/AliceO2\l/macro/run_digi_fit.C">
<polygon fill="none" stroke="black" points="314,-6.5 314,-47.5 432,-47.5 432,-6.5 314,-6.5"/>
<text text-anchor="start" x="322" y="-35.5" font-family="Helvetica,sans-Serif" font-size="10.00">/home/travis/build</text>
<text text-anchor="start" x="322" y="-24.5" font-family="Helvetica,sans-Serif" font-size="10.00">/AliceO2Group/AliceO2</text>
<text text-anchor="middle" x="373" y="-13.5" font-family="Helvetica,sans-Serif" font-size="10.00">/macro/run_digi_fit.C</text>
</a>
</g>
</g>
<!-- Node8&#45;&gt;Node11 -->
<g id="edge10" class="edge"><title>Node8&#45;&gt;Node11</title>
<path fill="none" stroke="midnightblue" d="M286.957,-84.7519C306.156,-72.0887 326.973,-58.3581 343.322,-47.5747"/>
<polygon fill="midnightblue" stroke="midnightblue" points="284.98,-81.8629 278.559,-90.2906 288.834,-87.7063 284.98,-81.8629"/>
</g>
<!-- Node15&#45;&gt;Node15 -->
<g id="edge16" class="edge"><title>Node15&#45;&gt;Node15</title>
<path fill="none" stroke="midnightblue" d="M617.662,-229.611C622.826,-226.798 626,-222.595 626,-217 626,-208.475 618.63,-203.18 608.079,-201.115"/>
<polygon fill="midnightblue" stroke="midnightblue" points="616.41,-226.34 608.079,-232.885 618.674,-232.964 616.41,-226.34"/>
</g>
<!-- Node16 -->
<g id="node16" class="node"><title>Node16</title>
<g id="a_node16"><a xlink:href="../../d9/d16/O2HitMergerRunner_8cxx.html" target="_top" xlink:title="/home/travis/build\l/AliceO2Group/AliceO2\l/run/O2HitMergerRunner.cxx">
<polygon fill="none" stroke="black" points="619,-101.5 619,-142.5 761,-142.5 761,-101.5 619,-101.5"/>
<text text-anchor="start" x="627" y="-130.5" font-family="Helvetica,sans-Serif" font-size="10.00">/home/travis/build</text>
<text text-anchor="start" x="627" y="-119.5" font-family="Helvetica,sans-Serif" font-size="10.00">/AliceO2Group/AliceO2</text>
<text text-anchor="middle" x="690" y="-108.5" font-family="Helvetica,sans-Serif" font-size="10.00">/run/O2HitMergerRunner.cxx</text>
</a>
</g>
</g>
<!-- Node15&#45;&gt;Node16 -->
<g id="edge17" class="edge"><title>Node15&#45;&gt;Node16</title>
<path fill="none" stroke="midnightblue" d="M587.371,-190.691C610.275,-175.585 638.933,-156.682 660.141,-142.694"/>
<polygon fill="midnightblue" stroke="midnightblue" points="585.323,-187.849 578.902,-196.277 589.177,-193.693 585.323,-187.849"/>
</g>
</g>
</svg>
