<?xml version="1.0" encoding="UTF-8" standalone="no"?>
<!DOCTYPE svg PUBLIC "-//W3C//DTD SVG 1.1//EN"
 "http://www.w3.org/Graphics/SVG/1.1/DTD/svg11.dtd">
<!-- Generated by graphviz version 2.36.0 (20140111.2315)
 -->
<!-- Title: /home/travis/build/AliceO2Group/AliceO2/Detectors/TPC/base/test/testTPCCalDet.cxx Pages: 1 -->
<svg width="1403pt" height="702pt"
 viewBox="0.00 0.00 1403.00 702.00" xmlns="http://www.w3.org/2000/svg" xmlns:xlink="http://www.w3.org/1999/xlink">
<g id="graph0" class="graph" transform="scale(1 1) rotate(0) translate(4 698)">
<title>/home/travis/build/AliceO2Group/AliceO2/Detectors/TPC/base/test/testTPCCalDet.cxx</title>
<!-- Node1 -->
<g id="node1" class="node"><title>Node1</title>
<polygon fill="#bfbfbf" stroke="black" points="678.5,-641 678.5,-693 807.5,-693 807.5,-641 678.5,-641"/>
<text text-anchor="start" x="686.5" y="-681" font-family="Helvetica,sans-Serif" font-size="10.00">/home/travis/build</text>
<text text-anchor="start" x="686.5" y="-670" font-family="Helvetica,sans-Serif" font-size="10.00">/AliceO2Group/AliceO2</text>
<text text-anchor="start" x="686.5" y="-659" font-family="Helvetica,sans-Serif" font-size="10.00">/Detectors/TPC/base/test</text>
<text text-anchor="middle" x="743" y="-648" font-family="Helvetica,sans-Serif" font-size="10.00">/testTPCCalDet.cxx</text>
</g>
<!-- Node2 -->
<g id="node2" class="node"><title>Node2</title>
<polygon fill="none" stroke="#bfbfbf" points="28,-528.5 28,-547.5 154,-547.5 154,-528.5 28,-528.5"/>
<text text-anchor="middle" x="91" y="-535.5" font-family="Helvetica,sans-Serif" font-size="10.00">boost/range/combine.hpp</text>
</g>
<!-- Node1&#45;&gt;Node2 -->
<g id="edge1" class="edge"><title>Node1&#45;&gt;Node2</title>
<path fill="none" stroke="midnightblue" d="M678.463,-656.344C604.64,-645.023 480.245,-625.108 374,-604 289.05,-587.123 190.66,-563.623 135.131,-549.991"/>
<polygon fill="midnightblue" stroke="midnightblue" points="135.821,-546.556 125.274,-547.564 134.147,-553.353 135.821,-546.556"/>
</g>
<!-- Node3 -->
<g id="node3" class="node"><title>Node3</title>
<polygon fill="none" stroke="#bfbfbf" points="771.5,-584.5 771.5,-603.5 890.5,-603.5 890.5,-584.5 771.5,-584.5"/>
<text text-anchor="middle" x="831" y="-591.5" font-family="Helvetica,sans-Serif" font-size="10.00">boost/test/unit_test.hpp</text>
</g>
<!-- Node1&#45;&gt;Node3 -->
<g id="edge2" class="edge"><title>Node1&#45;&gt;Node3</title>
<path fill="none" stroke="midnightblue" d="M774.273,-640.768C786.903,-630.578 801.064,-619.153 812.077,-610.267"/>
<polygon fill="midnightblue" stroke="midnightblue" points="814.561,-612.76 820.146,-603.757 810.166,-607.312 814.561,-612.76"/>
</g>
<!-- Node4 -->
<g id="node4" class="node"><title>Node4</title>
<polygon fill="none" stroke="#bfbfbf" points="312,-360.5 312,-379.5 356,-379.5 356,-360.5 312,-360.5"/>
<text text-anchor="middle" x="334" y="-367.5" font-family="Helvetica,sans-Serif" font-size="10.00">vector</text>
</g>
<!-- Node1&#45;&gt;Node4 -->
<g id="edge3" class="edge"><title>Node1&#45;&gt;Node4</title>
<path fill="none" stroke="midnightblue" d="M678.363,-661.736C497.596,-648.953 0,-607.54 0,-539 0,-539 0,-539 0,-481 0,-417.844 218.168,-384.922 301.854,-374.617"/>
<polygon fill="midnightblue" stroke="midnightblue" points="302.316,-378.087 311.827,-373.419 301.48,-371.137 302.316,-378.087"/>
</g>
<!-- Node5 -->
<g id="node5" class="node"><title>Node5</title>
<polygon fill="none" stroke="#bfbfbf" points="909,-584.5 909,-603.5 949,-603.5 949,-584.5 909,-584.5"/>
<text text-anchor="middle" x="929" y="-591.5" font-family="Helvetica,sans-Serif" font-size="10.00">limits</text>
</g>
<!-- Node1&#45;&gt;Node5 -->
<g id="edge4" class="edge"><title>Node1&#45;&gt;Node5</title>
<path fill="none" stroke="midnightblue" d="M807.532,-641.367C838.702,-629.469 874.593,-615.768 899.234,-606.362"/>
<polygon fill="midnightblue" stroke="midnightblue" points="900.642,-609.571 908.737,-602.735 898.146,-603.031 900.642,-609.571"/>
</g>
<!-- Node6 -->
<g id="node6" class="node"><title>Node6</title>
<polygon fill="none" stroke="#bfbfbf" points="967.5,-584.5 967.5,-603.5 1020.5,-603.5 1020.5,-584.5 967.5,-584.5"/>
<text text-anchor="middle" x="994" y="-591.5" font-family="Helvetica,sans-Serif" font-size="10.00">TMath.h</text>
</g>
<!-- Node1&#45;&gt;Node6 -->
<g id="edge5" class="edge"><title>Node1&#45;&gt;Node6</title>
<path fill="none" stroke="midnightblue" d="M807.639,-647.716C855.342,-634.222 918.523,-616.35 957.7,-605.268"/>
<polygon fill="midnightblue" stroke="midnightblue" points="958.69,-608.626 967.36,-602.536 956.784,-601.89 958.69,-608.626"/>
</g>
<!-- Node7 -->
<g id="node7" class="node"><title>Node7</title>
<g id="a_node7"><a xlink:href="../../d7/d2c/Mapper_8h.html" target="_top" xlink:title="TPCBase/Mapper.h">
<polygon fill="none" stroke="black" points="747.5,-472.5 747.5,-491.5 850.5,-491.5 850.5,-472.5 747.5,-472.5"/>
<text text-anchor="middle" x="799" y="-479.5" font-family="Helvetica,sans-Serif" font-size="10.00">TPCBase/Mapper.h</text>
</a>
</g>
</g>
<!-- Node1&#45;&gt;Node7 -->
<g id="edge6" class="edge"><title>Node1&#45;&gt;Node7</title>
<path fill="none" stroke="midnightblue" d="M748.025,-640.668C751.468,-624.355 756.411,-602.767 762,-584 770.809,-554.417 783.668,-520.929 791.674,-500.912"/>
<polygon fill="midnightblue" stroke="midnightblue" points="794.966,-502.109 795.469,-491.526 788.476,-499.485 794.966,-502.109"/>
</g>
<!-- Node36 -->
<g id="node36" class="node"><title>Node36</title>
<g id="a_node36"><a xlink:href="../../db/d9b/CalArray_8h.html" target="_top" xlink:title="TPCBase/CalArray.h">
<polygon fill="none" stroke="black" points="530.5,-528.5 530.5,-547.5 639.5,-547.5 639.5,-528.5 530.5,-528.5"/>
<text text-anchor="middle" x="585" y="-535.5" font-family="Helvetica,sans-Serif" font-size="10.00">TPCBase/CalArray.h</text>
</a>
</g>
</g>
<!-- Node1&#45;&gt;Node36 -->
<g id="edge55" class="edge"><title>Node1&#45;&gt;Node36</title>
<path fill="none" stroke="midnightblue" d="M711.784,-640.909C679.626,-615.06 630.546,-575.61 603.866,-554.165"/>
<polygon fill="midnightblue" stroke="midnightblue" points="605.721,-551.165 595.734,-547.628 601.335,-556.621 605.721,-551.165"/>
</g>
<!-- Node42 -->
<g id="node42" class="node"><title>Node42</title>
<g id="a_node42"><a xlink:href="../../d8/d81/CalDet_8h.html" target="_top" xlink:title="TPCBase/CalDet.h">
<polygon fill="none" stroke="black" points="383.5,-584.5 383.5,-603.5 484.5,-603.5 484.5,-584.5 383.5,-584.5"/>
<text text-anchor="middle" x="434" y="-591.5" font-family="Helvetica,sans-Serif" font-size="10.00">TPCBase/CalDet.h</text>
</a>
</g>
</g>
<!-- Node1&#45;&gt;Node42 -->
<g id="edge64" class="edge"><title>Node1&#45;&gt;Node42</title>
<path fill="none" stroke="midnightblue" d="M678.223,-651.116C619.326,-637.583 533.806,-617.933 481.16,-605.836"/>
<polygon fill="midnightblue" stroke="midnightblue" points="481.617,-602.35 471.087,-603.522 480.049,-609.172 481.617,-602.35"/>
</g>
<!-- Node44 -->
<g id="node44" class="node"><title>Node44</title>
<polygon fill="none" stroke="#bfbfbf" points="1038.5,-584.5 1038.5,-603.5 1085.5,-603.5 1085.5,-584.5 1038.5,-584.5"/>
<text text-anchor="middle" x="1062" y="-591.5" font-family="Helvetica,sans-Serif" font-size="10.00">TFile.h</text>
</g>
<!-- Node1&#45;&gt;Node44 -->
<g id="edge77" class="edge"><title>Node1&#45;&gt;Node44</title>
<path fill="none" stroke="midnightblue" d="M807.684,-652.993C863.527,-641.533 946.572,-623.938 1028.29,-604.073"/>
<polygon fill="midnightblue" stroke="midnightblue" points="1029.36,-607.413 1038.25,-601.639 1027.7,-600.614 1029.36,-607.413"/>
</g>
<!-- Node7&#45;&gt;Node4 -->
<g id="edge8" class="edge"><title>Node7&#45;&gt;Node4</title>
<path fill="none" stroke="midnightblue" d="M747.261,-473.33C743.791,-472.865 740.346,-472.417 737,-472 660.289,-462.445 459.665,-471.51 391,-436 370.244,-425.266 353.652,-403.547 343.836,-388.175"/>
<polygon fill="midnightblue" stroke="midnightblue" points="346.801,-386.314 338.623,-379.579 340.816,-389.944 346.801,-386.314"/>
</g>
<!-- Node8 -->
<g id="node8" class="node"><title>Node8</title>
<polygon fill="none" stroke="#bfbfbf" points="991.5,-416.5 991.5,-435.5 1026.5,-435.5 1026.5,-416.5 991.5,-416.5"/>
<text text-anchor="middle" x="1009" y="-423.5" font-family="Helvetica,sans-Serif" font-size="10.00">map</text>
</g>
<!-- Node7&#45;&gt;Node8 -->
<g id="edge7" class="edge"><title>Node7&#45;&gt;Node8</title>
<path fill="none" stroke="midnightblue" d="M833.861,-472.477C869.798,-463.623 927.418,-449.237 977,-436 978.464,-435.609 979.964,-435.204 981.477,-434.791"/>
<polygon fill="midnightblue" stroke="midnightblue" points="982.716,-438.08 991.418,-432.036 980.846,-431.334 982.716,-438.08"/>
</g>
<!-- Node9 -->
<g id="node9" class="node"><title>Node9</title>
<polygon fill="none" stroke="#bfbfbf" points="695,-416.5 695,-435.5 733,-435.5 733,-416.5 695,-416.5"/>
<text text-anchor="middle" x="714" y="-423.5" font-family="Helvetica,sans-Serif" font-size="10.00">array</text>
</g>
<!-- Node7&#45;&gt;Node9 -->
<g id="edge9" class="edge"><title>Node7&#45;&gt;Node9</title>
<path fill="none" stroke="midnightblue" d="M785.343,-472.324C772.084,-463.9 751.732,-450.971 736.154,-441.074"/>
<polygon fill="midnightblue" stroke="midnightblue" points="737.94,-438.063 727.623,-435.655 734.187,-443.971 737.94,-438.063"/>
</g>
<!-- Node10 -->
<g id="node10" class="node"><title>Node10</title>
<polygon fill="none" stroke="#bfbfbf" points="1121.5,-416.5 1121.5,-435.5 1162.5,-435.5 1162.5,-416.5 1121.5,-416.5"/>
<text text-anchor="middle" x="1142" y="-423.5" font-family="Helvetica,sans-Serif" font-size="10.00">string</text>
</g>
<!-- Node7&#45;&gt;Node10 -->
<g id="edge10" class="edge"><title>Node7&#45;&gt;Node10</title>
<path fill="none" stroke="midnightblue" d="M850.516,-475.177C911.915,-467.845 1017.46,-453.999 1107,-436 1108.46,-435.706 1109.95,-435.39 1111.45,-435.057"/>
<polygon fill="midnightblue" stroke="midnightblue" points="1112.44,-438.42 1121.36,-432.698 1110.82,-431.611 1112.44,-438.42"/>
</g>
<!-- Node11 -->
<g id="node11" class="node"><title>Node11</title>
<polygon fill="none" stroke="#bfbfbf" points="985,-136.5 985,-155.5 1029,-155.5 1029,-136.5 985,-136.5"/>
<text text-anchor="middle" x="1007" y="-143.5" font-family="Helvetica,sans-Serif" font-size="10.00">cmath</text>
</g>
<!-- Node7&#45;&gt;Node11 -->
<g id="edge11" class="edge"><title>Node7&#45;&gt;Node11</title>
<path fill="none" stroke="midnightblue" d="M850.66,-472.477C924.223,-460.262 1050.8,-438.92 1055,-436 1082.47,-416.888 1093,-404.463 1093,-371 1093,-371 1093,-371 1093,-257 1093,-215.583 1054.69,-180.453 1029.21,-161.666"/>
<polygon fill="midnightblue" stroke="midnightblue" points="1031,-158.644 1020.82,-155.719 1026.95,-164.356 1031,-158.644"/>
</g>
<!-- Node12 -->
<g id="node12" class="node"><title>Node12</title>
<g id="a_node12"><a xlink:href="../../d1/d73/Defs_8h.html" target="_top" xlink:title="Common definitions for 2D coordinates. ">
<polygon fill="none" stroke="black" points="506,-192.5 506,-211.5 632,-211.5 632,-192.5 506,-192.5"/>
<text text-anchor="middle" x="569" y="-199.5" font-family="Helvetica,sans-Serif" font-size="10.00">DataFormatsTPC/Defs.h</text>
</a>
</g>
</g>
<!-- Node7&#45;&gt;Node12 -->
<g id="edge12" class="edge"><title>Node7&#45;&gt;Node12</title>
<path fill="none" stroke="midnightblue" d="M747.265,-473.3C743.793,-472.842 740.348,-472.404 737,-472 571.212,-452 521.242,-489.343 363,-436 310.991,-418.468 258,-425.885 258,-371 258,-371 258,-371 258,-313 258,-262.008 408.482,-228.731 500.094,-213.197"/>
<polygon fill="midnightblue" stroke="midnightblue" points="500.848,-216.62 510.138,-211.525 499.699,-209.715 500.848,-216.62"/>
</g>
<!-- Node25 -->
<g id="node25" class="node"><title>Node25</title>
<g id="a_node25"><a xlink:href="../../de/d41/PadPos_8h.html" target="_top" xlink:title="TPCBase/PadPos.h">
<polygon fill="none" stroke="black" points="633.5,-304.5 633.5,-323.5 738.5,-323.5 738.5,-304.5 633.5,-304.5"/>
<text text-anchor="middle" x="686" y="-311.5" font-family="Helvetica,sans-Serif" font-size="10.00">TPCBase/PadPos.h</text>
</a>
</g>
</g>
<!-- Node7&#45;&gt;Node25 -->
<g id="edge27" class="edge"><title>Node7&#45;&gt;Node25</title>
<path fill="none" stroke="midnightblue" d="M796.247,-472.335C791.786,-459.205 782.042,-433.905 768,-416 752.408,-396.118 740.413,-399.21 724,-380 711.685,-365.587 701.127,-346.642 694.288,-332.927"/>
<polygon fill="midnightblue" stroke="midnightblue" points="697.302,-331.117 689.816,-323.62 690.993,-334.149 697.302,-331.117"/>
</g>
<!-- Node26 -->
<g id="node26" class="node"><title>Node26</title>
<g id="a_node26"><a xlink:href="../../dd/d0b/PadSecPos_8h.html" target="_top" xlink:title="TPCBase/PadSecPos.h">
<polygon fill="none" stroke="black" points="905,-360.5 905,-379.5 1027,-379.5 1027,-360.5 905,-360.5"/>
<text text-anchor="middle" x="966" y="-367.5" font-family="Helvetica,sans-Serif" font-size="10.00">TPCBase/PadSecPos.h</text>
</a>
</g>
</g>
<!-- Node7&#45;&gt;Node26 -->
<g id="edge28" class="edge"><title>Node7&#45;&gt;Node26</title>
<path fill="none" stroke="midnightblue" d="M850.567,-476.649C881.314,-471.492 919.087,-460.287 944,-436 956.385,-423.926 961.799,-404.64 964.164,-390.206"/>
<polygon fill="midnightblue" stroke="midnightblue" points="967.685,-390.265 965.483,-379.901 960.742,-389.376 967.685,-390.265"/>
</g>
<!-- Node27 -->
<g id="node27" class="node"><title>Node27</title>
<g id="a_node27"><a xlink:href="../../d3/dd6/Sector_8h.html" target="_top" xlink:title="TPCBase/Sector.h">
<polygon fill="none" stroke="black" points="876.5,-248.5 876.5,-267.5 975.5,-267.5 975.5,-248.5 876.5,-248.5"/>
<text text-anchor="middle" x="926" y="-255.5" font-family="Helvetica,sans-Serif" font-size="10.00">TPCBase/Sector.h</text>
</a>
</g>
</g>
<!-- Node7&#45;&gt;Node27 -->
<g id="edge54" class="edge"><title>Node7&#45;&gt;Node27</title>
<path fill="none" stroke="midnightblue" d="M847.966,-472.456C916.209,-460.436 1031.97,-439.594 1035,-436 1056.77,-410.166 1049.59,-390.927 1036,-360 1018.65,-320.508 977.385,-289.686 950.623,-272.947"/>
<polygon fill="midnightblue" stroke="midnightblue" points="952.192,-269.806 941.824,-267.622 948.567,-275.794 952.192,-269.806"/>
</g>
<!-- Node29 -->
<g id="node29" class="node"><title>Node29</title>
<g id="a_node29"><a xlink:href="../../da/d61/PadROCPos_8h.html" target="_top" xlink:title="TPCBase/PadROCPos.h">
<polygon fill="none" stroke="black" points="495,-360.5 495,-379.5 623,-379.5 623,-360.5 495,-360.5"/>
<text text-anchor="middle" x="559" y="-367.5" font-family="Helvetica,sans-Serif" font-size="10.00">TPCBase/PadROCPos.h</text>
</a>
</g>
</g>
<!-- Node7&#45;&gt;Node29 -->
<g id="edge33" class="edge"><title>Node7&#45;&gt;Node29</title>
<path fill="none" stroke="midnightblue" d="M793.897,-472.33C785.137,-458.241 765.858,-430.496 742,-416 709.299,-396.13 668.282,-385.024 633.373,-378.82"/>
<polygon fill="midnightblue" stroke="midnightblue" points="633.668,-375.321 623.227,-377.123 632.512,-382.225 633.668,-375.321"/>
</g>
<!-- Node31 -->
<g id="node31" class="node"><title>Node31</title>
<g id="a_node31"><a xlink:href="../../d3/d54/DigitPos_8h.html" target="_top" xlink:title="TPCBase/DigitPos.h">
<polygon fill="none" stroke="black" points="827,-416.5 827,-435.5 935,-435.5 935,-416.5 827,-416.5"/>
<text text-anchor="middle" x="881" y="-423.5" font-family="Helvetica,sans-Serif" font-size="10.00">TPCBase/DigitPos.h</text>
</a>
</g>
</g>
<!-- Node7&#45;&gt;Node31 -->
<g id="edge39" class="edge"><title>Node7&#45;&gt;Node31</title>
<path fill="none" stroke="midnightblue" d="M812.175,-472.324C824.847,-463.979 844.233,-451.212 859.206,-441.352"/>
<polygon fill="midnightblue" stroke="midnightblue" points="861.431,-444.078 867.858,-435.655 857.581,-438.231 861.431,-444.078"/>
</g>
<!-- Node33 -->
<g id="node33" class="node"><title>Node33</title>
<g id="a_node33"><a xlink:href="../../d1/d1f/FECInfo_8h.html" target="_top" xlink:title="TPCBase/FECInfo.h">
<polygon fill="none" stroke="black" points="8.5,-248.5 8.5,-267.5 115.5,-267.5 115.5,-248.5 8.5,-248.5"/>
<text text-anchor="middle" x="62" y="-255.5" font-family="Helvetica,sans-Serif" font-size="10.00">TPCBase/FECInfo.h</text>
</a>
</g>
</g>
<!-- Node7&#45;&gt;Node33 -->
<g id="edge47" class="edge"><title>Node7&#45;&gt;Node33</title>
<path fill="none" stroke="midnightblue" d="M747.275,-473.21C743.801,-472.774 740.352,-472.365 737,-472 627.799,-460.102 344.202,-481.01 244,-436 164.28,-400.19 98.8689,-313.669 73.4259,-276.474"/>
<polygon fill="midnightblue" stroke="midnightblue" points="76.0567,-274.113 67.5809,-267.756 70.2425,-278.011 76.0567,-274.113"/>
</g>
<!-- Node34 -->
<g id="node34" class="node"><title>Node34</title>
<g id="a_node34"><a xlink:href="../../da/d9d/PadRegionInfo_8h.html" target="_top" xlink:title="TPCBase/PadRegionInfo.h">
<polygon fill="none" stroke="black" points="400.5,-416.5 400.5,-435.5 535.5,-435.5 535.5,-416.5 400.5,-416.5"/>
<text text-anchor="middle" x="468" y="-423.5" font-family="Helvetica,sans-Serif" font-size="10.00">TPCBase/PadRegionInfo.h</text>
</a>
</g>
</g>
<!-- Node7&#45;&gt;Node34 -->
<g id="edge49" class="edge"><title>Node7&#45;&gt;Node34</title>
<path fill="none" stroke="midnightblue" d="M747.281,-472.562C688.635,-462.995 593.044,-447.4 530.33,-437.169"/>
<polygon fill="midnightblue" stroke="midnightblue" points="530.607,-433.668 520.174,-435.512 529.48,-440.576 530.607,-433.668"/>
</g>
<!-- Node35 -->
<g id="node35" class="node"><title>Node35</title>
<g id="a_node35"><a xlink:href="../../d6/d42/PartitionInfo_8h.html" target="_top" xlink:title="TPCBase/PartitionInfo.h">
<polygon fill="none" stroke="black" points="553.5,-416.5 553.5,-435.5 676.5,-435.5 676.5,-416.5 553.5,-416.5"/>
<text text-anchor="middle" x="615" y="-423.5" font-family="Helvetica,sans-Serif" font-size="10.00">TPCBase/PartitionInfo.h</text>
</a>
</g>
</g>
<!-- Node7&#45;&gt;Node35 -->
<g id="edge53" class="edge"><title>Node7&#45;&gt;Node35</title>
<path fill="none" stroke="midnightblue" d="M769.845,-472.444C738.487,-463.241 688.469,-448.562 653.803,-438.388"/>
<polygon fill="midnightblue" stroke="midnightblue" points="654.6,-434.974 644.019,-435.516 652.629,-441.691 654.6,-434.974"/>
</g>
<!-- Node12&#45;&gt;Node11 -->
<g id="edge13" class="edge"><title>Node12&#45;&gt;Node11</title>
<path fill="none" stroke="midnightblue" d="M632.221,-193.206C726.863,-181.537 901.981,-159.948 974.373,-151.023"/>
<polygon fill="midnightblue" stroke="midnightblue" points="975.188,-154.449 984.684,-149.751 974.331,-147.501 975.188,-154.449"/>
</g>
<!-- Node13 -->
<g id="node13" class="node"><title>Node13</title>
<g id="a_node13"><a xlink:href="../../d2/dd0/Cartesian2D_8h.html" target="_top" xlink:title="MathUtils/Cartesian2D.h">
<polygon fill="none" stroke="black" points="1154.5,-74.5 1154.5,-93.5 1279.5,-93.5 1279.5,-74.5 1154.5,-74.5"/>
<text text-anchor="middle" x="1217" y="-81.5" font-family="Helvetica,sans-Serif" font-size="10.00">MathUtils/Cartesian2D.h</text>
</a>
</g>
</g>
<!-- Node12&#45;&gt;Node13 -->
<g id="edge14" class="edge"><title>Node12&#45;&gt;Node13</title>
<path fill="none" stroke="midnightblue" d="M620.733,-192.496C721.711,-175.772 952.064,-137.003 1145,-100 1152.16,-98.6276 1159.7,-97.1218 1167.1,-95.6102"/>
<polygon fill="midnightblue" stroke="midnightblue" points="1167.97,-99.0046 1177.06,-93.5573 1166.56,-92.1488 1167.97,-99.0046"/>
</g>
<!-- Node16 -->
<g id="node16" class="node"><title>Node16</title>
<g id="a_node16"><a xlink:href="../../dd/d76/Cartesian3D_8h.html" target="_top" xlink:title="MathUtils/Cartesian3D.h">
<polygon fill="none" stroke="black" points="486.5,-136.5 486.5,-155.5 611.5,-155.5 611.5,-136.5 486.5,-136.5"/>
<text text-anchor="middle" x="549" y="-143.5" font-family="Helvetica,sans-Serif" font-size="10.00">MathUtils/Cartesian3D.h</text>
</a>
</g>
</g>
<!-- Node12&#45;&gt;Node16 -->
<g id="edge17" class="edge"><title>Node12&#45;&gt;Node16</title>
<path fill="none" stroke="midnightblue" d="M565.697,-192.083C563.018,-184.849 559.151,-174.409 555.814,-165.397"/>
<polygon fill="midnightblue" stroke="midnightblue" points="558.996,-163.913 552.241,-155.751 552.432,-166.344 558.996,-163.913"/>
</g>
<!-- Node14 -->
<g id="node14" class="node"><title>Node14</title>
<polygon fill="none" stroke="#bfbfbf" points="1050.5,-1 1050.5,-31 1201.5,-31 1201.5,-1 1050.5,-1"/>
<text text-anchor="start" x="1058.5" y="-19" font-family="Helvetica,sans-Serif" font-size="10.00">Math/GenVector/Displacement</text>
<text text-anchor="middle" x="1126" y="-8" font-family="Helvetica,sans-Serif" font-size="10.00">Vector2D.h</text>
</g>
<!-- Node13&#45;&gt;Node14 -->
<g id="edge15" class="edge"><title>Node13&#45;&gt;Node14</title>
<path fill="none" stroke="midnightblue" d="M1205.1,-74.3717C1192.22,-65.0286 1171.22,-49.7966 1154.09,-37.375"/>
<polygon fill="midnightblue" stroke="midnightblue" points="1155.7,-34.2194 1145.55,-31.1815 1151.59,-39.8859 1155.7,-34.2194"/>
</g>
<!-- Node15 -->
<g id="node15" class="node"><title>Node15</title>
<polygon fill="none" stroke="#bfbfbf" points="1220,-6.5 1220,-25.5 1396,-25.5 1396,-6.5 1220,-6.5"/>
<text text-anchor="middle" x="1308" y="-13.5" font-family="Helvetica,sans-Serif" font-size="10.00">Math/GenVector/PositionVector2D.h</text>
</g>
<!-- Node13&#45;&gt;Node15 -->
<g id="edge16" class="edge"><title>Node13&#45;&gt;Node15</title>
<path fill="none" stroke="midnightblue" d="M1228.9,-74.3717C1243.88,-63.5015 1269.86,-44.6602 1287.94,-31.5474"/>
<polygon fill="midnightblue" stroke="midnightblue" points="1290.06,-34.3349 1296.1,-25.6305 1285.95,-28.6684 1290.06,-34.3349"/>
</g>
<!-- Node16&#45;&gt;Node13 -->
<g id="edge26" class="edge"><title>Node16&#45;&gt;Node13</title>
<path fill="none" stroke="midnightblue" d="M611.929,-142.939C720.956,-138.769 951.838,-127.295 1145,-100 1153.36,-98.8187 1162.21,-97.2468 1170.73,-95.565"/>
<polygon fill="midnightblue" stroke="midnightblue" points="1171.44,-98.9919 1180.53,-93.557 1170.03,-92.1342 1171.44,-98.9919"/>
</g>
<!-- Node17 -->
<g id="node17" class="node"><title>Node17</title>
<polygon fill="none" stroke="#bfbfbf" points="271.5,-69 271.5,-99 422.5,-99 422.5,-69 271.5,-69"/>
<text text-anchor="start" x="279.5" y="-87" font-family="Helvetica,sans-Serif" font-size="10.00">Math/GenVector/Displacement</text>
<text text-anchor="middle" x="347" y="-76" font-family="Helvetica,sans-Serif" font-size="10.00">Vector3D.h</text>
</g>
<!-- Node16&#45;&gt;Node17 -->
<g id="edge18" class="edge"><title>Node16&#45;&gt;Node17</title>
<path fill="none" stroke="midnightblue" d="M520.058,-136.403C489.915,-127.45 441.905,-113.19 404.092,-101.958"/>
<polygon fill="midnightblue" stroke="midnightblue" points="404.801,-98.5176 394.219,-99.0253 402.808,-105.228 404.801,-98.5176"/>
</g>
<!-- Node18 -->
<g id="node18" class="node"><title>Node18</title>
<polygon fill="none" stroke="#bfbfbf" points="441,-74.5 441,-93.5 617,-93.5 617,-74.5 441,-74.5"/>
<text text-anchor="middle" x="529" y="-81.5" font-family="Helvetica,sans-Serif" font-size="10.00">Math/GenVector/PositionVector3D.h</text>
</g>
<!-- Node16&#45;&gt;Node18 -->
<g id="edge19" class="edge"><title>Node16&#45;&gt;Node18</title>
<path fill="none" stroke="midnightblue" d="M546.134,-136.403C543.253,-127.76 538.723,-114.17 535.045,-103.134"/>
<polygon fill="midnightblue" stroke="midnightblue" points="538.343,-101.961 531.86,-93.5806 531.702,-104.174 538.343,-101.961"/>
</g>
<!-- Node19 -->
<g id="node19" class="node"><title>Node19</title>
<polygon fill="none" stroke="#bfbfbf" points="634.5,-74.5 634.5,-93.5 783.5,-93.5 783.5,-74.5 634.5,-74.5"/>
<text text-anchor="middle" x="709" y="-81.5" font-family="Helvetica,sans-Serif" font-size="10.00">Math/GenVector/Rotation3D.h</text>
</g>
<!-- Node16&#45;&gt;Node19 -->
<g id="edge20" class="edge"><title>Node16&#45;&gt;Node19</title>
<path fill="none" stroke="midnightblue" d="M571.924,-136.403C599.37,-126.111 645.516,-108.806 676.599,-97.1504"/>
<polygon fill="midnightblue" stroke="midnightblue" points="677.984,-100.369 686.118,-93.5806 675.526,-93.8147 677.984,-100.369"/>
</g>
<!-- Node20 -->
<g id="node20" class="node"><title>Node20</title>
<polygon fill="none" stroke="#bfbfbf" points="802,-74.5 802,-93.5 958,-93.5 958,-74.5 802,-74.5"/>
<text text-anchor="middle" x="880" y="-81.5" font-family="Helvetica,sans-Serif" font-size="10.00">Math/GenVector/Transform3D.h</text>
</g>
<!-- Node16&#45;&gt;Node20 -->
<g id="edge21" class="edge"><title>Node16&#45;&gt;Node20</title>
<path fill="none" stroke="midnightblue" d="M596.073,-136.467C655.878,-125.626 759.009,-106.932 823.144,-95.3062"/>
<polygon fill="midnightblue" stroke="midnightblue" points="823.874,-98.731 833.09,-93.5034 822.626,-91.8432 823.874,-98.731"/>
</g>
<!-- Node21 -->
<g id="node21" class="node"><title>Node21</title>
<polygon fill="none" stroke="#bfbfbf" points="976,-74.5 976,-93.5 1136,-93.5 1136,-74.5 976,-74.5"/>
<text text-anchor="middle" x="1056" y="-81.5" font-family="Helvetica,sans-Serif" font-size="10.00">Math/GenVector/Translation3D.h</text>
</g>
<!-- Node16&#45;&gt;Node21 -->
<g id="edge22" class="edge"><title>Node16&#45;&gt;Node21</title>
<path fill="none" stroke="midnightblue" d="M611.815,-139.417C693.723,-131.867 841.372,-117.333 967,-100 977.234,-98.588 988.099,-96.9084 998.593,-95.1927"/>
<polygon fill="midnightblue" stroke="midnightblue" points="999.216,-98.6372 1008.51,-93.5443 998.068,-91.7321 999.216,-98.6372"/>
</g>
<!-- Node22 -->
<g id="node22" class="node"><title>Node22</title>
<polygon fill="none" stroke="#bfbfbf" points="103,-74.5 103,-93.5 159,-93.5 159,-74.5 103,-74.5"/>
<text text-anchor="middle" x="131" y="-81.5" font-family="Helvetica,sans-Serif" font-size="10.00">Rtypes.h</text>
</g>
<!-- Node16&#45;&gt;Node22 -->
<g id="edge23" class="edge"><title>Node16&#45;&gt;Node22</title>
<path fill="none" stroke="midnightblue" d="M486.364,-142.729C410.087,-138.797 277.833,-128.204 168,-100 165.008,-99.2317 161.937,-98.2764 158.904,-97.2225"/>
<polygon fill="midnightblue" stroke="midnightblue" points="160.085,-93.9268 149.494,-93.6279 157.587,-100.466 160.085,-93.9268"/>
</g>
<!-- Node23 -->
<g id="node23" class="node"><title>Node23</title>
<polygon fill="none" stroke="#bfbfbf" points="177,-74.5 177,-93.5 253,-93.5 253,-74.5 177,-74.5"/>
<text text-anchor="middle" x="215" y="-81.5" font-family="Helvetica,sans-Serif" font-size="10.00">TGeoMatrix.h</text>
</g>
<!-- Node16&#45;&gt;Node23 -->
<g id="edge24" class="edge"><title>Node16&#45;&gt;Node23</title>
<path fill="none" stroke="midnightblue" d="M486.321,-137.985C427.816,-130.775 338.321,-118.05 262,-100 257.78,-99.002 253.391,-97.8122 249.065,-96.5454"/>
<polygon fill="midnightblue" stroke="midnightblue" points="249.782,-93.1038 239.195,-93.5038 247.721,-99.7934 249.782,-93.1038"/>
</g>
<!-- Node24 -->
<g id="node24" class="node"><title>Node24</title>
<polygon fill="none" stroke="#bfbfbf" points="39.5,-74.5 39.5,-93.5 84.5,-93.5 84.5,-74.5 39.5,-74.5"/>
<text text-anchor="middle" x="62" y="-81.5" font-family="Helvetica,sans-Serif" font-size="10.00">iosfwd</text>
</g>
<!-- Node16&#45;&gt;Node24 -->
<g id="edge25" class="edge"><title>Node16&#45;&gt;Node24</title>
<path fill="none" stroke="midnightblue" d="M486.336,-145.454C397.459,-144.613 230.424,-137.53 94,-100 91.654,-99.3546 89.2669,-98.5492 86.9078,-97.6489"/>
<polygon fill="midnightblue" stroke="midnightblue" points="88.1109,-94.3556 77.5445,-93.5802 85.3211,-100.776 88.1109,-94.3556"/>
</g>
<!-- Node26&#45;&gt;Node25 -->
<g id="edge32" class="edge"><title>Node26&#45;&gt;Node25</title>
<path fill="none" stroke="midnightblue" d="M921.633,-360.444C872.378,-350.944 792.872,-335.611 740.029,-325.42"/>
<polygon fill="midnightblue" stroke="midnightblue" points="740.641,-321.974 730.159,-323.516 739.316,-328.847 740.641,-321.974"/>
</g>
<!-- Node26&#45;&gt;Node27 -->
<g id="edge29" class="edge"><title>Node26&#45;&gt;Node27</title>
<path fill="none" stroke="midnightblue" d="M962.861,-360.368C956.377,-342.537 941.38,-301.295 932.644,-277.272"/>
<polygon fill="midnightblue" stroke="midnightblue" points="935.831,-275.793 929.124,-267.591 929.252,-278.185 935.831,-275.793"/>
</g>
<!-- Node27&#45;&gt;Node12 -->
<g id="edge31" class="edge"><title>Node27&#45;&gt;Node12</title>
<path fill="none" stroke="midnightblue" d="M876.361,-249.492C813.543,-239.99 705.135,-223.592 635.288,-213.027"/>
<polygon fill="midnightblue" stroke="midnightblue" points="635.683,-209.547 625.272,-211.512 634.636,-216.468 635.683,-209.547"/>
</g>
<!-- Node28 -->
<g id="node28" class="node"><title>Node28</title>
<g id="a_node28"><a xlink:href="../../d0/dda/DataFormats_2Detectors_2TPC_2include_2DataFormatsTPC_2Constants_8h.html" target="_top" xlink:title="DataFormatsTPC/Constants.h">
<polygon fill="none" stroke="black" points="851,-192.5 851,-211.5 1001,-211.5 1001,-192.5 851,-192.5"/>
<text text-anchor="middle" x="926" y="-199.5" font-family="Helvetica,sans-Serif" font-size="10.00">DataFormatsTPC/Constants.h</text>
</a>
</g>
</g>
<!-- Node27&#45;&gt;Node28 -->
<g id="edge30" class="edge"><title>Node27&#45;&gt;Node28</title>
<path fill="none" stroke="midnightblue" d="M926,-248.083C926,-241.006 926,-230.861 926,-221.986"/>
<polygon fill="midnightblue" stroke="midnightblue" points="929.5,-221.751 926,-211.751 922.5,-221.751 929.5,-221.751"/>
</g>
<!-- Node29&#45;&gt;Node12 -->
<g id="edge34" class="edge"><title>Node29&#45;&gt;Node12</title>
<path fill="none" stroke="midnightblue" d="M545.213,-360.189C534.174,-352.241 519.498,-339.447 513,-324 509.553,-315.807 510.774,-312.606 513,-304 521.328,-271.805 542.371,-238.932 556.158,-219.774"/>
<polygon fill="midnightblue" stroke="midnightblue" points="559.121,-221.654 562.255,-211.533 553.494,-217.49 559.121,-221.654"/>
</g>
<!-- Node29&#45;&gt;Node25 -->
<g id="edge38" class="edge"><title>Node29&#45;&gt;Node25</title>
<path fill="none" stroke="midnightblue" d="M579.124,-360.444C600.024,-351.557 632.935,-337.563 656.716,-327.451"/>
<polygon fill="midnightblue" stroke="midnightblue" points="658.138,-330.65 665.971,-323.516 655.398,-324.208 658.138,-330.65"/>
</g>
<!-- Node30 -->
<g id="node30" class="node"><title>Node30</title>
<g id="a_node30"><a xlink:href="../../dc/d14/ROC_8h.html" target="_top" xlink:title="TPCBase/ROC.h">
<polygon fill="none" stroke="black" points="522.5,-304.5 522.5,-323.5 615.5,-323.5 615.5,-304.5 522.5,-304.5"/>
<text text-anchor="middle" x="569" y="-311.5" font-family="Helvetica,sans-Serif" font-size="10.00">TPCBase/ROC.h</text>
</a>
</g>
</g>
<!-- Node29&#45;&gt;Node30 -->
<g id="edge35" class="edge"><title>Node29&#45;&gt;Node30</title>
<path fill="none" stroke="midnightblue" d="M560.651,-360.083C561.976,-352.927 563.882,-342.635 565.539,-333.691"/>
<polygon fill="midnightblue" stroke="midnightblue" points="569,-334.221 567.379,-323.751 562.117,-332.947 569,-334.221"/>
</g>
<!-- Node30&#45;&gt;Node12 -->
<g id="edge36" class="edge"><title>Node30&#45;&gt;Node12</title>
<path fill="none" stroke="midnightblue" d="M569,-304.368C569,-286.617 569,-245.666 569,-221.597"/>
<polygon fill="midnightblue" stroke="midnightblue" points="572.5,-221.591 569,-211.591 565.5,-221.591 572.5,-221.591"/>
</g>
<!-- Node30&#45;&gt;Node27 -->
<g id="edge37" class="edge"><title>Node30&#45;&gt;Node27</title>
<path fill="none" stroke="midnightblue" d="M615.503,-305.342C618.378,-304.884 621.228,-304.433 624,-304 707.918,-290.882 805.096,-276.557 866.061,-267.674"/>
<polygon fill="midnightblue" stroke="midnightblue" points="866.876,-271.092 876.268,-266.188 865.868,-264.165 866.876,-271.092"/>
</g>
<!-- Node31&#45;&gt;Node12 -->
<g id="edge40" class="edge"><title>Node31&#45;&gt;Node12</title>
<path fill="none" stroke="midnightblue" d="M849.373,-416.417C828.655,-409.45 802.151,-397.815 784,-380 757.188,-353.685 772.714,-331.389 747,-304 706.084,-260.419 642.068,-230.498 602.987,-215.105"/>
<polygon fill="midnightblue" stroke="midnightblue" points="604.207,-211.825 593.617,-211.505 601.697,-218.359 604.207,-211.825"/>
</g>
<!-- Node31&#45;&gt;Node25 -->
<g id="edge45" class="edge"><title>Node31&#45;&gt;Node25</title>
<path fill="none" stroke="midnightblue" d="M841.991,-416.431C815.047,-409.368 779.139,-397.615 751,-380 730.388,-367.097 711.285,-346.526 699.197,-331.986"/>
<polygon fill="midnightblue" stroke="midnightblue" points="701.627,-329.424 692.626,-323.835 696.177,-333.817 701.627,-329.424"/>
</g>
<!-- Node31&#45;&gt;Node26 -->
<g id="edge46" class="edge"><title>Node31&#45;&gt;Node26</title>
<path fill="none" stroke="midnightblue" d="M894.657,-416.324C907.916,-407.9 928.268,-394.971 943.846,-385.074"/>
<polygon fill="midnightblue" stroke="midnightblue" points="945.813,-387.971 952.377,-379.655 942.06,-382.063 945.813,-387.971"/>
</g>
<!-- Node32 -->
<g id="node32" class="node"><title>Node32</title>
<g id="a_node32"><a xlink:href="../../df/d26/CRU_8h.html" target="_top" xlink:title="TPCBase/CRU.h">
<polygon fill="none" stroke="black" points="793.5,-360.5 793.5,-379.5 886.5,-379.5 886.5,-360.5 793.5,-360.5"/>
<text text-anchor="middle" x="840" y="-367.5" font-family="Helvetica,sans-Serif" font-size="10.00">TPCBase/CRU.h</text>
</a>
</g>
</g>
<!-- Node31&#45;&gt;Node32 -->
<g id="edge41" class="edge"><title>Node31&#45;&gt;Node32</title>
<path fill="none" stroke="midnightblue" d="M874.23,-416.083C868.438,-408.455 859.942,-397.264 852.862,-387.941"/>
<polygon fill="midnightblue" stroke="midnightblue" points="855.479,-385.599 846.644,-379.751 849.904,-389.832 855.479,-385.599"/>
</g>
<!-- Node32&#45;&gt;Node12 -->
<g id="edge42" class="edge"><title>Node32&#45;&gt;Node12</title>
<path fill="none" stroke="midnightblue" d="M838.469,-360.347C834.025,-337.927 818.941,-277.637 781,-248 759.516,-231.218 694.425,-219.016 641.979,-211.587"/>
<polygon fill="midnightblue" stroke="midnightblue" points="642.397,-208.111 632.012,-210.21 641.439,-215.045 642.397,-208.111"/>
</g>
<!-- Node32&#45;&gt;Node27 -->
<g id="edge43" class="edge"><title>Node32&#45;&gt;Node27</title>
<path fill="none" stroke="midnightblue" d="M846.748,-360.368C861.004,-342.135 894.394,-299.426 912.963,-275.675"/>
<polygon fill="midnightblue" stroke="midnightblue" points="915.881,-277.625 919.283,-267.591 910.366,-273.314 915.881,-277.625"/>
</g>
<!-- Node32&#45;&gt;Node30 -->
<g id="edge44" class="edge"><title>Node32&#45;&gt;Node30</title>
<path fill="none" stroke="midnightblue" d="M797.059,-360.444C749.487,-350.964 672.756,-335.675 621.611,-325.483"/>
<polygon fill="midnightblue" stroke="midnightblue" points="622.231,-322.038 611.74,-323.516 620.863,-328.903 622.231,-322.038"/>
</g>
<!-- Node33&#45;&gt;Node24 -->
<g id="edge48" class="edge"><title>Node33&#45;&gt;Node24</title>
<path fill="none" stroke="midnightblue" d="M62,-248.234C62,-221.548 62,-140.877 62,-103.893"/>
<polygon fill="midnightblue" stroke="midnightblue" points="65.5001,-103.544 62,-93.5442 58.5001,-103.544 65.5001,-103.544"/>
</g>
<!-- Node34&#45;&gt;Node4 -->
<g id="edge50" class="edge"><title>Node34&#45;&gt;Node4</title>
<path fill="none" stroke="midnightblue" d="M446.767,-416.444C424.616,-407.517 389.681,-393.439 364.564,-383.317"/>
<polygon fill="midnightblue" stroke="midnightblue" points="365.717,-380.008 355.133,-379.516 363.1,-386.501 365.717,-380.008"/>
</g>
<!-- Node34&#45;&gt;Node12 -->
<g id="edge51" class="edge"><title>Node34&#45;&gt;Node12</title>
<path fill="none" stroke="midnightblue" d="M469.197,-416.254C473.194,-389.332 487.922,-306.028 524,-248 530.968,-236.793 541.229,-226.248 550.194,-218.187"/>
<polygon fill="midnightblue" stroke="midnightblue" points="552.63,-220.708 557.931,-211.535 548.067,-215.4 552.63,-220.708"/>
</g>
<!-- Node34&#45;&gt;Node25 -->
<g id="edge52" class="edge"><title>Node34&#45;&gt;Node25</title>
<path fill="none" stroke="midnightblue" d="M533.264,-416.489C564.958,-410.101 602.471,-399.039 632,-380 650.813,-367.87 666.383,-347.109 675.893,-332.315"/>
<polygon fill="midnightblue" stroke="midnightblue" points="678.99,-333.959 681.24,-323.605 673.025,-330.296 678.99,-333.959"/>
</g>
<!-- Node36&#45;&gt;Node4 -->
<g id="edge58" class="edge"><title>Node36&#45;&gt;Node4</title>
<path fill="none" stroke="midnightblue" d="M584.012,-528.283C581.919,-514.127 575.675,-486.288 558,-472 489.462,-416.595 432.251,-490.511 363,-436 348.608,-424.672 341.16,-404.672 337.44,-389.839"/>
<polygon fill="midnightblue" stroke="midnightblue" points="340.791,-388.775 335.268,-379.733 333.947,-390.245 340.791,-388.775"/>
</g>
<!-- Node36&#45;&gt;Node7 -->
<g id="edge63" class="edge"><title>Node36&#45;&gt;Node7</title>
<path fill="none" stroke="midnightblue" d="M618.909,-528.444C655.849,-519.122 715.054,-504.183 755.418,-493.997"/>
<polygon fill="midnightblue" stroke="midnightblue" points="756.41,-497.357 765.25,-491.516 754.697,-490.57 756.41,-497.357"/>
</g>
<!-- Node36&#45;&gt;Node10 -->
<g id="edge59" class="edge"><title>Node36&#45;&gt;Node10</title>
<path fill="none" stroke="midnightblue" d="M639.756,-528.985C695.188,-520.641 783.293,-506.751 859,-492 969.912,-470.39 997.158,-462.518 1107,-436 1108.45,-435.65 1109.93,-435.288 1111.42,-434.919"/>
<polygon fill="midnightblue" stroke="midnightblue" points="1112.46,-438.268 1121.3,-432.432 1110.75,-431.48 1112.46,-438.268"/>
</g>
<!-- Node37 -->
<g id="node37" class="node"><title>Node37</title>
<polygon fill="none" stroke="#bfbfbf" points="685,-472.5 685,-491.5 729,-491.5 729,-472.5 685,-472.5"/>
<text text-anchor="middle" x="707" y="-479.5" font-family="Helvetica,sans-Serif" font-size="10.00">Vc/Vc</text>
</g>
<!-- Node36&#45;&gt;Node37 -->
<g id="edge56" class="edge"><title>Node36&#45;&gt;Node37</title>
<path fill="none" stroke="midnightblue" d="M604.331,-528.444C624.32,-519.596 655.743,-505.687 678.564,-495.586"/>
<polygon fill="midnightblue" stroke="midnightblue" points="680.032,-498.764 687.759,-491.516 677.198,-492.363 680.032,-498.764"/>
</g>
<!-- Node38 -->
<g id="node38" class="node"><title>Node38</title>
<polygon fill="none" stroke="#bfbfbf" points="389,-472.5 389,-491.5 441,-491.5 441,-472.5 389,-472.5"/>
<text text-anchor="middle" x="415" y="-479.5" font-family="Helvetica,sans-Serif" font-size="10.00">memory</text>
</g>
<!-- Node36&#45;&gt;Node38 -->
<g id="edge57" class="edge"><title>Node36&#45;&gt;Node38</title>
<path fill="none" stroke="midnightblue" d="M558.063,-528.444C529.171,-519.266 483.134,-504.642 451.116,-494.472"/>
<polygon fill="midnightblue" stroke="midnightblue" points="451.843,-491.031 441.252,-491.339 449.723,-497.702 451.843,-491.031"/>
</g>
<!-- Node39 -->
<g id="node39" class="node"><title>Node39</title>
<polygon fill="none" stroke="#bfbfbf" points="605,-472.5 605,-491.5 667,-491.5 667,-472.5 605,-472.5"/>
<text text-anchor="middle" x="636" y="-479.5" font-family="Helvetica,sans-Serif" font-size="10.00">type_traits</text>
</g>
<!-- Node36&#45;&gt;Node39 -->
<g id="edge60" class="edge"><title>Node36&#45;&gt;Node39</title>
<path fill="none" stroke="midnightblue" d="M593.422,-528.083C600.848,-520.22 611.852,-508.569 620.812,-499.081"/>
<polygon fill="midnightblue" stroke="midnightblue" points="623.413,-501.424 627.735,-491.751 618.324,-496.618 623.413,-501.424"/>
</g>
<!-- Node40 -->
<g id="node40" class="node"><title>Node40</title>
<polygon fill="none" stroke="#bfbfbf" points="459,-472.5 459,-491.5 549,-491.5 549,-472.5 459,-472.5"/>
<text text-anchor="middle" x="504" y="-479.5" font-family="Helvetica,sans-Serif" font-size="10.00">boost/format.hpp</text>
</g>
<!-- Node36&#45;&gt;Node40 -->
<g id="edge61" class="edge"><title>Node36&#45;&gt;Node40</title>
<path fill="none" stroke="midnightblue" d="M571.986,-528.324C559.468,-519.979 540.318,-507.212 525.529,-497.352"/>
<polygon fill="midnightblue" stroke="midnightblue" points="527.244,-494.289 516.982,-491.655 523.361,-500.114 527.244,-494.289"/>
</g>
<!-- Node41 -->
<g id="node41" class="node"><title>Node41</title>
<polygon fill="none" stroke="#bfbfbf" points="299.5,-472.5 299.5,-491.5 370.5,-491.5 370.5,-472.5 299.5,-472.5"/>
<text text-anchor="middle" x="335" y="-479.5" font-family="Helvetica,sans-Serif" font-size="10.00">FairLogger.h</text>
</g>
<!-- Node36&#45;&gt;Node41 -->
<g id="edge62" class="edge"><title>Node36&#45;&gt;Node41</title>
<path fill="none" stroke="midnightblue" d="M545.387,-528.444C500.62,-518.774 427.866,-503.059 380.725,-492.877"/>
<polygon fill="midnightblue" stroke="midnightblue" points="381.296,-489.419 370.783,-490.729 379.818,-496.262 381.296,-489.419"/>
</g>
<!-- Node42&#45;&gt;Node2 -->
<g id="edge69" class="edge"><title>Node42&#45;&gt;Node2</title>
<path fill="none" stroke="midnightblue" d="M383.389,-585.032C322.769,-575.488 221.15,-559.49 155.1,-549.091"/>
<polygon fill="midnightblue" stroke="midnightblue" points="155.642,-545.634 145.219,-547.536 154.553,-552.549 155.642,-545.634"/>
</g>
<!-- Node42&#45;&gt;Node4 -->
<g id="edge66" class="edge"><title>Node42&#45;&gt;Node4</title>
<path fill="none" stroke="midnightblue" d="M383.312,-585.424C358.026,-579.241 328.713,-568.08 309,-548 284.609,-523.154 282.898,-506.085 290,-472 296.445,-441.067 312.896,-407.997 323.754,-388.43"/>
<polygon fill="midnightblue" stroke="midnightblue" points="326.926,-389.932 328.839,-379.511 320.845,-386.464 326.926,-389.932"/>
</g>
<!-- Node42&#45;&gt;Node7 -->
<g id="edge73" class="edge"><title>Node42&#45;&gt;Node7</title>
<path fill="none" stroke="midnightblue" d="M484.89,-585.239C528.716,-577.862 593.351,-565.318 648,-548 693.222,-533.67 743.375,-510.548 772.993,-496.091"/>
<polygon fill="midnightblue" stroke="midnightblue" points="774.791,-499.106 782.213,-491.545 771.696,-492.828 774.791,-499.106"/>
</g>
<!-- Node42&#45;&gt;Node10 -->
<g id="edge67" class="edge"><title>Node42&#45;&gt;Node10</title>
<path fill="none" stroke="midnightblue" d="M484.775,-584.933C536.172,-576.55 617.855,-562.629 688,-548 792.261,-526.256 818.101,-519.479 921,-492 989.536,-473.697 1069.19,-449.553 1111.66,-436.448"/>
<polygon fill="midnightblue" stroke="midnightblue" points="1112.86,-439.741 1121.38,-433.442 1110.79,-433.054 1112.86,-439.741"/>
</g>
<!-- Node42&#45;&gt;Node12 -->
<g id="edge72" class="edge"><title>Node42&#45;&gt;Node12</title>
<path fill="none" stroke="midnightblue" d="M383.329,-586.498C332.257,-579.089 257.821,-565.68 235,-548 165.076,-493.826 144,-459.454 144,-371 144,-371 144,-371 144,-313 144,-241.185 374.309,-215.492 495.847,-206.934"/>
<polygon fill="midnightblue" stroke="midnightblue" points="496.094,-210.425 505.832,-206.252 495.617,-203.442 496.094,-210.425"/>
</g>
<!-- Node42&#45;&gt;Node27 -->
<g id="edge75" class="edge"><title>Node42&#45;&gt;Node27</title>
<path fill="none" stroke="midnightblue" d="M484.723,-590.269C636.974,-580.903 1084.83,-544.439 1171,-436 1235.06,-355.384 1056.96,-294.358 970.305,-270.257"/>
<polygon fill="midnightblue" stroke="midnightblue" points="971.032,-266.827 960.463,-267.568 969.187,-273.58 971.032,-266.827"/>
</g>
<!-- Node42&#45;&gt;Node30 -->
<g id="edge74" class="edge"><title>Node42&#45;&gt;Node30</title>
<path fill="none" stroke="midnightblue" d="M383.285,-588.887C320.002,-580.664 220,-556.104 220,-483 220,-483 220,-483 220,-425 220,-378.145 260.141,-378.933 303,-360 370.96,-329.978 456.829,-319.884 512.321,-316.548"/>
<polygon fill="midnightblue" stroke="midnightblue" points="512.524,-320.043 522.317,-316.001 512.141,-313.053 512.524,-320.043"/>
</g>
<!-- Node42&#45;&gt;Node36 -->
<g id="edge76" class="edge"><title>Node42&#45;&gt;Node36</title>
<path fill="none" stroke="midnightblue" d="M457.926,-584.444C483.219,-575.399 523.302,-561.064 551.68,-550.916"/>
<polygon fill="midnightblue" stroke="midnightblue" points="552.948,-554.179 561.186,-547.516 550.591,-547.588 552.948,-554.179"/>
</g>
<!-- Node42&#45;&gt;Node38 -->
<g id="edge65" class="edge"><title>Node42&#45;&gt;Node38</title>
<path fill="none" stroke="midnightblue" d="M432.509,-584.368C429.443,-566.617 422.37,-525.666 418.212,-501.597"/>
<polygon fill="midnightblue" stroke="midnightblue" points="421.635,-500.85 416.484,-491.591 414.737,-502.041 421.635,-500.85"/>
</g>
<!-- Node42&#45;&gt;Node40 -->
<g id="edge68" class="edge"><title>Node42&#45;&gt;Node40</title>
<path fill="none" stroke="midnightblue" d="M439.493,-584.368C450.994,-566.296 477.797,-524.176 492.986,-500.307"/>
<polygon fill="midnightblue" stroke="midnightblue" points="496.117,-501.907 498.533,-491.591 490.211,-498.149 496.117,-501.907"/>
</g>
<!-- Node42&#45;&gt;Node41 -->
<g id="edge71" class="edge"><title>Node42&#45;&gt;Node41</title>
<path fill="none" stroke="midnightblue" d="M426.149,-584.143C415.026,-571.608 394.028,-547.994 376,-528 367.311,-518.364 357.527,-507.621 349.696,-499.049"/>
<polygon fill="midnightblue" stroke="midnightblue" points="352.218,-496.62 342.887,-491.603 347.052,-501.344 352.218,-496.62"/>
</g>
<!-- Node43 -->
<g id="node43" class="node"><title>Node43</title>
<polygon fill="none" stroke="#bfbfbf" points="318.5,-528.5 318.5,-547.5 367.5,-547.5 367.5,-528.5 318.5,-528.5"/>
<text text-anchor="middle" x="343" y="-535.5" font-family="Helvetica,sans-Serif" font-size="10.00">cassert</text>
</g>
<!-- Node42&#45;&gt;Node43 -->
<g id="edge70" class="edge"><title>Node42&#45;&gt;Node43</title>
<path fill="none" stroke="midnightblue" d="M419.379,-584.324C405.051,-575.822 382.987,-562.729 366.251,-552.797"/>
<polygon fill="midnightblue" stroke="midnightblue" points="367.97,-549.748 357.584,-547.655 364.398,-555.768 367.97,-549.748"/>
</g>
</g>
</svg>
