<?xml version="1.0" encoding="UTF-8" standalone="no"?>
<!DOCTYPE svg PUBLIC "-//W3C//DTD SVG 1.1//EN"
 "http://www.w3.org/Graphics/SVG/1.1/DTD/svg11.dtd">
<!-- Generated by graphviz version 2.36.0 (20140111.2315)
 -->
<!-- Title: /home/travis/build/AliceO2Group/AliceO2/DataFormats/Detectors/TPC/include/DataFormatsTPC/ClusterNativeHelper.h Pages: 1 -->
<svg width="750pt" height="262pt"
 viewBox="0.00 0.00 750.00 262.00" xmlns="http://www.w3.org/2000/svg" xmlns:xlink="http://www.w3.org/1999/xlink">
<g id="graph0" class="graph" transform="scale(1 1) rotate(0) translate(4 258)">
<title>/home/travis/build/AliceO2Group/AliceO2/DataFormats/Detectors/TPC/include/DataFormatsTPC/ClusterNativeHelper.h</title>
<!-- Node1 -->
<g id="node1" class="node"><title>Node1</title>
<polygon fill="#bfbfbf" stroke="black" points="220,-190.5 220,-253.5 374,-253.5 374,-190.5 220,-190.5"/>
<text text-anchor="start" x="228" y="-241.5" font-family="Helvetica,sans-Serif" font-size="10.00">/home/travis/build</text>
<text text-anchor="start" x="228" y="-230.5" font-family="Helvetica,sans-Serif" font-size="10.00">/AliceO2Group/AliceO2</text>
<text text-anchor="start" x="228" y="-219.5" font-family="Helvetica,sans-Serif" font-size="10.00">/DataFormats/Detectors</text>
<text text-anchor="start" x="228" y="-208.5" font-family="Helvetica,sans-Serif" font-size="10.00">/TPC/include/DataFormatsTPC</text>
<text text-anchor="middle" x="297" y="-197.5" font-family="Helvetica,sans-Serif" font-size="10.00">/ClusterNativeHelper.h</text>
</g>
<!-- Node2 -->
<g id="node2" class="node"><title>Node2</title>
<g id="a_node2"><a xlink:href="../../d5/d1e/ClusterNativeHelper_8cxx.html" target="_top" xlink:title="Helper class to read the binary format of TPC ClusterNative. ">
<polygon fill="none" stroke="black" points="-0.5,-96 -0.5,-148 166.5,-148 166.5,-96 -0.5,-96"/>
<text text-anchor="start" x="7.5" y="-136" font-family="Helvetica,sans-Serif" font-size="10.00">/home/travis/build</text>
<text text-anchor="start" x="7.5" y="-125" font-family="Helvetica,sans-Serif" font-size="10.00">/AliceO2Group/AliceO2</text>
<text text-anchor="start" x="7.5" y="-114" font-family="Helvetica,sans-Serif" font-size="10.00">/DataFormats/Detectors</text>
<text text-anchor="middle" x="83" y="-103" font-family="Helvetica,sans-Serif" font-size="10.00">/TPC/src/ClusterNativeHelper.cxx</text>
</a>
</g>
</g>
<!-- Node1&#45;&gt;Node2 -->
<g id="edge1" class="edge"><title>Node1&#45;&gt;Node2</title>
<path fill="none" stroke="midnightblue" d="M220.989,-186.191C193.549,-173.625 163.133,-159.696 137.855,-148.121"/>
<polygon fill="midnightblue" stroke="midnightblue" points="219.62,-189.414 230.169,-190.395 222.535,-183.049 219.62,-189.414"/>
</g>
<!-- Node3 -->
<g id="node3" class="node"><title>Node3</title>
<g id="a_node3"><a xlink:href="../../d2/d41/HardwareClusterDecoder_8h.html" target="_top" xlink:title="/home/travis/build\l/AliceO2Group/AliceO2\l/Detectors/TPC/reconstruction\l/include/TPCReconstruction\l/HardwareClusterDecoder.h">
<polygon fill="none" stroke="black" points="222,-90.5 222,-153.5 372,-153.5 372,-90.5 222,-90.5"/>
<text text-anchor="start" x="230" y="-141.5" font-family="Helvetica,sans-Serif" font-size="10.00">/home/travis/build</text>
<text text-anchor="start" x="230" y="-130.5" font-family="Helvetica,sans-Serif" font-size="10.00">/AliceO2Group/AliceO2</text>
<text text-anchor="start" x="230" y="-119.5" font-family="Helvetica,sans-Serif" font-size="10.00">/Detectors/TPC/reconstruction</text>
<text text-anchor="start" x="230" y="-108.5" font-family="Helvetica,sans-Serif" font-size="10.00">/include/TPCReconstruction</text>
<text text-anchor="middle" x="297" y="-97.5" font-family="Helvetica,sans-Serif" font-size="10.00">/HardwareClusterDecoder.h</text>
</a>
</g>
</g>
<!-- Node1&#45;&gt;Node3 -->
<g id="edge2" class="edge"><title>Node1&#45;&gt;Node3</title>
<path fill="none" stroke="midnightblue" d="M297,-180.099C297,-171.238 297,-162.015 297,-153.63"/>
<polygon fill="midnightblue" stroke="midnightblue" points="293.5,-180.261 297,-190.261 300.5,-180.261 293.5,-180.261"/>
</g>
<!-- Node4 -->
<g id="node4" class="node"><title>Node4</title>
<g id="a_node4"><a xlink:href="../../d4/d7c/HardwareClusterDecoder_8cxx.html" target="_top" xlink:title="/home/travis/build\l/AliceO2Group/AliceO2\l/Detectors/TPC/reconstruction\l/src/HardwareClusterDecoder.cxx">
<polygon fill="none" stroke="black" points="111.5,-1 111.5,-53 276.5,-53 276.5,-1 111.5,-1"/>
<text text-anchor="start" x="119.5" y="-41" font-family="Helvetica,sans-Serif" font-size="10.00">/home/travis/build</text>
<text text-anchor="start" x="119.5" y="-30" font-family="Helvetica,sans-Serif" font-size="10.00">/AliceO2Group/AliceO2</text>
<text text-anchor="start" x="119.5" y="-19" font-family="Helvetica,sans-Serif" font-size="10.00">/Detectors/TPC/reconstruction</text>
<text text-anchor="middle" x="194" y="-8" font-family="Helvetica,sans-Serif" font-size="10.00">/src/HardwareClusterDecoder.cxx</text>
</a>
</g>
</g>
<!-- Node1&#45;&gt;Node4 -->
<g id="edge5" class="edge"><title>Node1&#45;&gt;Node4</title>
<path fill="none" stroke="midnightblue" d="M238.169,-183.689C228.412,-175.05 219.403,-165.09 213,-154 194.971,-122.771 192.198,-80.2288 192.562,-53.4402"/>
<polygon fill="midnightblue" stroke="midnightblue" points="236.201,-186.605 246.119,-190.33 240.689,-181.233 236.201,-186.605"/>
</g>
<!-- Node6 -->
<g id="node6" class="node"><title>Node6</title>
<g id="a_node6"><a xlink:href="../../d7/d83/testTPCCATracking_8cxx.html" target="_top" xlink:title="This task tests the TPC CA Tracking library. ">
<polygon fill="none" stroke="black" points="390,-96 390,-148 540,-148 540,-96 390,-96"/>
<text text-anchor="start" x="398" y="-136" font-family="Helvetica,sans-Serif" font-size="10.00">/home/travis/build</text>
<text text-anchor="start" x="398" y="-125" font-family="Helvetica,sans-Serif" font-size="10.00">/AliceO2Group/AliceO2</text>
<text text-anchor="start" x="398" y="-114" font-family="Helvetica,sans-Serif" font-size="10.00">/Detectors/TPC/reconstruction</text>
<text text-anchor="middle" x="465" y="-103" font-family="Helvetica,sans-Serif" font-size="10.00">/test/testTPCCATracking.cxx</text>
</a>
</g>
</g>
<!-- Node1&#45;&gt;Node6 -->
<g id="edge6" class="edge"><title>Node1&#45;&gt;Node6</title>
<path fill="none" stroke="midnightblue" d="M358.587,-185.075C379.663,-172.78 402.77,-159.301 422.051,-148.054"/>
<polygon fill="midnightblue" stroke="midnightblue" points="356.57,-182.199 349.695,-190.261 360.097,-188.246 356.57,-182.199"/>
</g>
<!-- Node7 -->
<g id="node7" class="node"><title>Node7</title>
<g id="a_node7"><a xlink:href="../../d1/df0/runCATrackingClusterNative_8C.html" target="_top" xlink:title="/home/travis/build\l/AliceO2Group/AliceO2\l/macro/runCATrackingClusterNative.C">
<polygon fill="none" stroke="black" points="557.5,-101.5 557.5,-142.5 742.5,-142.5 742.5,-101.5 557.5,-101.5"/>
<text text-anchor="start" x="565.5" y="-130.5" font-family="Helvetica,sans-Serif" font-size="10.00">/home/travis/build</text>
<text text-anchor="start" x="565.5" y="-119.5" font-family="Helvetica,sans-Serif" font-size="10.00">/AliceO2Group/AliceO2</text>
<text text-anchor="middle" x="650" y="-108.5" font-family="Helvetica,sans-Serif" font-size="10.00">/macro/runCATrackingClusterNative.C</text>
</a>
</g>
</g>
<!-- Node1&#45;&gt;Node7 -->
<g id="edge7" class="edge"><title>Node1&#45;&gt;Node7</title>
<path fill="none" stroke="midnightblue" d="M383.901,-198.585C432.317,-185.901 493.629,-169.514 548,-154 560.636,-150.394 574.109,-146.404 586.983,-142.52"/>
<polygon fill="midnightblue" stroke="midnightblue" points="382.874,-195.236 374.085,-201.152 384.645,-202.008 382.874,-195.236"/>
</g>
<!-- Node3&#45;&gt;Node4 -->
<g id="edge3" class="edge"><title>Node3&#45;&gt;Node4</title>
<path fill="none" stroke="midnightblue" d="M255.313,-83.3607C244.036,-73.1786 232.108,-62.4078 221.799,-53.1001"/>
<polygon fill="midnightblue" stroke="midnightblue" points="253.221,-86.1867 262.988,-90.2906 257.912,-80.9912 253.221,-86.1867"/>
</g>
<!-- Node5 -->
<g id="node5" class="node"><title>Node5</title>
<g id="a_node5"><a xlink:href="../../d9/d7b/ClusterDecoderRawSpec_8cxx.html" target="_top" xlink:title="Processor spec for decoder of TPC raw cluster data. ">
<polygon fill="none" stroke="black" points="295,-1 295,-53 461,-53 461,-1 295,-1"/>
<text text-anchor="start" x="303" y="-41" font-family="Helvetica,sans-Serif" font-size="10.00">/home/travis/build</text>
<text text-anchor="start" x="303" y="-30" font-family="Helvetica,sans-Serif" font-size="10.00">/AliceO2Group/AliceO2</text>
<text text-anchor="start" x="303" y="-19" font-family="Helvetica,sans-Serif" font-size="10.00">/Detectors/TPC/workflow</text>
<text text-anchor="middle" x="378" y="-8" font-family="Helvetica,sans-Serif" font-size="10.00">/src/ClusterDecoderRawSpec.cxx</text>
</a>
</g>
</g>
<!-- Node3&#45;&gt;Node5 -->
<g id="edge4" class="edge"><title>Node3&#45;&gt;Node5</title>
<path fill="none" stroke="midnightblue" d="M330.551,-82.4781C339.191,-72.5584 348.266,-62.1393 356.139,-53.1001"/>
<polygon fill="midnightblue" stroke="midnightblue" points="327.675,-80.451 323.747,-90.2906 332.954,-85.0485 327.675,-80.451"/>
</g>
</g>
</svg>
