<?xml version="1.0" encoding="UTF-8" standalone="no"?>
<!DOCTYPE svg PUBLIC "-//W3C//DTD SVG 1.1//EN"
 "http://www.w3.org/Graphics/SVG/1.1/DTD/svg11.dtd">
<!-- Generated by graphviz version 2.36.0 (20140111.2315)
 -->
<!-- Title: /home/travis/build/AliceO2Group/AliceO2/DataFormats/Detectors/MUON/MID/include/DataFormatsMID/ColumnData.h Pages: 1 -->
<svg width="721pt" height="252pt"
 viewBox="0.00 0.00 721.00 252.00" xmlns="http://www.w3.org/2000/svg" xmlns:xlink="http://www.w3.org/1999/xlink">
<g id="graph0" class="graph" transform="scale(1 1) rotate(0) translate(4 248)">
<title>/home/travis/build/AliceO2Group/AliceO2/DataFormats/Detectors/MUON/MID/include/DataFormatsMID/ColumnData.h</title>
<!-- Node1 -->
<g id="node1" class="node"><title>Node1</title>
<polygon fill="#bfbfbf" stroke="black" points="373.5,-180.5 373.5,-243.5 558.5,-243.5 558.5,-180.5 373.5,-180.5"/>
<text text-anchor="start" x="381.5" y="-231.5" font-family="Helvetica,sans-Serif" font-size="10.00">/home/travis/build</text>
<text text-anchor="start" x="381.5" y="-220.5" font-family="Helvetica,sans-Serif" font-size="10.00">/AliceO2Group/AliceO2</text>
<text text-anchor="start" x="381.5" y="-209.5" font-family="Helvetica,sans-Serif" font-size="10.00">/DataFormats/Detectors</text>
<text text-anchor="start" x="381.5" y="-198.5" font-family="Helvetica,sans-Serif" font-size="10.00">/MUON/MID/include/DataFormatsMID</text>
<text text-anchor="middle" x="466" y="-187.5" font-family="Helvetica,sans-Serif" font-size="10.00">/ColumnData.h</text>
</g>
<!-- Node2 -->
<g id="node2" class="node"><title>Node2</title>
<g id="a_node2"><a xlink:href="../../d5/d53/Clusterizer_8h.html" target="_top" xlink:title="Cluster reconstruction algorithm for MID. ">
<polygon fill="none" stroke="black" points="177.5,-91 177.5,-143 352.5,-143 352.5,-91 177.5,-91"/>
<text text-anchor="start" x="185.5" y="-131" font-family="Helvetica,sans-Serif" font-size="10.00">/home/travis/build</text>
<text text-anchor="start" x="185.5" y="-120" font-family="Helvetica,sans-Serif" font-size="10.00">/AliceO2Group/AliceO2</text>
<text text-anchor="start" x="185.5" y="-109" font-family="Helvetica,sans-Serif" font-size="10.00">/Detectors/MUON/MID/Clustering</text>
<text text-anchor="middle" x="265" y="-98" font-family="Helvetica,sans-Serif" font-size="10.00">/include/MIDClustering/Clusterizer.h</text>
</a>
</g>
</g>
<!-- Node1&#45;&gt;Node2 -->
<g id="edge1" class="edge"><title>Node1&#45;&gt;Node2</title>
<path fill="none" stroke="midnightblue" d="M390.562,-176.096C366.798,-165.101 341.037,-153.181 319.069,-143.017"/>
<polygon fill="midnightblue" stroke="midnightblue" points="389.361,-179.397 399.907,-180.42 392.301,-173.044 389.361,-179.397"/>
</g>
<!-- Node4 -->
<g id="node4" class="node"><title>Node4</title>
<g id="a_node4"><a xlink:href="../../d2/d12/bench__Clusterizer_8cxx.html" target="_top" xlink:title="Benchmark clustering device for MID. ">
<polygon fill="none" stroke="black" points="548.5,-1 548.5,-53 713.5,-53 713.5,-1 548.5,-1"/>
<text text-anchor="start" x="556.5" y="-41" font-family="Helvetica,sans-Serif" font-size="10.00">/home/travis/build</text>
<text text-anchor="start" x="556.5" y="-30" font-family="Helvetica,sans-Serif" font-size="10.00">/AliceO2Group/AliceO2</text>
<text text-anchor="start" x="556.5" y="-19" font-family="Helvetica,sans-Serif" font-size="10.00">/Detectors/MUON/MID/Clustering</text>
<text text-anchor="middle" x="631" y="-8" font-family="Helvetica,sans-Serif" font-size="10.00">/test/bench_Clusterizer.cxx</text>
</a>
</g>
</g>
<!-- Node1&#45;&gt;Node4 -->
<g id="edge9" class="edge"><title>Node1&#45;&gt;Node4</title>
<path fill="none" stroke="midnightblue" d="M533.441,-174.817C546.55,-165.867 559.471,-155.501 570,-144 594.583,-117.147 612.265,-78.5481 622.07,-53.3747"/>
<polygon fill="midnightblue" stroke="midnightblue" points="531.249,-172.069 524.822,-180.492 535.099,-177.916 531.249,-172.069"/>
</g>
<!-- Node6 -->
<g id="node6" class="node"><title>Node6</title>
<g id="a_node6"><a xlink:href="../../d7/d1a/PreClusterizer_8h.html" target="_top" xlink:title="Pre&#45;Cluster reconstruction algorithm for MID. ">
<polygon fill="none" stroke="black" points="371,-91 371,-143 561,-143 561,-91 371,-91"/>
<text text-anchor="start" x="379" y="-131" font-family="Helvetica,sans-Serif" font-size="10.00">/home/travis/build</text>
<text text-anchor="start" x="379" y="-120" font-family="Helvetica,sans-Serif" font-size="10.00">/AliceO2Group/AliceO2</text>
<text text-anchor="start" x="379" y="-109" font-family="Helvetica,sans-Serif" font-size="10.00">/Detectors/MUON/MID/Clustering</text>
<text text-anchor="middle" x="466" y="-98" font-family="Helvetica,sans-Serif" font-size="10.00">/include/MIDClustering/PreClusterizer.h</text>
</a>
</g>
</g>
<!-- Node1&#45;&gt;Node6 -->
<g id="edge5" class="edge"><title>Node1&#45;&gt;Node6</title>
<path fill="none" stroke="midnightblue" d="M466,-170.112C466,-160.917 466,-151.423 466,-143.1"/>
<polygon fill="midnightblue" stroke="midnightblue" points="462.5,-170.291 466,-180.291 469.5,-170.291 462.5,-170.291"/>
</g>
<!-- Node3 -->
<g id="node3" class="node"><title>Node3</title>
<g id="a_node3"><a xlink:href="../../d9/dd5/Clusterizer_8cxx.html" target="_top" xlink:title="Implementation of the cluster reconstruction algorithm for MID. ">
<polygon fill="none" stroke="black" points="-0.5,-1 -0.5,-53 164.5,-53 164.5,-1 -0.5,-1"/>
<text text-anchor="start" x="7.5" y="-41" font-family="Helvetica,sans-Serif" font-size="10.00">/home/travis/build</text>
<text text-anchor="start" x="7.5" y="-30" font-family="Helvetica,sans-Serif" font-size="10.00">/AliceO2Group/AliceO2</text>
<text text-anchor="start" x="7.5" y="-19" font-family="Helvetica,sans-Serif" font-size="10.00">/Detectors/MUON/MID/Clustering</text>
<text text-anchor="middle" x="82" y="-8" font-family="Helvetica,sans-Serif" font-size="10.00">/src/Clusterizer.cxx</text>
</a>
</g>
</g>
<!-- Node2&#45;&gt;Node3 -->
<g id="edge2" class="edge"><title>Node2&#45;&gt;Node3</title>
<path fill="none" stroke="midnightblue" d="M203.432,-86.3935C180.935,-75.5755 155.726,-63.453 134.132,-53.0687"/>
<polygon fill="midnightblue" stroke="midnightblue" points="202.031,-89.6032 212.56,-90.7827 205.064,-83.2947 202.031,-89.6032"/>
</g>
<!-- Node2&#45;&gt;Node4 -->
<g id="edge3" class="edge"><title>Node2&#45;&gt;Node4</title>
<path fill="none" stroke="midnightblue" d="M362.657,-89.9128C441.856,-71.6724 464.034,-72.1898 539,-54 542.065,-53.2564 545.181,-52.4799 548.325,-51.6796"/>
<polygon fill="midnightblue" stroke="midnightblue" points="361.652,-86.5531 352.708,-92.2327 363.242,-93.3702 361.652,-86.5531"/>
</g>
<!-- Node5 -->
<g id="node5" class="node"><title>Node5</title>
<g id="a_node5"><a xlink:href="../../d6/dee/testClusterizer_8cxx.html" target="_top" xlink:title="Test clustering device for MID. ">
<polygon fill="none" stroke="black" points="182.5,-1 182.5,-53 347.5,-53 347.5,-1 182.5,-1"/>
<text text-anchor="start" x="190.5" y="-41" font-family="Helvetica,sans-Serif" font-size="10.00">/home/travis/build</text>
<text text-anchor="start" x="190.5" y="-30" font-family="Helvetica,sans-Serif" font-size="10.00">/AliceO2Group/AliceO2</text>
<text text-anchor="start" x="190.5" y="-19" font-family="Helvetica,sans-Serif" font-size="10.00">/Detectors/MUON/MID/Clustering</text>
<text text-anchor="middle" x="265" y="-8" font-family="Helvetica,sans-Serif" font-size="10.00">/test/testClusterizer.cxx</text>
</a>
</g>
</g>
<!-- Node2&#45;&gt;Node5 -->
<g id="edge4" class="edge"><title>Node2&#45;&gt;Node5</title>
<path fill="none" stroke="midnightblue" d="M265,-80.4892C265,-71.3088 265,-61.616 265,-53.0921"/>
<polygon fill="midnightblue" stroke="midnightblue" points="261.5,-80.5467 265,-90.5468 268.5,-80.5468 261.5,-80.5467"/>
</g>
<!-- Node6&#45;&gt;Node4 -->
<g id="edge7" class="edge"><title>Node6&#45;&gt;Node4</title>
<path fill="none" stroke="midnightblue" d="M522.325,-85.9601C542.401,-75.2526 564.785,-63.3145 583.996,-53.0687"/>
<polygon fill="midnightblue" stroke="midnightblue" points="520.459,-82.9886 513.282,-90.7827 523.753,-89.165 520.459,-82.9886"/>
</g>
<!-- Node6&#45;&gt;Node5 -->
<g id="edge8" class="edge"><title>Node6&#45;&gt;Node5</title>
<path fill="none" stroke="midnightblue" d="M399.299,-86.7977C374.409,-75.9004 346.388,-63.6325 322.406,-53.1328"/>
<polygon fill="midnightblue" stroke="midnightblue" points="398.106,-90.096 408.67,-90.9005 400.914,-83.6837 398.106,-90.096"/>
</g>
<!-- Node7 -->
<g id="node7" class="node"><title>Node7</title>
<g id="a_node7"><a xlink:href="../../db/d2e/PreClusterizer_8cxx.html" target="_top" xlink:title="Implementation of the pre&#45;cluster reconstruction algorithm for MID. ">
<polygon fill="none" stroke="black" points="365.5,-1 365.5,-53 530.5,-53 530.5,-1 365.5,-1"/>
<text text-anchor="start" x="373.5" y="-41" font-family="Helvetica,sans-Serif" font-size="10.00">/home/travis/build</text>
<text text-anchor="start" x="373.5" y="-30" font-family="Helvetica,sans-Serif" font-size="10.00">/AliceO2Group/AliceO2</text>
<text text-anchor="start" x="373.5" y="-19" font-family="Helvetica,sans-Serif" font-size="10.00">/Detectors/MUON/MID/Clustering</text>
<text text-anchor="middle" x="448" y="-8" font-family="Helvetica,sans-Serif" font-size="10.00">/src/PreClusterizer.cxx</text>
</a>
</g>
</g>
<!-- Node6&#45;&gt;Node7 -->
<g id="edge6" class="edge"><title>Node6&#45;&gt;Node7</title>
<path fill="none" stroke="midnightblue" d="M458.736,-80.4892C456.859,-71.3088 454.876,-61.616 453.132,-53.0921"/>
<polygon fill="midnightblue" stroke="midnightblue" points="455.361,-81.451 460.794,-90.5468 462.219,-80.0482 455.361,-81.451"/>
</g>
</g>
</svg>
