<?xml version="1.0" encoding="UTF-8" standalone="no"?>
<!DOCTYPE svg PUBLIC "-//W3C//DTD SVG 1.1//EN"
 "http://www.w3.org/Graphics/SVG/1.1/DTD/svg11.dtd">
<!-- Generated by graphviz version 2.36.0 (20140111.2315)
 -->
<!-- Title: /home/travis/build/AliceO2Group/AliceO2/Detectors/FIT/reconstruction/src/RecPoints.cxx Pages: 1 -->
<!--zoomable 298 -->
<svg id="main" version="1.1" xmlns="http://www.w3.org/2000/svg" xmlns:xlink="http://www.w3.org/1999/xlink" xml:space="preserve" onload="init(evt)">
<style type="text/css"><![CDATA[
.edge:hover path { stroke: red; }
.edge:hover polygon { stroke: red; fill: red; }
]]></style>
<script type="text/javascript"><![CDATA[
var edges = document.getElementsByTagName('g');
if (edges && edges.length) {
  for (var i=0;i<edges.length;i++) {
    if (edges[i].id.substr(0,4)=='edge') {
      edges[i].setAttribute('class','edge');
    }
  }
}
]]></script>
        <defs>
                <circle id="rim" cx="0" cy="0" r="7"/>
                <circle id="rim2" cx="0" cy="0" r="3.5"/>
                <g id="zoomPlus">
                        <use xlink:href="#rim" fill="#404040">
                                <set attributeName="fill" to="#808080" begin="zoomplus.mouseover" end="zoomplus.mouseout"/>
                        </use>
                        <path d="M-4,0h8M0,-4v8" fill="none" stroke="white" stroke-width="1.5" pointer-events="none"/>
                </g>
                <g id="zoomMin">
                        <use xlink:href="#rim" fill="#404040">
                                <set attributeName="fill" to="#808080" begin="zoomminus.mouseover" end="zoomminus.mouseout"/>
                        </use>
                        <path d="M-4,0h8" fill="none" stroke="white" stroke-width="1.5" pointer-events="none"/>
                </g>
                <g id="dirArrow">
                        <path fill="none" stroke="white" stroke-width="1.5" d="M0,-3.0v7 M-2.5,-0.5L0,-3.0L2.5,-0.5"/>
                </g>
               <g id="resetDef">
                       <use xlink:href="#rim2" fill="#404040">
                               <set attributeName="fill" to="#808080" begin="reset.mouseover" end="reset.mouseout"/>
                       </use>
               </g>
        </defs>

<script type="text/javascript">
var viewWidth = 735;
var viewHeight = 298;
var sectionId = 'dynsection-0';
</script>
<script xlink:href="../../svgpan.js"/>
<svg id="graph" class="graph">
<g id="viewport">
<title>/home/travis/build/AliceO2Group/AliceO2/Detectors/FIT/reconstruction/src/RecPoints.cxx</title>
<!-- Node1 -->
<g id="node1" class="node"><title>Node1</title>
<polygon fill="#bfbfbf" stroke="black" points="306.5,-237 306.5,-289 451.5,-289 451.5,-237 306.5,-237"/>
<text text-anchor="start" x="314.5" y="-277" font-family="Helvetica,sans-Serif" font-size="10.00">/home/travis/build</text>
<text text-anchor="start" x="314.5" y="-266" font-family="Helvetica,sans-Serif" font-size="10.00">/AliceO2Group/AliceO2</text>
<text text-anchor="start" x="314.5" y="-255" font-family="Helvetica,sans-Serif" font-size="10.00">/Detectors/FIT/reconstruction</text>
<text text-anchor="middle" x="379" y="-244" font-family="Helvetica,sans-Serif" font-size="10.00">/src/RecPoints.cxx</text>
</g>
<!-- Node2 -->
<g id="node2" class="node"><title>Node2</title>
<g id="a_node2"><a xlink:href="../../d4/d57/RecPoints_8h.html" target="_top" xlink:title="Definition of the FIT RecPoints class. ">
<polygon fill="none" stroke="black" points="195.5,-180.5 195.5,-199.5 350.5,-199.5 350.5,-180.5 195.5,-180.5"/>
<text text-anchor="middle" x="273" y="-187.5" font-family="Helvetica,sans-Serif" font-size="10.00">FITReconstruction/RecPoints.h</text>
</a>
</g>
</g>
<!-- Node1&#45;&gt;Node2 -->
<g id="edge1" class="edge"><title>Node1&#45;&gt;Node2</title>
<path fill="none" stroke="midnightblue" d="M341.628,-236.968C325.84,-226.393 308.02,-214.457 294.496,-205.398"/>
<polygon fill="midnightblue" stroke="midnightblue" points="296.154,-202.296 285.897,-199.639 292.258,-208.112 296.154,-202.296"/>
</g>
<!-- Node9 -->
<g id="node9" class="node"><title>Node9</title>
<g id="a_node9"><a xlink:href="../../d1/db1/FIT_2base_2include_2FITBase_2Geometry_8h.html" target="_top" xlink:title="FITBase/Geometry.h">
<polygon fill="none" stroke="black" points="39,-180.5 39,-199.5 147,-199.5 147,-180.5 39,-180.5"/>
<text text-anchor="middle" x="93" y="-187.5" font-family="Helvetica,sans-Serif" font-size="10.00">FITBase/Geometry.h</text>
</a>
</g>
</g>
<!-- Node1&#45;&gt;Node9 -->
<g id="edge11" class="edge"><title>Node1&#45;&gt;Node9</title>
<path fill="none" stroke="midnightblue" d="M306.46,-243.992C253.073,-230.738 182.218,-213.149 137.103,-201.949"/>
<polygon fill="midnightblue" stroke="midnightblue" points="137.875,-198.534 127.327,-199.522 136.189,-205.328 137.875,-198.534"/>
</g>
<!-- Node11 -->
<g id="node11" class="node"><title>Node11</title>
<polygon fill="none" stroke="#bfbfbf" points="407.5,-180.5 407.5,-199.5 456.5,-199.5 456.5,-180.5 407.5,-180.5"/>
<text text-anchor="middle" x="432" y="-187.5" font-family="Helvetica,sans-Serif" font-size="10.00">cassert</text>
</g>
<!-- Node1&#45;&gt;Node11 -->
<g id="edge14" class="edge"><title>Node1&#45;&gt;Node11</title>
<path fill="none" stroke="midnightblue" d="M397.835,-236.768C404.99,-227.183 412.96,-216.506 419.402,-207.877"/>
<polygon fill="midnightblue" stroke="midnightblue" points="422.286,-209.864 425.463,-199.757 416.676,-205.677 422.286,-209.864"/>
</g>
<!-- Node12 -->
<g id="node12" class="node"><title>Node12</title>
<polygon fill="none" stroke="#bfbfbf" points="475,-180.5 475,-199.5 529,-199.5 529,-180.5 475,-180.5"/>
<text text-anchor="middle" x="502" y="-187.5" font-family="Helvetica,sans-Serif" font-size="10.00">iostream</text>
</g>
<!-- Node1&#45;&gt;Node12 -->
<g id="edge15" class="edge"><title>Node1&#45;&gt;Node12</title>
<path fill="none" stroke="midnightblue" d="M422.365,-236.968C441.038,-226.19 462.159,-213.997 477.956,-204.879"/>
<polygon fill="midnightblue" stroke="midnightblue" points="480.123,-207.669 487.034,-199.639 476.624,-201.607 480.123,-207.669"/>
</g>
<!-- Node13 -->
<g id="node13" class="node"><title>Node13</title>
<g id="a_node13"><a xlink:href="../../d9/d80/InteractionRecord_8h.html" target="_top" xlink:title="CommonDataFormat/Interaction\lRecord.h">
<polygon fill="none" stroke="black" points="467.5,-113 467.5,-143 624.5,-143 624.5,-113 467.5,-113"/>
<text text-anchor="start" x="475.5" y="-131" font-family="Helvetica,sans-Serif" font-size="10.00">CommonDataFormat/Interaction</text>
<text text-anchor="middle" x="546" y="-120" font-family="Helvetica,sans-Serif" font-size="10.00">Record.h</text>
</a>
</g>
</g>
<!-- Node1&#45;&gt;Node13 -->
<g id="edge16" class="edge"><title>Node1&#45;&gt;Node13</title>
<path fill="none" stroke="midnightblue" d="M378.685,-236.871C379.784,-218.96 384.111,-195.417 398,-180 409.258,-167.503 444.231,-155.168 477.352,-145.76"/>
<polygon fill="midnightblue" stroke="midnightblue" points="478.381,-149.107 487.082,-143.062 476.511,-142.361 478.381,-149.107"/>
</g>
<!-- Node3 -->
<g id="node3" class="node"><title>Node3</title>
<g id="a_node3"><a xlink:href="../../df/d5d/common_2include_2CommonDataFormat_2TimeStamp_8h.html" target="_top" xlink:title="CommonDataFormat/TimeStamp.h">
<polygon fill="none" stroke="black" points="159,-56.5 159,-75.5 329,-75.5 329,-56.5 159,-56.5"/>
<text text-anchor="middle" x="244" y="-63.5" font-family="Helvetica,sans-Serif" font-size="10.00">CommonDataFormat/TimeStamp.h</text>
</a>
</g>
</g>
<!-- Node2&#45;&gt;Node3 -->
<g id="edge2" class="edge"><title>Node2&#45;&gt;Node3</title>
<path fill="none" stroke="midnightblue" d="M257.217,-180.467C244.797,-172.769 228.395,-160.179 221,-144 212.066,-124.455 222.21,-100.554 231.708,-84.6146"/>
<polygon fill="midnightblue" stroke="midnightblue" points="234.893,-86.1323 237.362,-75.829 229.007,-82.344 234.893,-86.1323"/>
</g>
<!-- Node4 -->
<g id="node4" class="node"><title>Node4</title>
<polygon fill="none" stroke="#bfbfbf" points="216,-0.5 216,-19.5 272,-19.5 272,-0.5 216,-0.5"/>
<text text-anchor="middle" x="244" y="-7.5" font-family="Helvetica,sans-Serif" font-size="10.00">Rtypes.h</text>
</g>
<!-- Node2&#45;&gt;Node4 -->
<g id="edge5" class="edge"><title>Node2&#45;&gt;Node4</title>
<path fill="none" stroke="midnightblue" d="M256.286,-180.3C227.618,-164.259 170.204,-126.946 150,-76 138.681,-47.458 175.396,-29.671 206.208,-20.066"/>
<polygon fill="midnightblue" stroke="midnightblue" points="207.315,-23.3892 215.937,-17.2317 205.357,-16.6687 207.315,-23.3892"/>
</g>
<!-- Node5 -->
<g id="node5" class="node"><title>Node5</title>
<polygon fill="none" stroke="#bfbfbf" points="334,-118.5 334,-137.5 372,-137.5 372,-118.5 334,-118.5"/>
<text text-anchor="middle" x="353" y="-125.5" font-family="Helvetica,sans-Serif" font-size="10.00">array</text>
</g>
<!-- Node2&#45;&gt;Node5 -->
<g id="edge4" class="edge"><title>Node2&#45;&gt;Node5</title>
<path fill="none" stroke="midnightblue" d="M284.462,-180.403C297.175,-170.869 317.913,-155.315 333.253,-143.811"/>
<polygon fill="midnightblue" stroke="midnightblue" points="335.659,-146.381 341.559,-137.581 331.459,-140.781 335.659,-146.381"/>
</g>
<!-- Node6 -->
<g id="node6" class="node"><title>Node6</title>
<polygon fill="none" stroke="#bfbfbf" points="390.5,-118.5 390.5,-137.5 449.5,-137.5 449.5,-118.5 390.5,-118.5"/>
<text text-anchor="middle" x="420" y="-125.5" font-family="Helvetica,sans-Serif" font-size="10.00">TObject.h</text>
</g>
<!-- Node2&#45;&gt;Node6 -->
<g id="edge6" class="edge"><title>Node2&#45;&gt;Node6</title>
<path fill="none" stroke="midnightblue" d="M294.062,-180.403C319.059,-170.2 360.942,-153.105 389.487,-141.454"/>
<polygon fill="midnightblue" stroke="midnightblue" points="391.042,-144.6 398.978,-137.581 388.396,-138.119 391.042,-144.6"/>
</g>
<!-- Node7 -->
<g id="node7" class="node"><title>Node7</title>
<g id="a_node7"><a xlink:href="../../d1/dde/FIT_2base_2include_2FITBase_2Digit_8h.html" target="_top" xlink:title="FITBase/Digit.h">
<polygon fill="none" stroke="black" points="230,-118.5 230,-137.5 316,-137.5 316,-118.5 230,-118.5"/>
<text text-anchor="middle" x="273" y="-125.5" font-family="Helvetica,sans-Serif" font-size="10.00">FITBase/Digit.h</text>
</a>
</g>
</g>
<!-- Node2&#45;&gt;Node7 -->
<g id="edge7" class="edge"><title>Node2&#45;&gt;Node7</title>
<path fill="none" stroke="midnightblue" d="M273,-180.403C273,-171.938 273,-158.728 273,-147.82"/>
<polygon fill="midnightblue" stroke="midnightblue" points="276.5,-147.581 273,-137.581 269.5,-147.581 276.5,-147.581"/>
</g>
<!-- Node3&#45;&gt;Node4 -->
<g id="edge3" class="edge"><title>Node3&#45;&gt;Node4</title>
<path fill="none" stroke="midnightblue" d="M244,-56.083C244,-49.0059 244,-38.8611 244,-29.9865"/>
<polygon fill="midnightblue" stroke="midnightblue" points="247.5,-29.751 244,-19.7511 240.5,-29.7511 247.5,-29.751"/>
</g>
<!-- Node7&#45;&gt;Node3 -->
<g id="edge8" class="edge"><title>Node7&#45;&gt;Node3</title>
<path fill="none" stroke="midnightblue" d="M268.845,-118.403C264.624,-109.671 257.963,-95.8893 252.6,-84.7936"/>
<polygon fill="midnightblue" stroke="midnightblue" points="255.65,-83.061 248.147,-75.5806 249.348,-86.1072 255.65,-83.061"/>
</g>
<!-- Node7&#45;&gt;Node4 -->
<g id="edge10" class="edge"><title>Node7&#45;&gt;Node4</title>
<path fill="none" stroke="midnightblue" d="M291.432,-118.464C315.813,-105.938 353.945,-81.3106 338,-56 325.651,-36.3977 302.139,-25.1466 281.719,-18.7967"/>
<polygon fill="midnightblue" stroke="midnightblue" points="282.581,-15.4032 272.007,-16.058 280.681,-22.1405 282.581,-15.4032"/>
</g>
<!-- Node8 -->
<g id="node8" class="node"><title>Node8</title>
<polygon fill="none" stroke="#bfbfbf" points="385.5,-56.5 385.5,-75.5 430.5,-75.5 430.5,-56.5 385.5,-56.5"/>
<text text-anchor="middle" x="408" y="-63.5" font-family="Helvetica,sans-Serif" font-size="10.00">iosfwd</text>
</g>
<!-- Node7&#45;&gt;Node8 -->
<g id="edge9" class="edge"><title>Node7&#45;&gt;Node8</title>
<path fill="none" stroke="midnightblue" d="M292.342,-118.403C315.099,-108.29 353.092,-91.4036 379.288,-79.761"/>
<polygon fill="midnightblue" stroke="midnightblue" points="380.977,-82.8404 388.694,-75.5806 378.134,-76.4437 380.977,-82.8404"/>
</g>
<!-- Node9&#45;&gt;Node4 -->
<g id="edge12" class="edge"><title>Node9&#45;&gt;Node4</title>
<path fill="none" stroke="midnightblue" d="M94.0261,-180.337C97.1965,-157.202 108.843,-93.2084 144,-56 160.63,-38.3998 185.419,-27.1805 206.155,-20.346"/>
<polygon fill="midnightblue" stroke="midnightblue" points="207.425,-23.6174 215.956,-17.3344 205.369,-16.9262 207.425,-23.6174"/>
</g>
<!-- Node10 -->
<g id="node10" class="node"><title>Node10</title>
<polygon fill="none" stroke="#bfbfbf" points="-0.5,-118.5 -0.5,-137.5 64.5,-137.5 64.5,-118.5 -0.5,-118.5"/>
<text text-anchor="middle" x="32" y="-125.5" font-family="Helvetica,sans-Serif" font-size="10.00">TVector3.h</text>
</g>
<!-- Node9&#45;&gt;Node10 -->
<g id="edge13" class="edge"><title>Node9&#45;&gt;Node10</title>
<path fill="none" stroke="midnightblue" d="M84.2602,-180.403C74.8384,-171.136 59.6359,-156.183 48.0507,-144.788"/>
<polygon fill="midnightblue" stroke="midnightblue" points="50.3072,-142.098 40.7236,-137.581 45.3985,-147.088 50.3072,-142.098"/>
</g>
<!-- Node13&#45;&gt;Node4 -->
<g id="edge17" class="edge"><title>Node13&#45;&gt;Node4</title>
<path fill="none" stroke="midnightblue" d="M528.958,-112.846C508.734,-96.7542 473.404,-70.803 439,-56 387.034,-33.6408 322.286,-21.5197 282.039,-15.6583"/>
<polygon fill="midnightblue" stroke="midnightblue" points="282.499,-12.1887 272.11,-14.2674 281.528,-19.121 282.499,-12.1887"/>
</g>
<!-- Node13&#45;&gt;Node8 -->
<g id="edge18" class="edge"><title>Node13&#45;&gt;Node8</title>
<path fill="none" stroke="midnightblue" d="M513.645,-112.933C490.467,-102.855 459.517,-89.3986 437.112,-79.6575"/>
<polygon fill="midnightblue" stroke="midnightblue" points="438.346,-76.3776 427.78,-75.6 435.555,-82.7971 438.346,-76.3776"/>
</g>
<!-- Node14 -->
<g id="node14" class="node"><title>Node14</title>
<polygon fill="none" stroke="#bfbfbf" points="683,-56.5 683,-75.5 727,-75.5 727,-56.5 683,-56.5"/>
<text text-anchor="middle" x="705" y="-63.5" font-family="Helvetica,sans-Serif" font-size="10.00">cmath</text>
</g>
<!-- Node13&#45;&gt;Node14 -->
<g id="edge19" class="edge"><title>Node13&#45;&gt;Node14</title>
<path fill="none" stroke="midnightblue" d="M583.278,-112.933C610.626,-102.613 647.363,-88.7499 673.301,-78.9617"/>
<polygon fill="midnightblue" stroke="midnightblue" points="674.552,-82.2309 682.672,-75.4257 672.08,-75.6817 674.552,-82.2309"/>
</g>
<!-- Node15 -->
<g id="node15" class="node"><title>Node15</title>
<g id="a_node15"><a xlink:href="../../d4/dc6/LHCConstants_8h.html" target="_top" xlink:title="Header to collect LHC related constants. ">
<polygon fill="none" stroke="black" points="487,-56.5 487,-75.5 665,-75.5 665,-56.5 487,-56.5"/>
<text text-anchor="middle" x="576" y="-63.5" font-family="Helvetica,sans-Serif" font-size="10.00">CommonConstants/LHCConstants.h</text>
</a>
</g>
</g>
<!-- Node13&#45;&gt;Node15 -->
<g id="edge20" class="edge"><title>Node13&#45;&gt;Node15</title>
<path fill="none" stroke="midnightblue" d="M553.11,-112.781C557.289,-104.422 562.611,-93.7773 567.072,-84.8565"/>
<polygon fill="midnightblue" stroke="midnightblue" points="570.293,-86.2401 571.635,-75.7305 564.032,-83.1095 570.293,-86.2401"/>
</g>
</g>
</svg>
        <g id="navigator" transform="translate(0 0)" fill="#404254">
                <rect fill="#f2f5e9" fill-opacity="0.5" stroke="#606060" stroke-width=".5" x="0" y="0" width="60" height="60"/>
                <use id="zoomplus" xlink:href="#zoomPlus" x="17" y="9" onmousedown="handleZoom(evt,'in')"/>
                <use id="zoomminus" xlink:href="#zoomMin" x="42" y="9" onmousedown="handleZoom(evt,'out')"/>
                <use id="reset" xlink:href="#resetDef" x="30" y="36" onmousedown="handleReset()"/>
                <g id="arrowUp" xlink:href="#dirArrow" transform="translate(30 24)" onmousedown="handlePan(0,-1)">
                  <use xlink:href="#rim" fill="#404040">
                        <set attributeName="fill" to="#808080" begin="arrowUp.mouseover" end="arrowUp.mouseout"/>
                  </use>
                  <path fill="none" stroke="white" stroke-width="1.5" d="M0,-3.0v7 M-2.5,-0.5L0,-3.0L2.5,-0.5"/>
                </g>
                <g id="arrowRight" xlink:href="#dirArrow" transform="rotate(90) translate(36 -43)" onmousedown="handlePan(1,0)">
                  <use xlink:href="#rim" fill="#404040">
                        <set attributeName="fill" to="#808080" begin="arrowRight.mouseover" end="arrowRight.mouseout"/>
                  </use>
                  <path fill="none" stroke="white" stroke-width="1.5" d="M0,-3.0v7 M-2.5,-0.5L0,-3.0L2.5,-0.5"/>
                </g>
                <g id="arrowDown" xlink:href="#dirArrow" transform="rotate(180) translate(-30 -48)" onmousedown="handlePan(0,1)">
                  <use xlink:href="#rim" fill="#404040">
                        <set attributeName="fill" to="#808080" begin="arrowDown.mouseover" end="arrowDown.mouseout"/>
                  </use>
                  <path fill="none" stroke="white" stroke-width="1.5" d="M0,-3.0v7 M-2.5,-0.5L0,-3.0L2.5,-0.5"/>
                </g>
                <g id="arrowLeft" xlink:href="#dirArrow" transform="rotate(270) translate(-36 17)" onmousedown="handlePan(-1,0)">
                  <use xlink:href="#rim" fill="#404040">
                        <set attributeName="fill" to="#808080" begin="arrowLeft.mouseover" end="arrowLeft.mouseout"/>
                  </use>
                  <path fill="none" stroke="white" stroke-width="1.5" d="M0,-3.0v7 M-2.5,-0.5L0,-3.0L2.5,-0.5"/>
                </g>
        </g>
        <svg viewBox="0 0 15 15" width="100%" height="30px" preserveAspectRatio="xMaxYMin meet">
         <g id="arrow_out" transform="scale(0.3 0.3)">
          <a xlink:href="RecPoints_8cxx__incl_org.svg" target="_base">
           <rect id="button" ry="5" rx="5" y="6" x="6" height="38" width="38"
                fill="#f2f5e9" fill-opacity="0.5" stroke="#606060" stroke-width="1.0"/>
           <path id="arrow"
             d="M 11.500037,31.436501 C 11.940474,20.09759 22.043105,11.32322 32.158766,21.979434 L 37.068811,17.246167 C 37.068811,17.246167 37.088388,32 37.088388,32 L 22.160133,31.978069 C 22.160133,31.978069 26.997745,27.140456 26.997745,27.140456 C 18.528582,18.264221 13.291696,25.230495 11.500037,31.436501 z"
             style="fill:#404040;"/>
          </a>
         </g>
        </svg>
</svg>
