<?xml version="1.0" encoding="UTF-8" standalone="no"?>
<!DOCTYPE svg PUBLIC "-//W3C//DTD SVG 1.1//EN"
 "http://www.w3.org/Graphics/SVG/1.1/DTD/svg11.dtd">
<!-- Generated by graphviz version 2.36.0 (20140111.2315)
 -->
<!-- Title: sg_desc Pages: 1 -->
<!--zoomable 270 -->
<svg id="main" version="1.1" xmlns="http://www.w3.org/2000/svg" xmlns:xlink="http://www.w3.org/1999/xlink" xml:space="preserve" onload="init(evt)">
<style type="text/css"><![CDATA[
.edge:hover path { stroke: red; }
.edge:hover polygon { stroke: red; fill: red; }
]]></style>
<script type="text/javascript"><![CDATA[
var edges = document.getElementsByTagName('g');
if (edges && edges.length) {
  for (var i=0;i<edges.length;i++) {
    if (edges[i].id.substr(0,4)=='edge') {
      edges[i].setAttribute('class','edge');
    }
  }
}
]]></script>
        <defs>
                <circle id="rim" cx="0" cy="0" r="7"/>
                <circle id="rim2" cx="0" cy="0" r="3.5"/>
                <g id="zoomPlus">
                        <use xlink:href="#rim" fill="#404040">
                                <set attributeName="fill" to="#808080" begin="zoomplus.mouseover" end="zoomplus.mouseout"/>
                        </use>
                        <path d="M-4,0h8M0,-4v8" fill="none" stroke="white" stroke-width="1.5" pointer-events="none"/>
                </g>
                <g id="zoomMin">
                        <use xlink:href="#rim" fill="#404040">
                                <set attributeName="fill" to="#808080" begin="zoomminus.mouseover" end="zoomminus.mouseout"/>
                        </use>
                        <path d="M-4,0h8" fill="none" stroke="white" stroke-width="1.5" pointer-events="none"/>
                </g>
                <g id="dirArrow">
                        <path fill="none" stroke="white" stroke-width="1.5" d="M0,-3.0v7 M-2.5,-0.5L0,-3.0L2.5,-0.5"/>
                </g>
               <g id="resetDef">
                       <use xlink:href="#rim2" fill="#404040">
                               <set attributeName="fill" to="#808080" begin="reset.mouseover" end="reset.mouseout"/>
                       </use>
               </g>
        </defs>

<script type="text/javascript">
var viewWidth = 615;
var viewHeight = 270;
var sectionId = 'dynsection-0';
</script>
<script xlink:href="../../svgpan.js"/>
<svg id="graph" class="graph">
<g id="viewport">
<title>sg_desc</title>
<!-- Node1 -->
<g id="node1" class="node"><title>Node1</title>
<polygon fill="#bfbfbf" stroke="black" points="260.5,-0.5 260.5,-57.5 313.5,-57.5 313.5,-0.5 260.5,-0.5"/>
<text text-anchor="middle" x="287" y="-45.5" font-family="Helvetica,sans-Serif" font-size="10.00">sg_desc</text>
<polyline fill="none" stroke="black" points="260.5,-38.5 313.5,-38.5 "/>
<text text-anchor="middle" x="287" y="-26.5" font-family="Helvetica,sans-Serif" font-size="10.00"> </text>
<polyline fill="none" stroke="black" points="260.5,-19.5 313.5,-19.5 "/>
<text text-anchor="middle" x="287" y="-7.5" font-family="Helvetica,sans-Serif" font-size="10.00"> </text>
</g>
<!-- Node2 -->
<g id="node2" class="node"><title>Node2</title>
<polygon fill="none" stroke="#bfbfbf" points="0,-204.5 0,-261.5 102,-261.5 102,-204.5 0,-204.5"/>
<text text-anchor="middle" x="51" y="-249.5" font-family="Helvetica,sans-Serif" font-size="10.00">const void *(*)(void)</text>
<polyline fill="none" stroke="#bfbfbf" points="0,-242.5 102,-242.5 "/>
<text text-anchor="middle" x="51" y="-230.5" font-family="Helvetica,sans-Serif" font-size="10.00"> </text>
<polyline fill="none" stroke="#bfbfbf" points="0,-223.5 102,-223.5 "/>
<text text-anchor="middle" x="51" y="-211.5" font-family="Helvetica,sans-Serif" font-size="10.00"> </text>
</g>
<!-- Node2&#45;&gt;Node1 -->
<g id="edge1" class="edge"><title>Node2&#45;&gt;Node1</title>
<path fill="none" stroke="#404040" d="M44.801,-204.492C38.7791,-169.972 34.585,-111.053 66,-76 89.8305,-49.4099 191.705,-37.3672 248.448,-32.6343"/>
<polygon fill="none" stroke="#404040" points="248.532,-32.6278 254.199,-28.1677 260.495,-31.6828 254.829,-36.1429 248.532,-32.6278"/>
<text text-anchor="start" x="66" y="-161.5" font-family="Helvetica,sans-Serif" font-size="10.00"> +mtl_renderpass_descriptor</text>
<text text-anchor="middle" x="128" y="-150.5" font-family="Helvetica,sans-Serif" font-size="10.00">_cb</text>
<text text-anchor="start" x="66" y="-139.5" font-family="Helvetica,sans-Serif" font-size="10.00">+d3d11_depth_stencil</text>
<text text-anchor="middle" x="128" y="-128.5" font-family="Helvetica,sans-Serif" font-size="10.00">_view_cb</text>
<text text-anchor="start" x="66" y="-117.5" font-family="Helvetica,sans-Serif" font-size="10.00">+d3d11_render_target</text>
<text text-anchor="middle" x="128" y="-106.5" font-family="Helvetica,sans-Serif" font-size="10.00">_view_cb</text>
<text text-anchor="middle" x="128" y="-95.5" font-family="Helvetica,sans-Serif" font-size="10.00">+mtl_drawable_cb</text>
</g>
<!-- Node3 -->
<g id="node3" class="node"><title>Node3</title>
<polygon fill="none" stroke="#bfbfbf" points="172.5,-204.5 172.5,-261.5 223.5,-261.5 223.5,-204.5 172.5,-204.5"/>
<text text-anchor="middle" x="198" y="-249.5" font-family="Helvetica,sans-Serif" font-size="10.00">uint32_t</text>
<polyline fill="none" stroke="#bfbfbf" points="172.5,-242.5 223.5,-242.5 "/>
<text text-anchor="middle" x="198" y="-230.5" font-family="Helvetica,sans-Serif" font-size="10.00"> </text>
<polyline fill="none" stroke="#bfbfbf" points="172.5,-223.5 223.5,-223.5 "/>
<text text-anchor="middle" x="198" y="-211.5" font-family="Helvetica,sans-Serif" font-size="10.00"> </text>
</g>
<!-- Node3&#45;&gt;Node1 -->
<g id="edge2" class="edge"><title>Node3&#45;&gt;Node1</title>
<path fill="none" stroke="#404040" d="M194.713,-204.356C192.192,-171.273 192.547,-115.412 217,-76 224.768,-63.48 237.352,-53.6648 249.723,-46.3745"/>
<polygon fill="none" stroke="#404040" points="249.85,-46.3062 253.234,-39.9386 260.414,-40.6134 257.029,-46.981 249.85,-46.3062"/>
<text text-anchor="middle" x="250" y="-134" font-family="Helvetica,sans-Serif" font-size="10.00"> +_end_canary</text>
<text text-anchor="middle" x="250" y="-123" font-family="Helvetica,sans-Serif" font-size="10.00">+_start_canary</text>
</g>
<!-- Node4 -->
<g id="node4" class="node"><title>Node4</title>
<polygon fill="none" stroke="#bfbfbf" points="253,-204.5 253,-261.5 321,-261.5 321,-204.5 253,-204.5"/>
<text text-anchor="middle" x="287" y="-249.5" font-family="Helvetica,sans-Serif" font-size="10.00">const void *</text>
<polyline fill="none" stroke="#bfbfbf" points="253,-242.5 321,-242.5 "/>
<text text-anchor="middle" x="287" y="-230.5" font-family="Helvetica,sans-Serif" font-size="10.00"> </text>
<polyline fill="none" stroke="#bfbfbf" points="253,-223.5 321,-223.5 "/>
<text text-anchor="middle" x="287" y="-211.5" font-family="Helvetica,sans-Serif" font-size="10.00"> </text>
</g>
<!-- Node4&#45;&gt;Node1 -->
<g id="edge3" class="edge"><title>Node4&#45;&gt;Node1</title>
<path fill="none" stroke="#404040" d="M287,-204.336C287,-169.529 287,-109.509 287,-69.7809"/>
<polygon fill="none" stroke="#404040" points="287,-69.653 283,-63.653 287,-57.653 291,-63.6529 287,-69.653"/>
<text text-anchor="middle" x="339" y="-139.5" font-family="Helvetica,sans-Serif" font-size="10.00"> +mtl_device</text>
<text text-anchor="middle" x="339" y="-128.5" font-family="Helvetica,sans-Serif" font-size="10.00">+d3d11_device</text>
<text text-anchor="middle" x="339" y="-117.5" font-family="Helvetica,sans-Serif" font-size="10.00">+d3d11_device_context</text>
</g>
<!-- Node5 -->
<g id="node5" class="node"><title>Node5</title>
<polygon fill="none" stroke="#bfbfbf" points="399.5,-204.5 399.5,-261.5 428.5,-261.5 428.5,-204.5 399.5,-204.5"/>
<text text-anchor="middle" x="414" y="-249.5" font-family="Helvetica,sans-Serif" font-size="10.00">int</text>
<polyline fill="none" stroke="#bfbfbf" points="399.5,-242.5 428.5,-242.5 "/>
<text text-anchor="middle" x="414" y="-230.5" font-family="Helvetica,sans-Serif" font-size="10.00"> </text>
<polyline fill="none" stroke="#bfbfbf" points="399.5,-223.5 428.5,-223.5 "/>
<text text-anchor="middle" x="414" y="-211.5" font-family="Helvetica,sans-Serif" font-size="10.00"> </text>
</g>
<!-- Node5&#45;&gt;Node1 -->
<g id="edge4" class="edge"><title>Node5&#45;&gt;Node1</title>
<path fill="none" stroke="#404040" d="M413.281,-204.429C411.737,-165.153 406.919,-95.666 392,-76 376.094,-55.0335 348.605,-43.4536 325.743,-37.1574"/>
<polygon fill="none" stroke="#404040" points="325.609,-37.1246 318.826,-39.5713 313.959,-34.2508 320.742,-31.8041 325.609,-37.1246"/>
<text text-anchor="middle" x="458.5" y="-178" font-family="Helvetica,sans-Serif" font-size="10.00"> +shader_pool_size</text>
<text text-anchor="middle" x="458.5" y="-167" font-family="Helvetica,sans-Serif" font-size="10.00">+pipeline_pool_size</text>
<text text-anchor="start" x="413" y="-156" font-family="Helvetica,sans-Serif" font-size="10.00">+mtl_sampler_cache</text>
<text text-anchor="middle" x="458.5" y="-145" font-family="Helvetica,sans-Serif" font-size="10.00">_size</text>
<text text-anchor="middle" x="458.5" y="-134" font-family="Helvetica,sans-Serif" font-size="10.00">+pass_pool_size</text>
<text text-anchor="middle" x="458.5" y="-123" font-family="Helvetica,sans-Serif" font-size="10.00">+image_pool_size</text>
<text text-anchor="start" x="413" y="-112" font-family="Helvetica,sans-Serif" font-size="10.00">+mtl_global_uniform</text>
<text text-anchor="middle" x="458.5" y="-101" font-family="Helvetica,sans-Serif" font-size="10.00">_buffer_size</text>
<text text-anchor="middle" x="458.5" y="-90" font-family="Helvetica,sans-Serif" font-size="10.00">+context_pool_size</text>
<text text-anchor="middle" x="458.5" y="-79" font-family="Helvetica,sans-Serif" font-size="10.00">+buffer_pool_size</text>
</g>
<!-- Node6 -->
<g id="node6" class="node"><title>Node6</title>
<polygon fill="none" stroke="#bfbfbf" points="510.5,-204.5 510.5,-261.5 545.5,-261.5 545.5,-204.5 510.5,-204.5"/>
<text text-anchor="middle" x="528" y="-249.5" font-family="Helvetica,sans-Serif" font-size="10.00">bool</text>
<polyline fill="none" stroke="#bfbfbf" points="510.5,-242.5 545.5,-242.5 "/>
<text text-anchor="middle" x="528" y="-230.5" font-family="Helvetica,sans-Serif" font-size="10.00"> </text>
<polyline fill="none" stroke="#bfbfbf" points="510.5,-223.5 545.5,-223.5 "/>
<text text-anchor="middle" x="528" y="-211.5" font-family="Helvetica,sans-Serif" font-size="10.00"> </text>
</g>
<!-- Node6&#45;&gt;Node1 -->
<g id="edge5" class="edge"><title>Node6&#45;&gt;Node1</title>
<path fill="none" stroke="#404040" d="M532.754,-204.337C537.005,-169.652 538.32,-110.56 506,-76 481.935,-50.2676 382.042,-37.9075 325.847,-32.8879"/>
<polygon fill="none" stroke="#404040" points="325.524,-32.8606 319.207,-36.3388 313.567,-31.8457 319.883,-28.3675 325.524,-32.8606"/>
<text text-anchor="middle" x="570.5" y="-128.5" font-family="Helvetica,sans-Serif" font-size="10.00"> +gl_force_gles2</text>
</g>
</g>
</svg>
        <g id="navigator" transform="translate(0 0)" fill="#404254">
                <rect fill="#f2f5e9" fill-opacity="0.5" stroke="#606060" stroke-width=".5" x="0" y="0" width="60" height="60"/>
                <use id="zoomplus" xlink:href="#zoomPlus" x="17" y="9" onmousedown="handleZoom(evt,'in')"/>
                <use id="zoomminus" xlink:href="#zoomMin" x="42" y="9" onmousedown="handleZoom(evt,'out')"/>
                <use id="reset" xlink:href="#resetDef" x="30" y="36" onmousedown="handleReset()"/>
                <g id="arrowUp" xlink:href="#dirArrow" transform="translate(30 24)" onmousedown="handlePan(0,-1)">
                  <use xlink:href="#rim" fill="#404040">
                        <set attributeName="fill" to="#808080" begin="arrowUp.mouseover" end="arrowUp.mouseout"/>
                  </use>
                  <path fill="none" stroke="white" stroke-width="1.5" d="M0,-3.0v7 M-2.5,-0.5L0,-3.0L2.5,-0.5"/>
                </g>
                <g id="arrowRight" xlink:href="#dirArrow" transform="rotate(90) translate(36 -43)" onmousedown="handlePan(1,0)">
                  <use xlink:href="#rim" fill="#404040">
                        <set attributeName="fill" to="#808080" begin="arrowRight.mouseover" end="arrowRight.mouseout"/>
                  </use>
                  <path fill="none" stroke="white" stroke-width="1.5" d="M0,-3.0v7 M-2.5,-0.5L0,-3.0L2.5,-0.5"/>
                </g>
                <g id="arrowDown" xlink:href="#dirArrow" transform="rotate(180) translate(-30 -48)" onmousedown="handlePan(0,1)">
                  <use xlink:href="#rim" fill="#404040">
                        <set attributeName="fill" to="#808080" begin="arrowDown.mouseover" end="arrowDown.mouseout"/>
                  </use>
                  <path fill="none" stroke="white" stroke-width="1.5" d="M0,-3.0v7 M-2.5,-0.5L0,-3.0L2.5,-0.5"/>
                </g>
                <g id="arrowLeft" xlink:href="#dirArrow" transform="rotate(270) translate(-36 17)" onmousedown="handlePan(-1,0)">
                  <use xlink:href="#rim" fill="#404040">
                        <set attributeName="fill" to="#808080" begin="arrowLeft.mouseover" end="arrowLeft.mouseout"/>
                  </use>
                  <path fill="none" stroke="white" stroke-width="1.5" d="M0,-3.0v7 M-2.5,-0.5L0,-3.0L2.5,-0.5"/>
                </g>
        </g>
        <svg viewBox="0 0 15 15" width="100%" height="30px" preserveAspectRatio="xMaxYMin meet">
         <g id="arrow_out" transform="scale(0.3 0.3)">
          <a xlink:href="structsg__desc__coll__graph_org.svg" target="_base">
           <rect id="button" ry="5" rx="5" y="6" x="6" height="38" width="38"
                fill="#f2f5e9" fill-opacity="0.5" stroke="#606060" stroke-width="1.0"/>
           <path id="arrow"
             d="M 11.500037,31.436501 C 11.940474,20.09759 22.043105,11.32322 32.158766,21.979434 L 37.068811,17.246167 C 37.068811,17.246167 37.088388,32 37.088388,32 L 22.160133,31.978069 C 22.160133,31.978069 26.997745,27.140456 26.997745,27.140456 C 18.528582,18.264221 13.291696,25.230495 11.500037,31.436501 z"
             style="fill:#404040;"/>
          </a>
         </g>
        </svg>
</svg>
