<?xml version="1.0" encoding="UTF-8" standalone="no"?>
<!DOCTYPE svg PUBLIC "-//W3C//DTD SVG 1.1//EN"
 "http://www.w3.org/Graphics/SVG/1.1/DTD/svg11.dtd">
<!-- Generated by graphviz version 2.36.0 (20140111.2315)
 -->
<!-- Title: /home/travis/build/AliceO2Group/AliceO2/DataFormats/Parameters/include/DataFormatsParameters/GRPObject.h Pages: 1 -->
<svg width="4173pt" height="418pt"
 viewBox="0.00 0.00 4173.00 418.00" xmlns="http://www.w3.org/2000/svg" xmlns:xlink="http://www.w3.org/1999/xlink">
<g id="graph0" class="graph" transform="scale(1 1) rotate(0) translate(4 414)">
<title>/home/travis/build/AliceO2Group/AliceO2/DataFormats/Parameters/include/DataFormatsParameters/GRPObject.h</title>
<!-- Node1 -->
<g id="node1" class="node"><title>Node1</title>
<polygon fill="#bfbfbf" stroke="black" points="1980.5,-346.5 1980.5,-409.5 2141.5,-409.5 2141.5,-346.5 1980.5,-346.5"/>
<text text-anchor="start" x="1988.5" y="-397.5" font-family="Helvetica,sans-Serif" font-size="10.00">/home/travis/build</text>
<text text-anchor="start" x="1988.5" y="-386.5" font-family="Helvetica,sans-Serif" font-size="10.00">/AliceO2Group/AliceO2</text>
<text text-anchor="start" x="1988.5" y="-375.5" font-family="Helvetica,sans-Serif" font-size="10.00">/DataFormats/Parameters</text>
<text text-anchor="start" x="1988.5" y="-364.5" font-family="Helvetica,sans-Serif" font-size="10.00">/include/DataFormatsParameters</text>
<text text-anchor="middle" x="2061" y="-353.5" font-family="Helvetica,sans-Serif" font-size="10.00">/GRPObject.h</text>
</g>
<!-- Node2 -->
<g id="node2" class="node"><title>Node2</title>
<g id="a_node2"><a xlink:href="../../d9/df6/GRPObject_8cxx.html" target="_top" xlink:title="Implementation of General Run Parameters object. ">
<polygon fill="none" stroke="black" points="0,-252 0,-304 130,-304 130,-252 0,-252"/>
<text text-anchor="start" x="8" y="-292" font-family="Helvetica,sans-Serif" font-size="10.00">/home/travis/build</text>
<text text-anchor="start" x="8" y="-281" font-family="Helvetica,sans-Serif" font-size="10.00">/AliceO2Group/AliceO2</text>
<text text-anchor="start" x="8" y="-270" font-family="Helvetica,sans-Serif" font-size="10.00">/DataFormats/Parameters</text>
<text text-anchor="middle" x="65" y="-259" font-family="Helvetica,sans-Serif" font-size="10.00">/src/GRPObject.cxx</text>
</a>
</g>
</g>
<!-- Node1&#45;&gt;Node2 -->
<g id="edge1" class="edge"><title>Node1&#45;&gt;Node2</title>
<path fill="none" stroke="midnightblue" d="M1970.47,-375.762C1614.1,-370.625 318.739,-349.397 139,-310 132.197,-308.509 125.229,-306.418 118.419,-304.018"/>
<polygon fill="midnightblue" stroke="midnightblue" points="1970.43,-379.261 1980.48,-375.905 1970.53,-372.262 1970.43,-379.261"/>
</g>
<!-- Node3 -->
<g id="node3" class="node"><title>Node3</title>
<g id="a_node3"><a xlink:href="../../d8/dee/Propagator_8cxx.html" target="_top" xlink:title="/home/travis/build\l/AliceO2Group/AliceO2\l/Detectors/Base/src/Propagator.cxx">
<polygon fill="none" stroke="black" points="148.5,-257.5 148.5,-298.5 321.5,-298.5 321.5,-257.5 148.5,-257.5"/>
<text text-anchor="start" x="156.5" y="-286.5" font-family="Helvetica,sans-Serif" font-size="10.00">/home/travis/build</text>
<text text-anchor="start" x="156.5" y="-275.5" font-family="Helvetica,sans-Serif" font-size="10.00">/AliceO2Group/AliceO2</text>
<text text-anchor="middle" x="235" y="-264.5" font-family="Helvetica,sans-Serif" font-size="10.00">/Detectors/Base/src/Propagator.cxx</text>
</a>
</g>
</g>
<!-- Node1&#45;&gt;Node3 -->
<g id="edge2" class="edge"><title>Node1&#45;&gt;Node3</title>
<path fill="none" stroke="midnightblue" d="M1969.98,-376.791C1660.35,-375.56 649.43,-367.155 330,-310 315.484,-307.403 300.134,-303.113 286.105,-298.54"/>
<polygon fill="midnightblue" stroke="midnightblue" points="1970.24,-380.292 1980.25,-376.83 1970.27,-373.292 1970.24,-380.292"/>
</g>
<!-- Node4 -->
<g id="node4" class="node"><title>Node4</title>
<g id="a_node4"><a xlink:href="../../db/d6a/MatchTOF_8cxx.html" target="_top" xlink:title="/home/travis/build\l/AliceO2Group/AliceO2\l/Detectors/GlobalTracking\l/src/MatchTOF.cxx">
<polygon fill="none" stroke="black" points="339.5,-252 339.5,-304 470.5,-304 470.5,-252 339.5,-252"/>
<text text-anchor="start" x="347.5" y="-292" font-family="Helvetica,sans-Serif" font-size="10.00">/home/travis/build</text>
<text text-anchor="start" x="347.5" y="-281" font-family="Helvetica,sans-Serif" font-size="10.00">/AliceO2Group/AliceO2</text>
<text text-anchor="start" x="347.5" y="-270" font-family="Helvetica,sans-Serif" font-size="10.00">/Detectors/GlobalTracking</text>
<text text-anchor="middle" x="405" y="-259" font-family="Helvetica,sans-Serif" font-size="10.00">/src/MatchTOF.cxx</text>
</a>
</g>
</g>
<!-- Node1&#45;&gt;Node4 -->
<g id="edge3" class="edge"><title>Node1&#45;&gt;Node4</title>
<path fill="none" stroke="midnightblue" d="M1970.33,-377.296C1678.66,-377.598 767.003,-373.321 480,-310 473.258,-308.513 466.35,-306.459 459.585,-304.11"/>
<polygon fill="midnightblue" stroke="midnightblue" points="1970.44,-380.796 1980.44,-377.283 1970.43,-373.796 1970.44,-380.796"/>
</g>
<!-- Node5 -->
<g id="node5" class="node"><title>Node5</title>
<g id="a_node5"><a xlink:href="../../dc/d59/MatchTPCITS_8cxx.html" target="_top" xlink:title="/home/travis/build\l/AliceO2Group/AliceO2\l/Detectors/GlobalTracking\l/src/MatchTPCITS.cxx">
<polygon fill="none" stroke="black" points="488.5,-252 488.5,-304 619.5,-304 619.5,-252 488.5,-252"/>
<text text-anchor="start" x="496.5" y="-292" font-family="Helvetica,sans-Serif" font-size="10.00">/home/travis/build</text>
<text text-anchor="start" x="496.5" y="-281" font-family="Helvetica,sans-Serif" font-size="10.00">/AliceO2Group/AliceO2</text>
<text text-anchor="start" x="496.5" y="-270" font-family="Helvetica,sans-Serif" font-size="10.00">/Detectors/GlobalTracking</text>
<text text-anchor="middle" x="554" y="-259" font-family="Helvetica,sans-Serif" font-size="10.00">/src/MatchTPCITS.cxx</text>
</a>
</g>
</g>
<!-- Node1&#45;&gt;Node5 -->
<g id="edge4" class="edge"><title>Node1&#45;&gt;Node5</title>
<path fill="none" stroke="midnightblue" d="M1970.12,-376.824C1696.91,-375.654 886.074,-367.311 629,-310 622.262,-308.498 615.355,-306.435 608.592,-304.081"/>
<polygon fill="midnightblue" stroke="midnightblue" points="1970.37,-380.325 1980.39,-376.866 1970.4,-373.325 1970.37,-380.325"/>
</g>
<!-- Node6 -->
<g id="node6" class="node"><title>Node6</title>
<g id="a_node6"><a xlink:href="../../d2/d0b/CookedTrackerSpec_8h.html" target="_top" xlink:title="/home/travis/build\l/AliceO2Group/AliceO2\l/Detectors/ITSMFT/ITS\l/workflow/include/ITSWorkflow\l/CookedTrackerSpec.h">
<polygon fill="none" stroke="black" points="638,-246.5 638,-309.5 790,-309.5 790,-246.5 638,-246.5"/>
<text text-anchor="start" x="646" y="-297.5" font-family="Helvetica,sans-Serif" font-size="10.00">/home/travis/build</text>
<text text-anchor="start" x="646" y="-286.5" font-family="Helvetica,sans-Serif" font-size="10.00">/AliceO2Group/AliceO2</text>
<text text-anchor="start" x="646" y="-275.5" font-family="Helvetica,sans-Serif" font-size="10.00">/Detectors/ITSMFT/ITS</text>
<text text-anchor="start" x="646" y="-264.5" font-family="Helvetica,sans-Serif" font-size="10.00">/workflow/include/ITSWorkflow</text>
<text text-anchor="middle" x="714" y="-253.5" font-family="Helvetica,sans-Serif" font-size="10.00">/CookedTrackerSpec.h</text>
</a>
</g>
</g>
<!-- Node1&#45;&gt;Node6 -->
<g id="edge5" class="edge"><title>Node1&#45;&gt;Node6</title>
<path fill="none" stroke="midnightblue" d="M1970.32,-375.668C1720.02,-371.437 1023.22,-355.774 799,-310 796.076,-309.403 793.118,-308.724 790.146,-307.978"/>
<polygon fill="midnightblue" stroke="midnightblue" points="1970.41,-379.17 1980.47,-375.837 1970.53,-372.171 1970.41,-379.17"/>
</g>
<!-- Node9 -->
<g id="node9" class="node"><title>Node9</title>
<g id="a_node9"><a xlink:href="../../d7/da1/TrackerSpec_8cxx.html" target="_top" xlink:title="/home/travis/build\l/AliceO2Group/AliceO2\l/Detectors/ITSMFT/ITS\l/workflow/src/TrackerSpec.cxx">
<polygon fill="none" stroke="black" points="808,-252 808,-304 960,-304 960,-252 808,-252"/>
<text text-anchor="start" x="816" y="-292" font-family="Helvetica,sans-Serif" font-size="10.00">/home/travis/build</text>
<text text-anchor="start" x="816" y="-281" font-family="Helvetica,sans-Serif" font-size="10.00">/AliceO2Group/AliceO2</text>
<text text-anchor="start" x="816" y="-270" font-family="Helvetica,sans-Serif" font-size="10.00">/Detectors/ITSMFT/ITS</text>
<text text-anchor="middle" x="884" y="-259" font-family="Helvetica,sans-Serif" font-size="10.00">/workflow/src/TrackerSpec.cxx</text>
</a>
</g>
</g>
<!-- Node1&#45;&gt;Node9 -->
<g id="edge8" class="edge"><title>Node1&#45;&gt;Node9</title>
<path fill="none" stroke="midnightblue" d="M1970.14,-374.742C1743.95,-368.587 1160.24,-349.287 970,-310 962.539,-308.459 954.853,-306.406 947.288,-304.088"/>
<polygon fill="midnightblue" stroke="midnightblue" points="1970.22,-378.245 1980.31,-375.016 1970.41,-371.248 1970.22,-378.245"/>
</g>
<!-- Node10 -->
<g id="node10" class="node"><title>Node10</title>
<g id="a_node10"><a xlink:href="../../d0/d17/initSimGeomAndField_8C.html" target="_top" xlink:title="/home/travis/build\l/AliceO2Group/AliceO2\l/macro/initSimGeomAndField.C">
<polygon fill="none" stroke="black" points="978.5,-257.5 978.5,-298.5 1133.5,-298.5 1133.5,-257.5 978.5,-257.5"/>
<text text-anchor="start" x="986.5" y="-286.5" font-family="Helvetica,sans-Serif" font-size="10.00">/home/travis/build</text>
<text text-anchor="start" x="986.5" y="-275.5" font-family="Helvetica,sans-Serif" font-size="10.00">/AliceO2Group/AliceO2</text>
<text text-anchor="middle" x="1056" y="-264.5" font-family="Helvetica,sans-Serif" font-size="10.00">/macro/initSimGeomAndField.C</text>
</a>
</g>
</g>
<!-- Node1&#45;&gt;Node10 -->
<g id="edge9" class="edge"><title>Node1&#45;&gt;Node10</title>
<path fill="none" stroke="midnightblue" d="M1970.21,-373.485C1770.66,-365.252 1299.19,-342.896 1143,-310 1129.98,-307.257 1116.25,-303.034 1103.65,-298.579"/>
<polygon fill="midnightblue" stroke="midnightblue" points="1970.24,-376.988 1980.37,-373.901 1970.52,-369.994 1970.24,-376.988"/>
</g>
<!-- Node11 -->
<g id="node11" class="node"><title>Node11</title>
<g id="a_node11"><a xlink:href="../../dc/d6b/o2sim_8C.html" target="_top" xlink:title="/home/travis/build\l/AliceO2Group/AliceO2\l/macro/o2sim.C">
<polygon fill="none" stroke="black" points="1152,-257.5 1152,-298.5 1270,-298.5 1270,-257.5 1152,-257.5"/>
<text text-anchor="start" x="1160" y="-286.5" font-family="Helvetica,sans-Serif" font-size="10.00">/home/travis/build</text>
<text text-anchor="start" x="1160" y="-275.5" font-family="Helvetica,sans-Serif" font-size="10.00">/AliceO2Group/AliceO2</text>
<text text-anchor="middle" x="1211" y="-264.5" font-family="Helvetica,sans-Serif" font-size="10.00">/macro/o2sim.C</text>
</a>
</g>
</g>
<!-- Node1&#45;&gt;Node11 -->
<g id="edge10" class="edge"><title>Node1&#45;&gt;Node11</title>
<path fill="none" stroke="midnightblue" d="M1970.42,-373.124C1793.35,-364.909 1407.4,-343.691 1279,-310 1268.58,-307.267 1257.77,-303.047 1247.92,-298.593"/>
<polygon fill="midnightblue" stroke="midnightblue" points="1970.34,-376.624 1980.49,-373.588 1970.66,-369.631 1970.34,-376.624"/>
</g>
<!-- Node17 -->
<g id="node17" class="node"><title>Node17</title>
<g id="a_node17"><a xlink:href="../../d9/de3/run__digi__all_8C.html" target="_top" xlink:title="/home/travis/build\l/AliceO2Group/AliceO2\l/macro/run_digi_all.C">
<polygon fill="none" stroke="black" points="1288,-257.5 1288,-298.5 1406,-298.5 1406,-257.5 1288,-257.5"/>
<text text-anchor="start" x="1296" y="-286.5" font-family="Helvetica,sans-Serif" font-size="10.00">/home/travis/build</text>
<text text-anchor="start" x="1296" y="-275.5" font-family="Helvetica,sans-Serif" font-size="10.00">/AliceO2Group/AliceO2</text>
<text text-anchor="middle" x="1347" y="-264.5" font-family="Helvetica,sans-Serif" font-size="10.00">/macro/run_digi_all.C</text>
</a>
</g>
</g>
<!-- Node1&#45;&gt;Node17 -->
<g id="edge17" class="edge"><title>Node1&#45;&gt;Node17</title>
<path fill="none" stroke="midnightblue" d="M1970.38,-376.778C1843.85,-374.414 1608.06,-362.506 1415,-310 1404.73,-307.208 1394.07,-303.024 1384.31,-298.626"/>
<polygon fill="midnightblue" stroke="midnightblue" points="1970.36,-380.278 1980.42,-376.949 1970.48,-373.279 1970.36,-380.278"/>
</g>
<!-- Node18 -->
<g id="node18" class="node"><title>Node18</title>
<g id="a_node18"><a xlink:href="../../d0/dcb/run__digi__its_8C.html" target="_top" xlink:title="/home/travis/build\l/AliceO2Group/AliceO2\l/macro/run_digi_its.C">
<polygon fill="none" stroke="black" points="1424,-257.5 1424,-298.5 1542,-298.5 1542,-257.5 1424,-257.5"/>
<text text-anchor="start" x="1432" y="-286.5" font-family="Helvetica,sans-Serif" font-size="10.00">/home/travis/build</text>
<text text-anchor="start" x="1432" y="-275.5" font-family="Helvetica,sans-Serif" font-size="10.00">/AliceO2Group/AliceO2</text>
<text text-anchor="middle" x="1483" y="-264.5" font-family="Helvetica,sans-Serif" font-size="10.00">/macro/run_digi_its.C</text>
</a>
</g>
</g>
<!-- Node1&#45;&gt;Node18 -->
<g id="edge18" class="edge"><title>Node1&#45;&gt;Node18</title>
<path fill="none" stroke="midnightblue" d="M1970.36,-373.205C1867.09,-367.029 1694.1,-351.023 1551,-310 1540.9,-307.104 1530.38,-302.937 1520.72,-298.593"/>
<polygon fill="midnightblue" stroke="midnightblue" points="1970.25,-376.705 1980.44,-373.79 1970.66,-369.716 1970.25,-376.705"/>
</g>
<!-- Node19 -->
<g id="node19" class="node"><title>Node19</title>
<g id="a_node19"><a xlink:href="../../d2/d31/run__digi__mft_8C.html" target="_top" xlink:title="/home/travis/build\l/AliceO2Group/AliceO2\l/macro/run_digi_mft.C">
<polygon fill="none" stroke="black" points="1560,-257.5 1560,-298.5 1678,-298.5 1678,-257.5 1560,-257.5"/>
<text text-anchor="start" x="1568" y="-286.5" font-family="Helvetica,sans-Serif" font-size="10.00">/home/travis/build</text>
<text text-anchor="start" x="1568" y="-275.5" font-family="Helvetica,sans-Serif" font-size="10.00">/AliceO2Group/AliceO2</text>
<text text-anchor="middle" x="1619" y="-264.5" font-family="Helvetica,sans-Serif" font-size="10.00">/macro/run_digi_mft.C</text>
</a>
</g>
</g>
<!-- Node1&#45;&gt;Node19 -->
<g id="edge19" class="edge"><title>Node1&#45;&gt;Node19</title>
<path fill="none" stroke="midnightblue" d="M1970.34,-367.216C1893.64,-357.417 1781.46,-339.48 1687,-310 1677.22,-306.947 1666.99,-302.825 1657.54,-298.587"/>
<polygon fill="midnightblue" stroke="midnightblue" points="1970.09,-370.712 1980.45,-368.487 1970.97,-363.767 1970.09,-370.712"/>
</g>
<!-- Node20 -->
<g id="node20" class="node"><title>Node20</title>
<g id="a_node20"><a xlink:href="../../dd/d7c/run__match__tof_8C.html" target="_top" xlink:title="/home/travis/build\l/AliceO2Group/AliceO2\l/macro/run_match_tof.C">
<polygon fill="none" stroke="black" points="1696,-257.5 1696,-298.5 1818,-298.5 1818,-257.5 1696,-257.5"/>
<text text-anchor="start" x="1704" y="-286.5" font-family="Helvetica,sans-Serif" font-size="10.00">/home/travis/build</text>
<text text-anchor="start" x="1704" y="-275.5" font-family="Helvetica,sans-Serif" font-size="10.00">/AliceO2Group/AliceO2</text>
<text text-anchor="middle" x="1757" y="-264.5" font-family="Helvetica,sans-Serif" font-size="10.00">/macro/run_match_tof.C</text>
</a>
</g>
</g>
<!-- Node1&#45;&gt;Node20 -->
<g id="edge20" class="edge"><title>Node1&#45;&gt;Node20</title>
<path fill="none" stroke="midnightblue" d="M1970.65,-353.999C1927.11,-342.16 1874.39,-326.714 1828,-310 1818.64,-306.626 1808.75,-302.612 1799.43,-298.611"/>
<polygon fill="midnightblue" stroke="midnightblue" points="1969.8,-357.395 1980.37,-356.623 1971.63,-350.637 1969.8,-357.395"/>
</g>
<!-- Node21 -->
<g id="node21" class="node"><title>Node21</title>
<g id="a_node21"><a xlink:href="../../d9/d84/run__match__TPCITS_8C.html" target="_top" xlink:title="/home/travis/build\l/AliceO2Group/AliceO2\l/macro/run_match_TPCITS.C">
<polygon fill="none" stroke="black" points="1836.5,-257.5 1836.5,-298.5 1983.5,-298.5 1983.5,-257.5 1836.5,-257.5"/>
<text text-anchor="start" x="1844.5" y="-286.5" font-family="Helvetica,sans-Serif" font-size="10.00">/home/travis/build</text>
<text text-anchor="start" x="1844.5" y="-275.5" font-family="Helvetica,sans-Serif" font-size="10.00">/AliceO2Group/AliceO2</text>
<text text-anchor="middle" x="1910" y="-264.5" font-family="Helvetica,sans-Serif" font-size="10.00">/macro/run_match_TPCITS.C</text>
</a>
</g>
</g>
<!-- Node1&#45;&gt;Node21 -->
<g id="edge21" class="edge"><title>Node1&#45;&gt;Node21</title>
<path fill="none" stroke="midnightblue" d="M2005.02,-340.669C1983.02,-326.389 1958.64,-310.569 1940.09,-298.527"/>
<polygon fill="midnightblue" stroke="midnightblue" points="2003.34,-343.753 2013.64,-346.261 2007.15,-337.881 2003.34,-343.753"/>
</g>
<!-- Node22 -->
<g id="node22" class="node"><title>Node22</title>
<g id="a_node22"><a xlink:href="../../dc/d97/run__rec__ca_8C.html" target="_top" xlink:title="/home/travis/build\l/AliceO2Group/AliceO2\l/macro/run_rec_ca.C">
<polygon fill="none" stroke="black" points="2002,-257.5 2002,-298.5 2120,-298.5 2120,-257.5 2002,-257.5"/>
<text text-anchor="start" x="2010" y="-286.5" font-family="Helvetica,sans-Serif" font-size="10.00">/home/travis/build</text>
<text text-anchor="start" x="2010" y="-275.5" font-family="Helvetica,sans-Serif" font-size="10.00">/AliceO2Group/AliceO2</text>
<text text-anchor="middle" x="2061" y="-264.5" font-family="Helvetica,sans-Serif" font-size="10.00">/macro/run_rec_ca.C</text>
</a>
</g>
</g>
<!-- Node1&#45;&gt;Node22 -->
<g id="edge22" class="edge"><title>Node1&#45;&gt;Node22</title>
<path fill="none" stroke="midnightblue" d="M2061,-336.074C2061,-323.072 2061,-309.29 2061,-298.527"/>
<polygon fill="midnightblue" stroke="midnightblue" points="2057.5,-336.261 2061,-346.261 2064.5,-336.261 2057.5,-336.261"/>
</g>
<!-- Node23 -->
<g id="node23" class="node"><title>Node23</title>
<g id="a_node23"><a xlink:href="../../da/d77/run__test__vert__ca__its_8C.html" target="_top" xlink:title="/home/travis/build\l/AliceO2Group/AliceO2\l/macro/run_test_vert_ca_its.C">
<polygon fill="none" stroke="black" points="2138.5,-257.5 2138.5,-298.5 2287.5,-298.5 2287.5,-257.5 2138.5,-257.5"/>
<text text-anchor="start" x="2146.5" y="-286.5" font-family="Helvetica,sans-Serif" font-size="10.00">/home/travis/build</text>
<text text-anchor="start" x="2146.5" y="-275.5" font-family="Helvetica,sans-Serif" font-size="10.00">/AliceO2Group/AliceO2</text>
<text text-anchor="middle" x="2213" y="-264.5" font-family="Helvetica,sans-Serif" font-size="10.00">/macro/run_test_vert_ca_its.C</text>
</a>
</g>
</g>
<!-- Node1&#45;&gt;Node23 -->
<g id="edge23" class="edge"><title>Node1&#45;&gt;Node23</title>
<path fill="none" stroke="midnightblue" d="M2117.35,-340.669C2139.5,-326.389 2164.04,-310.569 2182.71,-298.527"/>
<polygon fill="midnightblue" stroke="midnightblue" points="2115.18,-337.901 2108.68,-346.261 2118.98,-343.784 2115.18,-337.901"/>
</g>
<!-- Node24 -->
<g id="node24" class="node"><title>Node24</title>
<g id="a_node24"><a xlink:href="../../d6/db2/run__trac__ca__its_8C.html" target="_top" xlink:title="/home/travis/build\l/AliceO2Group/AliceO2\l/macro/run_trac_ca_its.C">
<polygon fill="none" stroke="black" points="2305.5,-257.5 2305.5,-298.5 2432.5,-298.5 2432.5,-257.5 2305.5,-257.5"/>
<text text-anchor="start" x="2313.5" y="-286.5" font-family="Helvetica,sans-Serif" font-size="10.00">/home/travis/build</text>
<text text-anchor="start" x="2313.5" y="-275.5" font-family="Helvetica,sans-Serif" font-size="10.00">/AliceO2Group/AliceO2</text>
<text text-anchor="middle" x="2369" y="-264.5" font-family="Helvetica,sans-Serif" font-size="10.00">/macro/run_trac_ca_its.C</text>
</a>
</g>
</g>
<!-- Node1&#45;&gt;Node24 -->
<g id="edge24" class="edge"><title>Node1&#45;&gt;Node24</title>
<path fill="none" stroke="midnightblue" d="M2151.54,-354.002C2195.54,-342.113 2248.96,-326.623 2296,-310 2305.61,-306.605 2315.76,-302.583 2325.34,-298.579"/>
<polygon fill="midnightblue" stroke="midnightblue" points="2150.47,-350.664 2141.72,-356.637 2152.29,-357.425 2150.47,-350.664"/>
</g>
<!-- Node25 -->
<g id="node25" class="node"><title>Node25</title>
<g id="a_node25"><a xlink:href="../../d4/da9/run__vert__ca__its_8C.html" target="_top" xlink:title="/home/travis/build\l/AliceO2Group/AliceO2\l/macro/run_vert_ca_its.C">
<polygon fill="none" stroke="black" points="2450.5,-257.5 2450.5,-298.5 2577.5,-298.5 2577.5,-257.5 2450.5,-257.5"/>
<text text-anchor="start" x="2458.5" y="-286.5" font-family="Helvetica,sans-Serif" font-size="10.00">/home/travis/build</text>
<text text-anchor="start" x="2458.5" y="-275.5" font-family="Helvetica,sans-Serif" font-size="10.00">/AliceO2Group/AliceO2</text>
<text text-anchor="middle" x="2514" y="-264.5" font-family="Helvetica,sans-Serif" font-size="10.00">/macro/run_vert_ca_its.C</text>
</a>
</g>
</g>
<!-- Node1&#45;&gt;Node25 -->
<g id="edge25" class="edge"><title>Node1&#45;&gt;Node25</title>
<path fill="none" stroke="midnightblue" d="M2151.81,-366.881C2229.64,-356.819 2344.18,-338.686 2441,-310 2451.43,-306.91 2462.37,-302.775 2472.52,-298.534"/>
<polygon fill="midnightblue" stroke="midnightblue" points="2151.03,-363.452 2141.55,-368.188 2151.91,-370.396 2151.03,-363.452"/>
</g>
<!-- Node26 -->
<g id="node26" class="node"><title>Node26</title>
<g id="a_node26"><a xlink:href="../../d5/d9b/EMCALDigitizerSpec_8cxx.html" target="_top" xlink:title="/home/travis/build\l/AliceO2Group/AliceO2\l/Steer/DigitizerWorkflow\l/src/EMCALDigitizerSpec.cxx">
<polygon fill="none" stroke="black" points="2596,-252 2596,-304 2744,-304 2744,-252 2596,-252"/>
<text text-anchor="start" x="2604" y="-292" font-family="Helvetica,sans-Serif" font-size="10.00">/home/travis/build</text>
<text text-anchor="start" x="2604" y="-281" font-family="Helvetica,sans-Serif" font-size="10.00">/AliceO2Group/AliceO2</text>
<text text-anchor="start" x="2604" y="-270" font-family="Helvetica,sans-Serif" font-size="10.00">/Steer/DigitizerWorkflow</text>
<text text-anchor="middle" x="2670" y="-259" font-family="Helvetica,sans-Serif" font-size="10.00">/src/EMCALDigitizerSpec.cxx</text>
</a>
</g>
</g>
<!-- Node1&#45;&gt;Node26 -->
<g id="edge26" class="edge"><title>Node1&#45;&gt;Node26</title>
<path fill="none" stroke="midnightblue" d="M2151.62,-371.69C2257.17,-364.072 2436.21,-346.693 2586,-310 2592.79,-308.336 2599.8,-306.299 2606.72,-304.071"/>
<polygon fill="midnightblue" stroke="midnightblue" points="2151.36,-368.199 2141.64,-372.397 2151.86,-375.181 2151.36,-368.199"/>
</g>
<!-- Node27 -->
<g id="node27" class="node"><title>Node27</title>
<g id="a_node27"><a xlink:href="../../dd/dfe/FITDigitizerSpec_8cxx.html" target="_top" xlink:title="/home/travis/build\l/AliceO2Group/AliceO2\l/Steer/DigitizerWorkflow\l/src/FITDigitizerSpec.cxx">
<polygon fill="none" stroke="black" points="2762,-252 2762,-304 2890,-304 2890,-252 2762,-252"/>
<text text-anchor="start" x="2770" y="-292" font-family="Helvetica,sans-Serif" font-size="10.00">/home/travis/build</text>
<text text-anchor="start" x="2770" y="-281" font-family="Helvetica,sans-Serif" font-size="10.00">/AliceO2Group/AliceO2</text>
<text text-anchor="start" x="2770" y="-270" font-family="Helvetica,sans-Serif" font-size="10.00">/Steer/DigitizerWorkflow</text>
<text text-anchor="middle" x="2826" y="-259" font-family="Helvetica,sans-Serif" font-size="10.00">/src/FITDigitizerSpec.cxx</text>
</a>
</g>
</g>
<!-- Node1&#45;&gt;Node27 -->
<g id="edge27" class="edge"><title>Node1&#45;&gt;Node27</title>
<path fill="none" stroke="midnightblue" d="M2151.95,-376.952C2285.7,-374.927 2542.37,-363.569 2753,-310 2759.27,-308.405 2765.7,-306.351 2772.02,-304.059"/>
<polygon fill="midnightblue" stroke="midnightblue" points="2151.7,-373.455 2141.75,-377.092 2151.8,-380.455 2151.7,-373.455"/>
</g>
<!-- Node28 -->
<g id="node28" class="node"><title>Node28</title>
<g id="a_node28"><a xlink:href="../../d9/d59/GRPUpdaterSpec_8cxx.html" target="_top" xlink:title="/home/travis/build\l/AliceO2Group/AliceO2\l/Steer/DigitizerWorkflow\l/src/GRPUpdaterSpec.cxx">
<polygon fill="none" stroke="black" points="2908,-252 2908,-304 3042,-304 3042,-252 2908,-252"/>
<text text-anchor="start" x="2916" y="-292" font-family="Helvetica,sans-Serif" font-size="10.00">/home/travis/build</text>
<text text-anchor="start" x="2916" y="-281" font-family="Helvetica,sans-Serif" font-size="10.00">/AliceO2Group/AliceO2</text>
<text text-anchor="start" x="2916" y="-270" font-family="Helvetica,sans-Serif" font-size="10.00">/Steer/DigitizerWorkflow</text>
<text text-anchor="middle" x="2975" y="-259" font-family="Helvetica,sans-Serif" font-size="10.00">/src/GRPUpdaterSpec.cxx</text>
</a>
</g>
</g>
<!-- Node1&#45;&gt;Node28 -->
<g id="edge28" class="edge"><title>Node1&#45;&gt;Node28</title>
<path fill="none" stroke="midnightblue" d="M2151.73,-373.266C2338.29,-365.011 2759.14,-343.269 2899,-310 2905.65,-308.417 2912.49,-306.338 2919.19,-304.004"/>
<polygon fill="midnightblue" stroke="midnightblue" points="2151.51,-369.772 2141.67,-373.707 2151.82,-376.765 2151.51,-369.772"/>
</g>
<!-- Node29 -->
<g id="node29" class="node"><title>Node29</title>
<g id="a_node29"><a xlink:href="../../d8/d00/HMPIDDigitizerSpec_8cxx.html" target="_top" xlink:title="/home/travis/build\l/AliceO2Group/AliceO2\l/Steer/DigitizerWorkflow\l/src/HMPIDDigitizerSpec.cxx">
<polygon fill="none" stroke="black" points="3060,-252 3060,-304 3206,-304 3206,-252 3060,-252"/>
<text text-anchor="start" x="3068" y="-292" font-family="Helvetica,sans-Serif" font-size="10.00">/home/travis/build</text>
<text text-anchor="start" x="3068" y="-281" font-family="Helvetica,sans-Serif" font-size="10.00">/AliceO2Group/AliceO2</text>
<text text-anchor="start" x="3068" y="-270" font-family="Helvetica,sans-Serif" font-size="10.00">/Steer/DigitizerWorkflow</text>
<text text-anchor="middle" x="3133" y="-259" font-family="Helvetica,sans-Serif" font-size="10.00">/src/HMPIDDigitizerSpec.cxx</text>
</a>
</g>
</g>
<!-- Node1&#45;&gt;Node29 -->
<g id="edge29" class="edge"><title>Node1&#45;&gt;Node29</title>
<path fill="none" stroke="midnightblue" d="M2151.67,-374.265C2362.55,-367.354 2880.94,-347.049 3051,-310 3058.14,-308.445 3065.48,-306.383 3072.7,-304.059"/>
<polygon fill="midnightblue" stroke="midnightblue" points="2151.44,-370.77 2141.56,-374.594 2151.66,-377.767 2151.44,-370.77"/>
</g>
<!-- Node30 -->
<g id="node30" class="node"><title>Node30</title>
<g id="a_node30"><a xlink:href="../../d3/d43/ITSMFTDigitizerSpec_8cxx.html" target="_top" xlink:title="/home/travis/build\l/AliceO2Group/AliceO2\l/Steer/DigitizerWorkflow\l/src/ITSMFTDigitizerSpec.cxx">
<polygon fill="none" stroke="black" points="3224.5,-252 3224.5,-304 3373.5,-304 3373.5,-252 3224.5,-252"/>
<text text-anchor="start" x="3232.5" y="-292" font-family="Helvetica,sans-Serif" font-size="10.00">/home/travis/build</text>
<text text-anchor="start" x="3232.5" y="-281" font-family="Helvetica,sans-Serif" font-size="10.00">/AliceO2Group/AliceO2</text>
<text text-anchor="start" x="3232.5" y="-270" font-family="Helvetica,sans-Serif" font-size="10.00">/Steer/DigitizerWorkflow</text>
<text text-anchor="middle" x="3299" y="-259" font-family="Helvetica,sans-Serif" font-size="10.00">/src/ITSMFTDigitizerSpec.cxx</text>
</a>
</g>
</g>
<!-- Node1&#45;&gt;Node30 -->
<g id="edge30" class="edge"><title>Node1&#45;&gt;Node30</title>
<path fill="none" stroke="midnightblue" d="M2152.08,-375.178C2387.6,-369.913 3012.47,-352.272 3215,-310 3222.3,-308.475 3229.82,-306.433 3237.22,-304.12"/>
<polygon fill="midnightblue" stroke="midnightblue" points="2151.76,-371.684 2141.84,-375.405 2151.91,-378.683 2151.76,-371.684"/>
</g>
<!-- Node31 -->
<g id="node31" class="node"><title>Node31</title>
<g id="a_node31"><a xlink:href="../../db/d2f/MCHDigitizerSpec_8cxx.html" target="_top" xlink:title="/home/travis/build\l/AliceO2Group/AliceO2\l/Steer/DigitizerWorkflow\l/src/MCHDigitizerSpec.cxx">
<polygon fill="none" stroke="black" points="3391.5,-252 3391.5,-304 3528.5,-304 3528.5,-252 3391.5,-252"/>
<text text-anchor="start" x="3399.5" y="-292" font-family="Helvetica,sans-Serif" font-size="10.00">/home/travis/build</text>
<text text-anchor="start" x="3399.5" y="-281" font-family="Helvetica,sans-Serif" font-size="10.00">/AliceO2Group/AliceO2</text>
<text text-anchor="start" x="3399.5" y="-270" font-family="Helvetica,sans-Serif" font-size="10.00">/Steer/DigitizerWorkflow</text>
<text text-anchor="middle" x="3460" y="-259" font-family="Helvetica,sans-Serif" font-size="10.00">/src/MCHDigitizerSpec.cxx</text>
</a>
</g>
</g>
<!-- Node1&#45;&gt;Node31 -->
<g id="edge31" class="edge"><title>Node1&#45;&gt;Node31</title>
<path fill="none" stroke="midnightblue" d="M2151.92,-376.247C2410.53,-373.493 3146.75,-361.247 3382,-310 3388.98,-308.48 3396.14,-306.407 3403.16,-304.047"/>
<polygon fill="midnightblue" stroke="midnightblue" points="2151.78,-372.748 2141.81,-376.352 2151.85,-379.748 2151.78,-372.748"/>
</g>
<!-- Node32 -->
<g id="node32" class="node"><title>Node32</title>
<g id="a_node32"><a xlink:href="../../d2/dd7/SimpleDigitizerWorkflow_8cxx.html" target="_top" xlink:title="/home/travis/build\l/AliceO2Group/AliceO2\l/Steer/DigitizerWorkflow\l/src/SimpleDigitizerWorkflow.cxx">
<polygon fill="none" stroke="black" points="3547,-252 3547,-304 3709,-304 3709,-252 3547,-252"/>
<text text-anchor="start" x="3555" y="-292" font-family="Helvetica,sans-Serif" font-size="10.00">/home/travis/build</text>
<text text-anchor="start" x="3555" y="-281" font-family="Helvetica,sans-Serif" font-size="10.00">/AliceO2Group/AliceO2</text>
<text text-anchor="start" x="3555" y="-270" font-family="Helvetica,sans-Serif" font-size="10.00">/Steer/DigitizerWorkflow</text>
<text text-anchor="middle" x="3628" y="-259" font-family="Helvetica,sans-Serif" font-size="10.00">/src/SimpleDigitizerWorkflow.cxx</text>
</a>
</g>
</g>
<!-- Node1&#45;&gt;Node32 -->
<g id="edge32" class="edge"><title>Node1&#45;&gt;Node32</title>
<path fill="none" stroke="midnightblue" d="M2151.66,-376.234C2429.97,-373.356 3269.35,-360.599 3537,-310 3545.04,-308.481 3553.33,-306.407 3561.49,-304.048"/>
<polygon fill="midnightblue" stroke="midnightblue" points="2151.57,-372.735 2141.6,-376.336 2151.64,-379.735 2151.57,-372.735"/>
</g>
<!-- Node33 -->
<g id="node33" class="node"><title>Node33</title>
<g id="a_node33"><a xlink:href="../../d6/d61/TOFDigitizerSpec_8cxx.html" target="_top" xlink:title="/home/travis/build\l/AliceO2Group/AliceO2\l/Steer/DigitizerWorkflow\l/src/TOFDigitizerSpec.cxx">
<polygon fill="none" stroke="black" points="3727.5,-252 3727.5,-304 3860.5,-304 3860.5,-252 3727.5,-252"/>
<text text-anchor="start" x="3735.5" y="-292" font-family="Helvetica,sans-Serif" font-size="10.00">/home/travis/build</text>
<text text-anchor="start" x="3735.5" y="-281" font-family="Helvetica,sans-Serif" font-size="10.00">/AliceO2Group/AliceO2</text>
<text text-anchor="start" x="3735.5" y="-270" font-family="Helvetica,sans-Serif" font-size="10.00">/Steer/DigitizerWorkflow</text>
<text text-anchor="middle" x="3794" y="-259" font-family="Helvetica,sans-Serif" font-size="10.00">/src/TOFDigitizerSpec.cxx</text>
</a>
</g>
</g>
<!-- Node1&#45;&gt;Node33 -->
<g id="edge33" class="edge"><title>Node1&#45;&gt;Node33</title>
<path fill="none" stroke="midnightblue" d="M2151.9,-377.45C2452.97,-378.296 3415.64,-375.664 3718,-310 3724.82,-308.518 3731.82,-306.468 3738.67,-304.121"/>
<polygon fill="midnightblue" stroke="midnightblue" points="2151.91,-373.95 2141.9,-377.42 2151.89,-380.95 2151.91,-373.95"/>
</g>
<!-- Node34 -->
<g id="node34" class="node"><title>Node34</title>
<g id="a_node34"><a xlink:href="../../d2/d0b/TPCDigitizerSpec_8cxx.html" target="_top" xlink:title="/home/travis/build\l/AliceO2Group/AliceO2\l/Steer/DigitizerWorkflow\l/src/TPCDigitizerSpec.cxx">
<polygon fill="none" stroke="black" points="3879,-252 3879,-304 4013,-304 4013,-252 3879,-252"/>
<text text-anchor="start" x="3887" y="-292" font-family="Helvetica,sans-Serif" font-size="10.00">/home/travis/build</text>
<text text-anchor="start" x="3887" y="-281" font-family="Helvetica,sans-Serif" font-size="10.00">/AliceO2Group/AliceO2</text>
<text text-anchor="start" x="3887" y="-270" font-family="Helvetica,sans-Serif" font-size="10.00">/Steer/DigitizerWorkflow</text>
<text text-anchor="middle" x="3946" y="-259" font-family="Helvetica,sans-Serif" font-size="10.00">/src/TPCDigitizerSpec.cxx</text>
</a>
</g>
</g>
<!-- Node1&#45;&gt;Node34 -->
<g id="edge34" class="edge"><title>Node1&#45;&gt;Node34</title>
<path fill="none" stroke="midnightblue" d="M2151.81,-375.47C2494.81,-369.437 3700.63,-345.867 3869,-310 3875.91,-308.529 3882.99,-306.485 3889.93,-304.142"/>
<polygon fill="midnightblue" stroke="midnightblue" points="2151.61,-371.972 2141.67,-375.647 2151.73,-378.971 2151.61,-371.972"/>
</g>
<!-- Node35 -->
<g id="node35" class="node"><title>Node35</title>
<g id="a_node35"><a xlink:href="../../d6/df2/TRDDigitizerSpec_8cxx.html" target="_top" xlink:title="/home/travis/build\l/AliceO2Group/AliceO2\l/Steer/DigitizerWorkflow\l/src/TRDDigitizerSpec.cxx">
<polygon fill="none" stroke="black" points="4031,-252 4031,-304 4165,-304 4165,-252 4031,-252"/>
<text text-anchor="start" x="4039" y="-292" font-family="Helvetica,sans-Serif" font-size="10.00">/home/travis/build</text>
<text text-anchor="start" x="4039" y="-281" font-family="Helvetica,sans-Serif" font-size="10.00">/AliceO2Group/AliceO2</text>
<text text-anchor="start" x="4039" y="-270" font-family="Helvetica,sans-Serif" font-size="10.00">/Steer/DigitizerWorkflow</text>
<text text-anchor="middle" x="4098" y="-259" font-family="Helvetica,sans-Serif" font-size="10.00">/src/TRDDigitizerSpec.cxx</text>
</a>
</g>
</g>
<!-- Node1&#45;&gt;Node35 -->
<g id="edge35" class="edge"><title>Node1&#45;&gt;Node35</title>
<path fill="none" stroke="midnightblue" d="M2151.83,-375.776C2513.2,-370.649 3838.16,-349.323 4022,-310 4028.97,-308.51 4036.11,-306.419 4043.1,-304.019"/>
<polygon fill="midnightblue" stroke="midnightblue" points="2151.63,-372.278 2141.68,-375.919 2151.73,-379.277 2151.63,-372.278"/>
</g>
<!-- Node7 -->
<g id="node7" class="node"><title>Node7</title>
<g id="a_node7"><a xlink:href="../../d6/dbc/CookedTrackerSpec_8cxx.html" target="_top" xlink:title="/home/travis/build\l/AliceO2Group/AliceO2\l/Detectors/ITSMFT/ITS\l/workflow/src/CookedTrackerSpec.cxx">
<polygon fill="none" stroke="black" points="525,-157 525,-209 711,-209 711,-157 525,-157"/>
<text text-anchor="start" x="533" y="-197" font-family="Helvetica,sans-Serif" font-size="10.00">/home/travis/build</text>
<text text-anchor="start" x="533" y="-186" font-family="Helvetica,sans-Serif" font-size="10.00">/AliceO2Group/AliceO2</text>
<text text-anchor="start" x="533" y="-175" font-family="Helvetica,sans-Serif" font-size="10.00">/Detectors/ITSMFT/ITS</text>
<text text-anchor="middle" x="618" y="-164" font-family="Helvetica,sans-Serif" font-size="10.00">/workflow/src/CookedTrackerSpec.cxx</text>
</a>
</g>
</g>
<!-- Node6&#45;&gt;Node7 -->
<g id="edge6" class="edge"><title>Node6&#45;&gt;Node7</title>
<path fill="none" stroke="midnightblue" d="M674.843,-239.067C664.422,-228.972 653.425,-218.318 643.91,-209.1"/>
<polygon fill="midnightblue" stroke="midnightblue" points="672.682,-241.846 682.3,-246.291 677.553,-236.819 672.682,-241.846"/>
</g>
<!-- Node8 -->
<g id="node8" class="node"><title>Node8</title>
<g id="a_node8"><a xlink:href="../../d5/d99/ITSMFT_2ITS_2workflow_2src_2RecoWorkflow_8cxx.html" target="_top" xlink:title="/home/travis/build\l/AliceO2Group/AliceO2\l/Detectors/ITSMFT/ITS\l/workflow/src/RecoWorkflow.cxx">
<polygon fill="none" stroke="black" points="729.5,-157 729.5,-209 890.5,-209 890.5,-157 729.5,-157"/>
<text text-anchor="start" x="737.5" y="-197" font-family="Helvetica,sans-Serif" font-size="10.00">/home/travis/build</text>
<text text-anchor="start" x="737.5" y="-186" font-family="Helvetica,sans-Serif" font-size="10.00">/AliceO2Group/AliceO2</text>
<text text-anchor="start" x="737.5" y="-175" font-family="Helvetica,sans-Serif" font-size="10.00">/Detectors/ITSMFT/ITS</text>
<text text-anchor="middle" x="810" y="-164" font-family="Helvetica,sans-Serif" font-size="10.00">/workflow/src/RecoWorkflow.cxx</text>
</a>
</g>
</g>
<!-- Node6&#45;&gt;Node8 -->
<g id="edge7" class="edge"><title>Node6&#45;&gt;Node8</title>
<path fill="none" stroke="midnightblue" d="M753.157,-239.067C763.578,-228.972 774.575,-218.318 784.09,-209.1"/>
<polygon fill="midnightblue" stroke="midnightblue" points="750.447,-236.819 745.7,-246.291 755.318,-241.846 750.447,-236.819"/>
</g>
<!-- Node12 -->
<g id="node12" class="node"><title>Node12</title>
<g id="a_node12"><a xlink:href="../../db/d82/O2SimDevice_8h.html" target="_top" xlink:title="/home/travis/build\l/AliceO2Group/AliceO2\l/run/O2SimDevice.h">
<polygon fill="none" stroke="black" points="1084,-162.5 1084,-203.5 1202,-203.5 1202,-162.5 1084,-162.5"/>
<text text-anchor="start" x="1092" y="-191.5" font-family="Helvetica,sans-Serif" font-size="10.00">/home/travis/build</text>
<text text-anchor="start" x="1092" y="-180.5" font-family="Helvetica,sans-Serif" font-size="10.00">/AliceO2Group/AliceO2</text>
<text text-anchor="middle" x="1143" y="-169.5" font-family="Helvetica,sans-Serif" font-size="10.00">/run/O2SimDevice.h</text>
</a>
</g>
</g>
<!-- Node11&#45;&gt;Node12 -->
<g id="edge11" class="edge"><title>Node11&#45;&gt;Node12</title>
<path fill="none" stroke="midnightblue" d="M1190.57,-249.06C1179.88,-234.436 1167.04,-216.881 1157.4,-203.694"/>
<polygon fill="midnightblue" stroke="midnightblue" points="1187.85,-251.271 1196.58,-257.277 1193.5,-247.139 1187.85,-251.271"/>
</g>
<!-- Node16 -->
<g id="node16" class="node"><title>Node16</title>
<g id="a_node16"><a xlink:href="../../d8/d07/o2sim_8cxx.html" target="_top" xlink:title="/home/travis/build\l/AliceO2Group/AliceO2\l/run/o2sim.cxx">
<polygon fill="none" stroke="black" points="1220,-162.5 1220,-203.5 1338,-203.5 1338,-162.5 1220,-162.5"/>
<text text-anchor="start" x="1228" y="-191.5" font-family="Helvetica,sans-Serif" font-size="10.00">/home/travis/build</text>
<text text-anchor="start" x="1228" y="-180.5" font-family="Helvetica,sans-Serif" font-size="10.00">/AliceO2Group/AliceO2</text>
<text text-anchor="middle" x="1279" y="-169.5" font-family="Helvetica,sans-Serif" font-size="10.00">/run/o2sim.cxx</text>
</a>
</g>
</g>
<!-- Node11&#45;&gt;Node16 -->
<g id="edge16" class="edge"><title>Node11&#45;&gt;Node16</title>
<path fill="none" stroke="midnightblue" d="M1231.43,-249.06C1242.12,-234.436 1254.96,-216.881 1264.6,-203.694"/>
<polygon fill="midnightblue" stroke="midnightblue" points="1228.5,-247.139 1225.42,-257.277 1234.15,-251.271 1228.5,-247.139"/>
</g>
<!-- Node13 -->
<g id="node13" class="node"><title>Node13</title>
<g id="a_node13"><a xlink:href="../../db/d50/O2HitMerger_8h.html" target="_top" xlink:title="/home/travis/build\l/AliceO2Group/AliceO2\l/run/O2HitMerger.h">
<polygon fill="none" stroke="black" points="999,-78.5 999,-119.5 1117,-119.5 1117,-78.5 999,-78.5"/>
<text text-anchor="start" x="1007" y="-107.5" font-family="Helvetica,sans-Serif" font-size="10.00">/home/travis/build</text>
<text text-anchor="start" x="1007" y="-96.5" font-family="Helvetica,sans-Serif" font-size="10.00">/AliceO2Group/AliceO2</text>
<text text-anchor="middle" x="1058" y="-85.5" font-family="Helvetica,sans-Serif" font-size="10.00">/run/O2HitMerger.h</text>
</a>
</g>
</g>
<!-- Node12&#45;&gt;Node13 -->
<g id="edge12" class="edge"><title>Node12&#45;&gt;Node13</title>
<path fill="none" stroke="midnightblue" d="M1115.22,-155.201C1103.22,-143.62 1089.42,-130.313 1078.39,-119.667"/>
<polygon fill="midnightblue" stroke="midnightblue" points="1112.8,-157.726 1122.42,-162.15 1117.66,-152.688 1112.8,-157.726"/>
</g>
<!-- Node15 -->
<g id="node15" class="node"><title>Node15</title>
<g id="a_node15"><a xlink:href="../../d6/da5/O2SimDeviceRunner_8cxx.html" target="_top" xlink:title="/home/travis/build\l/AliceO2Group/AliceO2\l/run/O2SimDeviceRunner.cxx">
<polygon fill="none" stroke="black" points="1153.5,-78.5 1153.5,-119.5 1300.5,-119.5 1300.5,-78.5 1153.5,-78.5"/>
<text text-anchor="start" x="1161.5" y="-107.5" font-family="Helvetica,sans-Serif" font-size="10.00">/home/travis/build</text>
<text text-anchor="start" x="1161.5" y="-96.5" font-family="Helvetica,sans-Serif" font-size="10.00">/AliceO2Group/AliceO2</text>
<text text-anchor="middle" x="1227" y="-85.5" font-family="Helvetica,sans-Serif" font-size="10.00">/run/O2SimDeviceRunner.cxx</text>
</a>
</g>
</g>
<!-- Node12&#45;&gt;Node15 -->
<g id="edge15" class="edge"><title>Node12&#45;&gt;Node15</title>
<path fill="none" stroke="midnightblue" d="M1170.79,-154.873C1182.57,-143.369 1196.05,-130.213 1206.85,-119.667"/>
<polygon fill="midnightblue" stroke="midnightblue" points="1168.04,-152.66 1163.33,-162.15 1172.93,-157.669 1168.04,-152.66"/>
</g>
<!-- Node13&#45;&gt;Node13 -->
<g id="edge13" class="edge"><title>Node13&#45;&gt;Node13</title>
<path fill="none" stroke="midnightblue" d="M1127.03,-109.753C1131.98,-107.318 1135,-103.733 1135,-99 1135,-91.6113 1127.63,-87.0223 1117.08,-85.2328"/>
<polygon fill="midnightblue" stroke="midnightblue" points="1125.63,-106.518 1117.08,-112.767 1127.66,-113.217 1125.63,-106.518"/>
</g>
<!-- Node14 -->
<g id="node14" class="node"><title>Node14</title>
<g id="a_node14"><a xlink:href="../../d9/d16/O2HitMergerRunner_8cxx.html" target="_top" xlink:title="/home/travis/build\l/AliceO2Group/AliceO2\l/run/O2HitMergerRunner.cxx">
<polygon fill="none" stroke="black" points="987,-0.5 987,-41.5 1129,-41.5 1129,-0.5 987,-0.5"/>
<text text-anchor="start" x="995" y="-29.5" font-family="Helvetica,sans-Serif" font-size="10.00">/home/travis/build</text>
<text text-anchor="start" x="995" y="-18.5" font-family="Helvetica,sans-Serif" font-size="10.00">/AliceO2Group/AliceO2</text>
<text text-anchor="middle" x="1058" y="-7.5" font-family="Helvetica,sans-Serif" font-size="10.00">/run/O2HitMergerRunner.cxx</text>
</a>
</g>
</g>
<!-- Node13&#45;&gt;Node14 -->
<g id="edge14" class="edge"><title>Node13&#45;&gt;Node14</title>
<path fill="none" stroke="midnightblue" d="M1058,-68.2965C1058,-59.3009 1058,-49.6532 1058,-41.5056"/>
<polygon fill="midnightblue" stroke="midnightblue" points="1054.5,-68.4281 1058,-78.4281 1061.5,-68.4281 1054.5,-68.4281"/>
</g>
</g>
</svg>
