<?xml version="1.0" encoding="UTF-8" standalone="no"?>
<!DOCTYPE svg PUBLIC "-//W3C//DTD SVG 1.1//EN"
 "http://www.w3.org/Graphics/SVG/1.1/DTD/svg11.dtd">
<!-- Generated by graphviz version 2.36.0 (20140111.2315)
 -->
<!-- Title: ROOT::RDF::RCombinedDSIndex Pages: 1 -->
<svg width="182pt" height="204pt"
 viewBox="0.00 0.00 182.00 204.00" xmlns="http://www.w3.org/2000/svg" xmlns:xlink="http://www.w3.org/1999/xlink">
<g id="graph0" class="graph" transform="scale(1 1) rotate(0) translate(4 200)">
<title>ROOT::RDF::RCombinedDSIndex</title>
<!-- Node1 -->
<g id="node1" class="node"><title>Node1</title>
<polygon fill="#bfbfbf" stroke="black" points="3,-116.5 3,-195.5 171,-195.5 171,-116.5 3,-116.5"/>
<text text-anchor="middle" x="87" y="-183.5" font-family="Helvetica,sans-Serif" font-size="10.00">ROOT::RDF::RCombinedDSIndex</text>
<polyline fill="none" stroke="black" points="3,-176.5 171,-176.5 "/>
<text text-anchor="middle" x="87" y="-164.5" font-family="Helvetica,sans-Serif" font-size="10.00"> </text>
<polyline fill="none" stroke="black" points="3,-157.5 171,-157.5 "/>
<text text-anchor="start" x="11" y="-145.5" font-family="Helvetica,sans-Serif" font-size="10.00">+ ~RCombinedDSIndex()</text>
<text text-anchor="start" x="11" y="-134.5" font-family="Helvetica,sans-Serif" font-size="10.00">+ BuildIndex()</text>
<text text-anchor="start" x="11" y="-123.5" font-family="Helvetica,sans-Serif" font-size="10.00">+ GetAssociatedEntries()</text>
</g>
<!-- Node2 -->
<g id="node2" class="node"><title>Node2</title>
<g id="a_node2"><a xlink:href="../../d6/d5d/classROOT_1_1RDF_1_1RCombindedDSCrossJoinIndex.html" target="_top" xlink:title="An index which allows doing a cross join between two tables. ">
<polygon fill="none" stroke="black" points="-1,-0.5 -1,-79.5 175,-79.5 175,-0.5 -1,-0.5"/>
<text text-anchor="start" x="7" y="-67.5" font-family="Helvetica,sans-Serif" font-size="10.00">ROOT::RDF::RCombindedDSCross</text>
<text text-anchor="middle" x="87" y="-56.5" font-family="Helvetica,sans-Serif" font-size="10.00">JoinIndex</text>
<polyline fill="none" stroke="black" points="-1,-49.5 175,-49.5 "/>
<text text-anchor="middle" x="87" y="-37.5" font-family="Helvetica,sans-Serif" font-size="10.00"> </text>
<polyline fill="none" stroke="black" points="-1,-30.5 175,-30.5 "/>
<text text-anchor="start" x="7" y="-18.5" font-family="Helvetica,sans-Serif" font-size="10.00">+ GetAssociatedEntries()</text>
<text text-anchor="start" x="7" y="-7.5" font-family="Helvetica,sans-Serif" font-size="10.00">+ BuildIndex()</text>
</a>
</g>
</g>
<!-- Node1&#45;&gt;Node2 -->
<g id="edge1" class="edge"><title>Node1&#45;&gt;Node2</title>
<path fill="none" stroke="midnightblue" d="M87,-106.146C87,-97.256 87,-88.0961 87,-79.5555"/>
<polygon fill="none" stroke="midnightblue" points="83.5001,-106.405 87,-116.405 90.5001,-106.405 83.5001,-106.405"/>
</g>
</g>
</svg>
