<?xml version="1.0" encoding="UTF-8" standalone="no"?>
<!DOCTYPE svg PUBLIC "-//W3C//DTD SVG 1.1//EN"
 "http://www.w3.org/Graphics/SVG/1.1/DTD/svg11.dtd">
<!-- Generated by graphviz version 2.36.0 (20140111.2315)
 -->
<!-- Title: /home/travis/build/AliceO2Group/AliceO2/Detectors/ITSMFT/common/reconstruction/include/ITSMFTReconstruction/DigitPixelReader.h Pages: 1 -->
<svg width="966pt" height="274pt"
 viewBox="0.00 0.00 966.00 274.00" xmlns="http://www.w3.org/2000/svg" xmlns:xlink="http://www.w3.org/1999/xlink">
<g id="graph0" class="graph" transform="scale(1 1) rotate(0) translate(4 270)">
<title>/home/travis/build/AliceO2Group/AliceO2/Detectors/ITSMFT/common/reconstruction/include/ITSMFTReconstruction/DigitPixelReader.h</title>
<!-- Node1 -->
<g id="node1" class="node"><title>Node1</title>
<polygon fill="#bfbfbf" stroke="black" points="306.5,-191 306.5,-265 473.5,-265 473.5,-191 306.5,-191"/>
<text text-anchor="start" x="314.5" y="-253" font-family="Helvetica,sans-Serif" font-size="10.00">/home/travis/build</text>
<text text-anchor="start" x="314.5" y="-242" font-family="Helvetica,sans-Serif" font-size="10.00">/AliceO2Group/AliceO2</text>
<text text-anchor="start" x="314.5" y="-231" font-family="Helvetica,sans-Serif" font-size="10.00">/Detectors/ITSMFT/common</text>
<text text-anchor="start" x="314.5" y="-220" font-family="Helvetica,sans-Serif" font-size="10.00">/reconstruction/include</text>
<text text-anchor="start" x="314.5" y="-209" font-family="Helvetica,sans-Serif" font-size="10.00">/ITSMFTReconstruction/DigitPixel</text>
<text text-anchor="middle" x="390" y="-198" font-family="Helvetica,sans-Serif" font-size="10.00">Reader.h</text>
</g>
<!-- Node2 -->
<g id="node2" class="node"><title>Node2</title>
<g id="a_node2"><a xlink:href="../../d5/d1b/DigitPixelReader_8cxx.html" target="_top" xlink:title="Implementation of the Alpide pixel reader for MC digits processing. ">
<polygon fill="none" stroke="black" points="-0.5,-96 -0.5,-148 192.5,-148 192.5,-96 -0.5,-96"/>
<text text-anchor="start" x="7.5" y="-136" font-family="Helvetica,sans-Serif" font-size="10.00">/home/travis/build</text>
<text text-anchor="start" x="7.5" y="-125" font-family="Helvetica,sans-Serif" font-size="10.00">/AliceO2Group/AliceO2</text>
<text text-anchor="start" x="7.5" y="-114" font-family="Helvetica,sans-Serif" font-size="10.00">/Detectors/ITSMFT/common</text>
<text text-anchor="middle" x="96" y="-103" font-family="Helvetica,sans-Serif" font-size="10.00">/reconstruction/src/DigitPixelReader.cxx</text>
</a>
</g>
</g>
<!-- Node1&#45;&gt;Node2 -->
<g id="edge1" class="edge"><title>Node1&#45;&gt;Node2</title>
<path fill="none" stroke="midnightblue" d="M296.477,-193.917C254.548,-179.085 205.899,-161.876 167.025,-148.124"/>
<polygon fill="midnightblue" stroke="midnightblue" points="295.55,-197.302 306.145,-197.337 297.885,-190.702 295.55,-197.302"/>
</g>
<!-- Node3 -->
<g id="node3" class="node"><title>Node3</title>
<g id="a_node3"><a xlink:href="../../d6/d67/ITSMFT_2ITS_2reconstruction_2include_2ITSReconstruction_2ClustererTask_8h.html" target="_top" xlink:title="/home/travis/build\l/AliceO2Group/AliceO2\l/Detectors/ITSMFT/ITS\l/reconstruction/include\l/ITSReconstruction/ClustererTask.h">
<polygon fill="none" stroke="black" points="211,-90.5 211,-153.5 385,-153.5 385,-90.5 211,-90.5"/>
<text text-anchor="start" x="219" y="-141.5" font-family="Helvetica,sans-Serif" font-size="10.00">/home/travis/build</text>
<text text-anchor="start" x="219" y="-130.5" font-family="Helvetica,sans-Serif" font-size="10.00">/AliceO2Group/AliceO2</text>
<text text-anchor="start" x="219" y="-119.5" font-family="Helvetica,sans-Serif" font-size="10.00">/Detectors/ITSMFT/ITS</text>
<text text-anchor="start" x="219" y="-108.5" font-family="Helvetica,sans-Serif" font-size="10.00">/reconstruction/include</text>
<text text-anchor="middle" x="298" y="-97.5" font-family="Helvetica,sans-Serif" font-size="10.00">/ITSReconstruction/ClustererTask.h</text>
</a>
</g>
</g>
<!-- Node1&#45;&gt;Node3 -->
<g id="edge2" class="edge"><title>Node1&#45;&gt;Node3</title>
<path fill="none" stroke="midnightblue" d="M351.449,-183.421C342.653,-173.477 333.483,-163.112 325.273,-153.831"/>
<polygon fill="midnightblue" stroke="midnightblue" points="348.834,-185.747 358.081,-190.918 354.077,-181.109 348.834,-185.747"/>
</g>
<!-- Node7 -->
<g id="node7" class="node"><title>Node7</title>
<g id="a_node7"><a xlink:href="../../d3/da3/ITSMFT_2ITS_2workflow_2src_2ClustererSpec_8cxx.html" target="_top" xlink:title="/home/travis/build\l/AliceO2Group/AliceO2\l/Detectors/ITSMFT/ITS\l/workflow/src/ClustererSpec.cxx">
<polygon fill="none" stroke="black" points="403.5,-96 403.5,-148 562.5,-148 562.5,-96 403.5,-96"/>
<text text-anchor="start" x="411.5" y="-136" font-family="Helvetica,sans-Serif" font-size="10.00">/home/travis/build</text>
<text text-anchor="start" x="411.5" y="-125" font-family="Helvetica,sans-Serif" font-size="10.00">/AliceO2Group/AliceO2</text>
<text text-anchor="start" x="411.5" y="-114" font-family="Helvetica,sans-Serif" font-size="10.00">/Detectors/ITSMFT/ITS</text>
<text text-anchor="middle" x="483" y="-103" font-family="Helvetica,sans-Serif" font-size="10.00">/workflow/src/ClustererSpec.cxx</text>
</a>
</g>
</g>
<!-- Node1&#45;&gt;Node7 -->
<g id="edge6" class="edge"><title>Node1&#45;&gt;Node7</title>
<path fill="none" stroke="midnightblue" d="M429.178,-183.188C439.849,-171.255 451.048,-158.731 460.45,-148.217"/>
<polygon fill="midnightblue" stroke="midnightblue" points="426.323,-181.13 422.266,-190.918 431.541,-185.796 426.323,-181.13"/>
</g>
<!-- Node8 -->
<g id="node8" class="node"><title>Node8</title>
<g id="a_node8"><a xlink:href="../../db/d12/ITSMFT_2MFT_2reconstruction_2include_2MFTReconstruction_2ClustererTask_8h.html" target="_top" xlink:title="/home/travis/build\l/AliceO2Group/AliceO2\l/Detectors/ITSMFT/MFT\l/reconstruction/include\l/MFTReconstruction/ClustererTask.h">
<polygon fill="none" stroke="black" points="634.5,-90.5 634.5,-153.5 813.5,-153.5 813.5,-90.5 634.5,-90.5"/>
<text text-anchor="start" x="642.5" y="-141.5" font-family="Helvetica,sans-Serif" font-size="10.00">/home/travis/build</text>
<text text-anchor="start" x="642.5" y="-130.5" font-family="Helvetica,sans-Serif" font-size="10.00">/AliceO2Group/AliceO2</text>
<text text-anchor="start" x="642.5" y="-119.5" font-family="Helvetica,sans-Serif" font-size="10.00">/Detectors/ITSMFT/MFT</text>
<text text-anchor="start" x="642.5" y="-108.5" font-family="Helvetica,sans-Serif" font-size="10.00">/reconstruction/include</text>
<text text-anchor="middle" x="724" y="-97.5" font-family="Helvetica,sans-Serif" font-size="10.00">/MFTReconstruction/ClustererTask.h</text>
</a>
</g>
</g>
<!-- Node1&#45;&gt;Node8 -->
<g id="edge7" class="edge"><title>Node1&#45;&gt;Node8</title>
<path fill="none" stroke="midnightblue" d="M483.457,-197.9C530.639,-183.208 587.607,-165.47 634.258,-150.944"/>
<polygon fill="midnightblue" stroke="midnightblue" points="482.358,-194.576 473.851,-200.891 484.44,-201.259 482.358,-194.576"/>
</g>
<!-- Node4 -->
<g id="node4" class="node"><title>Node4</title>
<g id="a_node4"><a xlink:href="../../d8/d95/ITSMFT_2ITS_2reconstruction_2src_2ClustererTask_8cxx.html" target="_top" xlink:title="/home/travis/build\l/AliceO2Group/AliceO2\l/Detectors/ITSMFT/ITS\l/reconstruction/src/ClustererTask.cxx">
<polygon fill="none" stroke="black" points="12.5,-1 12.5,-53 193.5,-53 193.5,-1 12.5,-1"/>
<text text-anchor="start" x="20.5" y="-41" font-family="Helvetica,sans-Serif" font-size="10.00">/home/travis/build</text>
<text text-anchor="start" x="20.5" y="-30" font-family="Helvetica,sans-Serif" font-size="10.00">/AliceO2Group/AliceO2</text>
<text text-anchor="start" x="20.5" y="-19" font-family="Helvetica,sans-Serif" font-size="10.00">/Detectors/ITSMFT/ITS</text>
<text text-anchor="middle" x="103" y="-8" font-family="Helvetica,sans-Serif" font-size="10.00">/reconstruction/src/ClustererTask.cxx</text>
</a>
</g>
</g>
<!-- Node3&#45;&gt;Node4 -->
<g id="edge3" class="edge"><title>Node3&#45;&gt;Node4</title>
<path fill="none" stroke="midnightblue" d="M224.814,-86.0959C201.759,-75.1006 176.767,-63.1813 155.455,-53.0171"/>
<polygon fill="midnightblue" stroke="midnightblue" points="223.347,-89.2738 233.88,-90.4195 226.36,-82.9556 223.347,-89.2738"/>
</g>
<!-- Node5 -->
<g id="node5" class="node"><title>Node5</title>
<g id="a_node5"><a xlink:href="../../d6/da1/run__clus__its_8C.html" target="_top" xlink:title="/home/travis/build\l/AliceO2Group/AliceO2\l/macro/run_clus_its.C">
<polygon fill="none" stroke="black" points="212,-6.5 212,-47.5 330,-47.5 330,-6.5 212,-6.5"/>
<text text-anchor="start" x="220" y="-35.5" font-family="Helvetica,sans-Serif" font-size="10.00">/home/travis/build</text>
<text text-anchor="start" x="220" y="-24.5" font-family="Helvetica,sans-Serif" font-size="10.00">/AliceO2Group/AliceO2</text>
<text text-anchor="middle" x="271" y="-13.5" font-family="Helvetica,sans-Serif" font-size="10.00">/macro/run_clus_its.C</text>
</a>
</g>
</g>
<!-- Node3&#45;&gt;Node5 -->
<g id="edge4" class="edge"><title>Node3&#45;&gt;Node5</title>
<path fill="none" stroke="midnightblue" d="M286.23,-80.4584C282.917,-69.0472 279.463,-57.1492 276.683,-47.5747"/>
<polygon fill="midnightblue" stroke="midnightblue" points="282.935,-81.663 289.084,-90.2906 289.657,-79.7113 282.935,-81.663"/>
</g>
<!-- Node6 -->
<g id="node6" class="node"><title>Node6</title>
<g id="a_node6"><a xlink:href="../../d7/d59/run__clus__itsSA_8C.html" target="_top" xlink:title="/home/travis/build\l/AliceO2Group/AliceO2\l/macro/run_clus_itsSA.C">
<polygon fill="none" stroke="black" points="348,-6.5 348,-47.5 474,-47.5 474,-6.5 348,-6.5"/>
<text text-anchor="start" x="356" y="-35.5" font-family="Helvetica,sans-Serif" font-size="10.00">/home/travis/build</text>
<text text-anchor="start" x="356" y="-24.5" font-family="Helvetica,sans-Serif" font-size="10.00">/AliceO2Group/AliceO2</text>
<text text-anchor="middle" x="411" y="-13.5" font-family="Helvetica,sans-Serif" font-size="10.00">/macro/run_clus_itsSA.C</text>
</a>
</g>
</g>
<!-- Node3&#45;&gt;Node6 -->
<g id="edge5" class="edge"><title>Node3&#45;&gt;Node6</title>
<path fill="none" stroke="midnightblue" d="M343.08,-83.8986C358.176,-71.4745 374.407,-58.1163 387.216,-47.5747"/>
<polygon fill="midnightblue" stroke="midnightblue" points="340.811,-81.2334 335.314,-90.2906 345.259,-86.6383 340.811,-81.2334"/>
</g>
<!-- Node9 -->
<g id="node9" class="node"><title>Node9</title>
<g id="a_node9"><a xlink:href="../../d9/d5e/ITSMFT_2MFT_2reconstruction_2src_2ClustererTask_8cxx.html" target="_top" xlink:title="/home/travis/build\l/AliceO2Group/AliceO2\l/Detectors/ITSMFT/MFT\l/reconstruction/src/ClustererTask.cxx">
<polygon fill="none" stroke="black" points="492.5,-1 492.5,-53 673.5,-53 673.5,-1 492.5,-1"/>
<text text-anchor="start" x="500.5" y="-41" font-family="Helvetica,sans-Serif" font-size="10.00">/home/travis/build</text>
<text text-anchor="start" x="500.5" y="-30" font-family="Helvetica,sans-Serif" font-size="10.00">/AliceO2Group/AliceO2</text>
<text text-anchor="start" x="500.5" y="-19" font-family="Helvetica,sans-Serif" font-size="10.00">/Detectors/ITSMFT/MFT</text>
<text text-anchor="middle" x="583" y="-8" font-family="Helvetica,sans-Serif" font-size="10.00">/reconstruction/src/ClustererTask.cxx</text>
</a>
</g>
</g>
<!-- Node8&#45;&gt;Node9 -->
<g id="edge8" class="edge"><title>Node8&#45;&gt;Node9</title>
<path fill="none" stroke="midnightblue" d="M668.711,-84.5328C652.756,-74.0092 635.709,-62.7658 621.055,-53.1001"/>
<polygon fill="midnightblue" stroke="midnightblue" points="667.166,-87.7063 677.441,-90.2906 671.02,-81.8629 667.166,-87.7063"/>
</g>
<!-- Node10 -->
<g id="node10" class="node"><title>Node10</title>
<g id="a_node10"><a xlink:href="../../d4/dfd/run__clus__mft_8C.html" target="_top" xlink:title="/home/travis/build\l/AliceO2Group/AliceO2\l/macro/run_clus_mft.C">
<polygon fill="none" stroke="black" points="692,-6.5 692,-47.5 810,-47.5 810,-6.5 692,-6.5"/>
<text text-anchor="start" x="700" y="-35.5" font-family="Helvetica,sans-Serif" font-size="10.00">/home/travis/build</text>
<text text-anchor="start" x="700" y="-24.5" font-family="Helvetica,sans-Serif" font-size="10.00">/AliceO2Group/AliceO2</text>
<text text-anchor="middle" x="751" y="-13.5" font-family="Helvetica,sans-Serif" font-size="10.00">/macro/run_clus_mft.C</text>
</a>
</g>
</g>
<!-- Node8&#45;&gt;Node10 -->
<g id="edge9" class="edge"><title>Node8&#45;&gt;Node10</title>
<path fill="none" stroke="midnightblue" d="M735.77,-80.4584C739.083,-69.0472 742.537,-57.1492 745.317,-47.5747"/>
<polygon fill="midnightblue" stroke="midnightblue" points="732.343,-79.7113 732.916,-90.2906 739.065,-81.663 732.343,-79.7113"/>
</g>
<!-- Node11 -->
<g id="node11" class="node"><title>Node11</title>
<g id="a_node11"><a xlink:href="../../d7/d8c/run__clus__mftSA_8C.html" target="_top" xlink:title="/home/travis/build\l/AliceO2Group/AliceO2\l/macro/run_clus_mftSA.C">
<polygon fill="none" stroke="black" points="828,-6.5 828,-47.5 958,-47.5 958,-6.5 828,-6.5"/>
<text text-anchor="start" x="836" y="-35.5" font-family="Helvetica,sans-Serif" font-size="10.00">/home/travis/build</text>
<text text-anchor="start" x="836" y="-24.5" font-family="Helvetica,sans-Serif" font-size="10.00">/AliceO2Group/AliceO2</text>
<text text-anchor="middle" x="893" y="-13.5" font-family="Helvetica,sans-Serif" font-size="10.00">/macro/run_clus_mftSA.C</text>
</a>
</g>
</g>
<!-- Node8&#45;&gt;Node11 -->
<g id="edge10" class="edge"><title>Node8&#45;&gt;Node11</title>
<path fill="none" stroke="midnightblue" d="M788.634,-85.4323C811.985,-72.5823 837.482,-58.5515 857.429,-47.5747"/>
<polygon fill="midnightblue" stroke="midnightblue" points="786.879,-82.403 779.805,-90.2906 790.254,-88.5357 786.879,-82.403"/>
</g>
</g>
</svg>
