<?xml version="1.0" encoding="UTF-8" standalone="no"?>
<!DOCTYPE svg PUBLIC "-//W3C//DTD SVG 1.1//EN"
 "http://www.w3.org/Graphics/SVG/1.1/DTD/svg11.dtd">
<!-- Generated by graphviz version 2.36.0 (20140111.2315)
 -->
<!-- Title: /home/travis/build/AliceO2Group/AliceO2/Detectors/ITSMFT/common/reconstruction/include/ITSMFTReconstruction/PixelData.h Pages: 1 -->
<!--zoomable 474 -->
<svg id="main" version="1.1" xmlns="http://www.w3.org/2000/svg" xmlns:xlink="http://www.w3.org/1999/xlink" xml:space="preserve" onload="init(evt)">
<style type="text/css"><![CDATA[
.edge:hover path { stroke: red; }
.edge:hover polygon { stroke: red; fill: red; }
]]></style>
<script type="text/javascript"><![CDATA[
var edges = document.getElementsByTagName('g');
if (edges && edges.length) {
  for (var i=0;i<edges.length;i++) {
    if (edges[i].id.substr(0,4)=='edge') {
      edges[i].setAttribute('class','edge');
    }
  }
}
]]></script>
        <defs>
                <circle id="rim" cx="0" cy="0" r="7"/>
                <circle id="rim2" cx="0" cy="0" r="3.5"/>
                <g id="zoomPlus">
                        <use xlink:href="#rim" fill="#404040">
                                <set attributeName="fill" to="#808080" begin="zoomplus.mouseover" end="zoomplus.mouseout"/>
                        </use>
                        <path d="M-4,0h8M0,-4v8" fill="none" stroke="white" stroke-width="1.5" pointer-events="none"/>
                </g>
                <g id="zoomMin">
                        <use xlink:href="#rim" fill="#404040">
                                <set attributeName="fill" to="#808080" begin="zoomminus.mouseover" end="zoomminus.mouseout"/>
                        </use>
                        <path d="M-4,0h8" fill="none" stroke="white" stroke-width="1.5" pointer-events="none"/>
                </g>
                <g id="dirArrow">
                        <path fill="none" stroke="white" stroke-width="1.5" d="M0,-3.0v7 M-2.5,-0.5L0,-3.0L2.5,-0.5"/>
                </g>
               <g id="resetDef">
                       <use xlink:href="#rim2" fill="#404040">
                               <set attributeName="fill" to="#808080" begin="reset.mouseover" end="reset.mouseout"/>
                       </use>
               </g>
        </defs>

<script type="text/javascript">
var viewWidth = 1310;
var viewHeight = 474;
var sectionId = 'dynsection-1';
</script>
<script xlink:href="../../svgpan.js"/>
<svg id="graph" class="graph">
<g id="viewport">
<title>/home/travis/build/AliceO2Group/AliceO2/Detectors/ITSMFT/common/reconstruction/include/ITSMFTReconstruction/PixelData.h</title>
<!-- Node1 -->
<g id="node1" class="node"><title>Node1</title>
<polygon fill="#bfbfbf" stroke="black" points="743,-402.5 743,-465.5 919,-465.5 919,-402.5 743,-402.5"/>
<text text-anchor="start" x="751" y="-453.5" font-family="Helvetica,sans-Serif" font-size="10.00">/home/travis/build</text>
<text text-anchor="start" x="751" y="-442.5" font-family="Helvetica,sans-Serif" font-size="10.00">/AliceO2Group/AliceO2</text>
<text text-anchor="start" x="751" y="-431.5" font-family="Helvetica,sans-Serif" font-size="10.00">/Detectors/ITSMFT/common</text>
<text text-anchor="start" x="751" y="-420.5" font-family="Helvetica,sans-Serif" font-size="10.00">/reconstruction/include</text>
<text text-anchor="middle" x="831" y="-409.5" font-family="Helvetica,sans-Serif" font-size="10.00">/ITSMFTReconstruction/PixelData.h</text>
</g>
<!-- Node2 -->
<g id="node2" class="node"><title>Node2</title>
<g id="a_node2"><a xlink:href="../../d6/d04/ITSMFT_2common_2reconstruction_2include_2ITSMFTReconstruction_2Clusterer_8h.html" target="_top" xlink:title="/home/travis/build\l/AliceO2Group/AliceO2\l/Detectors/ITSMFT/common\l/reconstruction/include\l/ITSMFTReconstruction/Clusterer.h">
<polygon fill="none" stroke="black" points="405.5,-196.5 405.5,-259.5 578.5,-259.5 578.5,-196.5 405.5,-196.5"/>
<text text-anchor="start" x="413.5" y="-247.5" font-family="Helvetica,sans-Serif" font-size="10.00">/home/travis/build</text>
<text text-anchor="start" x="413.5" y="-236.5" font-family="Helvetica,sans-Serif" font-size="10.00">/AliceO2Group/AliceO2</text>
<text text-anchor="start" x="413.5" y="-225.5" font-family="Helvetica,sans-Serif" font-size="10.00">/Detectors/ITSMFT/common</text>
<text text-anchor="start" x="413.5" y="-214.5" font-family="Helvetica,sans-Serif" font-size="10.00">/reconstruction/include</text>
<text text-anchor="middle" x="492" y="-203.5" font-family="Helvetica,sans-Serif" font-size="10.00">/ITSMFTReconstruction/Clusterer.h</text>
</a>
</g>
</g>
<!-- Node1&#45;&gt;Node2 -->
<g id="edge1" class="edge"><title>Node1&#45;&gt;Node2</title>
<path fill="none" stroke="midnightblue" d="M763.54,-397.688C745.06,-387.707 725.129,-376.655 707,-366 647.665,-331.126 581.086,-288.071 537.956,-259.64"/>
<polygon fill="midnightblue" stroke="midnightblue" points="762.016,-400.842 772.481,-402.495 765.331,-394.677 762.016,-400.842"/>
</g>
<!-- Node15 -->
<g id="node15" class="node"><title>Node15</title>
<g id="a_node15"><a xlink:href="../../d4/d75/DigitPixelReader_8h.html" target="_top" xlink:title="Definition of the Alpide pixel reader for MC digits processing. ">
<polygon fill="none" stroke="black" points="629.5,-191 629.5,-265 796.5,-265 796.5,-191 629.5,-191"/>
<text text-anchor="start" x="637.5" y="-253" font-family="Helvetica,sans-Serif" font-size="10.00">/home/travis/build</text>
<text text-anchor="start" x="637.5" y="-242" font-family="Helvetica,sans-Serif" font-size="10.00">/AliceO2Group/AliceO2</text>
<text text-anchor="start" x="637.5" y="-231" font-family="Helvetica,sans-Serif" font-size="10.00">/Detectors/ITSMFT/common</text>
<text text-anchor="start" x="637.5" y="-220" font-family="Helvetica,sans-Serif" font-size="10.00">/reconstruction/include</text>
<text text-anchor="start" x="637.5" y="-209" font-family="Helvetica,sans-Serif" font-size="10.00">/ITSMFTReconstruction/DigitPixel</text>
<text text-anchor="middle" x="713" y="-198" font-family="Helvetica,sans-Serif" font-size="10.00">Reader.h</text>
</a>
</g>
</g>
<!-- Node1&#45;&gt;Node15 -->
<g id="edge16" class="edge"><title>Node1&#45;&gt;Node15</title>
<path fill="none" stroke="midnightblue" d="M757.558,-396.406C746.424,-387.863 736.253,-377.752 729,-366 710.324,-335.739 707.931,-294.486 709.215,-265.176"/>
<polygon fill="midnightblue" stroke="midnightblue" points="755.649,-399.344 765.808,-402.352 759.742,-393.665 755.649,-399.344"/>
</g>
<!-- Node17 -->
<g id="node17" class="node"><title>Node17</title>
<g id="a_node17"><a xlink:href="../../df/d2e/PixelReader_8h.html" target="_top" xlink:title="Abstract class for Alpide data reader class. ">
<polygon fill="none" stroke="black" points="738,-302.5 738,-365.5 924,-365.5 924,-302.5 738,-302.5"/>
<text text-anchor="start" x="746" y="-353.5" font-family="Helvetica,sans-Serif" font-size="10.00">/home/travis/build</text>
<text text-anchor="start" x="746" y="-342.5" font-family="Helvetica,sans-Serif" font-size="10.00">/AliceO2Group/AliceO2</text>
<text text-anchor="start" x="746" y="-331.5" font-family="Helvetica,sans-Serif" font-size="10.00">/Detectors/ITSMFT/common</text>
<text text-anchor="start" x="746" y="-320.5" font-family="Helvetica,sans-Serif" font-size="10.00">/reconstruction/include</text>
<text text-anchor="middle" x="831" y="-309.5" font-family="Helvetica,sans-Serif" font-size="10.00">/ITSMFTReconstruction/PixelReader.h</text>
</a>
</g>
</g>
<!-- Node1&#45;&gt;Node17 -->
<g id="edge21" class="edge"><title>Node1&#45;&gt;Node17</title>
<path fill="none" stroke="midnightblue" d="M831,-392.099C831,-383.238 831,-374.015 831,-365.63"/>
<polygon fill="midnightblue" stroke="midnightblue" points="827.5,-392.261 831,-402.261 834.5,-392.261 827.5,-392.261"/>
</g>
<!-- Node18 -->
<g id="node18" class="node"><title>Node18</title>
<g id="a_node18"><a xlink:href="../../dd/db8/RawPixelReader_8h.html" target="_top" xlink:title="Definition of the Alpide pixel reader for raw data processing. ">
<polygon fill="none" stroke="black" points="892,-196.5 892,-259.5 1098,-259.5 1098,-196.5 892,-196.5"/>
<text text-anchor="start" x="900" y="-247.5" font-family="Helvetica,sans-Serif" font-size="10.00">/home/travis/build</text>
<text text-anchor="start" x="900" y="-236.5" font-family="Helvetica,sans-Serif" font-size="10.00">/AliceO2Group/AliceO2</text>
<text text-anchor="start" x="900" y="-225.5" font-family="Helvetica,sans-Serif" font-size="10.00">/Detectors/ITSMFT/common</text>
<text text-anchor="start" x="900" y="-214.5" font-family="Helvetica,sans-Serif" font-size="10.00">/reconstruction/include</text>
<text text-anchor="middle" x="995" y="-203.5" font-family="Helvetica,sans-Serif" font-size="10.00">/ITSMFTReconstruction/RawPixelReader.h</text>
</a>
</g>
</g>
<!-- Node1&#45;&gt;Node18 -->
<g id="edge30" class="edge"><title>Node1&#45;&gt;Node18</title>
<path fill="none" stroke="midnightblue" d="M897.158,-396.824C909.783,-387.897 922.121,-377.539 932,-366 958.986,-334.48 976.706,-289.474 986.289,-259.764"/>
<polygon fill="midnightblue" stroke="midnightblue" points="895.141,-393.962 888.842,-402.481 899.079,-399.75 895.141,-393.962"/>
</g>
<!-- Node20 -->
<g id="node20" class="node"><title>Node20</title>
<g id="a_node20"><a xlink:href="../../d3/d38/PixelData_8cxx.html" target="_top" xlink:title="Implementation for transient data of single pixel and set of pixels from current chip. ">
<polygon fill="none" stroke="black" points="980,-308 980,-360 1142,-360 1142,-308 980,-308"/>
<text text-anchor="start" x="988" y="-348" font-family="Helvetica,sans-Serif" font-size="10.00">/home/travis/build</text>
<text text-anchor="start" x="988" y="-337" font-family="Helvetica,sans-Serif" font-size="10.00">/AliceO2Group/AliceO2</text>
<text text-anchor="start" x="988" y="-326" font-family="Helvetica,sans-Serif" font-size="10.00">/Detectors/ITSMFT/common</text>
<text text-anchor="middle" x="1061" y="-315" font-family="Helvetica,sans-Serif" font-size="10.00">/reconstruction/src/PixelData.cxx</text>
</a>
</g>
</g>
<!-- Node1&#45;&gt;Node20 -->
<g id="edge31" class="edge"><title>Node1&#45;&gt;Node20</title>
<path fill="none" stroke="midnightblue" d="M912.309,-398.355C941.901,-385.746 974.758,-371.747 1002.04,-360.121"/>
<polygon fill="midnightblue" stroke="midnightblue" points="910.655,-395.255 902.827,-402.395 913.399,-401.695 910.655,-395.255"/>
</g>
<!-- Node3 -->
<g id="node3" class="node"><title>Node3</title>
<g id="a_node3"><a xlink:href="../../de/d69/ITSMFT_2common_2reconstruction_2src_2Clusterer_8cxx.html" target="_top" xlink:title="/home/travis/build\l/AliceO2Group/AliceO2\l/Detectors/ITSMFT/common\l/reconstruction/src/Clusterer.cxx">
<polygon fill="none" stroke="black" points="234.5,-96 234.5,-148 393.5,-148 393.5,-96 234.5,-96"/>
<text text-anchor="start" x="242.5" y="-136" font-family="Helvetica,sans-Serif" font-size="10.00">/home/travis/build</text>
<text text-anchor="start" x="242.5" y="-125" font-family="Helvetica,sans-Serif" font-size="10.00">/AliceO2Group/AliceO2</text>
<text text-anchor="start" x="242.5" y="-114" font-family="Helvetica,sans-Serif" font-size="10.00">/Detectors/ITSMFT/common</text>
<text text-anchor="middle" x="314" y="-103" font-family="Helvetica,sans-Serif" font-size="10.00">/reconstruction/src/Clusterer.cxx</text>
</a>
</g>
</g>
<!-- Node2&#45;&gt;Node3 -->
<g id="edge2" class="edge"><title>Node2&#45;&gt;Node3</title>
<path fill="none" stroke="midnightblue" d="M430.739,-191.207C406.384,-176.977 378.949,-160.948 356.798,-148.006"/>
<polygon fill="midnightblue" stroke="midnightblue" points="429.157,-194.336 439.557,-196.359 432.688,-188.292 429.157,-194.336"/>
</g>
<!-- Node4 -->
<g id="node4" class="node"><title>Node4</title>
<g id="a_node4"><a xlink:href="../../d6/d67/ITSMFT_2ITS_2reconstruction_2include_2ITSReconstruction_2ClustererTask_8h.html" target="_top" xlink:title="/home/travis/build\l/AliceO2Group/AliceO2\l/Detectors/ITSMFT/ITS\l/reconstruction/include\l/ITSReconstruction/ClustererTask.h">
<polygon fill="none" stroke="black" points="934,-90.5 934,-153.5 1108,-153.5 1108,-90.5 934,-90.5"/>
<text text-anchor="start" x="942" y="-141.5" font-family="Helvetica,sans-Serif" font-size="10.00">/home/travis/build</text>
<text text-anchor="start" x="942" y="-130.5" font-family="Helvetica,sans-Serif" font-size="10.00">/AliceO2Group/AliceO2</text>
<text text-anchor="start" x="942" y="-119.5" font-family="Helvetica,sans-Serif" font-size="10.00">/Detectors/ITSMFT/ITS</text>
<text text-anchor="start" x="942" y="-108.5" font-family="Helvetica,sans-Serif" font-size="10.00">/reconstruction/include</text>
<text text-anchor="middle" x="1021" y="-97.5" font-family="Helvetica,sans-Serif" font-size="10.00">/ITSReconstruction/ClustererTask.h</text>
</a>
</g>
</g>
<!-- Node2&#45;&gt;Node4 -->
<g id="edge3" class="edge"><title>Node2&#45;&gt;Node4</title>
<path fill="none" stroke="midnightblue" d="M588.344,-197.334C598.966,-194.607 609.672,-192.09 620,-190 753.353,-163.019 791.037,-182.841 924,-154 927.283,-153.288 930.613,-152.511 933.964,-151.682"/>
<polygon fill="midnightblue" stroke="midnightblue" points="587.406,-193.962 578.626,-199.891 589.188,-200.731 587.406,-193.962"/>
</g>
<!-- Node7 -->
<g id="node7" class="node"><title>Node7</title>
<g id="a_node7"><a xlink:href="../../d7/d59/run__clus__itsSA_8C.html" target="_top" xlink:title="/home/travis/build\l/AliceO2Group/AliceO2\l/macro/run_clus_itsSA.C">
<polygon fill="none" stroke="black" points="504,-6.5 504,-47.5 630,-47.5 630,-6.5 504,-6.5"/>
<text text-anchor="start" x="512" y="-35.5" font-family="Helvetica,sans-Serif" font-size="10.00">/home/travis/build</text>
<text text-anchor="start" x="512" y="-24.5" font-family="Helvetica,sans-Serif" font-size="10.00">/AliceO2Group/AliceO2</text>
<text text-anchor="middle" x="567" y="-13.5" font-family="Helvetica,sans-Serif" font-size="10.00">/macro/run_clus_itsSA.C</text>
</a>
</g>
</g>
<!-- Node2&#45;&gt;Node7 -->
<g id="edge14" class="edge"><title>Node2&#45;&gt;Node7</title>
<path fill="none" stroke="midnightblue" d="M493.708,-186.009C496.167,-157.9 502.049,-120.349 516,-90 523.277,-74.1704 535.607,-59.0175 546.32,-47.6544"/>
<polygon fill="midnightblue" stroke="midnightblue" points="490.195,-186.048 492.923,-196.285 497.174,-186.581 490.195,-186.048"/>
</g>
<!-- Node8 -->
<g id="node8" class="node"><title>Node8</title>
<g id="a_node8"><a xlink:href="../../d4/dcc/ITSMFT_2ITS_2workflow_2include_2ITSWorkflow_2ClustererSpec_8h.html" target="_top" xlink:title="/home/travis/build\l/AliceO2Group/AliceO2\l/Detectors/ITSMFT/ITS\l/workflow/include/ITSWorkflow\l/ClustererSpec.h">
<polygon fill="none" stroke="black" points="64,-90.5 64,-153.5 216,-153.5 216,-90.5 64,-90.5"/>
<text text-anchor="start" x="72" y="-141.5" font-family="Helvetica,sans-Serif" font-size="10.00">/home/travis/build</text>
<text text-anchor="start" x="72" y="-130.5" font-family="Helvetica,sans-Serif" font-size="10.00">/AliceO2Group/AliceO2</text>
<text text-anchor="start" x="72" y="-119.5" font-family="Helvetica,sans-Serif" font-size="10.00">/Detectors/ITSMFT/ITS</text>
<text text-anchor="start" x="72" y="-108.5" font-family="Helvetica,sans-Serif" font-size="10.00">/workflow/include/ITSWorkflow</text>
<text text-anchor="middle" x="140" y="-97.5" font-family="Helvetica,sans-Serif" font-size="10.00">/ClustererSpec.h</text>
</a>
</g>
</g>
<!-- Node2&#45;&gt;Node8 -->
<g id="edge7" class="edge"><title>Node2&#45;&gt;Node8</title>
<path fill="none" stroke="midnightblue" d="M395.786,-202.754C344.742,-189.374 281.138,-171.877 225,-154 222.156,-153.094 219.266,-152.152 216.353,-151.185"/>
<polygon fill="midnightblue" stroke="midnightblue" points="394.934,-206.149 405.494,-205.289 396.702,-199.376 394.934,-206.149"/>
</g>
<!-- Node11 -->
<g id="node11" class="node"><title>Node11</title>
<g id="a_node11"><a xlink:href="../../db/d12/ITSMFT_2MFT_2reconstruction_2include_2MFTReconstruction_2ClustererTask_8h.html" target="_top" xlink:title="/home/travis/build\l/AliceO2Group/AliceO2\l/Detectors/ITSMFT/MFT\l/reconstruction/include\l/MFTReconstruction/ClustererTask.h">
<polygon fill="none" stroke="black" points="736.5,-90.5 736.5,-153.5 915.5,-153.5 915.5,-90.5 736.5,-90.5"/>
<text text-anchor="start" x="744.5" y="-141.5" font-family="Helvetica,sans-Serif" font-size="10.00">/home/travis/build</text>
<text text-anchor="start" x="744.5" y="-130.5" font-family="Helvetica,sans-Serif" font-size="10.00">/AliceO2Group/AliceO2</text>
<text text-anchor="start" x="744.5" y="-119.5" font-family="Helvetica,sans-Serif" font-size="10.00">/Detectors/ITSMFT/MFT</text>
<text text-anchor="start" x="744.5" y="-108.5" font-family="Helvetica,sans-Serif" font-size="10.00">/reconstruction/include</text>
<text text-anchor="middle" x="826" y="-97.5" font-family="Helvetica,sans-Serif" font-size="10.00">/MFTReconstruction/ClustererTask.h</text>
</a>
</g>
</g>
<!-- Node2&#45;&gt;Node11 -->
<g id="edge10" class="edge"><title>Node2&#45;&gt;Node11</title>
<path fill="none" stroke="midnightblue" d="M588.295,-197.141C630.82,-183.941 681.407,-168.22 727,-154 730.095,-153.035 733.244,-152.052 736.424,-151.059"/>
<polygon fill="midnightblue" stroke="midnightblue" points="587.024,-193.871 578.511,-200.178 589.099,-200.556 587.024,-193.871"/>
</g>
<!-- Node14 -->
<g id="node14" class="node"><title>Node14</title>
<g id="a_node14"><a xlink:href="../../d7/d8c/run__clus__mftSA_8C.html" target="_top" xlink:title="/home/travis/build\l/AliceO2Group/AliceO2\l/macro/run_clus_mftSA.C">
<polygon fill="none" stroke="black" points="356,-6.5 356,-47.5 486,-47.5 486,-6.5 356,-6.5"/>
<text text-anchor="start" x="364" y="-35.5" font-family="Helvetica,sans-Serif" font-size="10.00">/home/travis/build</text>
<text text-anchor="start" x="364" y="-24.5" font-family="Helvetica,sans-Serif" font-size="10.00">/AliceO2Group/AliceO2</text>
<text text-anchor="middle" x="421" y="-13.5" font-family="Helvetica,sans-Serif" font-size="10.00">/macro/run_clus_mftSA.C</text>
</a>
</g>
</g>
<!-- Node2&#45;&gt;Node14 -->
<g id="edge15" class="edge"><title>Node2&#45;&gt;Node14</title>
<path fill="none" stroke="midnightblue" d="M462.932,-187.89C456.185,-177.323 449.631,-165.591 445,-154 430.706,-118.226 424.771,-73.2609 422.425,-47.8646"/>
<polygon fill="midnightblue" stroke="midnightblue" points="460.169,-190.057 468.607,-196.464 466.006,-186.194 460.169,-190.057"/>
</g>
<!-- Node5 -->
<g id="node5" class="node"><title>Node5</title>
<g id="a_node5"><a xlink:href="../../d8/d95/ITSMFT_2ITS_2reconstruction_2src_2ClustererTask_8cxx.html" target="_top" xlink:title="/home/travis/build\l/AliceO2Group/AliceO2\l/Detectors/ITSMFT/ITS\l/reconstruction/src/ClustererTask.cxx">
<polygon fill="none" stroke="black" points="984.5,-1 984.5,-53 1165.5,-53 1165.5,-1 984.5,-1"/>
<text text-anchor="start" x="992.5" y="-41" font-family="Helvetica,sans-Serif" font-size="10.00">/home/travis/build</text>
<text text-anchor="start" x="992.5" y="-30" font-family="Helvetica,sans-Serif" font-size="10.00">/AliceO2Group/AliceO2</text>
<text text-anchor="start" x="992.5" y="-19" font-family="Helvetica,sans-Serif" font-size="10.00">/Detectors/ITSMFT/ITS</text>
<text text-anchor="middle" x="1075" y="-8" font-family="Helvetica,sans-Serif" font-size="10.00">/reconstruction/src/ClustererTask.cxx</text>
</a>
</g>
</g>
<!-- Node4&#45;&gt;Node5 -->
<g id="edge4" class="edge"><title>Node4&#45;&gt;Node5</title>
<path fill="none" stroke="midnightblue" d="M1043.88,-81.5929C1049.49,-71.9407 1055.33,-61.8709 1060.43,-53.1001"/>
<polygon fill="midnightblue" stroke="midnightblue" points="1040.83,-79.8852 1038.83,-90.2906 1046.88,-83.4002 1040.83,-79.8852"/>
</g>
<!-- Node6 -->
<g id="node6" class="node"><title>Node6</title>
<g id="a_node6"><a xlink:href="../../d6/da1/run__clus__its_8C.html" target="_top" xlink:title="/home/travis/build\l/AliceO2Group/AliceO2\l/macro/run_clus_its.C">
<polygon fill="none" stroke="black" points="1184,-6.5 1184,-47.5 1302,-47.5 1302,-6.5 1184,-6.5"/>
<text text-anchor="start" x="1192" y="-35.5" font-family="Helvetica,sans-Serif" font-size="10.00">/home/travis/build</text>
<text text-anchor="start" x="1192" y="-24.5" font-family="Helvetica,sans-Serif" font-size="10.00">/AliceO2Group/AliceO2</text>
<text text-anchor="middle" x="1243" y="-13.5" font-family="Helvetica,sans-Serif" font-size="10.00">/macro/run_clus_its.C</text>
</a>
</g>
</g>
<!-- Node4&#45;&gt;Node6 -->
<g id="edge5" class="edge"><title>Node4&#45;&gt;Node6</title>
<path fill="none" stroke="midnightblue" d="M1103.58,-86.4055C1134.83,-73.3155 1169.3,-58.876 1196.14,-47.6292"/>
<polygon fill="midnightblue" stroke="midnightblue" points="1101.87,-83.3274 1094,-90.4195 1104.57,-89.7838 1101.87,-83.3274"/>
</g>
<!-- Node4&#45;&gt;Node7 -->
<g id="edge6" class="edge"><title>Node4&#45;&gt;Node7</title>
<path fill="none" stroke="midnightblue" d="M924.308,-90.0681C924.205,-90.0454 924.102,-90.0227 924,-90 799.335,-62.4508 763.131,-83.8637 639,-54 631.764,-52.2592 624.248,-50.0358 616.922,-47.6243"/>
<polygon fill="midnightblue" stroke="midnightblue" points="923.42,-93.4547 933.957,-92.3506 925.031,-86.6426 923.42,-93.4547"/>
</g>
<!-- Node9 -->
<g id="node9" class="node"><title>Node9</title>
<g id="a_node9"><a xlink:href="../../d3/da3/ITSMFT_2ITS_2workflow_2src_2ClustererSpec_8cxx.html" target="_top" xlink:title="/home/travis/build\l/AliceO2Group/AliceO2\l/Detectors/ITSMFT/ITS\l/workflow/src/ClustererSpec.cxx">
<polygon fill="none" stroke="black" points="178.5,-1 178.5,-53 337.5,-53 337.5,-1 178.5,-1"/>
<text text-anchor="start" x="186.5" y="-41" font-family="Helvetica,sans-Serif" font-size="10.00">/home/travis/build</text>
<text text-anchor="start" x="186.5" y="-30" font-family="Helvetica,sans-Serif" font-size="10.00">/AliceO2Group/AliceO2</text>
<text text-anchor="start" x="186.5" y="-19" font-family="Helvetica,sans-Serif" font-size="10.00">/Detectors/ITSMFT/ITS</text>
<text text-anchor="middle" x="258" y="-8" font-family="Helvetica,sans-Serif" font-size="10.00">/workflow/src/ClustererSpec.cxx</text>
</a>
</g>
</g>
<!-- Node8&#45;&gt;Node9 -->
<g id="edge8" class="edge"><title>Node8&#45;&gt;Node9</title>
<path fill="none" stroke="midnightblue" d="M187.013,-83.9474C200.15,-73.5934 214.116,-62.5868 226.153,-53.1001"/>
<polygon fill="midnightblue" stroke="midnightblue" points="184.652,-81.3517 178.965,-90.2906 188.985,-86.8495 184.652,-81.3517"/>
</g>
<!-- Node10 -->
<g id="node10" class="node"><title>Node10</title>
<g id="a_node10"><a xlink:href="../../d5/d99/ITSMFT_2ITS_2workflow_2src_2RecoWorkflow_8cxx.html" target="_top" xlink:title="/home/travis/build\l/AliceO2Group/AliceO2\l/Detectors/ITSMFT/ITS\l/workflow/src/RecoWorkflow.cxx">
<polygon fill="none" stroke="black" points="-0.5,-1 -0.5,-53 160.5,-53 160.5,-1 -0.5,-1"/>
<text text-anchor="start" x="7.5" y="-41" font-family="Helvetica,sans-Serif" font-size="10.00">/home/travis/build</text>
<text text-anchor="start" x="7.5" y="-30" font-family="Helvetica,sans-Serif" font-size="10.00">/AliceO2Group/AliceO2</text>
<text text-anchor="start" x="7.5" y="-19" font-family="Helvetica,sans-Serif" font-size="10.00">/Detectors/ITSMFT/ITS</text>
<text text-anchor="middle" x="80" y="-8" font-family="Helvetica,sans-Serif" font-size="10.00">/workflow/src/RecoWorkflow.cxx</text>
</a>
</g>
</g>
<!-- Node8&#45;&gt;Node10 -->
<g id="edge9" class="edge"><title>Node8&#45;&gt;Node10</title>
<path fill="none" stroke="midnightblue" d="M114.576,-81.5929C108.349,-71.9407 101.852,-61.8709 96.1936,-53.1001"/>
<polygon fill="midnightblue" stroke="midnightblue" points="111.825,-83.7851 120.187,-90.2906 117.707,-79.9901 111.825,-83.7851"/>
</g>
<!-- Node12 -->
<g id="node12" class="node"><title>Node12</title>
<g id="a_node12"><a xlink:href="../../d9/d5e/ITSMFT_2MFT_2reconstruction_2src_2ClustererTask_8cxx.html" target="_top" xlink:title="/home/travis/build\l/AliceO2Group/AliceO2\l/Detectors/ITSMFT/MFT\l/reconstruction/src/ClustererTask.cxx">
<polygon fill="none" stroke="black" points="648.5,-1 648.5,-53 829.5,-53 829.5,-1 648.5,-1"/>
<text text-anchor="start" x="656.5" y="-41" font-family="Helvetica,sans-Serif" font-size="10.00">/home/travis/build</text>
<text text-anchor="start" x="656.5" y="-30" font-family="Helvetica,sans-Serif" font-size="10.00">/AliceO2Group/AliceO2</text>
<text text-anchor="start" x="656.5" y="-19" font-family="Helvetica,sans-Serif" font-size="10.00">/Detectors/ITSMFT/MFT</text>
<text text-anchor="middle" x="739" y="-8" font-family="Helvetica,sans-Serif" font-size="10.00">/reconstruction/src/ClustererTask.cxx</text>
</a>
</g>
</g>
<!-- Node11&#45;&gt;Node12 -->
<g id="edge11" class="edge"><title>Node11&#45;&gt;Node12</title>
<path fill="none" stroke="midnightblue" d="M790.239,-82.7726C780.877,-72.7648 771.021,-62.2288 762.481,-53.1001"/>
<polygon fill="midnightblue" stroke="midnightblue" points="787.884,-85.3789 797.272,-90.2906 792.996,-80.5968 787.884,-85.3789"/>
</g>
<!-- Node13 -->
<g id="node13" class="node"><title>Node13</title>
<g id="a_node13"><a xlink:href="../../d4/dfd/run__clus__mft_8C.html" target="_top" xlink:title="/home/travis/build\l/AliceO2Group/AliceO2\l/macro/run_clus_mft.C">
<polygon fill="none" stroke="black" points="848,-6.5 848,-47.5 966,-47.5 966,-6.5 848,-6.5"/>
<text text-anchor="start" x="856" y="-35.5" font-family="Helvetica,sans-Serif" font-size="10.00">/home/travis/build</text>
<text text-anchor="start" x="856" y="-24.5" font-family="Helvetica,sans-Serif" font-size="10.00">/AliceO2Group/AliceO2</text>
<text text-anchor="middle" x="907" y="-13.5" font-family="Helvetica,sans-Serif" font-size="10.00">/macro/run_clus_mft.C</text>
</a>
</g>
</g>
<!-- Node11&#45;&gt;Node13 -->
<g id="edge12" class="edge"><title>Node11&#45;&gt;Node13</title>
<path fill="none" stroke="midnightblue" d="M859.509,-82.5272C869.986,-70.4979 881.107,-57.7294 889.951,-47.5747"/>
<polygon fill="midnightblue" stroke="midnightblue" points="856.675,-80.451 852.747,-90.2906 861.954,-85.0485 856.675,-80.451"/>
</g>
<!-- Node11&#45;&gt;Node14 -->
<g id="edge13" class="edge"><title>Node11&#45;&gt;Node14</title>
<path fill="none" stroke="midnightblue" d="M726.462,-90.0253C623.54,-67.0989 593.142,-78.6328 495,-54 487.736,-52.1768 480.177,-49.9369 472.786,-47.5435"/>
<polygon fill="midnightblue" stroke="midnightblue" points="725.79,-93.4617 736.318,-92.2754 727.348,-86.6373 725.79,-93.4617"/>
</g>
<!-- Node15&#45;&gt;Node4 -->
<g id="edge18" class="edge"><title>Node15&#45;&gt;Node4</title>
<path fill="none" stroke="midnightblue" d="M806.358,-195.477C846.847,-181.805 893.992,-165.886 933.768,-152.455"/>
<polygon fill="midnightblue" stroke="midnightblue" points="805.11,-192.204 796.756,-198.719 807.35,-198.836 805.11,-192.204"/>
</g>
<!-- Node15&#45;&gt;Node9 -->
<g id="edge19" class="edge"><title>Node15&#45;&gt;Node9</title>
<path fill="none" stroke="midnightblue" d="M619.691,-195.814C586.493,-183.834 549.143,-169.329 516,-154 463.263,-129.608 454.089,-115.747 402,-90 375.647,-76.9743 345.901,-63.9044 320.314,-53.1458"/>
<polygon fill="midnightblue" stroke="midnightblue" points="618.798,-199.211 629.392,-199.286 621.157,-192.621 618.798,-199.211"/>
</g>
<!-- Node15&#45;&gt;Node11 -->
<g id="edge20" class="edge"><title>Node15&#45;&gt;Node11</title>
<path fill="none" stroke="midnightblue" d="M759.715,-184.005C770.712,-173.884 782.22,-163.294 792.501,-153.831"/>
<polygon fill="midnightblue" stroke="midnightblue" points="757.193,-181.57 752.205,-190.918 761.933,-186.721 757.193,-181.57"/>
</g>
<!-- Node16 -->
<g id="node16" class="node"><title>Node16</title>
<g id="a_node16"><a xlink:href="../../d5/d1b/DigitPixelReader_8cxx.html" target="_top" xlink:title="Implementation of the Alpide pixel reader for MC digits processing. ">
<polygon fill="none" stroke="black" points="525.5,-96 525.5,-148 718.5,-148 718.5,-96 525.5,-96"/>
<text text-anchor="start" x="533.5" y="-136" font-family="Helvetica,sans-Serif" font-size="10.00">/home/travis/build</text>
<text text-anchor="start" x="533.5" y="-125" font-family="Helvetica,sans-Serif" font-size="10.00">/AliceO2Group/AliceO2</text>
<text text-anchor="start" x="533.5" y="-114" font-family="Helvetica,sans-Serif" font-size="10.00">/Detectors/ITSMFT/common</text>
<text text-anchor="middle" x="622" y="-103" font-family="Helvetica,sans-Serif" font-size="10.00">/reconstruction/src/DigitPixelReader.cxx</text>
</a>
</g>
</g>
<!-- Node15&#45;&gt;Node16 -->
<g id="edge17" class="edge"><title>Node15&#45;&gt;Node16</title>
<path fill="none" stroke="midnightblue" d="M674.665,-183.188C664.223,-171.255 653.265,-158.731 644.065,-148.217"/>
<polygon fill="midnightblue" stroke="midnightblue" points="672.209,-185.697 681.428,-190.918 677.477,-181.087 672.209,-185.697"/>
</g>
<!-- Node17&#45;&gt;Node2 -->
<g id="edge22" class="edge"><title>Node17&#45;&gt;Node2</title>
<path fill="none" stroke="midnightblue" d="M728.179,-301.456C680.446,-286.812 624.321,-269.594 578.762,-255.617"/>
<polygon fill="midnightblue" stroke="midnightblue" points="727.332,-304.857 737.918,-304.444 729.385,-298.165 727.332,-304.857"/>
</g>
<!-- Node17&#45;&gt;Node4 -->
<g id="edge28" class="edge"><title>Node17&#45;&gt;Node4</title>
<path fill="none" stroke="midnightblue" d="M837.246,-292.345C843.891,-261.124 857.172,-218.642 883,-190 896.912,-174.573 915.157,-162.327 933.804,-152.755"/>
<polygon fill="midnightblue" stroke="midnightblue" points="833.751,-291.975 835.238,-302.465 840.617,-293.337 833.751,-291.975"/>
</g>
<!-- Node17&#45;&gt;Node11 -->
<g id="edge29" class="edge"><title>Node17&#45;&gt;Node11</title>
<path fill="none" stroke="midnightblue" d="M830.032,-292.363C829.065,-251.748 827.6,-190.216 826.728,-153.573"/>
<polygon fill="midnightblue" stroke="midnightblue" points="826.536,-292.55 830.273,-302.464 833.534,-292.384 826.536,-292.55"/>
</g>
<!-- Node17&#45;&gt;Node15 -->
<g id="edge23" class="edge"><title>Node17&#45;&gt;Node15</title>
<path fill="none" stroke="midnightblue" d="M788.632,-295.658C777.417,-285.774 765.328,-275.12 754.177,-265.292"/>
<polygon fill="midnightblue" stroke="midnightblue" points="786.418,-298.373 796.234,-302.359 791.046,-293.121 786.418,-298.373"/>
</g>
<!-- Node17&#45;&gt;Node18 -->
<g id="edge24" class="edge"><title>Node17&#45;&gt;Node18</title>
<path fill="none" stroke="midnightblue" d="M887.965,-296.876C907.131,-284.722 928.315,-271.288 946.744,-259.601"/>
<polygon fill="midnightblue" stroke="midnightblue" points="885.889,-294.048 879.318,-302.359 889.638,-299.959 885.889,-294.048"/>
</g>
<!-- Node18&#45;&gt;Node4 -->
<g id="edge25" class="edge"><title>Node18&#45;&gt;Node4</title>
<path fill="none" stroke="midnightblue" d="M1005.1,-186.602C1007.83,-175.695 1010.73,-164.069 1013.3,-153.781"/>
<polygon fill="midnightblue" stroke="midnightblue" points="1001.69,-185.809 1002.66,-196.359 1008.48,-187.507 1001.69,-185.809"/>
</g>
<!-- Node18&#45;&gt;Node11 -->
<g id="edge26" class="edge"><title>Node18&#45;&gt;Node11</title>
<path fill="none" stroke="midnightblue" d="M936.565,-191.04C916.745,-178.843 894.804,-165.341 875.727,-153.601"/>
<polygon fill="midnightblue" stroke="midnightblue" points="934.858,-194.099 945.208,-196.359 938.526,-188.137 934.858,-194.099"/>
</g>
<!-- Node19 -->
<g id="node19" class="node"><title>Node19</title>
<g id="a_node19"><a xlink:href="../../d7/de3/run__digi2raw__its_8C.html" target="_top" xlink:title="/home/travis/build\l/AliceO2Group/AliceO2\l/macro/run_digi2raw_its.C">
<polygon fill="none" stroke="black" points="1126.5,-101.5 1126.5,-142.5 1257.5,-142.5 1257.5,-101.5 1126.5,-101.5"/>
<text text-anchor="start" x="1134.5" y="-130.5" font-family="Helvetica,sans-Serif" font-size="10.00">/home/travis/build</text>
<text text-anchor="start" x="1134.5" y="-119.5" font-family="Helvetica,sans-Serif" font-size="10.00">/AliceO2Group/AliceO2</text>
<text text-anchor="middle" x="1192" y="-108.5" font-family="Helvetica,sans-Serif" font-size="10.00">/macro/run_digi2raw_its.C</text>
</a>
</g>
</g>
<!-- Node18&#45;&gt;Node19 -->
<g id="edge27" class="edge"><title>Node18&#45;&gt;Node19</title>
<path fill="none" stroke="midnightblue" d="M1061.85,-191.711C1092.99,-175.27 1128.86,-156.335 1155.04,-142.511"/>
<polygon fill="midnightblue" stroke="midnightblue" points="1059.98,-188.735 1052.78,-196.499 1063.25,-194.926 1059.98,-188.735"/>
</g>
</g>
</svg>
        <g id="navigator" transform="translate(0 0)" fill="#404254">
                <rect fill="#f2f5e9" fill-opacity="0.5" stroke="#606060" stroke-width=".5" x="0" y="0" width="60" height="60"/>
                <use id="zoomplus" xlink:href="#zoomPlus" x="17" y="9" onmousedown="handleZoom(evt,'in')"/>
                <use id="zoomminus" xlink:href="#zoomMin" x="42" y="9" onmousedown="handleZoom(evt,'out')"/>
                <use id="reset" xlink:href="#resetDef" x="30" y="36" onmousedown="handleReset()"/>
                <g id="arrowUp" xlink:href="#dirArrow" transform="translate(30 24)" onmousedown="handlePan(0,-1)">
                  <use xlink:href="#rim" fill="#404040">
                        <set attributeName="fill" to="#808080" begin="arrowUp.mouseover" end="arrowUp.mouseout"/>
                  </use>
                  <path fill="none" stroke="white" stroke-width="1.5" d="M0,-3.0v7 M-2.5,-0.5L0,-3.0L2.5,-0.5"/>
                </g>
                <g id="arrowRight" xlink:href="#dirArrow" transform="rotate(90) translate(36 -43)" onmousedown="handlePan(1,0)">
                  <use xlink:href="#rim" fill="#404040">
                        <set attributeName="fill" to="#808080" begin="arrowRight.mouseover" end="arrowRight.mouseout"/>
                  </use>
                  <path fill="none" stroke="white" stroke-width="1.5" d="M0,-3.0v7 M-2.5,-0.5L0,-3.0L2.5,-0.5"/>
                </g>
                <g id="arrowDown" xlink:href="#dirArrow" transform="rotate(180) translate(-30 -48)" onmousedown="handlePan(0,1)">
                  <use xlink:href="#rim" fill="#404040">
                        <set attributeName="fill" to="#808080" begin="arrowDown.mouseover" end="arrowDown.mouseout"/>
                  </use>
                  <path fill="none" stroke="white" stroke-width="1.5" d="M0,-3.0v7 M-2.5,-0.5L0,-3.0L2.5,-0.5"/>
                </g>
                <g id="arrowLeft" xlink:href="#dirArrow" transform="rotate(270) translate(-36 17)" onmousedown="handlePan(-1,0)">
                  <use xlink:href="#rim" fill="#404040">
                        <set attributeName="fill" to="#808080" begin="arrowLeft.mouseover" end="arrowLeft.mouseout"/>
                  </use>
                  <path fill="none" stroke="white" stroke-width="1.5" d="M0,-3.0v7 M-2.5,-0.5L0,-3.0L2.5,-0.5"/>
                </g>
        </g>
        <svg viewBox="0 0 15 15" width="100%" height="30px" preserveAspectRatio="xMaxYMin meet">
         <g id="arrow_out" transform="scale(0.3 0.3)">
          <a xlink:href="PixelData_8h__dep__incl_org.svg" target="_base">
           <rect id="button" ry="5" rx="5" y="6" x="6" height="38" width="38"
                fill="#f2f5e9" fill-opacity="0.5" stroke="#606060" stroke-width="1.0"/>
           <path id="arrow"
             d="M 11.500037,31.436501 C 11.940474,20.09759 22.043105,11.32322 32.158766,21.979434 L 37.068811,17.246167 C 37.068811,17.246167 37.088388,32 37.088388,32 L 22.160133,31.978069 C 22.160133,31.978069 26.997745,27.140456 26.997745,27.140456 C 18.528582,18.264221 13.291696,25.230495 11.500037,31.436501 z"
             style="fill:#404040;"/>
          </a>
         </g>
        </svg>
</svg>
