<?xml version="1.0" encoding="UTF-8" standalone="no"?>
<!DOCTYPE svg PUBLIC "-//W3C//DTD SVG 1.1//EN"
 "http://www.w3.org/Graphics/SVG/1.1/DTD/svg11.dtd">
<!-- Generated by graphviz version 2.36.0 (20140111.2315)
 -->
<!-- Title: ITSHitStats Pages: 1 -->
<svg width="117pt" height="304pt"
 viewBox="0.00 0.00 117.00 304.00" xmlns="http://www.w3.org/2000/svg" xmlns:xlink="http://www.w3.org/1999/xlink">
<g id="graph0" class="graph" transform="scale(1 1) rotate(0) translate(4 300)">
<title>ITSHitStats</title>
<!-- Node1 -->
<g id="node1" class="node"><title>Node1</title>
<polygon fill="#bfbfbf" stroke="black" points="14,-0.5 14,-79.5 88,-79.5 88,-0.5 14,-0.5"/>
<text text-anchor="middle" x="51" y="-67.5" font-family="Helvetica,sans-Serif" font-size="10.00">ITSHitStats</text>
<polyline fill="none" stroke="black" points="14,-60.5 88,-60.5 "/>
<text text-anchor="middle" x="51" y="-48.5" font-family="Helvetica,sans-Serif" font-size="10.00"> </text>
<polyline fill="none" stroke="black" points="14,-41.5 88,-41.5 "/>
<text text-anchor="start" x="22" y="-29.5" font-family="Helvetica,sans-Serif" font-size="10.00">+ print()</text>
<text text-anchor="start" x="22" y="-18.5" font-family="Helvetica,sans-Serif" font-size="10.00">+ addHit()</text>
<text text-anchor="start" x="22" y="-7.5" font-family="Helvetica,sans-Serif" font-size="10.00">+ normalize()</text>
</g>
<!-- Node2 -->
<g id="node2" class="node"><title>Node2</title>
<polygon fill="none" stroke="#bfbfbf" points="-0.5,-238.5 -0.5,-295.5 44.5,-295.5 44.5,-238.5 -0.5,-238.5"/>
<text text-anchor="middle" x="22" y="-283.5" font-family="Helvetica,sans-Serif" font-size="10.00">double</text>
<polyline fill="none" stroke="#bfbfbf" points="-0.5,-276.5 44.5,-276.5 "/>
<text text-anchor="middle" x="22" y="-264.5" font-family="Helvetica,sans-Serif" font-size="10.00"> </text>
<polyline fill="none" stroke="#bfbfbf" points="-0.5,-257.5 44.5,-257.5 "/>
<text text-anchor="middle" x="22" y="-245.5" font-family="Helvetica,sans-Serif" font-size="10.00"> </text>
</g>
<!-- Node2&#45;&gt;Node1 -->
<g id="edge1" class="edge"><title>Node2&#45;&gt;Node1</title>
<path fill="none" stroke="#404040" d="M18.4455,-238.497C14.9421,-204.855 11.6008,-146.406 23,-98 23.5402,-95.7061 24.1854,-93.3979 24.9143,-91.0937"/>
<polygon fill="none" stroke="#404040" points="24.9721,-90.9383 23.316,-83.9199 29.1576,-79.6919 30.8136,-86.7103 24.9721,-90.9383"/>
<text text-anchor="middle" x="41" y="-211.5" font-family="Helvetica,sans-Serif" font-size="10.00"> +ZAvg</text>
<text text-anchor="middle" x="41" y="-200.5" font-family="Helvetica,sans-Serif" font-size="10.00">+YAvg</text>
<text text-anchor="middle" x="41" y="-189.5" font-family="Helvetica,sans-Serif" font-size="10.00">+XAvg</text>
<text text-anchor="middle" x="41" y="-178.5" font-family="Helvetica,sans-Serif" font-size="10.00">+T2Avg</text>
<text text-anchor="middle" x="41" y="-167.5" font-family="Helvetica,sans-Serif" font-size="10.00">+EAvg</text>
<text text-anchor="middle" x="41" y="-156.5" font-family="Helvetica,sans-Serif" font-size="10.00">+TAvg</text>
<text text-anchor="middle" x="41" y="-145.5" font-family="Helvetica,sans-Serif" font-size="10.00">+E2Avg</text>
<text text-anchor="middle" x="41" y="-134.5" font-family="Helvetica,sans-Serif" font-size="10.00">+X2Avg</text>
<text text-anchor="middle" x="41" y="-123.5" font-family="Helvetica,sans-Serif" font-size="10.00">+Y2Avg</text>
<text text-anchor="middle" x="41" y="-112.5" font-family="Helvetica,sans-Serif" font-size="10.00">+Z2Avg</text>
<text text-anchor="middle" x="41" y="-101.5" font-family="Helvetica,sans-Serif" font-size="10.00">...</text>
</g>
<!-- Node3 -->
<g id="node3" class="node"><title>Node3</title>
<polygon fill="none" stroke="#bfbfbf" points="66.5,-238.5 66.5,-295.5 95.5,-295.5 95.5,-238.5 66.5,-238.5"/>
<text text-anchor="middle" x="81" y="-283.5" font-family="Helvetica,sans-Serif" font-size="10.00">int</text>
<polyline fill="none" stroke="#bfbfbf" points="66.5,-276.5 95.5,-276.5 "/>
<text text-anchor="middle" x="81" y="-264.5" font-family="Helvetica,sans-Serif" font-size="10.00"> </text>
<polyline fill="none" stroke="#bfbfbf" points="66.5,-257.5 95.5,-257.5 "/>
<text text-anchor="middle" x="81" y="-245.5" font-family="Helvetica,sans-Serif" font-size="10.00"> </text>
</g>
<!-- Node3&#45;&gt;Node1 -->
<g id="edge2" class="edge"><title>Node3&#45;&gt;Node1</title>
<path fill="none" stroke="#404040" d="M77.4577,-238.343C73.1736,-205.038 65.702,-147.407 59,-98 58.723,-95.9577 58.4386,-93.8745 58.15,-91.7702"/>
<polygon fill="none" stroke="#404040" points="58.1145,-91.5132 53.3302,-86.1179 56.4704,-79.6264 61.2547,-85.0217 58.1145,-91.5132"/>
<text text-anchor="middle" x="91.5" y="-156.5" font-family="Helvetica,sans-Serif" font-size="10.00"> +NHits</text>
</g>
</g>
</svg>
