<?xml version="1.0" encoding="UTF-8" standalone="no"?>
<!DOCTYPE svg PUBLIC "-//W3C//DTD SVG 1.1//EN"
 "http://www.w3.org/Graphics/SVG/1.1/DTD/svg11.dtd">
<!-- Generated by graphviz version 2.36.0 (20140111.2315)
 -->
<!-- Title: o2::Data::SubEventInfo Pages: 1 -->
<svg width="469pt" height="388pt"
 viewBox="0.00 0.00 469.00 388.00" xmlns="http://www.w3.org/2000/svg" xmlns:xlink="http://www.w3.org/1999/xlink">
<g id="graph0" class="graph" transform="scale(1 1) rotate(0) translate(4 384)">
<title>o2::Data::SubEventInfo</title>
<!-- Node1 -->
<g id="node1" class="node"><title>Node1</title>
<polygon fill="#bfbfbf" stroke="black" points="195.5,-0.5 195.5,-57.5 314.5,-57.5 314.5,-0.5 195.5,-0.5"/>
<text text-anchor="middle" x="255" y="-45.5" font-family="Helvetica,sans-Serif" font-size="10.00">o2::Data::SubEventInfo</text>
<polyline fill="none" stroke="black" points="195.5,-38.5 314.5,-38.5 "/>
<text text-anchor="middle" x="255" y="-26.5" font-family="Helvetica,sans-Serif" font-size="10.00"> </text>
<polyline fill="none" stroke="black" points="195.5,-19.5 314.5,-19.5 "/>
<text text-anchor="start" x="203.5" y="-7.5" font-family="Helvetica,sans-Serif" font-size="10.00">+ ClassDefNV()</text>
</g>
<!-- Node2 -->
<g id="node2" class="node"><title>Node2</title>
<polygon fill="none" stroke="#bfbfbf" points="-0.5,-172.5 -0.5,-229.5 50.5,-229.5 50.5,-172.5 -0.5,-172.5"/>
<text text-anchor="middle" x="25" y="-217.5" font-family="Helvetica,sans-Serif" font-size="10.00">uint32_t</text>
<polyline fill="none" stroke="#bfbfbf" points="-0.5,-210.5 50.5,-210.5 "/>
<text text-anchor="middle" x="25" y="-198.5" font-family="Helvetica,sans-Serif" font-size="10.00"> </text>
<polyline fill="none" stroke="#bfbfbf" points="-0.5,-191.5 50.5,-191.5 "/>
<text text-anchor="middle" x="25" y="-179.5" font-family="Helvetica,sans-Serif" font-size="10.00"> </text>
</g>
<!-- Node2&#45;&gt;Node1 -->
<g id="edge1" class="edge"><title>Node2&#45;&gt;Node1</title>
<path fill="none" stroke="#404040" d="M33.8648,-172.438C44.6735,-143.532 65.8484,-99.155 100,-76 124.691,-59.2596 155.593,-48.4907 183.295,-41.6204"/>
<polygon fill="none" stroke="#404040" points="183.664,-41.5349 188.603,-36.2811 195.353,-38.8198 190.413,-44.0736 183.664,-41.5349"/>
<text text-anchor="middle" x="120.5" y="-101.5" font-family="Helvetica,sans-Serif" font-size="10.00"> +index</text>
<text text-anchor="middle" x="120.5" y="-90.5" font-family="Helvetica,sans-Serif" font-size="10.00">+eventID</text>
<text text-anchor="middle" x="120.5" y="-79.5" font-family="Helvetica,sans-Serif" font-size="10.00">+seed</text>
</g>
<!-- Node3 -->
<g id="node3" class="node"><title>Node3</title>
<g id="a_node3"><a xlink:href="../../d4/db1/classo2_1_1dataformats_1_1MCEventHeader.html" target="_top" xlink:title="{o2::dataformats::MCEvent\lHeader\n||+ MCEventHeader()\l+ MCEventHeader()\l+ operator=()\l+ ~MCEventHeader()\l+ setEmbeddingFileName()\l+ setEmbeddingEventIndex()\l+ Reset()\l# ClassDefOverride()\l}">
<polygon fill="none" stroke="black" points="68.5,-128.5 68.5,-273.5 211.5,-273.5 211.5,-128.5 68.5,-128.5"/>
<text text-anchor="start" x="76.5" y="-261.5" font-family="Helvetica,sans-Serif" font-size="10.00">o2::dataformats::MCEvent</text>
<text text-anchor="middle" x="140" y="-250.5" font-family="Helvetica,sans-Serif" font-size="10.00">Header</text>
<polyline fill="none" stroke="black" points="68.5,-243.5 211.5,-243.5 "/>
<text text-anchor="middle" x="140" y="-231.5" font-family="Helvetica,sans-Serif" font-size="10.00"> </text>
<polyline fill="none" stroke="black" points="68.5,-224.5 211.5,-224.5 "/>
<text text-anchor="start" x="76.5" y="-212.5" font-family="Helvetica,sans-Serif" font-size="10.00">+ MCEventHeader()</text>
<text text-anchor="start" x="76.5" y="-201.5" font-family="Helvetica,sans-Serif" font-size="10.00">+ MCEventHeader()</text>
<text text-anchor="start" x="76.5" y="-190.5" font-family="Helvetica,sans-Serif" font-size="10.00">+ operator=()</text>
<text text-anchor="start" x="76.5" y="-179.5" font-family="Helvetica,sans-Serif" font-size="10.00">+ ~MCEventHeader()</text>
<text text-anchor="start" x="76.5" y="-168.5" font-family="Helvetica,sans-Serif" font-size="10.00">+ setEmbeddingFileName()</text>
<text text-anchor="start" x="76.5" y="-157.5" font-family="Helvetica,sans-Serif" font-size="10.00">+ setEmbeddingEventIndex()</text>
<text text-anchor="start" x="76.5" y="-146.5" font-family="Helvetica,sans-Serif" font-size="10.00">+ Reset()</text>
<text text-anchor="start" x="76.5" y="-135.5" font-family="Helvetica,sans-Serif" font-size="10.00"># ClassDefOverride()</text>
</a>
</g>
</g>
<!-- Node3&#45;&gt;Node1 -->
<g id="edge2" class="edge"><title>Node3&#45;&gt;Node1</title>
<path fill="none" stroke="#404040" d="M139.932,-128.481C142.871,-109.973 148.802,-91.0431 160,-76 166.589,-67.1481 175.335,-59.9154 184.858,-54.0299"/>
<polygon fill="none" stroke="#404040" points="184.94,-53.9843 188.244,-47.5746 195.432,-48.1593 192.128,-54.5689 184.94,-53.9843"/>
<text text-anchor="middle" x="205.5" y="-90.5" font-family="Helvetica,sans-Serif" font-size="10.00"> +mMCEventHeader</text>
</g>
<!-- Node4 -->
<g id="node4" class="node"><title>Node4</title>
<g id="a_node4"><a xlink:href="../../dd/d8f/classFairMCEventHeader.html" target="_top" xlink:title="{FairMCEventHeader\n||}">
<polygon fill="none" stroke="black" points="2,-322.5 2,-379.5 108,-379.5 108,-322.5 2,-322.5"/>
<text text-anchor="middle" x="55" y="-367.5" font-family="Helvetica,sans-Serif" font-size="10.00">FairMCEventHeader</text>
<polyline fill="none" stroke="black" points="2,-360.5 108,-360.5 "/>
<text text-anchor="middle" x="55" y="-348.5" font-family="Helvetica,sans-Serif" font-size="10.00"> </text>
<polyline fill="none" stroke="black" points="2,-341.5 108,-341.5 "/>
<text text-anchor="middle" x="55" y="-329.5" font-family="Helvetica,sans-Serif" font-size="10.00"> </text>
</a>
</g>
</g>
<!-- Node4&#45;&gt;Node3 -->
<g id="edge3" class="edge"><title>Node4&#45;&gt;Node3</title>
<path fill="none" stroke="midnightblue" d="M76.0593,-313.332C82.9765,-301.288 90.9203,-287.456 98.8043,-273.729"/>
<polygon fill="none" stroke="midnightblue" points="72.9331,-311.748 70.9878,-322.162 79.0033,-315.234 72.9331,-311.748"/>
</g>
<!-- Node5 -->
<g id="node5" class="node"><title>Node5</title>
<polygon fill="none" stroke="#bfbfbf" points="125.5,-322.5 125.5,-379.5 154.5,-379.5 154.5,-322.5 125.5,-322.5"/>
<text text-anchor="middle" x="140" y="-367.5" font-family="Helvetica,sans-Serif" font-size="10.00">int</text>
<polyline fill="none" stroke="#bfbfbf" points="125.5,-360.5 154.5,-360.5 "/>
<text text-anchor="middle" x="140" y="-348.5" font-family="Helvetica,sans-Serif" font-size="10.00"> </text>
<polyline fill="none" stroke="#bfbfbf" points="125.5,-341.5 154.5,-341.5 "/>
<text text-anchor="middle" x="140" y="-329.5" font-family="Helvetica,sans-Serif" font-size="10.00"> </text>
</g>
<!-- Node5&#45;&gt;Node3 -->
<g id="edge4" class="edge"><title>Node5&#45;&gt;Node3</title>
<path fill="none" stroke="#404040" d="M140,-322.162C140,-311.584 140,-298.911 140,-285.82"/>
<polygon fill="none" stroke="#404040" points="140,-285.729 136,-279.729 140,-273.729 144,-279.729 140,-285.729"/>
<text text-anchor="middle" x="194" y="-295.5" font-family="Helvetica,sans-Serif" font-size="10.00"> #mEmbeddingFileName</text>
</g>
<!-- Node6 -->
<g id="node6" class="node"><title>Node6</title>
<polygon fill="none" stroke="#bfbfbf" points="253,-322.5 253,-379.5 289,-379.5 289,-322.5 253,-322.5"/>
<text text-anchor="middle" x="271" y="-367.5" font-family="Helvetica,sans-Serif" font-size="10.00">Int_t</text>
<polyline fill="none" stroke="#bfbfbf" points="253,-360.5 289,-360.5 "/>
<text text-anchor="middle" x="271" y="-348.5" font-family="Helvetica,sans-Serif" font-size="10.00"> </text>
<polyline fill="none" stroke="#bfbfbf" points="253,-341.5 289,-341.5 "/>
<text text-anchor="middle" x="271" y="-329.5" font-family="Helvetica,sans-Serif" font-size="10.00"> </text>
</g>
<!-- Node6&#45;&gt;Node3 -->
<g id="edge5" class="edge"><title>Node6&#45;&gt;Node3</title>
<path fill="none" stroke="#404040" d="M264.57,-322.379C261.181,-312.055 256.189,-300.729 249,-292 241.165,-282.486 234.925,-282.563 222.007,-274.685"/>
<polygon fill="none" stroke="#404040" points="221.789,-274.536 214.579,-274.438 211.896,-267.745 219.106,-267.843 221.789,-274.536"/>
<text text-anchor="middle" x="314.5" y="-295.5" font-family="Helvetica,sans-Serif" font-size="10.00"> #mEmbeddingEventIndex</text>
</g>
<!-- Node7 -->
<g id="node7" class="node"><title>Node7</title>
<polygon fill="none" stroke="#bfbfbf" points="229.5,-172.5 229.5,-229.5 280.5,-229.5 280.5,-172.5 229.5,-172.5"/>
<text text-anchor="middle" x="255" y="-217.5" font-family="Helvetica,sans-Serif" font-size="10.00">uint16_t</text>
<polyline fill="none" stroke="#bfbfbf" points="229.5,-210.5 280.5,-210.5 "/>
<text text-anchor="middle" x="255" y="-198.5" font-family="Helvetica,sans-Serif" font-size="10.00"> </text>
<polyline fill="none" stroke="#bfbfbf" points="229.5,-191.5 280.5,-191.5 "/>
<text text-anchor="middle" x="255" y="-179.5" font-family="Helvetica,sans-Serif" font-size="10.00"> </text>
</g>
<!-- Node7&#45;&gt;Node1 -->
<g id="edge6" class="edge"><title>Node7&#45;&gt;Node1</title>
<path fill="none" stroke="#404040" d="M255,-172.308C255,-144.524 255,-101.448 255,-69.9631"/>
<polygon fill="none" stroke="#404040" points="255,-69.6799 251,-63.68 255,-57.6799 259,-63.6799 255,-69.6799"/>
<text text-anchor="middle" x="272" y="-96" font-family="Helvetica,sans-Serif" font-size="10.00"> +part</text>
<text text-anchor="middle" x="272" y="-85" font-family="Helvetica,sans-Serif" font-size="10.00">+nparts</text>
</g>
<!-- Node8 -->
<g id="node8" class="node"><title>Node8</title>
<g id="a_node8"><a xlink:href="../../d4/dc3/classfloat.html" target="_top" xlink:title="{float\n||}">
<polygon fill="none" stroke="black" points="298.5,-172.5 298.5,-229.5 333.5,-229.5 333.5,-172.5 298.5,-172.5"/>
<text text-anchor="middle" x="316" y="-217.5" font-family="Helvetica,sans-Serif" font-size="10.00">float</text>
<polyline fill="none" stroke="black" points="298.5,-210.5 333.5,-210.5 "/>
<text text-anchor="middle" x="316" y="-198.5" font-family="Helvetica,sans-Serif" font-size="10.00"> </text>
<polyline fill="none" stroke="black" points="298.5,-191.5 333.5,-191.5 "/>
<text text-anchor="middle" x="316" y="-179.5" font-family="Helvetica,sans-Serif" font-size="10.00"> </text>
</a>
</g>
</g>
<!-- Node8&#45;&gt;Node1 -->
<g id="edge7" class="edge"><title>Node8&#45;&gt;Node1</title>
<path fill="none" stroke="#404040" d="M314.463,-172.224C312.157,-146.289 306.393,-107.031 292,-76 290.698,-73.1933 289.189,-70.4089 287.539,-67.6806"/>
<polygon fill="none" stroke="#404040" points="287.369,-67.4304 280.688,-64.7176 280.622,-57.5068 287.303,-60.2196 287.369,-67.4304"/>
<text text-anchor="middle" x="330" y="-90.5" font-family="Helvetica,sans-Serif" font-size="10.00"> +eventtime</text>
</g>
<!-- Node9 -->
<g id="node9" class="node"><title>Node9</title>
<polygon fill="none" stroke="#bfbfbf" points="366,-172.5 366,-229.5 412,-229.5 412,-172.5 366,-172.5"/>
<text text-anchor="middle" x="389" y="-217.5" font-family="Helvetica,sans-Serif" font-size="10.00">int32_t</text>
<polyline fill="none" stroke="#bfbfbf" points="366,-210.5 412,-210.5 "/>
<text text-anchor="middle" x="389" y="-198.5" font-family="Helvetica,sans-Serif" font-size="10.00"> </text>
<polyline fill="none" stroke="#bfbfbf" points="366,-191.5 412,-191.5 "/>
<text text-anchor="middle" x="389" y="-179.5" font-family="Helvetica,sans-Serif" font-size="10.00"> </text>
</g>
<!-- Node9&#45;&gt;Node1 -->
<g id="edge8" class="edge"><title>Node9&#45;&gt;Node1</title>
<path fill="none" stroke="#404040" d="M389.377,-172.495C388.329,-145.095 382.691,-103.281 360,-76 350.853,-65.0026 338.565,-56.5544 325.621,-50.091"/>
<polygon fill="none" stroke="#404040" points="325.578,-50.0714 318.462,-51.2368 314.649,-45.1161 321.765,-43.9507 325.578,-50.0714"/>
<text text-anchor="middle" x="420" y="-101.5" font-family="Helvetica,sans-Serif" font-size="10.00"> +runID</text>
<text text-anchor="middle" x="420" y="-90.5" font-family="Helvetica,sans-Serif" font-size="10.00">+maxEvents</text>
<text text-anchor="middle" x="420" y="-79.5" font-family="Helvetica,sans-Serif" font-size="10.00">+npersistenttracks</text>
</g>
</g>
</svg>
