<?xml version="1.0" encoding="UTF-8" standalone="no"?>
<!DOCTYPE svg PUBLIC "-//W3C//DTD SVG 1.1//EN"
 "http://www.w3.org/Graphics/SVG/1.1/DTD/svg11.dtd">
<!-- Generated by graphviz version 2.36.0 (20140111.2315)
 -->
<!-- Title: o2::Data::PrimaryChunk Pages: 1 -->
<!--zoomable 494 -->
<svg id="main" version="1.1" xmlns="http://www.w3.org/2000/svg" xmlns:xlink="http://www.w3.org/1999/xlink" xml:space="preserve" onload="init(evt)">
<style type="text/css"><![CDATA[
.edge:hover path { stroke: red; }
.edge:hover polygon { stroke: red; fill: red; }
]]></style>
<script type="text/javascript"><![CDATA[
var edges = document.getElementsByTagName('g');
if (edges && edges.length) {
  for (var i=0;i<edges.length;i++) {
    if (edges[i].id.substr(0,4)=='edge') {
      edges[i].setAttribute('class','edge');
    }
  }
}
]]></script>
        <defs>
                <circle id="rim" cx="0" cy="0" r="7"/>
                <circle id="rim2" cx="0" cy="0" r="3.5"/>
                <g id="zoomPlus">
                        <use xlink:href="#rim" fill="#404040">
                                <set attributeName="fill" to="#808080" begin="zoomplus.mouseover" end="zoomplus.mouseout"/>
                        </use>
                        <path d="M-4,0h8M0,-4v8" fill="none" stroke="white" stroke-width="1.5" pointer-events="none"/>
                </g>
                <g id="zoomMin">
                        <use xlink:href="#rim" fill="#404040">
                                <set attributeName="fill" to="#808080" begin="zoomminus.mouseover" end="zoomminus.mouseout"/>
                        </use>
                        <path d="M-4,0h8" fill="none" stroke="white" stroke-width="1.5" pointer-events="none"/>
                </g>
                <g id="dirArrow">
                        <path fill="none" stroke="white" stroke-width="1.5" d="M0,-3.0v7 M-2.5,-0.5L0,-3.0L2.5,-0.5"/>
                </g>
               <g id="resetDef">
                       <use xlink:href="#rim2" fill="#404040">
                               <set attributeName="fill" to="#808080" begin="reset.mouseover" end="reset.mouseout"/>
                       </use>
               </g>
        </defs>

<script type="text/javascript">
var viewWidth = 468;
var viewHeight = 494;
var sectionId = 'dynsection-0';
</script>
<script xlink:href="../../svgpan.js"/>
<svg id="graph" class="graph">
<g id="viewport">
<title>o2::Data::PrimaryChunk</title>
<!-- Node1 -->
<g id="node1" class="node"><title>Node1</title>
<polygon fill="#bfbfbf" stroke="black" points="117,-0.5 117,-57.5 239,-57.5 239,-0.5 117,-0.5"/>
<text text-anchor="middle" x="178" y="-45.5" font-family="Helvetica,sans-Serif" font-size="10.00">o2::Data::PrimaryChunk</text>
<polyline fill="none" stroke="black" points="117,-38.5 239,-38.5 "/>
<text text-anchor="middle" x="178" y="-26.5" font-family="Helvetica,sans-Serif" font-size="10.00"> </text>
<polyline fill="none" stroke="black" points="117,-19.5 239,-19.5 "/>
<text text-anchor="start" x="125" y="-7.5" font-family="Helvetica,sans-Serif" font-size="10.00">+ ClassDefNV()</text>
</g>
<!-- Node2 -->
<g id="node2" class="node"><title>Node2</title>
<polygon fill="none" stroke="#bfbfbf" points="76.5,-106.5 76.5,-163.5 177.5,-163.5 177.5,-106.5 76.5,-106.5"/>
<text text-anchor="middle" x="127" y="-151.5" font-family="Helvetica,sans-Serif" font-size="10.00">vector&lt; TParticle &gt;</text>
<polyline fill="none" stroke="#bfbfbf" points="76.5,-144.5 177.5,-144.5 "/>
<text text-anchor="middle" x="127" y="-132.5" font-family="Helvetica,sans-Serif" font-size="10.00"> </text>
<polyline fill="none" stroke="#bfbfbf" points="76.5,-125.5 177.5,-125.5 "/>
<text text-anchor="middle" x="127" y="-113.5" font-family="Helvetica,sans-Serif" font-size="10.00"> </text>
</g>
<!-- Node2&#45;&gt;Node1 -->
<g id="edge1" class="edge"><title>Node2&#45;&gt;Node1</title>
<path fill="none" stroke="#404040" d="M138.23,-106.285C142.342,-96.6005 147.174,-85.7236 152,-76 153.193,-73.5965 154.453,-71.1417 155.748,-68.6788"/>
<polygon fill="none" stroke="#404040" points="155.841,-68.5089 155.187,-61.3275 161.564,-57.9617 162.218,-65.1431 155.841,-68.5089"/>
<text text-anchor="middle" x="180" y="-79.5" font-family="Helvetica,sans-Serif" font-size="10.00"> +mParticles</text>
</g>
<!-- Node3 -->
<g id="node3" class="node"><title>Node3</title>
<g id="a_node3"><a xlink:href="../../d8/dff/structo2_1_1Data_1_1SubEventInfo.html" target="_top" xlink:title="{o2::Data::SubEventInfo\n||+ ClassDefNV()\l}">
<polygon fill="none" stroke="black" points="195.5,-106.5 195.5,-163.5 314.5,-163.5 314.5,-106.5 195.5,-106.5"/>
<text text-anchor="middle" x="255" y="-151.5" font-family="Helvetica,sans-Serif" font-size="10.00">o2::Data::SubEventInfo</text>
<polyline fill="none" stroke="black" points="195.5,-144.5 314.5,-144.5 "/>
<text text-anchor="middle" x="255" y="-132.5" font-family="Helvetica,sans-Serif" font-size="10.00"> </text>
<polyline fill="none" stroke="black" points="195.5,-125.5 314.5,-125.5 "/>
<text text-anchor="start" x="203.5" y="-113.5" font-family="Helvetica,sans-Serif" font-size="10.00">+ ClassDefNV()</text>
</a>
</g>
</g>
<!-- Node3&#45;&gt;Node1 -->
<g id="edge2" class="edge"><title>Node3&#45;&gt;Node1</title>
<path fill="none" stroke="#404040" d="M234.568,-106.403C225.779,-94.5321 215.365,-80.467 205.883,-67.6607"/>
<polygon fill="none" stroke="#404040" points="205.668,-67.3704 198.883,-64.9284 198.528,-57.726 205.313,-60.168 205.668,-67.3704"/>
<text text-anchor="middle" x="257.5" y="-79.5" font-family="Helvetica,sans-Serif" font-size="10.00"> +mSubEventInfo</text>
</g>
<!-- Node4 -->
<g id="node4" class="node"><title>Node4</title>
<polygon fill="none" stroke="#bfbfbf" points="-0.5,-278.5 -0.5,-335.5 50.5,-335.5 50.5,-278.5 -0.5,-278.5"/>
<text text-anchor="middle" x="25" y="-323.5" font-family="Helvetica,sans-Serif" font-size="10.00">uint32_t</text>
<polyline fill="none" stroke="#bfbfbf" points="-0.5,-316.5 50.5,-316.5 "/>
<text text-anchor="middle" x="25" y="-304.5" font-family="Helvetica,sans-Serif" font-size="10.00"> </text>
<polyline fill="none" stroke="#bfbfbf" points="-0.5,-297.5 50.5,-297.5 "/>
<text text-anchor="middle" x="25" y="-285.5" font-family="Helvetica,sans-Serif" font-size="10.00"> </text>
</g>
<!-- Node4&#45;&gt;Node3 -->
<g id="edge3" class="edge"><title>Node4&#45;&gt;Node3</title>
<path fill="none" stroke="#404040" d="M33.3165,-278.423C43.7561,-249.057 64.7123,-203.865 100,-182 130.212,-163.28 145.727,-173.158 183.519,-164.199"/>
<polygon fill="none" stroke="#404040" points="183.822,-164.116 188.554,-158.674 195.397,-160.949 190.665,-166.39 183.822,-164.116"/>
<text text-anchor="middle" x="120.5" y="-207.5" font-family="Helvetica,sans-Serif" font-size="10.00"> +index</text>
<text text-anchor="middle" x="120.5" y="-196.5" font-family="Helvetica,sans-Serif" font-size="10.00">+eventID</text>
<text text-anchor="middle" x="120.5" y="-185.5" font-family="Helvetica,sans-Serif" font-size="10.00">+seed</text>
</g>
<!-- Node5 -->
<g id="node5" class="node"><title>Node5</title>
<g id="a_node5"><a xlink:href="../../d4/db1/classo2_1_1dataformats_1_1MCEventHeader.html" target="_top" xlink:title="{o2::dataformats::MCEvent\lHeader\n||+ MCEventHeader()\l+ MCEventHeader()\l+ operator=()\l+ ~MCEventHeader()\l+ setEmbeddingFileName()\l+ setEmbeddingEventIndex()\l+ Reset()\l# ClassDefOverride()\l}">
<polygon fill="none" stroke="black" points="68.5,-234.5 68.5,-379.5 211.5,-379.5 211.5,-234.5 68.5,-234.5"/>
<text text-anchor="start" x="76.5" y="-367.5" font-family="Helvetica,sans-Serif" font-size="10.00">o2::dataformats::MCEvent</text>
<text text-anchor="middle" x="140" y="-356.5" font-family="Helvetica,sans-Serif" font-size="10.00">Header</text>
<polyline fill="none" stroke="black" points="68.5,-349.5 211.5,-349.5 "/>
<text text-anchor="middle" x="140" y="-337.5" font-family="Helvetica,sans-Serif" font-size="10.00"> </text>
<polyline fill="none" stroke="black" points="68.5,-330.5 211.5,-330.5 "/>
<text text-anchor="start" x="76.5" y="-318.5" font-family="Helvetica,sans-Serif" font-size="10.00">+ MCEventHeader()</text>
<text text-anchor="start" x="76.5" y="-307.5" font-family="Helvetica,sans-Serif" font-size="10.00">+ MCEventHeader()</text>
<text text-anchor="start" x="76.5" y="-296.5" font-family="Helvetica,sans-Serif" font-size="10.00">+ operator=()</text>
<text text-anchor="start" x="76.5" y="-285.5" font-family="Helvetica,sans-Serif" font-size="10.00">+ ~MCEventHeader()</text>
<text text-anchor="start" x="76.5" y="-274.5" font-family="Helvetica,sans-Serif" font-size="10.00">+ setEmbeddingFileName()</text>
<text text-anchor="start" x="76.5" y="-263.5" font-family="Helvetica,sans-Serif" font-size="10.00">+ setEmbeddingEventIndex()</text>
<text text-anchor="start" x="76.5" y="-252.5" font-family="Helvetica,sans-Serif" font-size="10.00">+ Reset()</text>
<text text-anchor="start" x="76.5" y="-241.5" font-family="Helvetica,sans-Serif" font-size="10.00"># ClassDefOverride()</text>
</a>
</g>
</g>
<!-- Node5&#45;&gt;Node3 -->
<g id="edge4" class="edge"><title>Node5&#45;&gt;Node3</title>
<path fill="none" stroke="#404040" d="M139.932,-234.481C142.871,-215.973 148.802,-197.043 160,-182 163.958,-176.682 173.267,-170.696 184.587,-164.844"/>
<polygon fill="none" stroke="#404040" points="184.671,-164.803 188.304,-158.573 195.451,-159.531 191.819,-165.76 184.671,-164.803"/>
<text text-anchor="middle" x="205.5" y="-196.5" font-family="Helvetica,sans-Serif" font-size="10.00"> +mMCEventHeader</text>
</g>
<!-- Node6 -->
<g id="node6" class="node"><title>Node6</title>
<g id="a_node6"><a xlink:href="../../dd/d8f/classFairMCEventHeader.html" target="_top" xlink:title="{FairMCEventHeader\n||}">
<polygon fill="none" stroke="black" points="2,-428.5 2,-485.5 108,-485.5 108,-428.5 2,-428.5"/>
<text text-anchor="middle" x="55" y="-473.5" font-family="Helvetica,sans-Serif" font-size="10.00">FairMCEventHeader</text>
<polyline fill="none" stroke="black" points="2,-466.5 108,-466.5 "/>
<text text-anchor="middle" x="55" y="-454.5" font-family="Helvetica,sans-Serif" font-size="10.00"> </text>
<polyline fill="none" stroke="black" points="2,-447.5 108,-447.5 "/>
<text text-anchor="middle" x="55" y="-435.5" font-family="Helvetica,sans-Serif" font-size="10.00"> </text>
</a>
</g>
</g>
<!-- Node6&#45;&gt;Node5 -->
<g id="edge5" class="edge"><title>Node6&#45;&gt;Node5</title>
<path fill="none" stroke="midnightblue" d="M76.0593,-419.332C82.9765,-407.288 90.9203,-393.456 98.8043,-379.729"/>
<polygon fill="none" stroke="midnightblue" points="72.9331,-417.748 70.9878,-428.162 79.0033,-421.234 72.9331,-417.748"/>
</g>
<!-- Node7 -->
<g id="node7" class="node"><title>Node7</title>
<polygon fill="none" stroke="#bfbfbf" points="125.5,-428.5 125.5,-485.5 154.5,-485.5 154.5,-428.5 125.5,-428.5"/>
<text text-anchor="middle" x="140" y="-473.5" font-family="Helvetica,sans-Serif" font-size="10.00">int</text>
<polyline fill="none" stroke="#bfbfbf" points="125.5,-466.5 154.5,-466.5 "/>
<text text-anchor="middle" x="140" y="-454.5" font-family="Helvetica,sans-Serif" font-size="10.00"> </text>
<polyline fill="none" stroke="#bfbfbf" points="125.5,-447.5 154.5,-447.5 "/>
<text text-anchor="middle" x="140" y="-435.5" font-family="Helvetica,sans-Serif" font-size="10.00"> </text>
</g>
<!-- Node7&#45;&gt;Node5 -->
<g id="edge6" class="edge"><title>Node7&#45;&gt;Node5</title>
<path fill="none" stroke="#404040" d="M140,-428.162C140,-417.584 140,-404.911 140,-391.82"/>
<polygon fill="none" stroke="#404040" points="140,-391.729 136,-385.729 140,-379.729 144,-385.729 140,-391.729"/>
<text text-anchor="middle" x="194" y="-401.5" font-family="Helvetica,sans-Serif" font-size="10.00"> #mEmbeddingFileName</text>
</g>
<!-- Node8 -->
<g id="node8" class="node"><title>Node8</title>
<polygon fill="none" stroke="#bfbfbf" points="253,-428.5 253,-485.5 289,-485.5 289,-428.5 253,-428.5"/>
<text text-anchor="middle" x="271" y="-473.5" font-family="Helvetica,sans-Serif" font-size="10.00">Int_t</text>
<polyline fill="none" stroke="#bfbfbf" points="253,-466.5 289,-466.5 "/>
<text text-anchor="middle" x="271" y="-454.5" font-family="Helvetica,sans-Serif" font-size="10.00"> </text>
<polyline fill="none" stroke="#bfbfbf" points="253,-447.5 289,-447.5 "/>
<text text-anchor="middle" x="271" y="-435.5" font-family="Helvetica,sans-Serif" font-size="10.00"> </text>
</g>
<!-- Node8&#45;&gt;Node5 -->
<g id="edge7" class="edge"><title>Node8&#45;&gt;Node5</title>
<path fill="none" stroke="#404040" d="M264.57,-428.379C261.181,-418.055 256.189,-406.729 249,-398 241.165,-388.486 234.925,-388.563 222.007,-380.685"/>
<polygon fill="none" stroke="#404040" points="221.789,-380.536 214.579,-380.438 211.896,-373.745 219.106,-373.843 221.789,-380.536"/>
<text text-anchor="middle" x="314.5" y="-401.5" font-family="Helvetica,sans-Serif" font-size="10.00"> #mEmbeddingEventIndex</text>
</g>
<!-- Node9 -->
<g id="node9" class="node"><title>Node9</title>
<polygon fill="none" stroke="#bfbfbf" points="229.5,-278.5 229.5,-335.5 280.5,-335.5 280.5,-278.5 229.5,-278.5"/>
<text text-anchor="middle" x="255" y="-323.5" font-family="Helvetica,sans-Serif" font-size="10.00">uint16_t</text>
<polyline fill="none" stroke="#bfbfbf" points="229.5,-316.5 280.5,-316.5 "/>
<text text-anchor="middle" x="255" y="-304.5" font-family="Helvetica,sans-Serif" font-size="10.00"> </text>
<polyline fill="none" stroke="#bfbfbf" points="229.5,-297.5 280.5,-297.5 "/>
<text text-anchor="middle" x="255" y="-285.5" font-family="Helvetica,sans-Serif" font-size="10.00"> </text>
</g>
<!-- Node9&#45;&gt;Node3 -->
<g id="edge8" class="edge"><title>Node9&#45;&gt;Node3</title>
<path fill="none" stroke="#404040" d="M255,-278.308C255,-250.524 255,-207.448 255,-175.963"/>
<polygon fill="none" stroke="#404040" points="255,-175.68 251,-169.68 255,-163.68 259,-169.68 255,-175.68"/>
<text text-anchor="middle" x="272" y="-202" font-family="Helvetica,sans-Serif" font-size="10.00"> +part</text>
<text text-anchor="middle" x="272" y="-191" font-family="Helvetica,sans-Serif" font-size="10.00">+nparts</text>
</g>
<!-- Node10 -->
<g id="node10" class="node"><title>Node10</title>
<g id="a_node10"><a xlink:href="../../d4/dc3/classfloat.html" target="_top" xlink:title="{float\n||}">
<polygon fill="none" stroke="black" points="298.5,-278.5 298.5,-335.5 333.5,-335.5 333.5,-278.5 298.5,-278.5"/>
<text text-anchor="middle" x="316" y="-323.5" font-family="Helvetica,sans-Serif" font-size="10.00">float</text>
<polyline fill="none" stroke="black" points="298.5,-316.5 333.5,-316.5 "/>
<text text-anchor="middle" x="316" y="-304.5" font-family="Helvetica,sans-Serif" font-size="10.00"> </text>
<polyline fill="none" stroke="black" points="298.5,-297.5 333.5,-297.5 "/>
<text text-anchor="middle" x="316" y="-285.5" font-family="Helvetica,sans-Serif" font-size="10.00"> </text>
</a>
</g>
</g>
<!-- Node10&#45;&gt;Node3 -->
<g id="edge9" class="edge"><title>Node10&#45;&gt;Node3</title>
<path fill="none" stroke="#404040" d="M314.463,-278.224C312.157,-252.289 306.393,-213.031 292,-182 290.698,-179.193 289.189,-176.409 287.539,-173.681"/>
<polygon fill="none" stroke="#404040" points="287.369,-173.43 280.688,-170.718 280.622,-163.507 287.303,-166.22 287.369,-173.43"/>
<text text-anchor="middle" x="330" y="-196.5" font-family="Helvetica,sans-Serif" font-size="10.00"> +eventtime</text>
</g>
<!-- Node11 -->
<g id="node11" class="node"><title>Node11</title>
<polygon fill="none" stroke="#bfbfbf" points="366,-278.5 366,-335.5 412,-335.5 412,-278.5 366,-278.5"/>
<text text-anchor="middle" x="389" y="-323.5" font-family="Helvetica,sans-Serif" font-size="10.00">int32_t</text>
<polyline fill="none" stroke="#bfbfbf" points="366,-316.5 412,-316.5 "/>
<text text-anchor="middle" x="389" y="-304.5" font-family="Helvetica,sans-Serif" font-size="10.00"> </text>
<polyline fill="none" stroke="#bfbfbf" points="366,-297.5 412,-297.5 "/>
<text text-anchor="middle" x="389" y="-285.5" font-family="Helvetica,sans-Serif" font-size="10.00"> </text>
</g>
<!-- Node11&#45;&gt;Node3 -->
<g id="edge10" class="edge"><title>Node11&#45;&gt;Node3</title>
<path fill="none" stroke="#404040" d="M389.377,-278.495C388.329,-251.095 382.691,-209.281 360,-182 350.853,-171.003 338.565,-162.554 325.621,-156.091"/>
<polygon fill="none" stroke="#404040" points="325.578,-156.071 318.462,-157.237 314.649,-151.116 321.765,-149.951 325.578,-156.071"/>
<text text-anchor="middle" x="419" y="-207.5" font-family="Helvetica,sans-Serif" font-size="10.00"> +runID</text>
<text text-anchor="middle" x="419" y="-196.5" font-family="Helvetica,sans-Serif" font-size="10.00">+maxEvents</text>
<text text-anchor="middle" x="419" y="-185.5" font-family="Helvetica,sans-Serif" font-size="10.00">+npersistenttracks</text>
</g>
</g>
</svg>
        <g id="navigator" transform="translate(0 0)" fill="#404254">
                <rect fill="#f2f5e9" fill-opacity="0.5" stroke="#606060" stroke-width=".5" x="0" y="0" width="60" height="60"/>
                <use id="zoomplus" xlink:href="#zoomPlus" x="17" y="9" onmousedown="handleZoom(evt,'in')"/>
                <use id="zoomminus" xlink:href="#zoomMin" x="42" y="9" onmousedown="handleZoom(evt,'out')"/>
                <use id="reset" xlink:href="#resetDef" x="30" y="36" onmousedown="handleReset()"/>
                <g id="arrowUp" xlink:href="#dirArrow" transform="translate(30 24)" onmousedown="handlePan(0,-1)">
                  <use xlink:href="#rim" fill="#404040">
                        <set attributeName="fill" to="#808080" begin="arrowUp.mouseover" end="arrowUp.mouseout"/>
                  </use>
                  <path fill="none" stroke="white" stroke-width="1.5" d="M0,-3.0v7 M-2.5,-0.5L0,-3.0L2.5,-0.5"/>
                </g>
                <g id="arrowRight" xlink:href="#dirArrow" transform="rotate(90) translate(36 -43)" onmousedown="handlePan(1,0)">
                  <use xlink:href="#rim" fill="#404040">
                        <set attributeName="fill" to="#808080" begin="arrowRight.mouseover" end="arrowRight.mouseout"/>
                  </use>
                  <path fill="none" stroke="white" stroke-width="1.5" d="M0,-3.0v7 M-2.5,-0.5L0,-3.0L2.5,-0.5"/>
                </g>
                <g id="arrowDown" xlink:href="#dirArrow" transform="rotate(180) translate(-30 -48)" onmousedown="handlePan(0,1)">
                  <use xlink:href="#rim" fill="#404040">
                        <set attributeName="fill" to="#808080" begin="arrowDown.mouseover" end="arrowDown.mouseout"/>
                  </use>
                  <path fill="none" stroke="white" stroke-width="1.5" d="M0,-3.0v7 M-2.5,-0.5L0,-3.0L2.5,-0.5"/>
                </g>
                <g id="arrowLeft" xlink:href="#dirArrow" transform="rotate(270) translate(-36 17)" onmousedown="handlePan(-1,0)">
                  <use xlink:href="#rim" fill="#404040">
                        <set attributeName="fill" to="#808080" begin="arrowLeft.mouseover" end="arrowLeft.mouseout"/>
                  </use>
                  <path fill="none" stroke="white" stroke-width="1.5" d="M0,-3.0v7 M-2.5,-0.5L0,-3.0L2.5,-0.5"/>
                </g>
        </g>
        <svg viewBox="0 0 15 15" width="100%" height="30px" preserveAspectRatio="xMaxYMin meet">
         <g id="arrow_out" transform="scale(0.3 0.3)">
          <a xlink:href="structo2_1_1Data_1_1PrimaryChunk__coll__graph_org.svg" target="_base">
           <rect id="button" ry="5" rx="5" y="6" x="6" height="38" width="38"
                fill="#f2f5e9" fill-opacity="0.5" stroke="#606060" stroke-width="1.0"/>
           <path id="arrow"
             d="M 11.500037,31.436501 C 11.940474,20.09759 22.043105,11.32322 32.158766,21.979434 L 37.068811,17.246167 C 37.068811,17.246167 37.088388,32 37.088388,32 L 22.160133,31.978069 C 22.160133,31.978069 26.997745,27.140456 26.997745,27.140456 C 18.528582,18.264221 13.291696,25.230495 11.500037,31.436501 z"
             style="fill:#404040;"/>
          </a>
         </g>
        </svg>
</svg>
