<?xml version="1.0" encoding="UTF-8" standalone="no"?>
<!DOCTYPE svg PUBLIC "-//W3C//DTD SVG 1.1//EN"
 "http://www.w3.org/Graphics/SVG/1.1/DTD/svg11.dtd">
<!-- Generated by graphviz version 2.36.0 (20140111.2315)
 -->
<!-- Title: o2::conf::ConfigurableParamHelper&lt; P &gt; Pages: 1 -->
<svg width="821pt" height="794pt"
 viewBox="0.00 0.00 821.00 794.00" xmlns="http://www.w3.org/2000/svg" xmlns:xlink="http://www.w3.org/1999/xlink">
<g id="graph0" class="graph" transform="scale(1 1) rotate(0) translate(4 790)">
<title>o2::conf::ConfigurableParamHelper&lt; P &gt;</title>
<!-- Node1 -->
<g id="node1" class="node"><title>Node1</title>
<polygon fill="#bfbfbf" stroke="black" points="353.5,-302.5 353.5,-425.5 494.5,-425.5 494.5,-302.5 353.5,-302.5"/>
<text text-anchor="start" x="361.5" y="-413.5" font-family="Helvetica,sans-Serif" font-size="10.00">o2::conf::ConfigurableParam</text>
<text text-anchor="middle" x="424" y="-402.5" font-family="Helvetica,sans-Serif" font-size="10.00">Helper&lt; P &gt;</text>
<polyline fill="none" stroke="black" points="353.5,-395.5 494.5,-395.5 "/>
<text text-anchor="middle" x="424" y="-383.5" font-family="Helvetica,sans-Serif" font-size="10.00"> </text>
<polyline fill="none" stroke="black" points="353.5,-376.5 494.5,-376.5 "/>
<text text-anchor="start" x="361.5" y="-364.5" font-family="Helvetica,sans-Serif" font-size="10.00">+ getName()</text>
<text text-anchor="start" x="361.5" y="-353.5" font-family="Helvetica,sans-Serif" font-size="10.00">+ printKeyValues()</text>
<text text-anchor="start" x="361.5" y="-342.5" font-family="Helvetica,sans-Serif" font-size="10.00">+ putKeyValues()</text>
<text text-anchor="start" x="361.5" y="-331.5" font-family="Helvetica,sans-Serif" font-size="10.00">+ initFrom()</text>
<text text-anchor="start" x="361.5" y="-320.5" font-family="Helvetica,sans-Serif" font-size="10.00">+ serializeTo()</text>
<text text-anchor="start" x="361.5" y="-309.5" font-family="Helvetica,sans-Serif" font-size="10.00">+ Instance()</text>
</g>
<!-- Node3 -->
<g id="node3" class="node"><title>Node3</title>
<g id="a_node3"><a xlink:href="../../d7/d50/classo2_1_1conf_1_1ConfigurableParamHelper.html" target="_top" xlink:title="{o2::conf::ConfigurableParam\lHelper\&lt; InteractionDiamondParam \&gt;\n||+ getName()\l+ printKeyValues()\l+ putKeyValues()\l+ initFrom()\l+ serializeTo()\l+ Instance()\l}">
<polygon fill="none" stroke="black" points="0,-130.5 0,-253.5 176,-253.5 176,-130.5 0,-130.5"/>
<text text-anchor="start" x="8" y="-241.5" font-family="Helvetica,sans-Serif" font-size="10.00">o2::conf::ConfigurableParam</text>
<text text-anchor="middle" x="88" y="-230.5" font-family="Helvetica,sans-Serif" font-size="10.00">Helper&lt; InteractionDiamondParam &gt;</text>
<polyline fill="none" stroke="black" points="0,-223.5 176,-223.5 "/>
<text text-anchor="middle" x="88" y="-211.5" font-family="Helvetica,sans-Serif" font-size="10.00"> </text>
<polyline fill="none" stroke="black" points="0,-204.5 176,-204.5 "/>
<text text-anchor="start" x="8" y="-192.5" font-family="Helvetica,sans-Serif" font-size="10.00">+ getName()</text>
<text text-anchor="start" x="8" y="-181.5" font-family="Helvetica,sans-Serif" font-size="10.00">+ printKeyValues()</text>
<text text-anchor="start" x="8" y="-170.5" font-family="Helvetica,sans-Serif" font-size="10.00">+ putKeyValues()</text>
<text text-anchor="start" x="8" y="-159.5" font-family="Helvetica,sans-Serif" font-size="10.00">+ initFrom()</text>
<text text-anchor="start" x="8" y="-148.5" font-family="Helvetica,sans-Serif" font-size="10.00">+ serializeTo()</text>
<text text-anchor="start" x="8" y="-137.5" font-family="Helvetica,sans-Serif" font-size="10.00">+ Instance()</text>
</a>
</g>
</g>
<!-- Node1&#45;&gt;Node3 -->
<g id="edge2" class="edge"><title>Node1&#45;&gt;Node3</title>
<path fill="none" stroke="orange" d="M343.597,-341.713C299.881,-328.391 245.759,-308.991 201,-284 185.605,-275.405 170.18,-264.706 155.893,-253.697"/>
<polygon fill="orange" stroke="orange" points="342.744,-345.111 353.328,-344.63 344.755,-338.406 342.744,-345.111"/>
<text text-anchor="middle" x="268.5" y="-275.5" font-family="Helvetica,sans-Serif" font-size="10.00"> &lt; InteractionDiamondParam &gt;</text>
</g>
<!-- Node5 -->
<g id="node5" class="node"><title>Node5</title>
<g id="a_node5"><a xlink:href="../../d7/d50/classo2_1_1conf_1_1ConfigurableParamHelper.html" target="_top" xlink:title="{o2::conf::ConfigurableParam\lHelper\&lt; BazParam \&gt;\n||+ getName()\l+ printKeyValues()\l+ putKeyValues()\l+ initFrom()\l+ serializeTo()\l+ Instance()\l}">
<polygon fill="none" stroke="black" points="194.5,-130.5 194.5,-253.5 335.5,-253.5 335.5,-130.5 194.5,-130.5"/>
<text text-anchor="start" x="202.5" y="-241.5" font-family="Helvetica,sans-Serif" font-size="10.00">o2::conf::ConfigurableParam</text>
<text text-anchor="middle" x="265" y="-230.5" font-family="Helvetica,sans-Serif" font-size="10.00">Helper&lt; BazParam &gt;</text>
<polyline fill="none" stroke="black" points="194.5,-223.5 335.5,-223.5 "/>
<text text-anchor="middle" x="265" y="-211.5" font-family="Helvetica,sans-Serif" font-size="10.00"> </text>
<polyline fill="none" stroke="black" points="194.5,-204.5 335.5,-204.5 "/>
<text text-anchor="start" x="202.5" y="-192.5" font-family="Helvetica,sans-Serif" font-size="10.00">+ getName()</text>
<text text-anchor="start" x="202.5" y="-181.5" font-family="Helvetica,sans-Serif" font-size="10.00">+ printKeyValues()</text>
<text text-anchor="start" x="202.5" y="-170.5" font-family="Helvetica,sans-Serif" font-size="10.00">+ putKeyValues()</text>
<text text-anchor="start" x="202.5" y="-159.5" font-family="Helvetica,sans-Serif" font-size="10.00">+ initFrom()</text>
<text text-anchor="start" x="202.5" y="-148.5" font-family="Helvetica,sans-Serif" font-size="10.00">+ serializeTo()</text>
<text text-anchor="start" x="202.5" y="-137.5" font-family="Helvetica,sans-Serif" font-size="10.00">+ Instance()</text>
</a>
</g>
</g>
<!-- Node1&#45;&gt;Node5 -->
<g id="edge4" class="edge"><title>Node1&#45;&gt;Node5</title>
<path fill="none" stroke="orange" d="M360.081,-294.659C347.426,-281.128 334.223,-267.012 321.823,-253.754"/>
<polygon fill="orange" stroke="orange" points="357.659,-297.194 367.046,-302.106 362.772,-292.412 357.659,-297.194"/>
<text text-anchor="middle" x="383.5" y="-275.5" font-family="Helvetica,sans-Serif" font-size="10.00"> &lt; BazParam &gt;</text>
</g>
<!-- Node7 -->
<g id="node7" class="node"><title>Node7</title>
<g id="a_node7"><a xlink:href="../../d7/d50/classo2_1_1conf_1_1ConfigurableParamHelper.html" target="_top" xlink:title="{o2::conf::ConfigurableParam\lHelper\&lt; StackParam \&gt;\n||+ getName()\l+ printKeyValues()\l+ putKeyValues()\l+ initFrom()\l+ serializeTo()\l+ Instance()\l}">
<polygon fill="none" stroke="black" points="353.5,-130.5 353.5,-253.5 494.5,-253.5 494.5,-130.5 353.5,-130.5"/>
<text text-anchor="start" x="361.5" y="-241.5" font-family="Helvetica,sans-Serif" font-size="10.00">o2::conf::ConfigurableParam</text>
<text text-anchor="middle" x="424" y="-230.5" font-family="Helvetica,sans-Serif" font-size="10.00">Helper&lt; StackParam &gt;</text>
<polyline fill="none" stroke="black" points="353.5,-223.5 494.5,-223.5 "/>
<text text-anchor="middle" x="424" y="-211.5" font-family="Helvetica,sans-Serif" font-size="10.00"> </text>
<polyline fill="none" stroke="black" points="353.5,-204.5 494.5,-204.5 "/>
<text text-anchor="start" x="361.5" y="-192.5" font-family="Helvetica,sans-Serif" font-size="10.00">+ getName()</text>
<text text-anchor="start" x="361.5" y="-181.5" font-family="Helvetica,sans-Serif" font-size="10.00">+ printKeyValues()</text>
<text text-anchor="start" x="361.5" y="-170.5" font-family="Helvetica,sans-Serif" font-size="10.00">+ putKeyValues()</text>
<text text-anchor="start" x="361.5" y="-159.5" font-family="Helvetica,sans-Serif" font-size="10.00">+ initFrom()</text>
<text text-anchor="start" x="361.5" y="-148.5" font-family="Helvetica,sans-Serif" font-size="10.00">+ serializeTo()</text>
<text text-anchor="start" x="361.5" y="-137.5" font-family="Helvetica,sans-Serif" font-size="10.00">+ Instance()</text>
</a>
</g>
</g>
<!-- Node1&#45;&gt;Node7 -->
<g id="edge6" class="edge"><title>Node1&#45;&gt;Node7</title>
<path fill="none" stroke="orange" d="M424,-292.021C424,-279.302 424,-266.153 424,-253.754"/>
<polygon fill="orange" stroke="orange" points="420.5,-292.106 424,-302.106 427.5,-292.106 420.5,-292.106"/>
<text text-anchor="middle" x="462" y="-275.5" font-family="Helvetica,sans-Serif" font-size="10.00"> &lt; StackParam &gt;</text>
</g>
<!-- Node9 -->
<g id="node9" class="node"><title>Node9</title>
<g id="a_node9"><a xlink:href="../../d7/d50/classo2_1_1conf_1_1ConfigurableParamHelper.html" target="_top" xlink:title="{o2::conf::ConfigurableParam\lHelper\&lt; HallSimParam \&gt;\n||+ getName()\l+ printKeyValues()\l+ putKeyValues()\l+ initFrom()\l+ serializeTo()\l+ Instance()\l}">
<polygon fill="none" stroke="black" points="512.5,-130.5 512.5,-253.5 653.5,-253.5 653.5,-130.5 512.5,-130.5"/>
<text text-anchor="start" x="520.5" y="-241.5" font-family="Helvetica,sans-Serif" font-size="10.00">o2::conf::ConfigurableParam</text>
<text text-anchor="middle" x="583" y="-230.5" font-family="Helvetica,sans-Serif" font-size="10.00">Helper&lt; HallSimParam &gt;</text>
<polyline fill="none" stroke="black" points="512.5,-223.5 653.5,-223.5 "/>
<text text-anchor="middle" x="583" y="-211.5" font-family="Helvetica,sans-Serif" font-size="10.00"> </text>
<polyline fill="none" stroke="black" points="512.5,-204.5 653.5,-204.5 "/>
<text text-anchor="start" x="520.5" y="-192.5" font-family="Helvetica,sans-Serif" font-size="10.00">+ getName()</text>
<text text-anchor="start" x="520.5" y="-181.5" font-family="Helvetica,sans-Serif" font-size="10.00">+ printKeyValues()</text>
<text text-anchor="start" x="520.5" y="-170.5" font-family="Helvetica,sans-Serif" font-size="10.00">+ putKeyValues()</text>
<text text-anchor="start" x="520.5" y="-159.5" font-family="Helvetica,sans-Serif" font-size="10.00">+ initFrom()</text>
<text text-anchor="start" x="520.5" y="-148.5" font-family="Helvetica,sans-Serif" font-size="10.00">+ serializeTo()</text>
<text text-anchor="start" x="520.5" y="-137.5" font-family="Helvetica,sans-Serif" font-size="10.00">+ Instance()</text>
</a>
</g>
</g>
<!-- Node1&#45;&gt;Node9 -->
<g id="edge8" class="edge"><title>Node1&#45;&gt;Node9</title>
<path fill="none" stroke="orange" d="M493.733,-294.781C497.23,-291.159 500.67,-287.551 504,-284 513.016,-274.386 522.379,-263.992 531.372,-253.786"/>
<polygon fill="orange" stroke="orange" points="490.959,-292.612 486.49,-302.218 495.974,-297.495 490.959,-292.612"/>
<text text-anchor="middle" x="555.5" y="-275.5" font-family="Helvetica,sans-Serif" font-size="10.00"> &lt; HallSimParam &gt;</text>
</g>
<!-- Node11 -->
<g id="node11" class="node"><title>Node11</title>
<g id="a_node11"><a xlink:href="../../d7/d50/classo2_1_1conf_1_1ConfigurableParamHelper.html" target="_top" xlink:title="{o2::conf::ConfigurableParam\lHelper\&lt; SimCutParams \&gt;\n||+ getName()\l+ printKeyValues()\l+ putKeyValues()\l+ initFrom()\l+ serializeTo()\l+ Instance()\l}">
<polygon fill="none" stroke="black" points="671.5,-130.5 671.5,-253.5 812.5,-253.5 812.5,-130.5 671.5,-130.5"/>
<text text-anchor="start" x="679.5" y="-241.5" font-family="Helvetica,sans-Serif" font-size="10.00">o2::conf::ConfigurableParam</text>
<text text-anchor="middle" x="742" y="-230.5" font-family="Helvetica,sans-Serif" font-size="10.00">Helper&lt; SimCutParams &gt;</text>
<polyline fill="none" stroke="black" points="671.5,-223.5 812.5,-223.5 "/>
<text text-anchor="middle" x="742" y="-211.5" font-family="Helvetica,sans-Serif" font-size="10.00"> </text>
<polyline fill="none" stroke="black" points="671.5,-204.5 812.5,-204.5 "/>
<text text-anchor="start" x="679.5" y="-192.5" font-family="Helvetica,sans-Serif" font-size="10.00">+ getName()</text>
<text text-anchor="start" x="679.5" y="-181.5" font-family="Helvetica,sans-Serif" font-size="10.00">+ printKeyValues()</text>
<text text-anchor="start" x="679.5" y="-170.5" font-family="Helvetica,sans-Serif" font-size="10.00">+ putKeyValues()</text>
<text text-anchor="start" x="679.5" y="-159.5" font-family="Helvetica,sans-Serif" font-size="10.00">+ initFrom()</text>
<text text-anchor="start" x="679.5" y="-148.5" font-family="Helvetica,sans-Serif" font-size="10.00">+ serializeTo()</text>
<text text-anchor="start" x="679.5" y="-137.5" font-family="Helvetica,sans-Serif" font-size="10.00">+ Instance()</text>
</a>
</g>
</g>
<!-- Node1&#45;&gt;Node11 -->
<g id="edge10" class="edge"><title>Node1&#45;&gt;Node11</title>
<path fill="none" stroke="orange" d="M503.948,-332.425C551.422,-312.814 611.927,-285.223 662,-254 665.112,-252.059 668.252,-250.027 671.395,-247.93"/>
<polygon fill="orange" stroke="orange" points="502.562,-329.21 494.634,-336.239 505.215,-335.688 502.562,-329.21"/>
<text text-anchor="middle" x="676" y="-275.5" font-family="Helvetica,sans-Serif" font-size="10.00"> &lt; SimCutParams &gt;</text>
</g>
<!-- Node2 -->
<g id="node2" class="node"><title>Node2</title>
<g id="a_node2"><a xlink:href="../../d6/d14/classo2_1_1conf_1_1ConfigurableParam.html" target="_top" xlink:title="{o2::conf::ConfigurableParam\n|# sKeyToStorageMap\l# sValueProvenanceMap\l|+ getName()\l+ printKeyValues()\l+ toString()\l+ printAllRegisteredParamNames()\l+ printAllKeyValuePairs()\l+ writeJSON()\l+ writeINI()\l+ getValueAs()\l+ setValue()\l+ setValue()\l+ initialize()\l+ toCCDB()\l+ fromCCDB()\l+ updateFromString()\l# ConfigurableParam()\l# ~ConfigurableParam()\l# putKeyValues()\l# serializeTo()\l# initFrom()\l# setRegisterMode()\l# initPropertyTree()\l# updateThroughStorageMap()\l# updateThroughStorageMapWith\lConversion()\l}">
<polygon fill="none" stroke="black" points="339.5,-464.5 339.5,-785.5 508.5,-785.5 508.5,-464.5 339.5,-464.5"/>
<text text-anchor="middle" x="424" y="-773.5" font-family="Helvetica,sans-Serif" font-size="10.00">o2::conf::ConfigurableParam</text>
<polyline fill="none" stroke="black" points="339.5,-766.5 508.5,-766.5 "/>
<text text-anchor="start" x="347.5" y="-754.5" font-family="Helvetica,sans-Serif" font-size="10.00"># sKeyToStorageMap</text>
<text text-anchor="start" x="347.5" y="-743.5" font-family="Helvetica,sans-Serif" font-size="10.00"># sValueProvenanceMap</text>
<polyline fill="none" stroke="black" points="339.5,-736.5 508.5,-736.5 "/>
<text text-anchor="start" x="347.5" y="-724.5" font-family="Helvetica,sans-Serif" font-size="10.00">+ getName()</text>
<text text-anchor="start" x="347.5" y="-713.5" font-family="Helvetica,sans-Serif" font-size="10.00">+ printKeyValues()</text>
<text text-anchor="start" x="347.5" y="-702.5" font-family="Helvetica,sans-Serif" font-size="10.00">+ toString()</text>
<text text-anchor="start" x="347.5" y="-691.5" font-family="Helvetica,sans-Serif" font-size="10.00">+ printAllRegisteredParamNames()</text>
<text text-anchor="start" x="347.5" y="-680.5" font-family="Helvetica,sans-Serif" font-size="10.00">+ printAllKeyValuePairs()</text>
<text text-anchor="start" x="347.5" y="-669.5" font-family="Helvetica,sans-Serif" font-size="10.00">+ writeJSON()</text>
<text text-anchor="start" x="347.5" y="-658.5" font-family="Helvetica,sans-Serif" font-size="10.00">+ writeINI()</text>
<text text-anchor="start" x="347.5" y="-647.5" font-family="Helvetica,sans-Serif" font-size="10.00">+ getValueAs()</text>
<text text-anchor="start" x="347.5" y="-636.5" font-family="Helvetica,sans-Serif" font-size="10.00">+ setValue()</text>
<text text-anchor="start" x="347.5" y="-625.5" font-family="Helvetica,sans-Serif" font-size="10.00">+ setValue()</text>
<text text-anchor="start" x="347.5" y="-614.5" font-family="Helvetica,sans-Serif" font-size="10.00">+ initialize()</text>
<text text-anchor="start" x="347.5" y="-603.5" font-family="Helvetica,sans-Serif" font-size="10.00">+ toCCDB()</text>
<text text-anchor="start" x="347.5" y="-592.5" font-family="Helvetica,sans-Serif" font-size="10.00">+ fromCCDB()</text>
<text text-anchor="start" x="347.5" y="-581.5" font-family="Helvetica,sans-Serif" font-size="10.00">+ updateFromString()</text>
<text text-anchor="start" x="347.5" y="-570.5" font-family="Helvetica,sans-Serif" font-size="10.00"># ConfigurableParam()</text>
<text text-anchor="start" x="347.5" y="-559.5" font-family="Helvetica,sans-Serif" font-size="10.00"># ~ConfigurableParam()</text>
<text text-anchor="start" x="347.5" y="-548.5" font-family="Helvetica,sans-Serif" font-size="10.00"># putKeyValues()</text>
<text text-anchor="start" x="347.5" y="-537.5" font-family="Helvetica,sans-Serif" font-size="10.00"># serializeTo()</text>
<text text-anchor="start" x="347.5" y="-526.5" font-family="Helvetica,sans-Serif" font-size="10.00"># initFrom()</text>
<text text-anchor="start" x="347.5" y="-515.5" font-family="Helvetica,sans-Serif" font-size="10.00"># setRegisterMode()</text>
<text text-anchor="start" x="347.5" y="-504.5" font-family="Helvetica,sans-Serif" font-size="10.00"># initPropertyTree()</text>
<text text-anchor="start" x="347.5" y="-493.5" font-family="Helvetica,sans-Serif" font-size="10.00"># updateThroughStorageMap()</text>
<text text-anchor="start" x="347.5" y="-482.5" font-family="Helvetica,sans-Serif" font-size="10.00"># updateThroughStorageMapWith</text>
<text text-anchor="start" x="347.5" y="-471.5" font-family="Helvetica,sans-Serif" font-size="10.00">Conversion()</text>
</a>
</g>
</g>
<!-- Node2&#45;&gt;Node1 -->
<g id="edge1" class="edge"><title>Node2&#45;&gt;Node1</title>
<path fill="none" stroke="midnightblue" d="M424,-454.266C424,-444.246 424,-434.582 424,-425.55"/>
<polygon fill="none" stroke="midnightblue" points="420.5,-454.395 424,-464.395 427.5,-454.395 420.5,-454.395"/>
</g>
<!-- Node4 -->
<g id="node4" class="node"><title>Node4</title>
<g id="a_node4"><a xlink:href="../../d4/dcf/structo2_1_1eventgen_1_1InteractionDiamondParam.html" target="_top" xlink:title="{o2::eventgen::Interaction\lDiamondParam\n|+ position\l+ width\l|+ O2ParamDef()\l}">
<polygon fill="none" stroke="black" points="25.5,-6.5 25.5,-85.5 150.5,-85.5 150.5,-6.5 25.5,-6.5"/>
<text text-anchor="start" x="33.5" y="-73.5" font-family="Helvetica,sans-Serif" font-size="10.00">o2::eventgen::Interaction</text>
<text text-anchor="middle" x="88" y="-62.5" font-family="Helvetica,sans-Serif" font-size="10.00">DiamondParam</text>
<polyline fill="none" stroke="black" points="25.5,-55.5 150.5,-55.5 "/>
<text text-anchor="start" x="33.5" y="-43.5" font-family="Helvetica,sans-Serif" font-size="10.00">+ position</text>
<text text-anchor="start" x="33.5" y="-32.5" font-family="Helvetica,sans-Serif" font-size="10.00">+ width</text>
<polyline fill="none" stroke="black" points="25.5,-25.5 150.5,-25.5 "/>
<text text-anchor="start" x="33.5" y="-13.5" font-family="Helvetica,sans-Serif" font-size="10.00">+ O2ParamDef()</text>
</a>
</g>
</g>
<!-- Node3&#45;&gt;Node4 -->
<g id="edge3" class="edge"><title>Node3&#45;&gt;Node4</title>
<path fill="none" stroke="midnightblue" d="M88,-120.036C88,-108.254 88,-96.4347 88,-85.841"/>
<polygon fill="none" stroke="midnightblue" points="84.5001,-120.348 88,-130.348 91.5001,-120.348 84.5001,-120.348"/>
</g>
<!-- Node6 -->
<g id="node6" class="node"><title>Node6</title>
<g id="a_node6"><a xlink:href="../../df/d57/classBazParam.html" target="_top" xlink:title="{BazParam\n||+ getGasDensity()\l}">
<polygon fill="none" stroke="black" points="216.5,-17.5 216.5,-74.5 313.5,-74.5 313.5,-17.5 216.5,-17.5"/>
<text text-anchor="middle" x="265" y="-62.5" font-family="Helvetica,sans-Serif" font-size="10.00">BazParam</text>
<polyline fill="none" stroke="black" points="216.5,-55.5 313.5,-55.5 "/>
<text text-anchor="middle" x="265" y="-43.5" font-family="Helvetica,sans-Serif" font-size="10.00"> </text>
<polyline fill="none" stroke="black" points="216.5,-36.5 313.5,-36.5 "/>
<text text-anchor="start" x="224.5" y="-24.5" font-family="Helvetica,sans-Serif" font-size="10.00">+ getGasDensity()</text>
</a>
</g>
</g>
<!-- Node5&#45;&gt;Node6 -->
<g id="edge5" class="edge"><title>Node5&#45;&gt;Node6</title>
<path fill="none" stroke="midnightblue" d="M265,-120.291C265,-104.072 265,-87.7662 265,-74.6661"/>
<polygon fill="none" stroke="midnightblue" points="261.5,-120.348 265,-130.348 268.5,-120.348 261.5,-120.348"/>
</g>
<!-- Node8 -->
<g id="node8" class="node"><title>Node8</title>
<g id="a_node8"><a xlink:href="../../da/d0d/structo2_1_1sim_1_1StackParam.html" target="_top" xlink:title="{o2::sim::StackParam\n|+ storeSecondaries\l+ pruneKine\l|+ O2ParamDef()\l}">
<polygon fill="none" stroke="black" points="369.5,-12 369.5,-80 478.5,-80 478.5,-12 369.5,-12"/>
<text text-anchor="middle" x="424" y="-68" font-family="Helvetica,sans-Serif" font-size="10.00">o2::sim::StackParam</text>
<polyline fill="none" stroke="black" points="369.5,-61 478.5,-61 "/>
<text text-anchor="start" x="377.5" y="-49" font-family="Helvetica,sans-Serif" font-size="10.00">+ storeSecondaries</text>
<text text-anchor="start" x="377.5" y="-38" font-family="Helvetica,sans-Serif" font-size="10.00">+ pruneKine</text>
<polyline fill="none" stroke="black" points="369.5,-31 478.5,-31 "/>
<text text-anchor="start" x="377.5" y="-19" font-family="Helvetica,sans-Serif" font-size="10.00">+ O2ParamDef()</text>
</a>
</g>
</g>
<!-- Node7&#45;&gt;Node8 -->
<g id="edge7" class="edge"><title>Node7&#45;&gt;Node8</title>
<path fill="none" stroke="midnightblue" d="M424,-120.189C424,-106.18 424,-92.1111 424,-80.1043"/>
<polygon fill="none" stroke="midnightblue" points="420.5,-120.348 424,-130.348 427.5,-120.348 420.5,-120.348"/>
</g>
<!-- Node10 -->
<g id="node10" class="node"><title>Node10</title>
<g id="a_node10"><a xlink:href="../../da/d14/structo2_1_1passive_1_1HallSimParam.html" target="_top" xlink:title="{o2::passive::HallSimParam\n|+ mCUTGAM\l+ mCUTELE\l+ mCUTNEU\l+ mCUTHAD\l|+ O2ParamDef()\l}">
<polygon fill="none" stroke="black" points="515,-1 515,-91 651,-91 651,-1 515,-1"/>
<text text-anchor="middle" x="583" y="-79" font-family="Helvetica,sans-Serif" font-size="10.00">o2::passive::HallSimParam</text>
<polyline fill="none" stroke="black" points="515,-72 651,-72 "/>
<text text-anchor="start" x="523" y="-60" font-family="Helvetica,sans-Serif" font-size="10.00">+ mCUTGAM</text>
<text text-anchor="start" x="523" y="-49" font-family="Helvetica,sans-Serif" font-size="10.00">+ mCUTELE</text>
<text text-anchor="start" x="523" y="-38" font-family="Helvetica,sans-Serif" font-size="10.00">+ mCUTNEU</text>
<text text-anchor="start" x="523" y="-27" font-family="Helvetica,sans-Serif" font-size="10.00">+ mCUTHAD</text>
<polyline fill="none" stroke="black" points="515,-20 651,-20 "/>
<text text-anchor="start" x="523" y="-8" font-family="Helvetica,sans-Serif" font-size="10.00">+ O2ParamDef()</text>
</a>
</g>
</g>
<!-- Node9&#45;&gt;Node10 -->
<g id="edge9" class="edge"><title>Node9&#45;&gt;Node10</title>
<path fill="none" stroke="midnightblue" d="M583,-120.171C583,-110.365 583,-100.53 583,-91.3936"/>
<polygon fill="none" stroke="midnightblue" points="579.5,-120.348 583,-130.348 586.5,-120.348 579.5,-120.348"/>
</g>
<!-- Node12 -->
<g id="node12" class="node"><title>Node12</title>
<g id="a_node12"><a xlink:href="../../d7/d2f/structo2_1_1conf_1_1SimCutParams.html" target="_top" xlink:title="{o2::conf::SimCutParams\n|+ stepFiltering\l+ maxRTracking\l+ maxAbsZTracking\l|+ O2ParamDef()\l}">
<polygon fill="none" stroke="black" points="679.5,-6.5 679.5,-85.5 804.5,-85.5 804.5,-6.5 679.5,-6.5"/>
<text text-anchor="middle" x="742" y="-73.5" font-family="Helvetica,sans-Serif" font-size="10.00">o2::conf::SimCutParams</text>
<polyline fill="none" stroke="black" points="679.5,-66.5 804.5,-66.5 "/>
<text text-anchor="start" x="687.5" y="-54.5" font-family="Helvetica,sans-Serif" font-size="10.00">+ stepFiltering</text>
<text text-anchor="start" x="687.5" y="-43.5" font-family="Helvetica,sans-Serif" font-size="10.00">+ maxRTracking</text>
<text text-anchor="start" x="687.5" y="-32.5" font-family="Helvetica,sans-Serif" font-size="10.00">+ maxAbsZTracking</text>
<polyline fill="none" stroke="black" points="679.5,-25.5 804.5,-25.5 "/>
<text text-anchor="start" x="687.5" y="-13.5" font-family="Helvetica,sans-Serif" font-size="10.00">+ O2ParamDef()</text>
</a>
</g>
</g>
<!-- Node11&#45;&gt;Node12 -->
<g id="edge11" class="edge"><title>Node11&#45;&gt;Node12</title>
<path fill="none" stroke="midnightblue" d="M742,-120.036C742,-108.254 742,-96.4347 742,-85.841"/>
<polygon fill="none" stroke="midnightblue" points="738.5,-120.348 742,-130.348 745.5,-120.348 738.5,-120.348"/>
</g>
</g>
</svg>
