<?xml version="1.0" encoding="UTF-8" standalone="no"?>
<!DOCTYPE svg PUBLIC "-//W3C//DTD SVG 1.1//EN"
 "http://www.w3.org/Graphics/SVG/1.1/DTD/svg11.dtd">
<!-- Generated by graphviz version 2.36.0 (20140111.2315)
 -->
<!-- Title: /home/travis/build/AliceO2Group/AliceO2/Detectors/MUON/MID/Clustering/test/testClusterizer.cxx Pages: 1 -->
<svg width="1274pt" height="366pt"
 viewBox="0.00 0.00 1274.00 366.00" xmlns="http://www.w3.org/2000/svg" xmlns:xlink="http://www.w3.org/1999/xlink">
<g id="graph0" class="graph" transform="scale(1 1) rotate(0) translate(4 362)">
<title>/home/travis/build/AliceO2Group/AliceO2/Detectors/MUON/MID/Clustering/test/testClusterizer.cxx</title>
<!-- Node1 -->
<g id="node1" class="node"><title>Node1</title>
<polygon fill="#bfbfbf" stroke="black" points="622.5,-305 622.5,-357 787.5,-357 787.5,-305 622.5,-305"/>
<text text-anchor="start" x="630.5" y="-345" font-family="Helvetica,sans-Serif" font-size="10.00">/home/travis/build</text>
<text text-anchor="start" x="630.5" y="-334" font-family="Helvetica,sans-Serif" font-size="10.00">/AliceO2Group/AliceO2</text>
<text text-anchor="start" x="630.5" y="-323" font-family="Helvetica,sans-Serif" font-size="10.00">/Detectors/MUON/MID/Clustering</text>
<text text-anchor="middle" x="705" y="-312" font-family="Helvetica,sans-Serif" font-size="10.00">/test/testClusterizer.cxx</text>
</g>
<!-- Node2 -->
<g id="node2" class="node"><title>Node2</title>
<polygon fill="none" stroke="#bfbfbf" points="-0.5,-242.5 -0.5,-261.5 118.5,-261.5 118.5,-242.5 -0.5,-242.5"/>
<text text-anchor="middle" x="59" y="-249.5" font-family="Helvetica,sans-Serif" font-size="10.00">boost/test/unit_test.hpp</text>
</g>
<!-- Node1&#45;&gt;Node2 -->
<g id="edge1" class="edge"><title>Node1&#45;&gt;Node2</title>
<path fill="none" stroke="midnightblue" d="M622.456,-323.925C510.123,-315.021 303.04,-296.347 128,-268 120.427,-266.774 112.434,-265.251 104.678,-263.649"/>
<polygon fill="midnightblue" stroke="midnightblue" points="105.184,-260.178 94.6737,-261.517 103.724,-267.025 105.184,-260.178"/>
</g>
<!-- Node3 -->
<g id="node3" class="node"><title>Node3</title>
<polygon fill="none" stroke="#bfbfbf" points="137,-242.5 137,-261.5 299,-261.5 299,-242.5 137,-242.5"/>
<text text-anchor="middle" x="218" y="-249.5" font-family="Helvetica,sans-Serif" font-size="10.00">boost/test/data/monomorphic.hpp</text>
</g>
<!-- Node1&#45;&gt;Node3 -->
<g id="edge2" class="edge"><title>Node1&#45;&gt;Node3</title>
<path fill="none" stroke="midnightblue" d="M622.463,-317.362C542.136,-305.003 416.639,-285.536 308,-268 298.483,-266.464 288.404,-264.81 278.569,-263.182"/>
<polygon fill="midnightblue" stroke="midnightblue" points="278.88,-259.686 268.441,-261.5 277.733,-266.591 278.88,-259.686"/>
</g>
<!-- Node4 -->
<g id="node4" class="node"><title>Node4</title>
<polygon fill="none" stroke="#bfbfbf" points="317.5,-237 317.5,-267 460.5,-267 460.5,-237 317.5,-237"/>
<text text-anchor="start" x="325.5" y="-255" font-family="Helvetica,sans-Serif" font-size="10.00">boost/test/data/monomorphic</text>
<text text-anchor="middle" x="389" y="-244" font-family="Helvetica,sans-Serif" font-size="10.00">/generators/xrange.hpp</text>
</g>
<!-- Node1&#45;&gt;Node4 -->
<g id="edge3" class="edge"><title>Node1&#45;&gt;Node4</title>
<path fill="none" stroke="midnightblue" d="M622.387,-309.87C570.721,-297.28 505.007,-281.268 456.482,-269.443"/>
<polygon fill="midnightblue" stroke="midnightblue" points="457.252,-266.029 446.708,-267.062 455.595,-272.83 457.252,-266.029"/>
</g>
<!-- Node5 -->
<g id="node5" class="node"><title>Node5</title>
<polygon fill="none" stroke="#bfbfbf" points="478.5,-237 478.5,-267 579.5,-267 579.5,-237 478.5,-237"/>
<text text-anchor="start" x="486.5" y="-255" font-family="Helvetica,sans-Serif" font-size="10.00">boost/test/data/test</text>
<text text-anchor="middle" x="529" y="-244" font-family="Helvetica,sans-Serif" font-size="10.00">_case.hpp</text>
</g>
<!-- Node1&#45;&gt;Node5 -->
<g id="edge4" class="edge"><title>Node1&#45;&gt;Node5</title>
<path fill="none" stroke="midnightblue" d="M647.371,-304.787C622.283,-293.811 593.441,-281.193 570.508,-271.16"/>
<polygon fill="midnightblue" stroke="midnightblue" points="571.635,-267.832 561.07,-267.031 568.829,-274.245 571.635,-267.832"/>
</g>
<!-- Node6 -->
<g id="node6" class="node"><title>Node6</title>
<polygon fill="none" stroke="#bfbfbf" points="350,-118.5 350,-137.5 396,-137.5 396,-118.5 350,-118.5"/>
<text text-anchor="middle" x="373" y="-125.5" font-family="Helvetica,sans-Serif" font-size="10.00">cstdint</text>
</g>
<!-- Node1&#45;&gt;Node6 -->
<g id="edge5" class="edge"><title>Node1&#45;&gt;Node6</title>
<path fill="none" stroke="midnightblue" d="M673.033,-304.772C658.886,-293.562 642.073,-280.173 627,-268 609.557,-253.913 608.549,-244.97 588,-236 533.937,-212.401 363.78,-244.45 325,-200 309.237,-181.932 332.34,-158.476 351.624,-143.576"/>
<polygon fill="midnightblue" stroke="midnightblue" points="353.812,-146.312 359.796,-137.568 349.666,-140.672 353.812,-146.312"/>
</g>
<!-- Node7 -->
<g id="node7" class="node"><title>Node7</title>
<polygon fill="none" stroke="#bfbfbf" points="1056,-242.5 1056,-261.5 1110,-261.5 1110,-242.5 1056,-242.5"/>
<text text-anchor="middle" x="1083" y="-249.5" font-family="Helvetica,sans-Serif" font-size="10.00">iostream</text>
</g>
<!-- Node1&#45;&gt;Node7 -->
<g id="edge6" class="edge"><title>Node1&#45;&gt;Node7</title>
<path fill="none" stroke="midnightblue" d="M787.588,-318.787C856.354,-308.505 956.487,-291.329 1042,-268 1045.22,-267.122 1048.54,-266.103 1051.84,-265.017"/>
<polygon fill="midnightblue" stroke="midnightblue" points="1053.23,-268.237 1061.52,-261.633 1050.92,-261.629 1053.23,-268.237"/>
</g>
<!-- Node8 -->
<g id="node8" class="node"><title>Node8</title>
<polygon fill="none" stroke="#bfbfbf" points="903,-56.5 903,-75.5 947,-75.5 947,-56.5 903,-56.5"/>
<text text-anchor="middle" x="925" y="-63.5" font-family="Helvetica,sans-Serif" font-size="10.00">vector</text>
</g>
<!-- Node1&#45;&gt;Node8 -->
<g id="edge7" class="edge"><title>Node1&#45;&gt;Node8</title>
<path fill="none" stroke="midnightblue" d="M787.816,-327.188C871.671,-319.121 995.064,-291.414 1039,-200 1051.24,-174.53 1033.21,-128.693 1019,-112 1003.05,-93.2596 977.511,-81.7299 957.077,-75.039"/>
<polygon fill="midnightblue" stroke="midnightblue" points="957.814,-71.6049 947.228,-72.0506 955.781,-78.3034 957.814,-71.6049"/>
</g>
<!-- Node9 -->
<g id="node9" class="node"><title>Node9</title>
<polygon fill="none" stroke="#bfbfbf" points="1128.5,-242.5 1128.5,-261.5 1177.5,-261.5 1177.5,-242.5 1128.5,-242.5"/>
<text text-anchor="middle" x="1153" y="-249.5" font-family="Helvetica,sans-Serif" font-size="10.00">random</text>
</g>
<!-- Node1&#45;&gt;Node9 -->
<g id="edge8" class="edge"><title>Node1&#45;&gt;Node9</title>
<path fill="none" stroke="midnightblue" d="M787.687,-324.143C872.261,-316.645 1006.79,-300.519 1119,-268 1121.49,-267.277 1124.04,-266.411 1126.57,-265.464"/>
<polygon fill="midnightblue" stroke="midnightblue" points="1128.14,-268.605 1136.04,-261.547 1125.46,-262.137 1128.14,-268.605"/>
</g>
<!-- Node10 -->
<g id="node10" class="node"><title>Node10</title>
<g id="a_node10"><a xlink:href="../../d7/d1a/PreClusterizer_8h.html" target="_top" xlink:title="Pre&#45;Cluster reconstruction algorithm for MID. ">
<polygon fill="none" stroke="black" points="792.5,-242.5 792.5,-261.5 945.5,-261.5 945.5,-242.5 792.5,-242.5"/>
<text text-anchor="middle" x="869" y="-249.5" font-family="Helvetica,sans-Serif" font-size="10.00">MIDClustering/PreClusterizer.h</text>
</a>
</g>
</g>
<!-- Node1&#45;&gt;Node10 -->
<g id="edge9" class="edge"><title>Node1&#45;&gt;Node10</title>
<path fill="none" stroke="midnightblue" d="M758.7,-304.787C786.367,-291.797 818.934,-276.507 841.474,-265.924"/>
<polygon fill="midnightblue" stroke="midnightblue" points="843.209,-268.976 850.773,-261.558 840.234,-262.64 843.209,-268.976"/>
</g>
<!-- Node20 -->
<g id="node20" class="node"><title>Node20</title>
<g id="a_node20"><a xlink:href="../../d5/d53/Clusterizer_8h.html" target="_top" xlink:title="Cluster reconstruction algorithm for MID. ">
<polygon fill="none" stroke="black" points="636,-242.5 636,-261.5 774,-261.5 774,-242.5 636,-242.5"/>
<text text-anchor="middle" x="705" y="-249.5" font-family="Helvetica,sans-Serif" font-size="10.00">MIDClustering/Clusterizer.h</text>
</a>
</g>
</g>
<!-- Node1&#45;&gt;Node20 -->
<g id="edge28" class="edge"><title>Node1&#45;&gt;Node20</title>
<path fill="none" stroke="midnightblue" d="M705,-304.787C705,-294.069 705,-281.785 705,-271.871"/>
<polygon fill="midnightblue" stroke="midnightblue" points="708.5,-271.558 705,-261.558 701.5,-271.558 708.5,-271.558"/>
</g>
<!-- Node21 -->
<g id="node21" class="node"><title>Node21</title>
<polygon fill="none" stroke="#bfbfbf" points="1195.5,-242.5 1195.5,-261.5 1266.5,-261.5 1266.5,-242.5 1195.5,-242.5"/>
<text text-anchor="middle" x="1231" y="-249.5" font-family="Helvetica,sans-Serif" font-size="10.00">FairLogger.h</text>
</g>
<!-- Node1&#45;&gt;Node21 -->
<g id="edge35" class="edge"><title>Node1&#45;&gt;Node21</title>
<path fill="none" stroke="midnightblue" d="M787.555,-324.244C884.053,-316.395 1048.11,-299.555 1186,-268 1189.95,-267.096 1194.05,-265.985 1198.08,-264.78"/>
<polygon fill="midnightblue" stroke="midnightblue" points="1199.42,-268.027 1207.89,-261.656 1197.3,-261.357 1199.42,-268.027"/>
</g>
<!-- Node10&#45;&gt;Node8 -->
<g id="edge11" class="edge"><title>Node10&#45;&gt;Node8</title>
<path fill="none" stroke="midnightblue" d="M945.555,-244.169C974.325,-237.441 1004.32,-224.531 1022,-200 1053.35,-156.506 986.66,-105.334 948.787,-81.0949"/>
<polygon fill="midnightblue" stroke="midnightblue" points="950.195,-77.8486 939.856,-75.5337 946.495,-83.7907 950.195,-77.8486"/>
</g>
<!-- Node11 -->
<g id="node11" class="node"><title>Node11</title>
<polygon fill="none" stroke="#bfbfbf" points="752.5,-180.5 752.5,-199.5 835.5,-199.5 835.5,-180.5 752.5,-180.5"/>
<text text-anchor="middle" x="794" y="-187.5" font-family="Helvetica,sans-Serif" font-size="10.00">unordered_map</text>
</g>
<!-- Node10&#45;&gt;Node11 -->
<g id="edge10" class="edge"><title>Node10&#45;&gt;Node11</title>
<path fill="none" stroke="midnightblue" d="M858.254,-242.403C846.447,-232.958 827.257,-217.606 812.918,-206.134"/>
<polygon fill="midnightblue" stroke="midnightblue" points="814.721,-203.095 804.726,-199.581 810.348,-208.561 814.721,-203.095"/>
</g>
<!-- Node12 -->
<g id="node12" class="node"><title>Node12</title>
<g id="a_node12"><a xlink:href="../../d4/d73/MID_2Base_2include_2MIDBase_2Mapping_8h.html" target="_top" xlink:title="Mapping for MID. ">
<polygon fill="none" stroke="black" points="680,-118.5 680,-137.5 786,-137.5 786,-118.5 680,-118.5"/>
<text text-anchor="middle" x="733" y="-125.5" font-family="Helvetica,sans-Serif" font-size="10.00">MIDBase/Mapping.h</text>
</a>
</g>
</g>
<!-- Node10&#45;&gt;Node12 -->
<g id="edge12" class="edge"><title>Node10&#45;&gt;Node12</title>
<path fill="none" stroke="midnightblue" d="M923.056,-242.464C971.912,-232.451 1032.3,-212.896 1005,-180 979.008,-148.682 868.292,-136.48 796.375,-131.808"/>
<polygon fill="midnightblue" stroke="midnightblue" points="796.257,-128.294 786.06,-131.172 795.826,-135.281 796.257,-128.294"/>
</g>
<!-- Node15 -->
<g id="node15" class="node"><title>Node15</title>
<g id="a_node15"><a xlink:href="../../d6/d31/Cluster2D_8h.html" target="_top" xlink:title="Reconstructed cluster per RPC. ">
<polygon fill="none" stroke="black" points="334,-180.5 334,-199.5 482,-199.5 482,-180.5 334,-180.5"/>
<text text-anchor="middle" x="408" y="-187.5" font-family="Helvetica,sans-Serif" font-size="10.00">DataFormatsMID/Cluster2D.h</text>
</a>
</g>
</g>
<!-- Node10&#45;&gt;Node15 -->
<g id="edge17" class="edge"><title>Node10&#45;&gt;Node15</title>
<path fill="none" stroke="midnightblue" d="M822.655,-242.451C809.832,-240.212 795.895,-237.897 783,-236 728.701,-228.012 585.067,-211.229 492.149,-200.569"/>
<polygon fill="midnightblue" stroke="midnightblue" points="492.535,-197.09 482.201,-199.429 491.738,-204.045 492.535,-197.09"/>
</g>
<!-- Node17 -->
<g id="node17" class="node"><title>Node17</title>
<g id="a_node17"><a xlink:href="../../d3/d53/ColumnData_8h.html" target="_top" xlink:title="Strip pattern (aka digits) ">
<polygon fill="none" stroke="black" points="500,-180.5 500,-199.5 658,-199.5 658,-180.5 500,-180.5"/>
<text text-anchor="middle" x="579" y="-187.5" font-family="Helvetica,sans-Serif" font-size="10.00">DataFormatsMID/ColumnData.h</text>
</a>
</g>
</g>
<!-- Node10&#45;&gt;Node17 -->
<g id="edge20" class="edge"><title>Node10&#45;&gt;Node17</title>
<path fill="none" stroke="midnightblue" d="M827.758,-242.467C775.792,-231.716 686.489,-213.239 630.208,-201.595"/>
<polygon fill="midnightblue" stroke="midnightblue" points="630.601,-198.102 620.1,-199.503 629.183,-204.957 630.601,-198.102"/>
</g>
<!-- Node19 -->
<g id="node19" class="node"><title>Node19</title>
<g id="a_node19"><a xlink:href="../../d8/d04/PreClusters_8h.html" target="_top" xlink:title="Pre&#45;clusters structure for MID. ">
<polygon fill="none" stroke="black" points="853.5,-180.5 853.5,-199.5 996.5,-199.5 996.5,-180.5 853.5,-180.5"/>
<text text-anchor="middle" x="925" y="-187.5" font-family="Helvetica,sans-Serif" font-size="10.00">MIDClustering/PreClusters.h</text>
</a>
</g>
</g>
<!-- Node10&#45;&gt;Node19 -->
<g id="edge25" class="edge"><title>Node10&#45;&gt;Node19</title>
<path fill="none" stroke="midnightblue" d="M877.023,-242.403C885.59,-233.225 899.361,-218.47 909.957,-207.117"/>
<polygon fill="midnightblue" stroke="midnightblue" points="912.727,-209.279 916.991,-199.581 907.61,-204.503 912.727,-209.279"/>
</g>
<!-- Node12&#45;&gt;Node8 -->
<g id="edge14" class="edge"><title>Node12&#45;&gt;Node8</title>
<path fill="none" stroke="midnightblue" d="M760.509,-118.403C795.577,-107.445 856.089,-88.5346 893.129,-76.9595"/>
<polygon fill="midnightblue" stroke="midnightblue" points="894.413,-80.2255 902.914,-73.902 892.325,-73.5441 894.413,-80.2255"/>
</g>
<!-- Node13 -->
<g id="node13" class="node"><title>Node13</title>
<polygon fill="none" stroke="#bfbfbf" points="634,-0.5 634,-19.5 672,-19.5 672,-0.5 634,-0.5"/>
<text text-anchor="middle" x="653" y="-7.5" font-family="Helvetica,sans-Serif" font-size="10.00">array</text>
</g>
<!-- Node12&#45;&gt;Node13 -->
<g id="edge13" class="edge"><title>Node12&#45;&gt;Node13</title>
<path fill="none" stroke="midnightblue" d="M718.835,-118.402C705.206,-109.431 684.956,-94.1538 673,-76 663.766,-61.9797 658.62,-43.4818 655.869,-29.8053"/>
<polygon fill="midnightblue" stroke="midnightblue" points="659.263,-28.8981 654.085,-19.6552 652.369,-30.1102 659.263,-28.8981"/>
</g>
<!-- Node14 -->
<g id="node14" class="node"><title>Node14</title>
<g id="a_node14"><a xlink:href="../../d7/d0a/MpArea_8h.html" target="_top" xlink:title="Mapping area for MID. ">
<polygon fill="none" stroke="black" points="681.5,-56.5 681.5,-75.5 784.5,-75.5 784.5,-56.5 681.5,-56.5"/>
<text text-anchor="middle" x="733" y="-63.5" font-family="Helvetica,sans-Serif" font-size="10.00">MIDBase/MpArea.h</text>
</a>
</g>
</g>
<!-- Node12&#45;&gt;Node14 -->
<g id="edge15" class="edge"><title>Node12&#45;&gt;Node14</title>
<path fill="none" stroke="midnightblue" d="M733,-118.403C733,-109.938 733,-96.7283 733,-85.8199"/>
<polygon fill="midnightblue" stroke="midnightblue" points="736.5,-85.5806 733,-75.5806 729.5,-85.5806 736.5,-85.5806"/>
</g>
<!-- Node14&#45;&gt;Node13 -->
<g id="edge16" class="edge"><title>Node14&#45;&gt;Node13</title>
<path fill="none" stroke="midnightblue" d="M720.147,-56.324C707.784,-47.979 688.87,-35.2122 674.263,-25.3524"/>
<polygon fill="midnightblue" stroke="midnightblue" points="676.068,-22.3483 665.821,-19.6545 672.152,-28.1503 676.068,-22.3483"/>
</g>
<!-- Node15&#45;&gt;Node6 -->
<g id="edge19" class="edge"><title>Node15&#45;&gt;Node6</title>
<path fill="none" stroke="midnightblue" d="M402.985,-180.403C397.839,-171.582 389.688,-157.608 383.182,-146.455"/>
<polygon fill="midnightblue" stroke="midnightblue" points="386.067,-144.455 378.005,-137.581 380.021,-147.982 386.067,-144.455"/>
</g>
<!-- Node16 -->
<g id="node16" class="node"><title>Node16</title>
<polygon fill="none" stroke="#bfbfbf" points="414.5,-113 414.5,-143 509.5,-143 509.5,-113 414.5,-113"/>
<text text-anchor="start" x="422.5" y="-131" font-family="Helvetica,sans-Serif" font-size="10.00">boost/serialization</text>
<text text-anchor="middle" x="462" y="-120" font-family="Helvetica,sans-Serif" font-size="10.00">/access.hpp</text>
</g>
<!-- Node15&#45;&gt;Node16 -->
<g id="edge18" class="edge"><title>Node15&#45;&gt;Node16</title>
<path fill="none" stroke="midnightblue" d="M415.737,-180.403C422.709,-172.657 433.256,-160.938 442.52,-150.645"/>
<polygon fill="midnightblue" stroke="midnightblue" points="445.185,-152.915 449.273,-143.141 439.982,-148.232 445.185,-152.915"/>
</g>
<!-- Node17&#45;&gt;Node6 -->
<g id="edge23" class="edge"><title>Node17&#45;&gt;Node6</title>
<path fill="none" stroke="midnightblue" d="M537.214,-180.479C501.552,-172.668 449.181,-159.913 405,-144 403.095,-143.314 401.149,-142.555 399.205,-141.755"/>
<polygon fill="midnightblue" stroke="midnightblue" points="400.253,-138.391 389.693,-137.537 397.416,-144.79 400.253,-138.391"/>
</g>
<!-- Node17&#45;&gt;Node13 -->
<g id="edge24" class="edge"><title>Node17&#45;&gt;Node13</title>
<path fill="none" stroke="midnightblue" d="M573.018,-180.251C563.892,-165.75 548.503,-135.959 558,-112 572.788,-74.6944 608.6,-43.1463 631.785,-25.6764"/>
<polygon fill="midnightblue" stroke="midnightblue" points="633.972,-28.413 639.982,-19.6876 629.843,-22.7607 633.972,-28.413"/>
</g>
<!-- Node17&#45;&gt;Node16 -->
<g id="edge21" class="edge"><title>Node17&#45;&gt;Node16</title>
<path fill="none" stroke="midnightblue" d="M562.237,-180.403C545.724,-171.936 519.955,-158.72 498.68,-147.81"/>
<polygon fill="midnightblue" stroke="midnightblue" points="500.07,-144.59 489.575,-143.141 496.876,-150.818 500.07,-144.59"/>
</g>
<!-- Node18 -->
<g id="node18" class="node"><title>Node18</title>
<polygon fill="none" stroke="#bfbfbf" points="566.5,-113 566.5,-143 661.5,-143 661.5,-113 566.5,-113"/>
<text text-anchor="start" x="574.5" y="-131" font-family="Helvetica,sans-Serif" font-size="10.00">boost/serialization</text>
<text text-anchor="middle" x="614" y="-120" font-family="Helvetica,sans-Serif" font-size="10.00">/array.hpp</text>
</g>
<!-- Node17&#45;&gt;Node18 -->
<g id="edge22" class="edge"><title>Node17&#45;&gt;Node18</title>
<path fill="none" stroke="midnightblue" d="M584.015,-180.403C588.356,-172.961 594.837,-161.851 600.664,-151.862"/>
<polygon fill="midnightblue" stroke="midnightblue" points="603.736,-153.542 605.751,-143.141 597.689,-150.015 603.736,-153.542"/>
</g>
<!-- Node19&#45;&gt;Node8 -->
<g id="edge26" class="edge"><title>Node19&#45;&gt;Node8</title>
<path fill="none" stroke="midnightblue" d="M925,-180.226C925,-160.53 925,-112.437 925,-85.7004"/>
<polygon fill="midnightblue" stroke="midnightblue" points="928.5,-85.6944 925,-75.6944 921.5,-85.6945 928.5,-85.6944"/>
</g>
<!-- Node19&#45;&gt;Node12 -->
<g id="edge27" class="edge"><title>Node19&#45;&gt;Node12</title>
<path fill="none" stroke="midnightblue" d="M897.491,-180.403C864.129,-169.978 807.738,-152.356 770.437,-140.699"/>
<polygon fill="midnightblue" stroke="midnightblue" points="771.047,-137.223 760.458,-137.581 768.959,-143.904 771.047,-137.223"/>
</g>
<!-- Node20&#45;&gt;Node8 -->
<g id="edge30" class="edge"><title>Node20&#45;&gt;Node8</title>
<path fill="none" stroke="midnightblue" d="M708.122,-242.241C713.583,-227.874 726.027,-199.005 744,-180 756.442,-166.843 855.468,-107.864 901.556,-80.7342"/>
<polygon fill="midnightblue" stroke="midnightblue" points="903.434,-83.6902 910.282,-75.6059 899.888,-77.6552 903.434,-83.6902"/>
</g>
<!-- Node20&#45;&gt;Node11 -->
<g id="edge29" class="edge"><title>Node20&#45;&gt;Node11</title>
<path fill="none" stroke="midnightblue" d="M717.752,-242.403C732.027,-232.78 755.397,-217.024 772.508,-205.489"/>
<polygon fill="midnightblue" stroke="midnightblue" points="774.937,-208.073 781.272,-199.581 771.024,-202.268 774.937,-208.073"/>
</g>
<!-- Node20&#45;&gt;Node12 -->
<g id="edge31" class="edge"><title>Node20&#45;&gt;Node12</title>
<path fill="none" stroke="midnightblue" d="M704.634,-242.099C704.294,-228.493 704.502,-201.807 710,-180 712.926,-168.397 718.362,-156.149 723.216,-146.566"/>
<polygon fill="midnightblue" stroke="midnightblue" points="726.335,-148.155 727.932,-137.681 720.152,-144.873 726.335,-148.155"/>
</g>
<!-- Node20&#45;&gt;Node15 -->
<g id="edge32" class="edge"><title>Node20&#45;&gt;Node15</title>
<path fill="none" stroke="midnightblue" d="M662.763,-242.467C609.432,-231.693 517.704,-213.162 460.086,-201.522"/>
<polygon fill="midnightblue" stroke="midnightblue" points="460.587,-198.053 450.092,-199.503 459.201,-204.914 460.587,-198.053"/>
</g>
<!-- Node20&#45;&gt;Node17 -->
<g id="edge33" class="edge"><title>Node20&#45;&gt;Node17</title>
<path fill="none" stroke="midnightblue" d="M686.947,-242.403C665.802,-232.334 630.56,-215.552 606.122,-203.915"/>
<polygon fill="midnightblue" stroke="midnightblue" points="607.553,-200.72 597.019,-199.581 604.543,-207.04 607.553,-200.72"/>
</g>
<!-- Node20&#45;&gt;Node19 -->
<g id="edge34" class="edge"><title>Node20&#45;&gt;Node19</title>
<path fill="none" stroke="midnightblue" d="M736.521,-242.403C775.239,-231.844 841.024,-213.903 883.736,-202.254"/>
<polygon fill="midnightblue" stroke="midnightblue" points="884.811,-205.589 893.538,-199.581 882.969,-198.835 884.811,-205.589"/>
</g>
</g>
</svg>
