<?xml version="1.0" encoding="UTF-8" standalone="no"?>
<!DOCTYPE svg PUBLIC "-//W3C//DTD SVG 1.1//EN"
 "http://www.w3.org/Graphics/SVG/1.1/DTD/svg11.dtd">
<!-- Generated by graphviz version 2.36.0 (20140111.2315)
 -->
<!-- Title: /home/travis/build/AliceO2Group/AliceO2/Detectors/ITSMFT/common/reconstruction/include/ITSMFTReconstruction/RawPixelReader.h Pages: 1 -->
<svg width="1491pt" height="320pt"
 viewBox="0.00 0.00 1491.00 320.00" xmlns="http://www.w3.org/2000/svg" xmlns:xlink="http://www.w3.org/1999/xlink">
<g id="graph0" class="graph" transform="scale(1 1) rotate(0) translate(4 316)">
<title>/home/travis/build/AliceO2Group/AliceO2/Detectors/ITSMFT/common/reconstruction/include/ITSMFTReconstruction/RawPixelReader.h</title>
<!-- Node1 -->
<g id="node1" class="node"><title>Node1</title>
<polygon fill="#bfbfbf" stroke="black" points="796,-248.5 796,-311.5 1002,-311.5 1002,-248.5 796,-248.5"/>
<text text-anchor="start" x="804" y="-299.5" font-family="Helvetica,sans-Serif" font-size="10.00">/home/travis/build</text>
<text text-anchor="start" x="804" y="-288.5" font-family="Helvetica,sans-Serif" font-size="10.00">/AliceO2Group/AliceO2</text>
<text text-anchor="start" x="804" y="-277.5" font-family="Helvetica,sans-Serif" font-size="10.00">/Detectors/ITSMFT/common</text>
<text text-anchor="start" x="804" y="-266.5" font-family="Helvetica,sans-Serif" font-size="10.00">/reconstruction/include</text>
<text text-anchor="middle" x="899" y="-255.5" font-family="Helvetica,sans-Serif" font-size="10.00">/ITSMFTReconstruction/RawPixelReader.h</text>
</g>
<!-- Node2 -->
<g id="node2" class="node"><title>Node2</title>
<g id="a_node2"><a xlink:href="../../df/d2e/PixelReader_8h.html" target="_top" xlink:title="Abstract class for Alpide data reader class. ">
<polygon fill="none" stroke="black" points="398.5,-181 398.5,-211 517.5,-211 517.5,-181 398.5,-181"/>
<text text-anchor="start" x="406.5" y="-199" font-family="Helvetica,sans-Serif" font-size="10.00">ITSMFTReconstruction</text>
<text text-anchor="middle" x="458" y="-188" font-family="Helvetica,sans-Serif" font-size="10.00">/PixelReader.h</text>
</a>
</g>
</g>
<!-- Node1&#45;&gt;Node2 -->
<g id="edge1" class="edge"><title>Node1&#45;&gt;Node2</title>
<path fill="none" stroke="midnightblue" d="M795.883,-259.826C713.346,-244.479 599.836,-223.373 527.687,-209.958"/>
<polygon fill="midnightblue" stroke="midnightblue" points="528.259,-206.504 517.788,-208.117 526.98,-213.386 528.259,-206.504"/>
</g>
<!-- Node4 -->
<g id="node4" class="node"><title>Node4</title>
<g id="a_node4"><a xlink:href="../../da/d8d/PixelData_8h.html" target="_top" xlink:title="Transient data classes for single pixel and set of pixels from current chip. ">
<polygon fill="none" stroke="black" points="84.5,-113 84.5,-143 203.5,-143 203.5,-113 84.5,-113"/>
<text text-anchor="start" x="92.5" y="-131" font-family="Helvetica,sans-Serif" font-size="10.00">ITSMFTReconstruction</text>
<text text-anchor="middle" x="144" y="-120" font-family="Helvetica,sans-Serif" font-size="10.00">/PixelData.h</text>
</a>
</g>
</g>
<!-- Node1&#45;&gt;Node4 -->
<g id="edge18" class="edge"><title>Node1&#45;&gt;Node4</title>
<path fill="none" stroke="midnightblue" d="M795.852,-277.936C630.931,-274.735 316.42,-262.039 218,-212 191.556,-198.555 170.196,-171.346 157.344,-151.741"/>
<polygon fill="midnightblue" stroke="midnightblue" points="160.183,-149.68 151.892,-143.083 154.259,-153.41 160.183,-149.68"/>
</g>
<!-- Node5 -->
<g id="node5" class="node"><title>Node5</title>
<g id="a_node5"><a xlink:href="../../d0/d06/ITSMFT_2common_2base_2include_2ITSMFTBase_2Digit_8h.html" target="_top" xlink:title="ITSMFTBase/Digit.h">
<polygon fill="none" stroke="black" points="-0.5,-56.5 -0.5,-75.5 106.5,-75.5 106.5,-56.5 -0.5,-56.5"/>
<text text-anchor="middle" x="53" y="-63.5" font-family="Helvetica,sans-Serif" font-size="10.00">ITSMFTBase/Digit.h</text>
</a>
</g>
</g>
<!-- Node1&#45;&gt;Node5 -->
<g id="edge29" class="edge"><title>Node1&#45;&gt;Node5</title>
<path fill="none" stroke="midnightblue" d="M795.822,-275.649C624.295,-269.043 288.326,-251.413 177,-212 125.64,-193.817 107.123,-188.007 75,-144 62.4791,-126.847 57.0675,-102.75 54.7391,-86.1019"/>
<polygon fill="midnightblue" stroke="midnightblue" points="58.1905,-85.478 53.5702,-75.9437 51.2364,-86.2783 58.1905,-85.478"/>
</g>
<!-- Node7 -->
<g id="node7" class="node"><title>Node7</title>
<polygon fill="none" stroke="#bfbfbf" points="183,-56.5 183,-75.5 227,-75.5 227,-56.5 183,-56.5"/>
<text text-anchor="middle" x="205" y="-63.5" font-family="Helvetica,sans-Serif" font-size="10.00">vector</text>
</g>
<!-- Node1&#45;&gt;Node7 -->
<g id="edge37" class="edge"><title>Node1&#45;&gt;Node7</title>
<path fill="none" stroke="midnightblue" d="M795.931,-274.909C691.506,-268.583 526.244,-252.545 389,-212 321.508,-192.062 296.88,-192.62 246,-144 228.934,-127.692 217.451,-102.7 211.079,-85.6429"/>
<polygon fill="midnightblue" stroke="midnightblue" points="214.225,-84.0364 207.622,-75.7508 207.617,-86.3457 214.225,-84.0364"/>
</g>
<!-- Node13 -->
<g id="node13" class="node"><title>Node13</title>
<polygon fill="none" stroke="#bfbfbf" points="692.5,-56.5 692.5,-75.5 741.5,-75.5 741.5,-56.5 692.5,-56.5"/>
<text text-anchor="middle" x="717" y="-63.5" font-family="Helvetica,sans-Serif" font-size="10.00">cassert</text>
</g>
<!-- Node1&#45;&gt;Node13 -->
<g id="edge41" class="edge"><title>Node1&#45;&gt;Node13</title>
<path fill="none" stroke="midnightblue" d="M795.742,-261.86C761.455,-251.965 725.146,-236.411 698,-212 663.401,-180.887 648.069,-154.506 667,-112 672.568,-99.4981 683.516,-89.0124 693.751,-81.3167"/>
<polygon fill="midnightblue" stroke="midnightblue" points="695.851,-84.1193 702.048,-75.5256 691.844,-78.3794 695.851,-84.1193"/>
</g>
<!-- Node17 -->
<g id="node17" class="node"><title>Node17</title>
<g id="a_node17"><a xlink:href="../../d8/da2/AlpideCoder_8h.html" target="_top" xlink:title="class for the ALPIDE data decoding/encoding ">
<polygon fill="none" stroke="black" points="707.5,-181 707.5,-211 826.5,-211 826.5,-181 707.5,-181"/>
<text text-anchor="start" x="715.5" y="-199" font-family="Helvetica,sans-Serif" font-size="10.00">ITSMFTReconstruction</text>
<text text-anchor="middle" x="767" y="-188" font-family="Helvetica,sans-Serif" font-size="10.00">/AlpideCoder.h</text>
</a>
</g>
</g>
<!-- Node1&#45;&gt;Node17 -->
<g id="edge19" class="edge"><title>Node1&#45;&gt;Node17</title>
<path fill="none" stroke="midnightblue" d="M849.848,-248.466C832.569,-237.732 813.638,-225.972 798.24,-216.407"/>
<polygon fill="midnightblue" stroke="midnightblue" points="799.963,-213.356 789.621,-211.053 796.269,-219.303 799.963,-213.356"/>
</g>
<!-- Node21 -->
<g id="node21" class="node"><title>Node21</title>
<polygon fill="none" stroke="#bfbfbf" points="840.5,-118.5 840.5,-137.5 917.5,-137.5 917.5,-118.5 840.5,-118.5"/>
<text text-anchor="middle" x="879" y="-125.5" font-family="Helvetica,sans-Serif" font-size="10.00">TStopwatch.h</text>
</g>
<!-- Node1&#45;&gt;Node21 -->
<g id="edge35" class="edge"><title>Node1&#45;&gt;Node21</title>
<path fill="none" stroke="midnightblue" d="M884.92,-248.294C880.502,-237.114 876.205,-224.218 874,-212 870.083,-190.3 872.621,-164.946 875.305,-148.024"/>
<polygon fill="midnightblue" stroke="midnightblue" points="878.817,-148.26 877.109,-137.804 871.924,-147.044 878.817,-148.26"/>
</g>
<!-- Node22 -->
<g id="node22" class="node"><title>Node22</title>
<g id="a_node22"><a xlink:href="../../d3/d57/ChipMappingITS_8h.html" target="_top" xlink:title="ITSMFTReconstruction\l/ChipMappingITS.h">
<polygon fill="none" stroke="black" points="883.5,-181 883.5,-211 1002.5,-211 1002.5,-181 883.5,-181"/>
<text text-anchor="start" x="891.5" y="-199" font-family="Helvetica,sans-Serif" font-size="10.00">ITSMFTReconstruction</text>
<text text-anchor="middle" x="943" y="-188" font-family="Helvetica,sans-Serif" font-size="10.00">/ChipMappingITS.h</text>
</a>
</g>
</g>
<!-- Node1&#45;&gt;Node22 -->
<g id="edge26" class="edge"><title>Node1&#45;&gt;Node22</title>
<path fill="none" stroke="midnightblue" d="M915.384,-248.466C920.408,-239.103 925.851,-228.96 930.566,-220.173"/>
<polygon fill="midnightblue" stroke="midnightblue" points="933.698,-221.738 935.342,-211.272 927.53,-218.428 933.698,-221.738"/>
</g>
<!-- Node24 -->
<g id="node24" class="node"><title>Node24</title>
<g id="a_node24"><a xlink:href="../../da/de8/RootChain_8h.html" target="_top" xlink:title="CommonUtils/RootChain.h">
<polygon fill="none" stroke="black" points="1021,-186.5 1021,-205.5 1155,-205.5 1155,-186.5 1021,-186.5"/>
<text text-anchor="middle" x="1088" y="-193.5" font-family="Helvetica,sans-Serif" font-size="10.00">CommonUtils/RootChain.h</text>
</a>
</g>
</g>
<!-- Node1&#45;&gt;Node24 -->
<g id="edge30" class="edge"><title>Node1&#45;&gt;Node24</title>
<path fill="none" stroke="midnightblue" d="M969.377,-248.466C1000.37,-235.019 1035.07,-219.963 1058.9,-209.627"/>
<polygon fill="midnightblue" stroke="midnightblue" points="1060.31,-212.831 1068.09,-205.64 1057.52,-206.409 1060.31,-212.831"/>
</g>
<!-- Node25 -->
<g id="node25" class="node"><title>Node25</title>
<polygon fill="none" stroke="#bfbfbf" points="1163,-118.5 1163,-137.5 1215,-137.5 1215,-118.5 1163,-118.5"/>
<text text-anchor="middle" x="1189" y="-125.5" font-family="Helvetica,sans-Serif" font-size="10.00">memory</text>
</g>
<!-- Node1&#45;&gt;Node25 -->
<g id="edge39" class="edge"><title>Node1&#45;&gt;Node25</title>
<path fill="none" stroke="midnightblue" d="M1002.32,-263.589C1066.26,-252.072 1140.5,-234.463 1164,-212 1181.56,-195.213 1186.91,-166.598 1188.47,-147.744"/>
<polygon fill="midnightblue" stroke="midnightblue" points="1191.97,-147.873 1189.02,-137.697 1184.98,-147.49 1191.97,-147.873"/>
</g>
<!-- Node27 -->
<g id="node27" class="node"><title>Node27</title>
<polygon fill="none" stroke="#bfbfbf" points="1211,-186.5 1211,-205.5 1261,-205.5 1261,-186.5 1211,-186.5"/>
<text text-anchor="middle" x="1236" y="-193.5" font-family="Helvetica,sans-Serif" font-size="10.00">TTree.h</text>
</g>
<!-- Node1&#45;&gt;Node27 -->
<g id="edge34" class="edge"><title>Node1&#45;&gt;Node27</title>
<path fill="none" stroke="midnightblue" d="M1002.02,-259.702C1059.87,-247.906 1133.06,-231.372 1197,-212 1199.96,-211.103 1203.01,-210.09 1206.05,-209.022"/>
<polygon fill="midnightblue" stroke="midnightblue" points="1207.39,-212.261 1215.55,-205.51 1204.96,-205.695 1207.39,-212.261"/>
</g>
<!-- Node28 -->
<g id="node28" class="node"><title>Node28</title>
<polygon fill="none" stroke="#bfbfbf" points="1279.5,-186.5 1279.5,-205.5 1350.5,-205.5 1350.5,-186.5 1279.5,-186.5"/>
<text text-anchor="middle" x="1315" y="-193.5" font-family="Helvetica,sans-Serif" font-size="10.00">FairLogger.h</text>
</g>
<!-- Node1&#45;&gt;Node28 -->
<g id="edge36" class="edge"><title>Node1&#45;&gt;Node28</title>
<path fill="none" stroke="midnightblue" d="M1002.21,-264.42C1077.12,-252.855 1180.59,-234.851 1270,-212 1273.84,-211.019 1277.83,-209.876 1281.77,-208.668"/>
<polygon fill="midnightblue" stroke="midnightblue" points="1282.92,-211.975 1291.37,-205.583 1280.78,-205.31 1282.92,-211.975"/>
</g>
<!-- Node29 -->
<g id="node29" class="node"><title>Node29</title>
<polygon fill="none" stroke="#bfbfbf" points="1369,-186.5 1369,-205.5 1409,-205.5 1409,-186.5 1369,-186.5"/>
<text text-anchor="middle" x="1389" y="-193.5" font-family="Helvetica,sans-Serif" font-size="10.00">limits</text>
</g>
<!-- Node1&#45;&gt;Node29 -->
<g id="edge38" class="edge"><title>Node1&#45;&gt;Node29</title>
<path fill="none" stroke="midnightblue" d="M1002.03,-273.4C1096.66,-266.067 1239.84,-249.401 1359,-212 1360.92,-211.398 1362.86,-210.686 1364.79,-209.905"/>
<polygon fill="midnightblue" stroke="midnightblue" points="1366.51,-212.967 1374.13,-205.605 1363.58,-206.608 1366.51,-212.967"/>
</g>
<!-- Node30 -->
<g id="node30" class="node"><title>Node30</title>
<polygon fill="none" stroke="#bfbfbf" points="1427,-186.5 1427,-205.5 1483,-205.5 1483,-186.5 1427,-186.5"/>
<text text-anchor="middle" x="1455" y="-193.5" font-family="Helvetica,sans-Serif" font-size="10.00">algorithm</text>
</g>
<!-- Node1&#45;&gt;Node30 -->
<g id="edge40" class="edge"><title>Node1&#45;&gt;Node30</title>
<path fill="none" stroke="midnightblue" d="M1002.41,-273.48C1108.25,-266.017 1276.74,-249.089 1418,-212 1420.99,-211.216 1424.06,-210.25 1427.09,-209.189"/>
<polygon fill="midnightblue" stroke="midnightblue" points="1428.41,-212.431 1436.49,-205.587 1425.9,-205.894 1428.41,-212.431"/>
</g>
<!-- Node3 -->
<g id="node3" class="node"><title>Node3</title>
<polygon fill="none" stroke="#bfbfbf" points="763,-0.5 763,-19.5 819,-19.5 819,-0.5 763,-0.5"/>
<text text-anchor="middle" x="791" y="-7.5" font-family="Helvetica,sans-Serif" font-size="10.00">Rtypes.h</text>
</g>
<!-- Node2&#45;&gt;Node3 -->
<g id="edge2" class="edge"><title>Node2&#45;&gt;Node3</title>
<path fill="none" stroke="midnightblue" d="M495.699,-180.98C522.409,-170.94 559.029,-156.961 591,-144 593.226,-143.098 748.172,-77.5585 750,-76 765.031,-63.1818 776.39,-43.4477 783.297,-29.0854"/>
<polygon fill="midnightblue" stroke="midnightblue" points="786.586,-30.3055 787.528,-19.7525 780.211,-27.4153 786.586,-30.3055"/>
</g>
<!-- Node2&#45;&gt;Node4 -->
<g id="edge3" class="edge"><title>Node2&#45;&gt;Node4</title>
<path fill="none" stroke="midnightblue" d="M398.2,-182.431C345.601,-171.375 269.006,-155.275 213.655,-143.641"/>
<polygon fill="midnightblue" stroke="midnightblue" points="214.084,-140.155 203.577,-141.523 212.644,-147.005 214.084,-140.155"/>
</g>
<!-- Node2&#45;&gt;Node7 -->
<g id="edge17" class="edge"><title>Node2&#45;&gt;Node7</title>
<path fill="none" stroke="midnightblue" d="M398.321,-182.732C366.122,-174.592 326.446,-162.037 294,-144 264.688,-127.705 236.376,-100.651 219.832,-83.3336"/>
<polygon fill="midnightblue" stroke="midnightblue" points="222.087,-80.6211 212.703,-75.7042 216.973,-85.4004 222.087,-80.6211"/>
</g>
<!-- Node9 -->
<g id="node9" class="node"><title>Node9</title>
<g id="a_node9"><a xlink:href="../../d7/dcd/MCCompLabel_8h.html" target="_top" xlink:title="SimulationDataFormat\l/MCCompLabel.h">
<polygon fill="none" stroke="black" points="336,-113 336,-143 450,-143 450,-113 336,-113"/>
<text text-anchor="start" x="344" y="-131" font-family="Helvetica,sans-Serif" font-size="10.00">SimulationDataFormat</text>
<text text-anchor="middle" x="393" y="-120" font-family="Helvetica,sans-Serif" font-size="10.00">/MCCompLabel.h</text>
</a>
</g>
</g>
<!-- Node2&#45;&gt;Node9 -->
<g id="edge9" class="edge"><title>Node2&#45;&gt;Node9</title>
<path fill="none" stroke="midnightblue" d="M443.896,-180.679C435.208,-171.857 423.905,-160.38 414.158,-150.483"/>
<polygon fill="midnightblue" stroke="midnightblue" points="416.587,-147.962 407.077,-143.293 411.6,-152.874 416.587,-147.962"/>
</g>
<!-- Node11 -->
<g id="node11" class="node"><title>Node11</title>
<g id="a_node11"><a xlink:href="../../db/d14/MCTruthContainer_8h.html" target="_top" xlink:title="Definition of a container to keep Monte Carlo truth external to simulation objects. ">
<polygon fill="none" stroke="black" points="468,-113 468,-143 582,-143 582,-113 468,-113"/>
<text text-anchor="start" x="476" y="-131" font-family="Helvetica,sans-Serif" font-size="10.00">SimulationDataFormat</text>
<text text-anchor="middle" x="525" y="-120" font-family="Helvetica,sans-Serif" font-size="10.00">/MCTruthContainer.h</text>
</a>
</g>
</g>
<!-- Node2&#45;&gt;Node11 -->
<g id="edge11" class="edge"><title>Node2&#45;&gt;Node11</title>
<path fill="none" stroke="midnightblue" d="M472.538,-180.679C481.493,-171.857 493.144,-160.38 503.191,-150.483"/>
<polygon fill="midnightblue" stroke="midnightblue" points="505.823,-152.804 510.49,-143.293 500.91,-147.817 505.823,-152.804"/>
</g>
<!-- Node4&#45;&gt;Node5 -->
<g id="edge4" class="edge"><title>Node4&#45;&gt;Node5</title>
<path fill="none" stroke="midnightblue" d="M122.434,-112.781C108.034,-103.286 89.1625,-90.8434 74.7288,-81.3267"/>
<polygon fill="midnightblue" stroke="midnightblue" points="76.2514,-78.1383 65.9761,-75.5557 72.3982,-83.9823 76.2514,-78.1383"/>
</g>
<!-- Node4&#45;&gt;Node7 -->
<g id="edge7" class="edge"><title>Node4&#45;&gt;Node7</title>
<path fill="none" stroke="midnightblue" d="M158.456,-112.781C167.594,-103.792 179.419,-92.162 188.862,-82.8731"/>
<polygon fill="midnightblue" stroke="midnightblue" points="191.449,-85.2382 196.124,-75.7305 186.54,-80.2477 191.449,-85.2382"/>
</g>
<!-- Node8 -->
<g id="node8" class="node"><title>Node8</title>
<polygon fill="none" stroke="#bfbfbf" points="125,-56.5 125,-75.5 165,-75.5 165,-56.5 125,-56.5"/>
<text text-anchor="middle" x="145" y="-63.5" font-family="Helvetica,sans-Serif" font-size="10.00">utility</text>
</g>
<!-- Node4&#45;&gt;Node8 -->
<g id="edge8" class="edge"><title>Node4&#45;&gt;Node8</title>
<path fill="none" stroke="midnightblue" d="M144.237,-112.781C144.37,-104.781 144.539,-94.6887 144.683,-86.0168"/>
<polygon fill="midnightblue" stroke="midnightblue" points="148.187,-85.7875 144.854,-75.7305 141.188,-85.6708 148.187,-85.7875"/>
</g>
<!-- Node5&#45;&gt;Node3 -->
<g id="edge5" class="edge"><title>Node5&#45;&gt;Node3</title>
<path fill="none" stroke="midnightblue" d="M106.582,-57.0654C109.766,-56.681 112.923,-56.3219 116,-56 357.712,-30.7141 649.688,-16.9045 752.745,-12.5393"/>
<polygon fill="midnightblue" stroke="midnightblue" points="753.121,-16.0267 762.966,-12.1112 752.828,-9.03282 753.121,-16.0267"/>
</g>
<!-- Node6 -->
<g id="node6" class="node"><title>Node6</title>
<polygon fill="none" stroke="#bfbfbf" points="30.5,-0.5 30.5,-19.5 75.5,-19.5 75.5,-0.5 30.5,-0.5"/>
<text text-anchor="middle" x="53" y="-7.5" font-family="Helvetica,sans-Serif" font-size="10.00">climits</text>
</g>
<!-- Node5&#45;&gt;Node6 -->
<g id="edge6" class="edge"><title>Node5&#45;&gt;Node6</title>
<path fill="none" stroke="midnightblue" d="M53,-56.083C53,-49.0059 53,-38.8611 53,-29.9865"/>
<polygon fill="midnightblue" stroke="midnightblue" points="56.5001,-29.751 53,-19.7511 49.5001,-29.7511 56.5001,-29.751"/>
</g>
<!-- Node10 -->
<g id="node10" class="node"><title>Node10</title>
<polygon fill="none" stroke="#bfbfbf" points="245,-56.5 245,-75.5 373,-75.5 373,-56.5 245,-56.5"/>
<text text-anchor="middle" x="309" y="-63.5" font-family="Helvetica,sans-Serif" font-size="10.00">AliTPCCommonRtypes.h</text>
</g>
<!-- Node9&#45;&gt;Node10 -->
<g id="edge10" class="edge"><title>Node9&#45;&gt;Node10</title>
<path fill="none" stroke="midnightblue" d="M373.093,-112.781C360.006,-103.433 342.918,-91.2273 329.678,-81.77"/>
<polygon fill="midnightblue" stroke="midnightblue" points="331.394,-78.6949 321.223,-75.7305 327.326,-84.391 331.394,-78.6949"/>
</g>
<!-- Node12 -->
<g id="node12" class="node"><title>Node12</title>
<polygon fill="none" stroke="#bfbfbf" points="612,-56.5 612,-75.5 674,-75.5 674,-56.5 612,-56.5"/>
<text text-anchor="middle" x="643" y="-63.5" font-family="Helvetica,sans-Serif" font-size="10.00">TNamed.h</text>
</g>
<!-- Node11&#45;&gt;Node12 -->
<g id="edge12" class="edge"><title>Node11&#45;&gt;Node12</title>
<path fill="none" stroke="midnightblue" d="M552.666,-112.933C572.129,-103.036 598.002,-89.8803 617.069,-80.1852"/>
<polygon fill="midnightblue" stroke="midnightblue" points="618.759,-83.2524 626.087,-75.6 615.586,-77.0127 618.759,-83.2524"/>
</g>
<!-- Node11&#45;&gt;Node13 -->
<g id="edge13" class="edge"><title>Node11&#45;&gt;Node13</title>
<path fill="none" stroke="midnightblue" d="M570.015,-112.933C604.521,-102.15 651.405,-87.4984 682.859,-77.6692"/>
<polygon fill="midnightblue" stroke="midnightblue" points="683.993,-80.9818 692.493,-74.6583 681.905,-74.3005 683.993,-80.9818"/>
</g>
<!-- Node14 -->
<g id="node14" class="node"><title>Node14</title>
<polygon fill="none" stroke="#bfbfbf" points="391.5,-56.5 391.5,-75.5 450.5,-75.5 450.5,-56.5 391.5,-56.5"/>
<text text-anchor="middle" x="421" y="-63.5" font-family="Helvetica,sans-Serif" font-size="10.00">stdexcept</text>
</g>
<!-- Node11&#45;&gt;Node14 -->
<g id="edge14" class="edge"><title>Node11&#45;&gt;Node14</title>
<path fill="none" stroke="midnightblue" d="M500.617,-112.933C483.854,-103.262 461.697,-90.4793 445.015,-80.8546"/>
<polygon fill="midnightblue" stroke="midnightblue" points="446.318,-77.5656 435.907,-75.6 442.82,-83.629 446.318,-77.5656"/>
</g>
<!-- Node15 -->
<g id="node15" class="node"><title>Node15</title>
<polygon fill="none" stroke="#bfbfbf" points="468.5,-56.5 468.5,-75.5 513.5,-75.5 513.5,-56.5 468.5,-56.5"/>
<text text-anchor="middle" x="491" y="-63.5" font-family="Helvetica,sans-Serif" font-size="10.00">gsl/gsl</text>
</g>
<!-- Node11&#45;&gt;Node15 -->
<g id="edge15" class="edge"><title>Node11&#45;&gt;Node15</title>
<path fill="none" stroke="midnightblue" d="M516.942,-112.781C512.155,-104.332 506.044,-93.5481 500.956,-84.5693"/>
<polygon fill="midnightblue" stroke="midnightblue" points="503.923,-82.7052 495.947,-75.7305 497.832,-86.1563 503.923,-82.7052"/>
</g>
<!-- Node16 -->
<g id="node16" class="node"><title>Node16</title>
<polygon fill="none" stroke="#bfbfbf" points="532,-56.5 532,-75.5 594,-75.5 594,-56.5 532,-56.5"/>
<text text-anchor="middle" x="563" y="-63.5" font-family="Helvetica,sans-Serif" font-size="10.00">type_traits</text>
</g>
<!-- Node11&#45;&gt;Node16 -->
<g id="edge16" class="edge"><title>Node11&#45;&gt;Node16</title>
<path fill="none" stroke="midnightblue" d="M534.005,-112.781C539.413,-104.242 546.332,-93.3184 552.054,-84.2834"/>
<polygon fill="midnightblue" stroke="midnightblue" points="555.077,-86.0514 557.471,-75.7305 549.163,-82.306 555.077,-86.0514"/>
</g>
<!-- Node17&#45;&gt;Node3 -->
<g id="edge20" class="edge"><title>Node17&#45;&gt;Node3</title>
<path fill="none" stroke="midnightblue" d="M776.438,-180.982C782.492,-171.114 789.797,-157.336 793,-144 802.584,-104.098 797.899,-55.5064 794.136,-29.5157"/>
<polygon fill="midnightblue" stroke="midnightblue" points="797.583,-28.9005 792.576,-19.5634 790.667,-29.9849 797.583,-28.9005"/>
</g>
<!-- Node17&#45;&gt;Node7 -->
<g id="edge22" class="edge"><title>Node17&#45;&gt;Node7</title>
<path fill="none" stroke="midnightblue" d="M707.412,-192.081C603.673,-186.343 394.507,-171.675 327,-144 305.612,-135.232 305.273,-124.763 286,-112 268.285,-100.269 247.288,-88.6643 231.112,-80.1784"/>
<polygon fill="midnightblue" stroke="midnightblue" points="232.695,-77.0567 222.206,-75.565 229.475,-83.2724 232.695,-77.0567"/>
</g>
<!-- Node18 -->
<g id="node18" class="node"><title>Node18</title>
<polygon fill="none" stroke="#bfbfbf" points="676.5,-118.5 676.5,-137.5 719.5,-137.5 719.5,-118.5 676.5,-118.5"/>
<text text-anchor="middle" x="698" y="-125.5" font-family="Helvetica,sans-Serif" font-size="10.00">cstdio</text>
</g>
<!-- Node17&#45;&gt;Node18 -->
<g id="edge21" class="edge"><title>Node17&#45;&gt;Node18</title>
<path fill="none" stroke="midnightblue" d="M752.028,-180.679C741.056,-170.184 726.156,-155.932 714.782,-145.052"/>
<polygon fill="midnightblue" stroke="midnightblue" points="716.875,-142.211 707.23,-137.828 712.037,-147.27 716.875,-142.211"/>
</g>
<!-- Node19 -->
<g id="node19" class="node"><title>Node19</title>
<polygon fill="none" stroke="#bfbfbf" points="935.5,-118.5 935.5,-137.5 976.5,-137.5 976.5,-118.5 935.5,-118.5"/>
<text text-anchor="middle" x="956" y="-125.5" font-family="Helvetica,sans-Serif" font-size="10.00">string</text>
</g>
<!-- Node17&#45;&gt;Node19 -->
<g id="edge23" class="edge"><title>Node17&#45;&gt;Node19</title>
<path fill="none" stroke="midnightblue" d="M817.475,-180.966C849.086,-171.65 890.43,-158.497 926,-144 927.594,-143.35 929.22,-142.651 930.849,-141.921"/>
<polygon fill="midnightblue" stroke="midnightblue" points="932.491,-145.016 940.017,-137.558 929.484,-138.695 932.491,-145.016"/>
</g>
<!-- Node20 -->
<g id="node20" class="node"><title>Node20</title>
<polygon fill="none" stroke="#bfbfbf" points="738,-118.5 738,-137.5 784,-137.5 784,-118.5 738,-118.5"/>
<text text-anchor="middle" x="761" y="-125.5" font-family="Helvetica,sans-Serif" font-size="10.00">cstdint</text>
</g>
<!-- Node17&#45;&gt;Node20 -->
<g id="edge24" class="edge"><title>Node17&#45;&gt;Node20</title>
<path fill="none" stroke="midnightblue" d="M765.698,-180.679C764.827,-171.101 763.672,-158.394 762.725,-147.977"/>
<polygon fill="midnightblue" stroke="midnightblue" points="766.194,-147.47 761.803,-137.828 759.222,-148.104 766.194,-147.47"/>
</g>
<!-- Node17&#45;&gt;Node21 -->
<g id="edge25" class="edge"><title>Node17&#45;&gt;Node21</title>
<path fill="none" stroke="midnightblue" d="M791.027,-180.841C810.052,-169.63 836.481,-154.056 855.396,-142.91"/>
<polygon fill="midnightblue" stroke="midnightblue" points="857.429,-145.774 864.267,-137.682 853.875,-139.743 857.429,-145.774"/>
</g>
<!-- Node22&#45;&gt;Node3 -->
<g id="edge27" class="edge"><title>Node22&#45;&gt;Node3</title>
<path fill="none" stroke="midnightblue" d="M994.407,-180.903C1012.7,-173.138 1031.38,-161.415 1042,-144 1049.4,-131.857 1049.96,-123.785 1042,-112 993.979,-40.9137 886.728,-19.8504 829.198,-13.616"/>
<polygon fill="midnightblue" stroke="midnightblue" points="829.355,-10.1146 819.06,-12.6157 828.668,-17.0808 829.355,-10.1146"/>
</g>
<!-- Node23 -->
<g id="node23" class="node"><title>Node23</title>
<polygon fill="none" stroke="#bfbfbf" points="995,-118.5 995,-137.5 1033,-137.5 1033,-118.5 995,-118.5"/>
<text text-anchor="middle" x="1014" y="-125.5" font-family="Helvetica,sans-Serif" font-size="10.00">array</text>
</g>
<!-- Node22&#45;&gt;Node23 -->
<g id="edge28" class="edge"><title>Node22&#45;&gt;Node23</title>
<path fill="none" stroke="midnightblue" d="M958.406,-180.679C969.805,-170.082 985.326,-155.655 997.072,-144.736"/>
<polygon fill="midnightblue" stroke="midnightblue" points="999.562,-147.2 1004.5,-137.828 994.796,-142.073 999.562,-147.2"/>
</g>
<!-- Node24&#45;&gt;Node19 -->
<g id="edge33" class="edge"><title>Node24&#45;&gt;Node19</title>
<path fill="none" stroke="midnightblue" d="M1070.74,-186.372C1048.21,-175.106 1008.56,-155.279 982.281,-142.14"/>
<polygon fill="midnightblue" stroke="midnightblue" points="983.77,-138.972 973.261,-137.63 980.64,-145.233 983.77,-138.972"/>
</g>
<!-- Node24&#45;&gt;Node25 -->
<g id="edge31" class="edge"><title>Node24&#45;&gt;Node25</title>
<path fill="none" stroke="midnightblue" d="M1101.2,-186.372C1117.99,-175.403 1147.2,-156.317 1167.28,-143.191"/>
<polygon fill="midnightblue" stroke="midnightblue" points="1169.34,-146.031 1175.79,-137.63 1165.51,-140.171 1169.34,-146.031"/>
</g>
<!-- Node26 -->
<g id="node26" class="node"><title>Node26</title>
<polygon fill="none" stroke="#bfbfbf" points="1089,-118.5 1089,-137.5 1145,-137.5 1145,-118.5 1089,-118.5"/>
<text text-anchor="middle" x="1117" y="-125.5" font-family="Helvetica,sans-Serif" font-size="10.00">TChain.h</text>
</g>
<!-- Node24&#45;&gt;Node26 -->
<g id="edge32" class="edge"><title>Node24&#45;&gt;Node26</title>
<path fill="none" stroke="midnightblue" d="M1091.79,-186.372C1096.15,-176.446 1103.43,-159.874 1109.05,-147.086"/>
<polygon fill="midnightblue" stroke="midnightblue" points="1112.3,-148.404 1113.12,-137.841 1105.89,-145.588 1112.3,-148.404"/>
</g>
</g>
</svg>
