<?xml version="1.0" encoding="UTF-8" standalone="no"?>
<!DOCTYPE svg PUBLIC "-//W3C//DTD SVG 1.1//EN"
 "http://www.w3.org/Graphics/SVG/1.1/DTD/svg11.dtd">
<!-- Generated by graphviz version 2.36.0 (20140111.2315)
 -->
<!-- Title: o2::framework::InputRoute Pages: 1 -->
<svg width="661pt" height="334pt"
 viewBox="0.00 0.00 661.00 334.00" xmlns="http://www.w3.org/2000/svg" xmlns:xlink="http://www.w3.org/1999/xlink">
<g id="graph0" class="graph" transform="scale(1 1) rotate(0) translate(4 330)">
<title>o2::framework::InputRoute</title>
<!-- Node1 -->
<g id="node1" class="node"><title>Node1</title>
<polygon fill="#bfbfbf" stroke="black" points="176.5,-0.5 176.5,-57.5 309.5,-57.5 309.5,-0.5 176.5,-0.5"/>
<text text-anchor="middle" x="243" y="-45.5" font-family="Helvetica,sans-Serif" font-size="10.00">o2::framework::InputRoute</text>
<polyline fill="none" stroke="black" points="176.5,-38.5 309.5,-38.5 "/>
<text text-anchor="middle" x="243" y="-26.5" font-family="Helvetica,sans-Serif" font-size="10.00"> </text>
<polyline fill="none" stroke="black" points="176.5,-19.5 309.5,-19.5 "/>
<text text-anchor="middle" x="243" y="-7.5" font-family="Helvetica,sans-Serif" font-size="10.00"> </text>
</g>
<!-- Node2 -->
<g id="node2" class="node"><title>Node2</title>
<polygon fill="none" stroke="#bfbfbf" points="-0.5,-117.5 -0.5,-174.5 42.5,-174.5 42.5,-117.5 -0.5,-117.5"/>
<text text-anchor="middle" x="21" y="-162.5" font-family="Helvetica,sans-Serif" font-size="10.00">size_t</text>
<polyline fill="none" stroke="#bfbfbf" points="-0.5,-155.5 42.5,-155.5 "/>
<text text-anchor="middle" x="21" y="-143.5" font-family="Helvetica,sans-Serif" font-size="10.00"> </text>
<polyline fill="none" stroke="#bfbfbf" points="-0.5,-136.5 42.5,-136.5 "/>
<text text-anchor="middle" x="21" y="-124.5" font-family="Helvetica,sans-Serif" font-size="10.00"> </text>
</g>
<!-- Node2&#45;&gt;Node1 -->
<g id="edge1" class="edge"><title>Node2&#45;&gt;Node1</title>
<path fill="none" stroke="#404040" d="M13.8875,-117.341C12.0326,-103.471 12.6959,-87.2723 22,-76 40.0415,-54.1421 108.242,-42.2993 164.165,-36.1322"/>
<polygon fill="none" stroke="#404040" points="164.317,-36.1163 169.867,-31.5122 176.252,-34.8646 170.702,-39.4686 164.317,-36.1163"/>
<text text-anchor="middle" x="46.5" y="-79.5" font-family="Helvetica,sans-Serif" font-size="10.00"> +timeslice</text>
</g>
<!-- Node3 -->
<g id="node3" class="node"><title>Node3</title>
<polygon fill="none" stroke="#bfbfbf" points="83.5,-251.5 83.5,-308.5 112.5,-308.5 112.5,-251.5 83.5,-251.5"/>
<text text-anchor="middle" x="98" y="-296.5" font-family="Helvetica,sans-Serif" font-size="10.00">int</text>
<polyline fill="none" stroke="#bfbfbf" points="83.5,-289.5 112.5,-289.5 "/>
<text text-anchor="middle" x="98" y="-277.5" font-family="Helvetica,sans-Serif" font-size="10.00"> </text>
<polyline fill="none" stroke="#bfbfbf" points="83.5,-270.5 112.5,-270.5 "/>
<text text-anchor="middle" x="98" y="-258.5" font-family="Helvetica,sans-Serif" font-size="10.00"> </text>
</g>
<!-- Node3&#45;&gt;Node1 -->
<g id="edge2" class="edge"><title>Node3&#45;&gt;Node1</title>
<path fill="none" stroke="#404040" d="M88.8046,-251.467C78.4918,-215.214 66.5394,-150.833 94,-106 109.864,-80.1005 137.635,-62.6781 164.937,-51.1291"/>
<polygon fill="none" stroke="#404040" points="165.006,-51.1019 169.112,-45.1736 176.163,-46.6831 172.057,-52.6115 165.006,-51.1019"/>
<text text-anchor="middle" x="131.5" y="-143.5" font-family="Helvetica,sans-Serif" font-size="10.00"> +sourceChannel</text>
</g>
<!-- Node4 -->
<g id="node4" class="node"><title>Node4</title>
<g id="a_node4"><a xlink:href="../../da/d96/structo2_1_1framework_1_1InputSpec.html" target="_top" xlink:title="{o2::framework::InputSpec\n||+ InputSpec()\l+ InputSpec()\l+ operator==()\l}">
<polygon fill="none" stroke="black" points="178.5,-106.5 178.5,-185.5 307.5,-185.5 307.5,-106.5 178.5,-106.5"/>
<text text-anchor="middle" x="243" y="-173.5" font-family="Helvetica,sans-Serif" font-size="10.00">o2::framework::InputSpec</text>
<polyline fill="none" stroke="black" points="178.5,-166.5 307.5,-166.5 "/>
<text text-anchor="middle" x="243" y="-154.5" font-family="Helvetica,sans-Serif" font-size="10.00"> </text>
<polyline fill="none" stroke="black" points="178.5,-147.5 307.5,-147.5 "/>
<text text-anchor="start" x="186.5" y="-135.5" font-family="Helvetica,sans-Serif" font-size="10.00">+ InputSpec()</text>
<text text-anchor="start" x="186.5" y="-124.5" font-family="Helvetica,sans-Serif" font-size="10.00">+ InputSpec()</text>
<text text-anchor="start" x="186.5" y="-113.5" font-family="Helvetica,sans-Serif" font-size="10.00">+ operator==()</text>
</a>
</g>
</g>
<!-- Node3&#45;&gt;Node4 -->
<g id="edge6" class="edge"><title>Node3&#45;&gt;Node4</title>
<path fill="none" stroke="#404040" d="M112.793,-253.599C117.261,-246.885 122.463,-239.878 128,-234 141.79,-219.362 158.248,-205.345 174.343,-192.999"/>
<polygon fill="none" stroke="#404040" points="174.69,-192.739 177.09,-185.938 184.29,-185.538 181.89,-192.338 174.69,-192.739"/>
<text text-anchor="middle" x="180" y="-207.5" font-family="Helvetica,sans-Serif" font-size="10.00"> +binding</text>
</g>
<!-- Node4&#45;&gt;Node1 -->
<g id="edge3" class="edge"><title>Node4&#45;&gt;Node1</title>
<path fill="none" stroke="#404040" d="M243,-106.387C243,-94.6945 243,-81.8302 243,-70.0463"/>
<polygon fill="none" stroke="#404040" points="243,-69.7902 239,-63.7902 243,-57.7902 247,-63.7901 243,-69.7902"/>
<text text-anchor="middle" x="265.5" y="-79.5" font-family="Helvetica,sans-Serif" font-size="10.00"> +matcher</text>
</g>
<!-- Node5 -->
<g id="node5" class="node"><title>Node5</title>
<polygon fill="none" stroke="#bfbfbf" points="137,-235 137,-325 335,-325 335,-235 137,-235"/>
<text text-anchor="start" x="145" y="-313" font-family="Helvetica,sans-Serif" font-size="10.00">variant&lt; o2::framework</text>
<text text-anchor="start" x="145" y="-302" font-family="Helvetica,sans-Serif" font-size="10.00">::ConcreteDataMatcher,</text>
<text text-anchor="start" x="145" y="-291" font-family="Helvetica,sans-Serif" font-size="10.00"> data_matcher::o2::framework</text>
<text text-anchor="middle" x="236" y="-280" font-family="Helvetica,sans-Serif" font-size="10.00">::data_matcher::DataDescriptorMatcher &gt;</text>
<polyline fill="none" stroke="#bfbfbf" points="137,-273 335,-273 "/>
<text text-anchor="middle" x="236" y="-261" font-family="Helvetica,sans-Serif" font-size="10.00"> </text>
<polyline fill="none" stroke="#bfbfbf" points="137,-254 335,-254 "/>
<text text-anchor="middle" x="236" y="-242" font-family="Helvetica,sans-Serif" font-size="10.00"> </text>
</g>
<!-- Node5&#45;&gt;Node4 -->
<g id="edge4" class="edge"><title>Node5&#45;&gt;Node4</title>
<path fill="none" stroke="#404040" d="M238.35,-234.679C238.975,-222.894 239.655,-210.072 240.297,-197.963"/>
<polygon fill="none" stroke="#404040" points="240.313,-197.659 236.637,-191.456 240.949,-185.676 244.626,-191.88 240.313,-197.659"/>
<text text-anchor="middle" x="262.5" y="-207.5" font-family="Helvetica,sans-Serif" font-size="10.00"> +matcher</text>
</g>
<!-- Node6 -->
<g id="node6" class="node"><title>Node6</title>
<polygon fill="none" stroke="#bfbfbf" points="353,-251.5 353,-308.5 431,-308.5 431,-251.5 353,-251.5"/>
<text text-anchor="middle" x="392" y="-296.5" font-family="Helvetica,sans-Serif" font-size="10.00">enum Lifetime</text>
<polyline fill="none" stroke="#bfbfbf" points="353,-289.5 431,-289.5 "/>
<text text-anchor="middle" x="392" y="-277.5" font-family="Helvetica,sans-Serif" font-size="10.00"> </text>
<polyline fill="none" stroke="#bfbfbf" points="353,-270.5 431,-270.5 "/>
<text text-anchor="middle" x="392" y="-258.5" font-family="Helvetica,sans-Serif" font-size="10.00"> </text>
</g>
<!-- Node6&#45;&gt;Node4 -->
<g id="edge5" class="edge"><title>Node6&#45;&gt;Node4</title>
<path fill="none" stroke="#404040" d="M362.991,-251.435C356.77,-245.628 350.202,-239.574 344,-234 329.175,-220.677 312.894,-206.471 297.814,-193.485"/>
<polygon fill="none" stroke="#404040" points="297.708,-193.393 290.55,-192.519 288.604,-185.575 295.762,-186.45 297.708,-193.393"/>
<text text-anchor="middle" x="343.5" y="-207.5" font-family="Helvetica,sans-Serif" font-size="10.00"> +lifetime</text>
</g>
<!-- Node7 -->
<g id="node7" class="node"><title>Node7</title>
<polygon fill="none" stroke="#bfbfbf" points="325.5,-106.5 325.5,-185.5 478.5,-185.5 478.5,-106.5 325.5,-106.5"/>
<text text-anchor="start" x="333.5" y="-173.5" font-family="Helvetica,sans-Serif" font-size="10.00">function&lt; ExpirationHandler</text>
<text text-anchor="start" x="333.5" y="-162.5" font-family="Helvetica,sans-Serif" font-size="10.00">::Handler(ConfigParamRegistry</text>
<text text-anchor="middle" x="402" y="-151.5" font-family="Helvetica,sans-Serif" font-size="10.00"> const &amp;)&gt;</text>
<polyline fill="none" stroke="#bfbfbf" points="325.5,-144.5 478.5,-144.5 "/>
<text text-anchor="middle" x="402" y="-132.5" font-family="Helvetica,sans-Serif" font-size="10.00"> </text>
<polyline fill="none" stroke="#bfbfbf" points="325.5,-125.5 478.5,-125.5 "/>
<text text-anchor="middle" x="402" y="-113.5" font-family="Helvetica,sans-Serif" font-size="10.00"> </text>
</g>
<!-- Node7&#45;&gt;Node1 -->
<g id="edge7" class="edge"><title>Node7&#45;&gt;Node1</title>
<path fill="none" stroke="#404040" d="M348.613,-106.387C330.04,-92.9531 309.327,-77.9723 291.198,-64.8605"/>
<polygon fill="none" stroke="#404040" points="291.146,-64.8228 283.94,-64.5476 281.423,-57.7902 288.629,-58.0654 291.146,-64.8228"/>
<text text-anchor="middle" x="375.5" y="-79.5" font-family="Helvetica,sans-Serif" font-size="10.00"> +expirationConfigurator</text>
</g>
<!-- Node8 -->
<g id="node8" class="node"><title>Node8</title>
<polygon fill="none" stroke="#bfbfbf" points="497,-106.5 497,-185.5 653,-185.5 653,-106.5 497,-106.5"/>
<text text-anchor="start" x="505" y="-173.5" font-family="Helvetica,sans-Serif" font-size="10.00">function&lt; ExpirationHandler</text>
<text text-anchor="start" x="505" y="-162.5" font-family="Helvetica,sans-Serif" font-size="10.00">::Checker(ConfigParamRegistry</text>
<text text-anchor="middle" x="575" y="-151.5" font-family="Helvetica,sans-Serif" font-size="10.00"> const &amp;)&gt;</text>
<polyline fill="none" stroke="#bfbfbf" points="497,-144.5 653,-144.5 "/>
<text text-anchor="middle" x="575" y="-132.5" font-family="Helvetica,sans-Serif" font-size="10.00"> </text>
<polyline fill="none" stroke="#bfbfbf" points="497,-125.5 653,-125.5 "/>
<text text-anchor="middle" x="575" y="-113.5" font-family="Helvetica,sans-Serif" font-size="10.00"> </text>
</g>
<!-- Node8&#45;&gt;Node1 -->
<g id="edge8" class="edge"><title>Node8&#45;&gt;Node1</title>
<path fill="none" stroke="#404040" d="M502.423,-106.326C480.235,-95.5061 455.484,-84.417 432,-76 396.453,-63.2595 355.902,-52.8728 321.499,-45.2143"/>
<polygon fill="none" stroke="#404040" points="321.329,-45.1774 314.615,-47.8067 309.605,-42.6198 316.32,-39.9905 321.329,-45.1774"/>
<text text-anchor="middle" x="510.5" y="-79.5" font-family="Helvetica,sans-Serif" font-size="10.00"> +danglingConfigurator</text>
</g>
</g>
</svg>
