<?xml version="1.0" encoding="UTF-8" standalone="no"?>
<!DOCTYPE svg PUBLIC "-//W3C//DTD SVG 1.1//EN"
 "http://www.w3.org/Graphics/SVG/1.1/DTD/svg11.dtd">
<!-- Generated by graphviz version 2.36.0 (20140111.2315)
 -->
<!-- Title: /home/travis/build/AliceO2Group/AliceO2/Detectors/ITSMFT/common/reconstruction/include/ITSMFTReconstruction/DigitPixelReader.h Pages: 1 -->
<svg width="1219pt" height="332pt"
 viewBox="0.00 0.00 1219.00 332.00" xmlns="http://www.w3.org/2000/svg" xmlns:xlink="http://www.w3.org/1999/xlink">
<g id="graph0" class="graph" transform="scale(1 1) rotate(0) translate(4 328)">
<title>/home/travis/build/AliceO2Group/AliceO2/Detectors/ITSMFT/common/reconstruction/include/ITSMFTReconstruction/DigitPixelReader.h</title>
<!-- Node1 -->
<g id="node1" class="node"><title>Node1</title>
<polygon fill="#bfbfbf" stroke="black" points="309.5,-249 309.5,-323 476.5,-323 476.5,-249 309.5,-249"/>
<text text-anchor="start" x="317.5" y="-311" font-family="Helvetica,sans-Serif" font-size="10.00">/home/travis/build</text>
<text text-anchor="start" x="317.5" y="-300" font-family="Helvetica,sans-Serif" font-size="10.00">/AliceO2Group/AliceO2</text>
<text text-anchor="start" x="317.5" y="-289" font-family="Helvetica,sans-Serif" font-size="10.00">/Detectors/ITSMFT/common</text>
<text text-anchor="start" x="317.5" y="-278" font-family="Helvetica,sans-Serif" font-size="10.00">/reconstruction/include</text>
<text text-anchor="start" x="317.5" y="-267" font-family="Helvetica,sans-Serif" font-size="10.00">/ITSMFTReconstruction/DigitPixel</text>
<text text-anchor="middle" x="393" y="-256" font-family="Helvetica,sans-Serif" font-size="10.00">Reader.h</text>
</g>
<!-- Node2 -->
<g id="node2" class="node"><title>Node2</title>
<g id="a_node2"><a xlink:href="../../df/d2e/PixelReader_8h.html" target="_top" xlink:title="Abstract class for Alpide data reader class. ">
<polygon fill="none" stroke="black" points="245.5,-181 245.5,-211 364.5,-211 364.5,-181 245.5,-181"/>
<text text-anchor="start" x="253.5" y="-199" font-family="Helvetica,sans-Serif" font-size="10.00">ITSMFTReconstruction</text>
<text text-anchor="middle" x="305" y="-188" font-family="Helvetica,sans-Serif" font-size="10.00">/PixelReader.h</text>
</a>
</g>
</g>
<!-- Node1&#45;&gt;Node2 -->
<g id="edge1" class="edge"><title>Node1&#45;&gt;Node2</title>
<path fill="none" stroke="midnightblue" d="M356.953,-248.953C346.57,-238.57 335.576,-227.576 326.388,-218.388"/>
<polygon fill="midnightblue" stroke="midnightblue" points="328.694,-215.744 319.148,-211.148 323.744,-220.694 328.694,-215.744"/>
</g>
<!-- Node4 -->
<g id="node4" class="node"><title>Node4</title>
<g id="a_node4"><a xlink:href="../../da/d8d/PixelData_8h.html" target="_top" xlink:title="Transient data classes for single pixel and set of pixels from current chip. ">
<polygon fill="none" stroke="black" points="69.5,-113 69.5,-143 188.5,-143 188.5,-113 69.5,-113"/>
<text text-anchor="start" x="77.5" y="-131" font-family="Helvetica,sans-Serif" font-size="10.00">ITSMFTReconstruction</text>
<text text-anchor="middle" x="129" y="-120" font-family="Helvetica,sans-Serif" font-size="10.00">/PixelData.h</text>
</a>
</g>
</g>
<!-- Node1&#45;&gt;Node4 -->
<g id="edge18" class="edge"><title>Node1&#45;&gt;Node4</title>
<path fill="none" stroke="midnightblue" d="M309.295,-262.416C274.554,-250.686 234.977,-234.1 203,-212 179.144,-195.513 157.806,-169.798 144.245,-151.36"/>
<polygon fill="midnightblue" stroke="midnightblue" points="147.077,-149.304 138.408,-143.214 141.387,-153.381 147.077,-149.304"/>
</g>
<!-- Node5 -->
<g id="node5" class="node"><title>Node5</title>
<g id="a_node5"><a xlink:href="../../d0/d06/ITSMFT_2common_2base_2include_2ITSMFTBase_2Digit_8h.html" target="_top" xlink:title="ITSMFTBase/Digit.h">
<polygon fill="none" stroke="black" points="-0.5,-56.5 -0.5,-75.5 106.5,-75.5 106.5,-56.5 -0.5,-56.5"/>
<text text-anchor="middle" x="53" y="-63.5" font-family="Helvetica,sans-Serif" font-size="10.00">ITSMFTBase/Digit.h</text>
</a>
</g>
</g>
<!-- Node1&#45;&gt;Node5 -->
<g id="edge19" class="edge"><title>Node1&#45;&gt;Node5</title>
<path fill="none" stroke="midnightblue" d="M309.248,-276.551C228.804,-263.375 112.04,-229.736 60,-144 49.361,-126.472 48.926,-102.447 50.3057,-85.9191"/>
<polygon fill="midnightblue" stroke="midnightblue" points="53.7988,-86.1768 51.4477,-75.8461 46.8433,-85.3881 53.7988,-86.1768"/>
</g>
<!-- Node7 -->
<g id="node7" class="node"><title>Node7</title>
<polygon fill="none" stroke="#bfbfbf" points="195,-56.5 195,-75.5 239,-75.5 239,-56.5 195,-56.5"/>
<text text-anchor="middle" x="217" y="-63.5" font-family="Helvetica,sans-Serif" font-size="10.00">vector</text>
</g>
<!-- Node1&#45;&gt;Node7 -->
<g id="edge34" class="edge"><title>Node1&#45;&gt;Node7</title>
<path fill="none" stroke="midnightblue" d="M309.371,-263.88C281.905,-252.842 253.869,-236.358 236,-212 208.291,-174.229 210.654,-115.583 214.135,-85.7722"/>
<polygon fill="midnightblue" stroke="midnightblue" points="217.646,-85.9191 215.512,-75.5414 210.709,-84.9849 217.646,-85.9191"/>
</g>
<!-- Node9 -->
<g id="node9" class="node"><title>Node9</title>
<g id="a_node9"><a xlink:href="../../d7/dcd/MCCompLabel_8h.html" target="_top" xlink:title="SimulationDataFormat\l/MCCompLabel.h">
<polygon fill="none" stroke="black" points="324,-113 324,-143 438,-143 438,-113 324,-113"/>
<text text-anchor="start" x="332" y="-131" font-family="Helvetica,sans-Serif" font-size="10.00">SimulationDataFormat</text>
<text text-anchor="middle" x="381" y="-120" font-family="Helvetica,sans-Serif" font-size="10.00">/MCCompLabel.h</text>
</a>
</g>
</g>
<!-- Node1&#45;&gt;Node9 -->
<g id="edge32" class="edge"><title>Node1&#45;&gt;Node9</title>
<path fill="none" stroke="midnightblue" d="M390.217,-248.818C387.961,-219.495 384.844,-178.976 382.876,-153.382"/>
<polygon fill="midnightblue" stroke="midnightblue" points="386.34,-152.787 382.083,-143.085 379.361,-153.324 386.34,-152.787"/>
</g>
<!-- Node11 -->
<g id="node11" class="node"><title>Node11</title>
<g id="a_node11"><a xlink:href="../../db/d14/MCTruthContainer_8h.html" target="_top" xlink:title="Definition of a container to keep Monte Carlo truth external to simulation objects. ">
<polygon fill="none" stroke="black" points="516,-113 516,-143 630,-143 630,-113 516,-113"/>
<text text-anchor="start" x="524" y="-131" font-family="Helvetica,sans-Serif" font-size="10.00">SimulationDataFormat</text>
<text text-anchor="middle" x="573" y="-120" font-family="Helvetica,sans-Serif" font-size="10.00">/MCTruthContainer.h</text>
</a>
</g>
</g>
<!-- Node1&#45;&gt;Node11 -->
<g id="edge31" class="edge"><title>Node1&#45;&gt;Node11</title>
<path fill="none" stroke="midnightblue" d="M407.325,-248.972C417.733,-226.651 433.723,-198.762 455,-180 471.546,-165.41 492.906,-154.483 512.897,-146.566"/>
<polygon fill="midnightblue" stroke="midnightblue" points="514.148,-149.835 522.267,-143.029 511.676,-143.286 514.148,-149.835"/>
</g>
<!-- Node17 -->
<g id="node17" class="node"><title>Node17</title>
<g id="a_node17"><a xlink:href="../../d6/d31/DetID_8h.html" target="_top" xlink:title="DetectorsCommonDataFormats\l/DetID.h">
<polygon fill="none" stroke="black" points="783,-113 783,-143 939,-143 939,-113 783,-113"/>
<text text-anchor="start" x="791" y="-131" font-family="Helvetica,sans-Serif" font-size="10.00">DetectorsCommonDataFormats</text>
<text text-anchor="middle" x="861" y="-120" font-family="Helvetica,sans-Serif" font-size="10.00">/DetID.h</text>
</a>
</g>
</g>
<!-- Node1&#45;&gt;Node17 -->
<g id="edge20" class="edge"><title>Node1&#45;&gt;Node17</title>
<path fill="none" stroke="midnightblue" d="M423.45,-248.968C448.006,-220.321 479.766,-184.346 488,-180 535.963,-154.686 678.489,-140.76 772.82,-134.095"/>
<polygon fill="midnightblue" stroke="midnightblue" points="773.198,-137.577 782.933,-133.395 772.715,-130.594 773.198,-137.577"/>
</g>
<!-- Node24 -->
<g id="node24" class="node"><title>Node24</title>
<polygon fill="none" stroke="#bfbfbf" points="497,-186.5 497,-205.5 547,-205.5 547,-186.5 497,-186.5"/>
<text text-anchor="middle" x="522" y="-193.5" font-family="Helvetica,sans-Serif" font-size="10.00">TTree.h</text>
</g>
<!-- Node1&#45;&gt;Node24 -->
<g id="edge33" class="edge"><title>Node1&#45;&gt;Node24</title>
<path fill="none" stroke="midnightblue" d="M445.841,-248.953C465.202,-235.746 486.013,-221.55 500.979,-211.34"/>
<polygon fill="midnightblue" stroke="midnightblue" points="503.188,-214.07 509.477,-205.543 499.244,-208.287 503.188,-214.07"/>
</g>
<!-- Node25 -->
<g id="node25" class="node"><title>Node25</title>
<polygon fill="none" stroke="#bfbfbf" points="565,-186.5 565,-205.5 617,-205.5 617,-186.5 565,-186.5"/>
<text text-anchor="middle" x="591" y="-193.5" font-family="Helvetica,sans-Serif" font-size="10.00">memory</text>
</g>
<!-- Node1&#45;&gt;Node25 -->
<g id="edge35" class="edge"><title>Node1&#45;&gt;Node25</title>
<path fill="none" stroke="midnightblue" d="M474.105,-248.953C505.504,-234.998 539.387,-219.939 562.547,-209.646"/>
<polygon fill="midnightblue" stroke="midnightblue" points="564.062,-212.803 571.779,-205.543 561.219,-206.406 564.062,-212.803"/>
</g>
<!-- Node3 -->
<g id="node3" class="node"><title>Node3</title>
<polygon fill="none" stroke="#bfbfbf" points="261,-0.5 261,-19.5 317,-19.5 317,-0.5 261,-0.5"/>
<text text-anchor="middle" x="289" y="-7.5" font-family="Helvetica,sans-Serif" font-size="10.00">Rtypes.h</text>
</g>
<!-- Node2&#45;&gt;Node3 -->
<g id="edge2" class="edge"><title>Node2&#45;&gt;Node3</title>
<path fill="none" stroke="midnightblue" d="M303.771,-180.867C300.932,-148.216 293.913,-67.4974 290.68,-30.3169"/>
<polygon fill="midnightblue" stroke="midnightblue" points="294.126,-29.5504 289.773,-19.8912 287.153,-30.1568 294.126,-29.5504"/>
</g>
<!-- Node2&#45;&gt;Node4 -->
<g id="edge3" class="edge"><title>Node2&#45;&gt;Node4</title>
<path fill="none" stroke="midnightblue" d="M267.244,-180.841C240.473,-170.802 204.374,-157.265 175.777,-146.542"/>
<polygon fill="midnightblue" stroke="midnightblue" points="176.984,-143.256 166.392,-143.022 174.526,-149.81 176.984,-143.256"/>
</g>
<!-- Node2&#45;&gt;Node7 -->
<g id="edge17" class="edge"><title>Node2&#45;&gt;Node7</title>
<path fill="none" stroke="midnightblue" d="M295.246,-180.813C278.906,-157.044 246.073,-109.288 228.585,-83.8502"/>
<polygon fill="midnightblue" stroke="midnightblue" points="231.444,-81.8314 222.894,-75.5738 225.676,-85.7971 231.444,-81.8314"/>
</g>
<!-- Node2&#45;&gt;Node9 -->
<g id="edge9" class="edge"><title>Node2&#45;&gt;Node9</title>
<path fill="none" stroke="midnightblue" d="M321.491,-180.679C331.919,-171.623 345.57,-159.768 357.167,-149.697"/>
<polygon fill="midnightblue" stroke="midnightblue" points="359.547,-152.266 364.802,-143.066 354.957,-146.981 359.547,-152.266"/>
</g>
<!-- Node2&#45;&gt;Node11 -->
<g id="edge11" class="edge"><title>Node2&#45;&gt;Node11</title>
<path fill="none" stroke="midnightblue" d="M362.164,-180.922C404.325,-170.539 461.814,-156.382 506.112,-145.472"/>
<polygon fill="midnightblue" stroke="midnightblue" points="507.051,-148.846 515.924,-143.056 505.377,-142.049 507.051,-148.846"/>
</g>
<!-- Node4&#45;&gt;Node5 -->
<g id="edge4" class="edge"><title>Node4&#45;&gt;Node5</title>
<path fill="none" stroke="midnightblue" d="M110.989,-112.781C99.2622,-103.523 83.9849,-91.4618 72.0551,-82.0435"/>
<polygon fill="midnightblue" stroke="midnightblue" points="74.0763,-79.1799 64.0587,-75.7305 69.7388,-84.6741 74.0763,-79.1799"/>
</g>
<!-- Node4&#45;&gt;Node7 -->
<g id="edge7" class="edge"><title>Node4&#45;&gt;Node7</title>
<path fill="none" stroke="midnightblue" d="M149.855,-112.781C163.78,-103.286 182.03,-90.8434 195.988,-81.3267"/>
<polygon fill="midnightblue" stroke="midnightblue" points="198.161,-84.0809 204.452,-75.5557 194.218,-78.2973 198.161,-84.0809"/>
</g>
<!-- Node8 -->
<g id="node8" class="node"><title>Node8</title>
<polygon fill="none" stroke="#bfbfbf" points="125,-56.5 125,-75.5 165,-75.5 165,-56.5 125,-56.5"/>
<text text-anchor="middle" x="145" y="-63.5" font-family="Helvetica,sans-Serif" font-size="10.00">utility</text>
</g>
<!-- Node4&#45;&gt;Node8 -->
<g id="edge8" class="edge"><title>Node4&#45;&gt;Node8</title>
<path fill="none" stroke="midnightblue" d="M132.792,-112.781C134.973,-104.601 137.738,-94.2341 140.084,-85.4344"/>
<polygon fill="midnightblue" stroke="midnightblue" points="143.477,-86.2947 142.672,-75.7305 136.713,-84.491 143.477,-86.2947"/>
</g>
<!-- Node5&#45;&gt;Node3 -->
<g id="edge5" class="edge"><title>Node5&#45;&gt;Node3</title>
<path fill="none" stroke="midnightblue" d="M90.3949,-56.4435C134.286,-46.4007 206.677,-29.8367 250.879,-19.7226"/>
<polygon fill="midnightblue" stroke="midnightblue" points="251.701,-23.125 260.668,-17.4826 250.14,-16.3014 251.701,-23.125"/>
</g>
<!-- Node6 -->
<g id="node6" class="node"><title>Node6</title>
<polygon fill="none" stroke="#bfbfbf" points="30.5,-0.5 30.5,-19.5 75.5,-19.5 75.5,-0.5 30.5,-0.5"/>
<text text-anchor="middle" x="53" y="-7.5" font-family="Helvetica,sans-Serif" font-size="10.00">climits</text>
</g>
<!-- Node5&#45;&gt;Node6 -->
<g id="edge6" class="edge"><title>Node5&#45;&gt;Node6</title>
<path fill="none" stroke="midnightblue" d="M53,-56.083C53,-49.0059 53,-38.8611 53,-29.9865"/>
<polygon fill="midnightblue" stroke="midnightblue" points="56.5001,-29.751 53,-19.7511 49.5001,-29.7511 56.5001,-29.751"/>
</g>
<!-- Node10 -->
<g id="node10" class="node"><title>Node10</title>
<polygon fill="none" stroke="#bfbfbf" points="317,-56.5 317,-75.5 445,-75.5 445,-56.5 317,-56.5"/>
<text text-anchor="middle" x="381" y="-63.5" font-family="Helvetica,sans-Serif" font-size="10.00">AliTPCCommonRtypes.h</text>
</g>
<!-- Node9&#45;&gt;Node10 -->
<g id="edge10" class="edge"><title>Node9&#45;&gt;Node10</title>
<path fill="none" stroke="midnightblue" d="M381,-112.781C381,-104.781 381,-94.6887 381,-86.0168"/>
<polygon fill="midnightblue" stroke="midnightblue" points="384.5,-85.7305 381,-75.7305 377.5,-85.7306 384.5,-85.7305"/>
</g>
<!-- Node12 -->
<g id="node12" class="node"><title>Node12</title>
<polygon fill="none" stroke="#bfbfbf" points="463,-56.5 463,-75.5 525,-75.5 525,-56.5 463,-56.5"/>
<text text-anchor="middle" x="494" y="-63.5" font-family="Helvetica,sans-Serif" font-size="10.00">TNamed.h</text>
</g>
<!-- Node11&#45;&gt;Node12 -->
<g id="edge12" class="edge"><title>Node11&#45;&gt;Node12</title>
<path fill="none" stroke="midnightblue" d="M554.278,-112.781C542.088,-103.523 526.208,-91.4618 513.807,-82.0435"/>
<polygon fill="midnightblue" stroke="midnightblue" points="515.576,-78.9916 505.495,-75.7305 511.342,-84.5661 515.576,-78.9916"/>
</g>
<!-- Node13 -->
<g id="node13" class="node"><title>Node13</title>
<polygon fill="none" stroke="#bfbfbf" points="764.5,-56.5 764.5,-75.5 813.5,-75.5 813.5,-56.5 764.5,-56.5"/>
<text text-anchor="middle" x="789" y="-63.5" font-family="Helvetica,sans-Serif" font-size="10.00">cassert</text>
</g>
<!-- Node11&#45;&gt;Node13 -->
<g id="edge13" class="edge"><title>Node11&#45;&gt;Node13</title>
<path fill="none" stroke="midnightblue" d="M623.642,-112.933C663.932,-101.741 719.223,-86.3825 754.537,-76.573"/>
<polygon fill="midnightblue" stroke="midnightblue" points="755.679,-79.8884 764.377,-73.8396 753.805,-73.1438 755.679,-79.8884"/>
</g>
<!-- Node14 -->
<g id="node14" class="node"><title>Node14</title>
<polygon fill="none" stroke="#bfbfbf" points="543.5,-56.5 543.5,-75.5 602.5,-75.5 602.5,-56.5 543.5,-56.5"/>
<text text-anchor="middle" x="573" y="-63.5" font-family="Helvetica,sans-Serif" font-size="10.00">stdexcept</text>
</g>
<!-- Node11&#45;&gt;Node14 -->
<g id="edge14" class="edge"><title>Node11&#45;&gt;Node14</title>
<path fill="none" stroke="midnightblue" d="M573,-112.781C573,-104.781 573,-94.6887 573,-86.0168"/>
<polygon fill="midnightblue" stroke="midnightblue" points="576.5,-85.7305 573,-75.7305 569.5,-85.7306 576.5,-85.7305"/>
</g>
<!-- Node15 -->
<g id="node15" class="node"><title>Node15</title>
<polygon fill="none" stroke="#bfbfbf" points="620.5,-56.5 620.5,-75.5 665.5,-75.5 665.5,-56.5 620.5,-56.5"/>
<text text-anchor="middle" x="643" y="-63.5" font-family="Helvetica,sans-Serif" font-size="10.00">gsl/gsl</text>
</g>
<!-- Node11&#45;&gt;Node15 -->
<g id="edge15" class="edge"><title>Node11&#45;&gt;Node15</title>
<path fill="none" stroke="midnightblue" d="M589.589,-112.781C600.285,-103.613 614.188,-91.6957 625.128,-82.3186"/>
<polygon fill="midnightblue" stroke="midnightblue" points="627.5,-84.8959 632.814,-75.7305 622.944,-79.5811 627.5,-84.8959"/>
</g>
<!-- Node16 -->
<g id="node16" class="node"><title>Node16</title>
<polygon fill="none" stroke="#bfbfbf" points="684,-56.5 684,-75.5 746,-75.5 746,-56.5 684,-56.5"/>
<text text-anchor="middle" x="715" y="-63.5" font-family="Helvetica,sans-Serif" font-size="10.00">type_traits</text>
</g>
<!-- Node11&#45;&gt;Node16 -->
<g id="edge16" class="edge"><title>Node11&#45;&gt;Node16</title>
<path fill="none" stroke="midnightblue" d="M606.293,-112.933C630.25,-102.81 662.276,-89.2779 685.354,-79.5267"/>
<polygon fill="midnightblue" stroke="midnightblue" points="686.797,-82.7163 694.647,-75.6 684.073,-76.2682 686.797,-82.7163"/>
</g>
<!-- Node17&#45;&gt;Node3 -->
<g id="edge21" class="edge"><title>Node17&#45;&gt;Node3</title>
<path fill="none" stroke="midnightblue" d="M857.54,-112.757C852.666,-96.0636 842.046,-69.0293 822,-56 780.756,-29.1919 442.654,-15.9335 327.354,-12.1601"/>
<polygon fill="midnightblue" stroke="midnightblue" points="327.33,-8.65761 317.222,-11.8343 327.105,-15.654 327.33,-8.65761"/>
</g>
<!-- Node17&#45;&gt;Node13 -->
<g id="edge24" class="edge"><title>Node17&#45;&gt;Node13</title>
<path fill="none" stroke="midnightblue" d="M843.937,-112.781C832.935,-103.613 818.635,-91.6957 807.382,-82.3186"/>
<polygon fill="midnightblue" stroke="midnightblue" points="809.4,-79.4436 799.477,-75.7305 804.918,-84.8212 809.4,-79.4436"/>
</g>
<!-- Node17&#45;&gt;Node16 -->
<g id="edge26" class="edge"><title>Node17&#45;&gt;Node16</title>
<path fill="none" stroke="midnightblue" d="M826.769,-112.933C802.138,-102.81 769.21,-89.2779 745.482,-79.5267"/>
<polygon fill="midnightblue" stroke="midnightblue" points="746.507,-76.1639 735.927,-75.6 743.846,-82.6385 746.507,-76.1639"/>
</g>
<!-- Node18 -->
<g id="node18" class="node"><title>Node18</title>
<polygon fill="none" stroke="#bfbfbf" points="878,-0.5 878,-19.5 916,-19.5 916,-0.5 878,-0.5"/>
<text text-anchor="middle" x="897" y="-7.5" font-family="Helvetica,sans-Serif" font-size="10.00">array</text>
</g>
<!-- Node17&#45;&gt;Node18 -->
<g id="edge22" class="edge"><title>Node17&#45;&gt;Node18</title>
<path fill="none" stroke="midnightblue" d="M865.414,-112.776C871.93,-91.7807 884.124,-52.4884 891.306,-29.3487"/>
<polygon fill="midnightblue" stroke="midnightblue" points="894.676,-30.2951 894.298,-19.707 887.991,-28.2202 894.676,-30.2951"/>
</g>
<!-- Node19 -->
<g id="node19" class="node"><title>Node19</title>
<polygon fill="none" stroke="#bfbfbf" points="908.5,-56.5 908.5,-75.5 949.5,-75.5 949.5,-56.5 908.5,-56.5"/>
<text text-anchor="middle" x="929" y="-63.5" font-family="Helvetica,sans-Serif" font-size="10.00">bitset</text>
</g>
<!-- Node17&#45;&gt;Node19 -->
<g id="edge23" class="edge"><title>Node17&#45;&gt;Node19</title>
<path fill="none" stroke="midnightblue" d="M877.115,-112.781C887.404,-103.703 900.747,-91.9291 911.326,-82.5951"/>
<polygon fill="midnightblue" stroke="midnightblue" points="913.923,-84.9712 919.105,-75.7305 909.291,-79.7223 913.923,-84.9712"/>
</g>
<!-- Node20 -->
<g id="node20" class="node"><title>Node20</title>
<polygon fill="none" stroke="#bfbfbf" points="968,-56.5 968,-75.5 1014,-75.5 1014,-56.5 968,-56.5"/>
<text text-anchor="middle" x="991" y="-63.5" font-family="Helvetica,sans-Serif" font-size="10.00">cstdint</text>
</g>
<!-- Node17&#45;&gt;Node20 -->
<g id="edge25" class="edge"><title>Node17&#45;&gt;Node20</title>
<path fill="none" stroke="midnightblue" d="M891.479,-112.933C913.118,-102.946 941.947,-89.6397 963.006,-79.9205"/>
<polygon fill="midnightblue" stroke="midnightblue" points="964.754,-82.9685 972.367,-75.6 961.82,-76.6128 964.754,-82.9685"/>
</g>
<!-- Node21 -->
<g id="node21" class="node"><title>Node21</title>
<g id="a_node21"><a xlink:href="../../d9/d52/Common_2MathUtils_2include_2MathUtils_2Utils_8h.html" target="_top" xlink:title="MathUtils/Utils.h">
<polygon fill="none" stroke="black" points="1032,-56.5 1032,-75.5 1122,-75.5 1122,-56.5 1032,-56.5"/>
<text text-anchor="middle" x="1077" y="-63.5" font-family="Helvetica,sans-Serif" font-size="10.00">MathUtils/Utils.h</text>
</a>
</g>
</g>
<!-- Node17&#45;&gt;Node21 -->
<g id="edge27" class="edge"><title>Node17&#45;&gt;Node21</title>
<path fill="none" stroke="midnightblue" d="M911.642,-112.933C949.662,-102.372 1001.04,-88.0998 1036.38,-78.282"/>
<polygon fill="midnightblue" stroke="midnightblue" points="1037.66,-81.5615 1046.35,-75.5127 1035.78,-74.8169 1037.66,-81.5615"/>
</g>
<!-- Node21&#45;&gt;Node18 -->
<g id="edge28" class="edge"><title>Node21&#45;&gt;Node18</title>
<path fill="none" stroke="midnightblue" d="M1048.48,-56.4435C1014.88,-46.3638 959.383,-29.7148 925.704,-19.6113"/>
<polygon fill="midnightblue" stroke="midnightblue" points="926.585,-16.2215 916.001,-16.7003 924.574,-22.9263 926.585,-16.2215"/>
</g>
<!-- Node22 -->
<g id="node22" class="node"><title>Node22</title>
<polygon fill="none" stroke="#bfbfbf" points="1167,-0.5 1167,-19.5 1211,-19.5 1211,-0.5 1167,-0.5"/>
<text text-anchor="middle" x="1189" y="-7.5" font-family="Helvetica,sans-Serif" font-size="10.00">cmath</text>
</g>
<!-- Node21&#45;&gt;Node22 -->
<g id="edge29" class="edge"><title>Node21&#45;&gt;Node22</title>
<path fill="none" stroke="midnightblue" d="M1094.99,-56.324C1113.04,-47.6247 1141.05,-34.1202 1161.8,-24.113"/>
<polygon fill="midnightblue" stroke="midnightblue" points="1163.56,-27.1502 1171.05,-19.6545 1160.52,-20.8449 1163.56,-27.1502"/>
</g>
<!-- Node23 -->
<g id="node23" class="node"><title>Node23</title>
<g id="a_node23"><a xlink:href="../../d6/d84/MathConstants_8h.html" target="_top" xlink:title="useful math constants ">
<polygon fill="none" stroke="black" points="969.5,-0.5 969.5,-19.5 1148.5,-19.5 1148.5,-0.5 969.5,-0.5"/>
<text text-anchor="middle" x="1059" y="-7.5" font-family="Helvetica,sans-Serif" font-size="10.00">CommonConstants/MathConstants.h</text>
</a>
</g>
</g>
<!-- Node21&#45;&gt;Node23 -->
<g id="edge30" class="edge"><title>Node21&#45;&gt;Node23</title>
<path fill="none" stroke="midnightblue" d="M1074.03,-56.083C1071.62,-48.8486 1068.14,-38.4087 1065.13,-29.3968"/>
<polygon fill="midnightblue" stroke="midnightblue" points="1068.4,-28.1311 1061.92,-19.7511 1061.76,-30.3447 1068.4,-28.1311"/>
</g>
</g>
</svg>
