<?xml version="1.0" encoding="UTF-8" standalone="no"?>
<!DOCTYPE svg PUBLIC "-//W3C//DTD SVG 1.1//EN"
 "http://www.w3.org/Graphics/SVG/1.1/DTD/svg11.dtd">
<!-- Generated by graphviz version 2.36.0 (20140111.2315)
 -->
<!-- Title: /home/travis/build/AliceO2Group/AliceO2/DataFormats/common/include/CommonDataFormat/EvIndex.h Pages: 1 -->
<svg width="2359pt" height="452pt"
 viewBox="0.00 0.00 2359.00 452.00" xmlns="http://www.w3.org/2000/svg" xmlns:xlink="http://www.w3.org/1999/xlink">
<g id="graph0" class="graph" transform="scale(1 1) rotate(0) translate(4 448)">
<title>/home/travis/build/AliceO2Group/AliceO2/DataFormats/common/include/CommonDataFormat/EvIndex.h</title>
<!-- Node1 -->
<g id="node1" class="node"><title>Node1</title>
<polygon fill="#bfbfbf" stroke="black" points="1953,-391 1953,-443 2111,-443 2111,-391 1953,-391"/>
<text text-anchor="start" x="1961" y="-431" font-family="Helvetica,sans-Serif" font-size="10.00">/home/travis/build</text>
<text text-anchor="start" x="1961" y="-420" font-family="Helvetica,sans-Serif" font-size="10.00">/AliceO2Group/AliceO2</text>
<text text-anchor="start" x="1961" y="-409" font-family="Helvetica,sans-Serif" font-size="10.00">/DataFormats/common/include</text>
<text text-anchor="middle" x="2032" y="-398" font-family="Helvetica,sans-Serif" font-size="10.00">/CommonDataFormat/EvIndex.h</text>
</g>
<!-- Node2 -->
<g id="node2" class="node"><title>Node2</title>
<g id="a_node2"><a xlink:href="../../d5/d08/ROFRecord_8h.html" target="_top" xlink:title="Definition of the ITSMFT ROFrame (trigger) record. ">
<polygon fill="none" stroke="black" points="947,-290.5 947,-353.5 1123,-353.5 1123,-290.5 947,-290.5"/>
<text text-anchor="start" x="955" y="-341.5" font-family="Helvetica,sans-Serif" font-size="10.00">/home/travis/build</text>
<text text-anchor="start" x="955" y="-330.5" font-family="Helvetica,sans-Serif" font-size="10.00">/AliceO2Group/AliceO2</text>
<text text-anchor="start" x="955" y="-319.5" font-family="Helvetica,sans-Serif" font-size="10.00">/DataFormats/Detectors</text>
<text text-anchor="start" x="955" y="-308.5" font-family="Helvetica,sans-Serif" font-size="10.00">/ITSMFT/common/include</text>
<text text-anchor="middle" x="1035" y="-297.5" font-family="Helvetica,sans-Serif" font-size="10.00">/DataFormatsITSMFT/ROFRecord.h</text>
</a>
</g>
</g>
<!-- Node1&#45;&gt;Node2 -->
<g id="edge1" class="edge"><title>Node1&#45;&gt;Node2</title>
<path fill="none" stroke="midnightblue" d="M1942.72,-407.672C1753.08,-389.983 1312.02,-348.84 1123.27,-331.234"/>
<polygon fill="midnightblue" stroke="midnightblue" points="1942.65,-411.181 1952.93,-408.625 1943.3,-404.211 1942.65,-411.181"/>
</g>
<!-- Node23 -->
<g id="node23" class="node"><title>Node23</title>
<g id="a_node23"><a xlink:href="../../d5/d1e/TrackTPCITS_8h.html" target="_top" xlink:title="Result of refitting TPC&#45;ITS matched track. ">
<polygon fill="none" stroke="black" points="2011,-290.5 2011,-353.5 2187,-353.5 2187,-290.5 2011,-290.5"/>
<text text-anchor="start" x="2019" y="-341.5" font-family="Helvetica,sans-Serif" font-size="10.00">/home/travis/build</text>
<text text-anchor="start" x="2019" y="-330.5" font-family="Helvetica,sans-Serif" font-size="10.00">/AliceO2Group/AliceO2</text>
<text text-anchor="start" x="2019" y="-319.5" font-family="Helvetica,sans-Serif" font-size="10.00">/DataFormats/Reconstruction</text>
<text text-anchor="start" x="2019" y="-308.5" font-family="Helvetica,sans-Serif" font-size="10.00">/include/ReconstructionDataFormats</text>
<text text-anchor="middle" x="2099" y="-297.5" font-family="Helvetica,sans-Serif" font-size="10.00">/TrackTPCITS.h</text>
</a>
</g>
</g>
<!-- Node1&#45;&gt;Node23 -->
<g id="edge23" class="edge"><title>Node1&#45;&gt;Node23</title>
<path fill="none" stroke="midnightblue" d="M2056.3,-382.265C2063.03,-372.923 2070.3,-362.835 2076.9,-353.677"/>
<polygon fill="midnightblue" stroke="midnightblue" points="2053.31,-380.428 2050.31,-390.587 2058.99,-384.52 2053.31,-380.428"/>
</g>
<!-- Node25 -->
<g id="node25" class="node"><title>Node25</title>
<g id="a_node25"><a xlink:href="../../d0/d74/MatchTOF_8h.html" target="_top" xlink:title="Class to perform TOF matching to global tracks. ">
<polygon fill="none" stroke="black" points="2130,-96 2130,-148 2306,-148 2306,-96 2130,-96"/>
<text text-anchor="start" x="2138" y="-136" font-family="Helvetica,sans-Serif" font-size="10.00">/home/travis/build</text>
<text text-anchor="start" x="2138" y="-125" font-family="Helvetica,sans-Serif" font-size="10.00">/AliceO2Group/AliceO2</text>
<text text-anchor="start" x="2138" y="-114" font-family="Helvetica,sans-Serif" font-size="10.00">/Detectors/GlobalTracking</text>
<text text-anchor="middle" x="2218" y="-103" font-family="Helvetica,sans-Serif" font-size="10.00">/include/GlobalTracking/MatchTOF.h</text>
</a>
</g>
</g>
<!-- Node1&#45;&gt;Node25 -->
<g id="edge32" class="edge"><title>Node1&#45;&gt;Node25</title>
<path fill="none" stroke="midnightblue" d="M2120.81,-398.791C2147.87,-389.574 2175.56,-375.488 2195,-354 2246.92,-296.624 2233.9,-195.374 2224.14,-148.336"/>
<polygon fill="midnightblue" stroke="midnightblue" points="2119.74,-395.461 2111.29,-401.852 2121.88,-402.125 2119.74,-395.461"/>
</g>
<!-- Node28 -->
<g id="node28" class="node"><title>Node28</title>
<g id="a_node28"><a xlink:href="../../d3/dac/MatchTPCITS_8h.html" target="_top" xlink:title="Class to perform TPC ITS matching. ">
<polygon fill="none" stroke="black" points="1832.5,-196 1832.5,-248 2025.5,-248 2025.5,-196 1832.5,-196"/>
<text text-anchor="start" x="1840.5" y="-236" font-family="Helvetica,sans-Serif" font-size="10.00">/home/travis/build</text>
<text text-anchor="start" x="1840.5" y="-225" font-family="Helvetica,sans-Serif" font-size="10.00">/AliceO2Group/AliceO2</text>
<text text-anchor="start" x="1840.5" y="-214" font-family="Helvetica,sans-Serif" font-size="10.00">/Detectors/GlobalTracking</text>
<text text-anchor="middle" x="1929" y="-203" font-family="Helvetica,sans-Serif" font-size="10.00">/include/GlobalTracking/MatchTPCITS.h</text>
</a>
</g>
</g>
<!-- Node1&#45;&gt;Node28 -->
<g id="edge33" class="edge"><title>Node1&#45;&gt;Node28</title>
<path fill="none" stroke="midnightblue" d="M2013.62,-381.552C1993.18,-343.262 1960.67,-282.339 1942.47,-248.238"/>
<polygon fill="midnightblue" stroke="midnightblue" points="2010.74,-383.594 2018.53,-390.769 2016.91,-380.298 2010.74,-383.594"/>
</g>
<!-- Node3 -->
<g id="node3" class="node"><title>Node3</title>
<g id="a_node3"><a xlink:href="../../db/d21/ROFRecord_8cxx.html" target="_top" xlink:title="/home/travis/build\l/AliceO2Group/AliceO2\l/DataFormats/Detectors\l/ITSMFT/common/src/ROFRecord.cxx">
<polygon fill="none" stroke="black" points="1212.5,-196 1212.5,-248 1399.5,-248 1399.5,-196 1212.5,-196"/>
<text text-anchor="start" x="1220.5" y="-236" font-family="Helvetica,sans-Serif" font-size="10.00">/home/travis/build</text>
<text text-anchor="start" x="1220.5" y="-225" font-family="Helvetica,sans-Serif" font-size="10.00">/AliceO2Group/AliceO2</text>
<text text-anchor="start" x="1220.5" y="-214" font-family="Helvetica,sans-Serif" font-size="10.00">/DataFormats/Detectors</text>
<text text-anchor="middle" x="1306" y="-203" font-family="Helvetica,sans-Serif" font-size="10.00">/ITSMFT/common/src/ROFRecord.cxx</text>
</a>
</g>
</g>
<!-- Node2&#45;&gt;Node3 -->
<g id="edge2" class="edge"><title>Node2&#45;&gt;Node3</title>
<path fill="none" stroke="midnightblue" d="M1129.45,-286.846C1164.66,-274.11 1203.97,-259.898 1236.53,-248.121"/>
<polygon fill="midnightblue" stroke="midnightblue" points="1127.85,-283.703 1119.63,-290.395 1130.23,-290.286 1127.85,-283.703"/>
</g>
<!-- Node4 -->
<g id="node4" class="node"><title>Node4</title>
<g id="a_node4"><a xlink:href="../../d7/d9c/ITSMFT_2common_2simulation_2include_2ITSMFTSimulation_2Digitizer_8h.html" target="_top" xlink:title="/home/travis/build\l/AliceO2Group/AliceO2\l/Detectors/ITSMFT/common\l/simulation/include/ITSMFTSimulation\l/Digitizer.h">
<polygon fill="none" stroke="black" points="1418,-190.5 1418,-253.5 1600,-253.5 1600,-190.5 1418,-190.5"/>
<text text-anchor="start" x="1426" y="-241.5" font-family="Helvetica,sans-Serif" font-size="10.00">/home/travis/build</text>
<text text-anchor="start" x="1426" y="-230.5" font-family="Helvetica,sans-Serif" font-size="10.00">/AliceO2Group/AliceO2</text>
<text text-anchor="start" x="1426" y="-219.5" font-family="Helvetica,sans-Serif" font-size="10.00">/Detectors/ITSMFT/common</text>
<text text-anchor="start" x="1426" y="-208.5" font-family="Helvetica,sans-Serif" font-size="10.00">/simulation/include/ITSMFTSimulation</text>
<text text-anchor="middle" x="1509" y="-197.5" font-family="Helvetica,sans-Serif" font-size="10.00">/Digitizer.h</text>
</a>
</g>
</g>
<!-- Node2&#45;&gt;Node4 -->
<g id="edge3" class="edge"><title>Node2&#45;&gt;Node4</title>
<path fill="none" stroke="midnightblue" d="M1133.04,-306.688C1208.66,-294.856 1315.6,-276.394 1408,-254 1411.21,-253.222 1414.47,-252.401 1417.75,-251.545"/>
<polygon fill="midnightblue" stroke="midnightblue" points="1132.39,-303.247 1123.04,-308.242 1133.46,-310.164 1132.39,-303.247"/>
</g>
<!-- Node14 -->
<g id="node14" class="node"><title>Node14</title>
<g id="a_node14"><a xlink:href="../../d3/d43/ITSMFTDigitizerSpec_8cxx.html" target="_top" xlink:title="/home/travis/build\l/AliceO2Group/AliceO2\l/Steer/DigitizerWorkflow\l/src/ITSMFTDigitizerSpec.cxx">
<polygon fill="none" stroke="black" points="1598.5,-96 1598.5,-148 1747.5,-148 1747.5,-96 1598.5,-96"/>
<text text-anchor="start" x="1606.5" y="-136" font-family="Helvetica,sans-Serif" font-size="10.00">/home/travis/build</text>
<text text-anchor="start" x="1606.5" y="-125" font-family="Helvetica,sans-Serif" font-size="10.00">/AliceO2Group/AliceO2</text>
<text text-anchor="start" x="1606.5" y="-114" font-family="Helvetica,sans-Serif" font-size="10.00">/Steer/DigitizerWorkflow</text>
<text text-anchor="middle" x="1673" y="-103" font-family="Helvetica,sans-Serif" font-size="10.00">/src/ITSMFTDigitizerSpec.cxx</text>
</a>
</g>
</g>
<!-- Node2&#45;&gt;Node14 -->
<g id="edge21" class="edge"><title>Node2&#45;&gt;Node14</title>
<path fill="none" stroke="midnightblue" d="M1133.33,-320.656C1276.83,-318.326 1534.64,-306.667 1609,-254 1618.37,-247.361 1646.63,-184.288 1662.28,-148.139"/>
<polygon fill="midnightblue" stroke="midnightblue" points="1133.15,-317.158 1123.2,-320.808 1133.25,-324.158 1133.15,-317.158"/>
</g>
<!-- Node15 -->
<g id="node15" class="node"><title>Node15</title>
<g id="a_node15"><a xlink:href="../../d3/da3/ITSMFT_2ITS_2workflow_2src_2ClustererSpec_8cxx.html" target="_top" xlink:title="/home/travis/build\l/AliceO2Group/AliceO2\l/Detectors/ITSMFT/ITS\l/workflow/src/ClustererSpec.cxx">
<polygon fill="none" stroke="black" points="1655.5,-196 1655.5,-248 1814.5,-248 1814.5,-196 1655.5,-196"/>
<text text-anchor="start" x="1663.5" y="-236" font-family="Helvetica,sans-Serif" font-size="10.00">/home/travis/build</text>
<text text-anchor="start" x="1663.5" y="-225" font-family="Helvetica,sans-Serif" font-size="10.00">/AliceO2Group/AliceO2</text>
<text text-anchor="start" x="1663.5" y="-214" font-family="Helvetica,sans-Serif" font-size="10.00">/Detectors/ITSMFT/ITS</text>
<text text-anchor="middle" x="1735" y="-203" font-family="Helvetica,sans-Serif" font-size="10.00">/workflow/src/ClustererSpec.cxx</text>
</a>
</g>
</g>
<!-- Node2&#45;&gt;Node15 -->
<g id="edge14" class="edge"><title>Node2&#45;&gt;Node15</title>
<path fill="none" stroke="midnightblue" d="M1133.49,-316.545C1254.43,-309.61 1465.27,-292.749 1642,-254 1649.56,-252.342 1657.38,-250.293 1665.11,-248.046"/>
<polygon fill="midnightblue" stroke="midnightblue" points="1132.93,-313.071 1123.15,-317.127 1133.33,-320.06 1132.93,-313.071"/>
</g>
<!-- Node16 -->
<g id="node16" class="node"><title>Node16</title>
<g id="a_node16"><a xlink:href="../../df/d56/ClusterWriterSpec_8cxx.html" target="_top" xlink:title="/home/travis/build\l/AliceO2Group/AliceO2\l/Detectors/ITSMFT/ITS\l/workflow/src/ClusterWriterSpec.cxx">
<polygon fill="none" stroke="black" points="-0.5,-196 -0.5,-248 176.5,-248 176.5,-196 -0.5,-196"/>
<text text-anchor="start" x="7.5" y="-236" font-family="Helvetica,sans-Serif" font-size="10.00">/home/travis/build</text>
<text text-anchor="start" x="7.5" y="-225" font-family="Helvetica,sans-Serif" font-size="10.00">/AliceO2Group/AliceO2</text>
<text text-anchor="start" x="7.5" y="-214" font-family="Helvetica,sans-Serif" font-size="10.00">/Detectors/ITSMFT/ITS</text>
<text text-anchor="middle" x="88" y="-203" font-family="Helvetica,sans-Serif" font-size="10.00">/workflow/src/ClusterWriterSpec.cxx</text>
</a>
</g>
</g>
<!-- Node2&#45;&gt;Node16 -->
<g id="edge15" class="edge"><title>Node2&#45;&gt;Node16</title>
<path fill="none" stroke="midnightblue" d="M936.657,-320.573C777.308,-318.25 453.448,-306.741 185,-254 176.847,-252.398 168.417,-250.34 160.089,-248.046"/>
<polygon fill="midnightblue" stroke="midnightblue" points="936.866,-324.076 946.913,-320.713 936.961,-317.077 936.866,-324.076"/>
</g>
<!-- Node17 -->
<g id="node17" class="node"><title>Node17</title>
<g id="a_node17"><a xlink:href="../../d6/dbc/CookedTrackerSpec_8cxx.html" target="_top" xlink:title="/home/travis/build\l/AliceO2Group/AliceO2\l/Detectors/ITSMFT/ITS\l/workflow/src/CookedTrackerSpec.cxx">
<polygon fill="none" stroke="black" points="194,-196 194,-248 380,-248 380,-196 194,-196"/>
<text text-anchor="start" x="202" y="-236" font-family="Helvetica,sans-Serif" font-size="10.00">/home/travis/build</text>
<text text-anchor="start" x="202" y="-225" font-family="Helvetica,sans-Serif" font-size="10.00">/AliceO2Group/AliceO2</text>
<text text-anchor="start" x="202" y="-214" font-family="Helvetica,sans-Serif" font-size="10.00">/Detectors/ITSMFT/ITS</text>
<text text-anchor="middle" x="287" y="-203" font-family="Helvetica,sans-Serif" font-size="10.00">/workflow/src/CookedTrackerSpec.cxx</text>
</a>
</g>
</g>
<!-- Node2&#45;&gt;Node17 -->
<g id="edge16" class="edge"><title>Node2&#45;&gt;Node17</title>
<path fill="none" stroke="midnightblue" d="M936.827,-316.677C809.451,-309.735 580.816,-292.723 389,-254 380.745,-252.334 372.203,-250.28 363.736,-248.03"/>
<polygon fill="midnightblue" stroke="midnightblue" points="936.777,-320.179 946.95,-317.219 937.151,-313.189 936.777,-320.179"/>
</g>
<!-- Node18 -->
<g id="node18" class="node"><title>Node18</title>
<g id="a_node18"><a xlink:href="../../d5/dce/DigitReaderSpec_8cxx.html" target="_top" xlink:title="/home/travis/build\l/AliceO2Group/AliceO2\l/Detectors/ITSMFT/ITS\l/workflow/src/DigitReaderSpec.cxx">
<polygon fill="none" stroke="black" points="398.5,-196 398.5,-248 569.5,-248 569.5,-196 398.5,-196"/>
<text text-anchor="start" x="406.5" y="-236" font-family="Helvetica,sans-Serif" font-size="10.00">/home/travis/build</text>
<text text-anchor="start" x="406.5" y="-225" font-family="Helvetica,sans-Serif" font-size="10.00">/AliceO2Group/AliceO2</text>
<text text-anchor="start" x="406.5" y="-214" font-family="Helvetica,sans-Serif" font-size="10.00">/Detectors/ITSMFT/ITS</text>
<text text-anchor="middle" x="484" y="-203" font-family="Helvetica,sans-Serif" font-size="10.00">/workflow/src/DigitReaderSpec.cxx</text>
</a>
</g>
</g>
<!-- Node2&#45;&gt;Node18 -->
<g id="edge17" class="edge"><title>Node2&#45;&gt;Node18</title>
<path fill="none" stroke="midnightblue" d="M936.791,-311.44C843.825,-301.247 700.758,-282.593 579,-254 571.653,-252.275 564.06,-250.241 556.516,-248.053"/>
<polygon fill="midnightblue" stroke="midnightblue" points="936.431,-314.921 946.75,-312.52 937.186,-307.962 936.431,-314.921"/>
</g>
<!-- Node19 -->
<g id="node19" class="node"><title>Node19</title>
<g id="a_node19"><a xlink:href="../../d7/da1/TrackerSpec_8cxx.html" target="_top" xlink:title="/home/travis/build\l/AliceO2Group/AliceO2\l/Detectors/ITSMFT/ITS\l/workflow/src/TrackerSpec.cxx">
<polygon fill="none" stroke="black" points="588,-196 588,-248 740,-248 740,-196 588,-196"/>
<text text-anchor="start" x="596" y="-236" font-family="Helvetica,sans-Serif" font-size="10.00">/home/travis/build</text>
<text text-anchor="start" x="596" y="-225" font-family="Helvetica,sans-Serif" font-size="10.00">/AliceO2Group/AliceO2</text>
<text text-anchor="start" x="596" y="-214" font-family="Helvetica,sans-Serif" font-size="10.00">/Detectors/ITSMFT/ITS</text>
<text text-anchor="middle" x="664" y="-203" font-family="Helvetica,sans-Serif" font-size="10.00">/workflow/src/TrackerSpec.cxx</text>
</a>
</g>
</g>
<!-- Node2&#45;&gt;Node19 -->
<g id="edge18" class="edge"><title>Node2&#45;&gt;Node19</title>
<path fill="none" stroke="midnightblue" d="M937.136,-301.11C881.54,-289.056 810.89,-272.463 749,-254 742.979,-252.204 736.765,-250.212 730.564,-248.13"/>
<polygon fill="midnightblue" stroke="midnightblue" points="936.469,-304.547 946.982,-303.232 937.944,-297.704 936.469,-304.547"/>
</g>
<!-- Node20 -->
<g id="node20" class="node"><title>Node20</title>
<g id="a_node20"><a xlink:href="../../de/d0c/readEMCHits_8C.html" target="_top" xlink:title="/home/travis/build\l/AliceO2Group/AliceO2\l/macro/readEMCHits.C">
<polygon fill="none" stroke="black" points="758.5,-201.5 758.5,-242.5 877.5,-242.5 877.5,-201.5 758.5,-201.5"/>
<text text-anchor="start" x="766.5" y="-230.5" font-family="Helvetica,sans-Serif" font-size="10.00">/home/travis/build</text>
<text text-anchor="start" x="766.5" y="-219.5" font-family="Helvetica,sans-Serif" font-size="10.00">/AliceO2Group/AliceO2</text>
<text text-anchor="middle" x="818" y="-208.5" font-family="Helvetica,sans-Serif" font-size="10.00">/macro/readEMCHits.C</text>
</a>
</g>
</g>
<!-- Node2&#45;&gt;Node20 -->
<g id="edge19" class="edge"><title>Node2&#45;&gt;Node20</title>
<path fill="none" stroke="midnightblue" d="M957.771,-286.122C925.377,-271.493 888.916,-255.027 861.358,-242.581"/>
<polygon fill="midnightblue" stroke="midnightblue" points="956.678,-289.469 967.232,-290.395 959.559,-283.09 956.678,-289.469"/>
</g>
<!-- Node21 -->
<g id="node21" class="node"><title>Node21</title>
<g id="a_node21"><a xlink:href="../../df/d25/readITSDigits_8C.html" target="_top" xlink:title="/home/travis/build\l/AliceO2Group/AliceO2\l/macro/readITSDigits.C">
<polygon fill="none" stroke="black" points="896,-201.5 896,-242.5 1016,-242.5 1016,-201.5 896,-201.5"/>
<text text-anchor="start" x="904" y="-230.5" font-family="Helvetica,sans-Serif" font-size="10.00">/home/travis/build</text>
<text text-anchor="start" x="904" y="-219.5" font-family="Helvetica,sans-Serif" font-size="10.00">/AliceO2Group/AliceO2</text>
<text text-anchor="middle" x="956" y="-208.5" font-family="Helvetica,sans-Serif" font-size="10.00">/macro/readITSDigits.C</text>
</a>
</g>
</g>
<!-- Node2&#45;&gt;Node21 -->
<g id="edge20" class="edge"><title>Node2&#45;&gt;Node21</title>
<path fill="none" stroke="midnightblue" d="M1003.87,-282.382C992.856,-268.72 980.933,-253.93 971.741,-242.527"/>
<polygon fill="midnightblue" stroke="midnightblue" points="1001.22,-284.672 1010.22,-290.261 1006.67,-280.279 1001.22,-284.672"/>
</g>
<!-- Node22 -->
<g id="node22" class="node"><title>Node22</title>
<g id="a_node22"><a xlink:href="../../df/d17/ITSMFTDigitWriterSpec_8cxx.html" target="_top" xlink:title="/home/travis/build\l/AliceO2Group/AliceO2\l/Steer/DigitizerWorkflow\l/src/ITSMFTDigitWriterSpec.cxx">
<polygon fill="none" stroke="black" points="1034,-196 1034,-248 1194,-248 1194,-196 1034,-196"/>
<text text-anchor="start" x="1042" y="-236" font-family="Helvetica,sans-Serif" font-size="10.00">/home/travis/build</text>
<text text-anchor="start" x="1042" y="-225" font-family="Helvetica,sans-Serif" font-size="10.00">/AliceO2Group/AliceO2</text>
<text text-anchor="start" x="1042" y="-214" font-family="Helvetica,sans-Serif" font-size="10.00">/Steer/DigitizerWorkflow</text>
<text text-anchor="middle" x="1114" y="-203" font-family="Helvetica,sans-Serif" font-size="10.00">/src/ITSMFTDigitWriterSpec.cxx</text>
</a>
</g>
</g>
<!-- Node2&#45;&gt;Node22 -->
<g id="edge22" class="edge"><title>Node2&#45;&gt;Node22</title>
<path fill="none" stroke="midnightblue" d="M1066.1,-282.423C1075.41,-270.866 1085.38,-258.497 1093.8,-248.054"/>
<polygon fill="midnightblue" stroke="midnightblue" points="1063.33,-280.279 1059.78,-290.261 1068.78,-284.672 1063.33,-280.279"/>
</g>
<!-- Node5 -->
<g id="node5" class="node"><title>Node5</title>
<g id="a_node5"><a xlink:href="../../dc/dbf/ITSMFT_2common_2simulation_2src_2Digitizer_8cxx.html" target="_top" xlink:title="/home/travis/build\l/AliceO2Group/AliceO2\l/Detectors/ITSMFT/common\l/simulation/src/Digitizer.cxx">
<polygon fill="none" stroke="black" points="1438,-96 1438,-148 1580,-148 1580,-96 1438,-96"/>
<text text-anchor="start" x="1446" y="-136" font-family="Helvetica,sans-Serif" font-size="10.00">/home/travis/build</text>
<text text-anchor="start" x="1446" y="-125" font-family="Helvetica,sans-Serif" font-size="10.00">/AliceO2Group/AliceO2</text>
<text text-anchor="start" x="1446" y="-114" font-family="Helvetica,sans-Serif" font-size="10.00">/Detectors/ITSMFT/common</text>
<text text-anchor="middle" x="1509" y="-103" font-family="Helvetica,sans-Serif" font-size="10.00">/simulation/src/Digitizer.cxx</text>
</a>
</g>
</g>
<!-- Node4&#45;&gt;Node5 -->
<g id="edge4" class="edge"><title>Node4&#45;&gt;Node5</title>
<path fill="none" stroke="midnightblue" d="M1509,-180.079C1509,-169.21 1509,-157.794 1509,-148.054"/>
<polygon fill="midnightblue" stroke="midnightblue" points="1505.5,-180.261 1509,-190.261 1512.5,-180.261 1505.5,-180.261"/>
</g>
<!-- Node6 -->
<g id="node6" class="node"><title>Node6</title>
<g id="a_node6"><a xlink:href="../../d9/d51/ITSMFT_2ITS_2simulation_2include_2ITSSimulation_2DigitizerTask_8h.html" target="_top" xlink:title="/home/travis/build\l/AliceO2Group/AliceO2\l/Detectors/ITSMFT/ITS\l/simulation/include/ITSSimulation\l/DigitizerTask.h">
<polygon fill="none" stroke="black" points="962,-90.5 962,-153.5 1124,-153.5 1124,-90.5 962,-90.5"/>
<text text-anchor="start" x="970" y="-141.5" font-family="Helvetica,sans-Serif" font-size="10.00">/home/travis/build</text>
<text text-anchor="start" x="970" y="-130.5" font-family="Helvetica,sans-Serif" font-size="10.00">/AliceO2Group/AliceO2</text>
<text text-anchor="start" x="970" y="-119.5" font-family="Helvetica,sans-Serif" font-size="10.00">/Detectors/ITSMFT/ITS</text>
<text text-anchor="start" x="970" y="-108.5" font-family="Helvetica,sans-Serif" font-size="10.00">/simulation/include/ITSSimulation</text>
<text text-anchor="middle" x="1043" y="-97.5" font-family="Helvetica,sans-Serif" font-size="10.00">/DigitizerTask.h</text>
</a>
</g>
</g>
<!-- Node4&#45;&gt;Node6 -->
<g id="edge5" class="edge"><title>Node4&#45;&gt;Node6</title>
<path fill="none" stroke="midnightblue" d="M1408.3,-190.074C1408.2,-190.049 1408.1,-190.024 1408,-190 1311.31,-166.371 1198.38,-146.859 1124.03,-135.102"/>
<polygon fill="midnightblue" stroke="midnightblue" points="1407.19,-193.403 1417.74,-192.47 1408.91,-186.618 1407.19,-193.403"/>
</g>
<!-- Node11 -->
<g id="node11" class="node"><title>Node11</title>
<g id="a_node11"><a xlink:href="../../dd/d11/ITSMFT_2MFT_2simulation_2include_2MFTSimulation_2DigitizerTask_8h.html" target="_top" xlink:title="/home/travis/build\l/AliceO2Group/AliceO2\l/Detectors/ITSMFT/MFT\l/simulation/include/MFTSimulation\l/DigitizerTask.h">
<polygon fill="none" stroke="black" points="1252.5,-90.5 1252.5,-153.5 1419.5,-153.5 1419.5,-90.5 1252.5,-90.5"/>
<text text-anchor="start" x="1260.5" y="-141.5" font-family="Helvetica,sans-Serif" font-size="10.00">/home/travis/build</text>
<text text-anchor="start" x="1260.5" y="-130.5" font-family="Helvetica,sans-Serif" font-size="10.00">/AliceO2Group/AliceO2</text>
<text text-anchor="start" x="1260.5" y="-119.5" font-family="Helvetica,sans-Serif" font-size="10.00">/Detectors/ITSMFT/MFT</text>
<text text-anchor="start" x="1260.5" y="-108.5" font-family="Helvetica,sans-Serif" font-size="10.00">/simulation/include/MFTSimulation</text>
<text text-anchor="middle" x="1336" y="-97.5" font-family="Helvetica,sans-Serif" font-size="10.00">/DigitizerTask.h</text>
</a>
</g>
</g>
<!-- Node4&#45;&gt;Node11 -->
<g id="edge10" class="edge"><title>Node4&#45;&gt;Node11</title>
<path fill="none" stroke="midnightblue" d="M1445.89,-185.249C1427.58,-174.88 1407.77,-163.655 1390.07,-153.63"/>
<polygon fill="midnightblue" stroke="midnightblue" points="1444.31,-188.377 1454.74,-190.261 1447.76,-182.287 1444.31,-188.377"/>
</g>
<!-- Node4&#45;&gt;Node14 -->
<g id="edge13" class="edge"><title>Node4&#45;&gt;Node14</title>
<path fill="none" stroke="midnightblue" d="M1569.12,-185.075C1589.69,-172.78 1612.25,-159.301 1631.07,-148.054"/>
<polygon fill="midnightblue" stroke="midnightblue" points="1567.23,-182.127 1560.44,-190.261 1570.82,-188.136 1567.23,-182.127"/>
</g>
<!-- Node7 -->
<g id="node7" class="node"><title>Node7</title>
<g id="a_node7"><a xlink:href="../../da/d29/ITSMFT_2ITS_2simulation_2src_2DigitizerTask_8cxx.html" target="_top" xlink:title="/home/travis/build\l/AliceO2Group/AliceO2\l/Detectors/ITSMFT/ITS\l/simulation/src/DigitizerTask.cxx">
<polygon fill="none" stroke="black" points="670,-1 670,-53 830,-53 830,-1 670,-1"/>
<text text-anchor="start" x="678" y="-41" font-family="Helvetica,sans-Serif" font-size="10.00">/home/travis/build</text>
<text text-anchor="start" x="678" y="-30" font-family="Helvetica,sans-Serif" font-size="10.00">/AliceO2Group/AliceO2</text>
<text text-anchor="start" x="678" y="-19" font-family="Helvetica,sans-Serif" font-size="10.00">/Detectors/ITSMFT/ITS</text>
<text text-anchor="middle" x="750" y="-8" font-family="Helvetica,sans-Serif" font-size="10.00">/simulation/src/DigitizerTask.cxx</text>
</a>
</g>
</g>
<!-- Node6&#45;&gt;Node7 -->
<g id="edge6" class="edge"><title>Node6&#45;&gt;Node7</title>
<path fill="none" stroke="midnightblue" d="M952.146,-92.1622C912.673,-79.6335 866.871,-65.0955 828.855,-53.0291"/>
<polygon fill="midnightblue" stroke="midnightblue" points="951.182,-95.5284 961.772,-95.2178 953.3,-88.8564 951.182,-95.5284"/>
</g>
<!-- Node8 -->
<g id="node8" class="node"><title>Node8</title>
<g id="a_node8"><a xlink:href="../../d1/d7a/run__digi_8C.html" target="_top" xlink:title="/home/travis/build\l/AliceO2Group/AliceO2\l/macro/run_digi.C">
<polygon fill="none" stroke="black" points="848,-6.5 848,-47.5 966,-47.5 966,-6.5 848,-6.5"/>
<text text-anchor="start" x="856" y="-35.5" font-family="Helvetica,sans-Serif" font-size="10.00">/home/travis/build</text>
<text text-anchor="start" x="856" y="-24.5" font-family="Helvetica,sans-Serif" font-size="10.00">/AliceO2Group/AliceO2</text>
<text text-anchor="middle" x="907" y="-13.5" font-family="Helvetica,sans-Serif" font-size="10.00">/macro/run_digi.C</text>
</a>
</g>
</g>
<!-- Node6&#45;&gt;Node8 -->
<g id="edge7" class="edge"><title>Node6&#45;&gt;Node8</title>
<path fill="none" stroke="midnightblue" d="M989.743,-84.5815C971.294,-71.9657 951.324,-58.3097 935.625,-47.5747"/>
<polygon fill="midnightblue" stroke="midnightblue" points="987.861,-87.535 998.092,-90.2906 991.813,-81.7568 987.861,-87.535"/>
</g>
<!-- Node9 -->
<g id="node9" class="node"><title>Node9</title>
<g id="a_node9"><a xlink:href="../../d9/de3/run__digi__all_8C.html" target="_top" xlink:title="/home/travis/build\l/AliceO2Group/AliceO2\l/macro/run_digi_all.C">
<polygon fill="none" stroke="black" points="984,-6.5 984,-47.5 1102,-47.5 1102,-6.5 984,-6.5"/>
<text text-anchor="start" x="992" y="-35.5" font-family="Helvetica,sans-Serif" font-size="10.00">/home/travis/build</text>
<text text-anchor="start" x="992" y="-24.5" font-family="Helvetica,sans-Serif" font-size="10.00">/AliceO2Group/AliceO2</text>
<text text-anchor="middle" x="1043" y="-13.5" font-family="Helvetica,sans-Serif" font-size="10.00">/macro/run_digi_all.C</text>
</a>
</g>
</g>
<!-- Node6&#45;&gt;Node9 -->
<g id="edge8" class="edge"><title>Node6&#45;&gt;Node9</title>
<path fill="none" stroke="midnightblue" d="M1043,-80.1125C1043,-68.807 1043,-57.0525 1043,-47.5747"/>
<polygon fill="midnightblue" stroke="midnightblue" points="1039.5,-80.2905 1043,-90.2906 1046.5,-80.2906 1039.5,-80.2905"/>
</g>
<!-- Node10 -->
<g id="node10" class="node"><title>Node10</title>
<g id="a_node10"><a xlink:href="../../d0/dcb/run__digi__its_8C.html" target="_top" xlink:title="/home/travis/build\l/AliceO2Group/AliceO2\l/macro/run_digi_its.C">
<polygon fill="none" stroke="black" points="1120,-6.5 1120,-47.5 1238,-47.5 1238,-6.5 1120,-6.5"/>
<text text-anchor="start" x="1128" y="-35.5" font-family="Helvetica,sans-Serif" font-size="10.00">/home/travis/build</text>
<text text-anchor="start" x="1128" y="-24.5" font-family="Helvetica,sans-Serif" font-size="10.00">/AliceO2Group/AliceO2</text>
<text text-anchor="middle" x="1179" y="-13.5" font-family="Helvetica,sans-Serif" font-size="10.00">/macro/run_digi_its.C</text>
</a>
</g>
</g>
<!-- Node6&#45;&gt;Node10 -->
<g id="edge9" class="edge"><title>Node6&#45;&gt;Node10</title>
<path fill="none" stroke="midnightblue" d="M1096.26,-84.5815C1114.71,-71.9657 1134.68,-58.3097 1150.37,-47.5747"/>
<polygon fill="midnightblue" stroke="midnightblue" points="1094.19,-81.7568 1087.91,-90.2906 1098.14,-87.535 1094.19,-81.7568"/>
</g>
<!-- Node12 -->
<g id="node12" class="node"><title>Node12</title>
<g id="a_node12"><a xlink:href="../../d6/d87/ITSMFT_2MFT_2simulation_2src_2DigitizerTask_8cxx.html" target="_top" xlink:title="/home/travis/build\l/AliceO2Group/AliceO2\l/Detectors/ITSMFT/MFT\l/simulation/src/DigitizerTask.cxx">
<polygon fill="none" stroke="black" points="1256,-1 1256,-53 1416,-53 1416,-1 1256,-1"/>
<text text-anchor="start" x="1264" y="-41" font-family="Helvetica,sans-Serif" font-size="10.00">/home/travis/build</text>
<text text-anchor="start" x="1264" y="-30" font-family="Helvetica,sans-Serif" font-size="10.00">/AliceO2Group/AliceO2</text>
<text text-anchor="start" x="1264" y="-19" font-family="Helvetica,sans-Serif" font-size="10.00">/Detectors/ITSMFT/MFT</text>
<text text-anchor="middle" x="1336" y="-8" font-family="Helvetica,sans-Serif" font-size="10.00">/simulation/src/DigitizerTask.cxx</text>
</a>
</g>
</g>
<!-- Node11&#45;&gt;Node12 -->
<g id="edge11" class="edge"><title>Node11&#45;&gt;Node12</title>
<path fill="none" stroke="midnightblue" d="M1336,-80.1125C1336,-70.9165 1336,-61.4234 1336,-53.1001"/>
<polygon fill="midnightblue" stroke="midnightblue" points="1332.5,-80.2905 1336,-90.2906 1339.5,-80.2906 1332.5,-80.2905"/>
</g>
<!-- Node13 -->
<g id="node13" class="node"><title>Node13</title>
<g id="a_node13"><a xlink:href="../../d2/d31/run__digi__mft_8C.html" target="_top" xlink:title="/home/travis/build\l/AliceO2Group/AliceO2\l/macro/run_digi_mft.C">
<polygon fill="none" stroke="black" points="1434,-6.5 1434,-47.5 1552,-47.5 1552,-6.5 1434,-6.5"/>
<text text-anchor="start" x="1442" y="-35.5" font-family="Helvetica,sans-Serif" font-size="10.00">/home/travis/build</text>
<text text-anchor="start" x="1442" y="-24.5" font-family="Helvetica,sans-Serif" font-size="10.00">/AliceO2Group/AliceO2</text>
<text text-anchor="middle" x="1493" y="-13.5" font-family="Helvetica,sans-Serif" font-size="10.00">/macro/run_digi_mft.C</text>
</a>
</g>
</g>
<!-- Node11&#45;&gt;Node13 -->
<g id="edge12" class="edge"><title>Node11&#45;&gt;Node13</title>
<path fill="none" stroke="midnightblue" d="M1396.62,-85.0924C1418.15,-72.3353 1441.59,-58.4548 1459.95,-47.5747"/>
<polygon fill="midnightblue" stroke="midnightblue" points="1394.66,-82.1827 1387.84,-90.2906 1398.23,-88.2053 1394.66,-82.1827"/>
</g>
<!-- Node24 -->
<g id="node24" class="node"><title>Node24</title>
<g id="a_node24"><a xlink:href="../../db/d65/TrackTPCITS_8cxx.html" target="_top" xlink:title="/home/travis/build\l/AliceO2Group/AliceO2\l/DataFormats/Reconstruction\l/src/TrackTPCITS.cxx">
<polygon fill="none" stroke="black" points="2044,-196 2044,-248 2190,-248 2190,-196 2044,-196"/>
<text text-anchor="start" x="2052" y="-236" font-family="Helvetica,sans-Serif" font-size="10.00">/home/travis/build</text>
<text text-anchor="start" x="2052" y="-225" font-family="Helvetica,sans-Serif" font-size="10.00">/AliceO2Group/AliceO2</text>
<text text-anchor="start" x="2052" y="-214" font-family="Helvetica,sans-Serif" font-size="10.00">/DataFormats/Reconstruction</text>
<text text-anchor="middle" x="2117" y="-203" font-family="Helvetica,sans-Serif" font-size="10.00">/src/TrackTPCITS.cxx</text>
</a>
</g>
</g>
<!-- Node23&#45;&gt;Node24 -->
<g id="edge24" class="edge"><title>Node23&#45;&gt;Node24</title>
<path fill="none" stroke="midnightblue" d="M2106.45,-280.415C2108.47,-269.445 2110.59,-257.895 2112.4,-248.054"/>
<polygon fill="midnightblue" stroke="midnightblue" points="2103.01,-279.793 2104.65,-290.261 2109.89,-281.058 2103.01,-279.793"/>
</g>
<!-- Node23&#45;&gt;Node25 -->
<g id="edge25" class="edge"><title>Node23&#45;&gt;Node25</title>
<path fill="none" stroke="midnightblue" d="M2170.14,-284.498C2181.32,-275.893 2191.6,-265.737 2199,-254 2219.34,-221.724 2221.29,-176.224 2220.15,-148.222"/>
<polygon fill="midnightblue" stroke="midnightblue" points="2167.92,-281.788 2161.87,-290.49 2172.02,-287.456 2167.92,-281.788"/>
</g>
<!-- Node23&#45;&gt;Node28 -->
<g id="edge28" class="edge"><title>Node23&#45;&gt;Node28</title>
<path fill="none" stroke="midnightblue" d="M2036.97,-285.239C2015.56,-272.9 1992.06,-259.351 1972.46,-248.054"/>
<polygon fill="midnightblue" stroke="midnightblue" points="2035.27,-288.299 2045.68,-290.261 2038.76,-282.234 2035.27,-288.299"/>
</g>
<!-- Node26 -->
<g id="node26" class="node"><title>Node26</title>
<g id="a_node26"><a xlink:href="../../db/d6a/MatchTOF_8cxx.html" target="_top" xlink:title="/home/travis/build\l/AliceO2Group/AliceO2\l/Detectors/GlobalTracking\l/src/MatchTOF.cxx">
<polygon fill="none" stroke="black" points="2079.5,-1 2079.5,-53 2210.5,-53 2210.5,-1 2079.5,-1"/>
<text text-anchor="start" x="2087.5" y="-41" font-family="Helvetica,sans-Serif" font-size="10.00">/home/travis/build</text>
<text text-anchor="start" x="2087.5" y="-30" font-family="Helvetica,sans-Serif" font-size="10.00">/AliceO2Group/AliceO2</text>
<text text-anchor="start" x="2087.5" y="-19" font-family="Helvetica,sans-Serif" font-size="10.00">/Detectors/GlobalTracking</text>
<text text-anchor="middle" x="2145" y="-8" font-family="Helvetica,sans-Serif" font-size="10.00">/src/MatchTOF.cxx</text>
</a>
</g>
</g>
<!-- Node25&#45;&gt;Node26 -->
<g id="edge26" class="edge"><title>Node25&#45;&gt;Node26</title>
<path fill="none" stroke="midnightblue" d="M2191.74,-87.5482C2182.81,-76.1729 2172.99,-63.6642 2164.67,-53.0599"/>
<polygon fill="midnightblue" stroke="midnightblue" points="2189.12,-89.8823 2198.05,-95.5873 2194.63,-85.5601 2189.12,-89.8823"/>
</g>
<!-- Node27 -->
<g id="node27" class="node"><title>Node27</title>
<g id="a_node27"><a xlink:href="../../dd/d7c/run__match__tof_8C.html" target="_top" xlink:title="/home/travis/build\l/AliceO2Group/AliceO2\l/macro/run_match_tof.C">
<polygon fill="none" stroke="black" points="2229,-6.5 2229,-47.5 2351,-47.5 2351,-6.5 2229,-6.5"/>
<text text-anchor="start" x="2237" y="-35.5" font-family="Helvetica,sans-Serif" font-size="10.00">/home/travis/build</text>
<text text-anchor="start" x="2237" y="-24.5" font-family="Helvetica,sans-Serif" font-size="10.00">/AliceO2Group/AliceO2</text>
<text text-anchor="middle" x="2290" y="-13.5" font-family="Helvetica,sans-Serif" font-size="10.00">/macro/run_match_tof.C</text>
</a>
</g>
</g>
<!-- Node25&#45;&gt;Node27 -->
<g id="edge27" class="edge"><title>Node25&#45;&gt;Node27</title>
<path fill="none" stroke="midnightblue" d="M2243.91,-87.5347C2254.23,-74.2091 2265.74,-59.3299 2274.69,-47.7798"/>
<polygon fill="midnightblue" stroke="midnightblue" points="2241.03,-85.5375 2237.67,-95.5873 2246.56,-89.8227 2241.03,-85.5375"/>
</g>
<!-- Node28&#45;&gt;Node25 -->
<g id="edge29" class="edge"><title>Node28&#45;&gt;Node25</title>
<path fill="none" stroke="midnightblue" d="M2012.61,-192.649C2054.18,-178.551 2103.99,-161.661 2144.14,-148.045"/>
<polygon fill="midnightblue" stroke="midnightblue" points="2011.4,-189.364 2003.05,-195.89 2013.64,-195.993 2011.4,-189.364"/>
</g>
<!-- Node29 -->
<g id="node29" class="node"><title>Node29</title>
<g id="a_node29"><a xlink:href="../../dc/d59/MatchTPCITS_8cxx.html" target="_top" xlink:title="/home/travis/build\l/AliceO2Group/AliceO2\l/Detectors/GlobalTracking\l/src/MatchTPCITS.cxx">
<polygon fill="none" stroke="black" points="1790.5,-96 1790.5,-148 1921.5,-148 1921.5,-96 1790.5,-96"/>
<text text-anchor="start" x="1798.5" y="-136" font-family="Helvetica,sans-Serif" font-size="10.00">/home/travis/build</text>
<text text-anchor="start" x="1798.5" y="-125" font-family="Helvetica,sans-Serif" font-size="10.00">/AliceO2Group/AliceO2</text>
<text text-anchor="start" x="1798.5" y="-114" font-family="Helvetica,sans-Serif" font-size="10.00">/Detectors/GlobalTracking</text>
<text text-anchor="middle" x="1856" y="-103" font-family="Helvetica,sans-Serif" font-size="10.00">/src/MatchTPCITS.cxx</text>
</a>
</g>
</g>
<!-- Node28&#45;&gt;Node29 -->
<g id="edge30" class="edge"><title>Node28&#45;&gt;Node29</title>
<path fill="none" stroke="midnightblue" d="M1904.09,-187.557C1894.48,-174.653 1883.67,-160.143 1874.74,-148.152"/>
<polygon fill="midnightblue" stroke="midnightblue" points="1901.42,-189.834 1910.2,-195.763 1907.03,-185.652 1901.42,-189.834"/>
</g>
<!-- Node30 -->
<g id="node30" class="node"><title>Node30</title>
<g id="a_node30"><a xlink:href="../../d9/d84/run__match__TPCITS_8C.html" target="_top" xlink:title="/home/travis/build\l/AliceO2Group/AliceO2\l/macro/run_match_TPCITS.C">
<polygon fill="none" stroke="black" points="1939.5,-101.5 1939.5,-142.5 2086.5,-142.5 2086.5,-101.5 1939.5,-101.5"/>
<text text-anchor="start" x="1947.5" y="-130.5" font-family="Helvetica,sans-Serif" font-size="10.00">/home/travis/build</text>
<text text-anchor="start" x="1947.5" y="-119.5" font-family="Helvetica,sans-Serif" font-size="10.00">/AliceO2Group/AliceO2</text>
<text text-anchor="middle" x="2013" y="-108.5" font-family="Helvetica,sans-Serif" font-size="10.00">/macro/run_match_TPCITS.C</text>
</a>
</g>
</g>
<!-- Node28&#45;&gt;Node30 -->
<g id="edge31" class="edge"><title>Node28&#45;&gt;Node30</title>
<path fill="none" stroke="midnightblue" d="M1957.19,-188.108C1970.14,-173.001 1985.06,-155.597 1996.21,-142.585"/>
<polygon fill="midnightblue" stroke="midnightblue" points="1954.48,-185.892 1950.63,-195.763 1959.8,-190.448 1954.48,-185.892"/>
</g>
</g>
</svg>
