<?xml version="1.0" encoding="UTF-8" standalone="no"?>
<!DOCTYPE svg PUBLIC "-//W3C//DTD SVG 1.1//EN"
 "http://www.w3.org/Graphics/SVG/1.1/DTD/svg11.dtd">
<!-- Generated by graphviz version 2.36.0 (20140111.2315)
 -->
<!-- Title: /home/travis/build/AliceO2Group/AliceO2/Detectors/MUON/MID/Clustering/include/MIDClustering/PreClusterizer.h Pages: 1 -->
<svg width="671pt" height="298pt"
 viewBox="0.00 0.00 671.00 298.00" xmlns="http://www.w3.org/2000/svg" xmlns:xlink="http://www.w3.org/1999/xlink">
<g id="graph0" class="graph" transform="scale(1 1) rotate(0) translate(4 294)">
<title>/home/travis/build/AliceO2Group/AliceO2/Detectors/MUON/MID/Clustering/include/MIDClustering/PreClusterizer.h</title>
<!-- Node1 -->
<g id="node1" class="node"><title>Node1</title>
<polygon fill="#bfbfbf" stroke="black" points="166,-237 166,-289 356,-289 356,-237 166,-237"/>
<text text-anchor="start" x="174" y="-277" font-family="Helvetica,sans-Serif" font-size="10.00">/home/travis/build</text>
<text text-anchor="start" x="174" y="-266" font-family="Helvetica,sans-Serif" font-size="10.00">/AliceO2Group/AliceO2</text>
<text text-anchor="start" x="174" y="-255" font-family="Helvetica,sans-Serif" font-size="10.00">/Detectors/MUON/MID/Clustering</text>
<text text-anchor="middle" x="261" y="-244" font-family="Helvetica,sans-Serif" font-size="10.00">/include/MIDClustering/PreClusterizer.h</text>
</g>
<!-- Node2 -->
<g id="node2" class="node"><title>Node2</title>
<polygon fill="none" stroke="#bfbfbf" points="-0.5,-180.5 -0.5,-199.5 82.5,-199.5 82.5,-180.5 -0.5,-180.5"/>
<text text-anchor="middle" x="41" y="-187.5" font-family="Helvetica,sans-Serif" font-size="10.00">unordered_map</text>
</g>
<!-- Node1&#45;&gt;Node2 -->
<g id="edge1" class="edge"><title>Node1&#45;&gt;Node2</title>
<path fill="none" stroke="midnightblue" d="M183.436,-236.968C147.25,-225.29 105.92,-211.951 77.135,-202.662"/>
<polygon fill="midnightblue" stroke="midnightblue" points="78.0972,-199.295 67.5055,-199.554 75.9472,-205.956 78.0972,-199.295"/>
</g>
<!-- Node3 -->
<g id="node3" class="node"><title>Node3</title>
<polygon fill="none" stroke="#bfbfbf" points="136,-56.5 136,-75.5 180,-75.5 180,-56.5 136,-56.5"/>
<text text-anchor="middle" x="158" y="-63.5" font-family="Helvetica,sans-Serif" font-size="10.00">vector</text>
</g>
<!-- Node1&#45;&gt;Node3 -->
<g id="edge2" class="edge"><title>Node1&#45;&gt;Node3</title>
<path fill="none" stroke="midnightblue" d="M172.616,-236.936C155.723,-228.027 140.161,-216.051 130,-200 106.844,-163.422 131.26,-110.961 146.954,-84.1704"/>
<polygon fill="midnightblue" stroke="midnightblue" points="150.002,-85.895 152.237,-75.5386 144.032,-82.2407 150.002,-85.895"/>
</g>
<!-- Node4 -->
<g id="node4" class="node"><title>Node4</title>
<g id="a_node4"><a xlink:href="../../d4/d73/MID_2Base_2include_2MIDBase_2Mapping_8h.html" target="_top" xlink:title="Mapping for MID. ">
<polygon fill="none" stroke="black" points="192,-118.5 192,-137.5 298,-137.5 298,-118.5 192,-118.5"/>
<text text-anchor="middle" x="245" y="-125.5" font-family="Helvetica,sans-Serif" font-size="10.00">MIDBase/Mapping.h</text>
</a>
</g>
</g>
<!-- Node1&#45;&gt;Node4 -->
<g id="edge3" class="edge"><title>Node1&#45;&gt;Node4</title>
<path fill="none" stroke="midnightblue" d="M279.911,-236.799C289.726,-220.539 298.288,-198.961 291,-180 285.599,-165.949 274.338,-153.353 264.31,-144.194"/>
<polygon fill="midnightblue" stroke="midnightblue" points="266.532,-141.489 256.667,-137.624 261.968,-146.797 266.532,-141.489"/>
</g>
<!-- Node7 -->
<g id="node7" class="node"><title>Node7</title>
<g id="a_node7"><a xlink:href="../../d6/d31/Cluster2D_8h.html" target="_top" xlink:title="Reconstructed cluster per RPC. ">
<polygon fill="none" stroke="black" points="515,-180.5 515,-199.5 663,-199.5 663,-180.5 515,-180.5"/>
<text text-anchor="middle" x="589" y="-187.5" font-family="Helvetica,sans-Serif" font-size="10.00">DataFormatsMID/Cluster2D.h</text>
</a>
</g>
</g>
<!-- Node1&#45;&gt;Node7 -->
<g id="edge8" class="edge"><title>Node1&#45;&gt;Node7</title>
<path fill="none" stroke="midnightblue" d="M356.312,-241.368C416.351,-228.372 491.381,-212.131 539.738,-201.663"/>
<polygon fill="midnightblue" stroke="midnightblue" points="540.604,-205.057 549.637,-199.521 539.123,-198.216 540.604,-205.057"/>
</g>
<!-- Node10 -->
<g id="node10" class="node"><title>Node10</title>
<g id="a_node10"><a xlink:href="../../d3/d53/ColumnData_8h.html" target="_top" xlink:title="Strip pattern (aka digits) ">
<polygon fill="none" stroke="black" points="339,-180.5 339,-199.5 497,-199.5 497,-180.5 339,-180.5"/>
<text text-anchor="middle" x="418" y="-187.5" font-family="Helvetica,sans-Serif" font-size="10.00">DataFormatsMID/ColumnData.h</text>
</a>
</g>
</g>
<!-- Node1&#45;&gt;Node10 -->
<g id="edge11" class="edge"><title>Node1&#45;&gt;Node10</title>
<path fill="none" stroke="midnightblue" d="M316.352,-236.968C341.086,-225.783 369.186,-213.075 389.563,-203.86"/>
<polygon fill="midnightblue" stroke="midnightblue" points="391.228,-206.949 398.897,-199.639 388.343,-200.57 391.228,-206.949"/>
</g>
<!-- Node12 -->
<g id="node12" class="node"><title>Node12</title>
<g id="a_node12"><a xlink:href="../../d8/d04/PreClusters_8h.html" target="_top" xlink:title="Pre&#45;clusters structure for MID. ">
<polygon fill="none" stroke="black" points="139.5,-180.5 139.5,-199.5 282.5,-199.5 282.5,-180.5 139.5,-180.5"/>
<text text-anchor="middle" x="211" y="-187.5" font-family="Helvetica,sans-Serif" font-size="10.00">MIDClustering/PreClusters.h</text>
</a>
</g>
</g>
<!-- Node1&#45;&gt;Node12 -->
<g id="edge16" class="edge"><title>Node1&#45;&gt;Node12</title>
<path fill="none" stroke="midnightblue" d="M243.231,-236.768C236.552,-227.284 229.12,-216.731 223.077,-208.15"/>
<polygon fill="midnightblue" stroke="midnightblue" points="225.786,-205.918 217.167,-199.757 220.063,-209.948 225.786,-205.918"/>
</g>
<!-- Node4&#45;&gt;Node3 -->
<g id="edge5" class="edge"><title>Node4&#45;&gt;Node3</title>
<path fill="none" stroke="midnightblue" d="M232.535,-118.403C218.581,-108.78 195.735,-93.0242 179.009,-81.4891"/>
<polygon fill="midnightblue" stroke="midnightblue" points="180.661,-78.3767 170.442,-75.5806 176.687,-84.1392 180.661,-78.3767"/>
</g>
<!-- Node5 -->
<g id="node5" class="node"><title>Node5</title>
<polygon fill="none" stroke="#bfbfbf" points="311,-0.5 311,-19.5 349,-19.5 349,-0.5 311,-0.5"/>
<text text-anchor="middle" x="330" y="-7.5" font-family="Helvetica,sans-Serif" font-size="10.00">array</text>
</g>
<!-- Node4&#45;&gt;Node5 -->
<g id="edge4" class="edge"><title>Node4&#45;&gt;Node5</title>
<path fill="none" stroke="midnightblue" d="M260.923,-118.345C275.689,-109.537 297.247,-94.5607 310,-76 319.507,-62.1634 324.623,-43.6451 327.293,-29.9142"/>
<polygon fill="midnightblue" stroke="midnightblue" points="330.801,-30.1552 329.003,-19.7141 323.898,-28.9977 330.801,-30.1552"/>
</g>
<!-- Node6 -->
<g id="node6" class="node"><title>Node6</title>
<g id="a_node6"><a xlink:href="../../d7/d0a/MpArea_8h.html" target="_top" xlink:title="Mapping area for MID. ">
<polygon fill="none" stroke="black" points="198.5,-56.5 198.5,-75.5 301.5,-75.5 301.5,-56.5 198.5,-56.5"/>
<text text-anchor="middle" x="250" y="-63.5" font-family="Helvetica,sans-Serif" font-size="10.00">MIDBase/MpArea.h</text>
</a>
</g>
</g>
<!-- Node4&#45;&gt;Node6 -->
<g id="edge6" class="edge"><title>Node4&#45;&gt;Node6</title>
<path fill="none" stroke="midnightblue" d="M245.716,-118.403C246.422,-109.938 247.523,-96.7283 248.432,-85.8199"/>
<polygon fill="midnightblue" stroke="midnightblue" points="251.942,-85.8367 249.285,-75.5806 244.966,-85.2554 251.942,-85.8367"/>
</g>
<!-- Node6&#45;&gt;Node5 -->
<g id="edge7" class="edge"><title>Node6&#45;&gt;Node5</title>
<path fill="none" stroke="midnightblue" d="M262.853,-56.324C275.216,-47.979 294.13,-35.2122 308.737,-25.3524"/>
<polygon fill="midnightblue" stroke="midnightblue" points="310.848,-28.1503 317.179,-19.6545 306.932,-22.3483 310.848,-28.1503"/>
</g>
<!-- Node8 -->
<g id="node8" class="node"><title>Node8</title>
<polygon fill="none" stroke="#bfbfbf" points="538.5,-113 538.5,-143 633.5,-143 633.5,-113 538.5,-113"/>
<text text-anchor="start" x="546.5" y="-131" font-family="Helvetica,sans-Serif" font-size="10.00">boost/serialization</text>
<text text-anchor="middle" x="586" y="-120" font-family="Helvetica,sans-Serif" font-size="10.00">/access.hpp</text>
</g>
<!-- Node7&#45;&gt;Node8 -->
<g id="edge9" class="edge"><title>Node7&#45;&gt;Node8</title>
<path fill="none" stroke="midnightblue" d="M588.57,-180.403C588.217,-173.341 587.699,-162.975 587.22,-153.399"/>
<polygon fill="midnightblue" stroke="midnightblue" points="590.702,-152.954 586.707,-143.141 583.711,-153.303 590.702,-152.954"/>
</g>
<!-- Node9 -->
<g id="node9" class="node"><title>Node9</title>
<polygon fill="none" stroke="#bfbfbf" points="472,-118.5 472,-137.5 518,-137.5 518,-118.5 472,-118.5"/>
<text text-anchor="middle" x="495" y="-125.5" font-family="Helvetica,sans-Serif" font-size="10.00">cstdint</text>
</g>
<!-- Node7&#45;&gt;Node9 -->
<g id="edge10" class="edge"><title>Node7&#45;&gt;Node9</title>
<path fill="none" stroke="midnightblue" d="M575.532,-180.403C560.315,-170.691 535.313,-154.732 517.199,-143.17"/>
<polygon fill="midnightblue" stroke="midnightblue" points="518.755,-140.011 508.443,-137.581 514.989,-145.911 518.755,-140.011"/>
</g>
<!-- Node10&#45;&gt;Node5 -->
<g id="edge15" class="edge"><title>Node10&#45;&gt;Node5</title>
<path fill="none" stroke="midnightblue" d="M420.353,-180.091C423.786,-165.359 428.854,-135.244 420,-112 406.051,-75.3793 372.053,-43.5903 350.066,-25.8911"/>
<polygon fill="midnightblue" stroke="midnightblue" points="352.057,-23.0045 342.02,-19.6092 347.749,-28.522 352.057,-23.0045"/>
</g>
<!-- Node10&#45;&gt;Node8 -->
<g id="edge12" class="edge"><title>Node10&#45;&gt;Node8</title>
<path fill="none" stroke="midnightblue" d="M442.07,-180.403C466.82,-171.564 506.052,-157.553 537.309,-146.39"/>
<polygon fill="midnightblue" stroke="midnightblue" points="538.489,-149.685 546.729,-143.025 536.134,-143.093 538.489,-149.685"/>
</g>
<!-- Node10&#45;&gt;Node9 -->
<g id="edge14" class="edge"><title>Node10&#45;&gt;Node9</title>
<path fill="none" stroke="midnightblue" d="M429.032,-180.403C441.268,-170.869 461.229,-155.315 475.993,-143.811"/>
<polygon fill="midnightblue" stroke="midnightblue" points="478.252,-146.488 483.988,-137.581 473.949,-140.966 478.252,-146.488"/>
</g>
<!-- Node11 -->
<g id="node11" class="node"><title>Node11</title>
<polygon fill="none" stroke="#bfbfbf" points="316.5,-113 316.5,-143 411.5,-143 411.5,-113 316.5,-113"/>
<text text-anchor="start" x="324.5" y="-131" font-family="Helvetica,sans-Serif" font-size="10.00">boost/serialization</text>
<text text-anchor="middle" x="364" y="-120" font-family="Helvetica,sans-Serif" font-size="10.00">/array.hpp</text>
</g>
<!-- Node10&#45;&gt;Node11 -->
<g id="edge13" class="edge"><title>Node10&#45;&gt;Node11</title>
<path fill="none" stroke="midnightblue" d="M410.263,-180.403C403.291,-172.657 392.744,-160.938 383.48,-150.645"/>
<polygon fill="midnightblue" stroke="midnightblue" points="386.018,-148.232 376.727,-143.141 380.815,-152.915 386.018,-148.232"/>
</g>
<!-- Node12&#45;&gt;Node3 -->
<g id="edge17" class="edge"><title>Node12&#45;&gt;Node3</title>
<path fill="none" stroke="midnightblue" d="M204.759,-180.394C198.593,-171.59 189.208,-157.349 183,-144 174.044,-124.74 166.95,-101.386 162.64,-85.483"/>
<polygon fill="midnightblue" stroke="midnightblue" points="166.026,-84.597 160.113,-75.8059 159.253,-86.3658 166.026,-84.597"/>
</g>
<!-- Node12&#45;&gt;Node4 -->
<g id="edge18" class="edge"><title>Node12&#45;&gt;Node4</title>
<path fill="none" stroke="midnightblue" d="M215.871,-180.403C220.87,-171.582 228.789,-157.608 235.109,-146.455"/>
<polygon fill="midnightblue" stroke="midnightblue" points="238.253,-148.006 240.138,-137.581 232.162,-144.555 238.253,-148.006"/>
</g>
</g>
</svg>
