<?xml version="1.0" encoding="UTF-8" standalone="no"?>
<!DOCTYPE svg PUBLIC "-//W3C//DTD SVG 1.1//EN"
 "http://www.w3.org/Graphics/SVG/1.1/DTD/svg11.dtd">
<!-- Generated by graphviz version 2.36.0 (20140111.2315)
 -->
<!-- Title: /home/travis/build/AliceO2Group/AliceO2/Detectors/MUON/MID/Base/include/MIDBase/GeometryTransformer.h Pages: 1 -->
<svg width="1200pt" height="242pt"
 viewBox="0.00 0.00 1200.00 242.00" xmlns="http://www.w3.org/2000/svg" xmlns:xlink="http://www.w3.org/1999/xlink">
<g id="graph0" class="graph" transform="scale(1 1) rotate(0) translate(4 238)">
<title>/home/travis/build/AliceO2Group/AliceO2/Detectors/MUON/MID/Base/include/MIDBase/GeometryTransformer.h</title>
<!-- Node1 -->
<g id="node1" class="node"><title>Node1</title>
<polygon fill="#bfbfbf" stroke="black" points="567.5,-181 567.5,-233 768.5,-233 768.5,-181 567.5,-181"/>
<text text-anchor="start" x="575.5" y="-221" font-family="Helvetica,sans-Serif" font-size="10.00">/home/travis/build</text>
<text text-anchor="start" x="575.5" y="-210" font-family="Helvetica,sans-Serif" font-size="10.00">/AliceO2Group/AliceO2</text>
<text text-anchor="start" x="575.5" y="-199" font-family="Helvetica,sans-Serif" font-size="10.00">/Detectors/MUON/MID/Base</text>
<text text-anchor="middle" x="668" y="-188" font-family="Helvetica,sans-Serif" font-size="10.00">/include/MIDBase/GeometryTransformer.h</text>
</g>
<!-- Node2 -->
<g id="node2" class="node"><title>Node2</title>
<g id="a_node2"><a xlink:href="../../d7/d40/HitFinder_8h.html" target="_top" xlink:title="Hit finder for MID. ">
<polygon fill="none" stroke="black" points="168,-91 168,-143 314,-143 314,-91 168,-91"/>
<text text-anchor="start" x="176" y="-131" font-family="Helvetica,sans-Serif" font-size="10.00">/home/travis/build</text>
<text text-anchor="start" x="176" y="-120" font-family="Helvetica,sans-Serif" font-size="10.00">/AliceO2Group/AliceO2</text>
<text text-anchor="start" x="176" y="-109" font-family="Helvetica,sans-Serif" font-size="10.00">/Detectors/MUON/MID/Base</text>
<text text-anchor="middle" x="241" y="-98" font-family="Helvetica,sans-Serif" font-size="10.00">/include/MIDBase/HitFinder.h</text>
</a>
</g>
</g>
<!-- Node1&#45;&gt;Node2 -->
<g id="edge1" class="edge"><title>Node1&#45;&gt;Node2</title>
<path fill="none" stroke="midnightblue" d="M557.258,-189.311C489.968,-178.333 402.554,-162.579 326,-144 322.101,-143.054 318.117,-142.031 314.106,-140.958"/>
<polygon fill="midnightblue" stroke="midnightblue" points="557.027,-192.819 567.458,-190.963 558.146,-185.909 557.027,-192.819"/>
</g>
<!-- Node6 -->
<g id="node6" class="node"><title>Node6</title>
<g id="a_node6"><a xlink:href="../../dc/d25/GeometryTransformer_8cxx.html" target="_top" xlink:title="Geometry transformer for MID. ">
<polygon fill="none" stroke="black" points="511,-91 511,-143 661,-143 661,-91 511,-91"/>
<text text-anchor="start" x="519" y="-131" font-family="Helvetica,sans-Serif" font-size="10.00">/home/travis/build</text>
<text text-anchor="start" x="519" y="-120" font-family="Helvetica,sans-Serif" font-size="10.00">/AliceO2Group/AliceO2</text>
<text text-anchor="start" x="519" y="-109" font-family="Helvetica,sans-Serif" font-size="10.00">/Detectors/MUON/MID/Base</text>
<text text-anchor="middle" x="586" y="-98" font-family="Helvetica,sans-Serif" font-size="10.00">/src/GeometryTransformer.cxx</text>
</a>
</g>
</g>
<!-- Node1&#45;&gt;Node6 -->
<g id="edge5" class="edge"><title>Node1&#45;&gt;Node6</title>
<path fill="none" stroke="midnightblue" d="M637.379,-173.139C628.114,-163.196 618.093,-152.441 609.381,-143.092"/>
<polygon fill="midnightblue" stroke="midnightblue" points="634.904,-175.617 644.282,-180.547 640.026,-170.845 634.904,-175.617"/>
</g>
<!-- Node7 -->
<g id="node7" class="node"><title>Node7</title>
<g id="a_node7"><a xlink:href="../../d3/d9d/Positions_8cxx.html" target="_top" xlink:title="/home/travis/build\l/AliceO2Group/AliceO2\l/Detectors/MUON/MID/Base\l/test/src/Positions.cxx">
<polygon fill="none" stroke="black" points="679.5,-91 679.5,-143 822.5,-143 822.5,-91 679.5,-91"/>
<text text-anchor="start" x="687.5" y="-131" font-family="Helvetica,sans-Serif" font-size="10.00">/home/travis/build</text>
<text text-anchor="start" x="687.5" y="-120" font-family="Helvetica,sans-Serif" font-size="10.00">/AliceO2Group/AliceO2</text>
<text text-anchor="start" x="687.5" y="-109" font-family="Helvetica,sans-Serif" font-size="10.00">/Detectors/MUON/MID/Base</text>
<text text-anchor="middle" x="751" y="-98" font-family="Helvetica,sans-Serif" font-size="10.00">/test/src/Positions.cxx</text>
</a>
</g>
</g>
<!-- Node1&#45;&gt;Node7 -->
<g id="edge6" class="edge"><title>Node1&#45;&gt;Node7</title>
<path fill="none" stroke="midnightblue" d="M698.994,-173.139C708.372,-163.196 718.516,-152.441 727.334,-143.092"/>
<polygon fill="midnightblue" stroke="midnightblue" points="696.322,-170.871 692.007,-180.547 701.415,-175.674 696.322,-170.871"/>
</g>
<!-- Node8 -->
<g id="node8" class="node"><title>Node8</title>
<g id="a_node8"><a xlink:href="../../d7/de7/MUON_2MID_2Simulation_2src_2Geometry_8cxx.html" target="_top" xlink:title="/home/travis/build\l/AliceO2Group/AliceO2\l/Detectors/MUON/MID/Simulation\l/src/Geometry.cxx">
<polygon fill="none" stroke="black" points="840.5,-91 840.5,-143 1007.5,-143 1007.5,-91 840.5,-91"/>
<text text-anchor="start" x="848.5" y="-131" font-family="Helvetica,sans-Serif" font-size="10.00">/home/travis/build</text>
<text text-anchor="start" x="848.5" y="-120" font-family="Helvetica,sans-Serif" font-size="10.00">/AliceO2Group/AliceO2</text>
<text text-anchor="start" x="848.5" y="-109" font-family="Helvetica,sans-Serif" font-size="10.00">/Detectors/MUON/MID/Simulation</text>
<text text-anchor="middle" x="924" y="-98" font-family="Helvetica,sans-Serif" font-size="10.00">/src/Geometry.cxx</text>
</a>
</g>
</g>
<!-- Node1&#45;&gt;Node8 -->
<g id="edge7" class="edge"><title>Node1&#45;&gt;Node8</title>
<path fill="none" stroke="midnightblue" d="M750.863,-177.516C783.079,-166.442 819.669,-153.864 850.886,-143.133"/>
<polygon fill="midnightblue" stroke="midnightblue" points="749.336,-174.34 741.017,-180.901 751.611,-180.96 749.336,-174.34"/>
</g>
<!-- Node9 -->
<g id="node9" class="node"><title>Node9</title>
<g id="a_node9"><a xlink:href="../../d1/d58/MID_2Simulation_2test_2testGeometry_8cxx.html" target="_top" xlink:title="/home/travis/build\l/AliceO2Group/AliceO2\l/Detectors/MUON/MID/Simulation\l/test/testGeometry.cxx">
<polygon fill="none" stroke="black" points="1025.5,-91 1025.5,-143 1192.5,-143 1192.5,-91 1025.5,-91"/>
<text text-anchor="start" x="1033.5" y="-131" font-family="Helvetica,sans-Serif" font-size="10.00">/home/travis/build</text>
<text text-anchor="start" x="1033.5" y="-120" font-family="Helvetica,sans-Serif" font-size="10.00">/AliceO2Group/AliceO2</text>
<text text-anchor="start" x="1033.5" y="-109" font-family="Helvetica,sans-Serif" font-size="10.00">/Detectors/MUON/MID/Simulation</text>
<text text-anchor="middle" x="1109" y="-98" font-family="Helvetica,sans-Serif" font-size="10.00">/test/testGeometry.cxx</text>
</a>
</g>
</g>
<!-- Node1&#45;&gt;Node9 -->
<g id="edge8" class="edge"><title>Node1&#45;&gt;Node9</title>
<path fill="none" stroke="midnightblue" d="M778.62,-189.085C847.286,-177.895 937.164,-161.999 1016,-144 1019.11,-143.291 1022.26,-142.544 1025.45,-141.769"/>
<polygon fill="midnightblue" stroke="midnightblue" points="777.958,-185.646 768.647,-190.701 779.078,-192.556 777.958,-185.646"/>
</g>
<!-- Node10 -->
<g id="node10" class="node"><title>Node10</title>
<g id="a_node10"><a xlink:href="../../db/d8e/MUON_2MID_2Tracking_2include_2MIDTracking_2Tracker_8h.html" target="_top" xlink:title="Track reconstruction algorithm for MID. ">
<polygon fill="none" stroke="black" points="335,-91 335,-143 493,-143 493,-91 335,-91"/>
<text text-anchor="start" x="343" y="-131" font-family="Helvetica,sans-Serif" font-size="10.00">/home/travis/build</text>
<text text-anchor="start" x="343" y="-120" font-family="Helvetica,sans-Serif" font-size="10.00">/AliceO2Group/AliceO2</text>
<text text-anchor="start" x="343" y="-109" font-family="Helvetica,sans-Serif" font-size="10.00">/Detectors/MUON/MID/Tracking</text>
<text text-anchor="middle" x="414" y="-98" font-family="Helvetica,sans-Serif" font-size="10.00">/include/MIDTracking/Tracker.h</text>
</a>
</g>
</g>
<!-- Node1&#45;&gt;Node10 -->
<g id="edge9" class="edge"><title>Node1&#45;&gt;Node10</title>
<path fill="none" stroke="midnightblue" d="M585.784,-177.516C553.82,-166.442 517.516,-153.864 486.543,-143.133"/>
<polygon fill="midnightblue" stroke="midnightblue" points="584.959,-180.934 595.554,-180.901 587.251,-174.32 584.959,-180.934"/>
</g>
<!-- Node3 -->
<g id="node3" class="node"><title>Node3</title>
<g id="a_node3"><a xlink:href="../../d4/dc0/HitFinder_8cxx.html" target="_top" xlink:title="Implementation of the hit finder for MID. ">
<polygon fill="none" stroke="black" points="-0.5,-1 -0.5,-53 142.5,-53 142.5,-1 -0.5,-1"/>
<text text-anchor="start" x="7.5" y="-41" font-family="Helvetica,sans-Serif" font-size="10.00">/home/travis/build</text>
<text text-anchor="start" x="7.5" y="-30" font-family="Helvetica,sans-Serif" font-size="10.00">/AliceO2Group/AliceO2</text>
<text text-anchor="start" x="7.5" y="-19" font-family="Helvetica,sans-Serif" font-size="10.00">/Detectors/MUON/MID/Base</text>
<text text-anchor="middle" x="71" y="-8" font-family="Helvetica,sans-Serif" font-size="10.00">/src/HitFinder.cxx</text>
</a>
</g>
</g>
<!-- Node2&#45;&gt;Node3 -->
<g id="edge2" class="edge"><title>Node2&#45;&gt;Node3</title>
<path fill="none" stroke="midnightblue" d="M183.248,-86.1047C162.491,-75.3602 139.31,-63.3607 119.428,-53.0687"/>
<polygon fill="midnightblue" stroke="midnightblue" points="181.795,-89.2939 192.285,-90.7827 185.013,-83.0774 181.795,-89.2939"/>
</g>
<!-- Node4 -->
<g id="node4" class="node"><title>Node4</title>
<g id="a_node4"><a xlink:href="../../d0/db9/bench__Tracker_8cxx.html" target="_top" xlink:title="Benchmark tracker device for MID. ">
<polygon fill="none" stroke="black" points="161,-1 161,-53 319,-53 319,-1 161,-1"/>
<text text-anchor="start" x="169" y="-41" font-family="Helvetica,sans-Serif" font-size="10.00">/home/travis/build</text>
<text text-anchor="start" x="169" y="-30" font-family="Helvetica,sans-Serif" font-size="10.00">/AliceO2Group/AliceO2</text>
<text text-anchor="start" x="169" y="-19" font-family="Helvetica,sans-Serif" font-size="10.00">/Detectors/MUON/MID/Tracking</text>
<text text-anchor="middle" x="240" y="-8" font-family="Helvetica,sans-Serif" font-size="10.00">/test/bench_Tracker.cxx</text>
</a>
</g>
</g>
<!-- Node2&#45;&gt;Node4 -->
<g id="edge3" class="edge"><title>Node2&#45;&gt;Node4</title>
<path fill="none" stroke="midnightblue" d="M240.596,-80.4892C240.492,-71.3088 240.382,-61.616 240.285,-53.0921"/>
<polygon fill="midnightblue" stroke="midnightblue" points="237.097,-80.5872 240.711,-90.5468 244.097,-80.5076 237.097,-80.5872"/>
</g>
<!-- Node5 -->
<g id="node5" class="node"><title>Node5</title>
<g id="a_node5"><a xlink:href="../../da/de0/testTracker_8cxx.html" target="_top" xlink:title="Test tracking device for MID. ">
<polygon fill="none" stroke="black" points="337,-1 337,-53 495,-53 495,-1 337,-1"/>
<text text-anchor="start" x="345" y="-41" font-family="Helvetica,sans-Serif" font-size="10.00">/home/travis/build</text>
<text text-anchor="start" x="345" y="-30" font-family="Helvetica,sans-Serif" font-size="10.00">/AliceO2Group/AliceO2</text>
<text text-anchor="start" x="345" y="-19" font-family="Helvetica,sans-Serif" font-size="10.00">/Detectors/MUON/MID/Tracking</text>
<text text-anchor="middle" x="416" y="-8" font-family="Helvetica,sans-Serif" font-size="10.00">/test/testTracker.cxx</text>
</a>
</g>
</g>
<!-- Node2&#45;&gt;Node5 -->
<g id="edge4" class="edge"><title>Node2&#45;&gt;Node5</title>
<path fill="none" stroke="midnightblue" d="M300.163,-86.2492C321.604,-75.4678 345.589,-63.4068 366.147,-53.0687"/>
<polygon fill="midnightblue" stroke="midnightblue" points="298.51,-83.1632 291.148,-90.7827 301.654,-89.417 298.51,-83.1632"/>
</g>
<!-- Node10&#45;&gt;Node4 -->
<g id="edge11" class="edge"><title>Node10&#45;&gt;Node4</title>
<path fill="none" stroke="midnightblue" d="M355.175,-86.2492C333.857,-75.4678 310.009,-63.4068 289.568,-53.0687"/>
<polygon fill="midnightblue" stroke="midnightblue" points="353.635,-89.3928 364.139,-90.7827 356.795,-83.1463 353.635,-89.3928"/>
</g>
<!-- Node10&#45;&gt;Node5 -->
<g id="edge12" class="edge"><title>Node10&#45;&gt;Node5</title>
<path fill="none" stroke="midnightblue" d="M414.807,-80.4892C415.016,-71.3088 415.236,-61.616 415.43,-53.0921"/>
<polygon fill="midnightblue" stroke="midnightblue" points="411.307,-80.4698 414.578,-90.5468 418.305,-80.6289 411.307,-80.4698"/>
</g>
<!-- Node11 -->
<g id="node11" class="node"><title>Node11</title>
<g id="a_node11"><a xlink:href="../../de/dbc/MUON_2MID_2Tracking_2src_2Tracker_8cxx.html" target="_top" xlink:title="Implementation of the tracker algorithm for the MID. ">
<polygon fill="none" stroke="black" points="513,-1 513,-53 671,-53 671,-1 513,-1"/>
<text text-anchor="start" x="521" y="-41" font-family="Helvetica,sans-Serif" font-size="10.00">/home/travis/build</text>
<text text-anchor="start" x="521" y="-30" font-family="Helvetica,sans-Serif" font-size="10.00">/AliceO2Group/AliceO2</text>
<text text-anchor="start" x="521" y="-19" font-family="Helvetica,sans-Serif" font-size="10.00">/Detectors/MUON/MID/Tracking</text>
<text text-anchor="middle" x="592" y="-8" font-family="Helvetica,sans-Serif" font-size="10.00">/src/Tracker.cxx</text>
</a>
</g>
</g>
<!-- Node10&#45;&gt;Node11 -->
<g id="edge10" class="edge"><title>Node10&#45;&gt;Node11</title>
<path fill="none" stroke="midnightblue" d="M474.178,-86.2492C495.986,-75.4678 520.382,-63.4068 541.293,-53.0687"/>
<polygon fill="midnightblue" stroke="midnightblue" points="472.421,-83.2134 465.008,-90.7827 475.523,-89.4884 472.421,-83.2134"/>
</g>
</g>
</svg>
