<?xml version="1.0" encoding="UTF-8" standalone="no"?>
<!DOCTYPE svg PUBLIC "-//W3C//DTD SVG 1.1//EN"
 "http://www.w3.org/Graphics/SVG/1.1/DTD/svg11.dtd">
<!-- Generated by graphviz version 2.36.0 (20140111.2315)
 -->
<!-- Title: /home/travis/build/AliceO2Group/AliceO2/Detectors/gconfig/src/G3Config.cxx Pages: 1 -->
<svg width="2222pt" height="390pt"
 viewBox="0.00 0.00 2222.00 390.00" xmlns="http://www.w3.org/2000/svg" xmlns:xlink="http://www.w3.org/1999/xlink">
<g id="graph0" class="graph" transform="scale(1 1) rotate(0) translate(4 386)">
<title>/home/travis/build/AliceO2Group/AliceO2/Detectors/gconfig/src/G3Config.cxx</title>
<!-- Node1 -->
<g id="node1" class="node"><title>Node1</title>
<polygon fill="#bfbfbf" stroke="black" points="1639,-329 1639,-381 1757,-381 1757,-329 1639,-329"/>
<text text-anchor="start" x="1647" y="-369" font-family="Helvetica,sans-Serif" font-size="10.00">/home/travis/build</text>
<text text-anchor="start" x="1647" y="-358" font-family="Helvetica,sans-Serif" font-size="10.00">/AliceO2Group/AliceO2</text>
<text text-anchor="start" x="1647" y="-347" font-family="Helvetica,sans-Serif" font-size="10.00">/Detectors/gconfig/src</text>
<text text-anchor="middle" x="1698" y="-336" font-family="Helvetica,sans-Serif" font-size="10.00">/G3Config.cxx</text>
</g>
<!-- Node2 -->
<g id="node2" class="node"><title>Node2</title>
<polygon fill="none" stroke="#bfbfbf" points="917.5,-266.5 917.5,-285.5 994.5,-285.5 994.5,-266.5 917.5,-266.5"/>
<text text-anchor="middle" x="956" y="-273.5" font-family="Helvetica,sans-Serif" font-size="10.00">FairRunSim.h</text>
</g>
<!-- Node1&#45;&gt;Node2 -->
<g id="edge1" class="edge"><title>Node1&#45;&gt;Node2</title>
<path fill="none" stroke="midnightblue" d="M1638.9,-352.965C1518.37,-349.926 1235.96,-338.054 1004,-292 999.445,-291.096 994.711,-289.92 990.069,-288.624"/>
<polygon fill="midnightblue" stroke="midnightblue" points="990.742,-285.172 980.158,-285.655 988.733,-291.877 990.742,-285.172"/>
</g>
<!-- Node3 -->
<g id="node3" class="node"><title>Node3</title>
<polygon fill="none" stroke="#bfbfbf" points="1013,-266.5 1013,-285.5 1075,-285.5 1075,-266.5 1013,-266.5"/>
<text text-anchor="middle" x="1044" y="-273.5" font-family="Helvetica,sans-Serif" font-size="10.00">TGeant3.h</text>
</g>
<!-- Node1&#45;&gt;Node3 -->
<g id="edge2" class="edge"><title>Node1&#45;&gt;Node3</title>
<path fill="none" stroke="midnightblue" d="M1638.76,-353.072C1528.25,-350.234 1283.78,-338.715 1084,-292 1080.5,-291.182 1076.89,-290.135 1073.34,-288.977"/>
<polygon fill="midnightblue" stroke="midnightblue" points="1074.22,-285.575 1063.63,-285.511 1071.87,-292.168 1074.22,-285.575"/>
</g>
<!-- Node4 -->
<g id="node4" class="node"><title>Node4</title>
<polygon fill="none" stroke="#bfbfbf" points="1093,-266.5 1093,-285.5 1179,-285.5 1179,-266.5 1093,-266.5"/>
<text text-anchor="middle" x="1136" y="-273.5" font-family="Helvetica,sans-Serif" font-size="10.00">TGeant3TGeo.h</text>
</g>
<!-- Node1&#45;&gt;Node4 -->
<g id="edge3" class="edge"><title>Node1&#45;&gt;Node4</title>
<path fill="none" stroke="midnightblue" d="M1639,-349.907C1543.5,-342.596 1349.47,-324.884 1188,-292 1182.89,-290.96 1177.56,-289.667 1172.34,-288.279"/>
<polygon fill="midnightblue" stroke="midnightblue" points="1173.09,-284.856 1162.52,-285.535 1171.21,-291.597 1173.09,-284.856"/>
</g>
<!-- Node5 -->
<g id="node5" class="node"><title>Node5</title>
<g id="a_node5"><a xlink:href="../../d4/d03/simulation_2include_2SimulationDataFormat_2Stack_8h.html" target="_top" xlink:title="SimulationDataFormat\l/Stack.h">
<polygon fill="none" stroke="black" points="1197,-261 1197,-291 1311,-291 1311,-261 1197,-261"/>
<text text-anchor="start" x="1205" y="-279" font-family="Helvetica,sans-Serif" font-size="10.00">SimulationDataFormat</text>
<text text-anchor="middle" x="1254" y="-268" font-family="Helvetica,sans-Serif" font-size="10.00">/Stack.h</text>
</a>
</g>
</g>
<!-- Node1&#45;&gt;Node5 -->
<g id="edge4" class="edge"><title>Node1&#45;&gt;Node5</title>
<path fill="none" stroke="midnightblue" d="M1638.58,-343.695C1556.18,-329.406 1407.64,-303.645 1321.27,-288.666"/>
<polygon fill="midnightblue" stroke="midnightblue" points="1321.76,-285.199 1311.31,-286.939 1320.56,-292.096 1321.76,-285.199"/>
</g>
<!-- Node36 -->
<g id="node36" class="node"><title>Node36</title>
<g id="a_node36"><a xlink:href="../../de/d1c/StackParam_8h.html" target="_top" xlink:title="SimulationDataFormat\l/StackParam.h">
<polygon fill="none" stroke="black" points="1458,-261 1458,-291 1572,-291 1572,-261 1458,-261"/>
<text text-anchor="start" x="1466" y="-279" font-family="Helvetica,sans-Serif" font-size="10.00">SimulationDataFormat</text>
<text text-anchor="middle" x="1515" y="-268" font-family="Helvetica,sans-Serif" font-size="10.00">/StackParam.h</text>
</a>
</g>
</g>
<!-- Node1&#45;&gt;Node36 -->
<g id="edge44" class="edge"><title>Node1&#45;&gt;Node36</title>
<path fill="none" stroke="midnightblue" d="M1638.84,-329.107C1612.38,-317.974 1581.78,-305.099 1557.62,-294.933"/>
<polygon fill="midnightblue" stroke="midnightblue" points="1558.94,-291.69 1548.36,-291.038 1556.22,-298.143 1558.94,-291.69"/>
</g>
<!-- Node44 -->
<g id="node44" class="node"><title>Node44</title>
<polygon fill="none" stroke="#bfbfbf" points="1590,-266.5 1590,-285.5 1644,-285.5 1644,-266.5 1590,-266.5"/>
<text text-anchor="middle" x="1617" y="-273.5" font-family="Helvetica,sans-Serif" font-size="10.00">iostream</text>
</g>
<!-- Node1&#45;&gt;Node44 -->
<g id="edge56" class="edge"><title>Node1&#45;&gt;Node44</title>
<path fill="none" stroke="midnightblue" d="M1671.48,-328.787C1658.98,-316.904 1644.45,-303.096 1633.54,-292.727"/>
<polygon fill="midnightblue" stroke="midnightblue" points="1635.66,-289.911 1626,-285.558 1630.84,-294.984 1635.66,-289.911"/>
</g>
<!-- Node45 -->
<g id="node45" class="node"><title>Node45</title>
<polygon fill="none" stroke="#bfbfbf" points="1662.5,-266.5 1662.5,-285.5 1733.5,-285.5 1733.5,-266.5 1662.5,-266.5"/>
<text text-anchor="middle" x="1698" y="-273.5" font-family="Helvetica,sans-Serif" font-size="10.00">FairLogger.h</text>
</g>
<!-- Node1&#45;&gt;Node45 -->
<g id="edge57" class="edge"><title>Node1&#45;&gt;Node45</title>
<path fill="none" stroke="midnightblue" d="M1698,-328.787C1698,-318.069 1698,-305.785 1698,-295.871"/>
<polygon fill="midnightblue" stroke="midnightblue" points="1701.5,-295.558 1698,-285.558 1694.5,-295.558 1701.5,-295.558"/>
</g>
<!-- Node46 -->
<g id="node46" class="node"><title>Node46</title>
<polygon fill="none" stroke="#bfbfbf" points="1751.5,-266.5 1751.5,-285.5 1824.5,-285.5 1824.5,-266.5 1751.5,-266.5"/>
<text text-anchor="middle" x="1788" y="-273.5" font-family="Helvetica,sans-Serif" font-size="10.00">FairModule.h</text>
</g>
<!-- Node1&#45;&gt;Node46 -->
<g id="edge58" class="edge"><title>Node1&#45;&gt;Node46</title>
<path fill="none" stroke="midnightblue" d="M1727.47,-328.787C1741.63,-316.671 1758.13,-302.553 1770.33,-292.121"/>
<polygon fill="midnightblue" stroke="midnightblue" points="1772.67,-294.718 1778,-285.558 1768.12,-289.399 1772.67,-294.718"/>
</g>
<!-- Node47 -->
<g id="node47" class="node"><title>Node47</title>
<g id="a_node47"><a xlink:href="../../d9/d6d/Cave_8h.html" target="_top" xlink:title="DetectorsPassive/Cave.h">
<polygon fill="none" stroke="black" points="2009.5,-130.5 2009.5,-149.5 2138.5,-149.5 2138.5,-130.5 2009.5,-130.5"/>
<text text-anchor="middle" x="2074" y="-137.5" font-family="Helvetica,sans-Serif" font-size="10.00">DetectorsPassive/Cave.h</text>
</a>
</g>
</g>
<!-- Node1&#45;&gt;Node47 -->
<g id="edge59" class="edge"><title>Node1&#45;&gt;Node47</title>
<path fill="none" stroke="midnightblue" d="M1757.25,-334.667C1787.81,-323.764 1825.23,-308.938 1857,-292 1897.82,-270.236 2008.88,-189.135 2054.27,-155.628"/>
<polygon fill="midnightblue" stroke="midnightblue" points="2056.48,-158.352 2062.43,-149.592 2052.31,-152.724 2056.48,-158.352"/>
</g>
<!-- Node50 -->
<g id="node50" class="node"><title>Node50</title>
<g id="a_node50"><a xlink:href="../../d0/d9a/MaterialManager_8h.html" target="_top" xlink:title="DetectorsBase/MaterialManager.h">
<polygon fill="none" stroke="black" points="1826.5,-130.5 1826.5,-149.5 1991.5,-149.5 1991.5,-130.5 1826.5,-130.5"/>
<text text-anchor="middle" x="1909" y="-137.5" font-family="Helvetica,sans-Serif" font-size="10.00">DetectorsBase/MaterialManager.h</text>
</a>
</g>
</g>
<!-- Node1&#45;&gt;Node50 -->
<g id="edge64" class="edge"><title>Node1&#45;&gt;Node50</title>
<path fill="none" stroke="midnightblue" d="M1757.15,-337.405C1783.1,-327.671 1812.29,-313.048 1833,-292 1867.06,-257.391 1854.26,-234.901 1877,-192 1883.16,-180.382 1890.99,-167.867 1897.37,-158.142"/>
<polygon fill="midnightblue" stroke="midnightblue" points="1900.3,-160.056 1902.93,-149.794 1894.47,-156.175 1900.3,-160.056"/>
</g>
<!-- Node53 -->
<g id="node53" class="node"><title>Node53</title>
<g id="a_node53"><a xlink:href="../../df/d35/SimSetup_8h.html" target="_top" xlink:title="SimSetup/SimSetup.h">
<polygon fill="none" stroke="black" points="1919.5,-266.5 1919.5,-285.5 2032.5,-285.5 2032.5,-266.5 1919.5,-266.5"/>
<text text-anchor="middle" x="1976" y="-273.5" font-family="Helvetica,sans-Serif" font-size="10.00">SimSetup/SimSetup.h</text>
</a>
</g>
</g>
<!-- Node1&#45;&gt;Node53 -->
<g id="edge69" class="edge"><title>Node1&#45;&gt;Node53</title>
<path fill="none" stroke="midnightblue" d="M1757.3,-337.576C1810.93,-322.721 1888.47,-301.244 1935.37,-288.254"/>
<polygon fill="midnightblue" stroke="midnightblue" points="1936.47,-291.581 1945.17,-285.538 1934.6,-284.835 1936.47,-291.581"/>
</g>
<!-- Node54 -->
<g id="node54" class="node"><title>Node54</title>
<g id="a_node54"><a xlink:href="../../d7/d91/g3Config_8C.html" target="_top" xlink:title="../g3Config.C">
<polygon fill="none" stroke="black" points="2050.5,-266.5 2050.5,-285.5 2125.5,-285.5 2125.5,-266.5 2050.5,-266.5"/>
<text text-anchor="middle" x="2088" y="-273.5" font-family="Helvetica,sans-Serif" font-size="10.00">../g3Config.C</text>
</a>
</g>
</g>
<!-- Node1&#45;&gt;Node54 -->
<g id="edge70" class="edge"><title>Node1&#45;&gt;Node54</title>
<path fill="none" stroke="midnightblue" d="M1757.06,-345.715C1825.81,-335.522 1942.49,-316.512 2041,-292 2045.11,-290.976 2049.39,-289.788 2053.62,-288.536"/>
<polygon fill="midnightblue" stroke="midnightblue" points="2054.77,-291.845 2063.29,-285.55 2052.71,-285.156 2054.77,-291.845"/>
</g>
<!-- Node56 -->
<g id="node56" class="node"><title>Node56</title>
<g id="a_node56"><a xlink:href="../../d7/de7/SetCuts_8h.html" target="_top" xlink:title="../SetCuts.h">
<polygon fill="none" stroke="black" points="2144,-266.5 2144,-285.5 2214,-285.5 2214,-266.5 2144,-266.5"/>
<text text-anchor="middle" x="2179" y="-273.5" font-family="Helvetica,sans-Serif" font-size="10.00">../SetCuts.h</text>
</a>
</g>
</g>
<!-- Node1&#45;&gt;Node56 -->
<g id="edge72" class="edge"><title>Node1&#45;&gt;Node56</title>
<path fill="none" stroke="midnightblue" d="M1757.16,-349.003C1841.6,-341.102 2001.17,-323.313 2134,-292 2137.95,-291.07 2142.04,-289.943 2146.07,-288.73"/>
<polygon fill="midnightblue" stroke="midnightblue" points="2147.41,-291.975 2155.87,-285.597 2145.28,-285.307 2147.41,-291.975"/>
</g>
<!-- Node6 -->
<g id="node6" class="node"><title>Node6</title>
<g id="a_node6"><a xlink:href="../../d6/d31/DetID_8h.html" target="_top" xlink:title="DetectorsCommonDataFormats\l/DetID.h">
<polygon fill="none" stroke="black" points="280,-125 280,-155 436,-155 436,-125 280,-125"/>
<text text-anchor="start" x="288" y="-143" font-family="Helvetica,sans-Serif" font-size="10.00">DetectorsCommonDataFormats</text>
<text text-anchor="middle" x="358" y="-132" font-family="Helvetica,sans-Serif" font-size="10.00">/DetID.h</text>
</a>
</g>
</g>
<!-- Node5&#45;&gt;Node6 -->
<g id="edge5" class="edge"><title>Node5&#45;&gt;Node6</title>
<path fill="none" stroke="midnightblue" d="M1196.86,-261.501C1193.87,-260.956 1190.9,-260.45 1188,-260 1000.24,-230.875 939.691,-291.297 762,-224 739.722,-215.563 741.077,-200.951 719,-192 608.177,-147.066 568.528,-172.982 446.342,-156.108"/>
<polygon fill="midnightblue" stroke="midnightblue" points="446.63,-152.613 436.231,-154.64 445.624,-159.54 446.63,-152.613"/>
</g>
<!-- Node7 -->
<g id="node7" class="node"><title>Node7</title>
<polygon fill="none" stroke="#bfbfbf" points="1260,-62.5 1260,-81.5 1316,-81.5 1316,-62.5 1260,-62.5"/>
<text text-anchor="middle" x="1288" y="-69.5" font-family="Helvetica,sans-Serif" font-size="10.00">Rtypes.h</text>
</g>
<!-- Node5&#45;&gt;Node7 -->
<g id="edge38" class="edge"><title>Node5&#45;&gt;Node7</title>
<path fill="none" stroke="midnightblue" d="M1225.42,-260.952C1211.39,-252.386 1195.85,-239.988 1188,-224 1168.41,-184.106 1164.78,-161.899 1188,-124 1201.42,-102.095 1227.53,-89.2262 1249.71,-81.8961"/>
<polygon fill="midnightblue" stroke="midnightblue" points="1251.01,-85.1591 1259.56,-78.9053 1248.97,-78.4609 1251.01,-85.1591"/>
</g>
<!-- Node16 -->
<g id="node16" class="node"><title>Node16</title>
<polygon fill="none" stroke="#bfbfbf" points="771.5,-198.5 771.5,-217.5 872.5,-217.5 872.5,-198.5 771.5,-198.5"/>
<text text-anchor="middle" x="822" y="-205.5" font-family="Helvetica,sans-Serif" font-size="10.00">FairGenericStack.h</text>
</g>
<!-- Node5&#45;&gt;Node16 -->
<g id="edge16" class="edge"><title>Node5&#45;&gt;Node16</title>
<path fill="none" stroke="midnightblue" d="M1196.84,-261.617C1193.85,-261.042 1190.9,-260.498 1188,-260 1053.04,-236.793 1016.7,-248.657 882,-224 875.762,-222.858 869.209,-221.445 862.817,-219.946"/>
<polygon fill="midnightblue" stroke="midnightblue" points="863.521,-216.515 852.976,-217.547 861.863,-223.316 863.521,-216.515"/>
</g>
<!-- Node17 -->
<g id="node17" class="node"><title>Node17</title>
<g id="a_node17"><a xlink:href="../../d2/de2/MCTrack_8h.html" target="_top" xlink:title="Definition of the MCTrack class. ">
<polygon fill="none" stroke="black" points="891,-193 891,-223 1005,-223 1005,-193 891,-193"/>
<text text-anchor="start" x="899" y="-211" font-family="Helvetica,sans-Serif" font-size="10.00">SimulationDataFormat</text>
<text text-anchor="middle" x="948" y="-200" font-family="Helvetica,sans-Serif" font-size="10.00">/MCTrack.h</text>
</a>
</g>
</g>
<!-- Node5&#45;&gt;Node17 -->
<g id="edge17" class="edge"><title>Node5&#45;&gt;Node17</title>
<path fill="none" stroke="midnightblue" d="M1196.77,-261.942C1193.81,-261.282 1190.87,-260.631 1188,-260 1129.74,-247.19 1063.4,-233.134 1015.26,-223.028"/>
<polygon fill="midnightblue" stroke="midnightblue" points="1015.78,-219.56 1005.27,-220.933 1014.34,-226.411 1015.78,-219.56"/>
</g>
<!-- Node22 -->
<g id="node22" class="node"><title>Node22</title>
<polygon fill="none" stroke="#bfbfbf" points="1005,-130.5 1005,-149.5 1069,-149.5 1069,-130.5 1005,-130.5"/>
<text text-anchor="middle" x="1037" y="-137.5" font-family="Helvetica,sans-Serif" font-size="10.00">TParticle.h</text>
</g>
<!-- Node5&#45;&gt;Node22 -->
<g id="edge39" class="edge"><title>Node5&#45;&gt;Node22</title>
<path fill="none" stroke="midnightblue" d="M1223.96,-260.863C1204.03,-251.159 1177.49,-237.617 1155,-224 1118.87,-202.13 1079.14,-173.061 1056.23,-155.765"/>
<polygon fill="midnightblue" stroke="midnightblue" points="1058.12,-152.807 1048.04,-149.544 1053.89,-158.381 1058.12,-152.807"/>
</g>
<!-- Node25 -->
<g id="node25" class="node"><title>Node25</title>
<g id="a_node25"><a xlink:href="../../db/d14/MCTruthContainer_8h.html" target="_top" xlink:title="Definition of a container to keep Monte Carlo truth external to simulation objects. ">
<polygon fill="none" stroke="black" points="125,-125 125,-155 239,-155 239,-125 125,-125"/>
<text text-anchor="start" x="133" y="-143" font-family="Helvetica,sans-Serif" font-size="10.00">SimulationDataFormat</text>
<text text-anchor="middle" x="182" y="-132" font-family="Helvetica,sans-Serif" font-size="10.00">/MCTruthContainer.h</text>
</a>
</g>
</g>
<!-- Node5&#45;&gt;Node25 -->
<g id="edge27" class="edge"><title>Node5&#45;&gt;Node25</title>
<path fill="none" stroke="midnightblue" d="M1196.86,-261.474C1193.87,-260.936 1190.9,-260.439 1188,-260 1084.65,-244.375 814.302,-266.939 719,-224 700.373,-215.608 704.585,-200.485 686,-192 601.792,-153.556 362.826,-167.702 271,-156 263.947,-155.101 256.598,-154.05 249.28,-152.928"/>
<polygon fill="midnightblue" stroke="midnightblue" points="249.774,-149.463 239.351,-151.363 248.683,-156.377 249.774,-149.463"/>
</g>
<!-- Node29 -->
<g id="node29" class="node"><title>Node29</title>
<g id="a_node29"><a xlink:href="../../d5/dbe/TrackReference_8h.html" target="_top" xlink:title="SimulationDataFormat\l/TrackReference.h">
<polygon fill="none" stroke="black" points="1197,-193 1197,-223 1311,-223 1311,-193 1197,-193"/>
<text text-anchor="start" x="1205" y="-211" font-family="Helvetica,sans-Serif" font-size="10.00">SimulationDataFormat</text>
<text text-anchor="middle" x="1254" y="-200" font-family="Helvetica,sans-Serif" font-size="10.00">/TrackReference.h</text>
</a>
</g>
</g>
<!-- Node5&#45;&gt;Node29 -->
<g id="edge33" class="edge"><title>Node5&#45;&gt;Node29</title>
<path fill="none" stroke="midnightblue" d="M1254,-260.679C1254,-252.722 1254,-242.605 1254,-233.436"/>
<polygon fill="midnightblue" stroke="midnightblue" points="1257.5,-233.293 1254,-223.293 1250.5,-233.293 1257.5,-233.293"/>
</g>
<!-- Node32 -->
<g id="node32" class="node"><title>Node32</title>
<polygon fill="none" stroke="#bfbfbf" points="1738.5,-62.5 1738.5,-81.5 1773.5,-81.5 1773.5,-62.5 1738.5,-62.5"/>
<text text-anchor="middle" x="1756" y="-69.5" font-family="Helvetica,sans-Serif" font-size="10.00">map</text>
</g>
<!-- Node5&#45;&gt;Node32 -->
<g id="edge40" class="edge"><title>Node5&#45;&gt;Node32</title>
<path fill="none" stroke="midnightblue" d="M1311.04,-271.515C1383.15,-266.078 1510.6,-253.022 1616,-224 1691.28,-203.271 1734.77,-221.028 1778,-156 1791.3,-135.993 1779.14,-108.284 1768.3,-90.4976"/>
<polygon fill="midnightblue" stroke="midnightblue" points="1770.98,-88.2072 1762.58,-81.7494 1765.12,-92.0356 1770.98,-88.2072"/>
</g>
<!-- Node33 -->
<g id="node33" class="node"><title>Node33</title>
<polygon fill="none" stroke="#bfbfbf" points="1329,-198.5 1329,-217.5 1381,-217.5 1381,-198.5 1329,-198.5"/>
<text text-anchor="middle" x="1355" y="-205.5" font-family="Helvetica,sans-Serif" font-size="10.00">memory</text>
</g>
<!-- Node5&#45;&gt;Node33 -->
<g id="edge41" class="edge"><title>Node5&#45;&gt;Node33</title>
<path fill="none" stroke="midnightblue" d="M1275.92,-260.679C1292.85,-249.611 1316.19,-234.363 1333.12,-223.3"/>
<polygon fill="midnightblue" stroke="midnightblue" points="1335.32,-226.038 1341.78,-217.638 1331.5,-220.178 1335.32,-226.038"/>
</g>
<!-- Node34 -->
<g id="node34" class="node"><title>Node34</title>
<polygon fill="none" stroke="#bfbfbf" points="1399.5,-198.5 1399.5,-217.5 1440.5,-217.5 1440.5,-198.5 1399.5,-198.5"/>
<text text-anchor="middle" x="1420" y="-205.5" font-family="Helvetica,sans-Serif" font-size="10.00">stack</text>
</g>
<!-- Node5&#45;&gt;Node34 -->
<g id="edge42" class="edge"><title>Node5&#45;&gt;Node34</title>
<path fill="none" stroke="midnightblue" d="M1294.91,-260.924C1322.15,-251.245 1358.56,-237.708 1390,-224 1391.4,-223.389 1392.83,-222.746 1394.27,-222.083"/>
<polygon fill="midnightblue" stroke="midnightblue" points="1396.15,-225.06 1403.64,-217.567 1393.11,-218.753 1396.15,-225.06"/>
</g>
<!-- Node35 -->
<g id="node35" class="node"><title>Node35</title>
<polygon fill="none" stroke="#bfbfbf" points="637,-198.5 637,-217.5 677,-217.5 677,-198.5 637,-198.5"/>
<text text-anchor="middle" x="657" y="-205.5" font-family="Helvetica,sans-Serif" font-size="10.00">utility</text>
</g>
<!-- Node5&#45;&gt;Node35 -->
<g id="edge43" class="edge"><title>Node5&#45;&gt;Node35</title>
<path fill="none" stroke="midnightblue" d="M1196.86,-261.459C1193.87,-260.924 1190.91,-260.433 1188,-260 968.95,-227.366 905.913,-277.482 691,-224 688.183,-223.299 685.305,-222.381 682.476,-221.344"/>
<polygon fill="midnightblue" stroke="midnightblue" points="683.777,-218.094 673.199,-217.501 681.098,-224.561 683.777,-218.094"/>
</g>
<!-- Node6&#45;&gt;Node7 -->
<g id="edge6" class="edge"><title>Node6&#45;&gt;Node7</title>
<path fill="none" stroke="midnightblue" d="M436.196,-125.099C439.165,-124.704 442.107,-124.336 445,-124 754.261,-88.0956 1130.47,-76.6655 1249.79,-73.8112"/>
<polygon fill="midnightblue" stroke="midnightblue" points="1249.97,-77.3081 1259.89,-73.5758 1249.81,-70.31 1249.97,-77.3081"/>
</g>
<!-- Node8 -->
<g id="node8" class="node"><title>Node8</title>
<polygon fill="none" stroke="#bfbfbf" points="566,-0.5 566,-19.5 604,-19.5 604,-0.5 566,-0.5"/>
<text text-anchor="middle" x="585" y="-7.5" font-family="Helvetica,sans-Serif" font-size="10.00">array</text>
</g>
<!-- Node6&#45;&gt;Node8 -->
<g id="edge7" class="edge"><title>Node6&#45;&gt;Node8</title>
<path fill="none" stroke="midnightblue" d="M432.029,-124.959C497.667,-112.155 583.936,-94.3037 589,-88 602.066,-71.7346 597.74,-46.7333 592.355,-29.6625"/>
<polygon fill="midnightblue" stroke="midnightblue" points="595.483,-28.0118 588.837,-19.7612 588.887,-30.3559 595.483,-28.0118"/>
</g>
<!-- Node9 -->
<g id="node9" class="node"><title>Node9</title>
<polygon fill="none" stroke="#bfbfbf" points="287.5,-62.5 287.5,-81.5 328.5,-81.5 328.5,-62.5 287.5,-62.5"/>
<text text-anchor="middle" x="308" y="-69.5" font-family="Helvetica,sans-Serif" font-size="10.00">bitset</text>
</g>
<!-- Node6&#45;&gt;Node9 -->
<g id="edge8" class="edge"><title>Node6&#45;&gt;Node9</title>
<path fill="none" stroke="midnightblue" d="M347.151,-124.679C339.432,-114.49 329.029,-100.759 320.887,-90.0112"/>
<polygon fill="midnightblue" stroke="midnightblue" points="323.517,-87.6857 314.688,-81.8283 317.937,-91.9128 323.517,-87.6857"/>
</g>
<!-- Node10 -->
<g id="node10" class="node"><title>Node10</title>
<polygon fill="none" stroke="#bfbfbf" points="220.5,-62.5 220.5,-81.5 269.5,-81.5 269.5,-62.5 220.5,-62.5"/>
<text text-anchor="middle" x="245" y="-69.5" font-family="Helvetica,sans-Serif" font-size="10.00">cassert</text>
</g>
<!-- Node6&#45;&gt;Node10 -->
<g id="edge9" class="edge"><title>Node6&#45;&gt;Node10</title>
<path fill="none" stroke="midnightblue" d="M333.759,-124.841C314.476,-113.579 287.654,-97.9132 268.554,-86.7572"/>
<polygon fill="midnightblue" stroke="midnightblue" points="270.265,-83.7031 259.864,-81.6819 266.734,-89.7477 270.265,-83.7031"/>
</g>
<!-- Node11 -->
<g id="node11" class="node"><title>Node11</title>
<polygon fill="none" stroke="#bfbfbf" points="347,-62.5 347,-81.5 393,-81.5 393,-62.5 347,-62.5"/>
<text text-anchor="middle" x="370" y="-69.5" font-family="Helvetica,sans-Serif" font-size="10.00">cstdint</text>
</g>
<!-- Node6&#45;&gt;Node11 -->
<g id="edge10" class="edge"><title>Node6&#45;&gt;Node11</title>
<path fill="none" stroke="midnightblue" d="M360.604,-124.679C362.345,-115.101 364.656,-102.394 366.55,-91.9766"/>
<polygon fill="midnightblue" stroke="midnightblue" points="370.049,-92.2931 368.395,-81.8283 363.162,-91.0409 370.049,-92.2931"/>
</g>
<!-- Node12 -->
<g id="node12" class="node"><title>Node12</title>
<polygon fill="none" stroke="#bfbfbf" points="519,-62.5 519,-81.5 581,-81.5 581,-62.5 519,-62.5"/>
<text text-anchor="middle" x="550" y="-69.5" font-family="Helvetica,sans-Serif" font-size="10.00">type_traits</text>
</g>
<!-- Node6&#45;&gt;Node12 -->
<g id="edge11" class="edge"><title>Node6&#45;&gt;Node12</title>
<path fill="none" stroke="midnightblue" d="M401.381,-124.893C431.862,-114.871 473.541,-100.948 510,-88 512.597,-87.0778 515.283,-86.1072 517.977,-85.1219"/>
<polygon fill="midnightblue" stroke="midnightblue" points="519.464,-88.3035 527.626,-81.5481 517.032,-81.7392 519.464,-88.3035"/>
</g>
<!-- Node13 -->
<g id="node13" class="node"><title>Node13</title>
<g id="a_node13"><a xlink:href="../../d9/d52/Common_2MathUtils_2include_2MathUtils_2Utils_8h.html" target="_top" xlink:title="MathUtils/Utils.h">
<polygon fill="none" stroke="black" points="411,-62.5 411,-81.5 501,-81.5 501,-62.5 411,-62.5"/>
<text text-anchor="middle" x="456" y="-69.5" font-family="Helvetica,sans-Serif" font-size="10.00">MathUtils/Utils.h</text>
</a>
</g>
</g>
<!-- Node6&#45;&gt;Node13 -->
<g id="edge12" class="edge"><title>Node6&#45;&gt;Node13</title>
<path fill="none" stroke="midnightblue" d="M379.265,-124.679C395.699,-113.611 418.34,-98.363 434.766,-87.3002"/>
<polygon fill="midnightblue" stroke="midnightblue" points="436.835,-90.127 443.174,-81.6379 432.925,-84.3209 436.835,-90.127"/>
</g>
<!-- Node13&#45;&gt;Node8 -->
<g id="edge13" class="edge"><title>Node13&#45;&gt;Node8</title>
<path fill="none" stroke="midnightblue" d="M474.483,-62.4035C496.132,-52.3341 532.213,-35.5522 557.232,-23.9151"/>
<polygon fill="midnightblue" stroke="midnightblue" points="558.961,-26.9715 566.552,-19.5806 556.008,-20.6244 558.961,-26.9715"/>
</g>
<!-- Node14 -->
<g id="node14" class="node"><title>Node14</title>
<polygon fill="none" stroke="#bfbfbf" points="457,-0.5 457,-19.5 501,-19.5 501,-0.5 457,-0.5"/>
<text text-anchor="middle" x="479" y="-7.5" font-family="Helvetica,sans-Serif" font-size="10.00">cmath</text>
</g>
<!-- Node13&#45;&gt;Node14 -->
<g id="edge14" class="edge"><title>Node13&#45;&gt;Node14</title>
<path fill="none" stroke="midnightblue" d="M459.295,-62.4035C462.609,-53.7599 467.818,-40.17 472.049,-29.1341"/>
<polygon fill="midnightblue" stroke="midnightblue" points="475.399,-30.1709 475.711,-19.5806 468.863,-27.6653 475.399,-30.1709"/>
</g>
<!-- Node15 -->
<g id="node15" class="node"><title>Node15</title>
<g id="a_node15"><a xlink:href="../../d6/d84/MathConstants_8h.html" target="_top" xlink:title="useful math constants ">
<polygon fill="none" stroke="black" points="259.5,-0.5 259.5,-19.5 438.5,-19.5 438.5,-0.5 259.5,-0.5"/>
<text text-anchor="middle" x="349" y="-7.5" font-family="Helvetica,sans-Serif" font-size="10.00">CommonConstants/MathConstants.h</text>
</a>
</g>
</g>
<!-- Node13&#45;&gt;Node15 -->
<g id="edge15" class="edge"><title>Node13&#45;&gt;Node15</title>
<path fill="none" stroke="midnightblue" d="M440.67,-62.4035C423.03,-52.5123 393.84,-36.1442 373.142,-24.5378"/>
<polygon fill="midnightblue" stroke="midnightblue" points="374.736,-21.4188 364.302,-19.5806 371.312,-27.5244 374.736,-21.4188"/>
</g>
<!-- Node17&#45;&gt;Node6 -->
<g id="edge18" class="edge"><title>Node17&#45;&gt;Node6</title>
<path fill="none" stroke="midnightblue" d="M890.716,-193.63C887.437,-193.035 884.182,-192.485 881,-192 692.069,-163.192 639.663,-179.946 446.415,-156.1"/>
<polygon fill="midnightblue" stroke="midnightblue" points="446.564,-152.592 436.206,-154.819 445.692,-159.537 446.564,-152.592"/>
</g>
<!-- Node17&#45;&gt;Node7 -->
<g id="edge19" class="edge"><title>Node17&#45;&gt;Node7</title>
<path fill="none" stroke="midnightblue" d="M951.991,-192.986C958.146,-174.09 971.845,-140.871 996,-124 1036.43,-95.7607 1179.99,-81.2193 1249.6,-75.6937"/>
<polygon fill="midnightblue" stroke="midnightblue" points="1250.01,-79.1726 1259.71,-74.9134 1249.47,-72.1933 1250.01,-79.1726"/>
</g>
<!-- Node18 -->
<g id="node18" class="node"><title>Node18</title>
<polygon fill="none" stroke="#bfbfbf" points="743.5,-130.5 743.5,-149.5 838.5,-149.5 838.5,-130.5 743.5,-130.5"/>
<text text-anchor="middle" x="791" y="-137.5" font-family="Helvetica,sans-Serif" font-size="10.00">TDatabasePDG.h</text>
</g>
<!-- Node17&#45;&gt;Node18 -->
<g id="edge20" class="edge"><title>Node17&#45;&gt;Node18</title>
<path fill="none" stroke="midnightblue" d="M914.32,-192.841C886.554,-181.169 847.539,-164.768 820.874,-153.558"/>
<polygon fill="midnightblue" stroke="midnightblue" points="822.227,-150.331 811.652,-149.682 819.515,-156.784 822.227,-150.331"/>
</g>
<!-- Node19 -->
<g id="node19" class="node"><title>Node19</title>
<polygon fill="none" stroke="#bfbfbf" points="857,-130.5 857,-149.5 949,-149.5 949,-130.5 857,-130.5"/>
<text text-anchor="middle" x="903" y="-137.5" font-family="Helvetica,sans-Serif" font-size="10.00">TLorentzVector.h</text>
</g>
<!-- Node17&#45;&gt;Node19 -->
<g id="edge21" class="edge"><title>Node17&#45;&gt;Node19</title>
<path fill="none" stroke="midnightblue" d="M938.236,-192.679C931.358,-182.592 922.113,-169.033 914.819,-158.335"/>
<polygon fill="midnightblue" stroke="midnightblue" points="917.545,-156.119 909.019,-149.828 911.761,-160.062 917.545,-156.119"/>
</g>
<!-- Node20 -->
<g id="node20" class="node"><title>Node20</title>
<polygon fill="none" stroke="#bfbfbf" points="454.5,-130.5 454.5,-149.5 537.5,-149.5 537.5,-130.5 454.5,-130.5"/>
<text text-anchor="middle" x="496" y="-137.5" font-family="Helvetica,sans-Serif" font-size="10.00">TMCProcess.h</text>
</g>
<!-- Node17&#45;&gt;Node20 -->
<g id="edge22" class="edge"><title>Node17&#45;&gt;Node20</title>
<path fill="none" stroke="midnightblue" d="M890.701,-193.725C887.426,-193.106 884.175,-192.525 881,-192 733.694,-167.652 693.425,-185.181 547,-156 541.926,-154.989 536.628,-153.701 531.448,-152.306"/>
<polygon fill="midnightblue" stroke="midnightblue" points="532.298,-148.909 521.722,-149.537 530.381,-155.642 532.298,-148.909"/>
</g>
<!-- Node21 -->
<g id="node21" class="node"><title>Node21</title>
<polygon fill="none" stroke="#bfbfbf" points="1087.5,-130.5 1087.5,-149.5 1140.5,-149.5 1140.5,-130.5 1087.5,-130.5"/>
<text text-anchor="middle" x="1114" y="-137.5" font-family="Helvetica,sans-Serif" font-size="10.00">TMath.h</text>
</g>
<!-- Node17&#45;&gt;Node21 -->
<g id="edge23" class="edge"><title>Node17&#45;&gt;Node21</title>
<path fill="none" stroke="midnightblue" d="M984.504,-192.914C1010.6,-182.786 1046.53,-168.726 1078,-156 1079.88,-155.238 1081.82,-154.449 1083.77,-153.65"/>
<polygon fill="midnightblue" stroke="midnightblue" points="1085.56,-156.695 1093.47,-149.641 1082.89,-150.226 1085.56,-156.695"/>
</g>
<!-- Node17&#45;&gt;Node22 -->
<g id="edge24" class="edge"><title>Node17&#45;&gt;Node22</title>
<path fill="none" stroke="midnightblue" d="M967.312,-192.679C982.099,-181.713 1002.42,-166.645 1017.3,-155.609"/>
<polygon fill="midnightblue" stroke="midnightblue" points="1019.4,-158.406 1025.35,-149.638 1015.23,-152.783 1019.4,-158.406"/>
</g>
<!-- Node23 -->
<g id="node23" class="node"><title>Node23</title>
<polygon fill="none" stroke="#bfbfbf" points="556,-130.5 556,-149.5 642,-149.5 642,-130.5 556,-130.5"/>
<text text-anchor="middle" x="599" y="-137.5" font-family="Helvetica,sans-Serif" font-size="10.00">TParticlePDG.h</text>
</g>
<!-- Node17&#45;&gt;Node23 -->
<g id="edge25" class="edge"><title>Node17&#45;&gt;Node23</title>
<path fill="none" stroke="midnightblue" d="M890.669,-193.907C887.402,-193.242 884.162,-192.601 881,-192 779.352,-172.687 752.017,-178.383 651,-156 646.152,-154.926 641.09,-153.656 636.109,-152.317"/>
<polygon fill="midnightblue" stroke="midnightblue" points="636.665,-148.838 626.092,-149.512 634.778,-155.579 636.665,-148.838"/>
</g>
<!-- Node24 -->
<g id="node24" class="node"><title>Node24</title>
<polygon fill="none" stroke="#bfbfbf" points="660.5,-130.5 660.5,-149.5 725.5,-149.5 725.5,-130.5 660.5,-130.5"/>
<text text-anchor="middle" x="693" y="-137.5" font-family="Helvetica,sans-Serif" font-size="10.00">TVector3.h</text>
</g>
<!-- Node17&#45;&gt;Node24 -->
<g id="edge26" class="edge"><title>Node17&#45;&gt;Node24</title>
<path fill="none" stroke="midnightblue" d="M890.882,-194.181C837.874,-182.14 762.938,-164.709 734,-156 730.879,-155.061 727.65,-154.014 724.437,-152.922"/>
<polygon fill="midnightblue" stroke="midnightblue" points="725.565,-149.608 714.97,-149.574 723.231,-156.208 725.565,-149.608"/>
</g>
<!-- Node25&#45;&gt;Node10 -->
<g id="edge29" class="edge"><title>Node25&#45;&gt;Node10</title>
<path fill="none" stroke="midnightblue" d="M195.67,-124.679C205.59,-114.286 219.029,-100.208 229.374,-89.37"/>
<polygon fill="midnightblue" stroke="midnightblue" points="232.2,-91.4786 236.573,-81.8283 227.136,-86.6452 232.2,-91.4786"/>
</g>
<!-- Node25&#45;&gt;Node12 -->
<g id="edge32" class="edge"><title>Node25&#45;&gt;Node12</title>
<path fill="none" stroke="midnightblue" d="M239.427,-129.17C249.925,-127.416 260.787,-125.63 271,-124 377.078,-107.073 406.03,-115.007 510,-88 513.23,-87.1609 516.561,-86.1533 519.857,-85.0624"/>
<polygon fill="midnightblue" stroke="midnightblue" points="521.26,-88.2782 529.505,-81.6249 518.91,-81.6842 521.26,-88.2782"/>
</g>
<!-- Node26 -->
<g id="node26" class="node"><title>Node26</title>
<polygon fill="none" stroke="#bfbfbf" points="140,-62.5 140,-81.5 202,-81.5 202,-62.5 140,-62.5"/>
<text text-anchor="middle" x="171" y="-69.5" font-family="Helvetica,sans-Serif" font-size="10.00">TNamed.h</text>
</g>
<!-- Node25&#45;&gt;Node26 -->
<g id="edge28" class="edge"><title>Node25&#45;&gt;Node26</title>
<path fill="none" stroke="midnightblue" d="M179.613,-124.679C178.017,-115.101 175.899,-102.394 174.163,-91.9766"/>
<polygon fill="midnightblue" stroke="midnightblue" points="177.568,-91.1168 172.471,-81.8283 170.663,-92.2677 177.568,-91.1168"/>
</g>
<!-- Node27 -->
<g id="node27" class="node"><title>Node27</title>
<polygon fill="none" stroke="#bfbfbf" points="-0.5,-62.5 -0.5,-81.5 58.5,-81.5 58.5,-62.5 -0.5,-62.5"/>
<text text-anchor="middle" x="29" y="-69.5" font-family="Helvetica,sans-Serif" font-size="10.00">stdexcept</text>
</g>
<!-- Node25&#45;&gt;Node27 -->
<g id="edge30" class="edge"><title>Node25&#45;&gt;Node27</title>
<path fill="none" stroke="midnightblue" d="M149.178,-124.841C122.239,-113.221 84.4321,-96.9119 58.4554,-85.7063"/>
<polygon fill="midnightblue" stroke="midnightblue" points="59.6946,-82.4291 49.1262,-81.6819 56.922,-88.8566 59.6946,-82.4291"/>
</g>
<!-- Node28 -->
<g id="node28" class="node"><title>Node28</title>
<polygon fill="none" stroke="#bfbfbf" points="76.5,-62.5 76.5,-81.5 121.5,-81.5 121.5,-62.5 76.5,-62.5"/>
<text text-anchor="middle" x="99" y="-69.5" font-family="Helvetica,sans-Serif" font-size="10.00">gsl/gsl</text>
</g>
<!-- Node25&#45;&gt;Node28 -->
<g id="edge31" class="edge"><title>Node25&#45;&gt;Node28</title>
<path fill="none" stroke="midnightblue" d="M163.99,-124.679C150.408,-113.879 131.821,-99.0983 118.002,-88.1103"/>
<polygon fill="midnightblue" stroke="midnightblue" points="120.108,-85.3128 110.102,-81.8283 115.751,-90.7917 120.108,-85.3128"/>
</g>
<!-- Node29&#45;&gt;Node7 -->
<g id="edge36" class="edge"><title>Node29&#45;&gt;Node7</title>
<path fill="none" stroke="midnightblue" d="M1302.88,-192.979C1320.95,-185.166 1339.55,-173.388 1350,-156 1357.33,-143.81 1356.07,-136.86 1350,-124 1342.55,-108.231 1327.57,-95.6928 1314.2,-86.9947"/>
<polygon fill="midnightblue" stroke="midnightblue" points="1315.68,-83.797 1305.32,-81.5939 1312.05,-89.7788 1315.68,-83.797"/>
</g>
<!-- Node29&#45;&gt;Node21 -->
<g id="edge37" class="edge"><title>Node29&#45;&gt;Node21</title>
<path fill="none" stroke="midnightblue" d="M1223.97,-192.841C1199.53,-181.323 1165.33,-165.199 1141.58,-154.004"/>
<polygon fill="midnightblue" stroke="midnightblue" points="1142.95,-150.78 1132.42,-149.682 1139.97,-157.112 1142.95,-150.78"/>
</g>
<!-- Node30 -->
<g id="node30" class="node"><title>Node30</title>
<polygon fill="none" stroke="#bfbfbf" points="1267,-130.5 1267,-149.5 1341,-149.5 1341,-130.5 1267,-130.5"/>
<text text-anchor="middle" x="1304" y="-137.5" font-family="Helvetica,sans-Serif" font-size="10.00">TVirtualMC.h</text>
</g>
<!-- Node29&#45;&gt;Node30 -->
<g id="edge34" class="edge"><title>Node29&#45;&gt;Node30</title>
<path fill="none" stroke="midnightblue" d="M1264.85,-192.679C1272.57,-182.49 1282.97,-168.759 1291.11,-158.011"/>
<polygon fill="midnightblue" stroke="midnightblue" points="1294.06,-159.913 1297.31,-149.828 1288.48,-155.686 1294.06,-159.913"/>
</g>
<!-- Node31 -->
<g id="node31" class="node"><title>Node31</title>
<polygon fill="none" stroke="#bfbfbf" points="1197,-130.5 1197,-149.5 1249,-149.5 1249,-130.5 1197,-130.5"/>
<text text-anchor="middle" x="1223" y="-137.5" font-family="Helvetica,sans-Serif" font-size="10.00">ostream</text>
</g>
<!-- Node29&#45;&gt;Node31 -->
<g id="edge35" class="edge"><title>Node29&#45;&gt;Node31</title>
<path fill="none" stroke="midnightblue" d="M1247.27,-192.679C1242.63,-182.796 1236.42,-169.579 1231.45,-158.986"/>
<polygon fill="midnightblue" stroke="midnightblue" points="1234.57,-157.392 1227.15,-149.828 1228.23,-160.368 1234.57,-157.392"/>
</g>
<!-- Node37 -->
<g id="node37" class="node"><title>Node37</title>
<g id="a_node37"><a xlink:href="../../db/d2c/ConfigurableParam_8h.html" target="_top" xlink:title="SimConfig/ConfigurableParam.h">
<polygon fill="none" stroke="black" points="1612.5,-130.5 1612.5,-149.5 1769.5,-149.5 1769.5,-130.5 1612.5,-130.5"/>
<text text-anchor="middle" x="1691" y="-137.5" font-family="Helvetica,sans-Serif" font-size="10.00">SimConfig/ConfigurableParam.h</text>
</a>
</g>
</g>
<!-- Node36&#45;&gt;Node37 -->
<g id="edge45" class="edge"><title>Node36&#45;&gt;Node37</title>
<path fill="none" stroke="midnightblue" d="M1550.51,-260.939C1570.76,-252.002 1596.01,-239.252 1616,-224 1641.24,-204.738 1664.84,-176.224 1678.59,-158.134"/>
<polygon fill="midnightblue" stroke="midnightblue" points="1681.68,-159.84 1684.84,-149.728 1676.06,-155.663 1681.68,-159.84"/>
</g>
<!-- Node41 -->
<g id="node41" class="node"><title>Node41</title>
<g id="a_node41"><a xlink:href="../../da/d6b/ConfigurableParamHelper_8h.html" target="_top" xlink:title="SimConfig/ConfigurableParam\lHelper.h">
<polygon fill="none" stroke="black" points="1458.5,-193 1458.5,-223 1607.5,-223 1607.5,-193 1458.5,-193"/>
<text text-anchor="start" x="1466.5" y="-211" font-family="Helvetica,sans-Serif" font-size="10.00">SimConfig/ConfigurableParam</text>
<text text-anchor="middle" x="1533" y="-200" font-family="Helvetica,sans-Serif" font-size="10.00">Helper.h</text>
</a>
</g>
</g>
<!-- Node36&#45;&gt;Node41 -->
<g id="edge50" class="edge"><title>Node36&#45;&gt;Node41</title>
<path fill="none" stroke="midnightblue" d="M1518.91,-260.679C1521.1,-252.636 1523.9,-242.385 1526.42,-233.137"/>
<polygon fill="midnightblue" stroke="midnightblue" points="1529.85,-233.862 1529.1,-223.293 1523.09,-232.02 1529.85,-233.862"/>
</g>
<!-- Node37&#45;&gt;Node32 -->
<g id="edge47" class="edge"><title>Node37&#45;&gt;Node32</title>
<path fill="none" stroke="midnightblue" d="M1699.5,-130.372C1709.76,-119.955 1727.23,-102.217 1740.03,-89.2162"/>
<polygon fill="midnightblue" stroke="midnightblue" points="1742.77,-91.4219 1747.29,-81.8411 1737.78,-86.5101 1742.77,-91.4219"/>
</g>
<!-- Node38 -->
<g id="node38" class="node"><title>Node38</title>
<polygon fill="none" stroke="#bfbfbf" points="1792,-62.5 1792,-81.5 1836,-81.5 1836,-62.5 1792,-62.5"/>
<text text-anchor="middle" x="1814" y="-69.5" font-family="Helvetica,sans-Serif" font-size="10.00">vector</text>
</g>
<!-- Node37&#45;&gt;Node38 -->
<g id="edge46" class="edge"><title>Node37&#45;&gt;Node38</title>
<path fill="none" stroke="midnightblue" d="M1707.08,-130.372C1727.89,-119.205 1764.38,-99.6266 1788.86,-86.4876"/>
<polygon fill="midnightblue" stroke="midnightblue" points="1790.76,-89.4428 1797.92,-81.6305 1787.45,-83.2746 1790.76,-89.4428"/>
</g>
<!-- Node39 -->
<g id="node39" class="node"><title>Node39</title>
<polygon fill="none" stroke="#bfbfbf" points="1619.5,-57 1619.5,-87 1720.5,-87 1720.5,-57 1619.5,-57"/>
<text text-anchor="start" x="1627.5" y="-75" font-family="Helvetica,sans-Serif" font-size="10.00">boost/property_tree</text>
<text text-anchor="middle" x="1670" y="-64" font-family="Helvetica,sans-Serif" font-size="10.00">/ptree.hpp</text>
</g>
<!-- Node37&#45;&gt;Node39 -->
<g id="edge48" class="edge"><title>Node37&#45;&gt;Node39</title>
<path fill="none" stroke="midnightblue" d="M1688.25,-130.372C1685.55,-121.886 1681.31,-108.542 1677.59,-96.858"/>
<polygon fill="midnightblue" stroke="midnightblue" points="1680.88,-95.6495 1674.51,-87.1815 1674.21,-97.772 1680.88,-95.6495"/>
</g>
<!-- Node40 -->
<g id="node40" class="node"><title>Node40</title>
<polygon fill="none" stroke="#bfbfbf" points="1484.5,-62.5 1484.5,-81.5 1535.5,-81.5 1535.5,-62.5 1484.5,-62.5"/>
<text text-anchor="middle" x="1510" y="-69.5" font-family="Helvetica,sans-Serif" font-size="10.00">typeinfo</text>
</g>
<!-- Node37&#45;&gt;Node40 -->
<g id="edge49" class="edge"><title>Node37&#45;&gt;Node40</title>
<path fill="none" stroke="midnightblue" d="M1667.34,-130.372C1635.54,-118.778 1578.88,-98.1162 1542.93,-85.0087"/>
<polygon fill="midnightblue" stroke="midnightblue" points="1543.98,-81.6635 1533.38,-81.5259 1541.58,-88.2399 1543.98,-81.6635"/>
</g>
<!-- Node41&#45;&gt;Node12 -->
<g id="edge53" class="edge"><title>Node41&#45;&gt;Node12</title>
<path fill="none" stroke="midnightblue" d="M1509.45,-192.934C1475.55,-173.488 1410.42,-139.088 1350,-124 1203.95,-87.5248 733.437,-76.2766 591.144,-73.6667"/>
<polygon fill="midnightblue" stroke="midnightblue" points="591.149,-70.1663 581.088,-73.4867 591.024,-77.1652 591.149,-70.1663"/>
</g>
<!-- Node41&#45;&gt;Node37 -->
<g id="edge51" class="edge"><title>Node41&#45;&gt;Node37</title>
<path fill="none" stroke="midnightblue" d="M1566.89,-192.841C1594.84,-181.169 1634.1,-164.768 1660.94,-153.558"/>
<polygon fill="midnightblue" stroke="midnightblue" points="1662.34,-156.766 1670.22,-149.682 1659.64,-150.307 1662.34,-156.766"/>
</g>
<!-- Node41&#45;&gt;Node40 -->
<g id="edge54" class="edge"><title>Node41&#45;&gt;Node40</title>
<path fill="none" stroke="midnightblue" d="M1502.44,-192.836C1487.98,-184.367 1472.12,-172.093 1464,-156 1457.6,-143.302 1458.9,-137.275 1464,-124 1469.4,-109.949 1480.66,-97.3527 1490.69,-88.1942"/>
<polygon fill="midnightblue" stroke="midnightblue" points="1493.03,-90.7972 1498.33,-81.624 1488.47,-85.4891 1493.03,-90.7972"/>
</g>
<!-- Node42 -->
<g id="node42" class="node"><title>Node42</title>
<polygon fill="none" stroke="#bfbfbf" points="1473,-130.5 1473,-149.5 1529,-149.5 1529,-130.5 1473,-130.5"/>
<text text-anchor="middle" x="1501" y="-137.5" font-family="Helvetica,sans-Serif" font-size="10.00">TClass.h</text>
</g>
<!-- Node41&#45;&gt;Node42 -->
<g id="edge52" class="edge"><title>Node41&#45;&gt;Node42</title>
<path fill="none" stroke="midnightblue" d="M1526.06,-192.679C1521.26,-182.796 1514.86,-169.579 1509.72,-158.986"/>
<polygon fill="midnightblue" stroke="midnightblue" points="1512.79,-157.299 1505.28,-149.828 1506.49,-160.353 1512.79,-157.299"/>
</g>
<!-- Node43 -->
<g id="node43" class="node"><title>Node43</title>
<polygon fill="none" stroke="#bfbfbf" points="1547.5,-130.5 1547.5,-149.5 1594.5,-149.5 1594.5,-130.5 1547.5,-130.5"/>
<text text-anchor="middle" x="1571" y="-137.5" font-family="Helvetica,sans-Serif" font-size="10.00">TFile.h</text>
</g>
<!-- Node41&#45;&gt;Node43 -->
<g id="edge55" class="edge"><title>Node41&#45;&gt;Node43</title>
<path fill="none" stroke="midnightblue" d="M1541.25,-192.679C1546.99,-182.694 1554.7,-169.307 1560.83,-158.66"/>
<polygon fill="midnightblue" stroke="midnightblue" points="1563.96,-160.241 1565.92,-149.828 1557.89,-156.748 1563.96,-160.241"/>
</g>
<!-- Node47&#45;&gt;Node7 -->
<g id="edge61" class="edge"><title>Node47&#45;&gt;Node7</title>
<path fill="none" stroke="midnightblue" d="M2036.9,-130.485C2025.15,-128.057 2012.08,-125.631 2000,-124 1768.22,-92.7006 1708.24,-105.351 1475,-88 1423.49,-84.1682 1364.04,-79.3274 1326.25,-76.1982"/>
<polygon fill="midnightblue" stroke="midnightblue" points="1326.44,-72.7026 1316.19,-75.3633 1325.86,-79.6786 1326.44,-72.7026"/>
</g>
<!-- Node47&#45;&gt;Node38 -->
<g id="edge63" class="edge"><title>Node47&#45;&gt;Node38</title>
<path fill="none" stroke="midnightblue" d="M2033.73,-130.493C1973.12,-117.611 1863.61,-94.0156 1846,-88 1844.08,-87.3454 1842.13,-86.6104 1840.18,-85.8264"/>
<polygon fill="midnightblue" stroke="midnightblue" points="1841.22,-82.4597 1830.65,-81.646 1838.4,-88.8696 1841.22,-82.4597"/>
</g>
<!-- Node48 -->
<g id="node48" class="node"><title>Node48</title>
<polygon fill="none" stroke="#bfbfbf" points="2046.5,-62.5 2046.5,-81.5 2125.5,-81.5 2125.5,-62.5 2046.5,-62.5"/>
<text text-anchor="middle" x="2086" y="-69.5" font-family="Helvetica,sans-Serif" font-size="10.00">FairDetector.h</text>
</g>
<!-- Node47&#45;&gt;Node48 -->
<g id="edge60" class="edge"><title>Node47&#45;&gt;Node48</title>
<path fill="none" stroke="midnightblue" d="M2075.57,-130.372C2077.34,-120.643 2080.27,-104.528 2082.57,-91.8504"/>
<polygon fill="midnightblue" stroke="midnightblue" points="2086.05,-92.3059 2084.39,-81.8411 2079.16,-91.0537 2086.05,-92.3059"/>
</g>
<!-- Node49 -->
<g id="node49" class="node"><title>Node49</title>
<polygon fill="none" stroke="#bfbfbf" points="2143.5,-62.5 2143.5,-81.5 2202.5,-81.5 2202.5,-62.5 2143.5,-62.5"/>
<text text-anchor="middle" x="2173" y="-69.5" font-family="Helvetica,sans-Serif" font-size="10.00">functional</text>
</g>
<!-- Node47&#45;&gt;Node49 -->
<g id="edge62" class="edge"><title>Node47&#45;&gt;Node49</title>
<path fill="none" stroke="midnightblue" d="M2086.94,-130.372C2103.4,-119.403 2132.02,-100.317 2151.71,-87.1912"/>
<polygon fill="midnightblue" stroke="midnightblue" points="2153.68,-90.0897 2160.05,-81.6305 2149.79,-84.2653 2153.68,-90.0897"/>
</g>
<!-- Node50&#45;&gt;Node7 -->
<g id="edge65" class="edge"><title>Node50&#45;&gt;Node7</title>
<path fill="none" stroke="midnightblue" d="M1835.92,-130.497C1817.05,-128.339 1796.77,-126.052 1778,-124 1609.8,-105.618 1408.95,-85.1901 1326.35,-76.8558"/>
<polygon fill="midnightblue" stroke="midnightblue" points="1326.48,-73.3516 1316.18,-75.8307 1325.78,-80.3163 1326.48,-73.3516"/>
</g>
<!-- Node50&#45;&gt;Node32 -->
<g id="edge66" class="edge"><title>Node50&#45;&gt;Node32</title>
<path fill="none" stroke="midnightblue" d="M1885.41,-130.441C1859.81,-120.926 1817.92,-104.689 1783,-88 1781.86,-87.4537 1780.7,-86.8805 1779.53,-86.29"/>
<polygon fill="midnightblue" stroke="midnightblue" points="1781.16,-83.1916 1770.68,-81.5844 1777.87,-89.3714 1781.16,-83.1916"/>
</g>
<!-- Node51 -->
<g id="node51" class="node"><title>Node51</title>
<polygon fill="none" stroke="#bfbfbf" points="1854.5,-62.5 1854.5,-81.5 1937.5,-81.5 1937.5,-62.5 1854.5,-62.5"/>
<text text-anchor="middle" x="1896" y="-69.5" font-family="Helvetica,sans-Serif" font-size="10.00">unordered_map</text>
</g>
<!-- Node50&#45;&gt;Node51 -->
<g id="edge67" class="edge"><title>Node50&#45;&gt;Node51</title>
<path fill="none" stroke="midnightblue" d="M1907.3,-130.372C1905.38,-120.643 1902.21,-104.528 1899.71,-91.8504"/>
<polygon fill="midnightblue" stroke="midnightblue" points="1903.11,-90.9762 1897.74,-81.8411 1896.24,-92.329 1903.11,-90.9762"/>
</g>
<!-- Node52 -->
<g id="node52" class="node"><title>Node52</title>
<polygon fill="none" stroke="#bfbfbf" points="1955.5,-62.5 1955.5,-81.5 2028.5,-81.5 2028.5,-62.5 1955.5,-62.5"/>
<text text-anchor="middle" x="1992" y="-69.5" font-family="Helvetica,sans-Serif" font-size="10.00">initializer_list</text>
</g>
<!-- Node50&#45;&gt;Node52 -->
<g id="edge68" class="edge"><title>Node50&#45;&gt;Node52</title>
<path fill="none" stroke="midnightblue" d="M1919.85,-130.372C1933.4,-119.6 1956.79,-101.002 1973.25,-87.9065"/>
<polygon fill="midnightblue" stroke="midnightblue" points="1975.5,-90.5939 1981.15,-81.6305 1971.14,-85.1149 1975.5,-90.5939"/>
</g>
<!-- Node55 -->
<g id="node55" class="node"><title>Node55</title>
<g id="a_node55"><a xlink:href="../../d1/ddc/commonConfig_8C.html" target="_top" xlink:title="commonConfig.C">
<polygon fill="none" stroke="black" points="2041.5,-198.5 2041.5,-217.5 2134.5,-217.5 2134.5,-198.5 2041.5,-198.5"/>
<text text-anchor="middle" x="2088" y="-205.5" font-family="Helvetica,sans-Serif" font-size="10.00">commonConfig.C</text>
</a>
</g>
</g>
<!-- Node54&#45;&gt;Node55 -->
<g id="edge71" class="edge"><title>Node54&#45;&gt;Node55</title>
<path fill="none" stroke="midnightblue" d="M2088,-266.372C2088,-256.643 2088,-240.528 2088,-227.85"/>
<polygon fill="midnightblue" stroke="midnightblue" points="2091.5,-227.841 2088,-217.841 2084.5,-227.841 2091.5,-227.841"/>
</g>
</g>
</svg>
