<?xml version="1.0" encoding="UTF-8" standalone="no"?>
<!DOCTYPE svg PUBLIC "-//W3C//DTD SVG 1.1//EN"
 "http://www.w3.org/Graphics/SVG/1.1/DTD/svg11.dtd">
<!-- Generated by graphviz version 2.36.0 (20140111.2315)
 -->
<!-- Title: /home/travis/build/AliceO2Group/AliceO2/Detectors/gconfig/src/G4Config.cxx Pages: 1 -->
<svg width="2228pt" height="390pt"
 viewBox="0.00 0.00 2228.00 390.00" xmlns="http://www.w3.org/2000/svg" xmlns:xlink="http://www.w3.org/1999/xlink">
<g id="graph0" class="graph" transform="scale(1 1) rotate(0) translate(4 386)">
<title>/home/travis/build/AliceO2Group/AliceO2/Detectors/gconfig/src/G4Config.cxx</title>
<!-- Node1 -->
<g id="node1" class="node"><title>Node1</title>
<polygon fill="#bfbfbf" stroke="black" points="1633,-329 1633,-381 1751,-381 1751,-329 1633,-329"/>
<text text-anchor="start" x="1641" y="-369" font-family="Helvetica,sans-Serif" font-size="10.00">/home/travis/build</text>
<text text-anchor="start" x="1641" y="-358" font-family="Helvetica,sans-Serif" font-size="10.00">/AliceO2Group/AliceO2</text>
<text text-anchor="start" x="1641" y="-347" font-family="Helvetica,sans-Serif" font-size="10.00">/Detectors/gconfig/src</text>
<text text-anchor="middle" x="1692" y="-336" font-family="Helvetica,sans-Serif" font-size="10.00">/G4Config.cxx</text>
</g>
<!-- Node2 -->
<g id="node2" class="node"><title>Node2</title>
<polygon fill="none" stroke="#bfbfbf" points="985.5,-266.5 985.5,-285.5 1062.5,-285.5 1062.5,-266.5 985.5,-266.5"/>
<text text-anchor="middle" x="1024" y="-273.5" font-family="Helvetica,sans-Serif" font-size="10.00">FairRunSim.h</text>
</g>
<!-- Node1&#45;&gt;Node2 -->
<g id="edge1" class="edge"><title>Node1&#45;&gt;Node2</title>
<path fill="none" stroke="midnightblue" d="M1632.85,-352.081C1521.86,-347.6 1275.24,-333.469 1072,-292 1067.45,-291.072 1062.72,-289.882 1058.08,-288.579"/>
<polygon fill="midnightblue" stroke="midnightblue" points="1058.75,-285.127 1048.17,-285.604 1056.74,-291.831 1058.75,-285.127"/>
</g>
<!-- Node3 -->
<g id="node3" class="node"><title>Node3</title>
<g id="a_node3"><a xlink:href="../../d4/d03/simulation_2include_2SimulationDataFormat_2Stack_8h.html" target="_top" xlink:title="SimulationDataFormat\l/Stack.h">
<polygon fill="none" stroke="black" points="1081,-261 1081,-291 1195,-291 1195,-261 1081,-261"/>
<text text-anchor="start" x="1089" y="-279" font-family="Helvetica,sans-Serif" font-size="10.00">SimulationDataFormat</text>
<text text-anchor="middle" x="1138" y="-268" font-family="Helvetica,sans-Serif" font-size="10.00">/Stack.h</text>
</a>
</g>
</g>
<!-- Node1&#45;&gt;Node3 -->
<g id="edge2" class="edge"><title>Node1&#45;&gt;Node3</title>
<path fill="none" stroke="midnightblue" d="M1632.97,-345.796C1529.15,-331.366 1314.53,-301.536 1205.19,-286.339"/>
<polygon fill="midnightblue" stroke="midnightblue" points="1205.65,-282.869 1195.27,-284.959 1204.69,-289.803 1205.65,-282.869"/>
</g>
<!-- Node34 -->
<g id="node34" class="node"><title>Node34</title>
<g id="a_node34"><a xlink:href="../../de/d1c/StackParam_8h.html" target="_top" xlink:title="SimulationDataFormat\l/StackParam.h">
<polygon fill="none" stroke="black" points="1258,-261 1258,-291 1372,-291 1372,-261 1258,-261"/>
<text text-anchor="start" x="1266" y="-279" font-family="Helvetica,sans-Serif" font-size="10.00">SimulationDataFormat</text>
<text text-anchor="middle" x="1315" y="-268" font-family="Helvetica,sans-Serif" font-size="10.00">/StackParam.h</text>
</a>
</g>
</g>
<!-- Node1&#45;&gt;Node34 -->
<g id="edge42" class="edge"><title>Node1&#45;&gt;Node34</title>
<path fill="none" stroke="midnightblue" d="M1632.86,-342.698C1572.37,-331.026 1475.41,-312.016 1382.11,-292.208"/>
<polygon fill="midnightblue" stroke="midnightblue" points="1382.73,-288.761 1372.22,-290.102 1381.27,-295.608 1382.73,-288.761"/>
</g>
<!-- Node42 -->
<g id="node42" class="node"><title>Node42</title>
<polygon fill="none" stroke="#bfbfbf" points="1390,-266.5 1390,-285.5 1444,-285.5 1444,-266.5 1390,-266.5"/>
<text text-anchor="middle" x="1417" y="-273.5" font-family="Helvetica,sans-Serif" font-size="10.00">iostream</text>
</g>
<!-- Node1&#45;&gt;Node42 -->
<g id="edge54" class="edge"><title>Node1&#45;&gt;Node42</title>
<path fill="none" stroke="midnightblue" d="M1632.88,-341.114C1584.1,-329.898 1513.34,-312.284 1453,-292 1450.59,-291.188 1448.1,-290.291 1445.62,-289.351"/>
<polygon fill="midnightblue" stroke="midnightblue" points="1446.82,-286.062 1436.24,-285.604 1444.23,-292.563 1446.82,-286.062"/>
</g>
<!-- Node43 -->
<g id="node43" class="node"><title>Node43</title>
<polygon fill="none" stroke="#bfbfbf" points="1462.5,-266.5 1462.5,-285.5 1533.5,-285.5 1533.5,-266.5 1462.5,-266.5"/>
<text text-anchor="middle" x="1498" y="-273.5" font-family="Helvetica,sans-Serif" font-size="10.00">FairLogger.h</text>
</g>
<!-- Node1&#45;&gt;Node43 -->
<g id="edge55" class="edge"><title>Node1&#45;&gt;Node43</title>
<path fill="none" stroke="midnightblue" d="M1632.74,-330.479C1598.6,-316.929 1557.07,-300.446 1529.22,-289.392"/>
<polygon fill="midnightblue" stroke="midnightblue" points="1530.21,-286.017 1519.62,-285.581 1527.62,-292.523 1530.21,-286.017"/>
</g>
<!-- Node44 -->
<g id="node44" class="node"><title>Node44</title>
<polygon fill="none" stroke="#bfbfbf" points="1552,-266.5 1552,-285.5 1614,-285.5 1614,-266.5 1552,-266.5"/>
<text text-anchor="middle" x="1583" y="-273.5" font-family="Helvetica,sans-Serif" font-size="10.00">TGeant4.h</text>
</g>
<!-- Node1&#45;&gt;Node44 -->
<g id="edge56" class="edge"><title>Node1&#45;&gt;Node44</title>
<path fill="none" stroke="midnightblue" d="M1656.31,-328.787C1638.83,-316.438 1618.4,-302.01 1603.56,-291.523"/>
<polygon fill="midnightblue" stroke="midnightblue" points="1605.3,-288.469 1595.11,-285.558 1601.26,-294.186 1605.3,-288.469"/>
</g>
<!-- Node45 -->
<g id="node45" class="node"><title>Node45</title>
<polygon fill="none" stroke="#bfbfbf" points="1632.5,-266.5 1632.5,-285.5 1751.5,-285.5 1751.5,-266.5 1632.5,-266.5"/>
<text text-anchor="middle" x="1692" y="-273.5" font-family="Helvetica,sans-Serif" font-size="10.00">TG4RunConfiguration.h</text>
</g>
<!-- Node1&#45;&gt;Node45 -->
<g id="edge57" class="edge"><title>Node1&#45;&gt;Node45</title>
<path fill="none" stroke="midnightblue" d="M1692,-328.787C1692,-318.069 1692,-305.785 1692,-295.871"/>
<polygon fill="midnightblue" stroke="midnightblue" points="1695.5,-295.558 1692,-285.558 1688.5,-295.558 1695.5,-295.558"/>
</g>
<!-- Node46 -->
<g id="node46" class="node"><title>Node46</title>
<polygon fill="none" stroke="#bfbfbf" points="1769.5,-266.5 1769.5,-285.5 1870.5,-285.5 1870.5,-266.5 1769.5,-266.5"/>
<text text-anchor="middle" x="1820" y="-273.5" font-family="Helvetica,sans-Serif" font-size="10.00">TPythia6Decayer.h</text>
</g>
<!-- Node1&#45;&gt;Node46 -->
<g id="edge58" class="edge"><title>Node1&#45;&gt;Node46</title>
<path fill="none" stroke="midnightblue" d="M1733.91,-328.787C1754.83,-316.205 1779.33,-301.464 1796.84,-290.934"/>
<polygon fill="midnightblue" stroke="midnightblue" points="1799.01,-293.712 1805.77,-285.558 1795.4,-287.713 1799.01,-293.712"/>
</g>
<!-- Node47 -->
<g id="node47" class="node"><title>Node47</title>
<polygon fill="none" stroke="#bfbfbf" points="1888.5,-266.5 1888.5,-285.5 1961.5,-285.5 1961.5,-266.5 1888.5,-266.5"/>
<text text-anchor="middle" x="1925" y="-273.5" font-family="Helvetica,sans-Serif" font-size="10.00">FairModule.h</text>
</g>
<!-- Node1&#45;&gt;Node47 -->
<g id="edge59" class="edge"><title>Node1&#45;&gt;Node47</title>
<path fill="none" stroke="midnightblue" d="M1751.1,-334.47C1794.72,-320.053 1852.66,-300.905 1889.4,-288.764"/>
<polygon fill="midnightblue" stroke="midnightblue" points="1890.78,-291.996 1899.17,-285.535 1888.58,-285.349 1890.78,-291.996"/>
</g>
<!-- Node48 -->
<g id="node48" class="node"><title>Node48</title>
<g id="a_node48"><a xlink:href="../../d9/d6d/Cave_8h.html" target="_top" xlink:title="DetectorsPassive/Cave.h">
<polygon fill="none" stroke="black" points="2009.5,-130.5 2009.5,-149.5 2138.5,-149.5 2138.5,-130.5 2009.5,-130.5"/>
<text text-anchor="middle" x="2074" y="-137.5" font-family="Helvetica,sans-Serif" font-size="10.00">DetectorsPassive/Cave.h</text>
</a>
</g>
</g>
<!-- Node1&#45;&gt;Node48 -->
<g id="edge60" class="edge"><title>Node1&#45;&gt;Node48</title>
<path fill="none" stroke="midnightblue" d="M1751.22,-347.484C1826.68,-338.202 1951.81,-319.226 1989,-292 2001.04,-283.188 2045.45,-197.381 2064.84,-159.182"/>
<polygon fill="midnightblue" stroke="midnightblue" points="2068.21,-160.278 2069.6,-149.774 2061.96,-157.118 2068.21,-160.278"/>
</g>
<!-- Node51 -->
<g id="node51" class="node"><title>Node51</title>
<g id="a_node51"><a xlink:href="../../d0/d9a/MaterialManager_8h.html" target="_top" xlink:title="DetectorsBase/MaterialManager.h">
<polygon fill="none" stroke="black" points="1826.5,-130.5 1826.5,-149.5 1991.5,-149.5 1991.5,-130.5 1826.5,-130.5"/>
<text text-anchor="middle" x="1909" y="-137.5" font-family="Helvetica,sans-Serif" font-size="10.00">DetectorsBase/MaterialManager.h</text>
</a>
</g>
</g>
<!-- Node1&#45;&gt;Node51 -->
<g id="edge65" class="edge"><title>Node1&#45;&gt;Node51</title>
<path fill="none" stroke="midnightblue" d="M1751.01,-349.324C1824.33,-342.147 1943.09,-325.569 1970,-292 2003.78,-249.854 1953.17,-186.521 1925.32,-157.093"/>
<polygon fill="midnightblue" stroke="midnightblue" points="1927.64,-154.459 1918.15,-149.738 1922.62,-159.343 1927.64,-154.459"/>
</g>
<!-- Node54 -->
<g id="node54" class="node"><title>Node54</title>
<g id="a_node54"><a xlink:href="../../da/d40/g4Config_8C.html" target="_top" xlink:title="../g4Config.C">
<polygon fill="none" stroke="black" points="2056.5,-266.5 2056.5,-285.5 2131.5,-285.5 2131.5,-266.5 2056.5,-266.5"/>
<text text-anchor="middle" x="2094" y="-273.5" font-family="Helvetica,sans-Serif" font-size="10.00">../g4Config.C</text>
</a>
</g>
</g>
<!-- Node1&#45;&gt;Node54 -->
<g id="edge70" class="edge"><title>Node1&#45;&gt;Node54</title>
<path fill="none" stroke="midnightblue" d="M1751.22,-345.462C1821.13,-334.932 1940.71,-315.511 2042,-292 2046.73,-290.903 2051.66,-289.637 2056.53,-288.317"/>
<polygon fill="midnightblue" stroke="midnightblue" points="2057.66,-291.635 2066.35,-285.564 2055.77,-284.895 2057.66,-291.635"/>
</g>
<!-- Node56 -->
<g id="node56" class="node"><title>Node56</title>
<g id="a_node56"><a xlink:href="../../d7/de7/SetCuts_8h.html" target="_top" xlink:title="../SetCuts.h">
<polygon fill="none" stroke="black" points="2150,-266.5 2150,-285.5 2220,-285.5 2220,-266.5 2150,-266.5"/>
<text text-anchor="middle" x="2185" y="-273.5" font-family="Helvetica,sans-Serif" font-size="10.00">../SetCuts.h</text>
</a>
</g>
</g>
<!-- Node1&#45;&gt;Node56 -->
<g id="edge72" class="edge"><title>Node1&#45;&gt;Node56</title>
<path fill="none" stroke="midnightblue" d="M1751.34,-349.294C1837.72,-341.655 2002.76,-324.081 2140,-292 2143.95,-291.077 2148.04,-289.955 2152.08,-288.744"/>
<polygon fill="midnightblue" stroke="midnightblue" points="2153.42,-291.99 2161.88,-285.614 2151.29,-285.322 2153.42,-291.99"/>
</g>
<!-- Node4 -->
<g id="node4" class="node"><title>Node4</title>
<g id="a_node4"><a xlink:href="../../d6/d31/DetID_8h.html" target="_top" xlink:title="DetectorsCommonDataFormats\l/DetID.h">
<polygon fill="none" stroke="black" points="280,-125 280,-155 436,-155 436,-125 280,-125"/>
<text text-anchor="start" x="288" y="-143" font-family="Helvetica,sans-Serif" font-size="10.00">DetectorsCommonDataFormats</text>
<text text-anchor="middle" x="358" y="-132" font-family="Helvetica,sans-Serif" font-size="10.00">/DetID.h</text>
</a>
</g>
</g>
<!-- Node3&#45;&gt;Node4 -->
<g id="edge3" class="edge"><title>Node3&#45;&gt;Node4</title>
<path fill="none" stroke="midnightblue" d="M1080.69,-261.768C1077.42,-261.138 1074.17,-260.543 1071,-260 937.763,-237.205 894.57,-274.039 769,-224 746.87,-215.181 748.091,-200.916 726,-192 612.205,-146.074 571.58,-173.236 446.203,-156.085"/>
<polygon fill="midnightblue" stroke="midnightblue" points="446.625,-152.61 436.229,-154.652 445.629,-159.539 446.625,-152.61"/>
</g>
<!-- Node5 -->
<g id="node5" class="node"><title>Node5</title>
<polygon fill="none" stroke="#bfbfbf" points="1260,-62.5 1260,-81.5 1316,-81.5 1316,-62.5 1260,-62.5"/>
<text text-anchor="middle" x="1288" y="-69.5" font-family="Helvetica,sans-Serif" font-size="10.00">Rtypes.h</text>
</g>
<!-- Node3&#45;&gt;Node5 -->
<g id="edge36" class="edge"><title>Node3&#45;&gt;Node5</title>
<path fill="none" stroke="midnightblue" d="M1138.75,-260.898C1141.05,-231.535 1150.39,-163.302 1188,-124 1205.1,-106.133 1229.82,-93.4473 1250.4,-85.1968"/>
<polygon fill="midnightblue" stroke="midnightblue" points="1251.73,-88.4384 1259.82,-81.6076 1249.23,-81.897 1251.73,-88.4384"/>
</g>
<!-- Node14 -->
<g id="node14" class="node"><title>Node14</title>
<polygon fill="none" stroke="#bfbfbf" points="778.5,-198.5 778.5,-217.5 879.5,-217.5 879.5,-198.5 778.5,-198.5"/>
<text text-anchor="middle" x="829" y="-205.5" font-family="Helvetica,sans-Serif" font-size="10.00">FairGenericStack.h</text>
</g>
<!-- Node3&#45;&gt;Node14 -->
<g id="edge14" class="edge"><title>Node3&#45;&gt;Node14</title>
<path fill="none" stroke="midnightblue" d="M1080.64,-262.059C1077.38,-261.355 1074.15,-260.664 1071,-260 990.317,-242.991 969.466,-242.005 889,-224 883.499,-222.769 877.731,-221.412 872.036,-220.033"/>
<polygon fill="midnightblue" stroke="midnightblue" points="872.487,-216.539 861.94,-217.548 870.814,-223.336 872.487,-216.539"/>
</g>
<!-- Node15 -->
<g id="node15" class="node"><title>Node15</title>
<g id="a_node15"><a xlink:href="../../d2/de2/MCTrack_8h.html" target="_top" xlink:title="Definition of the MCTrack class. ">
<polygon fill="none" stroke="black" points="898,-193 898,-223 1012,-223 1012,-193 898,-193"/>
<text text-anchor="start" x="906" y="-211" font-family="Helvetica,sans-Serif" font-size="10.00">SimulationDataFormat</text>
<text text-anchor="middle" x="955" y="-200" font-family="Helvetica,sans-Serif" font-size="10.00">/MCTrack.h</text>
</a>
</g>
</g>
<!-- Node3&#45;&gt;Node15 -->
<g id="edge15" class="edge"><title>Node3&#45;&gt;Node15</title>
<path fill="none" stroke="midnightblue" d="M1098.74,-260.841C1070.91,-250.802 1033.37,-237.265 1003.64,-226.542"/>
<polygon fill="midnightblue" stroke="midnightblue" points="1004.47,-223.122 993.879,-223.022 1002.1,-229.707 1004.47,-223.122"/>
</g>
<!-- Node20 -->
<g id="node20" class="node"><title>Node20</title>
<polygon fill="none" stroke="#bfbfbf" points="1005,-130.5 1005,-149.5 1069,-149.5 1069,-130.5 1005,-130.5"/>
<text text-anchor="middle" x="1037" y="-137.5" font-family="Helvetica,sans-Serif" font-size="10.00">TParticle.h</text>
</g>
<!-- Node3&#45;&gt;Node20 -->
<g id="edge37" class="edge"><title>Node3&#45;&gt;Node20</title>
<path fill="none" stroke="midnightblue" d="M1127.19,-260.66C1108.44,-235.777 1069.95,-184.716 1049.86,-158.057"/>
<polygon fill="midnightblue" stroke="midnightblue" points="1052.39,-155.607 1043.58,-149.728 1046.8,-159.82 1052.39,-155.607"/>
</g>
<!-- Node23 -->
<g id="node23" class="node"><title>Node23</title>
<g id="a_node23"><a xlink:href="../../db/d14/MCTruthContainer_8h.html" target="_top" xlink:title="Definition of a container to keep Monte Carlo truth external to simulation objects. ">
<polygon fill="none" stroke="black" points="125,-125 125,-155 239,-155 239,-125 125,-125"/>
<text text-anchor="start" x="133" y="-143" font-family="Helvetica,sans-Serif" font-size="10.00">SimulationDataFormat</text>
<text text-anchor="middle" x="182" y="-132" font-family="Helvetica,sans-Serif" font-size="10.00">/MCTruthContainer.h</text>
</a>
</g>
</g>
<!-- Node3&#45;&gt;Node23 -->
<g id="edge25" class="edge"><title>Node3&#45;&gt;Node23</title>
<path fill="none" stroke="midnightblue" d="M1080.7,-261.712C1077.43,-261.096 1074.18,-260.519 1071,-260 918.855,-235.117 865.679,-289.246 726,-224 707.49,-215.354 711.591,-200.471 693,-192 607.354,-152.974 364.372,-167.831 271,-156 263.946,-155.106 256.597,-154.058 249.279,-152.938"/>
<polygon fill="midnightblue" stroke="midnightblue" points="249.772,-149.473 239.349,-151.375 248.683,-156.388 249.772,-149.473"/>
</g>
<!-- Node27 -->
<g id="node27" class="node"><title>Node27</title>
<g id="a_node27"><a xlink:href="../../d5/dbe/TrackReference_8h.html" target="_top" xlink:title="SimulationDataFormat\l/TrackReference.h">
<polygon fill="none" stroke="black" points="1166,-193 1166,-223 1280,-223 1280,-193 1166,-193"/>
<text text-anchor="start" x="1174" y="-211" font-family="Helvetica,sans-Serif" font-size="10.00">SimulationDataFormat</text>
<text text-anchor="middle" x="1223" y="-200" font-family="Helvetica,sans-Serif" font-size="10.00">/TrackReference.h</text>
</a>
</g>
</g>
<!-- Node3&#45;&gt;Node27 -->
<g id="edge31" class="edge"><title>Node3&#45;&gt;Node27</title>
<path fill="none" stroke="midnightblue" d="M1156.44,-260.679C1168.22,-251.536 1183.67,-239.54 1196.72,-229.407"/>
<polygon fill="midnightblue" stroke="midnightblue" points="1199.13,-231.964 1204.88,-223.066 1194.84,-226.435 1199.13,-231.964"/>
</g>
<!-- Node30 -->
<g id="node30" class="node"><title>Node30</title>
<polygon fill="none" stroke="#bfbfbf" points="1738.5,-62.5 1738.5,-81.5 1773.5,-81.5 1773.5,-62.5 1738.5,-62.5"/>
<text text-anchor="middle" x="1756" y="-69.5" font-family="Helvetica,sans-Serif" font-size="10.00">map</text>
</g>
<!-- Node3&#45;&gt;Node30 -->
<g id="edge38" class="edge"><title>Node3&#45;&gt;Node30</title>
<path fill="none" stroke="midnightblue" d="M1195,-266.99C1212.33,-264.638 1231.43,-262.128 1249,-260 1398.1,-241.942 1438.52,-257.177 1585,-224 1673.7,-203.909 1725.45,-230.229 1778,-156 1791.95,-136.289 1779.44,-108.287 1768.36,-90.3811"/>
<polygon fill="midnightblue" stroke="midnightblue" points="1770.98,-87.9915 1762.54,-81.5886 1765.14,-91.858 1770.98,-87.9915"/>
</g>
<!-- Node31 -->
<g id="node31" class="node"><title>Node31</title>
<polygon fill="none" stroke="#bfbfbf" points="1298,-198.5 1298,-217.5 1350,-217.5 1350,-198.5 1298,-198.5"/>
<text text-anchor="middle" x="1324" y="-205.5" font-family="Helvetica,sans-Serif" font-size="10.00">memory</text>
</g>
<!-- Node3&#45;&gt;Node31 -->
<g id="edge39" class="edge"><title>Node3&#45;&gt;Node31</title>
<path fill="none" stroke="midnightblue" d="M1182.6,-260.964C1212.84,-251.196 1253.59,-237.542 1289,-224 1291.11,-223.194 1293.27,-222.336 1295.45,-221.455"/>
<polygon fill="midnightblue" stroke="midnightblue" points="1296.98,-224.61 1304.86,-217.528 1294.28,-218.151 1296.98,-224.61"/>
</g>
<!-- Node32 -->
<g id="node32" class="node"><title>Node32</title>
<polygon fill="none" stroke="#bfbfbf" points="1368.5,-198.5 1368.5,-217.5 1409.5,-217.5 1409.5,-198.5 1368.5,-198.5"/>
<text text-anchor="middle" x="1389" y="-205.5" font-family="Helvetica,sans-Serif" font-size="10.00">stack</text>
</g>
<!-- Node3&#45;&gt;Node32 -->
<g id="edge40" class="edge"><title>Node3&#45;&gt;Node32</title>
<path fill="none" stroke="midnightblue" d="M1195.38,-265.619C1240.63,-257.307 1304.9,-243.455 1359,-224 1360.85,-223.335 1362.73,-222.585 1364.61,-221.783"/>
<polygon fill="midnightblue" stroke="midnightblue" points="1366.17,-224.917 1373.74,-217.505 1363.2,-218.579 1366.17,-224.917"/>
</g>
<!-- Node33 -->
<g id="node33" class="node"><title>Node33</title>
<polygon fill="none" stroke="#bfbfbf" points="644,-198.5 644,-217.5 684,-217.5 684,-198.5 644,-198.5"/>
<text text-anchor="middle" x="664" y="-205.5" font-family="Helvetica,sans-Serif" font-size="10.00">utility</text>
</g>
<!-- Node3&#45;&gt;Node33 -->
<g id="edge41" class="edge"><title>Node3&#45;&gt;Node33</title>
<path fill="none" stroke="midnightblue" d="M1080.71,-261.683C1077.43,-261.074 1074.18,-260.507 1071,-260 906.533,-233.756 859.127,-266.149 698,-224 695.341,-223.305 692.626,-222.425 689.947,-221.443"/>
<polygon fill="midnightblue" stroke="midnightblue" points="691.145,-218.151 680.566,-217.574 688.476,-224.622 691.145,-218.151"/>
</g>
<!-- Node4&#45;&gt;Node5 -->
<g id="edge4" class="edge"><title>Node4&#45;&gt;Node5</title>
<path fill="none" stroke="midnightblue" d="M436.196,-125.099C439.165,-124.704 442.107,-124.336 445,-124 754.261,-88.0956 1130.47,-76.6655 1249.79,-73.8112"/>
<polygon fill="midnightblue" stroke="midnightblue" points="1249.97,-77.3081 1259.89,-73.5758 1249.81,-70.31 1249.97,-77.3081"/>
</g>
<!-- Node6 -->
<g id="node6" class="node"><title>Node6</title>
<polygon fill="none" stroke="#bfbfbf" points="566,-0.5 566,-19.5 604,-19.5 604,-0.5 566,-0.5"/>
<text text-anchor="middle" x="585" y="-7.5" font-family="Helvetica,sans-Serif" font-size="10.00">array</text>
</g>
<!-- Node4&#45;&gt;Node6 -->
<g id="edge5" class="edge"><title>Node4&#45;&gt;Node6</title>
<path fill="none" stroke="midnightblue" d="M432.029,-124.959C497.667,-112.155 583.936,-94.3037 589,-88 602.066,-71.7346 597.74,-46.7333 592.355,-29.6625"/>
<polygon fill="midnightblue" stroke="midnightblue" points="595.483,-28.0118 588.837,-19.7612 588.887,-30.3559 595.483,-28.0118"/>
</g>
<!-- Node7 -->
<g id="node7" class="node"><title>Node7</title>
<polygon fill="none" stroke="#bfbfbf" points="287.5,-62.5 287.5,-81.5 328.5,-81.5 328.5,-62.5 287.5,-62.5"/>
<text text-anchor="middle" x="308" y="-69.5" font-family="Helvetica,sans-Serif" font-size="10.00">bitset</text>
</g>
<!-- Node4&#45;&gt;Node7 -->
<g id="edge6" class="edge"><title>Node4&#45;&gt;Node7</title>
<path fill="none" stroke="midnightblue" d="M347.151,-124.679C339.432,-114.49 329.029,-100.759 320.887,-90.0112"/>
<polygon fill="midnightblue" stroke="midnightblue" points="323.517,-87.6857 314.688,-81.8283 317.937,-91.9128 323.517,-87.6857"/>
</g>
<!-- Node8 -->
<g id="node8" class="node"><title>Node8</title>
<polygon fill="none" stroke="#bfbfbf" points="220.5,-62.5 220.5,-81.5 269.5,-81.5 269.5,-62.5 220.5,-62.5"/>
<text text-anchor="middle" x="245" y="-69.5" font-family="Helvetica,sans-Serif" font-size="10.00">cassert</text>
</g>
<!-- Node4&#45;&gt;Node8 -->
<g id="edge7" class="edge"><title>Node4&#45;&gt;Node8</title>
<path fill="none" stroke="midnightblue" d="M333.759,-124.841C314.476,-113.579 287.654,-97.9132 268.554,-86.7572"/>
<polygon fill="midnightblue" stroke="midnightblue" points="270.265,-83.7031 259.864,-81.6819 266.734,-89.7477 270.265,-83.7031"/>
</g>
<!-- Node9 -->
<g id="node9" class="node"><title>Node9</title>
<polygon fill="none" stroke="#bfbfbf" points="347,-62.5 347,-81.5 393,-81.5 393,-62.5 347,-62.5"/>
<text text-anchor="middle" x="370" y="-69.5" font-family="Helvetica,sans-Serif" font-size="10.00">cstdint</text>
</g>
<!-- Node4&#45;&gt;Node9 -->
<g id="edge8" class="edge"><title>Node4&#45;&gt;Node9</title>
<path fill="none" stroke="midnightblue" d="M360.604,-124.679C362.345,-115.101 364.656,-102.394 366.55,-91.9766"/>
<polygon fill="midnightblue" stroke="midnightblue" points="370.049,-92.2931 368.395,-81.8283 363.162,-91.0409 370.049,-92.2931"/>
</g>
<!-- Node10 -->
<g id="node10" class="node"><title>Node10</title>
<polygon fill="none" stroke="#bfbfbf" points="519,-62.5 519,-81.5 581,-81.5 581,-62.5 519,-62.5"/>
<text text-anchor="middle" x="550" y="-69.5" font-family="Helvetica,sans-Serif" font-size="10.00">type_traits</text>
</g>
<!-- Node4&#45;&gt;Node10 -->
<g id="edge9" class="edge"><title>Node4&#45;&gt;Node10</title>
<path fill="none" stroke="midnightblue" d="M401.381,-124.893C431.862,-114.871 473.541,-100.948 510,-88 512.597,-87.0778 515.283,-86.1072 517.977,-85.1219"/>
<polygon fill="midnightblue" stroke="midnightblue" points="519.464,-88.3035 527.626,-81.5481 517.032,-81.7392 519.464,-88.3035"/>
</g>
<!-- Node11 -->
<g id="node11" class="node"><title>Node11</title>
<g id="a_node11"><a xlink:href="../../d9/d52/Common_2MathUtils_2include_2MathUtils_2Utils_8h.html" target="_top" xlink:title="MathUtils/Utils.h">
<polygon fill="none" stroke="black" points="411,-62.5 411,-81.5 501,-81.5 501,-62.5 411,-62.5"/>
<text text-anchor="middle" x="456" y="-69.5" font-family="Helvetica,sans-Serif" font-size="10.00">MathUtils/Utils.h</text>
</a>
</g>
</g>
<!-- Node4&#45;&gt;Node11 -->
<g id="edge10" class="edge"><title>Node4&#45;&gt;Node11</title>
<path fill="none" stroke="midnightblue" d="M379.265,-124.679C395.699,-113.611 418.34,-98.363 434.766,-87.3002"/>
<polygon fill="midnightblue" stroke="midnightblue" points="436.835,-90.127 443.174,-81.6379 432.925,-84.3209 436.835,-90.127"/>
</g>
<!-- Node11&#45;&gt;Node6 -->
<g id="edge11" class="edge"><title>Node11&#45;&gt;Node6</title>
<path fill="none" stroke="midnightblue" d="M474.483,-62.4035C496.132,-52.3341 532.213,-35.5522 557.232,-23.9151"/>
<polygon fill="midnightblue" stroke="midnightblue" points="558.961,-26.9715 566.552,-19.5806 556.008,-20.6244 558.961,-26.9715"/>
</g>
<!-- Node12 -->
<g id="node12" class="node"><title>Node12</title>
<polygon fill="none" stroke="#bfbfbf" points="457,-0.5 457,-19.5 501,-19.5 501,-0.5 457,-0.5"/>
<text text-anchor="middle" x="479" y="-7.5" font-family="Helvetica,sans-Serif" font-size="10.00">cmath</text>
</g>
<!-- Node11&#45;&gt;Node12 -->
<g id="edge12" class="edge"><title>Node11&#45;&gt;Node12</title>
<path fill="none" stroke="midnightblue" d="M459.295,-62.4035C462.609,-53.7599 467.818,-40.17 472.049,-29.1341"/>
<polygon fill="midnightblue" stroke="midnightblue" points="475.399,-30.1709 475.711,-19.5806 468.863,-27.6653 475.399,-30.1709"/>
</g>
<!-- Node13 -->
<g id="node13" class="node"><title>Node13</title>
<g id="a_node13"><a xlink:href="../../d6/d84/MathConstants_8h.html" target="_top" xlink:title="useful math constants ">
<polygon fill="none" stroke="black" points="259.5,-0.5 259.5,-19.5 438.5,-19.5 438.5,-0.5 259.5,-0.5"/>
<text text-anchor="middle" x="349" y="-7.5" font-family="Helvetica,sans-Serif" font-size="10.00">CommonConstants/MathConstants.h</text>
</a>
</g>
</g>
<!-- Node11&#45;&gt;Node13 -->
<g id="edge13" class="edge"><title>Node11&#45;&gt;Node13</title>
<path fill="none" stroke="midnightblue" d="M440.67,-62.4035C423.03,-52.5123 393.84,-36.1442 373.142,-24.5378"/>
<polygon fill="midnightblue" stroke="midnightblue" points="374.736,-21.4188 364.302,-19.5806 371.312,-27.5244 374.736,-21.4188"/>
</g>
<!-- Node15&#45;&gt;Node4 -->
<g id="edge16" class="edge"><title>Node15&#45;&gt;Node4</title>
<path fill="none" stroke="midnightblue" d="M897.717,-193.625C894.438,-193.031 891.182,-192.483 888,-192 695.942,-162.842 642.731,-180.207 446.278,-156.082"/>
<polygon fill="midnightblue" stroke="midnightblue" points="446.562,-152.59 436.205,-154.824 445.694,-159.536 446.562,-152.59"/>
</g>
<!-- Node15&#45;&gt;Node5 -->
<g id="edge17" class="edge"><title>Node15&#45;&gt;Node5</title>
<path fill="none" stroke="midnightblue" d="M957.874,-192.715C962.467,-173.823 973.353,-140.948 996,-124 1035.48,-94.4519 1179.52,-80.5614 1249.42,-75.4457"/>
<polygon fill="midnightblue" stroke="midnightblue" points="1249.85,-78.9243 1259.58,-74.7263 1249.35,-71.9418 1249.85,-78.9243"/>
</g>
<!-- Node16 -->
<g id="node16" class="node"><title>Node16</title>
<polygon fill="none" stroke="#bfbfbf" points="743.5,-130.5 743.5,-149.5 838.5,-149.5 838.5,-130.5 743.5,-130.5"/>
<text text-anchor="middle" x="791" y="-137.5" font-family="Helvetica,sans-Serif" font-size="10.00">TDatabasePDG.h</text>
</g>
<!-- Node15&#45;&gt;Node16 -->
<g id="edge18" class="edge"><title>Node15&#45;&gt;Node16</title>
<path fill="none" stroke="midnightblue" d="M919.818,-192.841C890.815,-181.169 850.06,-164.768 822.206,-153.558"/>
<polygon fill="midnightblue" stroke="midnightblue" points="823.157,-150.168 812.573,-149.682 820.543,-156.662 823.157,-150.168"/>
</g>
<!-- Node17 -->
<g id="node17" class="node"><title>Node17</title>
<polygon fill="none" stroke="#bfbfbf" points="857,-130.5 857,-149.5 949,-149.5 949,-130.5 857,-130.5"/>
<text text-anchor="middle" x="903" y="-137.5" font-family="Helvetica,sans-Serif" font-size="10.00">TLorentzVector.h</text>
</g>
<!-- Node15&#45;&gt;Node17 -->
<g id="edge19" class="edge"><title>Node15&#45;&gt;Node17</title>
<path fill="none" stroke="midnightblue" d="M943.717,-192.679C935.609,-182.388 924.654,-168.484 916.149,-157.69"/>
<polygon fill="midnightblue" stroke="midnightblue" points="918.894,-155.517 909.956,-149.828 913.395,-159.849 918.894,-155.517"/>
</g>
<!-- Node18 -->
<g id="node18" class="node"><title>Node18</title>
<polygon fill="none" stroke="#bfbfbf" points="454.5,-130.5 454.5,-149.5 537.5,-149.5 537.5,-130.5 454.5,-130.5"/>
<text text-anchor="middle" x="496" y="-137.5" font-family="Helvetica,sans-Serif" font-size="10.00">TMCProcess.h</text>
</g>
<!-- Node15&#45;&gt;Node18 -->
<g id="edge20" class="edge"><title>Node15&#45;&gt;Node18</title>
<path fill="none" stroke="midnightblue" d="M897.702,-193.717C894.427,-193.1 891.176,-192.521 888,-192 737.615,-167.312 696.491,-185.622 547,-156 541.925,-154.994 536.626,-153.71 531.446,-152.317"/>
<polygon fill="midnightblue" stroke="midnightblue" points="532.296,-148.92 521.72,-149.549 530.38,-155.652 532.296,-148.92"/>
</g>
<!-- Node19 -->
<g id="node19" class="node"><title>Node19</title>
<polygon fill="none" stroke="#bfbfbf" points="1087.5,-130.5 1087.5,-149.5 1140.5,-149.5 1140.5,-130.5 1087.5,-130.5"/>
<text text-anchor="middle" x="1114" y="-137.5" font-family="Helvetica,sans-Serif" font-size="10.00">TMath.h</text>
</g>
<!-- Node15&#45;&gt;Node19 -->
<g id="edge21" class="edge"><title>Node15&#45;&gt;Node19</title>
<path fill="none" stroke="midnightblue" d="M988.942,-192.945C1013.65,-182.711 1047.9,-168.51 1078,-156 1079.88,-155.22 1081.81,-154.417 1083.75,-153.607"/>
<polygon fill="midnightblue" stroke="midnightblue" points="1085.56,-156.648 1093.44,-149.573 1082.86,-150.186 1085.56,-156.648"/>
</g>
<!-- Node15&#45;&gt;Node20 -->
<g id="edge22" class="edge"><title>Node15&#45;&gt;Node20</title>
<path fill="none" stroke="midnightblue" d="M972.793,-192.679C986.211,-181.879 1004.57,-167.098 1018.23,-156.11"/>
<polygon fill="midnightblue" stroke="midnightblue" points="1020.44,-158.825 1026.03,-149.828 1016.05,-153.372 1020.44,-158.825"/>
</g>
<!-- Node21 -->
<g id="node21" class="node"><title>Node21</title>
<polygon fill="none" stroke="#bfbfbf" points="556,-130.5 556,-149.5 642,-149.5 642,-130.5 556,-130.5"/>
<text text-anchor="middle" x="599" y="-137.5" font-family="Helvetica,sans-Serif" font-size="10.00">TParticlePDG.h</text>
</g>
<!-- Node15&#45;&gt;Node21 -->
<g id="edge23" class="edge"><title>Node15&#45;&gt;Node21</title>
<path fill="none" stroke="midnightblue" d="M897.672,-193.89C894.404,-193.229 891.163,-192.594 888,-192 783.286,-172.35 755.071,-178.813 651,-156 646.15,-154.937 641.087,-153.673 636.105,-152.338"/>
<polygon fill="midnightblue" stroke="midnightblue" points="636.66,-148.859 626.087,-149.536 634.774,-155.6 636.66,-148.859"/>
</g>
<!-- Node22 -->
<g id="node22" class="node"><title>Node22</title>
<polygon fill="none" stroke="#bfbfbf" points="660.5,-130.5 660.5,-149.5 725.5,-149.5 725.5,-130.5 660.5,-130.5"/>
<text text-anchor="middle" x="693" y="-137.5" font-family="Helvetica,sans-Serif" font-size="10.00">TVector3.h</text>
</g>
<!-- Node15&#45;&gt;Node22 -->
<g id="edge24" class="edge"><title>Node15&#45;&gt;Node22</title>
<path fill="none" stroke="midnightblue" d="M897.798,-194.186C837.673,-180.656 749.641,-160.646 734,-156 730.876,-155.072 727.644,-154.032 724.43,-152.945"/>
<polygon fill="midnightblue" stroke="midnightblue" points="725.556,-149.631 714.961,-149.603 723.226,-156.232 725.556,-149.631"/>
</g>
<!-- Node23&#45;&gt;Node8 -->
<g id="edge27" class="edge"><title>Node23&#45;&gt;Node8</title>
<path fill="none" stroke="midnightblue" d="M195.67,-124.679C205.59,-114.286 219.029,-100.208 229.374,-89.37"/>
<polygon fill="midnightblue" stroke="midnightblue" points="232.2,-91.4786 236.573,-81.8283 227.136,-86.6452 232.2,-91.4786"/>
</g>
<!-- Node23&#45;&gt;Node10 -->
<g id="edge30" class="edge"><title>Node23&#45;&gt;Node10</title>
<path fill="none" stroke="midnightblue" d="M239.427,-129.17C249.925,-127.416 260.787,-125.63 271,-124 377.078,-107.073 406.03,-115.007 510,-88 513.23,-87.1609 516.561,-86.1533 519.857,-85.0624"/>
<polygon fill="midnightblue" stroke="midnightblue" points="521.26,-88.2782 529.505,-81.6249 518.91,-81.6842 521.26,-88.2782"/>
</g>
<!-- Node24 -->
<g id="node24" class="node"><title>Node24</title>
<polygon fill="none" stroke="#bfbfbf" points="140,-62.5 140,-81.5 202,-81.5 202,-62.5 140,-62.5"/>
<text text-anchor="middle" x="171" y="-69.5" font-family="Helvetica,sans-Serif" font-size="10.00">TNamed.h</text>
</g>
<!-- Node23&#45;&gt;Node24 -->
<g id="edge26" class="edge"><title>Node23&#45;&gt;Node24</title>
<path fill="none" stroke="midnightblue" d="M179.613,-124.679C178.017,-115.101 175.899,-102.394 174.163,-91.9766"/>
<polygon fill="midnightblue" stroke="midnightblue" points="177.568,-91.1168 172.471,-81.8283 170.663,-92.2677 177.568,-91.1168"/>
</g>
<!-- Node25 -->
<g id="node25" class="node"><title>Node25</title>
<polygon fill="none" stroke="#bfbfbf" points="-0.5,-62.5 -0.5,-81.5 58.5,-81.5 58.5,-62.5 -0.5,-62.5"/>
<text text-anchor="middle" x="29" y="-69.5" font-family="Helvetica,sans-Serif" font-size="10.00">stdexcept</text>
</g>
<!-- Node23&#45;&gt;Node25 -->
<g id="edge28" class="edge"><title>Node23&#45;&gt;Node25</title>
<path fill="none" stroke="midnightblue" d="M149.178,-124.841C122.239,-113.221 84.4321,-96.9119 58.4554,-85.7063"/>
<polygon fill="midnightblue" stroke="midnightblue" points="59.6946,-82.4291 49.1262,-81.6819 56.922,-88.8566 59.6946,-82.4291"/>
</g>
<!-- Node26 -->
<g id="node26" class="node"><title>Node26</title>
<polygon fill="none" stroke="#bfbfbf" points="76.5,-62.5 76.5,-81.5 121.5,-81.5 121.5,-62.5 76.5,-62.5"/>
<text text-anchor="middle" x="99" y="-69.5" font-family="Helvetica,sans-Serif" font-size="10.00">gsl/gsl</text>
</g>
<!-- Node23&#45;&gt;Node26 -->
<g id="edge29" class="edge"><title>Node23&#45;&gt;Node26</title>
<path fill="none" stroke="midnightblue" d="M163.99,-124.679C150.408,-113.879 131.821,-99.0983 118.002,-88.1103"/>
<polygon fill="midnightblue" stroke="midnightblue" points="120.108,-85.3128 110.102,-81.8283 115.751,-90.7917 120.108,-85.3128"/>
</g>
<!-- Node27&#45;&gt;Node5 -->
<g id="edge34" class="edge"><title>Node27&#45;&gt;Node5</title>
<path fill="none" stroke="midnightblue" d="M1273.9,-192.926C1305.15,-183.141 1340.88,-169.483 1350,-156 1357.97,-144.218 1356.07,-136.86 1350,-124 1342.55,-108.231 1327.57,-95.6928 1314.2,-86.9947"/>
<polygon fill="midnightblue" stroke="midnightblue" points="1315.68,-83.797 1305.32,-81.5939 1312.05,-89.7788 1315.68,-83.797"/>
</g>
<!-- Node27&#45;&gt;Node19 -->
<g id="edge35" class="edge"><title>Node27&#45;&gt;Node19</title>
<path fill="none" stroke="midnightblue" d="M1199.62,-192.841C1181.1,-181.63 1155.38,-166.056 1136.97,-154.91"/>
<polygon fill="midnightblue" stroke="midnightblue" points="1138.71,-151.868 1128.34,-149.682 1135.08,-157.855 1138.71,-151.868"/>
</g>
<!-- Node28 -->
<g id="node28" class="node"><title>Node28</title>
<polygon fill="none" stroke="#bfbfbf" points="1267,-130.5 1267,-149.5 1341,-149.5 1341,-130.5 1267,-130.5"/>
<text text-anchor="middle" x="1304" y="-137.5" font-family="Helvetica,sans-Serif" font-size="10.00">TVirtualMC.h</text>
</g>
<!-- Node27&#45;&gt;Node28 -->
<g id="edge32" class="edge"><title>Node27&#45;&gt;Node28</title>
<path fill="none" stroke="midnightblue" d="M1240.58,-192.679C1253.71,-181.981 1271.63,-167.377 1285.07,-156.422"/>
<polygon fill="midnightblue" stroke="midnightblue" points="1287.62,-158.858 1293.17,-149.828 1283.2,-153.432 1287.62,-158.858"/>
</g>
<!-- Node29 -->
<g id="node29" class="node"><title>Node29</title>
<polygon fill="none" stroke="#bfbfbf" points="1197,-130.5 1197,-149.5 1249,-149.5 1249,-130.5 1197,-130.5"/>
<text text-anchor="middle" x="1223" y="-137.5" font-family="Helvetica,sans-Serif" font-size="10.00">ostream</text>
</g>
<!-- Node27&#45;&gt;Node29 -->
<g id="edge33" class="edge"><title>Node27&#45;&gt;Node29</title>
<path fill="none" stroke="midnightblue" d="M1223,-192.679C1223,-183.101 1223,-170.394 1223,-159.977"/>
<polygon fill="midnightblue" stroke="midnightblue" points="1226.5,-159.828 1223,-149.828 1219.5,-159.828 1226.5,-159.828"/>
</g>
<!-- Node35 -->
<g id="node35" class="node"><title>Node35</title>
<g id="a_node35"><a xlink:href="../../db/d2c/ConfigurableParam_8h.html" target="_top" xlink:title="SimConfig/ConfigurableParam.h">
<polygon fill="none" stroke="black" points="1612.5,-130.5 1612.5,-149.5 1769.5,-149.5 1769.5,-130.5 1612.5,-130.5"/>
<text text-anchor="middle" x="1691" y="-137.5" font-family="Helvetica,sans-Serif" font-size="10.00">SimConfig/ConfigurableParam.h</text>
</a>
</g>
</g>
<!-- Node34&#45;&gt;Node35 -->
<g id="edge43" class="edge"><title>Node34&#45;&gt;Node35</title>
<path fill="none" stroke="midnightblue" d="M1372.2,-261.82C1375.17,-261.191 1378.12,-260.581 1381,-260 1471.25,-241.793 1500.91,-261.498 1585,-224 1621.42,-207.757 1656.38,-176.295 1675.65,-157.117"/>
<polygon fill="midnightblue" stroke="midnightblue" points="1678.39,-159.317 1682.9,-149.73 1673.4,-154.412 1678.39,-159.317"/>
</g>
<!-- Node39 -->
<g id="node39" class="node"><title>Node39</title>
<g id="a_node39"><a xlink:href="../../da/d6b/ConfigurableParamHelper_8h.html" target="_top" xlink:title="SimConfig/ConfigurableParam\lHelper.h">
<polygon fill="none" stroke="black" points="1427.5,-193 1427.5,-223 1576.5,-223 1576.5,-193 1427.5,-193"/>
<text text-anchor="start" x="1435.5" y="-211" font-family="Helvetica,sans-Serif" font-size="10.00">SimConfig/ConfigurableParam</text>
<text text-anchor="middle" x="1502" y="-200" font-family="Helvetica,sans-Serif" font-size="10.00">Helper.h</text>
</a>
</g>
</g>
<!-- Node34&#45;&gt;Node39 -->
<g id="edge48" class="edge"><title>Node34&#45;&gt;Node39</title>
<path fill="none" stroke="midnightblue" d="M1355.12,-260.841C1383.68,-250.759 1422.25,-237.147 1452.69,-226.402"/>
<polygon fill="midnightblue" stroke="midnightblue" points="1454.01,-229.651 1462.27,-223.022 1451.68,-223.05 1454.01,-229.651"/>
</g>
<!-- Node35&#45;&gt;Node30 -->
<g id="edge45" class="edge"><title>Node35&#45;&gt;Node30</title>
<path fill="none" stroke="midnightblue" d="M1699.5,-130.372C1709.76,-119.955 1727.23,-102.217 1740.03,-89.2162"/>
<polygon fill="midnightblue" stroke="midnightblue" points="1742.77,-91.4219 1747.29,-81.8411 1737.78,-86.5101 1742.77,-91.4219"/>
</g>
<!-- Node36 -->
<g id="node36" class="node"><title>Node36</title>
<polygon fill="none" stroke="#bfbfbf" points="1792,-62.5 1792,-81.5 1836,-81.5 1836,-62.5 1792,-62.5"/>
<text text-anchor="middle" x="1814" y="-69.5" font-family="Helvetica,sans-Serif" font-size="10.00">vector</text>
</g>
<!-- Node35&#45;&gt;Node36 -->
<g id="edge44" class="edge"><title>Node35&#45;&gt;Node36</title>
<path fill="none" stroke="midnightblue" d="M1707.08,-130.372C1727.89,-119.205 1764.38,-99.6266 1788.86,-86.4876"/>
<polygon fill="midnightblue" stroke="midnightblue" points="1790.76,-89.4428 1797.92,-81.6305 1787.45,-83.2746 1790.76,-89.4428"/>
</g>
<!-- Node37 -->
<g id="node37" class="node"><title>Node37</title>
<polygon fill="none" stroke="#bfbfbf" points="1619.5,-57 1619.5,-87 1720.5,-87 1720.5,-57 1619.5,-57"/>
<text text-anchor="start" x="1627.5" y="-75" font-family="Helvetica,sans-Serif" font-size="10.00">boost/property_tree</text>
<text text-anchor="middle" x="1670" y="-64" font-family="Helvetica,sans-Serif" font-size="10.00">/ptree.hpp</text>
</g>
<!-- Node35&#45;&gt;Node37 -->
<g id="edge46" class="edge"><title>Node35&#45;&gt;Node37</title>
<path fill="none" stroke="midnightblue" d="M1688.25,-130.372C1685.55,-121.886 1681.31,-108.542 1677.59,-96.858"/>
<polygon fill="midnightblue" stroke="midnightblue" points="1680.88,-95.6495 1674.51,-87.1815 1674.21,-97.772 1680.88,-95.6495"/>
</g>
<!-- Node38 -->
<g id="node38" class="node"><title>Node38</title>
<polygon fill="none" stroke="#bfbfbf" points="1484.5,-62.5 1484.5,-81.5 1535.5,-81.5 1535.5,-62.5 1484.5,-62.5"/>
<text text-anchor="middle" x="1510" y="-69.5" font-family="Helvetica,sans-Serif" font-size="10.00">typeinfo</text>
</g>
<!-- Node35&#45;&gt;Node38 -->
<g id="edge47" class="edge"><title>Node35&#45;&gt;Node38</title>
<path fill="none" stroke="midnightblue" d="M1667.34,-130.372C1635.54,-118.778 1578.88,-98.1162 1542.93,-85.0087"/>
<polygon fill="midnightblue" stroke="midnightblue" points="1543.98,-81.6635 1533.38,-81.5259 1541.58,-88.2399 1543.98,-81.6635"/>
</g>
<!-- Node39&#45;&gt;Node10 -->
<g id="edge51" class="edge"><title>Node39&#45;&gt;Node10</title>
<path fill="none" stroke="midnightblue" d="M1482.58,-192.724C1454.81,-173.194 1401.41,-138.88 1350,-124 1205.4,-82.1468 733.886,-74.6101 591.248,-73.2793"/>
<polygon fill="midnightblue" stroke="midnightblue" points="591.198,-69.7789 581.168,-73.1907 591.137,-76.7786 591.198,-69.7789"/>
</g>
<!-- Node39&#45;&gt;Node35 -->
<g id="edge49" class="edge"><title>Node39&#45;&gt;Node35</title>
<path fill="none" stroke="midnightblue" d="M1542.55,-192.841C1576.51,-180.982 1624.45,-164.239 1656.57,-153.022"/>
<polygon fill="midnightblue" stroke="midnightblue" points="1658.12,-156.188 1666.41,-149.587 1655.82,-149.579 1658.12,-156.188"/>
</g>
<!-- Node39&#45;&gt;Node38 -->
<g id="edge52" class="edge"><title>Node39&#45;&gt;Node38</title>
<path fill="none" stroke="midnightblue" d="M1487.51,-192.86C1478.85,-183.359 1468.66,-170.044 1464,-156 1459.52,-142.501 1458.9,-137.275 1464,-124 1469.4,-109.949 1480.66,-97.3527 1490.69,-88.1942"/>
<polygon fill="midnightblue" stroke="midnightblue" points="1493.03,-90.7972 1498.33,-81.624 1488.47,-85.4891 1493.03,-90.7972"/>
</g>
<!-- Node40 -->
<g id="node40" class="node"><title>Node40</title>
<polygon fill="none" stroke="#bfbfbf" points="1473,-130.5 1473,-149.5 1529,-149.5 1529,-130.5 1473,-130.5"/>
<text text-anchor="middle" x="1501" y="-137.5" font-family="Helvetica,sans-Serif" font-size="10.00">TClass.h</text>
</g>
<!-- Node39&#45;&gt;Node40 -->
<g id="edge50" class="edge"><title>Node39&#45;&gt;Node40</title>
<path fill="none" stroke="midnightblue" d="M1501.78,-192.679C1501.64,-183.101 1501.45,-170.394 1501.29,-159.977"/>
<polygon fill="midnightblue" stroke="midnightblue" points="1504.78,-159.774 1501.13,-149.828 1497.79,-159.88 1504.78,-159.774"/>
</g>
<!-- Node41 -->
<g id="node41" class="node"><title>Node41</title>
<polygon fill="none" stroke="#bfbfbf" points="1547.5,-130.5 1547.5,-149.5 1594.5,-149.5 1594.5,-130.5 1547.5,-130.5"/>
<text text-anchor="middle" x="1571" y="-137.5" font-family="Helvetica,sans-Serif" font-size="10.00">TFile.h</text>
</g>
<!-- Node39&#45;&gt;Node41 -->
<g id="edge53" class="edge"><title>Node39&#45;&gt;Node41</title>
<path fill="none" stroke="midnightblue" d="M1516.97,-192.679C1527.94,-182.184 1542.84,-167.932 1554.22,-157.052"/>
<polygon fill="midnightblue" stroke="midnightblue" points="1556.96,-159.27 1561.77,-149.828 1552.12,-154.211 1556.96,-159.27"/>
</g>
<!-- Node48&#45;&gt;Node5 -->
<g id="edge62" class="edge"><title>Node48&#45;&gt;Node5</title>
<path fill="none" stroke="midnightblue" d="M2036.9,-130.485C2025.15,-128.057 2012.08,-125.631 2000,-124 1768.22,-92.7006 1708.24,-105.351 1475,-88 1423.49,-84.1682 1364.04,-79.3274 1326.25,-76.1982"/>
<polygon fill="midnightblue" stroke="midnightblue" points="1326.44,-72.7026 1316.19,-75.3633 1325.86,-79.6786 1326.44,-72.7026"/>
</g>
<!-- Node48&#45;&gt;Node36 -->
<g id="edge64" class="edge"><title>Node48&#45;&gt;Node36</title>
<path fill="none" stroke="midnightblue" d="M2033.73,-130.493C1973.12,-117.611 1863.61,-94.0156 1846,-88 1844.08,-87.3454 1842.13,-86.6104 1840.18,-85.8264"/>
<polygon fill="midnightblue" stroke="midnightblue" points="1841.22,-82.4597 1830.65,-81.646 1838.4,-88.8696 1841.22,-82.4597"/>
</g>
<!-- Node49 -->
<g id="node49" class="node"><title>Node49</title>
<polygon fill="none" stroke="#bfbfbf" points="2046.5,-62.5 2046.5,-81.5 2125.5,-81.5 2125.5,-62.5 2046.5,-62.5"/>
<text text-anchor="middle" x="2086" y="-69.5" font-family="Helvetica,sans-Serif" font-size="10.00">FairDetector.h</text>
</g>
<!-- Node48&#45;&gt;Node49 -->
<g id="edge61" class="edge"><title>Node48&#45;&gt;Node49</title>
<path fill="none" stroke="midnightblue" d="M2075.57,-130.372C2077.34,-120.643 2080.27,-104.528 2082.57,-91.8504"/>
<polygon fill="midnightblue" stroke="midnightblue" points="2086.05,-92.3059 2084.39,-81.8411 2079.16,-91.0537 2086.05,-92.3059"/>
</g>
<!-- Node50 -->
<g id="node50" class="node"><title>Node50</title>
<polygon fill="none" stroke="#bfbfbf" points="2143.5,-62.5 2143.5,-81.5 2202.5,-81.5 2202.5,-62.5 2143.5,-62.5"/>
<text text-anchor="middle" x="2173" y="-69.5" font-family="Helvetica,sans-Serif" font-size="10.00">functional</text>
</g>
<!-- Node48&#45;&gt;Node50 -->
<g id="edge63" class="edge"><title>Node48&#45;&gt;Node50</title>
<path fill="none" stroke="midnightblue" d="M2086.94,-130.372C2103.4,-119.403 2132.02,-100.317 2151.71,-87.1912"/>
<polygon fill="midnightblue" stroke="midnightblue" points="2153.68,-90.0897 2160.05,-81.6305 2149.79,-84.2653 2153.68,-90.0897"/>
</g>
<!-- Node51&#45;&gt;Node5 -->
<g id="edge66" class="edge"><title>Node51&#45;&gt;Node5</title>
<path fill="none" stroke="midnightblue" d="M1835.92,-130.497C1817.05,-128.339 1796.77,-126.052 1778,-124 1609.8,-105.618 1408.95,-85.1901 1326.35,-76.8558"/>
<polygon fill="midnightblue" stroke="midnightblue" points="1326.48,-73.3516 1316.18,-75.8307 1325.78,-80.3163 1326.48,-73.3516"/>
</g>
<!-- Node51&#45;&gt;Node30 -->
<g id="edge67" class="edge"><title>Node51&#45;&gt;Node30</title>
<path fill="none" stroke="midnightblue" d="M1885.41,-130.441C1859.81,-120.926 1817.92,-104.689 1783,-88 1781.86,-87.4537 1780.7,-86.8805 1779.53,-86.29"/>
<polygon fill="midnightblue" stroke="midnightblue" points="1781.16,-83.1916 1770.68,-81.5844 1777.87,-89.3714 1781.16,-83.1916"/>
</g>
<!-- Node52 -->
<g id="node52" class="node"><title>Node52</title>
<polygon fill="none" stroke="#bfbfbf" points="1854.5,-62.5 1854.5,-81.5 1937.5,-81.5 1937.5,-62.5 1854.5,-62.5"/>
<text text-anchor="middle" x="1896" y="-69.5" font-family="Helvetica,sans-Serif" font-size="10.00">unordered_map</text>
</g>
<!-- Node51&#45;&gt;Node52 -->
<g id="edge68" class="edge"><title>Node51&#45;&gt;Node52</title>
<path fill="none" stroke="midnightblue" d="M1907.3,-130.372C1905.38,-120.643 1902.21,-104.528 1899.71,-91.8504"/>
<polygon fill="midnightblue" stroke="midnightblue" points="1903.11,-90.9762 1897.74,-81.8411 1896.24,-92.329 1903.11,-90.9762"/>
</g>
<!-- Node53 -->
<g id="node53" class="node"><title>Node53</title>
<polygon fill="none" stroke="#bfbfbf" points="1955.5,-62.5 1955.5,-81.5 2028.5,-81.5 2028.5,-62.5 1955.5,-62.5"/>
<text text-anchor="middle" x="1992" y="-69.5" font-family="Helvetica,sans-Serif" font-size="10.00">initializer_list</text>
</g>
<!-- Node51&#45;&gt;Node53 -->
<g id="edge69" class="edge"><title>Node51&#45;&gt;Node53</title>
<path fill="none" stroke="midnightblue" d="M1919.85,-130.372C1933.4,-119.6 1956.79,-101.002 1973.25,-87.9065"/>
<polygon fill="midnightblue" stroke="midnightblue" points="1975.5,-90.5939 1981.15,-81.6305 1971.14,-85.1149 1975.5,-90.5939"/>
</g>
<!-- Node55 -->
<g id="node55" class="node"><title>Node55</title>
<g id="a_node55"><a xlink:href="../../d1/ddc/commonConfig_8C.html" target="_top" xlink:title="commonConfig.C">
<polygon fill="none" stroke="black" points="2056.5,-198.5 2056.5,-217.5 2149.5,-217.5 2149.5,-198.5 2056.5,-198.5"/>
<text text-anchor="middle" x="2103" y="-205.5" font-family="Helvetica,sans-Serif" font-size="10.00">commonConfig.C</text>
</a>
</g>
</g>
<!-- Node54&#45;&gt;Node55 -->
<g id="edge71" class="edge"><title>Node54&#45;&gt;Node55</title>
<path fill="none" stroke="midnightblue" d="M2095.18,-266.372C2096.5,-256.643 2098.7,-240.528 2100.43,-227.85"/>
<polygon fill="midnightblue" stroke="midnightblue" points="2103.91,-228.222 2101.79,-217.841 2096.98,-227.276 2103.91,-228.222"/>
</g>
</g>
</svg>
