<?xml version="1.0" encoding="UTF-8" standalone="no"?>
<!DOCTYPE svg PUBLIC "-//W3C//DTD SVG 1.1//EN"
 "http://www.w3.org/Graphics/SVG/1.1/DTD/svg11.dtd">
<!-- Generated by graphviz version 2.36.0 (20140111.2315)
 -->
<!-- Title: /home/travis/build/AliceO2Group/AliceO2/Detectors/MUON/MID/Simulation/src/Geometry.cxx Pages: 1 -->
<!--zoomable 310 -->
<svg id="main" version="1.1" xmlns="http://www.w3.org/2000/svg" xmlns:xlink="http://www.w3.org/1999/xlink" xml:space="preserve" onload="init(evt)">
<style type="text/css"><![CDATA[
.edge:hover path { stroke: red; }
.edge:hover polygon { stroke: red; fill: red; }
]]></style>
<script type="text/javascript"><![CDATA[
var edges = document.getElementsByTagName('g');
if (edges && edges.length) {
  for (var i=0;i<edges.length;i++) {
    if (edges[i].id.substr(0,4)=='edge') {
      edges[i].setAttribute('class','edge');
    }
  }
}
]]></script>
        <defs>
                <circle id="rim" cx="0" cy="0" r="7"/>
                <circle id="rim2" cx="0" cy="0" r="3.5"/>
                <g id="zoomPlus">
                        <use xlink:href="#rim" fill="#404040">
                                <set attributeName="fill" to="#808080" begin="zoomplus.mouseover" end="zoomplus.mouseout"/>
                        </use>
                        <path d="M-4,0h8M0,-4v8" fill="none" stroke="white" stroke-width="1.5" pointer-events="none"/>
                </g>
                <g id="zoomMin">
                        <use xlink:href="#rim" fill="#404040">
                                <set attributeName="fill" to="#808080" begin="zoomminus.mouseover" end="zoomminus.mouseout"/>
                        </use>
                        <path d="M-4,0h8" fill="none" stroke="white" stroke-width="1.5" pointer-events="none"/>
                </g>
                <g id="dirArrow">
                        <path fill="none" stroke="white" stroke-width="1.5" d="M0,-3.0v7 M-2.5,-0.5L0,-3.0L2.5,-0.5"/>
                </g>
               <g id="resetDef">
                       <use xlink:href="#rim2" fill="#404040">
                               <set attributeName="fill" to="#808080" begin="reset.mouseover" end="reset.mouseout"/>
                       </use>
               </g>
        </defs>

<script type="text/javascript">
var viewWidth = 1660;
var viewHeight = 310;
var sectionId = 'dynsection-0';
</script>
<script xlink:href="../../svgpan.js"/>
<svg id="graph" class="graph">
<g id="viewport">
<title>/home/travis/build/AliceO2Group/AliceO2/Detectors/MUON/MID/Simulation/src/Geometry.cxx</title>
<!-- Node1 -->
<g id="node1" class="node"><title>Node1</title>
<polygon fill="#bfbfbf" stroke="black" points="326.5,-249 326.5,-301 493.5,-301 493.5,-249 326.5,-249"/>
<text text-anchor="start" x="334.5" y="-289" font-family="Helvetica,sans-Serif" font-size="10.00">/home/travis/build</text>
<text text-anchor="start" x="334.5" y="-278" font-family="Helvetica,sans-Serif" font-size="10.00">/AliceO2Group/AliceO2</text>
<text text-anchor="start" x="334.5" y="-267" font-family="Helvetica,sans-Serif" font-size="10.00">/Detectors/MUON/MID/Simulation</text>
<text text-anchor="middle" x="410" y="-256" font-family="Helvetica,sans-Serif" font-size="10.00">/src/Geometry.cxx</text>
</g>
<!-- Node2 -->
<g id="node2" class="node"><title>Node2</title>
<g id="a_node2"><a xlink:href="../../d0/d67/MUON_2MID_2Simulation_2src_2Geometry_8h.html" target="_top" xlink:title="Geometry.h">
<polygon fill="none" stroke="black" points="38,-192.5 38,-211.5 106,-211.5 106,-192.5 38,-192.5"/>
<text text-anchor="middle" x="72" y="-199.5" font-family="Helvetica,sans-Serif" font-size="10.00">Geometry.h</text>
</a>
</g>
</g>
<!-- Node1&#45;&gt;Node2 -->
<g id="edge1" class="edge"><title>Node1&#45;&gt;Node2</title>
<path fill="none" stroke="midnightblue" d="M326.449,-256.449C259.783,-242.445 169.042,-223.384 115.872,-212.216"/>
<polygon fill="midnightblue" stroke="midnightblue" points="116.582,-208.789 106.076,-210.158 115.143,-215.639 116.582,-208.789"/>
</g>
<!-- Node5 -->
<g id="node5" class="node"><title>Node5</title>
<g id="a_node5"><a xlink:href="../../dc/d37/MID_2Simulation_2src_2Materials_8h.html" target="_top" xlink:title="Materials.h">
<polygon fill="none" stroke="black" points="128.5,-192.5 128.5,-211.5 193.5,-211.5 193.5,-192.5 128.5,-192.5"/>
<text text-anchor="middle" x="161" y="-199.5" font-family="Helvetica,sans-Serif" font-size="10.00">Materials.h</text>
</a>
</g>
</g>
<!-- Node1&#45;&gt;Node5 -->
<g id="edge4" class="edge"><title>Node1&#45;&gt;Node5</title>
<path fill="none" stroke="midnightblue" d="M326.394,-250.161C284.013,-238.076 234.521,-223.964 200.797,-214.348"/>
<polygon fill="midnightblue" stroke="midnightblue" points="201.439,-210.891 190.862,-211.515 199.519,-217.623 201.439,-210.891"/>
</g>
<!-- Node7 -->
<g id="node7" class="node"><title>Node7</title>
<g id="a_node7"><a xlink:href="../../dd/df0/Detectors_2MUON_2MID_2Base_2include_2MIDBase_2Constants_8h.html" target="_top" xlink:title="Useful constants for MID. ">
<polygon fill="none" stroke="black" points="202,-136.5 202,-155.5 316,-155.5 316,-136.5 202,-136.5"/>
<text text-anchor="middle" x="259" y="-143.5" font-family="Helvetica,sans-Serif" font-size="10.00">MIDBase/Constants.h</text>
</a>
</g>
</g>
<!-- Node1&#45;&gt;Node7 -->
<g id="edge6" class="edge"><title>Node1&#45;&gt;Node7</title>
<path fill="none" stroke="midnightblue" d="M326.193,-261.671C296.795,-252.873 266.715,-237.805 249,-212 239.628,-198.348 244.085,-179.303 249.709,-165.356"/>
<polygon fill="midnightblue" stroke="midnightblue" points="253.074,-166.411 254.028,-155.859 246.702,-163.513 253.074,-166.411"/>
</g>
<!-- Node9 -->
<g id="node9" class="node"><title>Node9</title>
<g id="a_node9"><a xlink:href="../../de/d0c/GeometryTransformer_8h.html" target="_top" xlink:title="Geometry transformer for MID. ">
<polygon fill="none" stroke="black" points="258,-192.5 258,-211.5 422,-211.5 422,-192.5 258,-192.5"/>
<text text-anchor="middle" x="340" y="-199.5" font-family="Helvetica,sans-Serif" font-size="10.00">MIDBase/GeometryTransformer.h</text>
</a>
</g>
</g>
<!-- Node1&#45;&gt;Node9 -->
<g id="edge9" class="edge"><title>Node1&#45;&gt;Node9</title>
<path fill="none" stroke="midnightblue" d="M385.124,-248.768C375.375,-238.881 364.481,-227.831 355.839,-219.066"/>
<polygon fill="midnightblue" stroke="midnightblue" points="358.147,-216.421 348.634,-211.757 353.162,-221.335 358.147,-216.421"/>
</g>
<!-- Node22 -->
<g id="node22" class="node"><title>Node22</title>
<polygon fill="none" stroke="#bfbfbf" points="440,-192.5 440,-211.5 522,-211.5 522,-192.5 440,-192.5"/>
<text text-anchor="middle" x="481" y="-199.5" font-family="Helvetica,sans-Serif" font-size="10.00">TGeoVolume.h</text>
</g>
<!-- Node1&#45;&gt;Node22 -->
<g id="edge24" class="edge"><title>Node1&#45;&gt;Node22</title>
<path fill="none" stroke="midnightblue" d="M435.232,-248.768C445.119,-238.881 456.169,-227.831 464.934,-219.066"/>
<polygon fill="midnightblue" stroke="midnightblue" points="467.647,-221.303 472.243,-211.757 462.697,-216.353 467.647,-221.303"/>
</g>
<!-- Node23 -->
<g id="node23" class="node"><title>Node23</title>
<polygon fill="none" stroke="#bfbfbf" points="540,-192.5 540,-211.5 626,-211.5 626,-192.5 540,-192.5"/>
<text text-anchor="middle" x="583" y="-199.5" font-family="Helvetica,sans-Serif" font-size="10.00">TGeoManager.h</text>
</g>
<!-- Node1&#45;&gt;Node23 -->
<g id="edge25" class="edge"><title>Node1&#45;&gt;Node23</title>
<path fill="none" stroke="midnightblue" d="M470.993,-248.968C498.619,-237.63 530.056,-224.728 552.579,-215.485"/>
<polygon fill="midnightblue" stroke="midnightblue" points="554.028,-218.674 561.95,-211.639 551.37,-212.198 554.028,-218.674"/>
</g>
<!-- Node24 -->
<g id="node24" class="node"><title>Node24</title>
<polygon fill="none" stroke="#bfbfbf" points="644.5,-192.5 644.5,-211.5 721.5,-211.5 721.5,-192.5 644.5,-192.5"/>
<text text-anchor="middle" x="683" y="-199.5" font-family="Helvetica,sans-Serif" font-size="10.00">TGeoShape.h</text>
</g>
<!-- Node1&#45;&gt;Node24 -->
<g id="edge26" class="edge"><title>Node1&#45;&gt;Node24</title>
<path fill="none" stroke="midnightblue" d="M493.764,-252.215C542.355,-239.578 601.481,-224.201 640.57,-214.035"/>
<polygon fill="midnightblue" stroke="midnightblue" points="641.505,-217.408 650.302,-211.504 639.743,-210.634 641.505,-217.408"/>
</g>
<!-- Node25 -->
<g id="node25" class="node"><title>Node25</title>
<polygon fill="none" stroke="#bfbfbf" points="740,-192.5 740,-211.5 864,-211.5 864,-192.5 740,-192.5"/>
<text text-anchor="middle" x="802" y="-199.5" font-family="Helvetica,sans-Serif" font-size="10.00">TGeoCompositeShape.h</text>
</g>
<!-- Node1&#45;&gt;Node25 -->
<g id="edge27" class="edge"><title>Node1&#45;&gt;Node25</title>
<path fill="none" stroke="midnightblue" d="M493.613,-258.856C569.277,-245.151 678.69,-225.334 744.808,-213.359"/>
<polygon fill="midnightblue" stroke="midnightblue" points="745.82,-216.732 755.036,-211.506 744.573,-209.845 745.82,-216.732"/>
</g>
<!-- Node3 -->
<g id="node3" class="node"><title>Node3</title>
<polygon fill="none" stroke="#bfbfbf" points="0,-136.5 0,-155.5 44,-155.5 44,-136.5 0,-136.5"/>
<text text-anchor="middle" x="22" y="-143.5" font-family="Helvetica,sans-Serif" font-size="10.00">vector</text>
</g>
<!-- Node2&#45;&gt;Node3 -->
<g id="edge2" class="edge"><title>Node2&#45;&gt;Node3</title>
<path fill="none" stroke="midnightblue" d="M63.7435,-192.083C56.5353,-184.298 45.8902,-172.801 37.1542,-163.367"/>
<polygon fill="midnightblue" stroke="midnightblue" points="39.4651,-160.711 30.1028,-155.751 34.3288,-165.467 39.4651,-160.711"/>
</g>
<!-- Node4 -->
<g id="node4" class="node"><title>Node4</title>
<polygon fill="none" stroke="#bfbfbf" points="116.5,-74.5 116.5,-93.5 157.5,-93.5 157.5,-74.5 116.5,-74.5"/>
<text text-anchor="middle" x="137" y="-81.5" font-family="Helvetica,sans-Serif" font-size="10.00">string</text>
</g>
<!-- Node2&#45;&gt;Node4 -->
<g id="edge3" class="edge"><title>Node2&#45;&gt;Node4</title>
<path fill="none" stroke="midnightblue" d="M73.302,-192.101C75.482,-179.107 80.6848,-154.478 91,-136 98.3557,-122.823 109.681,-110.21 119.254,-100.824"/>
<polygon fill="midnightblue" stroke="midnightblue" points="121.877,-103.161 126.757,-93.7567 117.078,-98.0654 121.877,-103.161"/>
</g>
<!-- Node6 -->
<g id="node6" class="node"><title>Node6</title>
<polygon fill="none" stroke="#bfbfbf" points="100.5,-136.5 100.5,-155.5 183.5,-155.5 183.5,-136.5 100.5,-136.5"/>
<text text-anchor="middle" x="142" y="-143.5" font-family="Helvetica,sans-Serif" font-size="10.00">TGeoMedium.h</text>
</g>
<!-- Node5&#45;&gt;Node6 -->
<g id="edge5" class="edge"><title>Node5&#45;&gt;Node6</title>
<path fill="none" stroke="midnightblue" d="M157.863,-192.083C155.317,-184.849 151.644,-174.409 148.473,-165.397"/>
<polygon fill="midnightblue" stroke="midnightblue" points="151.7,-164.023 145.079,-155.751 145.097,-166.346 151.7,-164.023"/>
</g>
<!-- Node7&#45;&gt;Node4 -->
<g id="edge8" class="edge"><title>Node7&#45;&gt;Node4</title>
<path fill="none" stroke="midnightblue" d="M241.52,-136.403C221.137,-126.379 187.225,-109.701 163.575,-98.0699"/>
<polygon fill="midnightblue" stroke="midnightblue" points="164.965,-94.8531 154.447,-93.5806 161.876,-101.135 164.965,-94.8531"/>
</g>
<!-- Node8 -->
<g id="node8" class="node"><title>Node8</title>
<polygon fill="none" stroke="#bfbfbf" points="240,-74.5 240,-93.5 278,-93.5 278,-74.5 240,-74.5"/>
<text text-anchor="middle" x="259" y="-81.5" font-family="Helvetica,sans-Serif" font-size="10.00">array</text>
</g>
<!-- Node7&#45;&gt;Node8 -->
<g id="edge7" class="edge"><title>Node7&#45;&gt;Node8</title>
<path fill="none" stroke="midnightblue" d="M259,-136.403C259,-127.938 259,-114.728 259,-103.82"/>
<polygon fill="midnightblue" stroke="midnightblue" points="262.5,-103.581 259,-93.5806 255.5,-103.581 262.5,-103.581"/>
</g>
<!-- Node9&#45;&gt;Node7 -->
<g id="edge11" class="edge"><title>Node9&#45;&gt;Node7</title>
<path fill="none" stroke="midnightblue" d="M326.986,-192.324C314.468,-183.979 295.318,-171.212 280.529,-161.352"/>
<polygon fill="midnightblue" stroke="midnightblue" points="282.244,-158.289 271.982,-155.655 278.361,-164.114 282.244,-158.289"/>
</g>
<!-- Node9&#45;&gt;Node8 -->
<g id="edge10" class="edge"><title>Node9&#45;&gt;Node8</title>
<path fill="none" stroke="midnightblue" d="M339.815,-192.295C339.156,-179.113 336.372,-153.747 325,-136 315.003,-120.397 298.508,-107.65 284.51,-98.8017"/>
<polygon fill="midnightblue" stroke="midnightblue" points="286.142,-95.6993 275.766,-93.5595 282.543,-101.703 286.142,-95.6993"/>
</g>
<!-- Node10 -->
<g id="node10" class="node"><title>Node10</title>
<g id="a_node10"><a xlink:href="../../dd/d76/Cartesian3D_8h.html" target="_top" xlink:title="MathUtils/Cartesian3D.h">
<polygon fill="none" stroke="black" points="930.5,-136.5 930.5,-155.5 1055.5,-155.5 1055.5,-136.5 930.5,-136.5"/>
<text text-anchor="middle" x="993" y="-143.5" font-family="Helvetica,sans-Serif" font-size="10.00">MathUtils/Cartesian3D.h</text>
</a>
</g>
</g>
<!-- Node9&#45;&gt;Node10 -->
<g id="edge12" class="edge"><title>Node9&#45;&gt;Node10</title>
<path fill="none" stroke="midnightblue" d="M422.333,-192.788C425.258,-192.518 428.154,-192.255 431,-192 606.433,-176.303 812.914,-160.439 920.116,-152.399"/>
<polygon fill="midnightblue" stroke="midnightblue" points="920.465,-155.883 930.176,-151.646 919.942,-148.902 920.465,-155.883"/>
</g>
<!-- Node11 -->
<g id="node11" class="node"><title>Node11</title>
<polygon fill="none" stroke="#bfbfbf" points="296.5,-69 296.5,-99 447.5,-99 447.5,-69 296.5,-69"/>
<text text-anchor="start" x="304.5" y="-87" font-family="Helvetica,sans-Serif" font-size="10.00">Math/GenVector/Displacement</text>
<text text-anchor="middle" x="372" y="-76" font-family="Helvetica,sans-Serif" font-size="10.00">Vector3D.h</text>
</g>
<!-- Node10&#45;&gt;Node11 -->
<g id="edge13" class="edge"><title>Node10&#45;&gt;Node11</title>
<path fill="none" stroke="midnightblue" d="M930.497,-141.602C832.153,-135.847 635.109,-122.672 457.972,-100.048"/>
<polygon fill="midnightblue" stroke="midnightblue" points="458.313,-96.5634 447.947,-98.7551 457.417,-103.506 458.313,-96.5634"/>
</g>
<!-- Node12 -->
<g id="node12" class="node"><title>Node12</title>
<polygon fill="none" stroke="#bfbfbf" points="466,-74.5 466,-93.5 642,-93.5 642,-74.5 466,-74.5"/>
<text text-anchor="middle" x="554" y="-81.5" font-family="Helvetica,sans-Serif" font-size="10.00">Math/GenVector/PositionVector3D.h</text>
</g>
<!-- Node10&#45;&gt;Node12 -->
<g id="edge14" class="edge"><title>Node10&#45;&gt;Node12</title>
<path fill="none" stroke="midnightblue" d="M930.222,-137.172C861.581,-128.512 748.372,-113.933 651,-100 640.216,-98.4569 628.769,-96.7491 617.662,-95.055"/>
<polygon fill="midnightblue" stroke="midnightblue" points="618.002,-91.5663 607.587,-93.5082 616.94,-98.4852 618.002,-91.5663"/>
</g>
<!-- Node13 -->
<g id="node13" class="node"><title>Node13</title>
<polygon fill="none" stroke="#bfbfbf" points="659.5,-74.5 659.5,-93.5 808.5,-93.5 808.5,-74.5 659.5,-74.5"/>
<text text-anchor="middle" x="734" y="-81.5" font-family="Helvetica,sans-Serif" font-size="10.00">Math/GenVector/Rotation3D.h</text>
</g>
<!-- Node10&#45;&gt;Node13 -->
<g id="edge15" class="edge"><title>Node10&#45;&gt;Node13</title>
<path fill="none" stroke="midnightblue" d="M956.167,-136.467C910.045,-125.783 830.99,-107.469 780.676,-95.8129"/>
<polygon fill="midnightblue" stroke="midnightblue" points="781.238,-92.3506 770.706,-93.5034 779.658,-99.17 781.238,-92.3506"/>
</g>
<!-- Node14 -->
<g id="node14" class="node"><title>Node14</title>
<polygon fill="none" stroke="#bfbfbf" points="827,-74.5 827,-93.5 983,-93.5 983,-74.5 827,-74.5"/>
<text text-anchor="middle" x="905" y="-81.5" font-family="Helvetica,sans-Serif" font-size="10.00">Math/GenVector/Transform3D.h</text>
</g>
<!-- Node10&#45;&gt;Node14 -->
<g id="edge16" class="edge"><title>Node10&#45;&gt;Node14</title>
<path fill="none" stroke="midnightblue" d="M980.392,-136.403C966.277,-126.78 943.169,-111.024 926.251,-99.4891"/>
<polygon fill="midnightblue" stroke="midnightblue" points="927.819,-96.3222 917.585,-93.5806 923.875,-102.106 927.819,-96.3222"/>
</g>
<!-- Node15 -->
<g id="node15" class="node"><title>Node15</title>
<polygon fill="none" stroke="#bfbfbf" points="1001,-74.5 1001,-93.5 1161,-93.5 1161,-74.5 1001,-74.5"/>
<text text-anchor="middle" x="1081" y="-81.5" font-family="Helvetica,sans-Serif" font-size="10.00">Math/GenVector/Translation3D.h</text>
</g>
<!-- Node10&#45;&gt;Node15 -->
<g id="edge17" class="edge"><title>Node10&#45;&gt;Node15</title>
<path fill="none" stroke="midnightblue" d="M1005.61,-136.403C1019.72,-126.78 1042.83,-111.024 1059.75,-99.4891"/>
<polygon fill="midnightblue" stroke="midnightblue" points="1062.12,-102.106 1068.42,-93.5806 1058.18,-96.3222 1062.12,-102.106"/>
</g>
<!-- Node16 -->
<g id="node16" class="node"><title>Node16</title>
<polygon fill="none" stroke="#bfbfbf" points="1179,-74.5 1179,-93.5 1235,-93.5 1235,-74.5 1179,-74.5"/>
<text text-anchor="middle" x="1207" y="-81.5" font-family="Helvetica,sans-Serif" font-size="10.00">Rtypes.h</text>
</g>
<!-- Node10&#45;&gt;Node16 -->
<g id="edge18" class="edge"><title>Node10&#45;&gt;Node16</title>
<path fill="none" stroke="midnightblue" d="M1033.16,-136.432C1069.33,-128.33 1123.76,-115.174 1170,-100 1172.57,-99.1579 1175.21,-98.2246 1177.84,-97.2473"/>
<polygon fill="midnightblue" stroke="midnightblue" points="1179.16,-100.489 1187.21,-93.6003 1176.63,-93.9661 1179.16,-100.489"/>
</g>
<!-- Node17 -->
<g id="node17" class="node"><title>Node17</title>
<polygon fill="none" stroke="#bfbfbf" points="1253,-74.5 1253,-93.5 1329,-93.5 1329,-74.5 1253,-74.5"/>
<text text-anchor="middle" x="1291" y="-81.5" font-family="Helvetica,sans-Serif" font-size="10.00">TGeoMatrix.h</text>
</g>
<!-- Node10&#45;&gt;Node17 -->
<g id="edge19" class="edge"><title>Node10&#45;&gt;Node17</title>
<path fill="none" stroke="midnightblue" d="M1052.28,-136.465C1103.22,-128.624 1178.43,-115.834 1243,-100 1247.2,-98.9707 1251.57,-97.7786 1255.88,-96.5252"/>
<polygon fill="midnightblue" stroke="midnightblue" points="1257.2,-99.7836 1265.76,-93.5369 1255.17,-93.0837 1257.2,-99.7836"/>
</g>
<!-- Node18 -->
<g id="node18" class="node"><title>Node18</title>
<polygon fill="none" stroke="#bfbfbf" points="1347.5,-74.5 1347.5,-93.5 1392.5,-93.5 1392.5,-74.5 1347.5,-74.5"/>
<text text-anchor="middle" x="1370" y="-81.5" font-family="Helvetica,sans-Serif" font-size="10.00">iosfwd</text>
</g>
<!-- Node10&#45;&gt;Node18 -->
<g id="edge20" class="edge"><title>Node10&#45;&gt;Node18</title>
<path fill="none" stroke="midnightblue" d="M1055.57,-142.625C1125.61,-138.645 1241.89,-128.055 1338,-100 1340.29,-99.3327 1342.61,-98.5229 1344.92,-97.6293"/>
<polygon fill="midnightblue" stroke="midnightblue" points="1346.33,-100.834 1354.1,-93.6332 1343.53,-94.4155 1346.33,-100.834"/>
</g>
<!-- Node19 -->
<g id="node19" class="node"><title>Node19</title>
<g id="a_node19"><a xlink:href="../../d2/dd0/Cartesian2D_8h.html" target="_top" xlink:title="MathUtils/Cartesian2D.h">
<polygon fill="none" stroke="black" points="1410.5,-74.5 1410.5,-93.5 1535.5,-93.5 1535.5,-74.5 1410.5,-74.5"/>
<text text-anchor="middle" x="1473" y="-81.5" font-family="Helvetica,sans-Serif" font-size="10.00">MathUtils/Cartesian2D.h</text>
</a>
</g>
</g>
<!-- Node10&#45;&gt;Node19 -->
<g id="edge21" class="edge"><title>Node10&#45;&gt;Node19</title>
<path fill="none" stroke="midnightblue" d="M1055.81,-139.949C1136.14,-133.06 1279.42,-119.324 1401,-100 1408.89,-98.7458 1417.23,-97.2084 1425.32,-95.6013"/>
<polygon fill="midnightblue" stroke="midnightblue" points="1426.29,-98.9756 1435.38,-93.5444 1424.89,-92.1173 1426.29,-98.9756"/>
</g>
<!-- Node20 -->
<g id="node20" class="node"><title>Node20</title>
<polygon fill="none" stroke="#bfbfbf" points="1306.5,-1 1306.5,-31 1457.5,-31 1457.5,-1 1306.5,-1"/>
<text text-anchor="start" x="1314.5" y="-19" font-family="Helvetica,sans-Serif" font-size="10.00">Math/GenVector/Displacement</text>
<text text-anchor="middle" x="1382" y="-8" font-family="Helvetica,sans-Serif" font-size="10.00">Vector2D.h</text>
</g>
<!-- Node19&#45;&gt;Node20 -->
<g id="edge22" class="edge"><title>Node19&#45;&gt;Node20</title>
<path fill="none" stroke="midnightblue" d="M1461.1,-74.3717C1448.22,-65.0286 1427.22,-49.7966 1410.09,-37.375"/>
<polygon fill="midnightblue" stroke="midnightblue" points="1411.7,-34.2194 1401.55,-31.1815 1407.59,-39.8859 1411.7,-34.2194"/>
</g>
<!-- Node21 -->
<g id="node21" class="node"><title>Node21</title>
<polygon fill="none" stroke="#bfbfbf" points="1476,-6.5 1476,-25.5 1652,-25.5 1652,-6.5 1476,-6.5"/>
<text text-anchor="middle" x="1564" y="-13.5" font-family="Helvetica,sans-Serif" font-size="10.00">Math/GenVector/PositionVector2D.h</text>
</g>
<!-- Node19&#45;&gt;Node21 -->
<g id="edge23" class="edge"><title>Node19&#45;&gt;Node21</title>
<path fill="none" stroke="midnightblue" d="M1484.9,-74.3717C1499.88,-63.5015 1525.86,-44.6602 1543.94,-31.5474"/>
<polygon fill="midnightblue" stroke="midnightblue" points="1546.06,-34.3349 1552.1,-25.6305 1541.95,-28.6684 1546.06,-34.3349"/>
</g>
</g>
</svg>
        <g id="navigator" transform="translate(0 0)" fill="#404254">
                <rect fill="#f2f5e9" fill-opacity="0.5" stroke="#606060" stroke-width=".5" x="0" y="0" width="60" height="60"/>
                <use id="zoomplus" xlink:href="#zoomPlus" x="17" y="9" onmousedown="handleZoom(evt,'in')"/>
                <use id="zoomminus" xlink:href="#zoomMin" x="42" y="9" onmousedown="handleZoom(evt,'out')"/>
                <use id="reset" xlink:href="#resetDef" x="30" y="36" onmousedown="handleReset()"/>
                <g id="arrowUp" xlink:href="#dirArrow" transform="translate(30 24)" onmousedown="handlePan(0,-1)">
                  <use xlink:href="#rim" fill="#404040">
                        <set attributeName="fill" to="#808080" begin="arrowUp.mouseover" end="arrowUp.mouseout"/>
                  </use>
                  <path fill="none" stroke="white" stroke-width="1.5" d="M0,-3.0v7 M-2.5,-0.5L0,-3.0L2.5,-0.5"/>
                </g>
                <g id="arrowRight" xlink:href="#dirArrow" transform="rotate(90) translate(36 -43)" onmousedown="handlePan(1,0)">
                  <use xlink:href="#rim" fill="#404040">
                        <set attributeName="fill" to="#808080" begin="arrowRight.mouseover" end="arrowRight.mouseout"/>
                  </use>
                  <path fill="none" stroke="white" stroke-width="1.5" d="M0,-3.0v7 M-2.5,-0.5L0,-3.0L2.5,-0.5"/>
                </g>
                <g id="arrowDown" xlink:href="#dirArrow" transform="rotate(180) translate(-30 -48)" onmousedown="handlePan(0,1)">
                  <use xlink:href="#rim" fill="#404040">
                        <set attributeName="fill" to="#808080" begin="arrowDown.mouseover" end="arrowDown.mouseout"/>
                  </use>
                  <path fill="none" stroke="white" stroke-width="1.5" d="M0,-3.0v7 M-2.5,-0.5L0,-3.0L2.5,-0.5"/>
                </g>
                <g id="arrowLeft" xlink:href="#dirArrow" transform="rotate(270) translate(-36 17)" onmousedown="handlePan(-1,0)">
                  <use xlink:href="#rim" fill="#404040">
                        <set attributeName="fill" to="#808080" begin="arrowLeft.mouseover" end="arrowLeft.mouseout"/>
                  </use>
                  <path fill="none" stroke="white" stroke-width="1.5" d="M0,-3.0v7 M-2.5,-0.5L0,-3.0L2.5,-0.5"/>
                </g>
        </g>
        <svg viewBox="0 0 15 15" width="100%" height="30px" preserveAspectRatio="xMaxYMin meet">
         <g id="arrow_out" transform="scale(0.3 0.3)">
          <a xlink:href="MUON_2MID_2Simulation_2src_2Geometry_8cxx__incl_org.svg" target="_base">
           <rect id="button" ry="5" rx="5" y="6" x="6" height="38" width="38"
                fill="#f2f5e9" fill-opacity="0.5" stroke="#606060" stroke-width="1.0"/>
           <path id="arrow"
             d="M 11.500037,31.436501 C 11.940474,20.09759 22.043105,11.32322 32.158766,21.979434 L 37.068811,17.246167 C 37.068811,17.246167 37.088388,32 37.088388,32 L 22.160133,31.978069 C 22.160133,31.978069 26.997745,27.140456 26.997745,27.140456 C 18.528582,18.264221 13.291696,25.230495 11.500037,31.436501 z"
             style="fill:#404040;"/>
          </a>
         </g>
        </svg>
</svg>
