<?xml version="1.0" encoding="UTF-8" standalone="no"?>
<!DOCTYPE svg PUBLIC "-//W3C//DTD SVG 1.1//EN"
 "http://www.w3.org/Graphics/SVG/1.1/DTD/svg11.dtd">
<!-- Generated by graphviz version 2.36.0 (20140111.2315)
 -->
<!-- Title: /home/travis/build/AliceO2Group/AliceO2/Detectors/TPC/calibration/src/CalibTreeDump.cxx Pages: 1 -->
<svg width="1555pt" height="714pt"
 viewBox="0.00 0.00 1555.00 714.00" xmlns="http://www.w3.org/2000/svg" xmlns:xlink="http://www.w3.org/1999/xlink">
<g id="graph0" class="graph" transform="scale(1 1) rotate(0) translate(4 710)">
<title>/home/travis/build/AliceO2Group/AliceO2/Detectors/TPC/calibration/src/CalibTreeDump.cxx</title>
<!-- Node1 -->
<g id="node1" class="node"><title>Node1</title>
<polygon fill="#bfbfbf" stroke="black" points="289.5,-653 289.5,-705 422.5,-705 422.5,-653 289.5,-653"/>
<text text-anchor="start" x="297.5" y="-693" font-family="Helvetica,sans-Serif" font-size="10.00">/home/travis/build</text>
<text text-anchor="start" x="297.5" y="-682" font-family="Helvetica,sans-Serif" font-size="10.00">/AliceO2Group/AliceO2</text>
<text text-anchor="start" x="297.5" y="-671" font-family="Helvetica,sans-Serif" font-size="10.00">/Detectors/TPC/calibration</text>
<text text-anchor="middle" x="356" y="-660" font-family="Helvetica,sans-Serif" font-size="10.00">/src/CalibTreeDump.cxx</text>
</g>
<!-- Node2 -->
<g id="node2" class="node"><title>Node2</title>
<polygon fill="none" stroke="#bfbfbf" points="410,-478.5 410,-497.5 500,-497.5 500,-478.5 410,-478.5"/>
<text text-anchor="middle" x="455" y="-485.5" font-family="Helvetica,sans-Serif" font-size="10.00">boost/format.hpp</text>
</g>
<!-- Node1&#45;&gt;Node2 -->
<g id="edge1" class="edge"><title>Node1&#45;&gt;Node2</title>
<path fill="none" stroke="midnightblue" d="M369.146,-652.902C389.452,-614.136 427.949,-540.644 445.658,-506.835"/>
<polygon fill="midnightblue" stroke="midnightblue" points="448.904,-508.181 450.444,-497.699 442.703,-504.933 448.904,-508.181"/>
</g>
<!-- Node3 -->
<g id="node3" class="node"><title>Node3</title>
<polygon fill="none" stroke="#bfbfbf" points="97.5,-596.5 97.5,-615.5 144.5,-615.5 144.5,-596.5 97.5,-596.5"/>
<text text-anchor="middle" x="121" y="-603.5" font-family="Helvetica,sans-Serif" font-size="10.00">TFile.h</text>
</g>
<!-- Node1&#45;&gt;Node3 -->
<g id="edge2" class="edge"><title>Node1&#45;&gt;Node3</title>
<path fill="none" stroke="midnightblue" d="M289.287,-657.844C245.196,-644.523 189.291,-627.632 154.324,-617.068"/>
<polygon fill="midnightblue" stroke="midnightblue" points="155.197,-613.676 144.612,-614.134 153.172,-620.377 155.197,-613.676"/>
</g>
<!-- Node4 -->
<g id="node4" class="node"><title>Node4</title>
<polygon fill="none" stroke="#bfbfbf" points="163,-596.5 163,-615.5 213,-615.5 213,-596.5 163,-596.5"/>
<text text-anchor="middle" x="188" y="-603.5" font-family="Helvetica,sans-Serif" font-size="10.00">TTree.h</text>
</g>
<!-- Node1&#45;&gt;Node4 -->
<g id="edge3" class="edge"><title>Node1&#45;&gt;Node4</title>
<path fill="none" stroke="midnightblue" d="M296.769,-652.968C270.063,-641.681 239.687,-628.844 217.837,-619.61"/>
<polygon fill="midnightblue" stroke="midnightblue" points="219.015,-616.308 208.441,-615.639 216.29,-622.756 219.015,-616.308"/>
</g>
<!-- Node5 -->
<g id="node5" class="node"><title>Node5</title>
<polygon fill="none" stroke="#bfbfbf" points="-0.5,-540.5 -0.5,-559.5 52.5,-559.5 52.5,-540.5 -0.5,-540.5"/>
<text text-anchor="middle" x="26" y="-547.5" font-family="Helvetica,sans-Serif" font-size="10.00">TMath.h</text>
</g>
<!-- Node1&#45;&gt;Node5 -->
<g id="edge4" class="edge"><title>Node1&#45;&gt;Node5</title>
<path fill="none" stroke="midnightblue" d="M289.345,-673.292C232.63,-666.87 150.646,-651.717 88,-616 67.1322,-604.102 48.9305,-582.99 37.7413,-568.06"/>
<polygon fill="midnightblue" stroke="midnightblue" points="40.4042,-565.768 31.7195,-559.699 34.7243,-569.859 40.4042,-565.768"/>
</g>
<!-- Node6 -->
<g id="node6" class="node"><title>Node6</title>
<g id="a_node6"><a xlink:href="../../df/d72/MathBase_8h.html" target="_top" xlink:title="MathUtils/MathBase.h">
<polygon fill="none" stroke="black" points="231,-596.5 231,-615.5 345,-615.5 345,-596.5 231,-596.5"/>
<text text-anchor="middle" x="288" y="-603.5" font-family="Helvetica,sans-Serif" font-size="10.00">MathUtils/MathBase.h</text>
</a>
</g>
</g>
<!-- Node1&#45;&gt;Node6 -->
<g id="edge5" class="edge"><title>Node1&#45;&gt;Node6</title>
<path fill="none" stroke="midnightblue" d="M331.834,-652.768C322.365,-642.881 311.782,-631.831 303.387,-623.066"/>
<polygon fill="midnightblue" stroke="midnightblue" points="305.832,-620.558 296.387,-615.757 300.776,-625.4 305.832,-620.558"/>
</g>
<!-- Node11 -->
<g id="node11" class="node"><title>Node11</title>
<g id="a_node11"><a xlink:href="../../d8/d81/CalDet_8h.html" target="_top" xlink:title="TPCBase/CalDet.h">
<polygon fill="none" stroke="black" points="744.5,-596.5 744.5,-615.5 845.5,-615.5 845.5,-596.5 744.5,-596.5"/>
<text text-anchor="middle" x="795" y="-603.5" font-family="Helvetica,sans-Serif" font-size="10.00">TPCBase/CalDet.h</text>
</a>
</g>
</g>
<!-- Node1&#45;&gt;Node11 -->
<g id="edge11" class="edge"><title>Node1&#45;&gt;Node11</title>
<path fill="none" stroke="midnightblue" d="M422.675,-667.217C507.524,-653.494 652.859,-629.989 734.596,-616.769"/>
<polygon fill="midnightblue" stroke="midnightblue" points="735.169,-620.222 744.482,-615.17 734.052,-613.312 735.169,-620.222"/>
</g>
<!-- Node44 -->
<g id="node44" class="node"><title>Node44</title>
<g id="a_node44"><a xlink:href="../../db/d9b/CalArray_8h.html" target="_top" xlink:title="TPCBase/CalArray.h">
<polygon fill="none" stroke="black" points="1111.5,-540.5 1111.5,-559.5 1220.5,-559.5 1220.5,-540.5 1111.5,-540.5"/>
<text text-anchor="middle" x="1166" y="-547.5" font-family="Helvetica,sans-Serif" font-size="10.00">TPCBase/CalArray.h</text>
</a>
</g>
</g>
<!-- Node1&#45;&gt;Node44 -->
<g id="edge80" class="edge"><title>Node1&#45;&gt;Node44</title>
<path fill="none" stroke="midnightblue" d="M422.705,-671.443C518.485,-661.631 700.368,-641.523 854,-616 948.938,-600.228 1058.9,-575.881 1119.64,-561.893"/>
<polygon fill="midnightblue" stroke="midnightblue" points="1120.72,-565.236 1129.68,-559.573 1119.14,-558.416 1120.72,-565.236"/>
</g>
<!-- Node47 -->
<g id="node47" class="node"><title>Node47</title>
<g id="a_node47"><a xlink:href="../../da/d7a/CalibTreeDump_8h.html" target="_top" xlink:title="TPCCalibration/CalibTree\lDump.h">
<polygon fill="none" stroke="black" points="1406,-473 1406,-503 1534,-503 1534,-473 1406,-473"/>
<text text-anchor="start" x="1414" y="-491" font-family="Helvetica,sans-Serif" font-size="10.00">TPCCalibration/CalibTree</text>
<text text-anchor="middle" x="1470" y="-480" font-family="Helvetica,sans-Serif" font-size="10.00">Dump.h</text>
</a>
</g>
</g>
<!-- Node1&#45;&gt;Node47 -->
<g id="edge81" class="edge"><title>Node1&#45;&gt;Node47</title>
<path fill="none" stroke="midnightblue" d="M422.605,-675.507C576.537,-668.458 967.892,-643.139 1283,-560 1334.78,-546.337 1392.04,-523.37 1429.38,-507.266"/>
<polygon fill="midnightblue" stroke="midnightblue" points="1431.13,-510.325 1438.9,-503.125 1428.33,-503.906 1431.13,-510.325"/>
</g>
<!-- Node6&#45;&gt;Node5 -->
<g id="edge10" class="edge"><title>Node6&#45;&gt;Node5</title>
<path fill="none" stroke="midnightblue" d="M245.18,-596.482C200.629,-587.572 128.867,-573.088 67,-560 65.7166,-559.729 64.4111,-559.451 63.0927,-559.169"/>
<polygon fill="midnightblue" stroke="midnightblue" points="63.4073,-555.656 52.8936,-556.965 61.9287,-562.498 63.4073,-555.656"/>
</g>
<!-- Node7 -->
<g id="node7" class="node"><title>Node7</title>
<polygon fill="none" stroke="#bfbfbf" points="357,-136.5 357,-155.5 401,-155.5 401,-136.5 357,-136.5"/>
<text text-anchor="middle" x="379" y="-143.5" font-family="Helvetica,sans-Serif" font-size="10.00">cmath</text>
</g>
<!-- Node6&#45;&gt;Node7 -->
<g id="edge6" class="edge"><title>Node6&#45;&gt;Node7</title>
<path fill="none" stroke="midnightblue" d="M289.9,-596.319C293.936,-577.09 303,-529.41 303,-489 303,-489 303,-489 303,-257 303,-217.276 336.964,-181.504 359.482,-162.154"/>
<polygon fill="midnightblue" stroke="midnightblue" points="361.976,-164.634 367.457,-155.567 357.518,-159.236 361.976,-164.634"/>
</g>
<!-- Node8 -->
<g id="node8" class="node"><title>Node8</title>
<polygon fill="none" stroke="#bfbfbf" points="46,-74.5 46,-93.5 102,-93.5 102,-74.5 46,-74.5"/>
<text text-anchor="middle" x="74" y="-81.5" font-family="Helvetica,sans-Serif" font-size="10.00">Rtypes.h</text>
</g>
<!-- Node6&#45;&gt;Node8 -->
<g id="edge7" class="edge"><title>Node6&#45;&gt;Node8</title>
<path fill="none" stroke="midnightblue" d="M241.603,-596.457C189.302,-586.432 110.189,-569.922 100,-560 76.5973,-537.21 81,-521.666 81,-489 81,-489 81,-489 81,-201 81,-166.654 77.9045,-126.69 75.8305,-103.769"/>
<polygon fill="midnightblue" stroke="midnightblue" points="79.3065,-103.349 74.8866,-93.7202 72.3372,-104.004 79.3065,-103.349"/>
</g>
<!-- Node9 -->
<g id="node9" class="node"><title>Node9</title>
<polygon fill="none" stroke="#bfbfbf" points="195,-540.5 195,-559.5 275,-559.5 275,-540.5 195,-540.5"/>
<text text-anchor="middle" x="235" y="-547.5" font-family="Helvetica,sans-Serif" font-size="10.00">TLinearFitter.h</text>
</g>
<!-- Node6&#45;&gt;Node9 -->
<g id="edge8" class="edge"><title>Node6&#45;&gt;Node9</title>
<path fill="none" stroke="midnightblue" d="M279.248,-596.083C271.53,-588.22 260.095,-576.569 250.783,-567.081"/>
<polygon fill="midnightblue" stroke="midnightblue" points="253.092,-564.436 243.589,-559.751 248.096,-569.34 253.092,-564.436"/>
</g>
<!-- Node10 -->
<g id="node10" class="node"><title>Node10</title>
<polygon fill="none" stroke="#bfbfbf" points="109.5,-540.5 109.5,-559.5 176.5,-559.5 176.5,-540.5 109.5,-540.5"/>
<text text-anchor="middle" x="143" y="-547.5" font-family="Helvetica,sans-Serif" font-size="10.00">TVectorD.h</text>
</g>
<!-- Node6&#45;&gt;Node10 -->
<g id="edge9" class="edge"><title>Node6&#45;&gt;Node10</title>
<path fill="none" stroke="midnightblue" d="M265.024,-596.444C240.843,-587.438 202.582,-573.189 175.354,-563.049"/>
<polygon fill="midnightblue" stroke="midnightblue" points="176.461,-559.727 165.868,-559.516 174.018,-566.286 176.461,-559.727"/>
</g>
<!-- Node11&#45;&gt;Node2 -->
<g id="edge15" class="edge"><title>Node11&#45;&gt;Node2</title>
<path fill="none" stroke="midnightblue" d="M744.453,-601.179C674.492,-595.175 552.415,-581.899 514,-560 491.886,-547.393 474.501,-523.1 464.49,-506.474"/>
<polygon fill="midnightblue" stroke="midnightblue" points="467.479,-504.65 459.468,-497.717 461.407,-508.133 467.479,-504.65"/>
</g>
<!-- Node12 -->
<g id="node12" class="node"><title>Node12</title>
<polygon fill="none" stroke="#bfbfbf" points="968,-478.5 968,-497.5 1020,-497.5 1020,-478.5 968,-478.5"/>
<text text-anchor="middle" x="994" y="-485.5" font-family="Helvetica,sans-Serif" font-size="10.00">memory</text>
</g>
<!-- Node11&#45;&gt;Node12 -->
<g id="edge12" class="edge"><title>Node11&#45;&gt;Node12</title>
<path fill="none" stroke="midnightblue" d="M800.573,-596.156C809.714,-582.323 829.173,-555.544 852,-540 884.441,-517.909 927.551,-504.206 957.728,-496.641"/>
<polygon fill="midnightblue" stroke="midnightblue" points="958.918,-499.954 967.824,-494.217 957.284,-493.148 958.918,-499.954"/>
</g>
<!-- Node13 -->
<g id="node13" class="node"><title>Node13</title>
<polygon fill="none" stroke="#bfbfbf" points="1269,-360.5 1269,-379.5 1313,-379.5 1313,-360.5 1269,-360.5"/>
<text text-anchor="middle" x="1291" y="-367.5" font-family="Helvetica,sans-Serif" font-size="10.00">vector</text>
</g>
<!-- Node11&#45;&gt;Node13 -->
<g id="edge13" class="edge"><title>Node11&#45;&gt;Node13</title>
<path fill="none" stroke="midnightblue" d="M797.322,-596.386C801.348,-582.868 810.785,-556.514 827,-540 838.559,-528.228 943.23,-476.85 959,-472 1085.67,-433.044 1145.1,-510.064 1255,-436 1271.01,-425.21 1280.61,-404.818 1285.81,-389.741"/>
<polygon fill="midnightblue" stroke="midnightblue" points="1289.24,-390.502 1288.86,-379.914 1282.56,-388.429 1289.24,-390.502"/>
</g>
<!-- Node14 -->
<g id="node14" class="node"><title>Node14</title>
<polygon fill="none" stroke="#bfbfbf" points="1357.5,-416.5 1357.5,-435.5 1398.5,-435.5 1398.5,-416.5 1357.5,-416.5"/>
<text text-anchor="middle" x="1378" y="-423.5" font-family="Helvetica,sans-Serif" font-size="10.00">string</text>
</g>
<!-- Node11&#45;&gt;Node14 -->
<g id="edge14" class="edge"><title>Node11&#45;&gt;Node14</title>
<path fill="none" stroke="midnightblue" d="M845.683,-604.732C927.609,-603.196 1093.63,-595.497 1229,-560 1289.46,-544.147 1317.37,-551.494 1358,-504 1371.86,-487.798 1376.28,-463.136 1377.6,-446.109"/>
<polygon fill="midnightblue" stroke="midnightblue" points="1381.11,-445.896 1378.1,-435.739 1374.12,-445.559 1381.11,-445.896"/>
</g>
<!-- Node15 -->
<g id="node15" class="node"><title>Node15</title>
<polygon fill="none" stroke="#bfbfbf" points="861,-540.5 861,-559.5 987,-559.5 987,-540.5 861,-540.5"/>
<text text-anchor="middle" x="924" y="-547.5" font-family="Helvetica,sans-Serif" font-size="10.00">boost/range/combine.hpp</text>
</g>
<!-- Node11&#45;&gt;Node15 -->
<g id="edge16" class="edge"><title>Node11&#45;&gt;Node15</title>
<path fill="none" stroke="midnightblue" d="M815.44,-596.444C836.67,-587.557 870.099,-573.563 894.255,-563.451"/>
<polygon fill="midnightblue" stroke="midnightblue" points="895.782,-566.606 903.655,-559.516 893.079,-560.149 895.782,-566.606"/>
</g>
<!-- Node16 -->
<g id="node16" class="node"><title>Node16</title>
<polygon fill="none" stroke="#bfbfbf" points="1005.5,-540.5 1005.5,-559.5 1054.5,-559.5 1054.5,-540.5 1005.5,-540.5"/>
<text text-anchor="middle" x="1030" y="-547.5" font-family="Helvetica,sans-Serif" font-size="10.00">cassert</text>
</g>
<!-- Node11&#45;&gt;Node16 -->
<g id="edge17" class="edge"><title>Node11&#45;&gt;Node16</title>
<path fill="none" stroke="midnightblue" d="M835.149,-596.488C873.734,-588.201 933.917,-575 995.289,-560.102"/>
<polygon fill="midnightblue" stroke="midnightblue" points="996.26,-563.468 1005.15,-557.697 994.601,-556.667 996.26,-563.468"/>
</g>
<!-- Node17 -->
<g id="node17" class="node"><title>Node17</title>
<polygon fill="none" stroke="#bfbfbf" points="1053.5,-478.5 1053.5,-497.5 1124.5,-497.5 1124.5,-478.5 1053.5,-478.5"/>
<text text-anchor="middle" x="1089" y="-485.5" font-family="Helvetica,sans-Serif" font-size="10.00">FairLogger.h</text>
</g>
<!-- Node11&#45;&gt;Node17 -->
<g id="edge18" class="edge"><title>Node11&#45;&gt;Node17</title>
<path fill="none" stroke="midnightblue" d="M845.77,-602.466C914.077,-598.072 1030.74,-586.789 1063,-560 1078.59,-547.053 1084.83,-523.902 1087.33,-507.562"/>
<polygon fill="midnightblue" stroke="midnightblue" points="1090.82,-507.892 1088.53,-497.547 1083.87,-507.059 1090.82,-507.892"/>
</g>
<!-- Node18 -->
<g id="node18" class="node"><title>Node18</title>
<g id="a_node18"><a xlink:href="../../d1/d73/Defs_8h.html" target="_top" xlink:title="Common definitions for 2D coordinates. ">
<polygon fill="none" stroke="black" points="641,-192.5 641,-211.5 767,-211.5 767,-192.5 641,-192.5"/>
<text text-anchor="middle" x="704" y="-199.5" font-family="Helvetica,sans-Serif" font-size="10.00">DataFormatsTPC/Defs.h</text>
</a>
</g>
</g>
<!-- Node11&#45;&gt;Node18 -->
<g id="edge19" class="edge"><title>Node11&#45;&gt;Node18</title>
<path fill="none" stroke="midnightblue" d="M744.274,-604.21C681.831,-601.761 573.448,-592.651 487,-560 404.886,-528.985 341,-514.776 341,-427 341,-427 341,-427 341,-313 341,-239.118 423.559,-270.286 494,-248 542.379,-232.694 598.667,-220.944 640.784,-213.295"/>
<polygon fill="midnightblue" stroke="midnightblue" points="641.401,-216.741 650.628,-211.535 640.168,-209.85 641.401,-216.741"/>
</g>
<!-- Node30 -->
<g id="node30" class="node"><title>Node30</title>
<g id="a_node30"><a xlink:href="../../d7/d2c/Mapper_8h.html" target="_top" xlink:title="TPCBase/Mapper.h">
<polygon fill="none" stroke="black" points="775.5,-478.5 775.5,-497.5 878.5,-497.5 878.5,-478.5 775.5,-478.5"/>
<text text-anchor="middle" x="827" y="-485.5" font-family="Helvetica,sans-Serif" font-size="10.00">TPCBase/Mapper.h</text>
</a>
</g>
</g>
<!-- Node11&#45;&gt;Node30 -->
<g id="edge34" class="edge"><title>Node11&#45;&gt;Node30</title>
<path fill="none" stroke="midnightblue" d="M790.06,-596.343C783.495,-583.651 773.545,-559.395 781,-540 786.401,-525.949 797.662,-513.353 807.69,-504.194"/>
<polygon fill="midnightblue" stroke="midnightblue" points="810.032,-506.797 815.333,-497.624 805.468,-501.489 810.032,-506.797"/>
</g>
<!-- Node35 -->
<g id="node35" class="node"><title>Node35</title>
<g id="a_node35"><a xlink:href="../../d3/dd6/Sector_8h.html" target="_top" xlink:title="TPCBase/Sector.h">
<polygon fill="none" stroke="black" points="521.5,-248.5 521.5,-267.5 620.5,-267.5 620.5,-248.5 521.5,-248.5"/>
<text text-anchor="middle" x="571" y="-255.5" font-family="Helvetica,sans-Serif" font-size="10.00">TPCBase/Sector.h</text>
</a>
</g>
</g>
<!-- Node11&#45;&gt;Node35 -->
<g id="edge70" class="edge"><title>Node11&#45;&gt;Node35</title>
<path fill="none" stroke="midnightblue" d="M744.274,-604.21C681.831,-601.761 573.448,-592.651 487,-560 444.331,-543.884 422.739,-544.097 401,-504 350.396,-410.661 489.971,-309.637 547.494,-273.143"/>
<polygon fill="midnightblue" stroke="midnightblue" points="549.656,-275.92 556.292,-267.661 545.954,-269.98 549.656,-275.92"/>
</g>
<!-- Node38 -->
<g id="node38" class="node"><title>Node38</title>
<g id="a_node38"><a xlink:href="../../dc/d14/ROC_8h.html" target="_top" xlink:title="TPCBase/ROC.h">
<polygon fill="none" stroke="black" points="637.5,-304.5 637.5,-323.5 730.5,-323.5 730.5,-304.5 637.5,-304.5"/>
<text text-anchor="middle" x="684" y="-311.5" font-family="Helvetica,sans-Serif" font-size="10.00">TPCBase/ROC.h</text>
</a>
</g>
</g>
<!-- Node11&#45;&gt;Node38 -->
<g id="edge69" class="edge"><title>Node11&#45;&gt;Node38</title>
<path fill="none" stroke="midnightblue" d="M775.092,-596.348C722.015,-571.861 579.171,-496.227 550,-380 547.836,-371.379 544.811,-367.217 550,-360 567.609,-335.512 599.196,-324.165 627.281,-318.985"/>
<polygon fill="midnightblue" stroke="midnightblue" points="628.124,-322.394 637.438,-317.343 627.007,-315.484 628.124,-322.394"/>
</g>
<!-- Node11&#45;&gt;Node44 -->
<g id="edge71" class="edge"><title>Node11&#45;&gt;Node44</title>
<path fill="none" stroke="midnightblue" d="M845.808,-597.605C912.241,-587.935 1028.68,-570.987 1101.33,-560.412"/>
<polygon fill="midnightblue" stroke="midnightblue" points="1101.89,-563.868 1111.29,-558.964 1100.89,-556.941 1101.89,-563.868"/>
</g>
<!-- Node18&#45;&gt;Node7 -->
<g id="edge20" class="edge"><title>Node18&#45;&gt;Node7</title>
<path fill="none" stroke="midnightblue" d="M652.503,-192.444C584.738,-181.184 467.643,-161.728 411.225,-152.354"/>
<polygon fill="midnightblue" stroke="midnightblue" points="411.54,-148.859 401.102,-150.672 410.393,-155.764 411.54,-148.859"/>
</g>
<!-- Node19 -->
<g id="node19" class="node"><title>Node19</title>
<g id="a_node19"><a xlink:href="../../d2/dd0/Cartesian2D_8h.html" target="_top" xlink:title="MathUtils/Cartesian2D.h">
<polygon fill="none" stroke="black" points="1096.5,-74.5 1096.5,-93.5 1221.5,-93.5 1221.5,-74.5 1096.5,-74.5"/>
<text text-anchor="middle" x="1159" y="-81.5" font-family="Helvetica,sans-Serif" font-size="10.00">MathUtils/Cartesian2D.h</text>
</a>
</g>
</g>
<!-- Node18&#45;&gt;Node19 -->
<g id="edge21" class="edge"><title>Node18&#45;&gt;Node19</title>
<path fill="none" stroke="midnightblue" d="M737.457,-192.47C818.478,-171.814 1025.18,-119.117 1115.57,-96.0711"/>
<polygon fill="midnightblue" stroke="midnightblue" points="1116.67,-99.4043 1125.49,-93.5423 1114.94,-92.6212 1116.67,-99.4043"/>
</g>
<!-- Node22 -->
<g id="node22" class="node"><title>Node22</title>
<g id="a_node22"><a xlink:href="../../dd/d76/Cartesian3D_8h.html" target="_top" xlink:title="MathUtils/Cartesian3D.h">
<polygon fill="none" stroke="black" points="623.5,-136.5 623.5,-155.5 748.5,-155.5 748.5,-136.5 623.5,-136.5"/>
<text text-anchor="middle" x="686" y="-143.5" font-family="Helvetica,sans-Serif" font-size="10.00">MathUtils/Cartesian3D.h</text>
</a>
</g>
</g>
<!-- Node18&#45;&gt;Node22 -->
<g id="edge24" class="edge"><title>Node18&#45;&gt;Node22</title>
<path fill="none" stroke="midnightblue" d="M701.028,-192.083C698.616,-184.849 695.136,-174.409 692.132,-165.397"/>
<polygon fill="midnightblue" stroke="midnightblue" points="695.4,-164.131 688.917,-155.751 688.759,-166.345 695.4,-164.131"/>
</g>
<!-- Node20 -->
<g id="node20" class="node"><title>Node20</title>
<polygon fill="none" stroke="#bfbfbf" points="992.5,-1 992.5,-31 1143.5,-31 1143.5,-1 992.5,-1"/>
<text text-anchor="start" x="1000.5" y="-19" font-family="Helvetica,sans-Serif" font-size="10.00">Math/GenVector/Displacement</text>
<text text-anchor="middle" x="1068" y="-8" font-family="Helvetica,sans-Serif" font-size="10.00">Vector2D.h</text>
</g>
<!-- Node19&#45;&gt;Node20 -->
<g id="edge22" class="edge"><title>Node19&#45;&gt;Node20</title>
<path fill="none" stroke="midnightblue" d="M1147.1,-74.3717C1134.22,-65.0286 1113.22,-49.7966 1096.09,-37.375"/>
<polygon fill="midnightblue" stroke="midnightblue" points="1097.7,-34.2194 1087.55,-31.1815 1093.59,-39.8859 1097.7,-34.2194"/>
</g>
<!-- Node21 -->
<g id="node21" class="node"><title>Node21</title>
<polygon fill="none" stroke="#bfbfbf" points="1162,-6.5 1162,-25.5 1338,-25.5 1338,-6.5 1162,-6.5"/>
<text text-anchor="middle" x="1250" y="-13.5" font-family="Helvetica,sans-Serif" font-size="10.00">Math/GenVector/PositionVector2D.h</text>
</g>
<!-- Node19&#45;&gt;Node21 -->
<g id="edge23" class="edge"><title>Node19&#45;&gt;Node21</title>
<path fill="none" stroke="midnightblue" d="M1170.9,-74.3717C1185.88,-63.5015 1211.86,-44.6602 1229.94,-31.5474"/>
<polygon fill="midnightblue" stroke="midnightblue" points="1232.06,-34.3349 1238.1,-25.6305 1227.95,-28.6684 1232.06,-34.3349"/>
</g>
<!-- Node22&#45;&gt;Node8 -->
<g id="edge30" class="edge"><title>Node22&#45;&gt;Node8</title>
<path fill="none" stroke="midnightblue" d="M623.135,-142.598C494.635,-137.277 205.931,-123.108 110,-100 107.003,-99.278 103.933,-98.3384 100.911,-97.2814"/>
<polygon fill="midnightblue" stroke="midnightblue" points="102.158,-94.0107 91.5697,-93.6274 99.6076,-100.53 102.158,-94.0107"/>
</g>
<!-- Node22&#45;&gt;Node19 -->
<g id="edge33" class="edge"><title>Node22&#45;&gt;Node19</title>
<path fill="none" stroke="midnightblue" d="M748.758,-139.79C827.9,-132.8 968.017,-119.027 1087,-100 1094.89,-98.7383 1103.22,-97.1971 1111.32,-95.5884"/>
<polygon fill="midnightblue" stroke="midnightblue" points="1112.29,-98.9627 1121.38,-93.5307 1110.88,-92.1045 1112.29,-98.9627"/>
</g>
<!-- Node23 -->
<g id="node23" class="node"><title>Node23</title>
<polygon fill="none" stroke="#bfbfbf" points="733.5,-69 733.5,-99 884.5,-99 884.5,-69 733.5,-69"/>
<text text-anchor="start" x="741.5" y="-87" font-family="Helvetica,sans-Serif" font-size="10.00">Math/GenVector/Displacement</text>
<text text-anchor="middle" x="809" y="-76" font-family="Helvetica,sans-Serif" font-size="10.00">Vector3D.h</text>
</g>
<!-- Node22&#45;&gt;Node23 -->
<g id="edge25" class="edge"><title>Node22&#45;&gt;Node23</title>
<path fill="none" stroke="midnightblue" d="M703.623,-136.403C721.06,-127.898 748.316,-114.602 770.74,-103.663"/>
<polygon fill="midnightblue" stroke="midnightblue" points="772.558,-106.671 780.011,-99.1408 769.489,-100.379 772.558,-106.671"/>
</g>
<!-- Node24 -->
<g id="node24" class="node"><title>Node24</title>
<polygon fill="none" stroke="#bfbfbf" points="903,-74.5 903,-93.5 1079,-93.5 1079,-74.5 903,-74.5"/>
<text text-anchor="middle" x="991" y="-81.5" font-family="Helvetica,sans-Serif" font-size="10.00">Math/GenVector/PositionVector3D.h</text>
</g>
<!-- Node22&#45;&gt;Node24 -->
<g id="edge26" class="edge"><title>Node22&#45;&gt;Node24</title>
<path fill="none" stroke="midnightblue" d="M729.375,-136.467C784.256,-125.671 878.732,-107.086 937.879,-95.4501"/>
<polygon fill="midnightblue" stroke="midnightblue" points="938.638,-98.8679 947.774,-93.5034 937.287,-91.9995 938.638,-98.8679"/>
</g>
<!-- Node25 -->
<g id="node25" class="node"><title>Node25</title>
<polygon fill="none" stroke="#bfbfbf" points="119.5,-74.5 119.5,-93.5 268.5,-93.5 268.5,-74.5 119.5,-74.5"/>
<text text-anchor="middle" x="194" y="-81.5" font-family="Helvetica,sans-Serif" font-size="10.00">Math/GenVector/Rotation3D.h</text>
</g>
<!-- Node22&#45;&gt;Node25 -->
<g id="edge27" class="edge"><title>Node22&#45;&gt;Node25</title>
<path fill="none" stroke="midnightblue" d="M623.278,-139.395C543.034,-131.924 399.845,-117.578 278,-100 268.533,-98.6342 258.497,-97.003 248.782,-95.3273"/>
<polygon fill="midnightblue" stroke="midnightblue" points="249.267,-91.8589 238.812,-93.5742 248.055,-98.7532 249.267,-91.8589"/>
</g>
<!-- Node26 -->
<g id="node26" class="node"><title>Node26</title>
<polygon fill="none" stroke="#bfbfbf" points="287,-74.5 287,-93.5 443,-93.5 443,-74.5 287,-74.5"/>
<text text-anchor="middle" x="365" y="-81.5" font-family="Helvetica,sans-Serif" font-size="10.00">Math/GenVector/Transform3D.h</text>
</g>
<!-- Node22&#45;&gt;Node26 -->
<g id="edge28" class="edge"><title>Node22&#45;&gt;Node26</title>
<path fill="none" stroke="midnightblue" d="M640.349,-136.467C582.471,-125.649 482.747,-107.009 420.523,-95.3781"/>
<polygon fill="midnightblue" stroke="midnightblue" points="420.966,-91.9004 410.493,-93.5034 419.68,-98.7812 420.966,-91.9004"/>
</g>
<!-- Node27 -->
<g id="node27" class="node"><title>Node27</title>
<polygon fill="none" stroke="#bfbfbf" points="461,-74.5 461,-93.5 621,-93.5 621,-74.5 461,-74.5"/>
<text text-anchor="middle" x="541" y="-81.5" font-family="Helvetica,sans-Serif" font-size="10.00">Math/GenVector/Translation3D.h</text>
</g>
<!-- Node22&#45;&gt;Node27 -->
<g id="edge29" class="edge"><title>Node22&#45;&gt;Node27</title>
<path fill="none" stroke="midnightblue" d="M665.225,-136.403C640.568,-126.2 599.255,-109.105 571.098,-97.4544"/>
<polygon fill="midnightblue" stroke="midnightblue" points="572.315,-94.1701 561.736,-93.5806 569.638,-100.638 572.315,-94.1701"/>
</g>
<!-- Node28 -->
<g id="node28" class="node"><title>Node28</title>
<polygon fill="none" stroke="#bfbfbf" points="639,-74.5 639,-93.5 715,-93.5 715,-74.5 639,-74.5"/>
<text text-anchor="middle" x="677" y="-81.5" font-family="Helvetica,sans-Serif" font-size="10.00">TGeoMatrix.h</text>
</g>
<!-- Node22&#45;&gt;Node28 -->
<g id="edge31" class="edge"><title>Node22&#45;&gt;Node28</title>
<path fill="none" stroke="midnightblue" d="M684.711,-136.403C683.427,-127.849 681.417,-114.45 679.771,-103.476"/>
<polygon fill="midnightblue" stroke="midnightblue" points="683.232,-102.951 678.287,-93.5806 676.309,-103.989 683.232,-102.951"/>
</g>
<!-- Node29 -->
<g id="node29" class="node"><title>Node29</title>
<polygon fill="none" stroke="#bfbfbf" points="1239.5,-74.5 1239.5,-93.5 1284.5,-93.5 1284.5,-74.5 1239.5,-74.5"/>
<text text-anchor="middle" x="1262" y="-81.5" font-family="Helvetica,sans-Serif" font-size="10.00">iosfwd</text>
</g>
<!-- Node22&#45;&gt;Node29 -->
<g id="edge32" class="edge"><title>Node22&#45;&gt;Node29</title>
<path fill="none" stroke="midnightblue" d="M748.734,-142.605C871.814,-137.448 1140.72,-123.792 1230,-100 1232.35,-99.3735 1234.74,-98.5811 1237.1,-97.6893"/>
<polygon fill="midnightblue" stroke="midnightblue" points="1238.68,-100.819 1246.47,-93.6338 1235.9,-94.3951 1238.68,-100.819"/>
</g>
<!-- Node30&#45;&gt;Node7 -->
<g id="edge39" class="edge"><title>Node30&#45;&gt;Node7</title>
<path fill="none" stroke="midnightblue" d="M775.427,-487.146C711.541,-485.442 600.777,-476.223 516,-436 442.605,-401.177 379,-396.237 379,-315 379,-315 379,-315 379,-257 379,-224.948 379,-187.643 379,-165.749"/>
<polygon fill="midnightblue" stroke="midnightblue" points="382.5,-165.558 379,-155.558 375.5,-165.558 382.5,-165.558"/>
</g>
<!-- Node30&#45;&gt;Node13 -->
<g id="edge36" class="edge"><title>Node30&#45;&gt;Node13</title>
<path fill="none" stroke="midnightblue" d="M863.559,-478.422C874.291,-476.106 886.079,-473.757 897,-472 1043.54,-448.419 1095.91,-501.693 1229,-436 1250.77,-425.253 1268.99,-403.538 1279.93,-388.169"/>
<polygon fill="midnightblue" stroke="midnightblue" points="1283.04,-389.815 1285.77,-379.575 1277.25,-385.882 1283.04,-389.815"/>
</g>
<!-- Node30&#45;&gt;Node14 -->
<g id="edge38" class="edge"><title>Node30&#45;&gt;Node14</title>
<path fill="none" stroke="midnightblue" d="M878.711,-481.049C903.067,-478.265 932.522,-474.926 959,-472 1103.95,-455.98 1277.21,-437.624 1346.81,-430.283"/>
<polygon fill="midnightblue" stroke="midnightblue" points="1347.49,-433.731 1357.07,-429.202 1346.76,-426.77 1347.49,-433.731"/>
</g>
<!-- Node30&#45;&gt;Node18 -->
<g id="edge40" class="edge"><title>Node30&#45;&gt;Node18</title>
<path fill="none" stroke="midnightblue" d="M775.477,-486.146C719.041,-483.25 627.334,-472.661 558,-436 521.883,-416.903 493,-411.855 493,-371 493,-371 493,-371 493,-313 493,-282.902 490.149,-268.698 512,-248 529.194,-231.713 583.879,-219.887 630.511,-212.458"/>
<polygon fill="midnightblue" stroke="midnightblue" points="631.281,-215.88 640.628,-210.893 630.211,-208.962 631.281,-215.88"/>
</g>
<!-- Node31 -->
<g id="node31" class="node"><title>Node31</title>
<polygon fill="none" stroke="#bfbfbf" points="941.5,-416.5 941.5,-435.5 976.5,-435.5 976.5,-416.5 941.5,-416.5"/>
<text text-anchor="middle" x="959" y="-423.5" font-family="Helvetica,sans-Serif" font-size="10.00">map</text>
</g>
<!-- Node30&#45;&gt;Node31 -->
<g id="edge35" class="edge"><title>Node30&#45;&gt;Node31</title>
<path fill="none" stroke="midnightblue" d="M845.912,-478.403C868.542,-468.117 906.583,-450.826 932.226,-439.17"/>
<polygon fill="midnightblue" stroke="midnightblue" points="933.733,-442.33 941.388,-435.005 930.836,-435.957 933.733,-442.33"/>
</g>
<!-- Node32 -->
<g id="node32" class="node"><title>Node32</title>
<polygon fill="none" stroke="#bfbfbf" points="995,-416.5 995,-435.5 1033,-435.5 1033,-416.5 995,-416.5"/>
<text text-anchor="middle" x="1014" y="-423.5" font-family="Helvetica,sans-Serif" font-size="10.00">array</text>
</g>
<!-- Node30&#45;&gt;Node32 -->
<g id="edge37" class="edge"><title>Node30&#45;&gt;Node32</title>
<path fill="none" stroke="midnightblue" d="M853.793,-478.403C888.629,-467.226 949.245,-447.777 985.091,-436.276"/>
<polygon fill="midnightblue" stroke="midnightblue" points="986.481,-439.506 994.933,-433.118 984.342,-432.84 986.481,-439.506"/>
</g>
<!-- Node33 -->
<g id="node33" class="node"><title>Node33</title>
<g id="a_node33"><a xlink:href="../../de/d41/PadPos_8h.html" target="_top" xlink:title="TPCBase/PadPos.h">
<polygon fill="none" stroke="black" points="952.5,-304.5 952.5,-323.5 1057.5,-323.5 1057.5,-304.5 952.5,-304.5"/>
<text text-anchor="middle" x="1005" y="-311.5" font-family="Helvetica,sans-Serif" font-size="10.00">TPCBase/PadPos.h</text>
</a>
</g>
</g>
<!-- Node30&#45;&gt;Node33 -->
<g id="edge41" class="edge"><title>Node30&#45;&gt;Node33</title>
<path fill="none" stroke="midnightblue" d="M838.602,-478.322C857.581,-464.319 896.692,-436.265 932,-416 964.068,-397.595 987.308,-411.295 1007,-380 1015.63,-366.277 1013.95,-347.496 1010.81,-333.649"/>
<polygon fill="midnightblue" stroke="midnightblue" points="1014.14,-332.535 1008.15,-323.794 1007.38,-334.361 1014.14,-332.535"/>
</g>
<!-- Node34 -->
<g id="node34" class="node"><title>Node34</title>
<g id="a_node34"><a xlink:href="../../dd/d0b/PadSecPos_8h.html" target="_top" xlink:title="TPCBase/PadSecPos.h">
<polygon fill="none" stroke="black" points="559,-360.5 559,-379.5 681,-379.5 681,-360.5 559,-360.5"/>
<text text-anchor="middle" x="620" y="-367.5" font-family="Helvetica,sans-Serif" font-size="10.00">TPCBase/PadSecPos.h</text>
</a>
</g>
</g>
<!-- Node30&#45;&gt;Node34 -->
<g id="edge42" class="edge"><title>Node30&#45;&gt;Node34</title>
<path fill="none" stroke="midnightblue" d="M775.474,-483.415C712.408,-477.829 611.118,-464.571 588,-436 575.963,-421.123 589.535,-400.972 602.529,-387.069"/>
<polygon fill="midnightblue" stroke="midnightblue" points="605.313,-389.236 609.915,-379.693 600.366,-384.283 605.313,-389.236"/>
</g>
<!-- Node30&#45;&gt;Node35 -->
<g id="edge68" class="edge"><title>Node30&#45;&gt;Node35</title>
<path fill="none" stroke="midnightblue" d="M775.241,-481.506C712.185,-473.939 610.306,-458.626 580,-436 557.375,-419.109 556.873,-407.386 550,-380 540.953,-343.955 553.961,-300.899 563.185,-277.09"/>
<polygon fill="midnightblue" stroke="midnightblue" points="566.521,-278.181 567.064,-267.6 560.041,-275.532 566.521,-278.181"/>
</g>
<!-- Node37 -->
<g id="node37" class="node"><title>Node37</title>
<g id="a_node37"><a xlink:href="../../da/d61/PadROCPos_8h.html" target="_top" xlink:title="TPCBase/PadROCPos.h">
<polygon fill="none" stroke="black" points="849,-360.5 849,-379.5 977,-379.5 977,-360.5 849,-360.5"/>
<text text-anchor="middle" x="913" y="-367.5" font-family="Helvetica,sans-Serif" font-size="10.00">TPCBase/PadROCPos.h</text>
</a>
</g>
</g>
<!-- Node30&#45;&gt;Node37 -->
<g id="edge47" class="edge"><title>Node30&#45;&gt;Node37</title>
<path fill="none" stroke="midnightblue" d="M804.982,-478.324C776.503,-465.818 732.708,-441.424 752,-416 763.716,-400.56 807.032,-388.982 845.786,-381.439"/>
<polygon fill="midnightblue" stroke="midnightblue" points="846.857,-384.799 856.04,-379.513 845.566,-377.919 846.857,-384.799"/>
</g>
<!-- Node39 -->
<g id="node39" class="node"><title>Node39</title>
<g id="a_node39"><a xlink:href="../../d3/d54/DigitPos_8h.html" target="_top" xlink:title="TPCBase/DigitPos.h">
<polygon fill="none" stroke="black" points="597,-416.5 597,-435.5 705,-435.5 705,-416.5 597,-416.5"/>
<text text-anchor="middle" x="651" y="-423.5" font-family="Helvetica,sans-Serif" font-size="10.00">TPCBase/DigitPos.h</text>
</a>
</g>
</g>
<!-- Node30&#45;&gt;Node39 -->
<g id="edge53" class="edge"><title>Node30&#45;&gt;Node39</title>
<path fill="none" stroke="midnightblue" d="M801.783,-478.403C771.332,-468.022 719.951,-450.506 685.757,-438.849"/>
<polygon fill="midnightblue" stroke="midnightblue" points="686.764,-435.495 676.17,-435.581 684.505,-442.12 686.764,-435.495"/>
</g>
<!-- Node41 -->
<g id="node41" class="node"><title>Node41</title>
<g id="a_node41"><a xlink:href="../../d1/d1f/FECInfo_8h.html" target="_top" xlink:title="TPCBase/FECInfo.h">
<polygon fill="none" stroke="black" points="1188.5,-248.5 1188.5,-267.5 1295.5,-267.5 1295.5,-248.5 1188.5,-248.5"/>
<text text-anchor="middle" x="1242" y="-255.5" font-family="Helvetica,sans-Serif" font-size="10.00">TPCBase/FECInfo.h</text>
</a>
</g>
</g>
<!-- Node30&#45;&gt;Node41 -->
<g id="edge61" class="edge"><title>Node30&#45;&gt;Node41</title>
<path fill="none" stroke="midnightblue" d="M863.935,-478.429C874.57,-476.14 886.213,-473.804 897,-472 962.791,-461 1144.66,-479.769 1195,-436 1241.55,-395.526 1244.54,-314.745 1243.26,-277.993"/>
<polygon fill="midnightblue" stroke="midnightblue" points="1246.74,-277.526 1242.74,-267.714 1239.75,-277.877 1246.74,-277.526"/>
</g>
<!-- Node42 -->
<g id="node42" class="node"><title>Node42</title>
<g id="a_node42"><a xlink:href="../../da/d9d/PadRegionInfo_8h.html" target="_top" xlink:title="TPCBase/PadRegionInfo.h">
<polygon fill="none" stroke="black" points="1051.5,-416.5 1051.5,-435.5 1186.5,-435.5 1186.5,-416.5 1051.5,-416.5"/>
<text text-anchor="middle" x="1119" y="-423.5" font-family="Helvetica,sans-Serif" font-size="10.00">TPCBase/PadRegionInfo.h</text>
</a>
</g>
</g>
<!-- Node30&#45;&gt;Node42 -->
<g id="edge63" class="edge"><title>Node30&#45;&gt;Node42</title>
<path fill="none" stroke="midnightblue" d="M866.595,-478.435C876.518,-476.311 887.145,-474.055 897,-472 954.802,-459.949 1021.17,-446.555 1066.17,-437.538"/>
<polygon fill="midnightblue" stroke="midnightblue" points="1066.88,-440.965 1076,-435.57 1065.5,-434.101 1066.88,-440.965"/>
</g>
<!-- Node43 -->
<g id="node43" class="node"><title>Node43</title>
<g id="a_node43"><a xlink:href="../../d6/d42/PartitionInfo_8h.html" target="_top" xlink:title="TPCBase/PartitionInfo.h">
<polygon fill="none" stroke="black" points="761.5,-416.5 761.5,-435.5 884.5,-435.5 884.5,-416.5 761.5,-416.5"/>
<text text-anchor="middle" x="823" y="-423.5" font-family="Helvetica,sans-Serif" font-size="10.00">TPCBase/PartitionInfo.h</text>
</a>
</g>
</g>
<!-- Node30&#45;&gt;Node43 -->
<g id="edge67" class="edge"><title>Node30&#45;&gt;Node43</title>
<path fill="none" stroke="midnightblue" d="M826.427,-478.403C825.863,-469.938 824.982,-456.728 824.255,-445.82"/>
<polygon fill="midnightblue" stroke="midnightblue" points="827.73,-445.326 823.572,-435.581 820.745,-445.791 827.73,-445.326"/>
</g>
<!-- Node34&#45;&gt;Node33 -->
<g id="edge46" class="edge"><title>Node34&#45;&gt;Node33</title>
<path fill="none" stroke="midnightblue" d="M681.004,-360.444C752.343,-350.438 869.833,-333.958 942.013,-323.834"/>
<polygon fill="midnightblue" stroke="midnightblue" points="942.906,-327.244 952.323,-322.388 941.934,-320.311 942.906,-327.244"/>
</g>
<!-- Node34&#45;&gt;Node35 -->
<g id="edge43" class="edge"><title>Node34&#45;&gt;Node35</title>
<path fill="none" stroke="midnightblue" d="M614.607,-360.244C609.24,-351.325 600.966,-336.995 595,-324 587.942,-308.626 581.396,-290.529 576.93,-277.339"/>
<polygon fill="midnightblue" stroke="midnightblue" points="580.165,-275.976 573.701,-267.582 573.52,-278.175 580.165,-275.976"/>
</g>
<!-- Node35&#45;&gt;Node18 -->
<g id="edge45" class="edge"><title>Node35&#45;&gt;Node18</title>
<path fill="none" stroke="midnightblue" d="M592.074,-248.444C614.06,-239.517 648.734,-225.439 673.664,-215.317"/>
<polygon fill="midnightblue" stroke="midnightblue" points="675.076,-218.521 683.024,-211.516 672.442,-212.035 675.076,-218.521"/>
</g>
<!-- Node36 -->
<g id="node36" class="node"><title>Node36</title>
<g id="a_node36"><a xlink:href="../../d0/dda/DataFormats_2Detectors_2TPC_2include_2DataFormatsTPC_2Constants_8h.html" target="_top" xlink:title="DataFormatsTPC/Constants.h">
<polygon fill="none" stroke="black" points="473,-192.5 473,-211.5 623,-211.5 623,-192.5 473,-192.5"/>
<text text-anchor="middle" x="548" y="-199.5" font-family="Helvetica,sans-Serif" font-size="10.00">DataFormatsTPC/Constants.h</text>
</a>
</g>
</g>
<!-- Node35&#45;&gt;Node36 -->
<g id="edge44" class="edge"><title>Node35&#45;&gt;Node36</title>
<path fill="none" stroke="midnightblue" d="M567.202,-248.083C564.087,-240.77 559.577,-230.181 555.711,-221.103"/>
<polygon fill="midnightblue" stroke="midnightblue" points="558.866,-219.58 551.727,-211.751 552.426,-222.323 558.866,-219.58"/>
</g>
<!-- Node37&#45;&gt;Node18 -->
<g id="edge48" class="edge"><title>Node37&#45;&gt;Node18</title>
<path fill="none" stroke="midnightblue" d="M909.749,-360.269C901.088,-338.181 875.333,-279.598 835,-248 814.036,-231.577 786.696,-220.942 762.418,-214.16"/>
<polygon fill="midnightblue" stroke="midnightblue" points="763.144,-210.732 752.583,-211.571 761.362,-217.502 763.144,-210.732"/>
</g>
<!-- Node37&#45;&gt;Node33 -->
<g id="edge52" class="edge"><title>Node37&#45;&gt;Node33</title>
<path fill="none" stroke="midnightblue" d="M927.781,-360.324C942.267,-351.822 964.573,-338.729 981.493,-328.797"/>
<polygon fill="midnightblue" stroke="midnightblue" points="983.403,-331.735 990.255,-323.655 979.859,-325.698 983.403,-331.735"/>
</g>
<!-- Node37&#45;&gt;Node38 -->
<g id="edge49" class="edge"><title>Node37&#45;&gt;Node38</title>
<path fill="none" stroke="midnightblue" d="M876.714,-360.444C837.017,-351.083 773.293,-336.056 730.088,-325.868"/>
<polygon fill="midnightblue" stroke="midnightblue" points="730.652,-322.405 720.116,-323.516 729.046,-329.218 730.652,-322.405"/>
</g>
<!-- Node38&#45;&gt;Node18 -->
<g id="edge50" class="edge"><title>Node38&#45;&gt;Node18</title>
<path fill="none" stroke="midnightblue" d="M685.569,-304.368C688.797,-286.617 696.242,-245.666 700.619,-221.597"/>
<polygon fill="midnightblue" stroke="midnightblue" points="704.093,-222.056 702.438,-211.591 697.205,-220.804 704.093,-222.056"/>
</g>
<!-- Node38&#45;&gt;Node35 -->
<g id="edge51" class="edge"><title>Node38&#45;&gt;Node35</title>
<path fill="none" stroke="midnightblue" d="M666.095,-304.444C647.746,-295.675 618.995,-281.935 597.906,-271.858"/>
<polygon fill="midnightblue" stroke="midnightblue" points="599.353,-268.67 588.821,-267.516 596.335,-274.986 599.353,-268.67"/>
</g>
<!-- Node39&#45;&gt;Node18 -->
<g id="edge54" class="edge"><title>Node39&#45;&gt;Node18</title>
<path fill="none" stroke="midnightblue" d="M701.762,-416.427C740.406,-408.744 788.95,-396.196 801,-380 842.226,-324.591 762.477,-249.585 723.593,-218.001"/>
<polygon fill="midnightblue" stroke="midnightblue" points="725.549,-215.085 715.541,-211.607 721.196,-220.567 725.549,-215.085"/>
</g>
<!-- Node39&#45;&gt;Node33 -->
<g id="edge59" class="edge"><title>Node39&#45;&gt;Node33</title>
<path fill="none" stroke="midnightblue" d="M705.302,-419.263C797.432,-409.311 975.472,-389.048 986,-380 999.216,-368.642 1003.5,-348.647 1004.76,-333.823"/>
<polygon fill="midnightblue" stroke="midnightblue" points="1008.26,-333.878 1005.24,-323.725 1001.27,-333.549 1008.26,-333.878"/>
</g>
<!-- Node39&#45;&gt;Node34 -->
<g id="edge60" class="edge"><title>Node39&#45;&gt;Node34</title>
<path fill="none" stroke="midnightblue" d="M645.881,-416.083C641.592,-408.613 635.342,-397.724 630.058,-388.52"/>
<polygon fill="midnightblue" stroke="midnightblue" points="633.038,-386.681 625.024,-379.751 626.967,-390.166 633.038,-386.681"/>
</g>
<!-- Node40 -->
<g id="node40" class="node"><title>Node40</title>
<g id="a_node40"><a xlink:href="../../df/d26/CRU_8h.html" target="_top" xlink:title="TPCBase/CRU.h">
<polygon fill="none" stroke="black" points="699.5,-360.5 699.5,-379.5 792.5,-379.5 792.5,-360.5 699.5,-360.5"/>
<text text-anchor="middle" x="746" y="-367.5" font-family="Helvetica,sans-Serif" font-size="10.00">TPCBase/CRU.h</text>
</a>
</g>
</g>
<!-- Node39&#45;&gt;Node40 -->
<g id="edge55" class="edge"><title>Node39&#45;&gt;Node40</title>
<path fill="none" stroke="midnightblue" d="M666.263,-416.324C681.221,-407.822 704.255,-394.729 721.727,-384.797"/>
<polygon fill="midnightblue" stroke="midnightblue" points="723.81,-387.639 730.774,-379.655 720.351,-381.553 723.81,-387.639"/>
</g>
<!-- Node40&#45;&gt;Node18 -->
<g id="edge56" class="edge"><title>Node40&#45;&gt;Node18</title>
<path fill="none" stroke="midnightblue" d="M745.697,-360.486C745.113,-347.972 743.467,-323.936 739,-304 732.327,-274.221 719.785,-241.024 711.667,-221.088"/>
<polygon fill="midnightblue" stroke="midnightblue" points="714.846,-219.615 707.779,-211.721 708.381,-222.299 714.846,-219.615"/>
</g>
<!-- Node40&#45;&gt;Node35 -->
<g id="edge57" class="edge"><title>Node40&#45;&gt;Node35</title>
<path fill="none" stroke="midnightblue" d="M710.796,-360.449C686.129,-353.339 653.201,-341.524 628,-324 609.4,-311.067 592.919,-290.788 582.523,-276.322"/>
<polygon fill="midnightblue" stroke="midnightblue" points="585.183,-274.016 576.61,-267.791 579.43,-278.004 585.183,-274.016"/>
</g>
<!-- Node40&#45;&gt;Node38 -->
<g id="edge58" class="edge"><title>Node40&#45;&gt;Node38</title>
<path fill="none" stroke="midnightblue" d="M736.039,-360.324C726.873,-352.341 713.063,-340.313 701.972,-330.653"/>
<polygon fill="midnightblue" stroke="midnightblue" points="703.982,-327.762 694.143,-323.834 699.385,-333.041 703.982,-327.762"/>
</g>
<!-- Node41&#45;&gt;Node29 -->
<g id="edge62" class="edge"><title>Node41&#45;&gt;Node29</title>
<path fill="none" stroke="midnightblue" d="M1243.02,-248.234C1246.12,-221.548 1255.5,-140.877 1259.8,-103.893"/>
<polygon fill="midnightblue" stroke="midnightblue" points="1263.33,-103.882 1261.01,-93.5442 1256.37,-103.073 1263.33,-103.882"/>
</g>
<!-- Node42&#45;&gt;Node13 -->
<g id="edge64" class="edge"><title>Node42&#45;&gt;Node13</title>
<path fill="none" stroke="midnightblue" d="M1146.25,-416.444C1176.85,-406.837 1226.46,-391.262 1258.91,-381.075"/>
<polygon fill="midnightblue" stroke="midnightblue" points="1260.3,-384.306 1268.8,-377.971 1258.21,-377.627 1260.3,-384.306"/>
</g>
<!-- Node42&#45;&gt;Node18 -->
<g id="edge65" class="edge"><title>Node42&#45;&gt;Node18</title>
<path fill="none" stroke="midnightblue" d="M1117.75,-416.177C1114.13,-393.873 1101.5,-334.824 1066,-304 984.5,-233.234 857.171,-211.751 777.274,-205.408"/>
<polygon fill="midnightblue" stroke="midnightblue" points="777.519,-201.916 767.29,-204.674 777.006,-208.897 777.519,-201.916"/>
</g>
<!-- Node42&#45;&gt;Node33 -->
<g id="edge66" class="edge"><title>Node42&#45;&gt;Node33</title>
<path fill="none" stroke="midnightblue" d="M1111.23,-416.335C1099.72,-403.632 1077.32,-379.363 1057,-360 1046.2,-349.706 1033.54,-338.736 1023.43,-330.204"/>
<polygon fill="midnightblue" stroke="midnightblue" points="1025.54,-327.407 1015.62,-323.68 1021.05,-332.778 1025.54,-327.407"/>
</g>
<!-- Node44&#45;&gt;Node2 -->
<g id="edge77" class="edge"><title>Node44&#45;&gt;Node2</title>
<path fill="none" stroke="midnightblue" d="M1111.48,-544.2C1095.83,-542.832 1078.74,-541.348 1063,-540 859.233,-522.551 616.996,-502.413 510.216,-493.567"/>
<polygon fill="midnightblue" stroke="midnightblue" points="510.261,-490.059 500.006,-492.721 509.683,-497.035 510.261,-490.059"/>
</g>
<!-- Node44&#45;&gt;Node12 -->
<g id="edge73" class="edge"><title>Node44&#45;&gt;Node12</title>
<path fill="none" stroke="midnightblue" d="M1141.36,-540.403C1111.72,-530.067 1061.82,-512.656 1028.4,-500.999"/>
<polygon fill="midnightblue" stroke="midnightblue" points="1029.19,-497.57 1018.6,-497.581 1026.89,-504.179 1029.19,-497.57"/>
</g>
<!-- Node44&#45;&gt;Node13 -->
<g id="edge74" class="edge"><title>Node44&#45;&gt;Node13</title>
<path fill="none" stroke="midnightblue" d="M1165.41,-540.32C1164.85,-524.554 1166.02,-491.085 1184,-472 1222.48,-431.163 1271.46,-480.976 1305,-436 1315.11,-422.448 1309.07,-403.129 1302.05,-389.076"/>
<polygon fill="midnightblue" stroke="midnightblue" points="1304.89,-386.982 1296.98,-379.932 1298.77,-390.375 1304.89,-386.982"/>
</g>
<!-- Node44&#45;&gt;Node14 -->
<g id="edge75" class="edge"><title>Node44&#45;&gt;Node14</title>
<path fill="none" stroke="midnightblue" d="M1169.3,-540.366C1175.87,-524.371 1192.11,-490.117 1217,-472 1222.36,-468.098 1302.13,-446.832 1347.33,-434.983"/>
<polygon fill="midnightblue" stroke="midnightblue" points="1348.42,-438.315 1357.21,-432.399 1346.65,-431.543 1348.42,-438.315"/>
</g>
<!-- Node44&#45;&gt;Node17 -->
<g id="edge78" class="edge"><title>Node44&#45;&gt;Node17</title>
<path fill="none" stroke="midnightblue" d="M1154.97,-540.403C1142.73,-530.869 1122.77,-515.315 1108.01,-503.811"/>
<polygon fill="midnightblue" stroke="midnightblue" points="1110.05,-500.966 1100.01,-497.581 1105.75,-506.488 1110.05,-500.966"/>
</g>
<!-- Node44&#45;&gt;Node30 -->
<g id="edge79" class="edge"><title>Node44&#45;&gt;Node30</title>
<path fill="none" stroke="midnightblue" d="M1117.79,-540.467C1056.54,-529.626 950.915,-510.932 885.23,-499.306"/>
<polygon fill="midnightblue" stroke="midnightblue" points="885.501,-495.8 875.044,-497.503 884.281,-502.693 885.501,-495.8"/>
</g>
<!-- Node45 -->
<g id="node45" class="node"><title>Node45</title>
<polygon fill="none" stroke="#bfbfbf" points="1226,-478.5 1226,-497.5 1270,-497.5 1270,-478.5 1226,-478.5"/>
<text text-anchor="middle" x="1248" y="-485.5" font-family="Helvetica,sans-Serif" font-size="10.00">Vc/Vc</text>
</g>
<!-- Node44&#45;&gt;Node45 -->
<g id="edge72" class="edge"><title>Node44&#45;&gt;Node45</title>
<path fill="none" stroke="midnightblue" d="M1177.75,-540.403C1190.9,-530.78 1212.43,-515.024 1228.2,-503.489"/>
<polygon fill="midnightblue" stroke="midnightblue" points="1230.27,-506.31 1236.27,-497.581 1226.14,-500.661 1230.27,-506.31"/>
</g>
<!-- Node46 -->
<g id="node46" class="node"><title>Node46</title>
<polygon fill="none" stroke="#bfbfbf" points="1288,-478.5 1288,-497.5 1350,-497.5 1350,-478.5 1288,-478.5"/>
<text text-anchor="middle" x="1319" y="-485.5" font-family="Helvetica,sans-Serif" font-size="10.00">type_traits</text>
</g>
<!-- Node44&#45;&gt;Node46 -->
<g id="edge76" class="edge"><title>Node44&#45;&gt;Node46</title>
<path fill="none" stroke="midnightblue" d="M1187.92,-540.403C1214.05,-530.156 1257.91,-512.956 1287.63,-501.302"/>
<polygon fill="midnightblue" stroke="midnightblue" points="1289.09,-504.49 1297.12,-497.581 1286.53,-497.973 1289.09,-504.49"/>
</g>
<!-- Node47&#45;&gt;Node13 -->
<g id="edge82" class="edge"><title>Node47&#45;&gt;Node13</title>
<path fill="none" stroke="midnightblue" d="M1460.64,-472.919C1449.52,-457.138 1429.6,-431.71 1407,-416 1381.24,-398.089 1347.37,-386.016 1322.88,-378.923"/>
<polygon fill="midnightblue" stroke="midnightblue" points="1323.59,-375.486 1313.01,-376.185 1321.71,-382.231 1323.59,-375.486"/>
</g>
<!-- Node47&#45;&gt;Node14 -->
<g id="edge83" class="edge"><title>Node47&#45;&gt;Node14</title>
<path fill="none" stroke="midnightblue" d="M1448.2,-472.781C1433.5,-463.196 1414.2,-450.606 1399.55,-441.056"/>
<polygon fill="midnightblue" stroke="midnightblue" points="1401.41,-438.087 1391.12,-435.556 1397.58,-443.95 1401.41,-438.087"/>
</g>
<!-- Node48 -->
<g id="node48" class="node"><title>Node48</title>
<polygon fill="none" stroke="#bfbfbf" points="1455,-416.5 1455,-435.5 1547,-435.5 1547,-416.5 1455,-416.5"/>
<text text-anchor="middle" x="1501" y="-423.5" font-family="Helvetica,sans-Serif" font-size="10.00">boost/variant.hpp</text>
</g>
<!-- Node47&#45;&gt;Node48 -->
<g id="edge84" class="edge"><title>Node47&#45;&gt;Node48</title>
<path fill="none" stroke="midnightblue" d="M1477.35,-472.781C1481.67,-464.422 1487.17,-453.777 1491.77,-444.856"/>
<polygon fill="midnightblue" stroke="midnightblue" points="1495.01,-446.221 1496.49,-435.731 1488.79,-443.008 1495.01,-446.221"/>
</g>
</g>
</svg>
