<?xml version="1.0" encoding="UTF-8" standalone="no"?>
<!DOCTYPE svg PUBLIC "-//W3C//DTD SVG 1.1//EN"
 "http://www.w3.org/Graphics/SVG/1.1/DTD/svg11.dtd">
<!-- Generated by graphviz version 2.36.0 (20140111.2315)
 -->
<!-- Title: /home/travis/build/AliceO2Group/AliceO2/Detectors/MUON/MID/Base/include/MIDBase/Mapping.h Pages: 1 -->
<svg width="1096pt" height="332pt"
 viewBox="0.00 0.00 1096.00 332.00" xmlns="http://www.w3.org/2000/svg" xmlns:xlink="http://www.w3.org/1999/xlink">
<g id="graph0" class="graph" transform="scale(1 1) rotate(0) translate(4 328)">
<title>/home/travis/build/AliceO2Group/AliceO2/Detectors/MUON/MID/Base/include/MIDBase/Mapping.h</title>
<!-- Node1 -->
<g id="node1" class="node"><title>Node1</title>
<polygon fill="#bfbfbf" stroke="black" points="468.5,-271 468.5,-323 611.5,-323 611.5,-271 468.5,-271"/>
<text text-anchor="start" x="476.5" y="-311" font-family="Helvetica,sans-Serif" font-size="10.00">/home/travis/build</text>
<text text-anchor="start" x="476.5" y="-300" font-family="Helvetica,sans-Serif" font-size="10.00">/AliceO2Group/AliceO2</text>
<text text-anchor="start" x="476.5" y="-289" font-family="Helvetica,sans-Serif" font-size="10.00">/Detectors/MUON/MID/Base</text>
<text text-anchor="middle" x="540" y="-278" font-family="Helvetica,sans-Serif" font-size="10.00">/include/MIDBase/Mapping.h</text>
</g>
<!-- Node2 -->
<g id="node2" class="node"><title>Node2</title>
<g id="a_node2"><a xlink:href="../../d9/d73/MID_2Base_2src_2Mapping_8cxx.html" target="_top" xlink:title="Implementation of mapping for MID. ">
<polygon fill="none" stroke="black" points="-0.5,-181 -0.5,-233 142.5,-233 142.5,-181 -0.5,-181"/>
<text text-anchor="start" x="7.5" y="-221" font-family="Helvetica,sans-Serif" font-size="10.00">/home/travis/build</text>
<text text-anchor="start" x="7.5" y="-210" font-family="Helvetica,sans-Serif" font-size="10.00">/AliceO2Group/AliceO2</text>
<text text-anchor="start" x="7.5" y="-199" font-family="Helvetica,sans-Serif" font-size="10.00">/Detectors/MUON/MID/Base</text>
<text text-anchor="middle" x="71" y="-188" font-family="Helvetica,sans-Serif" font-size="10.00">/src/Mapping.cxx</text>
</a>
</g>
</g>
<!-- Node1&#45;&gt;Node2 -->
<g id="edge1" class="edge"><title>Node1&#45;&gt;Node2</title>
<path fill="none" stroke="midnightblue" d="M457.956,-286.706C378.721,-276.844 255.675,-259.188 151,-234 148.302,-233.351 145.564,-232.655 142.807,-231.922"/>
<polygon fill="midnightblue" stroke="midnightblue" points="458.005,-290.238 468.357,-287.987 458.86,-283.291 458.005,-290.238"/>
</g>
<!-- Node3 -->
<g id="node3" class="node"><title>Node3</title>
<g id="a_node3"><a xlink:href="../../d5/d6f/testMapping_8cxx.html" target="_top" xlink:title="/home/travis/build\l/AliceO2Group/AliceO2\l/Detectors/MUON/MID/Base\l/test/src/testMapping.cxx">
<polygon fill="none" stroke="black" points="160.5,-181 160.5,-233 303.5,-233 303.5,-181 160.5,-181"/>
<text text-anchor="start" x="168.5" y="-221" font-family="Helvetica,sans-Serif" font-size="10.00">/home/travis/build</text>
<text text-anchor="start" x="168.5" y="-210" font-family="Helvetica,sans-Serif" font-size="10.00">/AliceO2Group/AliceO2</text>
<text text-anchor="start" x="168.5" y="-199" font-family="Helvetica,sans-Serif" font-size="10.00">/Detectors/MUON/MID/Base</text>
<text text-anchor="middle" x="232" y="-188" font-family="Helvetica,sans-Serif" font-size="10.00">/test/src/testMapping.cxx</text>
</a>
</g>
</g>
<!-- Node1&#45;&gt;Node3 -->
<g id="edge2" class="edge"><title>Node1&#45;&gt;Node3</title>
<path fill="none" stroke="midnightblue" d="M458.765,-273.758C416.693,-262.126 364.521,-247.527 318,-234 313.357,-232.65 308.577,-231.246 303.762,-229.82"/>
<polygon fill="midnightblue" stroke="midnightblue" points="457.834,-277.132 468.405,-276.42 459.698,-270.385 457.834,-277.132"/>
</g>
<!-- Node4 -->
<g id="node4" class="node"><title>Node4</title>
<g id="a_node4"><a xlink:href="../../d5/d53/Clusterizer_8h.html" target="_top" xlink:title="Cluster reconstruction algorithm for MID. ">
<polygon fill="none" stroke="black" points="581.5,-91 581.5,-143 756.5,-143 756.5,-91 581.5,-91"/>
<text text-anchor="start" x="589.5" y="-131" font-family="Helvetica,sans-Serif" font-size="10.00">/home/travis/build</text>
<text text-anchor="start" x="589.5" y="-120" font-family="Helvetica,sans-Serif" font-size="10.00">/AliceO2Group/AliceO2</text>
<text text-anchor="start" x="589.5" y="-109" font-family="Helvetica,sans-Serif" font-size="10.00">/Detectors/MUON/MID/Clustering</text>
<text text-anchor="middle" x="669" y="-98" font-family="Helvetica,sans-Serif" font-size="10.00">/include/MIDClustering/Clusterizer.h</text>
</a>
</g>
</g>
<!-- Node1&#45;&gt;Node4 -->
<g id="edge3" class="edge"><title>Node1&#45;&gt;Node4</title>
<path fill="none" stroke="midnightblue" d="M563.803,-262.411C580.314,-239.191 602.869,-207.628 623,-180 631.84,-167.868 641.75,-154.484 650.101,-143.266"/>
<polygon fill="midnightblue" stroke="midnightblue" points="560.948,-260.386 558.009,-270.565 566.654,-264.441 560.948,-260.386"/>
</g>
<!-- Node6 -->
<g id="node6" class="node"><title>Node6</title>
<g id="a_node6"><a xlink:href="../../d2/d12/bench__Clusterizer_8cxx.html" target="_top" xlink:title="Benchmark clustering device for MID. ">
<polygon fill="none" stroke="black" points="345.5,-1 345.5,-53 510.5,-53 510.5,-1 345.5,-1"/>
<text text-anchor="start" x="353.5" y="-41" font-family="Helvetica,sans-Serif" font-size="10.00">/home/travis/build</text>
<text text-anchor="start" x="353.5" y="-30" font-family="Helvetica,sans-Serif" font-size="10.00">/AliceO2Group/AliceO2</text>
<text text-anchor="start" x="353.5" y="-19" font-family="Helvetica,sans-Serif" font-size="10.00">/Detectors/MUON/MID/Clustering</text>
<text text-anchor="middle" x="428" y="-8" font-family="Helvetica,sans-Serif" font-size="10.00">/test/bench_Clusterizer.cxx</text>
</a>
</g>
</g>
<!-- Node1&#45;&gt;Node6 -->
<g id="edge16" class="edge"><title>Node1&#45;&gt;Node6</title>
<path fill="none" stroke="midnightblue" d="M458.521,-283.242C429.542,-274.39 399.733,-259.397 382,-234 345.357,-181.52 359.295,-150.565 380,-90 384.624,-76.4751 393.529,-63.6147 402.427,-53.149"/>
<polygon fill="midnightblue" stroke="midnightblue" points="457.722,-286.654 468.298,-286.015 459.632,-279.919 457.722,-286.654"/>
</g>
<!-- Node8 -->
<g id="node8" class="node"><title>Node8</title>
<g id="a_node8"><a xlink:href="../../d7/d1a/PreClusterizer_8h.html" target="_top" xlink:title="Pre&#45;Cluster reconstruction algorithm for MID. ">
<polygon fill="none" stroke="black" points="775,-91 775,-143 965,-143 965,-91 775,-91"/>
<text text-anchor="start" x="783" y="-131" font-family="Helvetica,sans-Serif" font-size="10.00">/home/travis/build</text>
<text text-anchor="start" x="783" y="-120" font-family="Helvetica,sans-Serif" font-size="10.00">/AliceO2Group/AliceO2</text>
<text text-anchor="start" x="783" y="-109" font-family="Helvetica,sans-Serif" font-size="10.00">/Detectors/MUON/MID/Clustering</text>
<text text-anchor="middle" x="870" y="-98" font-family="Helvetica,sans-Serif" font-size="10.00">/include/MIDClustering/PreClusterizer.h</text>
</a>
</g>
</g>
<!-- Node1&#45;&gt;Node8 -->
<g id="edge7" class="edge"><title>Node1&#45;&gt;Node8</title>
<path fill="none" stroke="midnightblue" d="M582.953,-264.756C594.554,-255.446 606.729,-244.824 617,-234 637.378,-212.525 631.797,-197.048 656,-180 666.396,-172.677 722.578,-156.518 774.764,-142.533"/>
<polygon fill="midnightblue" stroke="midnightblue" points="580.739,-262.044 575.043,-270.978 585.067,-267.546 580.739,-262.044"/>
</g>
<!-- Node10 -->
<g id="node10" class="node"><title>Node10</title>
<g id="a_node10"><a xlink:href="../../d8/d04/PreClusters_8h.html" target="_top" xlink:title="Pre&#45;clusters structure for MID. ">
<polygon fill="none" stroke="black" points="391.5,-181 391.5,-233 570.5,-233 570.5,-181 391.5,-181"/>
<text text-anchor="start" x="399.5" y="-221" font-family="Helvetica,sans-Serif" font-size="10.00">/home/travis/build</text>
<text text-anchor="start" x="399.5" y="-210" font-family="Helvetica,sans-Serif" font-size="10.00">/AliceO2Group/AliceO2</text>
<text text-anchor="start" x="399.5" y="-199" font-family="Helvetica,sans-Serif" font-size="10.00">/Detectors/MUON/MID/Clustering</text>
<text text-anchor="middle" x="481" y="-188" font-family="Helvetica,sans-Serif" font-size="10.00">/include/MIDClustering/PreClusters.h</text>
</a>
</g>
</g>
<!-- Node1&#45;&gt;Node10 -->
<g id="edge11" class="edge"><title>Node1&#45;&gt;Node10</title>
<path fill="none" stroke="midnightblue" d="M517.181,-261.965C510.738,-252.354 503.845,-242.074 497.823,-233.092"/>
<polygon fill="midnightblue" stroke="midnightblue" points="514.459,-264.19 522.935,-270.547 520.273,-260.292 514.459,-264.19"/>
</g>
<!-- Node12 -->
<g id="node12" class="node"><title>Node12</title>
<g id="a_node12"><a xlink:href="../../d0/db9/bench__Tracker_8cxx.html" target="_top" xlink:title="Benchmark tracker device for MID. ">
<polygon fill="none" stroke="black" points="665,-181 665,-233 823,-233 823,-181 665,-181"/>
<text text-anchor="start" x="673" y="-221" font-family="Helvetica,sans-Serif" font-size="10.00">/home/travis/build</text>
<text text-anchor="start" x="673" y="-210" font-family="Helvetica,sans-Serif" font-size="10.00">/AliceO2Group/AliceO2</text>
<text text-anchor="start" x="673" y="-199" font-family="Helvetica,sans-Serif" font-size="10.00">/Detectors/MUON/MID/Tracking</text>
<text text-anchor="middle" x="744" y="-188" font-family="Helvetica,sans-Serif" font-size="10.00">/test/bench_Tracker.cxx</text>
</a>
</g>
</g>
<!-- Node1&#45;&gt;Node12 -->
<g id="edge17" class="edge"><title>Node1&#45;&gt;Node12</title>
<path fill="none" stroke="midnightblue" d="M607.696,-266.798C632.958,-255.9 661.397,-243.632 685.738,-233.133"/>
<polygon fill="midnightblue" stroke="midnightblue" points="605.981,-263.726 598.185,-270.901 608.754,-270.153 605.981,-263.726"/>
</g>
<!-- Node13 -->
<g id="node13" class="node"><title>Node13</title>
<g id="a_node13"><a xlink:href="../../da/de0/testTracker_8cxx.html" target="_top" xlink:title="Test tracking device for MID. ">
<polygon fill="none" stroke="black" points="841,-181 841,-233 999,-233 999,-181 841,-181"/>
<text text-anchor="start" x="849" y="-221" font-family="Helvetica,sans-Serif" font-size="10.00">/home/travis/build</text>
<text text-anchor="start" x="849" y="-210" font-family="Helvetica,sans-Serif" font-size="10.00">/AliceO2Group/AliceO2</text>
<text text-anchor="start" x="849" y="-199" font-family="Helvetica,sans-Serif" font-size="10.00">/Detectors/MUON/MID/Tracking</text>
<text text-anchor="middle" x="920" y="-188" font-family="Helvetica,sans-Serif" font-size="10.00">/test/testTracker.cxx</text>
</a>
</g>
</g>
<!-- Node1&#45;&gt;Node13 -->
<g id="edge18" class="edge"><title>Node1&#45;&gt;Node13</title>
<path fill="none" stroke="midnightblue" d="M621.728,-280.276C680.259,-268.605 760.808,-251.704 831,-234 834.278,-233.173 837.617,-232.307 840.985,-231.414"/>
<polygon fill="midnightblue" stroke="midnightblue" points="620.924,-276.868 611.797,-282.249 622.288,-283.734 620.924,-276.868"/>
</g>
<!-- Node5 -->
<g id="node5" class="node"><title>Node5</title>
<g id="a_node5"><a xlink:href="../../d9/dd5/Clusterizer_8cxx.html" target="_top" xlink:title="Implementation of the cluster reconstruction algorithm for MID. ">
<polygon fill="none" stroke="black" points="557.5,-1 557.5,-53 722.5,-53 722.5,-1 557.5,-1"/>
<text text-anchor="start" x="565.5" y="-41" font-family="Helvetica,sans-Serif" font-size="10.00">/home/travis/build</text>
<text text-anchor="start" x="565.5" y="-30" font-family="Helvetica,sans-Serif" font-size="10.00">/AliceO2Group/AliceO2</text>
<text text-anchor="start" x="565.5" y="-19" font-family="Helvetica,sans-Serif" font-size="10.00">/Detectors/MUON/MID/Clustering</text>
<text text-anchor="middle" x="640" y="-8" font-family="Helvetica,sans-Serif" font-size="10.00">/src/Clusterizer.cxx</text>
</a>
</g>
</g>
<!-- Node4&#45;&gt;Node5 -->
<g id="edge4" class="edge"><title>Node4&#45;&gt;Node5</title>
<path fill="none" stroke="midnightblue" d="M657.395,-80.7852C654.341,-71.5174 651.108,-61.7076 648.269,-53.0921"/>
<polygon fill="midnightblue" stroke="midnightblue" points="654.158,-82.1447 660.612,-90.5468 660.806,-79.9537 654.158,-82.1447"/>
</g>
<!-- Node4&#45;&gt;Node6 -->
<g id="edge5" class="edge"><title>Node4&#45;&gt;Node6</title>
<path fill="none" stroke="midnightblue" d="M590.599,-87.3724C560.367,-76.3332 526.091,-63.8175 496.83,-53.1328"/>
<polygon fill="midnightblue" stroke="midnightblue" points="589.668,-90.7582 600.262,-90.9005 592.069,-84.1828 589.668,-90.7582"/>
</g>
<!-- Node7 -->
<g id="node7" class="node"><title>Node7</title>
<g id="a_node7"><a xlink:href="../../d6/dee/testClusterizer_8cxx.html" target="_top" xlink:title="Test clustering device for MID. ">
<polygon fill="none" stroke="black" points="740.5,-1 740.5,-53 905.5,-53 905.5,-1 740.5,-1"/>
<text text-anchor="start" x="748.5" y="-41" font-family="Helvetica,sans-Serif" font-size="10.00">/home/travis/build</text>
<text text-anchor="start" x="748.5" y="-30" font-family="Helvetica,sans-Serif" font-size="10.00">/AliceO2Group/AliceO2</text>
<text text-anchor="start" x="748.5" y="-19" font-family="Helvetica,sans-Serif" font-size="10.00">/Detectors/MUON/MID/Clustering</text>
<text text-anchor="middle" x="823" y="-8" font-family="Helvetica,sans-Serif" font-size="10.00">/test/testClusterizer.cxx</text>
</a>
</g>
</g>
<!-- Node4&#45;&gt;Node7 -->
<g id="edge6" class="edge"><title>Node4&#45;&gt;Node7</title>
<path fill="none" stroke="midnightblue" d="M721.823,-85.8154C740.496,-75.1451 761.28,-63.2684 779.13,-53.0687"/>
<polygon fill="midnightblue" stroke="midnightblue" points="720.076,-82.7824 713.13,-90.7827 723.549,-88.8601 720.076,-82.7824"/>
</g>
<!-- Node8&#45;&gt;Node6 -->
<g id="edge9" class="edge"><title>Node8&#45;&gt;Node6</title>
<path fill="none" stroke="midnightblue" d="M765.302,-90.0625C765.201,-90.0416 765.101,-90.0208 765,-90 669.693,-70.2888 644.602,-72.2279 549,-54 536.547,-51.6257 523.408,-48.9648 510.559,-46.2755"/>
<polygon fill="midnightblue" stroke="midnightblue" points="764.275,-93.4223 774.785,-92.081 765.733,-86.5757 764.275,-93.4223"/>
</g>
<!-- Node8&#45;&gt;Node7 -->
<g id="edge10" class="edge"><title>Node8&#45;&gt;Node7</title>
<path fill="none" stroke="midnightblue" d="M851.665,-81.6708C846.577,-72.1448 841.15,-61.9826 836.401,-53.0921"/>
<polygon fill="midnightblue" stroke="midnightblue" points="848.607,-83.3749 856.406,-90.5468 854.782,-80.0771 848.607,-83.3749"/>
</g>
<!-- Node9 -->
<g id="node9" class="node"><title>Node9</title>
<g id="a_node9"><a xlink:href="../../db/d2e/PreClusterizer_8cxx.html" target="_top" xlink:title="Implementation of the pre&#45;cluster reconstruction algorithm for MID. ">
<polygon fill="none" stroke="black" points="923.5,-1 923.5,-53 1088.5,-53 1088.5,-1 923.5,-1"/>
<text text-anchor="start" x="931.5" y="-41" font-family="Helvetica,sans-Serif" font-size="10.00">/home/travis/build</text>
<text text-anchor="start" x="931.5" y="-30" font-family="Helvetica,sans-Serif" font-size="10.00">/AliceO2Group/AliceO2</text>
<text text-anchor="start" x="931.5" y="-19" font-family="Helvetica,sans-Serif" font-size="10.00">/Detectors/MUON/MID/Clustering</text>
<text text-anchor="middle" x="1006" y="-8" font-family="Helvetica,sans-Serif" font-size="10.00">/src/PreClusterizer.cxx</text>
</a>
</g>
</g>
<!-- Node8&#45;&gt;Node9 -->
<g id="edge8" class="edge"><title>Node8&#45;&gt;Node9</title>
<path fill="none" stroke="midnightblue" d="M917.732,-85.1143C933.858,-74.6802 951.657,-63.1632 967.022,-53.221"/>
<polygon fill="midnightblue" stroke="midnightblue" points="915.466,-82.4117 908.972,-90.7827 919.269,-88.2887 915.466,-82.4117"/>
</g>
<!-- Node10&#45;&gt;Node4 -->
<g id="edge12" class="edge"><title>Node10&#45;&gt;Node4</title>
<path fill="none" stroke="midnightblue" d="M543.695,-176.654C566.898,-165.792 592.975,-153.586 615.307,-143.133"/>
<polygon fill="midnightblue" stroke="midnightblue" points="542.195,-173.491 534.622,-180.901 545.162,-179.831 542.195,-173.491"/>
</g>
<!-- Node10&#45;&gt;Node6 -->
<g id="edge15" class="edge"><title>Node10&#45;&gt;Node6</title>
<path fill="none" stroke="midnightblue" d="M417.029,-175.077C405.759,-166.624 395.551,-156.315 389,-144 373.334,-114.551 391.552,-77.5935 407.985,-53.4137"/>
<polygon fill="midnightblue" stroke="midnightblue" points="415.182,-178.056 425.387,-180.905 419.187,-172.314 415.182,-178.056"/>
</g>
<!-- Node10&#45;&gt;Node8 -->
<g id="edge13" class="edge"><title>Node10&#45;&gt;Node8</title>
<path fill="none" stroke="midnightblue" d="M580.692,-184.945C635.222,-173.25 703.922,-158.226 765,-144 768.201,-143.254 771.455,-142.489 774.739,-141.711"/>
<polygon fill="midnightblue" stroke="midnightblue" points="579.725,-181.573 570.68,-187.089 581.191,-188.417 579.725,-181.573"/>
</g>
<!-- Node11 -->
<g id="node11" class="node"><title>Node11</title>
<g id="a_node11"><a xlink:href="../../d6/d6b/PreClusters_8cxx.html" target="_top" xlink:title="Implementation of the pre&#45;clusters for MID. ">
<polygon fill="none" stroke="black" points="398.5,-91 398.5,-143 563.5,-143 563.5,-91 398.5,-91"/>
<text text-anchor="start" x="406.5" y="-131" font-family="Helvetica,sans-Serif" font-size="10.00">/home/travis/build</text>
<text text-anchor="start" x="406.5" y="-120" font-family="Helvetica,sans-Serif" font-size="10.00">/AliceO2Group/AliceO2</text>
<text text-anchor="start" x="406.5" y="-109" font-family="Helvetica,sans-Serif" font-size="10.00">/Detectors/MUON/MID/Clustering</text>
<text text-anchor="middle" x="481" y="-98" font-family="Helvetica,sans-Serif" font-size="10.00">/src/PreClusters.cxx</text>
</a>
</g>
</g>
<!-- Node10&#45;&gt;Node11 -->
<g id="edge14" class="edge"><title>Node10&#45;&gt;Node11</title>
<path fill="none" stroke="midnightblue" d="M481,-170.489C481,-161.309 481,-151.616 481,-143.092"/>
<polygon fill="midnightblue" stroke="midnightblue" points="477.5,-170.547 481,-180.547 484.5,-170.547 477.5,-170.547"/>
</g>
</g>
</svg>
