<?xml version="1.0" encoding="UTF-8" standalone="no"?>
<!DOCTYPE svg PUBLIC "-//W3C//DTD SVG 1.1//EN"
 "http://www.w3.org/Graphics/SVG/1.1/DTD/svg11.dtd">
<!-- Generated by graphviz version 2.36.0 (20140111.2315)
 -->
<!-- Title: o2::mid::MyFixture Pages: 1 -->
<!--zoomable 348 -->
<svg id="main" version="1.1" xmlns="http://www.w3.org/2000/svg" xmlns:xlink="http://www.w3.org/1999/xlink" xml:space="preserve" onload="init(evt)">
<style type="text/css"><![CDATA[
.edge:hover path { stroke: red; }
.edge:hover polygon { stroke: red; fill: red; }
]]></style>
<script type="text/javascript"><![CDATA[
var edges = document.getElementsByTagName('g');
if (edges && edges.length) {
  for (var i=0;i<edges.length;i++) {
    if (edges[i].id.substr(0,4)=='edge') {
      edges[i].setAttribute('class','edge');
    }
  }
}
]]></script>
        <defs>
                <circle id="rim" cx="0" cy="0" r="7"/>
                <circle id="rim2" cx="0" cy="0" r="3.5"/>
                <g id="zoomPlus">
                        <use xlink:href="#rim" fill="#404040">
                                <set attributeName="fill" to="#808080" begin="zoomplus.mouseover" end="zoomplus.mouseout"/>
                        </use>
                        <path d="M-4,0h8M0,-4v8" fill="none" stroke="white" stroke-width="1.5" pointer-events="none"/>
                </g>
                <g id="zoomMin">
                        <use xlink:href="#rim" fill="#404040">
                                <set attributeName="fill" to="#808080" begin="zoomminus.mouseover" end="zoomminus.mouseout"/>
                        </use>
                        <path d="M-4,0h8" fill="none" stroke="white" stroke-width="1.5" pointer-events="none"/>
                </g>
                <g id="dirArrow">
                        <path fill="none" stroke="white" stroke-width="1.5" d="M0,-3.0v7 M-2.5,-0.5L0,-3.0L2.5,-0.5"/>
                </g>
               <g id="resetDef">
                       <use xlink:href="#rim2" fill="#404040">
                               <set attributeName="fill" to="#808080" begin="reset.mouseover" end="reset.mouseout"/>
                       </use>
               </g>
        </defs>

<script type="text/javascript">
var viewWidth = 987;
var viewHeight = 348;
var sectionId = 'dynsection-0';
</script>
<script xlink:href="../../svgpan.js"/>
<svg id="graph" class="graph">
<g id="viewport">
<title>o2::mid::MyFixture</title>
<!-- Node1 -->
<g id="node1" class="node"><title>Node1</title>
<polygon fill="#bfbfbf" stroke="black" points="456,-0.5 456,-57.5 554,-57.5 554,-0.5 456,-0.5"/>
<text text-anchor="middle" x="505" y="-45.5" font-family="Helvetica,sans-Serif" font-size="10.00">o2::mid::MyFixture</text>
<polyline fill="none" stroke="black" points="456,-38.5 554,-38.5 "/>
<text text-anchor="middle" x="505" y="-26.5" font-family="Helvetica,sans-Serif" font-size="10.00"> </text>
<polyline fill="none" stroke="black" points="456,-19.5 554,-19.5 "/>
<text text-anchor="start" x="464" y="-7.5" font-family="Helvetica,sans-Serif" font-size="10.00">+ MyFixture()</text>
</g>
<!-- Node2 -->
<g id="node2" class="node"><title>Node2</title>
<g id="a_node2"><a xlink:href="../../d2/df3/classo2_1_1mid_1_1GeometryTransformer.html" target="_top" xlink:title="{o2::mid::GeometryTransformer\n||+ setMatrix()\l+ getMatrix()\l+ localToGlobal()\l+ globalToLocal()\l+ localToGlobal()\l+ globalToLocal()\l+ localToGlobal()\l+ globalToLocal()\l}">
<polygon fill="none" stroke="black" points="0,-156 0,-290 150,-290 150,-156 0,-156"/>
<text text-anchor="middle" x="75" y="-278" font-family="Helvetica,sans-Serif" font-size="10.00">o2::mid::GeometryTransformer</text>
<polyline fill="none" stroke="black" points="0,-271 150,-271 "/>
<text text-anchor="middle" x="75" y="-259" font-family="Helvetica,sans-Serif" font-size="10.00"> </text>
<polyline fill="none" stroke="black" points="0,-252 150,-252 "/>
<text text-anchor="start" x="8" y="-240" font-family="Helvetica,sans-Serif" font-size="10.00">+ setMatrix()</text>
<text text-anchor="start" x="8" y="-229" font-family="Helvetica,sans-Serif" font-size="10.00">+ getMatrix()</text>
<text text-anchor="start" x="8" y="-218" font-family="Helvetica,sans-Serif" font-size="10.00">+ localToGlobal()</text>
<text text-anchor="start" x="8" y="-207" font-family="Helvetica,sans-Serif" font-size="10.00">+ globalToLocal()</text>
<text text-anchor="start" x="8" y="-196" font-family="Helvetica,sans-Serif" font-size="10.00">+ localToGlobal()</text>
<text text-anchor="start" x="8" y="-185" font-family="Helvetica,sans-Serif" font-size="10.00">+ globalToLocal()</text>
<text text-anchor="start" x="8" y="-174" font-family="Helvetica,sans-Serif" font-size="10.00">+ localToGlobal()</text>
<text text-anchor="start" x="8" y="-163" font-family="Helvetica,sans-Serif" font-size="10.00">+ globalToLocal()</text>
</a>
</g>
</g>
<!-- Node2&#45;&gt;Node1 -->
<g id="edge1" class="edge"><title>Node2&#45;&gt;Node1</title>
<path fill="none" stroke="#404040" d="M110.751,-155.7C123.696,-137.136 139.913,-118.608 159,-106 246.197,-48.401 370.075,-33.7818 443.524,-30.4628"/>
<polygon fill="none" stroke="#404040" points="443.757,-30.4539 449.6,-26.2269 455.748,-29.9941 449.906,-34.2211 443.757,-30.4539"/>
<text text-anchor="middle" x="235" y="-79.5" font-family="Helvetica,sans-Serif" font-size="10.00"> +geoTrans</text>
</g>
<!-- Node3 -->
<g id="node3" class="node"><title>Node3</title>
<g id="a_node3"><a xlink:href="../../d6/d48/classo2_1_1mid_1_1TrackGenerator.html" target="_top" xlink:title="Class to generate tracks for MID. ">
<polygon fill="none" stroke="black" points="168,-139.5 168,-306.5 308,-306.5 308,-139.5 168,-139.5"/>
<text text-anchor="middle" x="238" y="-294.5" font-family="Helvetica,sans-Serif" font-size="10.00">o2::mid::TrackGenerator</text>
<polyline fill="none" stroke="black" points="168,-287.5 308,-287.5 "/>
<text text-anchor="middle" x="238" y="-275.5" font-family="Helvetica,sans-Serif" font-size="10.00"> </text>
<polyline fill="none" stroke="black" points="168,-268.5 308,-268.5 "/>
<text text-anchor="start" x="176" y="-256.5" font-family="Helvetica,sans-Serif" font-size="10.00">+ TrackGenerator()</text>
<text text-anchor="start" x="176" y="-245.5" font-family="Helvetica,sans-Serif" font-size="10.00">+ ~TrackGenerator()</text>
<text text-anchor="start" x="176" y="-234.5" font-family="Helvetica,sans-Serif" font-size="10.00">+ TrackGenerator()</text>
<text text-anchor="start" x="176" y="-223.5" font-family="Helvetica,sans-Serif" font-size="10.00">+ operator=()</text>
<text text-anchor="start" x="176" y="-212.5" font-family="Helvetica,sans-Serif" font-size="10.00">+ TrackGenerator()</text>
<text text-anchor="start" x="176" y="-201.5" font-family="Helvetica,sans-Serif" font-size="10.00">+ operator=()</text>
<text text-anchor="start" x="176" y="-190.5" font-family="Helvetica,sans-Serif" font-size="10.00">+ generate()</text>
<text text-anchor="start" x="176" y="-179.5" font-family="Helvetica,sans-Serif" font-size="10.00">+ generate()</text>
<text text-anchor="start" x="176" y="-168.5" font-family="Helvetica,sans-Serif" font-size="10.00">+ setMeanTracksPerEvent()</text>
<text text-anchor="start" x="176" y="-157.5" font-family="Helvetica,sans-Serif" font-size="10.00">+ setSlopeLimits()</text>
<text text-anchor="start" x="176" y="-146.5" font-family="Helvetica,sans-Serif" font-size="10.00">+ setPositionLimits()</text>
</a>
</g>
</g>
<!-- Node3&#45;&gt;Node1 -->
<g id="edge2" class="edge"><title>Node3&#45;&gt;Node1</title>
<path fill="none" stroke="#404040" d="M285.082,-139.452C294.542,-127.175 305.24,-115.482 317,-106 354.212,-75.9979 404.835,-56.4419 444.176,-44.6908"/>
<polygon fill="none" stroke="#404040" points="444.203,-44.6834 448.862,-39.1798 455.734,-41.3641 451.075,-46.8676 444.203,-44.6834"/>
<text text-anchor="middle" x="388.5" y="-79.5" font-family="Helvetica,sans-Serif" font-size="10.00"> +trackGen</text>
</g>
<!-- Node4 -->
<g id="node4" class="node"><title>Node4</title>
<g id="a_node4"><a xlink:href="../../db/d25/classo2_1_1mid_1_1HitFinder.html" target="_top" xlink:title="Class to find the impact point of a track on the chamber. ">
<polygon fill="none" stroke="black" points="326.5,-183.5 326.5,-262.5 435.5,-262.5 435.5,-183.5 326.5,-183.5"/>
<text text-anchor="middle" x="381" y="-250.5" font-family="Helvetica,sans-Serif" font-size="10.00">o2::mid::HitFinder</text>
<polyline fill="none" stroke="black" points="326.5,-243.5 435.5,-243.5 "/>
<text text-anchor="middle" x="381" y="-231.5" font-family="Helvetica,sans-Serif" font-size="10.00"> </text>
<polyline fill="none" stroke="black" points="326.5,-224.5 435.5,-224.5 "/>
<text text-anchor="start" x="334.5" y="-212.5" font-family="Helvetica,sans-Serif" font-size="10.00">+ HitFinder()</text>
<text text-anchor="start" x="334.5" y="-201.5" font-family="Helvetica,sans-Serif" font-size="10.00">+ getFiredDE()</text>
<text text-anchor="start" x="334.5" y="-190.5" font-family="Helvetica,sans-Serif" font-size="10.00">+ getLocalPositions()</text>
</a>
</g>
</g>
<!-- Node4&#45;&gt;Node1 -->
<g id="edge3" class="edge"><title>Node4&#45;&gt;Node1</title>
<path fill="none" stroke="#404040" d="M395.587,-183.481C408.315,-152.669 428.694,-109.269 454,-76 456.531,-72.6725 459.325,-69.3935 462.264,-66.2123"/>
<polygon fill="none" stroke="#404040" points="462.392,-66.0828 463.763,-59.0033 470.825,-57.5463 469.454,-64.6259 462.392,-66.0828"/>
<text text-anchor="middle" x="477.5" y="-79.5" font-family="Helvetica,sans-Serif" font-size="10.00"> +hitFinder</text>
</g>
<!-- Node5 -->
<g id="node5" class="node"><title>Node5</title>
<g id="a_node5"><a xlink:href="../../d5/dae/classo2_1_1mid_1_1Clusterizer.html" target="_top" xlink:title="Clusterizing algorithm for MID. ">
<polygon fill="none" stroke="black" points="454,-145 454,-301 556,-301 556,-145 454,-145"/>
<text text-anchor="middle" x="505" y="-289" font-family="Helvetica,sans-Serif" font-size="10.00">o2::mid::Clusterizer</text>
<polyline fill="none" stroke="black" points="454,-282 556,-282 "/>
<text text-anchor="middle" x="505" y="-270" font-family="Helvetica,sans-Serif" font-size="10.00"> </text>
<polyline fill="none" stroke="black" points="454,-263 556,-263 "/>
<text text-anchor="start" x="462" y="-251" font-family="Helvetica,sans-Serif" font-size="10.00">+ Clusterizer()</text>
<text text-anchor="start" x="462" y="-240" font-family="Helvetica,sans-Serif" font-size="10.00">+ ~Clusterizer()</text>
<text text-anchor="start" x="462" y="-229" font-family="Helvetica,sans-Serif" font-size="10.00">+ Clusterizer()</text>
<text text-anchor="start" x="462" y="-218" font-family="Helvetica,sans-Serif" font-size="10.00">+ operator=()</text>
<text text-anchor="start" x="462" y="-207" font-family="Helvetica,sans-Serif" font-size="10.00">+ Clusterizer()</text>
<text text-anchor="start" x="462" y="-196" font-family="Helvetica,sans-Serif" font-size="10.00">+ operator=()</text>
<text text-anchor="start" x="462" y="-185" font-family="Helvetica,sans-Serif" font-size="10.00">+ init()</text>
<text text-anchor="start" x="462" y="-174" font-family="Helvetica,sans-Serif" font-size="10.00">+ process()</text>
<text text-anchor="start" x="462" y="-163" font-family="Helvetica,sans-Serif" font-size="10.00">+ getClusters()</text>
<text text-anchor="start" x="462" y="-152" font-family="Helvetica,sans-Serif" font-size="10.00">+ getNClusters()</text>
</a>
</g>
</g>
<!-- Node5&#45;&gt;Node1 -->
<g id="edge4" class="edge"><title>Node5&#45;&gt;Node1</title>
<path fill="none" stroke="#404040" d="M505,-144.736C505,-118.953 505,-91.2928 505,-69.5923"/>
<polygon fill="none" stroke="#404040" points="505,-69.5632 501,-63.5632 505,-57.5632 509,-63.5631 505,-69.5632"/>
<text text-anchor="middle" x="532.5" y="-79.5" font-family="Helvetica,sans-Serif" font-size="10.00"> +clusterizer</text>
</g>
<!-- Node6 -->
<g id="node6" class="node"><title>Node6</title>
<g id="a_node6"><a xlink:href="../../d1/d66/classo2_1_1mid_1_1Mapping.html" target="_top" xlink:title="{o2::mid::Mapping\n||+ Mapping()\l+ ~Mapping()\l+ Mapping()\l+ operator=()\l+ Mapping()\l+ operator=()\l+ stripByLocation()\l+ stripByLocationInBoard()\l+ stripByPosition()\l+ getStripSize()\l+ getNStripsNBP()\l+ getFirstColumn()\l+ getFirstBoardBP()\l+ getLastBoardBP()\l+ getBoardId()\l+ getNeighbours()\l+ isValid()\l}">
<polygon fill="none" stroke="black" points="574.5,-106.5 574.5,-339.5 707.5,-339.5 707.5,-106.5 574.5,-106.5"/>
<text text-anchor="middle" x="641" y="-327.5" font-family="Helvetica,sans-Serif" font-size="10.00">o2::mid::Mapping</text>
<polyline fill="none" stroke="black" points="574.5,-320.5 707.5,-320.5 "/>
<text text-anchor="middle" x="641" y="-308.5" font-family="Helvetica,sans-Serif" font-size="10.00"> </text>
<polyline fill="none" stroke="black" points="574.5,-301.5 707.5,-301.5 "/>
<text text-anchor="start" x="582.5" y="-289.5" font-family="Helvetica,sans-Serif" font-size="10.00">+ Mapping()</text>
<text text-anchor="start" x="582.5" y="-278.5" font-family="Helvetica,sans-Serif" font-size="10.00">+ ~Mapping()</text>
<text text-anchor="start" x="582.5" y="-267.5" font-family="Helvetica,sans-Serif" font-size="10.00">+ Mapping()</text>
<text text-anchor="start" x="582.5" y="-256.5" font-family="Helvetica,sans-Serif" font-size="10.00">+ operator=()</text>
<text text-anchor="start" x="582.5" y="-245.5" font-family="Helvetica,sans-Serif" font-size="10.00">+ Mapping()</text>
<text text-anchor="start" x="582.5" y="-234.5" font-family="Helvetica,sans-Serif" font-size="10.00">+ operator=()</text>
<text text-anchor="start" x="582.5" y="-223.5" font-family="Helvetica,sans-Serif" font-size="10.00">+ stripByLocation()</text>
<text text-anchor="start" x="582.5" y="-212.5" font-family="Helvetica,sans-Serif" font-size="10.00">+ stripByLocationInBoard()</text>
<text text-anchor="start" x="582.5" y="-201.5" font-family="Helvetica,sans-Serif" font-size="10.00">+ stripByPosition()</text>
<text text-anchor="start" x="582.5" y="-190.5" font-family="Helvetica,sans-Serif" font-size="10.00">+ getStripSize()</text>
<text text-anchor="start" x="582.5" y="-179.5" font-family="Helvetica,sans-Serif" font-size="10.00">+ getNStripsNBP()</text>
<text text-anchor="start" x="582.5" y="-168.5" font-family="Helvetica,sans-Serif" font-size="10.00">+ getFirstColumn()</text>
<text text-anchor="start" x="582.5" y="-157.5" font-family="Helvetica,sans-Serif" font-size="10.00">+ getFirstBoardBP()</text>
<text text-anchor="start" x="582.5" y="-146.5" font-family="Helvetica,sans-Serif" font-size="10.00">+ getLastBoardBP()</text>
<text text-anchor="start" x="582.5" y="-135.5" font-family="Helvetica,sans-Serif" font-size="10.00">+ getBoardId()</text>
<text text-anchor="start" x="582.5" y="-124.5" font-family="Helvetica,sans-Serif" font-size="10.00">+ getNeighbours()</text>
<text text-anchor="start" x="582.5" y="-113.5" font-family="Helvetica,sans-Serif" font-size="10.00">+ isValid()</text>
</a>
</g>
</g>
<!-- Node6&#45;&gt;Node1 -->
<g id="edge5" class="edge"><title>Node6&#45;&gt;Node1</title>
<path fill="none" stroke="#404040" d="M585.974,-106.222C579.162,-95.6008 571.817,-85.3388 564,-76 560.991,-72.4052 557.657,-68.9097 554.151,-65.5569"/>
<polygon fill="none" stroke="#404040" points="554.12,-65.5292 546.98,-64.5205 545.164,-57.5415 552.305,-58.5502 554.12,-65.5292"/>
<text text-anchor="middle" x="596" y="-79.5" font-family="Helvetica,sans-Serif" font-size="10.00"> +mapping</text>
</g>
<!-- Node7 -->
<g id="node7" class="node"><title>Node7</title>
<g id="a_node7"><a xlink:href="../../d6/dde/classo2_1_1mid_1_1PreClusterizer.html" target="_top" xlink:title="Pre&#45;clustering algorithm for MID. ">
<polygon fill="none" stroke="black" points="725.5,-145 725.5,-301 842.5,-301 842.5,-145 725.5,-145"/>
<text text-anchor="middle" x="784" y="-289" font-family="Helvetica,sans-Serif" font-size="10.00">o2::mid::PreClusterizer</text>
<polyline fill="none" stroke="black" points="725.5,-282 842.5,-282 "/>
<text text-anchor="middle" x="784" y="-270" font-family="Helvetica,sans-Serif" font-size="10.00"> </text>
<polyline fill="none" stroke="black" points="725.5,-263 842.5,-263 "/>
<text text-anchor="start" x="733.5" y="-251" font-family="Helvetica,sans-Serif" font-size="10.00">+ PreClusterizer()</text>
<text text-anchor="start" x="733.5" y="-240" font-family="Helvetica,sans-Serif" font-size="10.00">+ ~PreClusterizer()</text>
<text text-anchor="start" x="733.5" y="-229" font-family="Helvetica,sans-Serif" font-size="10.00">+ PreClusterizer()</text>
<text text-anchor="start" x="733.5" y="-218" font-family="Helvetica,sans-Serif" font-size="10.00">+ operator=()</text>
<text text-anchor="start" x="733.5" y="-207" font-family="Helvetica,sans-Serif" font-size="10.00">+ PreClusterizer()</text>
<text text-anchor="start" x="733.5" y="-196" font-family="Helvetica,sans-Serif" font-size="10.00">+ operator=()</text>
<text text-anchor="start" x="733.5" y="-185" font-family="Helvetica,sans-Serif" font-size="10.00">+ init()</text>
<text text-anchor="start" x="733.5" y="-174" font-family="Helvetica,sans-Serif" font-size="10.00">+ process()</text>
<text text-anchor="start" x="733.5" y="-163" font-family="Helvetica,sans-Serif" font-size="10.00">+ getPreClusters()</text>
<text text-anchor="start" x="733.5" y="-152" font-family="Helvetica,sans-Serif" font-size="10.00">+ getNPreClusters()</text>
</a>
</g>
</g>
<!-- Node7&#45;&gt;Node1 -->
<g id="edge6" class="edge"><title>Node7&#45;&gt;Node1</title>
<path fill="none" stroke="#404040" d="M748.957,-144.71C739.811,-130.421 728.839,-116.665 716,-106 672.835,-70.1447 611.397,-50.5732 565.942,-40.3148"/>
<polygon fill="none" stroke="#404040" points="565.895,-40.3048 559.188,-42.9544 554.163,-37.7827 560.87,-35.1331 565.895,-40.3048"/>
<text text-anchor="middle" x="722" y="-79.5" font-family="Helvetica,sans-Serif" font-size="10.00"> +preClusterizer</text>
</g>
<!-- Node8 -->
<g id="node8" class="node"><title>Node8</title>
<g id="a_node8"><a xlink:href="../../da/d04/classo2_1_1mid_1_1Tracker.html" target="_top" xlink:title="Tracking algorithm for MID. ">
<polygon fill="none" stroke="black" points="860.5,-150.5 860.5,-295.5 979.5,-295.5 979.5,-150.5 860.5,-150.5"/>
<text text-anchor="middle" x="920" y="-283.5" font-family="Helvetica,sans-Serif" font-size="10.00">o2::mid::Tracker</text>
<polyline fill="none" stroke="black" points="860.5,-276.5 979.5,-276.5 "/>
<text text-anchor="middle" x="920" y="-264.5" font-family="Helvetica,sans-Serif" font-size="10.00"> </text>
<polyline fill="none" stroke="black" points="860.5,-257.5 979.5,-257.5 "/>
<text text-anchor="start" x="868.5" y="-245.5" font-family="Helvetica,sans-Serif" font-size="10.00">+ Tracker()</text>
<text text-anchor="start" x="868.5" y="-234.5" font-family="Helvetica,sans-Serif" font-size="10.00">+ setImpactParamCut()</text>
<text text-anchor="start" x="868.5" y="-223.5" font-family="Helvetica,sans-Serif" font-size="10.00">+ getImpactParamCut()</text>
<text text-anchor="start" x="868.5" y="-212.5" font-family="Helvetica,sans-Serif" font-size="10.00">+ setSigmaCut()</text>
<text text-anchor="start" x="868.5" y="-201.5" font-family="Helvetica,sans-Serif" font-size="10.00">+ getSigmaCut()</text>
<text text-anchor="start" x="868.5" y="-190.5" font-family="Helvetica,sans-Serif" font-size="10.00">+ process()</text>
<text text-anchor="start" x="868.5" y="-179.5" font-family="Helvetica,sans-Serif" font-size="10.00">+ init()</text>
<text text-anchor="start" x="868.5" y="-168.5" font-family="Helvetica,sans-Serif" font-size="10.00">+ getTracks()</text>
<text text-anchor="start" x="868.5" y="-157.5" font-family="Helvetica,sans-Serif" font-size="10.00">+ getNTracks()</text>
</a>
</g>
</g>
<!-- Node8&#45;&gt;Node1 -->
<g id="edge7" class="edge"><title>Node8&#45;&gt;Node1</title>
<path fill="none" stroke="#404040" d="M888.26,-150.481C878.271,-134.086 865.874,-117.978 851,-106 807.755,-71.1742 653.383,-47.6666 566.16,-36.8365"/>
<polygon fill="none" stroke="#404040" points="565.97,-36.8134 559.53,-40.0582 554.058,-35.3617 560.498,-32.1169 565.97,-36.8134"/>
<text text-anchor="middle" x="834" y="-79.5" font-family="Helvetica,sans-Serif" font-size="10.00"> +tracker</text>
</g>
</g>
</svg>
        <g id="navigator" transform="translate(0 0)" fill="#404254">
                <rect fill="#f2f5e9" fill-opacity="0.5" stroke="#606060" stroke-width=".5" x="0" y="0" width="60" height="60"/>
                <use id="zoomplus" xlink:href="#zoomPlus" x="17" y="9" onmousedown="handleZoom(evt,'in')"/>
                <use id="zoomminus" xlink:href="#zoomMin" x="42" y="9" onmousedown="handleZoom(evt,'out')"/>
                <use id="reset" xlink:href="#resetDef" x="30" y="36" onmousedown="handleReset()"/>
                <g id="arrowUp" xlink:href="#dirArrow" transform="translate(30 24)" onmousedown="handlePan(0,-1)">
                  <use xlink:href="#rim" fill="#404040">
                        <set attributeName="fill" to="#808080" begin="arrowUp.mouseover" end="arrowUp.mouseout"/>
                  </use>
                  <path fill="none" stroke="white" stroke-width="1.5" d="M0,-3.0v7 M-2.5,-0.5L0,-3.0L2.5,-0.5"/>
                </g>
                <g id="arrowRight" xlink:href="#dirArrow" transform="rotate(90) translate(36 -43)" onmousedown="handlePan(1,0)">
                  <use xlink:href="#rim" fill="#404040">
                        <set attributeName="fill" to="#808080" begin="arrowRight.mouseover" end="arrowRight.mouseout"/>
                  </use>
                  <path fill="none" stroke="white" stroke-width="1.5" d="M0,-3.0v7 M-2.5,-0.5L0,-3.0L2.5,-0.5"/>
                </g>
                <g id="arrowDown" xlink:href="#dirArrow" transform="rotate(180) translate(-30 -48)" onmousedown="handlePan(0,1)">
                  <use xlink:href="#rim" fill="#404040">
                        <set attributeName="fill" to="#808080" begin="arrowDown.mouseover" end="arrowDown.mouseout"/>
                  </use>
                  <path fill="none" stroke="white" stroke-width="1.5" d="M0,-3.0v7 M-2.5,-0.5L0,-3.0L2.5,-0.5"/>
                </g>
                <g id="arrowLeft" xlink:href="#dirArrow" transform="rotate(270) translate(-36 17)" onmousedown="handlePan(-1,0)">
                  <use xlink:href="#rim" fill="#404040">
                        <set attributeName="fill" to="#808080" begin="arrowLeft.mouseover" end="arrowLeft.mouseout"/>
                  </use>
                  <path fill="none" stroke="white" stroke-width="1.5" d="M0,-3.0v7 M-2.5,-0.5L0,-3.0L2.5,-0.5"/>
                </g>
        </g>
        <svg viewBox="0 0 15 15" width="100%" height="30px" preserveAspectRatio="xMaxYMin meet">
         <g id="arrow_out" transform="scale(0.3 0.3)">
          <a xlink:href="classo2_1_1mid_1_1MyFixture__coll__graph_org.svg" target="_base">
           <rect id="button" ry="5" rx="5" y="6" x="6" height="38" width="38"
                fill="#f2f5e9" fill-opacity="0.5" stroke="#606060" stroke-width="1.0"/>
           <path id="arrow"
             d="M 11.500037,31.436501 C 11.940474,20.09759 22.043105,11.32322 32.158766,21.979434 L 37.068811,17.246167 C 37.068811,17.246167 37.088388,32 37.088388,32 L 22.160133,31.978069 C 22.160133,31.978069 26.997745,27.140456 26.997745,27.140456 C 18.528582,18.264221 13.291696,25.230495 11.500037,31.436501 z"
             style="fill:#404040;"/>
          </a>
         </g>
        </svg>
</svg>
