<?xml version="1.0" encoding="UTF-8" standalone="no"?>
<!DOCTYPE svg PUBLIC "-//W3C//DTD SVG 1.1//EN"
 "http://www.w3.org/Graphics/SVG/1.1/DTD/svg11.dtd">
<!-- Generated by graphviz version 2.36.0 (20140111.2315)
 -->
<!-- Title: sg_buffer_desc Pages: 1 -->
<svg width="375pt" height="194pt"
 viewBox="0.00 0.00 375.00 194.00" xmlns="http://www.w3.org/2000/svg" xmlns:xlink="http://www.w3.org/1999/xlink">
<g id="graph0" class="graph" transform="scale(1 1) rotate(0) translate(4 190)">
<title>sg_buffer_desc</title>
<!-- Node1 -->
<g id="node1" class="node"><title>Node1</title>
<polygon fill="#bfbfbf" stroke="black" points="161.5,-0.5 161.5,-57.5 244.5,-57.5 244.5,-0.5 161.5,-0.5"/>
<text text-anchor="middle" x="203" y="-45.5" font-family="Helvetica,sans-Serif" font-size="10.00">sg_buffer_desc</text>
<polyline fill="none" stroke="black" points="161.5,-38.5 244.5,-38.5 "/>
<text text-anchor="middle" x="203" y="-26.5" font-family="Helvetica,sans-Serif" font-size="10.00"> </text>
<polyline fill="none" stroke="black" points="161.5,-19.5 244.5,-19.5 "/>
<text text-anchor="middle" x="203" y="-7.5" font-family="Helvetica,sans-Serif" font-size="10.00"> </text>
</g>
<!-- Node2 -->
<g id="node2" class="node"><title>Node2</title>
<polygon fill="none" stroke="#bfbfbf" points="-0.5,-128.5 -0.5,-185.5 50.5,-185.5 50.5,-128.5 -0.5,-128.5"/>
<text text-anchor="middle" x="25" y="-173.5" font-family="Helvetica,sans-Serif" font-size="10.00">uint32_t</text>
<polyline fill="none" stroke="#bfbfbf" points="-0.5,-166.5 50.5,-166.5 "/>
<text text-anchor="middle" x="25" y="-154.5" font-family="Helvetica,sans-Serif" font-size="10.00"> </text>
<polyline fill="none" stroke="#bfbfbf" points="-0.5,-147.5 50.5,-147.5 "/>
<text text-anchor="middle" x="25" y="-135.5" font-family="Helvetica,sans-Serif" font-size="10.00"> </text>
</g>
<!-- Node2&#45;&gt;Node1 -->
<g id="edge1" class="edge"><title>Node2&#45;&gt;Node1</title>
<path fill="none" stroke="#404040" d="M27.177,-128.153C29.938,-110.989 36.1379,-89.7128 50,-76 76.2278,-50.0547 116.503,-38.6523 149.149,-33.6848"/>
<polygon fill="none" stroke="#404040" points="149.346,-33.6587 154.768,-28.9037 161.242,-32.0791 155.821,-36.8341 149.346,-33.6587"/>
<text text-anchor="middle" x="83" y="-101.5" font-family="Helvetica,sans-Serif" font-size="10.00"> +gl_buffers</text>
<text text-anchor="middle" x="83" y="-90.5" font-family="Helvetica,sans-Serif" font-size="10.00">+_end_canary</text>
<text text-anchor="middle" x="83" y="-79.5" font-family="Helvetica,sans-Serif" font-size="10.00">+_start_canary</text>
</g>
<!-- Node3 -->
<g id="node3" class="node"><title>Node3</title>
<polygon fill="none" stroke="#bfbfbf" points="76,-128.5 76,-185.5 144,-185.5 144,-128.5 76,-128.5"/>
<text text-anchor="middle" x="110" y="-173.5" font-family="Helvetica,sans-Serif" font-size="10.00">const void *</text>
<polyline fill="none" stroke="#bfbfbf" points="76,-166.5 144,-166.5 "/>
<text text-anchor="middle" x="110" y="-154.5" font-family="Helvetica,sans-Serif" font-size="10.00"> </text>
<polyline fill="none" stroke="#bfbfbf" points="76,-147.5 144,-147.5 "/>
<text text-anchor="middle" x="110" y="-135.5" font-family="Helvetica,sans-Serif" font-size="10.00"> </text>
</g>
<!-- Node3&#45;&gt;Node1 -->
<g id="edge2" class="edge"><title>Node3&#45;&gt;Node1</title>
<path fill="none" stroke="#404040" d="M114.353,-128.368C118.009,-111.915 124.549,-91.3258 136,-76 140.489,-69.9918 146.003,-64.4953 151.922,-59.5572"/>
<polygon fill="none" stroke="#404040" points="151.933,-59.549 154.272,-52.7279 161.468,-52.2636 159.129,-59.0848 151.933,-59.549"/>
<text text-anchor="middle" x="167.5" y="-101.5" font-family="Helvetica,sans-Serif" font-size="10.00"> +mtl_buffers</text>
<text text-anchor="middle" x="167.5" y="-90.5" font-family="Helvetica,sans-Serif" font-size="10.00">+content</text>
<text text-anchor="middle" x="167.5" y="-79.5" font-family="Helvetica,sans-Serif" font-size="10.00">+d3d11_buffer</text>
</g>
<!-- Node4 -->
<g id="node4" class="node"><title>Node4</title>
<polygon fill="none" stroke="#bfbfbf" points="162.5,-128.5 162.5,-185.5 243.5,-185.5 243.5,-128.5 162.5,-128.5"/>
<text text-anchor="middle" x="203" y="-173.5" font-family="Helvetica,sans-Serif" font-size="10.00">sg_buffer_type</text>
<polyline fill="none" stroke="#bfbfbf" points="162.5,-166.5 243.5,-166.5 "/>
<text text-anchor="middle" x="203" y="-154.5" font-family="Helvetica,sans-Serif" font-size="10.00"> </text>
<polyline fill="none" stroke="#bfbfbf" points="162.5,-147.5 243.5,-147.5 "/>
<text text-anchor="middle" x="203" y="-135.5" font-family="Helvetica,sans-Serif" font-size="10.00"> </text>
</g>
<!-- Node4&#45;&gt;Node1 -->
<g id="edge3" class="edge"><title>Node4&#45;&gt;Node1</title>
<path fill="none" stroke="#404040" d="M203,-128.349C203,-111.198 203,-88.8785 203,-69.8384"/>
<polygon fill="none" stroke="#404040" points="203,-69.5867 199,-63.5868 203,-57.5867 207,-63.5867 203,-69.5867"/>
<text text-anchor="middle" x="217" y="-90.5" font-family="Helvetica,sans-Serif" font-size="10.00"> +type</text>
</g>
<!-- Node5 -->
<g id="node5" class="node"><title>Node5</title>
<polygon fill="none" stroke="#bfbfbf" points="261.5,-128.5 261.5,-185.5 290.5,-185.5 290.5,-128.5 261.5,-128.5"/>
<text text-anchor="middle" x="276" y="-173.5" font-family="Helvetica,sans-Serif" font-size="10.00">int</text>
<polyline fill="none" stroke="#bfbfbf" points="261.5,-166.5 290.5,-166.5 "/>
<text text-anchor="middle" x="276" y="-154.5" font-family="Helvetica,sans-Serif" font-size="10.00"> </text>
<polyline fill="none" stroke="#bfbfbf" points="261.5,-147.5 290.5,-147.5 "/>
<text text-anchor="middle" x="276" y="-135.5" font-family="Helvetica,sans-Serif" font-size="10.00"> </text>
</g>
<!-- Node5&#45;&gt;Node1 -->
<g id="edge4" class="edge"><title>Node5&#45;&gt;Node1</title>
<path fill="none" stroke="#404040" d="M263.032,-128.476C255.372,-112.815 245.202,-92.993 235,-76 233.423,-73.3727 231.749,-70.6955 230.026,-68.0204"/>
<polygon fill="none" stroke="#404040" points="229.89,-67.8145 223.236,-65.0349 223.242,-57.8237 229.896,-60.6034 229.89,-67.8145"/>
<text text-anchor="middle" x="267" y="-90.5" font-family="Helvetica,sans-Serif" font-size="10.00"> +size</text>
</g>
<!-- Node6 -->
<g id="node6" class="node"><title>Node6</title>
<polygon fill="none" stroke="#bfbfbf" points="308.5,-128.5 308.5,-185.5 367.5,-185.5 367.5,-128.5 308.5,-128.5"/>
<text text-anchor="middle" x="338" y="-173.5" font-family="Helvetica,sans-Serif" font-size="10.00">sg_usage</text>
<polyline fill="none" stroke="#bfbfbf" points="308.5,-166.5 367.5,-166.5 "/>
<text text-anchor="middle" x="338" y="-154.5" font-family="Helvetica,sans-Serif" font-size="10.00"> </text>
<polyline fill="none" stroke="#bfbfbf" points="308.5,-147.5 367.5,-147.5 "/>
<text text-anchor="middle" x="338" y="-135.5" font-family="Helvetica,sans-Serif" font-size="10.00"> </text>
</g>
<!-- Node6&#45;&gt;Node1 -->
<g id="edge5" class="edge"><title>Node6&#45;&gt;Node1</title>
<path fill="none" stroke="#404040" d="M324.084,-128.408C314.702,-111.767 301.114,-90.9655 285,-76 276.301,-67.9206 265.925,-60.719 255.528,-54.5485"/>
<polygon fill="none" stroke="#404040" points="255.218,-54.3743 248.028,-54.9237 244.755,-48.4979 251.946,-47.9485 255.218,-54.3743"/>
<text text-anchor="middle" x="330" y="-90.5" font-family="Helvetica,sans-Serif" font-size="10.00"> +usage</text>
</g>
</g>
</svg>
