<?xml version="1.0" encoding="UTF-8" standalone="no"?>
<!DOCTYPE svg PUBLIC "-//W3C//DTD SVG 1.1//EN"
 "http://www.w3.org/Graphics/SVG/1.1/DTD/svg11.dtd">
<!-- Generated by graphviz version 2.36.0 (20140111.2315)
 -->
<!-- Title: /home/travis/build/AliceO2Group/AliceO2/Detectors/ITSMFT/common/reconstruction/src/DigitPixelReader.cxx Pages: 1 -->
<!--zoomable 378 -->
<svg id="main" version="1.1" xmlns="http://www.w3.org/2000/svg" xmlns:xlink="http://www.w3.org/1999/xlink" xml:space="preserve" onload="init(evt)">
<style type="text/css"><![CDATA[
.edge:hover path { stroke: red; }
.edge:hover polygon { stroke: red; fill: red; }
]]></style>
<script type="text/javascript"><![CDATA[
var edges = document.getElementsByTagName('g');
if (edges && edges.length) {
  for (var i=0;i<edges.length;i++) {
    if (edges[i].id.substr(0,4)=='edge') {
      edges[i].setAttribute('class','edge');
    }
  }
}
]]></script>
        <defs>
                <circle id="rim" cx="0" cy="0" r="7"/>
                <circle id="rim2" cx="0" cy="0" r="3.5"/>
                <g id="zoomPlus">
                        <use xlink:href="#rim" fill="#404040">
                                <set attributeName="fill" to="#808080" begin="zoomplus.mouseover" end="zoomplus.mouseout"/>
                        </use>
                        <path d="M-4,0h8M0,-4v8" fill="none" stroke="white" stroke-width="1.5" pointer-events="none"/>
                </g>
                <g id="zoomMin">
                        <use xlink:href="#rim" fill="#404040">
                                <set attributeName="fill" to="#808080" begin="zoomminus.mouseover" end="zoomminus.mouseout"/>
                        </use>
                        <path d="M-4,0h8" fill="none" stroke="white" stroke-width="1.5" pointer-events="none"/>
                </g>
                <g id="dirArrow">
                        <path fill="none" stroke="white" stroke-width="1.5" d="M0,-3.0v7 M-2.5,-0.5L0,-3.0L2.5,-0.5"/>
                </g>
               <g id="resetDef">
                       <use xlink:href="#rim2" fill="#404040">
                               <set attributeName="fill" to="#808080" begin="reset.mouseover" end="reset.mouseout"/>
                       </use>
               </g>
        </defs>

<script type="text/javascript">
var viewWidth = 1312;
var viewHeight = 378;
var sectionId = 'dynsection-0';
</script>
<script xlink:href="../../svgpan.js"/>
<svg id="graph" class="graph">
<g id="viewport">
<title>/home/travis/build/AliceO2Group/AliceO2/Detectors/ITSMFT/common/reconstruction/src/DigitPixelReader.cxx</title>
<!-- Node1 -->
<g id="node1" class="node"><title>Node1</title>
<polygon fill="#bfbfbf" stroke="black" points="932.5,-317 932.5,-369 1125.5,-369 1125.5,-317 932.5,-317"/>
<text text-anchor="start" x="940.5" y="-357" font-family="Helvetica,sans-Serif" font-size="10.00">/home/travis/build</text>
<text text-anchor="start" x="940.5" y="-346" font-family="Helvetica,sans-Serif" font-size="10.00">/AliceO2Group/AliceO2</text>
<text text-anchor="start" x="940.5" y="-335" font-family="Helvetica,sans-Serif" font-size="10.00">/Detectors/ITSMFT/common</text>
<text text-anchor="middle" x="1029" y="-324" font-family="Helvetica,sans-Serif" font-size="10.00">/reconstruction/src/DigitPixelReader.cxx</text>
</g>
<!-- Node2 -->
<g id="node2" class="node"><title>Node2</title>
<g id="a_node2"><a xlink:href="../../d4/d75/DigitPixelReader_8h.html" target="_top" xlink:title="Definition of the Alpide pixel reader for MC digits processing. ">
<polygon fill="none" stroke="black" points="835.5,-249 835.5,-279 954.5,-279 954.5,-249 835.5,-249"/>
<text text-anchor="start" x="843.5" y="-267" font-family="Helvetica,sans-Serif" font-size="10.00">ITSMFTReconstruction</text>
<text text-anchor="middle" x="895" y="-256" font-family="Helvetica,sans-Serif" font-size="10.00">/DigitPixelReader.h</text>
</a>
</g>
</g>
<!-- Node1&#45;&gt;Node2 -->
<g id="edge1" class="edge"><title>Node1&#45;&gt;Node2</title>
<path fill="none" stroke="midnightblue" d="M985.123,-316.787C966.704,-306.203 945.628,-294.092 928.491,-284.245"/>
<polygon fill="midnightblue" stroke="midnightblue" points="929.831,-280.978 919.417,-279.031 926.344,-287.048 929.831,-280.978"/>
</g>
<!-- Node14 -->
<g id="node14" class="node"><title>Node14</title>
<polygon fill="none" stroke="#bfbfbf" points="357.5,-56.5 357.5,-75.5 406.5,-75.5 406.5,-56.5 357.5,-56.5"/>
<text text-anchor="middle" x="382" y="-63.5" font-family="Helvetica,sans-Serif" font-size="10.00">cassert</text>
</g>
<!-- Node1&#45;&gt;Node14 -->
<g id="edge42" class="edge"><title>Node1&#45;&gt;Node14</title>
<path fill="none" stroke="midnightblue" d="M939.347,-316.979C903.763,-306.437 862.658,-293.488 826,-280 691.643,-230.563 661.786,-208.55 534,-144 489.684,-121.614 438.143,-95.4848 407.898,-80.1423"/>
<polygon fill="midnightblue" stroke="midnightblue" points="409.365,-76.9615 398.863,-75.5584 406.198,-83.2041 409.365,-76.9615"/>
</g>
<!-- Node27 -->
<g id="node27" class="node"><title>Node27</title>
<g id="a_node27"><a xlink:href="../../da/de8/RootChain_8h.html" target="_top" xlink:title="CommonUtils/RootChain.h">
<polygon fill="none" stroke="black" points="1077,-254.5 1077,-273.5 1211,-273.5 1211,-254.5 1077,-254.5"/>
<text text-anchor="middle" x="1144" y="-261.5" font-family="Helvetica,sans-Serif" font-size="10.00">CommonUtils/RootChain.h</text>
</a>
</g>
</g>
<!-- Node1&#45;&gt;Node27 -->
<g id="edge37" class="edge"><title>Node1&#45;&gt;Node27</title>
<path fill="none" stroke="midnightblue" d="M1066.66,-316.787C1085.27,-304.321 1107.05,-289.737 1122.75,-279.228"/>
<polygon fill="midnightblue" stroke="midnightblue" points="1124.86,-282.03 1131.22,-273.558 1120.96,-276.213 1124.86,-282.03"/>
</g>
<!-- Node30 -->
<g id="node30" class="node"><title>Node30</title>
<polygon fill="none" stroke="#bfbfbf" points="1229.5,-254.5 1229.5,-273.5 1300.5,-273.5 1300.5,-254.5 1229.5,-254.5"/>
<text text-anchor="middle" x="1265" y="-261.5" font-family="Helvetica,sans-Serif" font-size="10.00">FairLogger.h</text>
</g>
<!-- Node1&#45;&gt;Node30 -->
<g id="edge41" class="edge"><title>Node1&#45;&gt;Node30</title>
<path fill="none" stroke="midnightblue" d="M1106.64,-316.95C1141.35,-305.714 1182.74,-292.256 1220,-280 1223.13,-278.971 1226.38,-277.897 1229.64,-276.817"/>
<polygon fill="midnightblue" stroke="midnightblue" points="1230.93,-280.077 1239.31,-273.602 1228.72,-273.434 1230.93,-280.077"/>
</g>
<!-- Node3 -->
<g id="node3" class="node"><title>Node3</title>
<g id="a_node3"><a xlink:href="../../df/d2e/PixelReader_8h.html" target="_top" xlink:title="Abstract class for Alpide data reader class. ">
<polygon fill="none" stroke="black" points="879.5,-181 879.5,-211 998.5,-211 998.5,-181 879.5,-181"/>
<text text-anchor="start" x="887.5" y="-199" font-family="Helvetica,sans-Serif" font-size="10.00">ITSMFTReconstruction</text>
<text text-anchor="middle" x="939" y="-188" font-family="Helvetica,sans-Serif" font-size="10.00">/PixelReader.h</text>
</a>
</g>
</g>
<!-- Node2&#45;&gt;Node3 -->
<g id="edge2" class="edge"><title>Node2&#45;&gt;Node3</title>
<path fill="none" stroke="midnightblue" d="M904.547,-248.679C910.198,-240.203 917.483,-229.276 923.897,-219.655"/>
<polygon fill="midnightblue" stroke="midnightblue" points="926.836,-221.555 929.471,-211.293 921.012,-217.672 926.836,-221.555"/>
</g>
<!-- Node5 -->
<g id="node5" class="node"><title>Node5</title>
<g id="a_node5"><a xlink:href="../../da/d8d/PixelData_8h.html" target="_top" xlink:title="Transient data classes for single pixel and set of pixels from current chip. ">
<polygon fill="none" stroke="black" points="961.5,-113 961.5,-143 1080.5,-143 1080.5,-113 961.5,-113"/>
<text text-anchor="start" x="969.5" y="-131" font-family="Helvetica,sans-Serif" font-size="10.00">ITSMFTReconstruction</text>
<text text-anchor="middle" x="1021" y="-120" font-family="Helvetica,sans-Serif" font-size="10.00">/PixelData.h</text>
</a>
</g>
</g>
<!-- Node2&#45;&gt;Node5 -->
<g id="edge19" class="edge"><title>Node2&#45;&gt;Node5</title>
<path fill="none" stroke="midnightblue" d="M952.536,-248.933C972.638,-241.225 993.524,-229.533 1007,-212 1019.82,-195.322 1022.65,-171.159 1022.67,-153.201"/>
<polygon fill="midnightblue" stroke="midnightblue" points="1026.17,-153.097 1022.4,-143.196 1019.17,-153.287 1026.17,-153.097"/>
</g>
<!-- Node6 -->
<g id="node6" class="node"><title>Node6</title>
<g id="a_node6"><a xlink:href="../../d0/d06/ITSMFT_2common_2base_2include_2ITSMFTBase_2Digit_8h.html" target="_top" xlink:title="ITSMFTBase/Digit.h">
<polygon fill="none" stroke="black" points="1043.5,-56.5 1043.5,-75.5 1150.5,-75.5 1150.5,-56.5 1043.5,-56.5"/>
<text text-anchor="middle" x="1097" y="-63.5" font-family="Helvetica,sans-Serif" font-size="10.00">ITSMFTBase/Digit.h</text>
</a>
</g>
</g>
<!-- Node2&#45;&gt;Node6 -->
<g id="edge20" class="edge"><title>Node2&#45;&gt;Node6</title>
<path fill="none" stroke="midnightblue" d="M948.323,-248.942C973.828,-240.675 1003.96,-228.546 1028,-212 1061.44,-188.979 1072.54,-181.115 1089,-144 1097.24,-125.413 1098.54,-101.904 1098.22,-85.7816"/>
<polygon fill="midnightblue" stroke="midnightblue" points="1101.7,-85.3632 1097.77,-75.5231 1094.71,-85.6646 1101.7,-85.3632"/>
</g>
<!-- Node8 -->
<g id="node8" class="node"><title>Node8</title>
<polygon fill="none" stroke="#bfbfbf" points="873,-56.5 873,-75.5 917,-75.5 917,-56.5 873,-56.5"/>
<text text-anchor="middle" x="895" y="-63.5" font-family="Helvetica,sans-Serif" font-size="10.00">vector</text>
</g>
<!-- Node2&#45;&gt;Node8 -->
<g id="edge35" class="edge"><title>Node2&#45;&gt;Node8</title>
<path fill="none" stroke="midnightblue" d="M885.921,-248.931C880.099,-239.04 873.074,-225.256 870,-212 859.505,-166.745 876.537,-112.613 887.283,-85.0539"/>
<polygon fill="midnightblue" stroke="midnightblue" points="890.617,-86.1481 891.151,-75.5668 884.135,-83.5054 890.617,-86.1481"/>
</g>
<!-- Node10 -->
<g id="node10" class="node"><title>Node10</title>
<g id="a_node10"><a xlink:href="../../d7/dcd/MCCompLabel_8h.html" target="_top" xlink:title="SimulationDataFormat\l/MCCompLabel.h">
<polygon fill="none" stroke="black" points="712,-113 712,-143 826,-143 826,-113 712,-113"/>
<text text-anchor="start" x="720" y="-131" font-family="Helvetica,sans-Serif" font-size="10.00">SimulationDataFormat</text>
<text text-anchor="middle" x="769" y="-120" font-family="Helvetica,sans-Serif" font-size="10.00">/MCCompLabel.h</text>
</a>
</g>
</g>
<!-- Node2&#45;&gt;Node10 -->
<g id="edge33" class="edge"><title>Node2&#45;&gt;Node10</title>
<path fill="none" stroke="midnightblue" d="M877.585,-248.966C865.704,-239.091 849.854,-225.31 837,-212 818.267,-192.602 798.975,-168.601 785.748,-151.406"/>
<polygon fill="midnightblue" stroke="midnightblue" points="788.262,-148.93 779.418,-143.095 782.693,-153.171 788.262,-148.93"/>
</g>
<!-- Node12 -->
<g id="node12" class="node"><title>Node12</title>
<g id="a_node12"><a xlink:href="../../db/d14/MCTruthContainer_8h.html" target="_top" xlink:title="Definition of a container to keep Monte Carlo truth external to simulation objects. ">
<polygon fill="none" stroke="black" points="543,-113 543,-143 657,-143 657,-113 543,-113"/>
<text text-anchor="start" x="551" y="-131" font-family="Helvetica,sans-Serif" font-size="10.00">SimulationDataFormat</text>
<text text-anchor="middle" x="600" y="-120" font-family="Helvetica,sans-Serif" font-size="10.00">/MCTruthContainer.h</text>
</a>
</g>
</g>
<!-- Node2&#45;&gt;Node12 -->
<g id="edge32" class="edge"><title>Node2&#45;&gt;Node12</title>
<path fill="none" stroke="midnightblue" d="M835.181,-249.465C802.131,-240.881 760.835,-228.305 726,-212 689.074,-194.716 650.472,-167.767 625.883,-149.295"/>
<polygon fill="midnightblue" stroke="midnightblue" points="627.873,-146.412 617.795,-143.145 623.636,-151.984 627.873,-146.412"/>
</g>
<!-- Node18 -->
<g id="node18" class="node"><title>Node18</title>
<g id="a_node18"><a xlink:href="../../d6/d31/DetID_8h.html" target="_top" xlink:title="DetectorsCommonDataFormats\l/DetID.h">
<polygon fill="none" stroke="black" points="225,-113 225,-143 381,-143 381,-113 225,-113"/>
<text text-anchor="start" x="233" y="-131" font-family="Helvetica,sans-Serif" font-size="10.00">DetectorsCommonDataFormats</text>
<text text-anchor="middle" x="303" y="-120" font-family="Helvetica,sans-Serif" font-size="10.00">/DetID.h</text>
</a>
</g>
</g>
<!-- Node2&#45;&gt;Node18 -->
<g id="edge21" class="edge"><title>Node2&#45;&gt;Node18</title>
<path fill="none" stroke="midnightblue" d="M835.041,-249.488C789.492,-239.218 725.297,-224.736 669,-212 566.881,-188.899 448.755,-162.096 374.953,-145.341"/>
<polygon fill="midnightblue" stroke="midnightblue" points="375.367,-141.846 364.84,-143.045 373.817,-148.672 375.367,-141.846"/>
</g>
<!-- Node25 -->
<g id="node25" class="node"><title>Node25</title>
<polygon fill="none" stroke="#bfbfbf" points="735,-186.5 735,-205.5 785,-205.5 785,-186.5 735,-186.5"/>
<text text-anchor="middle" x="760" y="-193.5" font-family="Helvetica,sans-Serif" font-size="10.00">TTree.h</text>
</g>
<!-- Node2&#45;&gt;Node25 -->
<g id="edge34" class="edge"><title>Node2&#45;&gt;Node25</title>
<path fill="none" stroke="midnightblue" d="M866.039,-248.841C842.583,-237.374 809.791,-221.342 786.904,-210.153"/>
<polygon fill="midnightblue" stroke="midnightblue" points="788.28,-206.93 777.758,-205.682 785.205,-213.218 788.28,-206.93"/>
</g>
<!-- Node26 -->
<g id="node26" class="node"><title>Node26</title>
<polygon fill="none" stroke="#bfbfbf" points="1118,-186.5 1118,-205.5 1170,-205.5 1170,-186.5 1118,-186.5"/>
<text text-anchor="middle" x="1144" y="-193.5" font-family="Helvetica,sans-Serif" font-size="10.00">memory</text>
</g>
<!-- Node2&#45;&gt;Node26 -->
<g id="edge36" class="edge"><title>Node2&#45;&gt;Node26</title>
<path fill="none" stroke="midnightblue" d="M954.521,-250.464C996.623,-241.115 1054.21,-227.35 1104,-212 1106.95,-211.09 1110,-210.079 1113.04,-209.023"/>
<polygon fill="midnightblue" stroke="midnightblue" points="1114.36,-212.268 1122.57,-205.573 1111.98,-205.686 1114.36,-212.268"/>
</g>
<!-- Node4 -->
<g id="node4" class="node"><title>Node4</title>
<polygon fill="none" stroke="#bfbfbf" points="917,-0.5 917,-19.5 973,-19.5 973,-0.5 917,-0.5"/>
<text text-anchor="middle" x="945" y="-7.5" font-family="Helvetica,sans-Serif" font-size="10.00">Rtypes.h</text>
</g>
<!-- Node3&#45;&gt;Node4 -->
<g id="edge3" class="edge"><title>Node3&#45;&gt;Node4</title>
<path fill="none" stroke="midnightblue" d="M939.461,-180.867C940.526,-148.216 943.158,-67.4974 944.37,-30.3169"/>
<polygon fill="midnightblue" stroke="midnightblue" points="947.882,-30 944.71,-19.8912 940.886,-29.7718 947.882,-30"/>
</g>
<!-- Node3&#45;&gt;Node5 -->
<g id="edge4" class="edge"><title>Node3&#45;&gt;Node5</title>
<path fill="none" stroke="midnightblue" d="M956.793,-180.679C968.153,-171.536 983.057,-159.54 995.646,-149.407"/>
<polygon fill="midnightblue" stroke="midnightblue" points="997.928,-152.063 1003.52,-143.066 993.539,-146.61 997.928,-152.063"/>
</g>
<!-- Node3&#45;&gt;Node8 -->
<g id="edge18" class="edge"><title>Node3&#45;&gt;Node8</title>
<path fill="none" stroke="midnightblue" d="M933.121,-180.813C928.982,-170.637 923.414,-156.562 919,-144 912.052,-124.228 905.024,-101.255 900.386,-85.5829"/>
<polygon fill="midnightblue" stroke="midnightblue" points="903.635,-84.2246 897.465,-75.6115 896.917,-86.1922 903.635,-84.2246"/>
</g>
<!-- Node3&#45;&gt;Node10 -->
<g id="edge10" class="edge"><title>Node3&#45;&gt;Node10</title>
<path fill="none" stroke="midnightblue" d="M902.531,-180.841C876.785,-170.846 842.107,-157.383 814.543,-146.682"/>
<polygon fill="midnightblue" stroke="midnightblue" points="815.706,-143.378 805.117,-143.022 813.172,-149.904 815.706,-143.378"/>
</g>
<!-- Node3&#45;&gt;Node12 -->
<g id="edge12" class="edge"><title>Node3&#45;&gt;Node12</title>
<path fill="none" stroke="midnightblue" d="M879.174,-183.352C819.846,-171.802 729.102,-154.135 667.294,-142.102"/>
<polygon fill="midnightblue" stroke="midnightblue" points="667.736,-138.622 657.251,-140.146 666.398,-145.493 667.736,-138.622"/>
</g>
<!-- Node5&#45;&gt;Node6 -->
<g id="edge5" class="edge"><title>Node5&#45;&gt;Node6</title>
<path fill="none" stroke="midnightblue" d="M1039.01,-112.781C1050.74,-103.523 1066.02,-91.4618 1077.94,-82.0435"/>
<polygon fill="midnightblue" stroke="midnightblue" points="1080.26,-84.6741 1085.94,-75.7305 1075.92,-79.1799 1080.26,-84.6741"/>
</g>
<!-- Node5&#45;&gt;Node8 -->
<g id="edge8" class="edge"><title>Node5&#45;&gt;Node8</title>
<path fill="none" stroke="midnightblue" d="M991.459,-112.933C970.486,-102.946 942.543,-89.6397 922.133,-79.9205"/>
<polygon fill="midnightblue" stroke="midnightblue" points="923.593,-76.7394 913.06,-75.6 920.584,-83.0594 923.593,-76.7394"/>
</g>
<!-- Node9 -->
<g id="node9" class="node"><title>Node9</title>
<polygon fill="none" stroke="#bfbfbf" points="985,-56.5 985,-75.5 1025,-75.5 1025,-56.5 985,-56.5"/>
<text text-anchor="middle" x="1005" y="-63.5" font-family="Helvetica,sans-Serif" font-size="10.00">utility</text>
</g>
<!-- Node5&#45;&gt;Node9 -->
<g id="edge9" class="edge"><title>Node5&#45;&gt;Node9</title>
<path fill="none" stroke="midnightblue" d="M1017.21,-112.781C1015.03,-104.601 1012.26,-94.2341 1009.92,-85.4344"/>
<polygon fill="midnightblue" stroke="midnightblue" points="1013.29,-84.491 1007.33,-75.7305 1006.52,-86.2947 1013.29,-84.491"/>
</g>
<!-- Node6&#45;&gt;Node4 -->
<g id="edge6" class="edge"><title>Node6&#45;&gt;Node4</title>
<path fill="none" stroke="midnightblue" d="M1072.92,-56.4435C1047.46,-47.3986 1007.11,-33.064 978.541,-22.9158"/>
<polygon fill="midnightblue" stroke="midnightblue" points="979.567,-19.5661 968.972,-19.5164 977.223,-26.1622 979.567,-19.5661"/>
</g>
<!-- Node7 -->
<g id="node7" class="node"><title>Node7</title>
<polygon fill="none" stroke="#bfbfbf" points="1074.5,-0.5 1074.5,-19.5 1119.5,-19.5 1119.5,-0.5 1074.5,-0.5"/>
<text text-anchor="middle" x="1097" y="-7.5" font-family="Helvetica,sans-Serif" font-size="10.00">climits</text>
</g>
<!-- Node6&#45;&gt;Node7 -->
<g id="edge7" class="edge"><title>Node6&#45;&gt;Node7</title>
<path fill="none" stroke="midnightblue" d="M1097,-56.083C1097,-49.0059 1097,-38.8611 1097,-29.9865"/>
<polygon fill="midnightblue" stroke="midnightblue" points="1100.5,-29.751 1097,-19.7511 1093.5,-29.7511 1100.5,-29.751"/>
</g>
<!-- Node11 -->
<g id="node11" class="node"><title>Node11</title>
<polygon fill="none" stroke="#bfbfbf" points="727,-56.5 727,-75.5 855,-75.5 855,-56.5 727,-56.5"/>
<text text-anchor="middle" x="791" y="-63.5" font-family="Helvetica,sans-Serif" font-size="10.00">AliTPCCommonRtypes.h</text>
</g>
<!-- Node10&#45;&gt;Node11 -->
<g id="edge11" class="edge"><title>Node10&#45;&gt;Node11</title>
<path fill="none" stroke="midnightblue" d="M774.214,-112.781C777.246,-104.512 781.098,-94.006 784.347,-85.1448"/>
<polygon fill="midnightblue" stroke="midnightblue" points="787.642,-86.3242 787.799,-75.7305 781.07,-83.9144 787.642,-86.3242"/>
</g>
<!-- Node13 -->
<g id="node13" class="node"><title>Node13</title>
<polygon fill="none" stroke="#bfbfbf" points="569,-56.5 569,-75.5 631,-75.5 631,-56.5 569,-56.5"/>
<text text-anchor="middle" x="600" y="-63.5" font-family="Helvetica,sans-Serif" font-size="10.00">TNamed.h</text>
</g>
<!-- Node12&#45;&gt;Node13 -->
<g id="edge13" class="edge"><title>Node12&#45;&gt;Node13</title>
<path fill="none" stroke="midnightblue" d="M600,-112.781C600,-104.781 600,-94.6887 600,-86.0168"/>
<polygon fill="midnightblue" stroke="midnightblue" points="603.5,-85.7305 600,-75.7305 596.5,-85.7306 603.5,-85.7305"/>
</g>
<!-- Node12&#45;&gt;Node14 -->
<g id="edge14" class="edge"><title>Node12&#45;&gt;Node14</title>
<path fill="none" stroke="midnightblue" d="M548.889,-112.933C508.112,-101.71 452.108,-86.2959 416.481,-76.4902"/>
<polygon fill="midnightblue" stroke="midnightblue" points="417.131,-73.0389 406.561,-73.7598 415.273,-79.788 417.131,-73.0389"/>
</g>
<!-- Node15 -->
<g id="node15" class="node"><title>Node15</title>
<polygon fill="none" stroke="#bfbfbf" points="649.5,-56.5 649.5,-75.5 708.5,-75.5 708.5,-56.5 649.5,-56.5"/>
<text text-anchor="middle" x="679" y="-63.5" font-family="Helvetica,sans-Serif" font-size="10.00">stdexcept</text>
</g>
<!-- Node12&#45;&gt;Node15 -->
<g id="edge15" class="edge"><title>Node12&#45;&gt;Node15</title>
<path fill="none" stroke="midnightblue" d="M618.722,-112.781C630.912,-103.523 646.792,-91.4618 659.193,-82.0435"/>
<polygon fill="midnightblue" stroke="midnightblue" points="661.658,-84.5661 667.505,-75.7305 657.424,-78.9916 661.658,-84.5661"/>
</g>
<!-- Node16 -->
<g id="node16" class="node"><title>Node16</title>
<polygon fill="none" stroke="#bfbfbf" points="505.5,-56.5 505.5,-75.5 550.5,-75.5 550.5,-56.5 505.5,-56.5"/>
<text text-anchor="middle" x="528" y="-63.5" font-family="Helvetica,sans-Serif" font-size="10.00">gsl/gsl</text>
</g>
<!-- Node12&#45;&gt;Node16 -->
<g id="edge16" class="edge"><title>Node12&#45;&gt;Node16</title>
<path fill="none" stroke="midnightblue" d="M582.937,-112.781C571.935,-103.613 557.635,-91.6957 546.382,-82.3186"/>
<polygon fill="midnightblue" stroke="midnightblue" points="548.4,-79.4436 538.477,-75.7305 543.918,-84.8212 548.4,-79.4436"/>
</g>
<!-- Node17 -->
<g id="node17" class="node"><title>Node17</title>
<polygon fill="none" stroke="#bfbfbf" points="425,-56.5 425,-75.5 487,-75.5 487,-56.5 425,-56.5"/>
<text text-anchor="middle" x="456" y="-63.5" font-family="Helvetica,sans-Serif" font-size="10.00">type_traits</text>
</g>
<!-- Node12&#45;&gt;Node17 -->
<g id="edge17" class="edge"><title>Node12&#45;&gt;Node17</title>
<path fill="none" stroke="midnightblue" d="M566.238,-112.933C541.944,-102.81 509.467,-89.2779 486.064,-79.5267"/>
<polygon fill="midnightblue" stroke="midnightblue" points="487.217,-76.2155 476.64,-75.6 484.525,-82.677 487.217,-76.2155"/>
</g>
<!-- Node18&#45;&gt;Node4 -->
<g id="edge22" class="edge"><title>Node18&#45;&gt;Node4</title>
<path fill="none" stroke="midnightblue" d="M307.512,-112.963C313.713,-96.2071 326.603,-68.8424 348,-56 395.79,-27.3165 782.619,-15.1077 906.785,-11.903"/>
<polygon fill="midnightblue" stroke="midnightblue" points="907.049,-15.3975 916.957,-11.6456 906.872,-8.39978 907.049,-15.3975"/>
</g>
<!-- Node18&#45;&gt;Node14 -->
<g id="edge25" class="edge"><title>Node18&#45;&gt;Node14</title>
<path fill="none" stroke="midnightblue" d="M321.722,-112.781C333.912,-103.523 349.792,-91.4618 362.193,-82.0435"/>
<polygon fill="midnightblue" stroke="midnightblue" points="364.658,-84.5661 370.505,-75.7305 360.424,-78.9916 364.658,-84.5661"/>
</g>
<!-- Node18&#45;&gt;Node17 -->
<g id="edge27" class="edge"><title>Node18&#45;&gt;Node17</title>
<path fill="none" stroke="midnightblue" d="M338.872,-112.933C364.915,-102.72 399.808,-89.036 424.721,-79.2664"/>
<polygon fill="midnightblue" stroke="midnightblue" points="426.038,-82.5094 434.07,-75.6 423.482,-75.9926 426.038,-82.5094"/>
</g>
<!-- Node19 -->
<g id="node19" class="node"><title>Node19</title>
<polygon fill="none" stroke="#bfbfbf" points="0,-0.5 0,-19.5 38,-19.5 38,-0.5 0,-0.5"/>
<text text-anchor="middle" x="19" y="-7.5" font-family="Helvetica,sans-Serif" font-size="10.00">array</text>
</g>
<!-- Node18&#45;&gt;Node19 -->
<g id="edge23" class="edge"><title>Node18&#45;&gt;Node19</title>
<path fill="none" stroke="midnightblue" d="M224.765,-121.029C179.408,-114.792 122.624,-102.046 78,-76 57.726,-64.1667 40.4896,-43.0416 29.9752,-28.0902"/>
<polygon fill="midnightblue" stroke="midnightblue" points="32.8223,-26.052 24.3301,-19.7169 27.0181,-29.9651 32.8223,-26.052"/>
</g>
<!-- Node20 -->
<g id="node20" class="node"><title>Node20</title>
<polygon fill="none" stroke="#bfbfbf" points="195.5,-56.5 195.5,-75.5 236.5,-75.5 236.5,-56.5 195.5,-56.5"/>
<text text-anchor="middle" x="216" y="-63.5" font-family="Helvetica,sans-Serif" font-size="10.00">bitset</text>
</g>
<!-- Node18&#45;&gt;Node20 -->
<g id="edge24" class="edge"><title>Node18&#45;&gt;Node20</title>
<path fill="none" stroke="midnightblue" d="M282.382,-112.781C268.615,-103.286 250.573,-90.8434 236.774,-81.3267"/>
<polygon fill="midnightblue" stroke="midnightblue" points="238.625,-78.3518 228.406,-75.5557 234.651,-84.1143 238.625,-78.3518"/>
</g>
<!-- Node21 -->
<g id="node21" class="node"><title>Node21</title>
<polygon fill="none" stroke="#bfbfbf" points="255,-56.5 255,-75.5 301,-75.5 301,-56.5 255,-56.5"/>
<text text-anchor="middle" x="278" y="-63.5" font-family="Helvetica,sans-Serif" font-size="10.00">cstdint</text>
</g>
<!-- Node18&#45;&gt;Node21 -->
<g id="edge26" class="edge"><title>Node18&#45;&gt;Node21</title>
<path fill="none" stroke="midnightblue" d="M297.075,-112.781C293.63,-104.512 289.252,-94.006 285.56,-85.1448"/>
<polygon fill="midnightblue" stroke="midnightblue" points="288.715,-83.6151 281.638,-75.7305 282.253,-86.3075 288.715,-83.6151"/>
</g>
<!-- Node22 -->
<g id="node22" class="node"><title>Node22</title>
<g id="a_node22"><a xlink:href="../../d9/d52/Common_2MathUtils_2include_2MathUtils_2Utils_8h.html" target="_top" xlink:title="MathUtils/Utils.h">
<polygon fill="none" stroke="black" points="87,-56.5 87,-75.5 177,-75.5 177,-56.5 87,-56.5"/>
<text text-anchor="middle" x="132" y="-63.5" font-family="Helvetica,sans-Serif" font-size="10.00">MathUtils/Utils.h</text>
</a>
</g>
</g>
<!-- Node18&#45;&gt;Node22 -->
<g id="edge28" class="edge"><title>Node18&#45;&gt;Node22</title>
<path fill="none" stroke="midnightblue" d="M262.908,-112.933C233.455,-102.598 193.875,-88.7106 165.972,-78.9202"/>
<polygon fill="midnightblue" stroke="midnightblue" points="166.856,-75.521 156.261,-75.5127 164.538,-82.1262 166.856,-75.521"/>
</g>
<!-- Node22&#45;&gt;Node19 -->
<g id="edge29" class="edge"><title>Node22&#45;&gt;Node19</title>
<path fill="none" stroke="midnightblue" d="M114.095,-56.4435C95.746,-47.6751 66.9946,-33.9355 45.9064,-23.8579"/>
<polygon fill="midnightblue" stroke="midnightblue" points="47.3532,-20.6703 36.8214,-19.5164 44.335,-26.9862 47.3532,-20.6703"/>
</g>
<!-- Node23 -->
<g id="node23" class="node"><title>Node23</title>
<polygon fill="none" stroke="#bfbfbf" points="254,-0.5 254,-19.5 298,-19.5 298,-0.5 254,-0.5"/>
<text text-anchor="middle" x="276" y="-7.5" font-family="Helvetica,sans-Serif" font-size="10.00">cmath</text>
</g>
<!-- Node22&#45;&gt;Node23 -->
<g id="edge30" class="edge"><title>Node22&#45;&gt;Node23</title>
<path fill="none" stroke="midnightblue" d="M154.817,-56.4435C178.973,-47.3851 217.276,-33.0213 244.345,-22.8705"/>
<polygon fill="midnightblue" stroke="midnightblue" points="245.628,-26.1274 253.763,-19.339 243.17,-19.5731 245.628,-26.1274"/>
</g>
<!-- Node24 -->
<g id="node24" class="node"><title>Node24</title>
<g id="a_node24"><a xlink:href="../../d6/d84/MathConstants_8h.html" target="_top" xlink:title="useful math constants ">
<polygon fill="none" stroke="black" points="56.5,-0.5 56.5,-19.5 235.5,-19.5 235.5,-0.5 56.5,-0.5"/>
<text text-anchor="middle" x="146" y="-7.5" font-family="Helvetica,sans-Serif" font-size="10.00">CommonConstants/MathConstants.h</text>
</a>
</g>
</g>
<!-- Node22&#45;&gt;Node24 -->
<g id="edge31" class="edge"><title>Node22&#45;&gt;Node24</title>
<path fill="none" stroke="midnightblue" d="M134.312,-56.083C136.167,-48.9272 138.835,-38.6353 141.154,-29.6911"/>
<polygon fill="midnightblue" stroke="midnightblue" points="144.609,-30.3094 143.731,-19.7511 137.834,-28.5527 144.609,-30.3094"/>
</g>
<!-- Node27&#45;&gt;Node26 -->
<g id="edge38" class="edge"><title>Node27&#45;&gt;Node26</title>
<path fill="none" stroke="midnightblue" d="M1144,-254.372C1144,-244.643 1144,-228.528 1144,-215.85"/>
<polygon fill="midnightblue" stroke="midnightblue" points="1147.5,-215.841 1144,-205.841 1140.5,-215.841 1147.5,-215.841"/>
</g>
<!-- Node28 -->
<g id="node28" class="node"><title>Node28</title>
<polygon fill="none" stroke="#bfbfbf" points="1188,-186.5 1188,-205.5 1244,-205.5 1244,-186.5 1188,-186.5"/>
<text text-anchor="middle" x="1216" y="-193.5" font-family="Helvetica,sans-Serif" font-size="10.00">TChain.h</text>
</g>
<!-- Node27&#45;&gt;Node28 -->
<g id="edge39" class="edge"><title>Node27&#45;&gt;Node28</title>
<path fill="none" stroke="midnightblue" d="M1153.41,-254.372C1164.88,-243.856 1184.49,-225.882 1198.71,-212.85"/>
<polygon fill="midnightblue" stroke="midnightblue" points="1201.35,-215.178 1206.36,-205.841 1196.62,-210.018 1201.35,-215.178"/>
</g>
<!-- Node29 -->
<g id="node29" class="node"><title>Node29</title>
<polygon fill="none" stroke="#bfbfbf" points="1262.5,-186.5 1262.5,-205.5 1303.5,-205.5 1303.5,-186.5 1262.5,-186.5"/>
<text text-anchor="middle" x="1283" y="-193.5" font-family="Helvetica,sans-Serif" font-size="10.00">string</text>
</g>
<!-- Node27&#45;&gt;Node29 -->
<g id="edge40" class="edge"><title>Node27&#45;&gt;Node29</title>
<path fill="none" stroke="midnightblue" d="M1162.37,-254.39C1183.88,-244.293 1220.57,-227.024 1252,-212 1253.35,-211.355 1254.73,-210.694 1256.12,-210.024"/>
<polygon fill="midnightblue" stroke="midnightblue" points="1257.82,-213.091 1265.31,-205.596 1254.78,-206.786 1257.82,-213.091"/>
</g>
</g>
</svg>
        <g id="navigator" transform="translate(0 0)" fill="#404254">
                <rect fill="#f2f5e9" fill-opacity="0.5" stroke="#606060" stroke-width=".5" x="0" y="0" width="60" height="60"/>
                <use id="zoomplus" xlink:href="#zoomPlus" x="17" y="9" onmousedown="handleZoom(evt,'in')"/>
                <use id="zoomminus" xlink:href="#zoomMin" x="42" y="9" onmousedown="handleZoom(evt,'out')"/>
                <use id="reset" xlink:href="#resetDef" x="30" y="36" onmousedown="handleReset()"/>
                <g id="arrowUp" xlink:href="#dirArrow" transform="translate(30 24)" onmousedown="handlePan(0,-1)">
                  <use xlink:href="#rim" fill="#404040">
                        <set attributeName="fill" to="#808080" begin="arrowUp.mouseover" end="arrowUp.mouseout"/>
                  </use>
                  <path fill="none" stroke="white" stroke-width="1.5" d="M0,-3.0v7 M-2.5,-0.5L0,-3.0L2.5,-0.5"/>
                </g>
                <g id="arrowRight" xlink:href="#dirArrow" transform="rotate(90) translate(36 -43)" onmousedown="handlePan(1,0)">
                  <use xlink:href="#rim" fill="#404040">
                        <set attributeName="fill" to="#808080" begin="arrowRight.mouseover" end="arrowRight.mouseout"/>
                  </use>
                  <path fill="none" stroke="white" stroke-width="1.5" d="M0,-3.0v7 M-2.5,-0.5L0,-3.0L2.5,-0.5"/>
                </g>
                <g id="arrowDown" xlink:href="#dirArrow" transform="rotate(180) translate(-30 -48)" onmousedown="handlePan(0,1)">
                  <use xlink:href="#rim" fill="#404040">
                        <set attributeName="fill" to="#808080" begin="arrowDown.mouseover" end="arrowDown.mouseout"/>
                  </use>
                  <path fill="none" stroke="white" stroke-width="1.5" d="M0,-3.0v7 M-2.5,-0.5L0,-3.0L2.5,-0.5"/>
                </g>
                <g id="arrowLeft" xlink:href="#dirArrow" transform="rotate(270) translate(-36 17)" onmousedown="handlePan(-1,0)">
                  <use xlink:href="#rim" fill="#404040">
                        <set attributeName="fill" to="#808080" begin="arrowLeft.mouseover" end="arrowLeft.mouseout"/>
                  </use>
                  <path fill="none" stroke="white" stroke-width="1.5" d="M0,-3.0v7 M-2.5,-0.5L0,-3.0L2.5,-0.5"/>
                </g>
        </g>
        <svg viewBox="0 0 15 15" width="100%" height="30px" preserveAspectRatio="xMaxYMin meet">
         <g id="arrow_out" transform="scale(0.3 0.3)">
          <a xlink:href="DigitPixelReader_8cxx__incl_org.svg" target="_base">
           <rect id="button" ry="5" rx="5" y="6" x="6" height="38" width="38"
                fill="#f2f5e9" fill-opacity="0.5" stroke="#606060" stroke-width="1.0"/>
           <path id="arrow"
             d="M 11.500037,31.436501 C 11.940474,20.09759 22.043105,11.32322 32.158766,21.979434 L 37.068811,17.246167 C 37.068811,17.246167 37.088388,32 37.088388,32 L 22.160133,31.978069 C 22.160133,31.978069 26.997745,27.140456 26.997745,27.140456 C 18.528582,18.264221 13.291696,25.230495 11.500037,31.436501 z"
             style="fill:#404040;"/>
          </a>
         </g>
        </svg>
</svg>
