<?xml version="1.0" encoding="UTF-8" standalone="no"?>
<!DOCTYPE svg PUBLIC "-//W3C//DTD SVG 1.1//EN"
 "http://www.w3.org/Graphics/SVG/1.1/DTD/svg11.dtd">
<!-- Generated by graphviz version 2.36.0 (20140111.2315)
 -->
<!-- Title: /home/travis/build/AliceO2Group/AliceO2/Detectors/ITSMFT/ITS/reconstruction/include/ITSReconstruction/CookedTracker.h Pages: 1 -->
<svg width="755pt" height="284pt"
 viewBox="0.00 0.00 755.00 284.00" xmlns="http://www.w3.org/2000/svg" xmlns:xlink="http://www.w3.org/1999/xlink">
<g id="graph0" class="graph" transform="scale(1 1) rotate(0) translate(4 280)">
<title>/home/travis/build/AliceO2Group/AliceO2/Detectors/ITSMFT/ITS/reconstruction/include/ITSReconstruction/CookedTracker.h</title>
<!-- Node1 -->
<g id="node1" class="node"><title>Node1</title>
<polygon fill="#bfbfbf" stroke="black" points="259.5,-212.5 259.5,-275.5 438.5,-275.5 438.5,-212.5 259.5,-212.5"/>
<text text-anchor="start" x="267.5" y="-263.5" font-family="Helvetica,sans-Serif" font-size="10.00">/home/travis/build</text>
<text text-anchor="start" x="267.5" y="-252.5" font-family="Helvetica,sans-Serif" font-size="10.00">/AliceO2Group/AliceO2</text>
<text text-anchor="start" x="267.5" y="-241.5" font-family="Helvetica,sans-Serif" font-size="10.00">/Detectors/ITSMFT/ITS</text>
<text text-anchor="start" x="267.5" y="-230.5" font-family="Helvetica,sans-Serif" font-size="10.00">/reconstruction/include</text>
<text text-anchor="middle" x="349" y="-219.5" font-family="Helvetica,sans-Serif" font-size="10.00">/ITSReconstruction/CookedTracker.h</text>
</g>
<!-- Node2 -->
<g id="node2" class="node"><title>Node2</title>
<g id="a_node2"><a xlink:href="../../d3/d9f/CookedTrackerTask_8h.html" target="_top" xlink:title="Definition of the ITS &quot;Cooked Matrix&quot; tracker task. ">
<polygon fill="none" stroke="black" points="66.5,-101 66.5,-175 237.5,-175 237.5,-101 66.5,-101"/>
<text text-anchor="start" x="74.5" y="-163" font-family="Helvetica,sans-Serif" font-size="10.00">/home/travis/build</text>
<text text-anchor="start" x="74.5" y="-152" font-family="Helvetica,sans-Serif" font-size="10.00">/AliceO2Group/AliceO2</text>
<text text-anchor="start" x="74.5" y="-141" font-family="Helvetica,sans-Serif" font-size="10.00">/Detectors/ITSMFT/ITS</text>
<text text-anchor="start" x="74.5" y="-130" font-family="Helvetica,sans-Serif" font-size="10.00">/reconstruction/include</text>
<text text-anchor="start" x="74.5" y="-119" font-family="Helvetica,sans-Serif" font-size="10.00">/ITSReconstruction/CookedTracker</text>
<text text-anchor="middle" x="152" y="-108" font-family="Helvetica,sans-Serif" font-size="10.00">Task.h</text>
</a>
</g>
</g>
<!-- Node1&#45;&gt;Node2 -->
<g id="edge1" class="edge"><title>Node1&#45;&gt;Node2</title>
<path fill="none" stroke="midnightblue" d="M282.194,-207.732C262.211,-197.182 240.28,-185.605 220.208,-175.008"/>
<polygon fill="midnightblue" stroke="midnightblue" points="280.747,-210.926 291.225,-212.499 284.015,-204.735 280.747,-210.926"/>
</g>
<!-- Node5 -->
<g id="node5" class="node"><title>Node5</title>
<g id="a_node5"><a xlink:href="../../d7/dca/CookedTracker_8cxx.html" target="_top" xlink:title="Implementation of the &quot;Cooked Matrix&quot; ITS tracker. ">
<polygon fill="none" stroke="black" points="256,-112 256,-164 442,-164 442,-112 256,-112"/>
<text text-anchor="start" x="264" y="-152" font-family="Helvetica,sans-Serif" font-size="10.00">/home/travis/build</text>
<text text-anchor="start" x="264" y="-141" font-family="Helvetica,sans-Serif" font-size="10.00">/AliceO2Group/AliceO2</text>
<text text-anchor="start" x="264" y="-130" font-family="Helvetica,sans-Serif" font-size="10.00">/Detectors/ITSMFT/ITS</text>
<text text-anchor="middle" x="349" y="-119" font-family="Helvetica,sans-Serif" font-size="10.00">/reconstruction/src/CookedTracker.cxx</text>
</a>
</g>
</g>
<!-- Node1&#45;&gt;Node5 -->
<g id="edge4" class="edge"><title>Node1&#45;&gt;Node5</title>
<path fill="none" stroke="midnightblue" d="M349,-202.316C349,-189.454 349,-175.621 349,-164.175"/>
<polygon fill="midnightblue" stroke="midnightblue" points="345.5,-202.359 349,-212.359 352.5,-202.359 345.5,-202.359"/>
</g>
<!-- Node6 -->
<g id="node6" class="node"><title>Node6</title>
<g id="a_node6"><a xlink:href="../../d2/d0b/CookedTrackerSpec_8h.html" target="_top" xlink:title="/home/travis/build\l/AliceO2Group/AliceO2\l/Detectors/ITSMFT/ITS\l/workflow/include/ITSWorkflow\l/CookedTrackerSpec.h">
<polygon fill="none" stroke="black" points="460,-106.5 460,-169.5 612,-169.5 612,-106.5 460,-106.5"/>
<text text-anchor="start" x="468" y="-157.5" font-family="Helvetica,sans-Serif" font-size="10.00">/home/travis/build</text>
<text text-anchor="start" x="468" y="-146.5" font-family="Helvetica,sans-Serif" font-size="10.00">/AliceO2Group/AliceO2</text>
<text text-anchor="start" x="468" y="-135.5" font-family="Helvetica,sans-Serif" font-size="10.00">/Detectors/ITSMFT/ITS</text>
<text text-anchor="start" x="468" y="-124.5" font-family="Helvetica,sans-Serif" font-size="10.00">/workflow/include/ITSWorkflow</text>
<text text-anchor="middle" x="536" y="-113.5" font-family="Helvetica,sans-Serif" font-size="10.00">/CookedTrackerSpec.h</text>
</a>
</g>
</g>
<!-- Node1&#45;&gt;Node6 -->
<g id="edge5" class="edge"><title>Node1&#45;&gt;Node6</title>
<path fill="none" stroke="midnightblue" d="M412.863,-207.483C435.064,-195.136 459.752,-181.405 481.158,-169.5"/>
<polygon fill="midnightblue" stroke="midnightblue" points="410.881,-204.58 403.843,-212.499 414.283,-210.698 410.881,-204.58"/>
</g>
<!-- Node3 -->
<g id="node3" class="node"><title>Node3</title>
<g id="a_node3"><a xlink:href="../../d5/da2/CookedTrackerTask_8cxx.html" target="_top" xlink:title="Implementation of the ITS &quot;Cooked Matrix&quot; tracker task. ">
<polygon fill="none" stroke="black" points="-0.5,-0.5 -0.5,-63.5 166.5,-63.5 166.5,-0.5 -0.5,-0.5"/>
<text text-anchor="start" x="7.5" y="-51.5" font-family="Helvetica,sans-Serif" font-size="10.00">/home/travis/build</text>
<text text-anchor="start" x="7.5" y="-40.5" font-family="Helvetica,sans-Serif" font-size="10.00">/AliceO2Group/AliceO2</text>
<text text-anchor="start" x="7.5" y="-29.5" font-family="Helvetica,sans-Serif" font-size="10.00">/Detectors/ITSMFT/ITS</text>
<text text-anchor="start" x="7.5" y="-18.5" font-family="Helvetica,sans-Serif" font-size="10.00">/reconstruction/src/CookedTracker</text>
<text text-anchor="middle" x="83" y="-7.5" font-family="Helvetica,sans-Serif" font-size="10.00">Task.cxx</text>
</a>
</g>
</g>
<!-- Node2&#45;&gt;Node3 -->
<g id="edge2" class="edge"><title>Node2&#45;&gt;Node3</title>
<path fill="none" stroke="midnightblue" d="M122.504,-92.5425C116.086,-82.8685 109.431,-72.8386 103.455,-63.8307"/>
<polygon fill="midnightblue" stroke="midnightblue" points="119.616,-94.5199 128.061,-100.918 125.449,-90.6499 119.616,-94.5199"/>
</g>
<!-- Node4 -->
<g id="node4" class="node"><title>Node4</title>
<g id="a_node4"><a xlink:href="../../dd/d4e/run__trac__its_8C.html" target="_top" xlink:title="/home/travis/build\l/AliceO2Group/AliceO2\l/macro/run_trac_its.C">
<polygon fill="none" stroke="black" points="185,-11.5 185,-52.5 303,-52.5 303,-11.5 185,-11.5"/>
<text text-anchor="start" x="193" y="-40.5" font-family="Helvetica,sans-Serif" font-size="10.00">/home/travis/build</text>
<text text-anchor="start" x="193" y="-29.5" font-family="Helvetica,sans-Serif" font-size="10.00">/AliceO2Group/AliceO2</text>
<text text-anchor="middle" x="244" y="-18.5" font-family="Helvetica,sans-Serif" font-size="10.00">/macro/run_trac_its.C</text>
</a>
</g>
</g>
<!-- Node2&#45;&gt;Node4 -->
<g id="edge3" class="edge"><title>Node2&#45;&gt;Node4</title>
<path fill="none" stroke="midnightblue" d="M190.757,-93.188C203.244,-79.0725 216.461,-64.1314 226.603,-52.6667"/>
<polygon fill="midnightblue" stroke="midnightblue" points="187.923,-91.1087 183.919,-100.918 193.166,-95.7467 187.923,-91.1087"/>
</g>
<!-- Node7 -->
<g id="node7" class="node"><title>Node7</title>
<g id="a_node7"><a xlink:href="../../d6/dbc/CookedTrackerSpec_8cxx.html" target="_top" xlink:title="/home/travis/build\l/AliceO2Group/AliceO2\l/Detectors/ITSMFT/ITS\l/workflow/src/CookedTrackerSpec.cxx">
<polygon fill="none" stroke="black" points="382,-6 382,-58 568,-58 568,-6 382,-6"/>
<text text-anchor="start" x="390" y="-46" font-family="Helvetica,sans-Serif" font-size="10.00">/home/travis/build</text>
<text text-anchor="start" x="390" y="-35" font-family="Helvetica,sans-Serif" font-size="10.00">/AliceO2Group/AliceO2</text>
<text text-anchor="start" x="390" y="-24" font-family="Helvetica,sans-Serif" font-size="10.00">/Detectors/ITSMFT/ITS</text>
<text text-anchor="middle" x="475" y="-13" font-family="Helvetica,sans-Serif" font-size="10.00">/workflow/src/CookedTrackerSpec.cxx</text>
</a>
</g>
</g>
<!-- Node6&#45;&gt;Node7 -->
<g id="edge6" class="edge"><title>Node6&#45;&gt;Node7</title>
<path fill="none" stroke="midnightblue" d="M512.808,-97.4596C505.076,-84.2778 496.679,-69.9609 489.766,-58.1755"/>
<polygon fill="midnightblue" stroke="midnightblue" points="509.95,-99.5041 518.028,-106.359 515.988,-95.9625 509.95,-99.5041"/>
</g>
<!-- Node8 -->
<g id="node8" class="node"><title>Node8</title>
<g id="a_node8"><a xlink:href="../../d5/d99/ITSMFT_2ITS_2workflow_2src_2RecoWorkflow_8cxx.html" target="_top" xlink:title="/home/travis/build\l/AliceO2Group/AliceO2\l/Detectors/ITSMFT/ITS\l/workflow/src/RecoWorkflow.cxx">
<polygon fill="none" stroke="black" points="586.5,-6 586.5,-58 747.5,-58 747.5,-6 586.5,-6"/>
<text text-anchor="start" x="594.5" y="-46" font-family="Helvetica,sans-Serif" font-size="10.00">/home/travis/build</text>
<text text-anchor="start" x="594.5" y="-35" font-family="Helvetica,sans-Serif" font-size="10.00">/AliceO2Group/AliceO2</text>
<text text-anchor="start" x="594.5" y="-24" font-family="Helvetica,sans-Serif" font-size="10.00">/Detectors/ITSMFT/ITS</text>
<text text-anchor="middle" x="667" y="-13" font-family="Helvetica,sans-Serif" font-size="10.00">/workflow/src/RecoWorkflow.cxx</text>
</a>
</g>
</g>
<!-- Node6&#45;&gt;Node8 -->
<g id="edge7" class="edge"><title>Node6&#45;&gt;Node8</title>
<path fill="none" stroke="midnightblue" d="M582.474,-100.105C599.968,-86.2165 619.444,-70.7541 635.289,-58.1755"/>
<polygon fill="midnightblue" stroke="midnightblue" points="580.252,-97.4001 574.596,-106.359 584.604,-102.882 580.252,-97.4001"/>
</g>
</g>
</svg>
