<?xml version="1.0" encoding="UTF-8" standalone="no"?>
<!DOCTYPE svg PUBLIC "-//W3C//DTD SVG 1.1//EN"
 "http://www.w3.org/Graphics/SVG/1.1/DTD/svg11.dtd">
<!-- Generated by graphviz version 2.36.0 (20140111.2315)
 -->
<!-- Title: o2::dataformats::TimeStamp&lt; T &gt; Pages: 1 -->
<svg width="1165pt" height="838pt"
 viewBox="0.00 0.00 1165.00 838.00" xmlns="http://www.w3.org/2000/svg" xmlns:xlink="http://www.w3.org/1999/xlink">
<g id="graph0" class="graph" transform="scale(1 1) rotate(0) translate(4 834)">
<title>o2::dataformats::TimeStamp&lt; T &gt;</title>
<!-- Node1 -->
<g id="node1" class="node"><title>Node1</title>
<polygon fill="#bfbfbf" stroke="black" points="507.5,-728.5 507.5,-829.5 672.5,-829.5 672.5,-728.5 507.5,-728.5"/>
<text text-anchor="middle" x="590" y="-817.5" font-family="Helvetica,sans-Serif" font-size="10.00">o2::dataformats::TimeStamp&lt; T &gt;</text>
<polyline fill="none" stroke="black" points="507.5,-810.5 672.5,-810.5 "/>
<text text-anchor="middle" x="590" y="-798.5" font-family="Helvetica,sans-Serif" font-size="10.00"> </text>
<polyline fill="none" stroke="black" points="507.5,-791.5 672.5,-791.5 "/>
<text text-anchor="start" x="515.5" y="-779.5" font-family="Helvetica,sans-Serif" font-size="10.00">+ TimeStamp()</text>
<text text-anchor="start" x="515.5" y="-768.5" font-family="Helvetica,sans-Serif" font-size="10.00">+ TimeStamp()</text>
<text text-anchor="start" x="515.5" y="-757.5" font-family="Helvetica,sans-Serif" font-size="10.00">+ getTimeStamp()</text>
<text text-anchor="start" x="515.5" y="-746.5" font-family="Helvetica,sans-Serif" font-size="10.00">+ setTimeStamp()</text>
<text text-anchor="start" x="515.5" y="-735.5" font-family="Helvetica,sans-Serif" font-size="10.00">+ operator==()</text>
</g>
<!-- Node2 -->
<g id="node2" class="node"><title>Node2</title>
<g id="a_node2"><a xlink:href="../../d3/dbf/classo2_1_1dataformats_1_1TimeStampWithError.html" target="_top" xlink:title="{o2::dataformats::TimeStamp\lWithError\&lt; T \&gt;\n||+ TimeStampWithError()\l+ TimeStampWithError()\l+ getTimeStampError()\l+ setTimeStampError()\l}">
<polygon fill="none" stroke="black" points="-0.5,-484.5 -0.5,-585.5 140.5,-585.5 140.5,-484.5 -0.5,-484.5"/>
<text text-anchor="start" x="7.5" y="-573.5" font-family="Helvetica,sans-Serif" font-size="10.00">o2::dataformats::TimeStamp</text>
<text text-anchor="middle" x="70" y="-562.5" font-family="Helvetica,sans-Serif" font-size="10.00">WithError&lt; T &gt;</text>
<polyline fill="none" stroke="black" points="-0.5,-555.5 140.5,-555.5 "/>
<text text-anchor="middle" x="70" y="-543.5" font-family="Helvetica,sans-Serif" font-size="10.00"> </text>
<polyline fill="none" stroke="black" points="-0.5,-536.5 140.5,-536.5 "/>
<text text-anchor="start" x="7.5" y="-524.5" font-family="Helvetica,sans-Serif" font-size="10.00">+ TimeStampWithError()</text>
<text text-anchor="start" x="7.5" y="-513.5" font-family="Helvetica,sans-Serif" font-size="10.00">+ TimeStampWithError()</text>
<text text-anchor="start" x="7.5" y="-502.5" font-family="Helvetica,sans-Serif" font-size="10.00">+ getTimeStampError()</text>
<text text-anchor="start" x="7.5" y="-491.5" font-family="Helvetica,sans-Serif" font-size="10.00">+ setTimeStampError()</text>
</a>
</g>
</g>
<!-- Node1&#45;&gt;Node2 -->
<g id="edge1" class="edge"><title>Node1&#45;&gt;Node2</title>
<path fill="none" stroke="midnightblue" d="M497.449,-766.425C385.15,-750.858 204.097,-720.398 150,-680 118.721,-656.642 98.054,-617.253 85.5747,-585.57"/>
<polygon fill="none" stroke="midnightblue" points="497.041,-769.902 507.424,-767.794 497.992,-762.967 497.041,-769.902"/>
</g>
<!-- Node5 -->
<g id="node5" class="node"><title>Node5</title>
<g id="a_node5"><a xlink:href="../../d5/d5a/classo2_1_1EMCAL_1_1Digit.html" target="_top" xlink:title="EMCAL digit implementation. ">
<polygon fill="none" stroke="black" points="159,-429.5 159,-640.5 299,-640.5 299,-429.5 159,-429.5"/>
<text text-anchor="middle" x="229" y="-628.5" font-family="Helvetica,sans-Serif" font-size="10.00">o2::EMCAL::Digit&lt; double &gt;</text>
<polyline fill="none" stroke="black" points="159,-621.5 299,-621.5 "/>
<text text-anchor="middle" x="229" y="-609.5" font-family="Helvetica,sans-Serif" font-size="10.00"> </text>
<polyline fill="none" stroke="black" points="159,-602.5 299,-602.5 "/>
<text text-anchor="start" x="167" y="-590.5" font-family="Helvetica,sans-Serif" font-size="10.00">+ Digit()</text>
<text text-anchor="start" x="167" y="-579.5" font-family="Helvetica,sans-Serif" font-size="10.00">+ Digit()</text>
<text text-anchor="start" x="167" y="-568.5" font-family="Helvetica,sans-Serif" font-size="10.00">+ ~Digit()</text>
<text text-anchor="start" x="167" y="-557.5" font-family="Helvetica,sans-Serif" font-size="10.00">+ operator&lt;()</text>
<text text-anchor="start" x="167" y="-546.5" font-family="Helvetica,sans-Serif" font-size="10.00">+ operator&gt;()</text>
<text text-anchor="start" x="167" y="-535.5" font-family="Helvetica,sans-Serif" font-size="10.00">+ operator==()</text>
<text text-anchor="start" x="167" y="-524.5" font-family="Helvetica,sans-Serif" font-size="10.00">+ canAdd()</text>
<text text-anchor="start" x="167" y="-513.5" font-family="Helvetica,sans-Serif" font-size="10.00">+ operator+=()</text>
<text text-anchor="start" x="167" y="-502.5" font-family="Helvetica,sans-Serif" font-size="10.00">+ GetTower()</text>
<text text-anchor="start" x="167" y="-491.5" font-family="Helvetica,sans-Serif" font-size="10.00">+ SetTower()</text>
<text text-anchor="start" x="167" y="-480.5" font-family="Helvetica,sans-Serif" font-size="10.00">+ GetAmplitude()</text>
<text text-anchor="start" x="167" y="-469.5" font-family="Helvetica,sans-Serif" font-size="10.00">+ SetAmplitude()</text>
<text text-anchor="start" x="167" y="-458.5" font-family="Helvetica,sans-Serif" font-size="10.00">+ GetLabel()</text>
<text text-anchor="start" x="167" y="-447.5" font-family="Helvetica,sans-Serif" font-size="10.00">+ SetLabel()</text>
<text text-anchor="start" x="167" y="-436.5" font-family="Helvetica,sans-Serif" font-size="10.00">+ PrintStream()</text>
</a>
</g>
</g>
<!-- Node1&#45;&gt;Node5 -->
<g id="edge4" class="edge"><title>Node1&#45;&gt;Node5</title>
<path fill="none" stroke="midnightblue" d="M497.599,-763.564C437.982,-750.294 361.807,-725.482 308,-680 294.933,-668.955 283.652,-655.178 274.037,-640.555"/>
<polygon fill="none" stroke="midnightblue" points="496.882,-766.989 507.395,-765.674 498.357,-760.146 496.882,-766.989"/>
</g>
<!-- Node6 -->
<g id="node6" class="node"><title>Node6</title>
<g id="a_node6"><a xlink:href="../../db/df9/classo2_1_1fit_1_1Digit.html" target="_top" xlink:title="FIT digit implementation. ">
<polygon fill="none" stroke="black" points="317,-402 317,-668 431,-668 431,-402 317,-402"/>
<text text-anchor="middle" x="374" y="-656" font-family="Helvetica,sans-Serif" font-size="10.00">o2::fit::Digit&lt; double &gt;</text>
<polyline fill="none" stroke="black" points="317,-649 431,-649 "/>
<text text-anchor="middle" x="374" y="-637" font-family="Helvetica,sans-Serif" font-size="10.00"> </text>
<polyline fill="none" stroke="black" points="317,-630 431,-630 "/>
<text text-anchor="start" x="325" y="-618" font-family="Helvetica,sans-Serif" font-size="10.00">+ Digit()</text>
<text text-anchor="start" x="325" y="-607" font-family="Helvetica,sans-Serif" font-size="10.00">+ Digit()</text>
<text text-anchor="start" x="325" y="-596" font-family="Helvetica,sans-Serif" font-size="10.00">+ ~Digit()</text>
<text text-anchor="start" x="325" y="-585" font-family="Helvetica,sans-Serif" font-size="10.00">+ getTime()</text>
<text text-anchor="start" x="325" y="-574" font-family="Helvetica,sans-Serif" font-size="10.00">+ setTime()</text>
<text text-anchor="start" x="325" y="-563" font-family="Helvetica,sans-Serif" font-size="10.00">+ getBC()</text>
<text text-anchor="start" x="325" y="-552" font-family="Helvetica,sans-Serif" font-size="10.00">+ setBC()</text>
<text text-anchor="start" x="325" y="-541" font-family="Helvetica,sans-Serif" font-size="10.00">+ getOrbit()</text>
<text text-anchor="start" x="325" y="-530" font-family="Helvetica,sans-Serif" font-size="10.00">+ setOrbit()</text>
<text text-anchor="start" x="325" y="-519" font-family="Helvetica,sans-Serif" font-size="10.00">+ getisA()</text>
<text text-anchor="start" x="325" y="-508" font-family="Helvetica,sans-Serif" font-size="10.00">+ getisC()</text>
<text text-anchor="start" x="325" y="-497" font-family="Helvetica,sans-Serif" font-size="10.00">+ getisCnt()</text>
<text text-anchor="start" x="325" y="-486" font-family="Helvetica,sans-Serif" font-size="10.00">+ getisSCnt()</text>
<text text-anchor="start" x="325" y="-475" font-family="Helvetica,sans-Serif" font-size="10.00">+ getisVrtx()</text>
<text text-anchor="start" x="325" y="-464" font-family="Helvetica,sans-Serif" font-size="10.00">+ setTriggers()</text>
<text text-anchor="start" x="325" y="-453" font-family="Helvetica,sans-Serif" font-size="10.00">+ getChDgData()</text>
<text text-anchor="start" x="325" y="-442" font-family="Helvetica,sans-Serif" font-size="10.00">+ setChDgData()</text>
<text text-anchor="start" x="325" y="-431" font-family="Helvetica,sans-Serif" font-size="10.00">+ setChDgData()</text>
<text text-anchor="start" x="325" y="-420" font-family="Helvetica,sans-Serif" font-size="10.00">+ printStream()</text>
<text text-anchor="start" x="325" y="-409" font-family="Helvetica,sans-Serif" font-size="10.00">+ cleardigits()</text>
</a>
</g>
</g>
<!-- Node1&#45;&gt;Node6 -->
<g id="edge5" class="edge"><title>Node1&#45;&gt;Node6</title>
<path fill="none" stroke="midnightblue" d="M498.768,-730.105C477.609,-716.006 456.486,-699.145 440,-680 436.77,-676.249 433.668,-672.314 430.691,-668.238"/>
<polygon fill="none" stroke="midnightblue" points="496.893,-733.06 507.186,-735.573 500.706,-727.19 496.893,-733.06"/>
</g>
<!-- Node7 -->
<g id="node7" class="node"><title>Node7</title>
<g id="a_node7"><a xlink:href="../../d3/d03/classo2_1_1hmpid_1_1Digit.html" target="_top" xlink:title="HMPID digit implementation. ">
<polygon fill="none" stroke="black" points="449,-457 449,-613 583,-613 583,-457 449,-457"/>
<text text-anchor="middle" x="516" y="-601" font-family="Helvetica,sans-Serif" font-size="10.00">o2::hmpid::Digit&lt; double &gt;</text>
<polyline fill="none" stroke="black" points="449,-594 583,-594 "/>
<text text-anchor="middle" x="516" y="-582" font-family="Helvetica,sans-Serif" font-size="10.00"> </text>
<polyline fill="none" stroke="black" points="449,-575 583,-575 "/>
<text text-anchor="start" x="457" y="-563" font-family="Helvetica,sans-Serif" font-size="10.00">+ Digit()</text>
<text text-anchor="start" x="457" y="-552" font-family="Helvetica,sans-Serif" font-size="10.00">+ Digit()</text>
<text text-anchor="start" x="457" y="-541" font-family="Helvetica,sans-Serif" font-size="10.00">+ getCharge()</text>
<text text-anchor="start" x="457" y="-530" font-family="Helvetica,sans-Serif" font-size="10.00">+ getPadID()</text>
<text text-anchor="start" x="457" y="-519" font-family="Helvetica,sans-Serif" font-size="10.00">+ getPx()</text>
<text text-anchor="start" x="457" y="-508" font-family="Helvetica,sans-Serif" font-size="10.00">+ getPy()</text>
<text text-anchor="start" x="457" y="-497" font-family="Helvetica,sans-Serif" font-size="10.00">+ addCharge()</text>
<text text-anchor="start" x="457" y="-486" font-family="Helvetica,sans-Serif" font-size="10.00">+ getPadAndTotalCharge()</text>
<text text-anchor="start" x="457" y="-475" font-family="Helvetica,sans-Serif" font-size="10.00">+ getFractionalContribution</text>
<text text-anchor="start" x="457" y="-464" font-family="Helvetica,sans-Serif" font-size="10.00">ForPad()</text>
</a>
</g>
</g>
<!-- Node1&#45;&gt;Node7 -->
<g id="edge6" class="edge"><title>Node1&#45;&gt;Node7</title>
<path fill="none" stroke="midnightblue" d="M571.907,-718.83C562.173,-686.997 550.051,-647.356 539.586,-613.132"/>
<polygon fill="none" stroke="midnightblue" points="568.575,-719.904 574.846,-728.444 575.269,-717.857 568.575,-719.904"/>
</g>
<!-- Node8 -->
<g id="node8" class="node"><title>Node8</title>
<g id="a_node8"><a xlink:href="../../da/d30/classo2_1_1mch_1_1Digit.html" target="_top" xlink:title="{o2::mch::Digit\&lt; double \&gt;\n||+ Digit()\l+ Digit()\l+ ~Digit()\l+ getPadID()\l+ setPadID()\l+ getADC()\l+ setADC()\l+ getLabelIndex()\l+ setLabelIndex()\l}">
<polygon fill="none" stroke="black" points="601.5,-462.5 601.5,-607.5 726.5,-607.5 726.5,-462.5 601.5,-462.5"/>
<text text-anchor="middle" x="664" y="-595.5" font-family="Helvetica,sans-Serif" font-size="10.00">o2::mch::Digit&lt; double &gt;</text>
<polyline fill="none" stroke="black" points="601.5,-588.5 726.5,-588.5 "/>
<text text-anchor="middle" x="664" y="-576.5" font-family="Helvetica,sans-Serif" font-size="10.00"> </text>
<polyline fill="none" stroke="black" points="601.5,-569.5 726.5,-569.5 "/>
<text text-anchor="start" x="609.5" y="-557.5" font-family="Helvetica,sans-Serif" font-size="10.00">+ Digit()</text>
<text text-anchor="start" x="609.5" y="-546.5" font-family="Helvetica,sans-Serif" font-size="10.00">+ Digit()</text>
<text text-anchor="start" x="609.5" y="-535.5" font-family="Helvetica,sans-Serif" font-size="10.00">+ ~Digit()</text>
<text text-anchor="start" x="609.5" y="-524.5" font-family="Helvetica,sans-Serif" font-size="10.00">+ getPadID()</text>
<text text-anchor="start" x="609.5" y="-513.5" font-family="Helvetica,sans-Serif" font-size="10.00">+ setPadID()</text>
<text text-anchor="start" x="609.5" y="-502.5" font-family="Helvetica,sans-Serif" font-size="10.00">+ getADC()</text>
<text text-anchor="start" x="609.5" y="-491.5" font-family="Helvetica,sans-Serif" font-size="10.00">+ setADC()</text>
<text text-anchor="start" x="609.5" y="-480.5" font-family="Helvetica,sans-Serif" font-size="10.00">+ getLabelIndex()</text>
<text text-anchor="start" x="609.5" y="-469.5" font-family="Helvetica,sans-Serif" font-size="10.00">+ setLabelIndex()</text>
</a>
</g>
</g>
<!-- Node1&#45;&gt;Node8 -->
<g id="edge7" class="edge"><title>Node1&#45;&gt;Node8</title>
<path fill="none" stroke="midnightblue" d="M608.112,-718.768C618.38,-685.189 631.3,-642.937 642.131,-607.519"/>
<polygon fill="none" stroke="midnightblue" points="604.731,-717.857 605.154,-728.444 611.425,-719.904 604.731,-717.857"/>
</g>
<!-- Node9 -->
<g id="node9" class="node"><title>Node9</title>
<g id="a_node9"><a xlink:href="../../df/dbc/classo2_1_1phos_1_1Digit.html" target="_top" xlink:title="{o2::phos::Digit\&lt; double \&gt;\n|+ kMaxLabels\l+ kTimeGate\l|+ Digit()\l+ Digit()\l+ Digit()\l+ ~Digit()\l+ FillFromHit()\l+ operator\&lt;()\l+ operator\&gt;()\l+ canAdd()\l+ operator+=()\l+ getAbsId()\l+ setAbsId()\l+ getAmplitude()\l+ setAmplitude()\l+ getTime()\l+ setTime()\l+ isHighGain()\l+ setHighGain()\l+ getLabel()\l+ getLabelEProp()\l+ getNLabels()\l+ PrintStream()\l}">
<polygon fill="none" stroke="black" points="744.5,-391 744.5,-679 871.5,-679 871.5,-391 744.5,-391"/>
<text text-anchor="middle" x="808" y="-667" font-family="Helvetica,sans-Serif" font-size="10.00">o2::phos::Digit&lt; double &gt;</text>
<polyline fill="none" stroke="black" points="744.5,-660 871.5,-660 "/>
<text text-anchor="start" x="752.5" y="-648" font-family="Helvetica,sans-Serif" font-size="10.00">+ kMaxLabels</text>
<text text-anchor="start" x="752.5" y="-637" font-family="Helvetica,sans-Serif" font-size="10.00">+ kTimeGate</text>
<polyline fill="none" stroke="black" points="744.5,-630 871.5,-630 "/>
<text text-anchor="start" x="752.5" y="-618" font-family="Helvetica,sans-Serif" font-size="10.00">+ Digit()</text>
<text text-anchor="start" x="752.5" y="-607" font-family="Helvetica,sans-Serif" font-size="10.00">+ Digit()</text>
<text text-anchor="start" x="752.5" y="-596" font-family="Helvetica,sans-Serif" font-size="10.00">+ Digit()</text>
<text text-anchor="start" x="752.5" y="-585" font-family="Helvetica,sans-Serif" font-size="10.00">+ ~Digit()</text>
<text text-anchor="start" x="752.5" y="-574" font-family="Helvetica,sans-Serif" font-size="10.00">+ FillFromHit()</text>
<text text-anchor="start" x="752.5" y="-563" font-family="Helvetica,sans-Serif" font-size="10.00">+ operator&lt;()</text>
<text text-anchor="start" x="752.5" y="-552" font-family="Helvetica,sans-Serif" font-size="10.00">+ operator&gt;()</text>
<text text-anchor="start" x="752.5" y="-541" font-family="Helvetica,sans-Serif" font-size="10.00">+ canAdd()</text>
<text text-anchor="start" x="752.5" y="-530" font-family="Helvetica,sans-Serif" font-size="10.00">+ operator+=()</text>
<text text-anchor="start" x="752.5" y="-519" font-family="Helvetica,sans-Serif" font-size="10.00">+ getAbsId()</text>
<text text-anchor="start" x="752.5" y="-508" font-family="Helvetica,sans-Serif" font-size="10.00">+ setAbsId()</text>
<text text-anchor="start" x="752.5" y="-497" font-family="Helvetica,sans-Serif" font-size="10.00">+ getAmplitude()</text>
<text text-anchor="start" x="752.5" y="-486" font-family="Helvetica,sans-Serif" font-size="10.00">+ setAmplitude()</text>
<text text-anchor="start" x="752.5" y="-475" font-family="Helvetica,sans-Serif" font-size="10.00">+ getTime()</text>
<text text-anchor="start" x="752.5" y="-464" font-family="Helvetica,sans-Serif" font-size="10.00">+ setTime()</text>
<text text-anchor="start" x="752.5" y="-453" font-family="Helvetica,sans-Serif" font-size="10.00">+ isHighGain()</text>
<text text-anchor="start" x="752.5" y="-442" font-family="Helvetica,sans-Serif" font-size="10.00">+ setHighGain()</text>
<text text-anchor="start" x="752.5" y="-431" font-family="Helvetica,sans-Serif" font-size="10.00">+ getLabel()</text>
<text text-anchor="start" x="752.5" y="-420" font-family="Helvetica,sans-Serif" font-size="10.00">+ getLabelEProp()</text>
<text text-anchor="start" x="752.5" y="-409" font-family="Helvetica,sans-Serif" font-size="10.00">+ getNLabels()</text>
<text text-anchor="start" x="752.5" y="-398" font-family="Helvetica,sans-Serif" font-size="10.00">+ PrintStream()</text>
</a>
</g>
</g>
<!-- Node1&#45;&gt;Node9 -->
<g id="edge8" class="edge"><title>Node1&#45;&gt;Node9</title>
<path fill="none" stroke="midnightblue" d="M680.838,-726.999C700.239,-713.402 719.524,-697.545 735,-680 738.245,-676.321 741.387,-672.473 744.426,-668.495"/>
<polygon fill="none" stroke="midnightblue" points="678.803,-724.15 672.526,-732.686 682.756,-729.927 678.803,-724.15"/>
</g>
<!-- Node10 -->
<g id="node10" class="node"><title>Node10</title>
<g id="a_node10"><a xlink:href="../../dd/def/classo2_1_1TPC_1_1Digit.html" target="_top" xlink:title="{o2::TPC::Digit\&lt; int \&gt;\n|# mCharge\l# mCRU\l# mRow\l# mPad\l|+ Digit()\l+ Digit()\l+ ~Digit()\l+ getCharge()\l+ getChargeFloat()\l+ getCRU()\l+ getRow()\l+ getPad()\l# ClassDefNV()\l}">
<polygon fill="none" stroke="black" points="890,-446 890,-624 998,-624 998,-446 890,-446"/>
<text text-anchor="middle" x="944" y="-612" font-family="Helvetica,sans-Serif" font-size="10.00">o2::TPC::Digit&lt; int &gt;</text>
<polyline fill="none" stroke="black" points="890,-605 998,-605 "/>
<text text-anchor="start" x="898" y="-593" font-family="Helvetica,sans-Serif" font-size="10.00"># mCharge</text>
<text text-anchor="start" x="898" y="-582" font-family="Helvetica,sans-Serif" font-size="10.00"># mCRU</text>
<text text-anchor="start" x="898" y="-571" font-family="Helvetica,sans-Serif" font-size="10.00"># mRow</text>
<text text-anchor="start" x="898" y="-560" font-family="Helvetica,sans-Serif" font-size="10.00"># mPad</text>
<polyline fill="none" stroke="black" points="890,-553 998,-553 "/>
<text text-anchor="start" x="898" y="-541" font-family="Helvetica,sans-Serif" font-size="10.00">+ Digit()</text>
<text text-anchor="start" x="898" y="-530" font-family="Helvetica,sans-Serif" font-size="10.00">+ Digit()</text>
<text text-anchor="start" x="898" y="-519" font-family="Helvetica,sans-Serif" font-size="10.00">+ ~Digit()</text>
<text text-anchor="start" x="898" y="-508" font-family="Helvetica,sans-Serif" font-size="10.00">+ getCharge()</text>
<text text-anchor="start" x="898" y="-497" font-family="Helvetica,sans-Serif" font-size="10.00">+ getChargeFloat()</text>
<text text-anchor="start" x="898" y="-486" font-family="Helvetica,sans-Serif" font-size="10.00">+ getCRU()</text>
<text text-anchor="start" x="898" y="-475" font-family="Helvetica,sans-Serif" font-size="10.00">+ getRow()</text>
<text text-anchor="start" x="898" y="-464" font-family="Helvetica,sans-Serif" font-size="10.00">+ getPad()</text>
<text text-anchor="start" x="898" y="-453" font-family="Helvetica,sans-Serif" font-size="10.00"># ClassDefNV()</text>
</a>
</g>
</g>
<!-- Node1&#45;&gt;Node10 -->
<g id="edge9" class="edge"><title>Node1&#45;&gt;Node10</title>
<path fill="none" stroke="midnightblue" d="M682.385,-766.441C744.811,-754.32 825.48,-729.705 880,-680 896.578,-664.886 909.102,-644.68 918.469,-624.195"/>
<polygon fill="none" stroke="midnightblue" points="681.718,-763.005 672.53,-768.281 683.002,-769.886 681.718,-763.005"/>
</g>
<!-- Node11 -->
<g id="node11" class="node"><title>Node11</title>
<g id="a_node11"><a xlink:href="../../d0/d94/classo2_1_1dataformats_1_1TimeStamp.html" target="_top" xlink:title="{o2::dataformats::TimeStamp\l\&lt; float \&gt;\n||+ TimeStamp()\l+ TimeStamp()\l+ getTimeStamp()\l+ setTimeStamp()\l+ operator==()\l}">
<polygon fill="none" stroke="black" points="1016.5,-479 1016.5,-591 1157.5,-591 1157.5,-479 1016.5,-479"/>
<text text-anchor="start" x="1024.5" y="-579" font-family="Helvetica,sans-Serif" font-size="10.00">o2::dataformats::TimeStamp</text>
<text text-anchor="middle" x="1087" y="-568" font-family="Helvetica,sans-Serif" font-size="10.00">&lt; float &gt;</text>
<polyline fill="none" stroke="black" points="1016.5,-561 1157.5,-561 "/>
<text text-anchor="middle" x="1087" y="-549" font-family="Helvetica,sans-Serif" font-size="10.00"> </text>
<polyline fill="none" stroke="black" points="1016.5,-542 1157.5,-542 "/>
<text text-anchor="start" x="1024.5" y="-530" font-family="Helvetica,sans-Serif" font-size="10.00">+ TimeStamp()</text>
<text text-anchor="start" x="1024.5" y="-519" font-family="Helvetica,sans-Serif" font-size="10.00">+ TimeStamp()</text>
<text text-anchor="start" x="1024.5" y="-508" font-family="Helvetica,sans-Serif" font-size="10.00">+ getTimeStamp()</text>
<text text-anchor="start" x="1024.5" y="-497" font-family="Helvetica,sans-Serif" font-size="10.00">+ setTimeStamp()</text>
<text text-anchor="start" x="1024.5" y="-486" font-family="Helvetica,sans-Serif" font-size="10.00">+ operator==()</text>
</a>
</g>
</g>
<!-- Node1&#45;&gt;Node11 -->
<g id="edge10" class="edge"><title>Node1&#45;&gt;Node11</title>
<path fill="none" stroke="orange" d="M682.717,-777.215C773.752,-771.972 912.363,-751.536 1007,-680 1036.32,-657.84 1056.36,-621.645 1069.05,-591.088"/>
<polygon fill="orange" stroke="orange" points="682.486,-773.722 672.684,-777.743 682.854,-780.713 682.486,-773.722"/>
<text text-anchor="middle" x="998" y="-701.5" font-family="Helvetica,sans-Serif" font-size="10.00"> &lt; float &gt;</text>
</g>
<!-- Node3 -->
<g id="node3" class="node"><title>Node3</title>
<g id="a_node3"><a xlink:href="../../d3/dbf/classo2_1_1dataformats_1_1TimeStampWithError.html" target="_top" xlink:title="{o2::dataformats::TimeStamp\lWithError\&lt; float, float \&gt;\n||+ TimeStampWithError()\l+ TimeStampWithError()\l+ getTimeStampError()\l+ setTimeStampError()\l}">
<polygon fill="none" stroke="black" points="624.5,-240.5 624.5,-341.5 765.5,-341.5 765.5,-240.5 624.5,-240.5"/>
<text text-anchor="start" x="632.5" y="-329.5" font-family="Helvetica,sans-Serif" font-size="10.00">o2::dataformats::TimeStamp</text>
<text text-anchor="middle" x="695" y="-318.5" font-family="Helvetica,sans-Serif" font-size="10.00">WithError&lt; float, float &gt;</text>
<polyline fill="none" stroke="black" points="624.5,-311.5 765.5,-311.5 "/>
<text text-anchor="middle" x="695" y="-299.5" font-family="Helvetica,sans-Serif" font-size="10.00"> </text>
<polyline fill="none" stroke="black" points="624.5,-292.5 765.5,-292.5 "/>
<text text-anchor="start" x="632.5" y="-280.5" font-family="Helvetica,sans-Serif" font-size="10.00">+ TimeStampWithError()</text>
<text text-anchor="start" x="632.5" y="-269.5" font-family="Helvetica,sans-Serif" font-size="10.00">+ TimeStampWithError()</text>
<text text-anchor="start" x="632.5" y="-258.5" font-family="Helvetica,sans-Serif" font-size="10.00">+ getTimeStampError()</text>
<text text-anchor="start" x="632.5" y="-247.5" font-family="Helvetica,sans-Serif" font-size="10.00">+ setTimeStampError()</text>
</a>
</g>
</g>
<!-- Node2&#45;&gt;Node3 -->
<g id="edge2" class="edge"><title>Node2&#45;&gt;Node3</title>
<path fill="none" stroke="orange" d="M88.9827,-474.804C101.604,-444.848 121.242,-410.565 150,-390 225.167,-336.246 494.798,-307.959 624.426,-297.205"/>
<polygon fill="orange" stroke="orange" points="85.625,-473.772 85.1289,-484.355 92.1165,-476.391 85.625,-473.772"/>
<text text-anchor="middle" x="243.5" y="-363.5" font-family="Helvetica,sans-Serif" font-size="10.00"> &lt; float, float &gt;</text>
</g>
<!-- Node4 -->
<g id="node4" class="node"><title>Node4</title>
<g id="a_node4"><a xlink:href="../../de/dd5/classo2_1_1TPC_1_1Cluster.html" target="_top" xlink:title="Cluster class for the TPC. ">
<polygon fill="none" stroke="black" points="647.5,-1 647.5,-201 742.5,-201 742.5,-1 647.5,-1"/>
<text text-anchor="middle" x="695" y="-189" font-family="Helvetica,sans-Serif" font-size="10.00">o2::TPC::Cluster</text>
<polyline fill="none" stroke="black" points="647.5,-182 742.5,-182 "/>
<text text-anchor="middle" x="695" y="-170" font-family="Helvetica,sans-Serif" font-size="10.00"> </text>
<polyline fill="none" stroke="black" points="647.5,-163 742.5,-163 "/>
<text text-anchor="start" x="655.5" y="-151" font-family="Helvetica,sans-Serif" font-size="10.00">+ Cluster()</text>
<text text-anchor="start" x="655.5" y="-140" font-family="Helvetica,sans-Serif" font-size="10.00">+ Cluster()</text>
<text text-anchor="start" x="655.5" y="-129" font-family="Helvetica,sans-Serif" font-size="10.00">+ ~Cluster()</text>
<text text-anchor="start" x="655.5" y="-118" font-family="Helvetica,sans-Serif" font-size="10.00">+ Cluster()</text>
<text text-anchor="start" x="655.5" y="-107" font-family="Helvetica,sans-Serif" font-size="10.00">+ setParameters()</text>
<text text-anchor="start" x="655.5" y="-96" font-family="Helvetica,sans-Serif" font-size="10.00">+ getCRU()</text>
<text text-anchor="start" x="655.5" y="-85" font-family="Helvetica,sans-Serif" font-size="10.00">+ getRow()</text>
<text text-anchor="start" x="655.5" y="-74" font-family="Helvetica,sans-Serif" font-size="10.00">+ getQ()</text>
<text text-anchor="start" x="655.5" y="-63" font-family="Helvetica,sans-Serif" font-size="10.00">+ getQmax()</text>
<text text-anchor="start" x="655.5" y="-52" font-family="Helvetica,sans-Serif" font-size="10.00">+ getPadMean()</text>
<text text-anchor="start" x="655.5" y="-41" font-family="Helvetica,sans-Serif" font-size="10.00">+ getTimeMean()</text>
<text text-anchor="start" x="655.5" y="-30" font-family="Helvetica,sans-Serif" font-size="10.00">+ getPadSigma()</text>
<text text-anchor="start" x="655.5" y="-19" font-family="Helvetica,sans-Serif" font-size="10.00">+ getTimeSigma()</text>
<text text-anchor="start" x="655.5" y="-8" font-family="Helvetica,sans-Serif" font-size="10.00"># print()</text>
</a>
</g>
</g>
<!-- Node3&#45;&gt;Node4 -->
<g id="edge3" class="edge"><title>Node3&#45;&gt;Node4</title>
<path fill="none" stroke="midnightblue" d="M695,-229.949C695,-220.737 695,-211.023 695,-201.233"/>
<polygon fill="none" stroke="midnightblue" points="691.5,-230.113 695,-240.113 698.5,-230.113 691.5,-230.113"/>
</g>
<!-- Node11&#45;&gt;Node3 -->
<g id="edge11" class="edge"><title>Node11&#45;&gt;Node3</title>
<path fill="none" stroke="midnightblue" d="M1063.97,-469.654C1051.08,-441.709 1032.39,-410.702 1007,-390 937.144,-333.044 833.948,-309.042 765.624,-299.025"/>
<polygon fill="none" stroke="midnightblue" points="1060.87,-471.28 1068.13,-478.995 1067.26,-468.435 1060.87,-471.28"/>
</g>
</g>
</svg>
