<?xml version="1.0" encoding="UTF-8" standalone="no"?>
<!DOCTYPE svg PUBLIC "-//W3C//DTD SVG 1.1//EN"
 "http://www.w3.org/Graphics/SVG/1.1/DTD/svg11.dtd">
<!-- Generated by graphviz version 2.36.0 (20140111.2315)
 -->
<!-- Title: /home/travis/build/AliceO2Group/AliceO2/macro/compareHits.C Pages: 1 -->
<svg width="2282pt" height="366pt"
 viewBox="0.00 0.00 2281.80 366.00" xmlns="http://www.w3.org/2000/svg" xmlns:xlink="http://www.w3.org/1999/xlink">
<g id="graph0" class="graph" transform="scale(1 1) rotate(0) translate(4 362)">
<title>/home/travis/build/AliceO2Group/AliceO2/macro/compareHits.C</title>
<!-- Node1 -->
<g id="node1" class="node"><title>Node1</title>
<polygon fill="#bfbfbf" stroke="black" points="1108.8,-316.5 1108.8,-357.5 1226.8,-357.5 1226.8,-316.5 1108.8,-316.5"/>
<text text-anchor="start" x="1116.8" y="-345.5" font-family="Helvetica,sans-Serif" font-size="10.00">/home/travis/build</text>
<text text-anchor="start" x="1116.8" y="-334.5" font-family="Helvetica,sans-Serif" font-size="10.00">/AliceO2Group/AliceO2</text>
<text text-anchor="middle" x="1167.8" y="-323.5" font-family="Helvetica,sans-Serif" font-size="10.00">/macro/compareHits.C</text>
</g>
<!-- Node2 -->
<g id="node2" class="node"><title>Node2</title>
<polygon fill="none" stroke="#bfbfbf" points="893.297,-260.5 893.297,-279.5 940.297,-279.5 940.297,-260.5 893.297,-260.5"/>
<text text-anchor="middle" x="916.797" y="-267.5" font-family="Helvetica,sans-Serif" font-size="10.00">TFile.h</text>
</g>
<!-- Node1&#45;&gt;Node2 -->
<g id="edge1" class="edge"><title>Node1&#45;&gt;Node2</title>
<path fill="none" stroke="midnightblue" d="M1108.52,-321.025C1066.96,-310.467 1009.84,-295.844 950.507,-280.16"/>
<polygon fill="midnightblue" stroke="midnightblue" points="951.142,-276.707 940.579,-277.531 949.35,-283.474 951.142,-276.707"/>
</g>
<!-- Node3 -->
<g id="node3" class="node"><title>Node3</title>
<polygon fill="none" stroke="#bfbfbf" points="958.797,-260.5 958.797,-279.5 1008.8,-279.5 1008.8,-260.5 958.797,-260.5"/>
<text text-anchor="middle" x="983.797" y="-267.5" font-family="Helvetica,sans-Serif" font-size="10.00">TTree.h</text>
</g>
<!-- Node1&#45;&gt;Node3 -->
<g id="edge2" class="edge"><title>Node1&#45;&gt;Node3</title>
<path fill="none" stroke="midnightblue" d="M1112.59,-316.498C1081.8,-305.622 1044.43,-292.421 1017.9,-283.045"/>
<polygon fill="midnightblue" stroke="midnightblue" points="1018.89,-279.683 1008.29,-279.652 1016.55,-286.284 1018.89,-279.683"/>
</g>
<!-- Node4 -->
<g id="node4" class="node"><title>Node4</title>
<g id="a_node4"><a xlink:href="../../d0/dae/ITSMFT_2common_2simulation_2include_2ITSMFTSimulation_2Hit_8h.html" target="_top" xlink:title="ITSMFTSimulation/Hit.h">
<polygon fill="none" stroke="black" points="1492.8,-260.5 1492.8,-279.5 1614.8,-279.5 1614.8,-260.5 1492.8,-260.5"/>
<text text-anchor="middle" x="1553.8" y="-267.5" font-family="Helvetica,sans-Serif" font-size="10.00">ITSMFTSimulation/Hit.h</text>
</a>
</g>
</g>
<!-- Node1&#45;&gt;Node4 -->
<g id="edge3" class="edge"><title>Node1&#45;&gt;Node4</title>
<path fill="none" stroke="midnightblue" d="M1226.84,-326.057C1298.95,-313.914 1420.29,-293.482 1493.13,-281.216"/>
<polygon fill="midnightblue" stroke="midnightblue" points="1493.79,-284.653 1503.07,-279.541 1492.63,-277.751 1493.79,-284.653"/>
</g>
<!-- Node26 -->
<g id="node26" class="node"><title>Node26</title>
<g id="a_node26"><a xlink:href="../../d5/d3c/TOF_2simulation_2include_2TOFSimulation_2Detector_8h.html" target="_top" xlink:title="TOFSimulation/Detector.h">
<polygon fill="none" stroke="black" points="1027.3,-260.5 1027.3,-279.5 1158.3,-279.5 1158.3,-260.5 1027.3,-260.5"/>
<text text-anchor="middle" x="1092.8" y="-267.5" font-family="Helvetica,sans-Serif" font-size="10.00">TOFSimulation/Detector.h</text>
</a>
</g>
</g>
<!-- Node1&#45;&gt;Node26 -->
<g id="edge27" class="edge"><title>Node1&#45;&gt;Node26</title>
<path fill="none" stroke="midnightblue" d="M1145.29,-316.498C1134.13,-306.82 1120.84,-295.3 1110.42,-286.274"/>
<polygon fill="midnightblue" stroke="midnightblue" points="1112.63,-283.557 1102.78,-279.652 1108.05,-288.847 1112.63,-283.557"/>
</g>
<!-- Node44 -->
<g id="node44" class="node"><title>Node44</title>
<g id="a_node44"><a xlink:href="../../d5/d8b/EMCAL_2base_2include_2EMCALBase_2Hit_8h.html" target="_top" xlink:title="EMCALBase/Hit.h">
<polygon fill="none" stroke="black" points="1326.8,-260.5 1326.8,-279.5 1424.8,-279.5 1424.8,-260.5 1326.8,-260.5"/>
<text text-anchor="middle" x="1375.8" y="-267.5" font-family="Helvetica,sans-Serif" font-size="10.00">EMCALBase/Hit.h</text>
</a>
</g>
</g>
<!-- Node1&#45;&gt;Node44 -->
<g id="edge55" class="edge"><title>Node1&#45;&gt;Node44</title>
<path fill="none" stroke="midnightblue" d="M1226.85,-317.547C1262.93,-306.27 1307.97,-292.197 1339.01,-282.495"/>
<polygon fill="midnightblue" stroke="midnightblue" points="1340.07,-285.831 1348.57,-279.507 1337.99,-279.149 1340.07,-285.831"/>
</g>
<!-- Node45 -->
<g id="node45" class="node"><title>Node45</title>
<g id="a_node45"><a xlink:href="../../df/df0/TRD_2simulation_2include_2TRDSimulation_2Detector_8h.html" target="_top" xlink:title="TRDSimulation/Detector.h">
<polygon fill="none" stroke="black" points="1176.8,-260.5 1176.8,-279.5 1308.8,-279.5 1308.8,-260.5 1176.8,-260.5"/>
<text text-anchor="middle" x="1242.8" y="-267.5" font-family="Helvetica,sans-Serif" font-size="10.00">TRDSimulation/Detector.h</text>
</a>
</g>
</g>
<!-- Node1&#45;&gt;Node45 -->
<g id="edge58" class="edge"><title>Node1&#45;&gt;Node45</title>
<path fill="none" stroke="midnightblue" d="M1190.3,-316.498C1201.47,-306.82 1214.76,-295.3 1225.17,-286.274"/>
<polygon fill="midnightblue" stroke="midnightblue" points="1227.55,-288.847 1232.81,-279.652 1222.96,-283.557 1227.55,-288.847"/>
</g>
<!-- Node5 -->
<g id="node5" class="node"><title>Node5</title>
<g id="a_node5"><a xlink:href="../../d4/d25/BaseHits_8h.html" target="_top" xlink:title="SimulationDataFormat\l/BaseHits.h">
<polygon fill="none" stroke="black" points="1392.8,-193 1392.8,-223 1506.8,-223 1506.8,-193 1392.8,-193"/>
<text text-anchor="start" x="1400.8" y="-211" font-family="Helvetica,sans-Serif" font-size="10.00">SimulationDataFormat</text>
<text text-anchor="middle" x="1449.8" y="-200" font-family="Helvetica,sans-Serif" font-size="10.00">/BaseHits.h</text>
</a>
</g>
</g>
<!-- Node4&#45;&gt;Node5 -->
<g id="edge4" class="edge"><title>Node4&#45;&gt;Node5</title>
<path fill="none" stroke="midnightblue" d="M1538.9,-260.403C1524.42,-252.049 1501.93,-239.075 1483.17,-228.252"/>
<polygon fill="midnightblue" stroke="midnightblue" points="1484.72,-225.106 1474.31,-223.141 1481.22,-231.17 1484.72,-225.106"/>
</g>
<!-- Node12 -->
<g id="node12" class="node"><title>Node12</title>
<polygon fill="none" stroke="#bfbfbf" points="626.797,-74.5 626.797,-93.5 682.797,-93.5 682.797,-74.5 626.797,-74.5"/>
<text text-anchor="middle" x="654.797" y="-81.5" font-family="Helvetica,sans-Serif" font-size="10.00">Rtypes.h</text>
</g>
<!-- Node4&#45;&gt;Node12 -->
<g id="edge17" class="edge"><title>Node4&#45;&gt;Node12</title>
<path fill="none" stroke="midnightblue" d="M1554.73,-260.042C1555.86,-244.707 1556.08,-213.045 1541.8,-192 1514.27,-151.449 1493.73,-150.12 1446.8,-136 1298.91,-91.5099 906.426,-115.702 752.797,-100 732.952,-97.9717 710.989,-94.7055 692.894,-91.7379"/>
<polygon fill="midnightblue" stroke="midnightblue" points="693.446,-88.2817 683.005,-90.0835 692.291,-95.1857 693.446,-88.2817"/>
</g>
<!-- Node14 -->
<g id="node14" class="node"><title>Node14</title>
<polygon fill="none" stroke="#bfbfbf" points="2175.3,-74.5 2175.3,-93.5 2220.3,-93.5 2220.3,-74.5 2175.3,-74.5"/>
<text text-anchor="middle" x="2197.8" y="-81.5" font-family="Helvetica,sans-Serif" font-size="10.00">iosfwd</text>
</g>
<!-- Node4&#45;&gt;Node14 -->
<g id="edge19" class="edge"><title>Node4&#45;&gt;Node14</title>
<path fill="none" stroke="midnightblue" d="M1575.82,-260.467C1615.29,-245.368 1700.87,-213.513 1774.8,-192 1946.21,-142.119 1997.18,-158.645 2165.8,-100 2167.71,-99.3349 2169.66,-98.592 2171.61,-97.8024"/>
<polygon fill="midnightblue" stroke="midnightblue" points="2173.39,-100.843 2181.13,-93.6096 2170.57,-94.4366 2173.39,-100.843"/>
</g>
<!-- Node18 -->
<g id="node18" class="node"><title>Node18</title>
<polygon fill="none" stroke="#bfbfbf" points="1783.3,-198.5 1783.3,-217.5 1848.3,-217.5 1848.3,-198.5 1783.3,-198.5"/>
<text text-anchor="middle" x="1815.8" y="-205.5" font-family="Helvetica,sans-Serif" font-size="10.00">TVector3.h</text>
</g>
<!-- Node4&#45;&gt;Node18 -->
<g id="edge18" class="edge"><title>Node4&#45;&gt;Node18</title>
<path fill="none" stroke="midnightblue" d="M1601.52,-260.467C1645.31,-252.294 1711.82,-239.012 1768.8,-224 1772.69,-222.974 1776.74,-221.818 1780.76,-220.616"/>
<polygon fill="midnightblue" stroke="midnightblue" points="1782.05,-223.879 1790.57,-217.576 1779.98,-217.193 1782.05,-223.879"/>
</g>
<!-- Node19 -->
<g id="node19" class="node"><title>Node19</title>
<g id="a_node19"><a xlink:href="../../d0/d91/ShmAllocator_8h.html" target="_top" xlink:title="CommonUtils/ShmAllocator.h">
<polygon fill="none" stroke="black" points="1291.8,-136.5 1291.8,-155.5 1437.8,-155.5 1437.8,-136.5 1291.8,-136.5"/>
<text text-anchor="middle" x="1364.8" y="-143.5" font-family="Helvetica,sans-Serif" font-size="10.00">CommonUtils/ShmAllocator.h</text>
</a>
</g>
</g>
<!-- Node4&#45;&gt;Node19 -->
<g id="edge20" class="edge"><title>Node4&#45;&gt;Node19</title>
<path fill="none" stroke="midnightblue" d="M1551.96,-260.43C1548.11,-244.543 1537.67,-210.461 1515.8,-192 1495.77,-175.1 1469.59,-164.547 1444.67,-157.957"/>
<polygon fill="midnightblue" stroke="midnightblue" points="1445.37,-154.526 1434.83,-155.537 1443.7,-161.324 1445.37,-154.526"/>
</g>
<!-- Node6 -->
<g id="node6" class="node"><title>Node6</title>
<g id="a_node6"><a xlink:href="../../dd/d76/Cartesian3D_8h.html" target="_top" xlink:title="MathUtils/Cartesian3D.h">
<polygon fill="none" stroke="black" points="1601.3,-136.5 1601.3,-155.5 1726.3,-155.5 1726.3,-136.5 1601.3,-136.5"/>
<text text-anchor="middle" x="1663.8" y="-143.5" font-family="Helvetica,sans-Serif" font-size="10.00">MathUtils/Cartesian3D.h</text>
</a>
</g>
</g>
<!-- Node5&#45;&gt;Node6 -->
<g id="edge5" class="edge"><title>Node5&#45;&gt;Node6</title>
<path fill="none" stroke="midnightblue" d="M1499.97,-192.933C1537.64,-182.372 1588.54,-168.1 1623.56,-158.282"/>
<polygon fill="midnightblue" stroke="midnightblue" points="1624.75,-161.582 1633.44,-155.513 1622.86,-154.842 1624.75,-161.582"/>
</g>
<!-- Node7 -->
<g id="node7" class="node"><title>Node7</title>
<polygon fill="none" stroke="#bfbfbf" points="1055.3,-69 1055.3,-99 1206.3,-99 1206.3,-69 1055.3,-69"/>
<text text-anchor="start" x="1063.3" y="-87" font-family="Helvetica,sans-Serif" font-size="10.00">Math/GenVector/Displacement</text>
<text text-anchor="middle" x="1130.8" y="-76" font-family="Helvetica,sans-Serif" font-size="10.00">Vector3D.h</text>
</g>
<!-- Node6&#45;&gt;Node7 -->
<g id="edge6" class="edge"><title>Node6&#45;&gt;Node7</title>
<path fill="none" stroke="midnightblue" d="M1601.19,-137.579C1596.32,-137.033 1591.48,-136.501 1586.8,-136 1425.29,-118.727 1381.63,-122.263 1216.75,-100.064"/>
<polygon fill="midnightblue" stroke="midnightblue" points="1217.13,-96.5832 1206.75,-98.7059 1216.19,-103.52 1217.13,-96.5832"/>
</g>
<!-- Node8 -->
<g id="node8" class="node"><title>Node8</title>
<polygon fill="none" stroke="#bfbfbf" points="1224.8,-74.5 1224.8,-93.5 1400.8,-93.5 1400.8,-74.5 1224.8,-74.5"/>
<text text-anchor="middle" x="1312.8" y="-81.5" font-family="Helvetica,sans-Serif" font-size="10.00">Math/GenVector/PositionVector3D.h</text>
</g>
<!-- Node6&#45;&gt;Node8 -->
<g id="edge7" class="edge"><title>Node6&#45;&gt;Node8</title>
<path fill="none" stroke="midnightblue" d="M1613.88,-136.467C1550.33,-125.604 1440.65,-106.855 1372.67,-95.2346"/>
<polygon fill="midnightblue" stroke="midnightblue" points="1372.99,-91.7385 1362.54,-93.5034 1371.81,-98.6384 1372.99,-91.7385"/>
</g>
<!-- Node9 -->
<g id="node9" class="node"><title>Node9</title>
<polygon fill="none" stroke="#bfbfbf" points="1418.3,-74.5 1418.3,-93.5 1567.3,-93.5 1567.3,-74.5 1418.3,-74.5"/>
<text text-anchor="middle" x="1492.8" y="-81.5" font-family="Helvetica,sans-Serif" font-size="10.00">Math/GenVector/Rotation3D.h</text>
</g>
<!-- Node6&#45;&gt;Node9 -->
<g id="edge8" class="edge"><title>Node6&#45;&gt;Node9</title>
<path fill="none" stroke="midnightblue" d="M1639.3,-136.403C1609.84,-126.067 1560.22,-108.656 1527,-96.9994"/>
<polygon fill="midnightblue" stroke="midnightblue" points="1527.85,-93.5889 1517.25,-93.5806 1525.53,-100.194 1527.85,-93.5889"/>
</g>
<!-- Node10 -->
<g id="node10" class="node"><title>Node10</title>
<polygon fill="none" stroke="#bfbfbf" points="1585.8,-74.5 1585.8,-93.5 1741.8,-93.5 1741.8,-74.5 1585.8,-74.5"/>
<text text-anchor="middle" x="1663.8" y="-81.5" font-family="Helvetica,sans-Serif" font-size="10.00">Math/GenVector/Transform3D.h</text>
</g>
<!-- Node6&#45;&gt;Node10 -->
<g id="edge9" class="edge"><title>Node6&#45;&gt;Node10</title>
<path fill="none" stroke="midnightblue" d="M1663.8,-136.403C1663.8,-127.938 1663.8,-114.728 1663.8,-103.82"/>
<polygon fill="midnightblue" stroke="midnightblue" points="1667.3,-103.581 1663.8,-93.5806 1660.3,-103.581 1667.3,-103.581"/>
</g>
<!-- Node11 -->
<g id="node11" class="node"><title>Node11</title>
<polygon fill="none" stroke="#bfbfbf" points="1759.8,-74.5 1759.8,-93.5 1919.8,-93.5 1919.8,-74.5 1759.8,-74.5"/>
<text text-anchor="middle" x="1839.8" y="-81.5" font-family="Helvetica,sans-Serif" font-size="10.00">Math/GenVector/Translation3D.h</text>
</g>
<!-- Node6&#45;&gt;Node11 -->
<g id="edge10" class="edge"><title>Node6&#45;&gt;Node11</title>
<path fill="none" stroke="midnightblue" d="M1689.01,-136.403C1719.47,-126.022 1770.85,-108.506 1805.04,-96.849"/>
<polygon fill="midnightblue" stroke="midnightblue" points="1806.29,-100.12 1814.63,-93.5806 1804.03,-93.4946 1806.29,-100.12"/>
</g>
<!-- Node6&#45;&gt;Node12 -->
<g id="edge11" class="edge"><title>Node6&#45;&gt;Node12</title>
<path fill="none" stroke="midnightblue" d="M1601.22,-137.298C1596.34,-136.816 1591.49,-136.375 1586.8,-136 1216.96,-106.444 1122.05,-136.12 752.797,-100 732.943,-98.0579 710.98,-94.7998 692.886,-91.8154"/>
<polygon fill="midnightblue" stroke="midnightblue" points="693.441,-88.3597 682.999,-90.1489 692.278,-95.2623 693.441,-88.3597"/>
</g>
<!-- Node13 -->
<g id="node13" class="node"><title>Node13</title>
<polygon fill="none" stroke="#bfbfbf" points="1937.8,-74.5 1937.8,-93.5 2013.8,-93.5 2013.8,-74.5 1937.8,-74.5"/>
<text text-anchor="middle" x="1975.8" y="-81.5" font-family="Helvetica,sans-Serif" font-size="10.00">TGeoMatrix.h</text>
</g>
<!-- Node6&#45;&gt;Node13 -->
<g id="edge12" class="edge"><title>Node6&#45;&gt;Node13</title>
<path fill="none" stroke="midnightblue" d="M1726.41,-136.903C1780.43,-129.316 1860.33,-116.652 1928.8,-100 1932.92,-98.9981 1937.2,-97.8228 1941.43,-96.5787"/>
<polygon fill="midnightblue" stroke="midnightblue" points="1942.58,-99.8884 1951.1,-93.5999 1940.52,-93.1985 1942.58,-99.8884"/>
</g>
<!-- Node6&#45;&gt;Node14 -->
<g id="edge13" class="edge"><title>Node6&#45;&gt;Node14</title>
<path fill="none" stroke="midnightblue" d="M1726.39,-137.515C1731.27,-136.984 1736.11,-136.472 1740.8,-136 1929.41,-116.994 1982.67,-148.994 2165.8,-100 2168.15,-99.3711 2170.54,-98.5772 2172.9,-97.6843"/>
<polygon fill="midnightblue" stroke="midnightblue" points="2174.48,-100.814 2182.27,-93.6272 2171.7,-94.3903 2174.48,-100.814"/>
</g>
<!-- Node15 -->
<g id="node15" class="node"><title>Node15</title>
<g id="a_node15"><a xlink:href="../../d2/dd0/Cartesian2D_8h.html" target="_top" xlink:title="MathUtils/Cartesian2D.h">
<polygon fill="none" stroke="black" points="2032.3,-74.5 2032.3,-93.5 2157.3,-93.5 2157.3,-74.5 2032.3,-74.5"/>
<text text-anchor="middle" x="2094.8" y="-81.5" font-family="Helvetica,sans-Serif" font-size="10.00">MathUtils/Cartesian2D.h</text>
</a>
</g>
</g>
<!-- Node6&#45;&gt;Node15 -->
<g id="edge14" class="edge"><title>Node6&#45;&gt;Node15</title>
<path fill="none" stroke="midnightblue" d="M1726.64,-137.403C1821.77,-125.86 1994.33,-104.741 2022.8,-100 2030.59,-98.702 2038.82,-97.1551 2046.83,-95.5556"/>
<polygon fill="midnightblue" stroke="midnightblue" points="2047.7,-98.9501 2056.79,-93.5161 2046.29,-92.0923 2047.7,-98.9501"/>
</g>
<!-- Node16 -->
<g id="node16" class="node"><title>Node16</title>
<polygon fill="none" stroke="#bfbfbf" points="1928.3,-1 1928.3,-31 2079.3,-31 2079.3,-1 1928.3,-1"/>
<text text-anchor="start" x="1936.3" y="-19" font-family="Helvetica,sans-Serif" font-size="10.00">Math/GenVector/Displacement</text>
<text text-anchor="middle" x="2003.8" y="-8" font-family="Helvetica,sans-Serif" font-size="10.00">Vector2D.h</text>
</g>
<!-- Node15&#45;&gt;Node16 -->
<g id="edge15" class="edge"><title>Node15&#45;&gt;Node16</title>
<path fill="none" stroke="midnightblue" d="M2082.9,-74.3717C2070.02,-65.0286 2049.02,-49.7966 2031.89,-37.375"/>
<polygon fill="midnightblue" stroke="midnightblue" points="2033.5,-34.2194 2023.35,-31.1815 2029.39,-39.8859 2033.5,-34.2194"/>
</g>
<!-- Node17 -->
<g id="node17" class="node"><title>Node17</title>
<polygon fill="none" stroke="#bfbfbf" points="2097.8,-6.5 2097.8,-25.5 2273.8,-25.5 2273.8,-6.5 2097.8,-6.5"/>
<text text-anchor="middle" x="2185.8" y="-13.5" font-family="Helvetica,sans-Serif" font-size="10.00">Math/GenVector/PositionVector2D.h</text>
</g>
<!-- Node15&#45;&gt;Node17 -->
<g id="edge16" class="edge"><title>Node15&#45;&gt;Node17</title>
<path fill="none" stroke="midnightblue" d="M2106.69,-74.3717C2121.68,-63.5015 2147.66,-44.6602 2165.74,-31.5474"/>
<polygon fill="midnightblue" stroke="midnightblue" points="2167.86,-34.3349 2173.9,-25.6305 2163.75,-28.6684 2167.86,-34.3349"/>
</g>
<!-- Node20 -->
<g id="node20" class="node"><title>Node20</title>
<g id="a_node20"><a xlink:href="../../de/d61/ShmManager_8h.html" target="_top" xlink:title="CommonUtils/ShmManager.h">
<polygon fill="none" stroke="black" points="761.797,-74.5 761.797,-93.5 907.797,-93.5 907.797,-74.5 761.797,-74.5"/>
<text text-anchor="middle" x="834.797" y="-81.5" font-family="Helvetica,sans-Serif" font-size="10.00">CommonUtils/ShmManager.h</text>
</a>
</g>
</g>
<!-- Node19&#45;&gt;Node20 -->
<g id="edge21" class="edge"><title>Node19&#45;&gt;Node20</title>
<path fill="none" stroke="midnightblue" d="M1291.66,-136.72C1193.82,-125.645 1020.79,-106.056 918.058,-94.4258"/>
<polygon fill="midnightblue" stroke="midnightblue" points="918.365,-90.9382 908.035,-93.2911 917.578,-97.8938 918.365,-90.9382"/>
</g>
<!-- Node25 -->
<g id="node25" class="node"><title>Node25</title>
<polygon fill="none" stroke="#bfbfbf" points="988.297,-74.5 988.297,-93.5 1037.3,-93.5 1037.3,-74.5 988.297,-74.5"/>
<text text-anchor="middle" x="1012.8" y="-81.5" font-family="Helvetica,sans-Serif" font-size="10.00">cassert</text>
</g>
<!-- Node19&#45;&gt;Node25 -->
<g id="edge26" class="edge"><title>Node19&#45;&gt;Node25</title>
<path fill="none" stroke="midnightblue" d="M1296.99,-136.485C1210.54,-125.464 1069.36,-106.861 1045.8,-100 1043.45,-99.317 1041.06,-98.4964 1038.69,-97.5955"/>
<polygon fill="midnightblue" stroke="midnightblue" points="1039.8,-94.2671 1029.23,-93.5875 1037.07,-100.712 1039.8,-94.2671"/>
</g>
<!-- Node21 -->
<g id="node21" class="node"><title>Node21</title>
<polygon fill="none" stroke="#bfbfbf" points="866.297,-6.5 866.297,-25.5 895.297,-25.5 895.297,-6.5 866.297,-6.5"/>
<text text-anchor="middle" x="880.797" y="-13.5" font-family="Helvetica,sans-Serif" font-size="10.00">list</text>
</g>
<!-- Node20&#45;&gt;Node21 -->
<g id="edge22" class="edge"><title>Node20&#45;&gt;Node21</title>
<path fill="none" stroke="midnightblue" d="M840.811,-74.3717C847.866,-64.2495 859.738,-47.2154 868.718,-34.3312"/>
<polygon fill="midnightblue" stroke="midnightblue" points="871.789,-36.0464 874.635,-25.8411 866.046,-32.0438 871.789,-36.0464"/>
</g>
<!-- Node22 -->
<g id="node22" class="node"><title>Node22</title>
<polygon fill="none" stroke="#bfbfbf" points="913.297,-6.5 913.297,-25.5 962.297,-25.5 962.297,-6.5 913.297,-6.5"/>
<text text-anchor="middle" x="937.797" y="-13.5" font-family="Helvetica,sans-Serif" font-size="10.00">cstddef</text>
</g>
<!-- Node20&#45;&gt;Node22 -->
<g id="edge23" class="edge"><title>Node20&#45;&gt;Node22</title>
<path fill="none" stroke="midnightblue" d="M848.263,-74.3717C865.381,-63.4027 895.166,-44.317 915.65,-31.1912"/>
<polygon fill="midnightblue" stroke="midnightblue" points="917.797,-33.9726 924.328,-25.6305 914.02,-28.0788 917.797,-33.9726"/>
</g>
<!-- Node23 -->
<g id="node23" class="node"><title>Node23</title>
<polygon fill="none" stroke="#bfbfbf" points="562.797,-1 562.797,-31 710.797,-31 710.797,-1 562.797,-1"/>
<text text-anchor="start" x="570.797" y="-19" font-family="Helvetica,sans-Serif" font-size="10.00">boost/interprocess</text>
<text text-anchor="middle" x="636.797" y="-8" font-family="Helvetica,sans-Serif" font-size="10.00">/managed_external_buffer.hpp</text>
</g>
<!-- Node20&#45;&gt;Node23 -->
<g id="edge24" class="edge"><title>Node20&#45;&gt;Node23</title>
<path fill="none" stroke="midnightblue" d="M808.912,-74.3717C778.472,-64.2249 727.195,-47.1327 688.509,-34.2375"/>
<polygon fill="midnightblue" stroke="midnightblue" points="689.559,-30.8982 678.966,-31.0562 687.346,-37.539 689.559,-30.8982"/>
</g>
<!-- Node24 -->
<g id="node24" class="node"><title>Node24</title>
<polygon fill="none" stroke="#bfbfbf" points="728.797,-1 728.797,-31 848.797,-31 848.797,-1 728.797,-1"/>
<text text-anchor="start" x="736.797" y="-19" font-family="Helvetica,sans-Serif" font-size="10.00">boost/interprocess</text>
<text text-anchor="middle" x="788.797" y="-8" font-family="Helvetica,sans-Serif" font-size="10.00">/allocators/allocator.hpp</text>
</g>
<!-- Node20&#45;&gt;Node24 -->
<g id="edge25" class="edge"><title>Node20&#45;&gt;Node24</title>
<path fill="none" stroke="midnightblue" d="M828.783,-74.3717C822.63,-65.5429 812.812,-51.4557 804.444,-39.4503"/>
<polygon fill="midnightblue" stroke="midnightblue" points="807.271,-37.3842 798.681,-31.1815 801.528,-41.3867 807.271,-37.3842"/>
</g>
<!-- Node26&#45;&gt;Node5 -->
<g id="edge53" class="edge"><title>Node26&#45;&gt;Node5</title>
<path fill="none" stroke="midnightblue" d="M1143.57,-260.467C1206.32,-249.921 1313.29,-231.942 1382.74,-220.269"/>
<polygon fill="midnightblue" stroke="midnightblue" points="1383.43,-223.704 1392.71,-218.595 1382.27,-216.8 1383.43,-223.704"/>
</g>
<!-- Node26&#45;&gt;Node19 -->
<g id="edge54" class="edge"><title>Node26&#45;&gt;Node19</title>
<path fill="none" stroke="midnightblue" d="M1098.44,-260.248C1109.36,-244.057 1135.06,-209.488 1165.8,-192 1188.62,-179.014 1251.77,-165.974 1300.87,-157.299"/>
<polygon fill="midnightblue" stroke="midnightblue" points="1301.55,-160.734 1310.81,-155.57 1300.35,-153.838 1301.55,-160.734"/>
</g>
<!-- Node27 -->
<g id="node27" class="node"><title>Node27</title>
<g id="a_node27"><a xlink:href="../../d1/d3a/Base_2include_2DetectorsBase_2Detector_8h.html" target="_top" xlink:title="DetectorsBase/Detector.h">
<polygon fill="none" stroke="black" points="666.297,-198.5 666.297,-217.5 797.297,-217.5 797.297,-198.5 666.297,-198.5"/>
<text text-anchor="middle" x="731.797" y="-205.5" font-family="Helvetica,sans-Serif" font-size="10.00">DetectorsBase/Detector.h</text>
</a>
</g>
</g>
<!-- Node26&#45;&gt;Node27 -->
<g id="edge28" class="edge"><title>Node26&#45;&gt;Node27</title>
<path fill="none" stroke="midnightblue" d="M1041.46,-260.467C975.964,-249.582 862.827,-230.778 792.945,-219.163"/>
<polygon fill="midnightblue" stroke="midnightblue" points="793.398,-215.69 782.959,-217.503 792.25,-222.596 793.398,-215.69"/>
</g>
<!-- Node43 -->
<g id="node43" class="node"><title>Node43</title>
<g id="a_node43"><a xlink:href="../../d4/d54/Geo_8h.html" target="_top" xlink:title="TOFBase/Geo.h">
<polygon fill="none" stroke="black" points="270.797,-198.5 270.797,-217.5 358.797,-217.5 358.797,-198.5 270.797,-198.5"/>
<text text-anchor="middle" x="314.797" y="-205.5" font-family="Helvetica,sans-Serif" font-size="10.00">TOFBase/Geo.h</text>
</a>
</g>
</g>
<!-- Node26&#45;&gt;Node43 -->
<g id="edge51" class="edge"><title>Node26&#45;&gt;Node43</title>
<path fill="none" stroke="midnightblue" d="M1026.97,-260.923C1023.87,-260.599 1020.8,-260.289 1017.8,-260 776.295,-236.763 487.199,-218.928 369.086,-212.066"/>
<polygon fill="midnightblue" stroke="midnightblue" points="369.051,-208.558 358.865,-211.475 368.646,-215.547 369.051,-208.558"/>
</g>
<!-- Node27&#45;&gt;Node12 -->
<g id="edge40" class="edge"><title>Node27&#45;&gt;Node12</title>
<path fill="none" stroke="midnightblue" d="M720.089,-198.487C708.159,-189.251 689.878,-173.468 678.797,-156 668.578,-139.89 662.191,-118.943 658.6,-103.984"/>
<polygon fill="midnightblue" stroke="midnightblue" points="661.947,-102.907 656.381,-93.892 655.11,-104.41 661.947,-102.907"/>
</g>
<!-- Node27&#45;&gt;Node19 -->
<g id="edge47" class="edge"><title>Node27&#45;&gt;Node19</title>
<path fill="none" stroke="midnightblue" d="M797.442,-201.245C898.738,-192.292 1099.53,-174.252 1281.46,-156.019"/>
<polygon fill="midnightblue" stroke="midnightblue" points="1281.88,-159.494 1291.48,-155.012 1281.18,-152.529 1281.88,-159.494"/>
</g>
<!-- Node27&#45;&gt;Node20 -->
<g id="edge46" class="edge"><title>Node27&#45;&gt;Node20</title>
<path fill="none" stroke="midnightblue" d="M725.161,-198.42C715.12,-184.313 698.567,-155.807 711.797,-136 725.107,-116.073 747.805,-103.922 770.106,-96.5163"/>
<polygon fill="midnightblue" stroke="midnightblue" points="771.396,-99.7827 779.949,-93.5306 769.364,-93.0841 771.396,-99.7827"/>
</g>
<!-- Node27&#45;&gt;Node25 -->
<g id="edge50" class="edge"><title>Node27&#45;&gt;Node25</title>
<path fill="none" stroke="midnightblue" d="M797.412,-202.787C900.193,-195.513 1089.59,-179.121 1109.8,-156 1115.65,-149.308 1114.39,-143.609 1109.8,-136 1105.82,-129.408 1068.07,-110.754 1040.86,-97.9323"/>
<polygon fill="midnightblue" stroke="midnightblue" points="1042.29,-94.7369 1031.75,-93.6697 1039.32,-101.077 1042.29,-94.7369"/>
</g>
<!-- Node28 -->
<g id="node28" class="node"><title>Node28</title>
<polygon fill="none" stroke="#bfbfbf" points="264.297,-74.5 264.297,-93.5 299.297,-93.5 299.297,-74.5 264.297,-74.5"/>
<text text-anchor="middle" x="281.797" y="-81.5" font-family="Helvetica,sans-Serif" font-size="10.00">map</text>
</g>
<!-- Node27&#45;&gt;Node28 -->
<g id="edge29" class="edge"><title>Node27&#45;&gt;Node28</title>
<path fill="none" stroke="midnightblue" d="M666.1,-204.198C547.881,-198.487 309.178,-183.64 283.797,-156 271.057,-142.126 272.809,-119.531 276.294,-103.561"/>
<polygon fill="midnightblue" stroke="midnightblue" points="279.715,-104.31 278.827,-93.7528 272.937,-102.56 279.715,-104.31"/>
</g>
<!-- Node29 -->
<g id="node29" class="node"><title>Node29</title>
<polygon fill="none" stroke="#bfbfbf" points="1157.8,-136.5 1157.8,-155.5 1201.8,-155.5 1201.8,-136.5 1157.8,-136.5"/>
<text text-anchor="middle" x="1179.8" y="-143.5" font-family="Helvetica,sans-Serif" font-size="10.00">vector</text>
</g>
<!-- Node27&#45;&gt;Node29 -->
<g id="edge30" class="edge"><title>Node27&#45;&gt;Node29</title>
<path fill="none" stroke="midnightblue" d="M797.466,-201.36C879.091,-193.78 1022.46,-178.591 1143.8,-156 1145.04,-155.768 1146.31,-155.518 1147.59,-155.255"/>
<polygon fill="midnightblue" stroke="midnightblue" points="1148.43,-158.653 1157.42,-153.042 1146.9,-151.824 1148.43,-158.653"/>
</g>
<!-- Node30 -->
<g id="node30" class="node"><title>Node30</title>
<polygon fill="none" stroke="#bfbfbf" points="34.2971,-74.5 34.2971,-93.5 107.297,-93.5 107.297,-74.5 34.2971,-74.5"/>
<text text-anchor="middle" x="70.7971" y="-81.5" font-family="Helvetica,sans-Serif" font-size="10.00">initializer_list</text>
</g>
<!-- Node27&#45;&gt;Node30 -->
<g id="edge31" class="edge"><title>Node27&#45;&gt;Node30</title>
<path fill="none" stroke="midnightblue" d="M666.218,-204.794C491.795,-198.612 28.1576,-179.986 5.7971,-156 -12.7758,-136.077 18.6471,-112.743 43.9336,-98.4177"/>
<polygon fill="midnightblue" stroke="midnightblue" points="45.7475,-101.416 52.8681,-93.5703 42.4093,-95.2628 45.7475,-101.416"/>
</g>
<!-- Node31 -->
<g id="node31" class="node"><title>Node31</title>
<polygon fill="none" stroke="#bfbfbf" points="476.797,-136.5 476.797,-155.5 528.797,-155.5 528.797,-136.5 476.797,-136.5"/>
<text text-anchor="middle" x="502.797" y="-143.5" font-family="Helvetica,sans-Serif" font-size="10.00">memory</text>
</g>
<!-- Node27&#45;&gt;Node31 -->
<g id="edge32" class="edge"><title>Node27&#45;&gt;Node31</title>
<path fill="none" stroke="midnightblue" d="M698.987,-198.403C656.42,-187.251 582.423,-167.863 538.49,-156.352"/>
<polygon fill="midnightblue" stroke="midnightblue" points="539.36,-152.962 528.8,-153.813 537.586,-159.733 539.36,-152.962"/>
</g>
<!-- Node32 -->
<g id="node32" class="node"><title>Node32</title>
<polygon fill="none" stroke="#bfbfbf" points="547.297,-136.5 547.297,-155.5 626.297,-155.5 626.297,-136.5 547.297,-136.5"/>
<text text-anchor="middle" x="586.797" y="-143.5" font-family="Helvetica,sans-Serif" font-size="10.00">FairDetector.h</text>
</g>
<!-- Node27&#45;&gt;Node32 -->
<g id="edge33" class="edge"><title>Node27&#45;&gt;Node32</title>
<path fill="none" stroke="midnightblue" d="M711.022,-198.403C686.365,-188.2 645.052,-171.105 616.895,-159.454"/>
<polygon fill="midnightblue" stroke="midnightblue" points="618.112,-156.17 607.534,-155.581 615.435,-162.638 618.112,-156.17"/>
</g>
<!-- Node33 -->
<g id="node33" class="node"><title>Node33</title>
<polygon fill="none" stroke="#bfbfbf" points="720.797,-136.5 720.797,-155.5 820.797,-155.5 820.797,-136.5 720.797,-136.5"/>
<text text-anchor="middle" x="770.797" y="-143.5" font-family="Helvetica,sans-Serif" font-size="10.00">FairRootManager.h</text>
</g>
<!-- Node27&#45;&gt;Node33 -->
<g id="edge34" class="edge"><title>Node27&#45;&gt;Node33</title>
<path fill="none" stroke="midnightblue" d="M737.385,-198.403C743.177,-189.493 752.386,-175.325 759.671,-164.118"/>
<polygon fill="midnightblue" stroke="midnightblue" points="762.704,-165.873 765.22,-155.581 756.835,-162.058 762.704,-165.873"/>
</g>
<!-- Node34 -->
<g id="node34" class="node"><title>Node34</title>
<g id="a_node34"><a xlink:href="../../d0/d9a/MaterialManager_8h.html" target="_top" xlink:title="DetectorsBase/MaterialManager.h">
<polygon fill="none" stroke="black" points="293.297,-136.5 293.297,-155.5 458.297,-155.5 458.297,-136.5 293.297,-136.5"/>
<text text-anchor="middle" x="375.797" y="-143.5" font-family="Helvetica,sans-Serif" font-size="10.00">DetectorsBase/MaterialManager.h</text>
</a>
</g>
</g>
<!-- Node27&#45;&gt;Node34 -->
<g id="edge35" class="edge"><title>Node27&#45;&gt;Node34</title>
<path fill="none" stroke="midnightblue" d="M681.169,-198.467C616.715,-187.604 505.469,-168.855 436.522,-157.235"/>
<polygon fill="midnightblue" stroke="midnightblue" points="436.693,-153.714 426.251,-155.503 435.53,-160.617 436.693,-153.714"/>
</g>
<!-- Node36 -->
<g id="node36" class="node"><title>Node36</title>
<polygon fill="none" stroke="#bfbfbf" points="839.297,-136.5 839.297,-155.5 892.297,-155.5 892.297,-136.5 839.297,-136.5"/>
<text text-anchor="middle" x="865.797" y="-143.5" font-family="Helvetica,sans-Serif" font-size="10.00">cxxabi.h</text>
</g>
<!-- Node27&#45;&gt;Node36 -->
<g id="edge41" class="edge"><title>Node27&#45;&gt;Node36</title>
<path fill="none" stroke="midnightblue" d="M750.996,-198.403C773.584,-188.29 811.296,-171.404 837.298,-159.761"/>
<polygon fill="midnightblue" stroke="midnightblue" points="838.937,-162.862 846.634,-155.581 836.077,-156.473 838.937,-162.862"/>
</g>
<!-- Node37 -->
<g id="node37" class="node"><title>Node37</title>
<polygon fill="none" stroke="#bfbfbf" points="910.297,-136.5 910.297,-155.5 961.297,-155.5 961.297,-136.5 910.297,-136.5"/>
<text text-anchor="middle" x="935.797" y="-143.5" font-family="Helvetica,sans-Serif" font-size="10.00">typeinfo</text>
</g>
<!-- Node27&#45;&gt;Node37 -->
<g id="edge42" class="edge"><title>Node27&#45;&gt;Node37</title>
<path fill="none" stroke="midnightblue" d="M761.025,-198.403C797.815,-187.583 860.96,-169.011 900.432,-157.402"/>
<polygon fill="midnightblue" stroke="midnightblue" points="901.562,-160.717 910.169,-154.538 899.587,-154.002 901.562,-160.717"/>
</g>
<!-- Node38 -->
<g id="node38" class="node"><title>Node38</title>
<polygon fill="none" stroke="#bfbfbf" points="979.797,-136.5 979.797,-155.5 1041.8,-155.5 1041.8,-136.5 979.797,-136.5"/>
<text text-anchor="middle" x="1010.8" y="-143.5" font-family="Helvetica,sans-Serif" font-size="10.00">type_traits</text>
</g>
<!-- Node27&#45;&gt;Node38 -->
<g id="edge43" class="edge"><title>Node27&#45;&gt;Node38</title>
<path fill="none" stroke="midnightblue" d="M771.815,-198.488C817.087,-188.845 893.305,-172.568 969.238,-156.112"/>
<polygon fill="midnightblue" stroke="midnightblue" points="970.43,-159.435 979.461,-153.895 968.947,-152.594 970.43,-159.435"/>
</g>
<!-- Node39 -->
<g id="node39" class="node"><title>Node39</title>
<polygon fill="none" stroke="#bfbfbf" points="1060.3,-136.5 1060.3,-155.5 1101.3,-155.5 1101.3,-136.5 1060.3,-136.5"/>
<text text-anchor="middle" x="1080.8" y="-143.5" font-family="Helvetica,sans-Serif" font-size="10.00">string</text>
</g>
<!-- Node27&#45;&gt;Node39 -->
<g id="edge44" class="edge"><title>Node27&#45;&gt;Node39</title>
<path fill="none" stroke="midnightblue" d="M797.413,-198.888C862.029,-190.334 963.325,-175.408 1049.8,-156 1050.01,-155.952 1050.22,-155.904 1050.43,-155.855"/>
<polygon fill="midnightblue" stroke="midnightblue" points="1051.39,-159.225 1060.21,-153.361 1049.66,-152.442 1051.39,-159.225"/>
</g>
<!-- Node40 -->
<g id="node40" class="node"><title>Node40</title>
<polygon fill="none" stroke="#bfbfbf" points="15.2971,-136.5 15.2971,-155.5 86.2971,-155.5 86.2971,-136.5 15.2971,-136.5"/>
<text text-anchor="middle" x="50.7971" y="-143.5" font-family="Helvetica,sans-Serif" font-size="10.00">TMessage.h</text>
</g>
<!-- Node27&#45;&gt;Node40 -->
<g id="edge45" class="edge"><title>Node27&#45;&gt;Node40</title>
<path fill="none" stroke="midnightblue" d="M666.057,-204.275C552.14,-198.996 310.571,-185.343 96.754,-155.964"/>
<polygon fill="midnightblue" stroke="midnightblue" points="96.9802,-152.462 86.5938,-154.553 96.0173,-159.396 96.9802,-152.462"/>
</g>
<!-- Node41 -->
<g id="node41" class="node"><title>Node41</title>
<polygon fill="none" stroke="#bfbfbf" points="104.797,-136.5 104.797,-155.5 166.797,-155.5 166.797,-136.5 104.797,-136.5"/>
<text text-anchor="middle" x="135.797" y="-143.5" font-family="Helvetica,sans-Serif" font-size="10.00">sys/shm.h</text>
</g>
<!-- Node27&#45;&gt;Node41 -->
<g id="edge48" class="edge"><title>Node27&#45;&gt;Node41</title>
<path fill="none" stroke="midnightblue" d="M665.977,-203.735C563.444,-198.039 359.285,-184.252 177.193,-156.035"/>
<polygon fill="midnightblue" stroke="midnightblue" points="177.587,-152.554 167.166,-154.462 176.503,-159.469 177.587,-152.554"/>
</g>
<!-- Node42 -->
<g id="node42" class="node"><title>Node42</title>
<polygon fill="none" stroke="#bfbfbf" points="185.297,-136.5 185.297,-155.5 236.297,-155.5 236.297,-136.5 185.297,-136.5"/>
<text text-anchor="middle" x="210.797" y="-143.5" font-family="Helvetica,sans-Serif" font-size="10.00">unistd.h</text>
</g>
<!-- Node27&#45;&gt;Node42 -->
<g id="edge49" class="edge"><title>Node27&#45;&gt;Node42</title>
<path fill="none" stroke="midnightblue" d="M666.122,-202.457C573.213,-195.481 398.28,-180.327 250.797,-156 249.349,-155.761 247.874,-155.502 246.386,-155.228"/>
<polygon fill="midnightblue" stroke="midnightblue" points="247.025,-151.787 236.532,-153.25 245.648,-158.65 247.025,-151.787"/>
</g>
<!-- Node34&#45;&gt;Node12 -->
<g id="edge36" class="edge"><title>Node34&#45;&gt;Node12</title>
<path fill="none" stroke="midnightblue" d="M415.475,-136.467C469.07,-124.941 563.947,-104.538 616.711,-93.1906"/>
<polygon fill="midnightblue" stroke="midnightblue" points="617.637,-96.5716 626.677,-91.0473 616.165,-89.728 617.637,-96.5716"/>
</g>
<!-- Node34&#45;&gt;Node28 -->
<g id="edge37" class="edge"><title>Node34&#45;&gt;Node28</title>
<path fill="none" stroke="midnightblue" d="M362.329,-136.403C347.112,-126.691 322.11,-110.732 303.996,-99.1697"/>
<polygon fill="midnightblue" stroke="midnightblue" points="305.552,-96.0108 295.24,-93.5806 301.786,-101.911 305.552,-96.0108"/>
</g>
<!-- Node34&#45;&gt;Node30 -->
<g id="edge39" class="edge"><title>Node34&#45;&gt;Node30</title>
<path fill="none" stroke="midnightblue" d="M332.422,-136.467C275.483,-125.266 175.922,-105.68 117.416,-94.1708"/>
<polygon fill="midnightblue" stroke="midnightblue" points="117.827,-90.6847 107.339,-92.1886 116.476,-97.5531 117.827,-90.6847"/>
</g>
<!-- Node35 -->
<g id="node35" class="node"><title>Node35</title>
<polygon fill="none" stroke="#bfbfbf" points="334.297,-74.5 334.297,-93.5 417.297,-93.5 417.297,-74.5 334.297,-74.5"/>
<text text-anchor="middle" x="375.797" y="-81.5" font-family="Helvetica,sans-Serif" font-size="10.00">unordered_map</text>
</g>
<!-- Node34&#45;&gt;Node35 -->
<g id="edge38" class="edge"><title>Node34&#45;&gt;Node35</title>
<path fill="none" stroke="midnightblue" d="M375.797,-136.403C375.797,-127.938 375.797,-114.728 375.797,-103.82"/>
<polygon fill="midnightblue" stroke="midnightblue" points="379.297,-103.581 375.797,-93.5806 372.297,-103.581 379.297,-103.581"/>
</g>
<!-- Node43&#45;&gt;Node12 -->
<g id="edge52" class="edge"><title>Node43&#45;&gt;Node12</title>
<path fill="none" stroke="midnightblue" d="M270.74,-206.44C193.644,-204.425 39.2593,-195.438 5.7971,-156 0.0462022,-149.222 -0.237076,-142.527 5.7971,-136 11.0255,-130.345 478.272,-97.3176 616.619,-87.6547"/>
<polygon fill="midnightblue" stroke="midnightblue" points="617.016,-91.1356 626.748,-86.9479 616.529,-84.1526 617.016,-91.1356"/>
</g>
<!-- Node44&#45;&gt;Node5 -->
<g id="edge56" class="edge"><title>Node44&#45;&gt;Node5</title>
<path fill="none" stroke="midnightblue" d="M1386.4,-260.403C1396.33,-252.353 1411.55,-240.013 1424.59,-229.441"/>
<polygon fill="midnightblue" stroke="midnightblue" points="1426.79,-232.158 1432.36,-223.141 1422.38,-226.72 1426.79,-232.158"/>
</g>
<!-- Node44&#45;&gt;Node19 -->
<g id="edge57" class="edge"><title>Node44&#45;&gt;Node19</title>
<path fill="none" stroke="midnightblue" d="M1375.01,-260.226C1373.23,-240.53 1368.89,-192.437 1366.48,-165.7"/>
<polygon fill="midnightblue" stroke="midnightblue" points="1369.96,-165.34 1365.58,-155.694 1362.99,-165.968 1369.96,-165.34"/>
</g>
<!-- Node45&#45;&gt;Node5 -->
<g id="edge61" class="edge"><title>Node45&#45;&gt;Node5</title>
<path fill="none" stroke="midnightblue" d="M1272.46,-260.403C1303.48,-251.412 1352.96,-237.068 1391.79,-225.815"/>
<polygon fill="midnightblue" stroke="midnightblue" points="1392.78,-229.171 1401.41,-223.025 1390.83,-222.448 1392.78,-229.171"/>
</g>
<!-- Node45&#45;&gt;Node19 -->
<g id="edge62" class="edge"><title>Node45&#45;&gt;Node19</title>
<path fill="none" stroke="midnightblue" d="M1257.76,-260.35C1271.4,-252.049 1291.67,-238.641 1306.8,-224 1325.7,-205.709 1343.25,-180.857 1353.99,-164.392"/>
<polygon fill="midnightblue" stroke="midnightblue" points="1357.05,-166.094 1359.48,-155.781 1351.15,-162.33 1357.05,-166.094"/>
</g>
<!-- Node45&#45;&gt;Node27 -->
<g id="edge60" class="edge"><title>Node45&#45;&gt;Node27</title>
<path fill="none" stroke="midnightblue" d="M1176.48,-261.142C1173.21,-260.755 1169.96,-260.373 1166.8,-260 1040.77,-245.15 894.185,-227.987 807.41,-217.838"/>
<polygon fill="midnightblue" stroke="midnightblue" points="807.728,-214.351 797.389,-216.666 806.915,-221.304 807.728,-214.351"/>
</g>
<!-- Node45&#45;&gt;Node29 -->
<g id="edge59" class="edge"><title>Node45&#45;&gt;Node29</title>
<path fill="none" stroke="midnightblue" d="M1214.42,-260.495C1197.04,-253.653 1176.2,-242.13 1165.8,-224 1155.27,-205.653 1162.72,-181.143 1170.18,-164.752"/>
<polygon fill="midnightblue" stroke="midnightblue" points="1173.35,-166.236 1174.67,-155.723 1167.08,-163.122 1173.35,-166.236"/>
</g>
<!-- Node46 -->
<g id="node46" class="node"><title>Node46</title>
<g id="a_node46"><a xlink:href="../../df/db2/TRsim_8h.html" target="_top" xlink:title="TRDSimulation/TRsim.h">
<polygon fill="none" stroke="black" points="1174.8,-198.5 1174.8,-217.5 1298.8,-217.5 1298.8,-198.5 1174.8,-198.5"/>
<text text-anchor="middle" x="1236.8" y="-205.5" font-family="Helvetica,sans-Serif" font-size="10.00">TRDSimulation/TRsim.h</text>
</a>
</g>
</g>
<!-- Node45&#45;&gt;Node46 -->
<g id="edge63" class="edge"><title>Node45&#45;&gt;Node46</title>
<path fill="none" stroke="midnightblue" d="M1241.94,-260.403C1241.09,-251.938 1239.77,-238.728 1238.68,-227.82"/>
<polygon fill="midnightblue" stroke="midnightblue" points="1242.13,-227.183 1237.66,-217.581 1235.17,-227.879 1242.13,-227.183"/>
</g>
<!-- Node47 -->
<g id="node47" class="node"><title>Node47</title>
<polygon fill="none" stroke="#bfbfbf" points="1220.3,-136.5 1220.3,-155.5 1273.3,-155.5 1273.3,-136.5 1220.3,-136.5"/>
<text text-anchor="middle" x="1246.8" y="-143.5" font-family="Helvetica,sans-Serif" font-size="10.00">TMath.h</text>
</g>
<!-- Node46&#45;&gt;Node47 -->
<g id="edge64" class="edge"><title>Node46&#45;&gt;Node47</title>
<path fill="none" stroke="midnightblue" d="M1238.23,-198.403C1239.66,-189.849 1241.89,-176.45 1243.72,-165.476"/>
<polygon fill="midnightblue" stroke="midnightblue" points="1247.18,-166.02 1245.37,-155.581 1240.27,-164.869 1247.18,-166.02"/>
</g>
</g>
</svg>
