<?xml version="1.0" encoding="UTF-8" standalone="no"?>
<!DOCTYPE svg PUBLIC "-//W3C//DTD SVG 1.1//EN"
 "http://www.w3.org/Graphics/SVG/1.1/DTD/svg11.dtd">
<!-- Generated by graphviz version 2.36.0 (20140111.2315)
 -->
<!-- Title: /home/travis/build/AliceO2Group/AliceO2/Framework/Core/include/Framework/Task.h Pages: 1 -->
<svg width="3096pt" height="252pt"
 viewBox="0.00 0.00 3096.00 252.00" xmlns="http://www.w3.org/2000/svg" xmlns:xlink="http://www.w3.org/1999/xlink">
<g id="graph0" class="graph" transform="scale(1 1) rotate(0) translate(4 248)">
<title>/home/travis/build/AliceO2Group/AliceO2/Framework/Core/include/Framework/Task.h</title>
<!-- Node1 -->
<g id="node1" class="node"><title>Node1</title>
<polygon fill="#bfbfbf" stroke="black" points="1603,-191 1603,-243 1729,-243 1729,-191 1603,-191"/>
<text text-anchor="start" x="1611" y="-231" font-family="Helvetica,sans-Serif" font-size="10.00">/home/travis/build</text>
<text text-anchor="start" x="1611" y="-220" font-family="Helvetica,sans-Serif" font-size="10.00">/AliceO2Group/AliceO2</text>
<text text-anchor="start" x="1611" y="-209" font-family="Helvetica,sans-Serif" font-size="10.00">/Framework/Core/include</text>
<text text-anchor="middle" x="1666" y="-198" font-family="Helvetica,sans-Serif" font-size="10.00">/Framework/Task.h</text>
</g>
<!-- Node2 -->
<g id="node2" class="node"><title>Node2</title>
<g id="a_node2"><a xlink:href="../../d4/dcc/ITSMFT_2ITS_2workflow_2include_2ITSWorkflow_2ClustererSpec_8h.html" target="_top" xlink:title="/home/travis/build\l/AliceO2Group/AliceO2\l/Detectors/ITSMFT/ITS\l/workflow/include/ITSWorkflow\l/ClustererSpec.h">
<polygon fill="none" stroke="black" points="190,-90.5 190,-153.5 342,-153.5 342,-90.5 190,-90.5"/>
<text text-anchor="start" x="198" y="-141.5" font-family="Helvetica,sans-Serif" font-size="10.00">/home/travis/build</text>
<text text-anchor="start" x="198" y="-130.5" font-family="Helvetica,sans-Serif" font-size="10.00">/AliceO2Group/AliceO2</text>
<text text-anchor="start" x="198" y="-119.5" font-family="Helvetica,sans-Serif" font-size="10.00">/Detectors/ITSMFT/ITS</text>
<text text-anchor="start" x="198" y="-108.5" font-family="Helvetica,sans-Serif" font-size="10.00">/workflow/include/ITSWorkflow</text>
<text text-anchor="middle" x="266" y="-97.5" font-family="Helvetica,sans-Serif" font-size="10.00">/ClustererSpec.h</text>
</a>
</g>
</g>
<!-- Node1&#45;&gt;Node2 -->
<g id="edge1" class="edge"><title>Node1&#45;&gt;Node2</title>
<path fill="none" stroke="midnightblue" d="M1592.62,-215.451C1352.43,-213.198 591.362,-202.327 351,-154 348.074,-153.412 345.114,-152.74 342.142,-152"/>
<polygon fill="midnightblue" stroke="midnightblue" points="1592.62,-218.951 1602.65,-215.543 1592.68,-211.951 1592.62,-218.951"/>
</g>
<!-- Node5 -->
<g id="node5" class="node"><title>Node5</title>
<g id="a_node5"><a xlink:href="../../d4/ddc/ClusterWriterSpec_8h.html" target="_top" xlink:title="/home/travis/build\l/AliceO2Group/AliceO2\l/Detectors/ITSMFT/ITS\l/workflow/include/ITSWorkflow\l/ClusterWriterSpec.h">
<polygon fill="none" stroke="black" points="360,-90.5 360,-153.5 512,-153.5 512,-90.5 360,-90.5"/>
<text text-anchor="start" x="368" y="-141.5" font-family="Helvetica,sans-Serif" font-size="10.00">/home/travis/build</text>
<text text-anchor="start" x="368" y="-130.5" font-family="Helvetica,sans-Serif" font-size="10.00">/AliceO2Group/AliceO2</text>
<text text-anchor="start" x="368" y="-119.5" font-family="Helvetica,sans-Serif" font-size="10.00">/Detectors/ITSMFT/ITS</text>
<text text-anchor="start" x="368" y="-108.5" font-family="Helvetica,sans-Serif" font-size="10.00">/workflow/include/ITSWorkflow</text>
<text text-anchor="middle" x="436" y="-97.5" font-family="Helvetica,sans-Serif" font-size="10.00">/ClusterWriterSpec.h</text>
</a>
</g>
</g>
<!-- Node1&#45;&gt;Node5 -->
<g id="edge4" class="edge"><title>Node1&#45;&gt;Node5</title>
<path fill="none" stroke="midnightblue" d="M1592.6,-214.852C1373.59,-210.981 727.143,-196.196 521,-154 518.076,-153.402 515.118,-152.721 512.147,-151.974"/>
<polygon fill="midnightblue" stroke="midnightblue" points="1592.65,-218.353 1602.71,-215.028 1592.77,-211.355 1592.65,-218.353"/>
</g>
<!-- Node7 -->
<g id="node7" class="node"><title>Node7</title>
<g id="a_node7"><a xlink:href="../../d2/d0b/CookedTrackerSpec_8h.html" target="_top" xlink:title="/home/travis/build\l/AliceO2Group/AliceO2\l/Detectors/ITSMFT/ITS\l/workflow/include/ITSWorkflow\l/CookedTrackerSpec.h">
<polygon fill="none" stroke="black" points="530,-90.5 530,-153.5 682,-153.5 682,-90.5 530,-90.5"/>
<text text-anchor="start" x="538" y="-141.5" font-family="Helvetica,sans-Serif" font-size="10.00">/home/travis/build</text>
<text text-anchor="start" x="538" y="-130.5" font-family="Helvetica,sans-Serif" font-size="10.00">/AliceO2Group/AliceO2</text>
<text text-anchor="start" x="538" y="-119.5" font-family="Helvetica,sans-Serif" font-size="10.00">/Detectors/ITSMFT/ITS</text>
<text text-anchor="start" x="538" y="-108.5" font-family="Helvetica,sans-Serif" font-size="10.00">/workflow/include/ITSWorkflow</text>
<text text-anchor="middle" x="606" y="-97.5" font-family="Helvetica,sans-Serif" font-size="10.00">/CookedTrackerSpec.h</text>
</a>
</g>
</g>
<!-- Node1&#45;&gt;Node7 -->
<g id="edge7" class="edge"><title>Node1&#45;&gt;Node7</title>
<path fill="none" stroke="midnightblue" d="M1592.58,-214.047C1396.38,-208.396 863.159,-190.085 691,-154 688.079,-153.388 685.123,-152.696 682.154,-151.939"/>
<polygon fill="midnightblue" stroke="midnightblue" points="1592.68,-217.552 1602.78,-214.338 1592.88,-210.555 1592.68,-217.552"/>
</g>
<!-- Node9 -->
<g id="node9" class="node"><title>Node9</title>
<g id="a_node9"><a xlink:href="../../d1/dfa/DigitReaderSpec_8h.html" target="_top" xlink:title="Processor spec for a reader of TPC data from ROOT file. ">
<polygon fill="none" stroke="black" points="700,-90.5 700,-153.5 852,-153.5 852,-90.5 700,-90.5"/>
<text text-anchor="start" x="708" y="-141.5" font-family="Helvetica,sans-Serif" font-size="10.00">/home/travis/build</text>
<text text-anchor="start" x="708" y="-130.5" font-family="Helvetica,sans-Serif" font-size="10.00">/AliceO2Group/AliceO2</text>
<text text-anchor="start" x="708" y="-119.5" font-family="Helvetica,sans-Serif" font-size="10.00">/Detectors/ITSMFT/ITS</text>
<text text-anchor="start" x="708" y="-108.5" font-family="Helvetica,sans-Serif" font-size="10.00">/workflow/include/ITSWorkflow</text>
<text text-anchor="middle" x="776" y="-97.5" font-family="Helvetica,sans-Serif" font-size="10.00">/DigitReaderSpec.h</text>
</a>
</g>
</g>
<!-- Node1&#45;&gt;Node9 -->
<g id="edge10" class="edge"><title>Node1&#45;&gt;Node9</title>
<path fill="none" stroke="midnightblue" d="M1592.74,-212.916C1421.6,-205.296 999.531,-184.004 861,-154 858.083,-153.368 855.131,-152.66 852.165,-151.889"/>
<polygon fill="midnightblue" stroke="midnightblue" points="1592.77,-216.42 1602.92,-213.365 1593.08,-209.427 1592.77,-216.42"/>
</g>
<!-- Node11 -->
<g id="node11" class="node"><title>Node11</title>
<g id="a_node11"><a xlink:href="../../d9/ddb/TrackWriterSpec_8h.html" target="_top" xlink:title="/home/travis/build\l/AliceO2Group/AliceO2\l/Detectors/ITSMFT/ITS\l/workflow/include/ITSWorkflow\l/TrackWriterSpec.h">
<polygon fill="none" stroke="black" points="870,-90.5 870,-153.5 1022,-153.5 1022,-90.5 870,-90.5"/>
<text text-anchor="start" x="878" y="-141.5" font-family="Helvetica,sans-Serif" font-size="10.00">/home/travis/build</text>
<text text-anchor="start" x="878" y="-130.5" font-family="Helvetica,sans-Serif" font-size="10.00">/AliceO2Group/AliceO2</text>
<text text-anchor="start" x="878" y="-119.5" font-family="Helvetica,sans-Serif" font-size="10.00">/Detectors/ITSMFT/ITS</text>
<text text-anchor="start" x="878" y="-108.5" font-family="Helvetica,sans-Serif" font-size="10.00">/workflow/include/ITSWorkflow</text>
<text text-anchor="middle" x="946" y="-97.5" font-family="Helvetica,sans-Serif" font-size="10.00">/TrackWriterSpec.h</text>
</a>
</g>
</g>
<!-- Node1&#45;&gt;Node11 -->
<g id="edge13" class="edge"><title>Node1&#45;&gt;Node11</title>
<path fill="none" stroke="midnightblue" d="M1592.87,-214.826C1473.73,-211.588 1230.94,-199.449 1031,-154 1028.09,-153.338 1025.14,-152.604 1022.18,-151.812"/>
<polygon fill="midnightblue" stroke="midnightblue" points="1592.89,-218.327 1602.97,-215.087 1593.07,-211.329 1592.89,-218.327"/>
</g>
<!-- Node13 -->
<g id="node13" class="node"><title>Node13</title>
<g id="a_node13"><a xlink:href="../../d7/da1/TrackerSpec_8cxx.html" target="_top" xlink:title="/home/travis/build\l/AliceO2Group/AliceO2\l/Detectors/ITSMFT/ITS\l/workflow/src/TrackerSpec.cxx">
<polygon fill="none" stroke="black" points="1040,-96 1040,-148 1192,-148 1192,-96 1040,-96"/>
<text text-anchor="start" x="1048" y="-136" font-family="Helvetica,sans-Serif" font-size="10.00">/home/travis/build</text>
<text text-anchor="start" x="1048" y="-125" font-family="Helvetica,sans-Serif" font-size="10.00">/AliceO2Group/AliceO2</text>
<text text-anchor="start" x="1048" y="-114" font-family="Helvetica,sans-Serif" font-size="10.00">/Detectors/ITSMFT/ITS</text>
<text text-anchor="middle" x="1116" y="-103" font-family="Helvetica,sans-Serif" font-size="10.00">/workflow/src/TrackerSpec.cxx</text>
</a>
</g>
</g>
<!-- Node1&#45;&gt;Node13 -->
<g id="edge16" class="edge"><title>Node1&#45;&gt;Node13</title>
<path fill="none" stroke="midnightblue" d="M1592.68,-211.166C1500.27,-203.951 1337.07,-187.462 1201,-154 1194.14,-152.312 1187.06,-150.26 1180.06,-148.023"/>
<polygon fill="midnightblue" stroke="midnightblue" points="1592.53,-214.665 1602.77,-211.939 1593.06,-207.685 1592.53,-214.665"/>
</g>
<!-- Node14 -->
<g id="node14" class="node"><title>Node14</title>
<g id="a_node14"><a xlink:href="../../d7/d33/Dispatcher_8h.html" target="_top" xlink:title="Declaration of Dispatcher for O2 Data Sampling. ">
<polygon fill="none" stroke="black" points="1210.5,-96 1210.5,-148 1337.5,-148 1337.5,-96 1210.5,-96"/>
<text text-anchor="start" x="1218.5" y="-136" font-family="Helvetica,sans-Serif" font-size="10.00">/home/travis/build</text>
<text text-anchor="start" x="1218.5" y="-125" font-family="Helvetica,sans-Serif" font-size="10.00">/AliceO2Group/AliceO2</text>
<text text-anchor="start" x="1218.5" y="-114" font-family="Helvetica,sans-Serif" font-size="10.00">/Framework/Core/include</text>
<text text-anchor="middle" x="1274" y="-103" font-family="Helvetica,sans-Serif" font-size="10.00">/Framework/Dispatcher.h</text>
</a>
</g>
</g>
<!-- Node1&#45;&gt;Node14 -->
<g id="edge17" class="edge"><title>Node1&#45;&gt;Node14</title>
<path fill="none" stroke="midnightblue" d="M1592.5,-206.192C1527.14,-196.419 1429.45,-179.214 1347,-154 1341.34,-152.269 1335.52,-150.244 1329.75,-148.074"/>
<polygon fill="midnightblue" stroke="midnightblue" points="1592.3,-209.7 1602.7,-207.697 1593.32,-202.775 1592.3,-209.7"/>
</g>
<!-- Node17 -->
<g id="node17" class="node"><title>Node17</title>
<g id="a_node17"><a xlink:href="../../d5/d01/Task_8cxx.html" target="_top" xlink:title="/home/travis/build\l/AliceO2Group/AliceO2\l/Framework/Core/src/Task.cxx">
<polygon fill="none" stroke="black" points="1356,-101.5 1356,-142.5 1508,-142.5 1508,-101.5 1356,-101.5"/>
<text text-anchor="start" x="1364" y="-130.5" font-family="Helvetica,sans-Serif" font-size="10.00">/home/travis/build</text>
<text text-anchor="start" x="1364" y="-119.5" font-family="Helvetica,sans-Serif" font-size="10.00">/AliceO2Group/AliceO2</text>
<text text-anchor="middle" x="1432" y="-108.5" font-family="Helvetica,sans-Serif" font-size="10.00">/Framework/Core/src/Task.cxx</text>
</a>
</g>
</g>
<!-- Node1&#45;&gt;Node17 -->
<g id="edge20" class="edge"><title>Node1&#45;&gt;Node17</title>
<path fill="none" stroke="midnightblue" d="M1593.4,-187.148C1557.02,-172.688 1513.91,-155.555 1481.4,-142.635"/>
<polygon fill="midnightblue" stroke="midnightblue" points="1592.4,-190.514 1602.98,-190.955 1594.98,-184.009 1592.4,-190.514"/>
</g>
<!-- Node18 -->
<g id="node18" class="node"><title>Node18</title>
<g id="a_node18"><a xlink:href="../../db/d49/test__Task_8cxx.html" target="_top" xlink:title="/home/travis/build\l/AliceO2Group/AliceO2\l/Framework/Core/test/test\l_Task.cxx">
<polygon fill="none" stroke="black" points="1526.5,-96 1526.5,-148 1657.5,-148 1657.5,-96 1526.5,-96"/>
<text text-anchor="start" x="1534.5" y="-136" font-family="Helvetica,sans-Serif" font-size="10.00">/home/travis/build</text>
<text text-anchor="start" x="1534.5" y="-125" font-family="Helvetica,sans-Serif" font-size="10.00">/AliceO2Group/AliceO2</text>
<text text-anchor="start" x="1534.5" y="-114" font-family="Helvetica,sans-Serif" font-size="10.00">/Framework/Core/test/test</text>
<text text-anchor="middle" x="1592" y="-103" font-family="Helvetica,sans-Serif" font-size="10.00">_Task.cxx</text>
</a>
</g>
</g>
<!-- Node1&#45;&gt;Node18 -->
<g id="edge21" class="edge"><title>Node1&#45;&gt;Node18</title>
<path fill="none" stroke="midnightblue" d="M1639.38,-182.548C1630.33,-171.173 1620.38,-158.664 1611.94,-148.06"/>
<polygon fill="midnightblue" stroke="midnightblue" points="1636.81,-184.941 1645.78,-190.587 1642.29,-180.583 1636.81,-184.941"/>
</g>
<!-- Node19 -->
<g id="node19" class="node"><title>Node19</title>
<g id="a_node19"><a xlink:href="../../dd/dfe/FITDigitizerSpec_8cxx.html" target="_top" xlink:title="/home/travis/build\l/AliceO2Group/AliceO2\l/Steer/DigitizerWorkflow\l/src/FITDigitizerSpec.cxx">
<polygon fill="none" stroke="black" points="1676,-96 1676,-148 1804,-148 1804,-96 1676,-96"/>
<text text-anchor="start" x="1684" y="-136" font-family="Helvetica,sans-Serif" font-size="10.00">/home/travis/build</text>
<text text-anchor="start" x="1684" y="-125" font-family="Helvetica,sans-Serif" font-size="10.00">/AliceO2Group/AliceO2</text>
<text text-anchor="start" x="1684" y="-114" font-family="Helvetica,sans-Serif" font-size="10.00">/Steer/DigitizerWorkflow</text>
<text text-anchor="middle" x="1740" y="-103" font-family="Helvetica,sans-Serif" font-size="10.00">/src/FITDigitizerSpec.cxx</text>
</a>
</g>
</g>
<!-- Node1&#45;&gt;Node19 -->
<g id="edge22" class="edge"><title>Node1&#45;&gt;Node19</title>
<path fill="none" stroke="midnightblue" d="M1692.62,-182.548C1701.67,-171.173 1711.62,-158.664 1720.06,-148.06"/>
<polygon fill="midnightblue" stroke="midnightblue" points="1689.71,-180.583 1686.22,-190.587 1695.19,-184.941 1689.71,-180.583"/>
</g>
<!-- Node20 -->
<g id="node20" class="node"><title>Node20</title>
<g id="a_node20"><a xlink:href="../../d9/d59/GRPUpdaterSpec_8cxx.html" target="_top" xlink:title="/home/travis/build\l/AliceO2Group/AliceO2\l/Steer/DigitizerWorkflow\l/src/GRPUpdaterSpec.cxx">
<polygon fill="none" stroke="black" points="1822,-96 1822,-148 1956,-148 1956,-96 1822,-96"/>
<text text-anchor="start" x="1830" y="-136" font-family="Helvetica,sans-Serif" font-size="10.00">/home/travis/build</text>
<text text-anchor="start" x="1830" y="-125" font-family="Helvetica,sans-Serif" font-size="10.00">/AliceO2Group/AliceO2</text>
<text text-anchor="start" x="1830" y="-114" font-family="Helvetica,sans-Serif" font-size="10.00">/Steer/DigitizerWorkflow</text>
<text text-anchor="middle" x="1889" y="-103" font-family="Helvetica,sans-Serif" font-size="10.00">/src/GRPUpdaterSpec.cxx</text>
</a>
</g>
</g>
<!-- Node1&#45;&gt;Node20 -->
<g id="edge23" class="edge"><title>Node1&#45;&gt;Node20</title>
<path fill="none" stroke="midnightblue" d="M1735.58,-186.982C1765.47,-174.515 1800.07,-160.086 1828.84,-148.089"/>
<polygon fill="midnightblue" stroke="midnightblue" points="1733.94,-183.876 1726.05,-190.955 1736.63,-190.337 1733.94,-183.876"/>
</g>
<!-- Node21 -->
<g id="node21" class="node"><title>Node21</title>
<g id="a_node21"><a xlink:href="../../d8/d00/HMPIDDigitizerSpec_8cxx.html" target="_top" xlink:title="/home/travis/build\l/AliceO2Group/AliceO2\l/Steer/DigitizerWorkflow\l/src/HMPIDDigitizerSpec.cxx">
<polygon fill="none" stroke="black" points="1974,-96 1974,-148 2120,-148 2120,-96 1974,-96"/>
<text text-anchor="start" x="1982" y="-136" font-family="Helvetica,sans-Serif" font-size="10.00">/home/travis/build</text>
<text text-anchor="start" x="1982" y="-125" font-family="Helvetica,sans-Serif" font-size="10.00">/AliceO2Group/AliceO2</text>
<text text-anchor="start" x="1982" y="-114" font-family="Helvetica,sans-Serif" font-size="10.00">/Steer/DigitizerWorkflow</text>
<text text-anchor="middle" x="2047" y="-103" font-family="Helvetica,sans-Serif" font-size="10.00">/src/HMPIDDigitizerSpec.cxx</text>
</a>
</g>
</g>
<!-- Node1&#45;&gt;Node21 -->
<g id="edge24" class="edge"><title>Node1&#45;&gt;Node21</title>
<path fill="none" stroke="midnightblue" d="M1739.05,-204.16C1800.07,-193.484 1889.05,-176.082 1965,-154 1971.14,-152.215 1977.47,-150.182 1983.76,-148.029"/>
<polygon fill="midnightblue" stroke="midnightblue" points="1738.38,-200.724 1729.12,-205.88 1739.57,-207.621 1738.38,-200.724"/>
</g>
<!-- Node22 -->
<g id="node22" class="node"><title>Node22</title>
<g id="a_node22"><a xlink:href="../../d3/d43/ITSMFTDigitizerSpec_8cxx.html" target="_top" xlink:title="/home/travis/build\l/AliceO2Group/AliceO2\l/Steer/DigitizerWorkflow\l/src/ITSMFTDigitizerSpec.cxx">
<polygon fill="none" stroke="black" points="2138.5,-96 2138.5,-148 2287.5,-148 2287.5,-96 2138.5,-96"/>
<text text-anchor="start" x="2146.5" y="-136" font-family="Helvetica,sans-Serif" font-size="10.00">/home/travis/build</text>
<text text-anchor="start" x="2146.5" y="-125" font-family="Helvetica,sans-Serif" font-size="10.00">/AliceO2Group/AliceO2</text>
<text text-anchor="start" x="2146.5" y="-114" font-family="Helvetica,sans-Serif" font-size="10.00">/Steer/DigitizerWorkflow</text>
<text text-anchor="middle" x="2213" y="-103" font-family="Helvetica,sans-Serif" font-size="10.00">/src/ITSMFTDigitizerSpec.cxx</text>
</a>
</g>
</g>
<!-- Node1&#45;&gt;Node22 -->
<g id="edge25" class="edge"><title>Node1&#45;&gt;Node22</title>
<path fill="none" stroke="midnightblue" d="M1739.41,-211.186C1831.51,-204.007 1993.77,-187.571 2129,-154 2135.79,-152.315 2142.79,-150.264 2149.71,-148.028"/>
<polygon fill="midnightblue" stroke="midnightblue" points="1739.06,-207.703 1729.36,-211.955 1739.59,-214.683 1739.06,-207.703"/>
</g>
<!-- Node23 -->
<g id="node23" class="node"><title>Node23</title>
<g id="a_node23"><a xlink:href="../../df/d17/ITSMFTDigitWriterSpec_8cxx.html" target="_top" xlink:title="/home/travis/build\l/AliceO2Group/AliceO2\l/Steer/DigitizerWorkflow\l/src/ITSMFTDigitWriterSpec.cxx">
<polygon fill="none" stroke="black" points="2306,-96 2306,-148 2466,-148 2466,-96 2306,-96"/>
<text text-anchor="start" x="2314" y="-136" font-family="Helvetica,sans-Serif" font-size="10.00">/home/travis/build</text>
<text text-anchor="start" x="2314" y="-125" font-family="Helvetica,sans-Serif" font-size="10.00">/AliceO2Group/AliceO2</text>
<text text-anchor="start" x="2314" y="-114" font-family="Helvetica,sans-Serif" font-size="10.00">/Steer/DigitizerWorkflow</text>
<text text-anchor="middle" x="2386" y="-103" font-family="Helvetica,sans-Serif" font-size="10.00">/src/ITSMFTDigitWriterSpec.cxx</text>
</a>
</g>
</g>
<!-- Node1&#45;&gt;Node23 -->
<g id="edge26" class="edge"><title>Node1&#45;&gt;Node23</title>
<path fill="none" stroke="midnightblue" d="M1739.39,-214.32C1857.8,-210.375 2097.76,-197.27 2296,-154 2303.43,-152.379 2311.09,-150.339 2318.67,-148.084"/>
<polygon fill="midnightblue" stroke="midnightblue" points="1739.23,-210.823 1729.35,-214.642 1739.46,-217.819 1739.23,-210.823"/>
</g>
<!-- Node24 -->
<g id="node24" class="node"><title>Node24</title>
<g id="a_node24"><a xlink:href="../../db/d2f/MCHDigitizerSpec_8cxx.html" target="_top" xlink:title="/home/travis/build\l/AliceO2Group/AliceO2\l/Steer/DigitizerWorkflow\l/src/MCHDigitizerSpec.cxx">
<polygon fill="none" stroke="black" points="2484.5,-96 2484.5,-148 2621.5,-148 2621.5,-96 2484.5,-96"/>
<text text-anchor="start" x="2492.5" y="-136" font-family="Helvetica,sans-Serif" font-size="10.00">/home/travis/build</text>
<text text-anchor="start" x="2492.5" y="-125" font-family="Helvetica,sans-Serif" font-size="10.00">/AliceO2Group/AliceO2</text>
<text text-anchor="start" x="2492.5" y="-114" font-family="Helvetica,sans-Serif" font-size="10.00">/Steer/DigitizerWorkflow</text>
<text text-anchor="middle" x="2553" y="-103" font-family="Helvetica,sans-Serif" font-size="10.00">/src/MCHDigitizerSpec.cxx</text>
</a>
</g>
</g>
<!-- Node1&#45;&gt;Node24 -->
<g id="edge27" class="edge"><title>Node1&#45;&gt;Node24</title>
<path fill="none" stroke="midnightblue" d="M1739.37,-213.207C1911.29,-206.206 2336.14,-186.131 2475,-154 2481.81,-152.423 2488.82,-150.348 2495.69,-148.016"/>
<polygon fill="midnightblue" stroke="midnightblue" points="1739,-209.719 1729.15,-213.62 1739.28,-216.713 1739,-209.719"/>
</g>
<!-- Node25 -->
<g id="node25" class="node"><title>Node25</title>
<g id="a_node25"><a xlink:href="../../da/df1/TOFClusterizerSpec_8cxx.html" target="_top" xlink:title="/home/travis/build\l/AliceO2Group/AliceO2\l/Steer/DigitizerWorkflow\l/src/TOFClusterizerSpec.cxx">
<polygon fill="none" stroke="black" points="2640,-96 2640,-148 2784,-148 2784,-96 2640,-96"/>
<text text-anchor="start" x="2648" y="-136" font-family="Helvetica,sans-Serif" font-size="10.00">/home/travis/build</text>
<text text-anchor="start" x="2648" y="-125" font-family="Helvetica,sans-Serif" font-size="10.00">/AliceO2Group/AliceO2</text>
<text text-anchor="start" x="2648" y="-114" font-family="Helvetica,sans-Serif" font-size="10.00">/Steer/DigitizerWorkflow</text>
<text text-anchor="middle" x="2712" y="-103" font-family="Helvetica,sans-Serif" font-size="10.00">/src/TOFClusterizerSpec.cxx</text>
</a>
</g>
</g>
<!-- Node1&#45;&gt;Node25 -->
<g id="edge28" class="edge"><title>Node1&#45;&gt;Node25</title>
<path fill="none" stroke="midnightblue" d="M1739.31,-214.098C1933.91,-208.602 2460.2,-190.695 2630,-154 2637.14,-152.457 2644.49,-150.403 2651.71,-148.083"/>
<polygon fill="midnightblue" stroke="midnightblue" points="1739.09,-210.603 1729.19,-214.382 1739.28,-217.6 1739.09,-210.603"/>
</g>
<!-- Node26 -->
<g id="node26" class="node"><title>Node26</title>
<g id="a_node26"><a xlink:href="../../d2/d0b/TPCDigitizerSpec_8cxx.html" target="_top" xlink:title="/home/travis/build\l/AliceO2Group/AliceO2\l/Steer/DigitizerWorkflow\l/src/TPCDigitizerSpec.cxx">
<polygon fill="none" stroke="black" points="2802,-96 2802,-148 2936,-148 2936,-96 2802,-96"/>
<text text-anchor="start" x="2810" y="-136" font-family="Helvetica,sans-Serif" font-size="10.00">/home/travis/build</text>
<text text-anchor="start" x="2810" y="-125" font-family="Helvetica,sans-Serif" font-size="10.00">/AliceO2Group/AliceO2</text>
<text text-anchor="start" x="2810" y="-114" font-family="Helvetica,sans-Serif" font-size="10.00">/Steer/DigitizerWorkflow</text>
<text text-anchor="middle" x="2869" y="-103" font-family="Helvetica,sans-Serif" font-size="10.00">/src/TPCDigitizerSpec.cxx</text>
</a>
</g>
</g>
<!-- Node1&#45;&gt;Node26 -->
<g id="edge29" class="edge"><title>Node1&#45;&gt;Node26</title>
<path fill="none" stroke="midnightblue" d="M1739.4,-215.131C1956.21,-212.065 2591.26,-199.352 2793,-154 2799.81,-152.469 2806.8,-150.388 2813.65,-148.024"/>
<polygon fill="midnightblue" stroke="midnightblue" points="1739.03,-211.636 1729.08,-215.274 1739.13,-218.635 1739.03,-211.636"/>
</g>
<!-- Node27 -->
<g id="node27" class="node"><title>Node27</title>
<g id="a_node27"><a xlink:href="../../d6/df2/TRDDigitizerSpec_8cxx.html" target="_top" xlink:title="/home/travis/build\l/AliceO2Group/AliceO2\l/Steer/DigitizerWorkflow\l/src/TRDDigitizerSpec.cxx">
<polygon fill="none" stroke="black" points="2954,-96 2954,-148 3088,-148 3088,-96 2954,-96"/>
<text text-anchor="start" x="2962" y="-136" font-family="Helvetica,sans-Serif" font-size="10.00">/home/travis/build</text>
<text text-anchor="start" x="2962" y="-125" font-family="Helvetica,sans-Serif" font-size="10.00">/AliceO2Group/AliceO2</text>
<text text-anchor="start" x="2962" y="-114" font-family="Helvetica,sans-Serif" font-size="10.00">/Steer/DigitizerWorkflow</text>
<text text-anchor="middle" x="3021" y="-103" font-family="Helvetica,sans-Serif" font-size="10.00">/src/TRDDigitizerSpec.cxx</text>
</a>
</g>
</g>
<!-- Node1&#45;&gt;Node27 -->
<g id="edge30" class="edge"><title>Node1&#45;&gt;Node27</title>
<path fill="none" stroke="midnightblue" d="M1739.41,-215.692C1975.42,-214.191 2712.81,-205.402 2945,-154 2951.82,-152.491 2958.81,-150.424 2965.66,-148.067"/>
<polygon fill="midnightblue" stroke="midnightblue" points="1739.2,-212.193 1729.22,-215.754 1739.24,-219.193 1739.2,-212.193"/>
</g>
<!-- Node3 -->
<g id="node3" class="node"><title>Node3</title>
<g id="a_node3"><a xlink:href="../../d3/da3/ITSMFT_2ITS_2workflow_2src_2ClustererSpec_8cxx.html" target="_top" xlink:title="/home/travis/build\l/AliceO2Group/AliceO2\l/Detectors/ITSMFT/ITS\l/workflow/src/ClustererSpec.cxx">
<polygon fill="none" stroke="black" points="-0.5,-1 -0.5,-53 158.5,-53 158.5,-1 -0.5,-1"/>
<text text-anchor="start" x="7.5" y="-41" font-family="Helvetica,sans-Serif" font-size="10.00">/home/travis/build</text>
<text text-anchor="start" x="7.5" y="-30" font-family="Helvetica,sans-Serif" font-size="10.00">/AliceO2Group/AliceO2</text>
<text text-anchor="start" x="7.5" y="-19" font-family="Helvetica,sans-Serif" font-size="10.00">/Detectors/ITSMFT/ITS</text>
<text text-anchor="middle" x="79" y="-8" font-family="Helvetica,sans-Serif" font-size="10.00">/workflow/src/ClustererSpec.cxx</text>
</a>
</g>
</g>
<!-- Node2&#45;&gt;Node3 -->
<g id="edge2" class="edge"><title>Node2&#45;&gt;Node3</title>
<path fill="none" stroke="midnightblue" d="M195.523,-85.9499C173.496,-74.9952 149.65,-63.1363 129.303,-53.0171"/>
<polygon fill="midnightblue" stroke="midnightblue" points="193.998,-89.1003 204.51,-90.4195 197.115,-82.8326 193.998,-89.1003"/>
</g>
<!-- Node4 -->
<g id="node4" class="node"><title>Node4</title>
<g id="a_node4"><a xlink:href="../../d5/d99/ITSMFT_2ITS_2workflow_2src_2RecoWorkflow_8cxx.html" target="_top" xlink:title="/home/travis/build\l/AliceO2Group/AliceO2\l/Detectors/ITSMFT/ITS\l/workflow/src/RecoWorkflow.cxx">
<polygon fill="none" stroke="black" points="371.5,-1 371.5,-53 532.5,-53 532.5,-1 371.5,-1"/>
<text text-anchor="start" x="379.5" y="-41" font-family="Helvetica,sans-Serif" font-size="10.00">/home/travis/build</text>
<text text-anchor="start" x="379.5" y="-30" font-family="Helvetica,sans-Serif" font-size="10.00">/AliceO2Group/AliceO2</text>
<text text-anchor="start" x="379.5" y="-19" font-family="Helvetica,sans-Serif" font-size="10.00">/Detectors/ITSMFT/ITS</text>
<text text-anchor="middle" x="452" y="-8" font-family="Helvetica,sans-Serif" font-size="10.00">/workflow/src/RecoWorkflow.cxx</text>
</a>
</g>
</g>
<!-- Node2&#45;&gt;Node4 -->
<g id="edge3" class="edge"><title>Node2&#45;&gt;Node4</title>
<path fill="none" stroke="midnightblue" d="M336.392,-85.8038C358.22,-74.8898 381.817,-63.0913 401.966,-53.0171"/>
<polygon fill="midnightblue" stroke="midnightblue" points="334.54,-82.8168 327.161,-90.4195 337.671,-89.0778 334.54,-82.8168"/>
</g>
<!-- Node5&#45;&gt;Node4 -->
<g id="edge6" class="edge"><title>Node5&#45;&gt;Node4</title>
<path fill="none" stroke="midnightblue" d="M442.983,-80.409C444.581,-71.1208 446.234,-61.5129 447.682,-53.1001"/>
<polygon fill="midnightblue" stroke="midnightblue" points="439.53,-79.8419 441.283,-90.2906 446.428,-81.0288 439.53,-79.8419"/>
</g>
<!-- Node6 -->
<g id="node6" class="node"><title>Node6</title>
<g id="a_node6"><a xlink:href="../../df/d56/ClusterWriterSpec_8cxx.html" target="_top" xlink:title="/home/travis/build\l/AliceO2Group/AliceO2\l/Detectors/ITSMFT/ITS\l/workflow/src/ClusterWriterSpec.cxx">
<polygon fill="none" stroke="black" points="176.5,-1 176.5,-53 353.5,-53 353.5,-1 176.5,-1"/>
<text text-anchor="start" x="184.5" y="-41" font-family="Helvetica,sans-Serif" font-size="10.00">/home/travis/build</text>
<text text-anchor="start" x="184.5" y="-30" font-family="Helvetica,sans-Serif" font-size="10.00">/AliceO2Group/AliceO2</text>
<text text-anchor="start" x="184.5" y="-19" font-family="Helvetica,sans-Serif" font-size="10.00">/Detectors/ITSMFT/ITS</text>
<text text-anchor="middle" x="265" y="-8" font-family="Helvetica,sans-Serif" font-size="10.00">/workflow/src/ClusterWriterSpec.cxx</text>
</a>
</g>
</g>
<!-- Node5&#45;&gt;Node6 -->
<g id="edge5" class="edge"><title>Node5&#45;&gt;Node6</title>
<path fill="none" stroke="midnightblue" d="M370.557,-85.4081C350.748,-74.6351 329.418,-63.0343 311.152,-53.1001"/>
<polygon fill="midnightblue" stroke="midnightblue" points="369.077,-88.5875 379.534,-90.2906 372.422,-82.4381 369.077,-88.5875"/>
</g>
<!-- Node7&#45;&gt;Node4 -->
<g id="edge9" class="edge"><title>Node7&#45;&gt;Node4</title>
<path fill="none" stroke="midnightblue" d="M546.58,-85.1167C528.878,-74.4262 509.866,-62.9448 493.564,-53.1001"/>
<polygon fill="midnightblue" stroke="midnightblue" points="544.778,-88.1171 555.148,-90.2906 548.397,-82.125 544.778,-88.1171"/>
</g>
<!-- Node8 -->
<g id="node8" class="node"><title>Node8</title>
<g id="a_node8"><a xlink:href="../../d6/dbc/CookedTrackerSpec_8cxx.html" target="_top" xlink:title="/home/travis/build\l/AliceO2Group/AliceO2\l/Detectors/ITSMFT/ITS\l/workflow/src/CookedTrackerSpec.cxx">
<polygon fill="none" stroke="black" points="551,-1 551,-53 737,-53 737,-1 551,-1"/>
<text text-anchor="start" x="559" y="-41" font-family="Helvetica,sans-Serif" font-size="10.00">/home/travis/build</text>
<text text-anchor="start" x="559" y="-30" font-family="Helvetica,sans-Serif" font-size="10.00">/AliceO2Group/AliceO2</text>
<text text-anchor="start" x="559" y="-19" font-family="Helvetica,sans-Serif" font-size="10.00">/Detectors/ITSMFT/ITS</text>
<text text-anchor="middle" x="644" y="-8" font-family="Helvetica,sans-Serif" font-size="10.00">/workflow/src/CookedTrackerSpec.cxx</text>
</a>
</g>
</g>
<!-- Node7&#45;&gt;Node8 -->
<g id="edge8" class="edge"><title>Node7&#45;&gt;Node8</title>
<path fill="none" stroke="midnightblue" d="M622.343,-81.0014C626.213,-71.5302 630.233,-61.6919 633.744,-53.1001"/>
<polygon fill="midnightblue" stroke="midnightblue" points="619.09,-79.7096 618.548,-90.2906 625.57,-82.3574 619.09,-79.7096"/>
</g>
<!-- Node9&#45;&gt;Node4 -->
<g id="edge12" class="edge"><title>Node9&#45;&gt;Node4</title>
<path fill="none" stroke="midnightblue" d="M690.052,-89.8251C624.076,-70.3642 604.895,-70.6741 542,-54 539.013,-53.2081 535.974,-52.3906 532.906,-51.5555"/>
<polygon fill="midnightblue" stroke="midnightblue" points="689.097,-93.1929 699.681,-92.7062 691.104,-86.4866 689.097,-93.1929"/>
</g>
<!-- Node10 -->
<g id="node10" class="node"><title>Node10</title>
<g id="a_node10"><a xlink:href="../../d5/dce/DigitReaderSpec_8cxx.html" target="_top" xlink:title="/home/travis/build\l/AliceO2Group/AliceO2\l/Detectors/ITSMFT/ITS\l/workflow/src/DigitReaderSpec.cxx">
<polygon fill="none" stroke="black" points="755.5,-1 755.5,-53 926.5,-53 926.5,-1 755.5,-1"/>
<text text-anchor="start" x="763.5" y="-41" font-family="Helvetica,sans-Serif" font-size="10.00">/home/travis/build</text>
<text text-anchor="start" x="763.5" y="-30" font-family="Helvetica,sans-Serif" font-size="10.00">/AliceO2Group/AliceO2</text>
<text text-anchor="start" x="763.5" y="-19" font-family="Helvetica,sans-Serif" font-size="10.00">/Detectors/ITSMFT/ITS</text>
<text text-anchor="middle" x="841" y="-8" font-family="Helvetica,sans-Serif" font-size="10.00">/workflow/src/DigitReaderSpec.cxx</text>
</a>
</g>
</g>
<!-- Node9&#45;&gt;Node10 -->
<g id="edge11" class="edge"><title>Node9&#45;&gt;Node10</title>
<path fill="none" stroke="midnightblue" d="M803.336,-81.8882C810.145,-72.1463 817.264,-61.9603 823.457,-53.1001"/>
<polygon fill="midnightblue" stroke="midnightblue" points="800.324,-80.089 797.464,-90.2906 806.061,-84.0992 800.324,-80.089"/>
</g>
<!-- Node11&#45;&gt;Node4 -->
<g id="edge14" class="edge"><title>Node11&#45;&gt;Node4</title>
<path fill="none" stroke="midnightblue" d="M860.013,-89.9802C720.258,-58.4047 678.781,-81.2721 542,-54 538.97,-53.3958 535.893,-52.738 532.794,-52.038"/>
<polygon fill="midnightblue" stroke="midnightblue" points="859.273,-93.4013 869.805,-92.2442 860.851,-86.5813 859.273,-93.4013"/>
</g>
<!-- Node12 -->
<g id="node12" class="node"><title>Node12</title>
<g id="a_node12"><a xlink:href="../../d9/d98/TrackWriterSpec_8cxx.html" target="_top" xlink:title="/home/travis/build\l/AliceO2Group/AliceO2\l/Detectors/ITSMFT/ITS\l/workflow/src/TrackWriterSpec.cxx">
<polygon fill="none" stroke="black" points="945,-1 945,-53 1115,-53 1115,-1 945,-1"/>
<text text-anchor="start" x="953" y="-41" font-family="Helvetica,sans-Serif" font-size="10.00">/home/travis/build</text>
<text text-anchor="start" x="953" y="-30" font-family="Helvetica,sans-Serif" font-size="10.00">/AliceO2Group/AliceO2</text>
<text text-anchor="start" x="953" y="-19" font-family="Helvetica,sans-Serif" font-size="10.00">/Detectors/ITSMFT/ITS</text>
<text text-anchor="middle" x="1030" y="-8" font-family="Helvetica,sans-Serif" font-size="10.00">/workflow/src/TrackWriterSpec.cxx</text>
</a>
</g>
</g>
<!-- Node11&#45;&gt;Node12 -->
<g id="edge15" class="edge"><title>Node11&#45;&gt;Node12</title>
<path fill="none" stroke="midnightblue" d="M980.528,-82.7726C989.567,-72.7648 999.084,-62.2288 1007.33,-53.1001"/>
<polygon fill="midnightblue" stroke="midnightblue" points="977.843,-80.5235 973.738,-90.2906 983.038,-85.2155 977.843,-80.5235"/>
</g>
<!-- Node15 -->
<g id="node15" class="node"><title>Node15</title>
<g id="a_node15"><a xlink:href="../../d0/dd6/DataSampling_8cxx.html" target="_top" xlink:title="Implementation of O2 Data Sampling, v1.0. ">
<polygon fill="none" stroke="black" points="1163,-6.5 1163,-47.5 1355,-47.5 1355,-6.5 1163,-6.5"/>
<text text-anchor="start" x="1171" y="-35.5" font-family="Helvetica,sans-Serif" font-size="10.00">/home/travis/build</text>
<text text-anchor="start" x="1171" y="-24.5" font-family="Helvetica,sans-Serif" font-size="10.00">/AliceO2Group/AliceO2</text>
<text text-anchor="middle" x="1259" y="-13.5" font-family="Helvetica,sans-Serif" font-size="10.00">/Framework/Core/src/DataSampling.cxx</text>
</a>
</g>
</g>
<!-- Node14&#45;&gt;Node15 -->
<g id="edge18" class="edge"><title>Node14&#45;&gt;Node15</title>
<path fill="none" stroke="midnightblue" d="M1268.3,-85.6392C1266.23,-72.8128 1263.97,-58.7851 1262.19,-47.7798"/>
<polygon fill="midnightblue" stroke="midnightblue" points="1264.85,-86.2723 1269.9,-95.5873 1271.76,-85.1576 1264.85,-86.2723"/>
</g>
<!-- Node16 -->
<g id="node16" class="node"><title>Node16</title>
<g id="a_node16"><a xlink:href="../../d1/dca/Dispatcher_8cxx.html" target="_top" xlink:title="Implementation of Dispatcher for O2 Data Sampling. ">
<polygon fill="none" stroke="black" points="1373,-6.5 1373,-47.5 1551,-47.5 1551,-6.5 1373,-6.5"/>
<text text-anchor="start" x="1381" y="-35.5" font-family="Helvetica,sans-Serif" font-size="10.00">/home/travis/build</text>
<text text-anchor="start" x="1381" y="-24.5" font-family="Helvetica,sans-Serif" font-size="10.00">/AliceO2Group/AliceO2</text>
<text text-anchor="middle" x="1462" y="-13.5" font-family="Helvetica,sans-Serif" font-size="10.00">/Framework/Core/src/Dispatcher.cxx</text>
</a>
</g>
</g>
<!-- Node14&#45;&gt;Node16 -->
<g id="edge19" class="edge"><title>Node14&#45;&gt;Node16</title>
<path fill="none" stroke="midnightblue" d="M1334.07,-91.2862C1362.96,-76.9925 1396.8,-60.2546 1422.41,-47.5836"/>
<polygon fill="midnightblue" stroke="midnightblue" points="1332.29,-88.2617 1324.88,-95.8329 1335.39,-94.536 1332.29,-88.2617"/>
</g>
</g>
</svg>
