<?xml version="1.0" encoding="UTF-8" standalone="no"?>
<!DOCTYPE svg PUBLIC "-//W3C//DTD SVG 1.1//EN"
 "http://www.w3.org/Graphics/SVG/1.1/DTD/svg11.dtd">
<!-- Generated by graphviz version 2.36.0 (20140111.2315)
 -->
<!-- Title: /home/travis/build/AliceO2Group/AliceO2/Steer/include/Steer/InteractionSampler.h Pages: 1 -->
<svg width="2140pt" height="332pt"
 viewBox="0.00 0.00 2140.00 332.00" xmlns="http://www.w3.org/2000/svg" xmlns:xlink="http://www.w3.org/1999/xlink">
<g id="graph0" class="graph" transform="scale(1 1) rotate(0) translate(4 328)">
<title>/home/travis/build/AliceO2Group/AliceO2/Steer/include/Steer/InteractionSampler.h</title>
<!-- Node1 -->
<g id="node1" class="node"><title>Node1</title>
<polygon fill="#bfbfbf" stroke="black" points="853,-271 853,-323 1005,-323 1005,-271 853,-271"/>
<text text-anchor="start" x="861" y="-311" font-family="Helvetica,sans-Serif" font-size="10.00">/home/travis/build</text>
<text text-anchor="start" x="861" y="-300" font-family="Helvetica,sans-Serif" font-size="10.00">/AliceO2Group/AliceO2</text>
<text text-anchor="start" x="861" y="-289" font-family="Helvetica,sans-Serif" font-size="10.00">/Steer/include/Steer/Interaction</text>
<text text-anchor="middle" x="929" y="-278" font-family="Helvetica,sans-Serif" font-size="10.00">Sampler.h</text>
</g>
<!-- Node2 -->
<g id="node2" class="node"><title>Node2</title>
<g id="a_node2"><a xlink:href="../../db/d50/O2HitMerger_8h.html" target="_top" xlink:title="/home/travis/build\l/AliceO2Group/AliceO2\l/run/O2HitMerger.h">
<polygon fill="none" stroke="black" points="173,-186.5 173,-227.5 291,-227.5 291,-186.5 173,-186.5"/>
<text text-anchor="start" x="181" y="-215.5" font-family="Helvetica,sans-Serif" font-size="10.00">/home/travis/build</text>
<text text-anchor="start" x="181" y="-204.5" font-family="Helvetica,sans-Serif" font-size="10.00">/AliceO2Group/AliceO2</text>
<text text-anchor="middle" x="232" y="-193.5" font-family="Helvetica,sans-Serif" font-size="10.00">/run/O2HitMerger.h</text>
</a>
</g>
</g>
<!-- Node1&#45;&gt;Node2 -->
<g id="edge1" class="edge"><title>Node1&#45;&gt;Node2</title>
<path fill="none" stroke="midnightblue" d="M842.649,-285.098C698.938,-266.953 414.329,-231.02 291.134,-215.466"/>
<polygon fill="midnightblue" stroke="midnightblue" points="842.389,-288.593 852.749,-286.373 843.266,-281.648 842.389,-288.593"/>
</g>
<!-- Node4 -->
<g id="node4" class="node"><title>Node4</title>
<g id="a_node4"><a xlink:href="../../d3/d87/CollisionTimePrinter_8cxx.html" target="_top" xlink:title="/home/travis/build\l/AliceO2Group/AliceO2\l/Steer/DigitizerWorkflow\l/src/CollisionTimePrinter.cxx">
<polygon fill="none" stroke="black" points="160.5,-91 160.5,-143 303.5,-143 303.5,-91 160.5,-91"/>
<text text-anchor="start" x="168.5" y="-131" font-family="Helvetica,sans-Serif" font-size="10.00">/home/travis/build</text>
<text text-anchor="start" x="168.5" y="-120" font-family="Helvetica,sans-Serif" font-size="10.00">/AliceO2Group/AliceO2</text>
<text text-anchor="start" x="168.5" y="-109" font-family="Helvetica,sans-Serif" font-size="10.00">/Steer/DigitizerWorkflow</text>
<text text-anchor="middle" x="232" y="-98" font-family="Helvetica,sans-Serif" font-size="10.00">/src/CollisionTimePrinter.cxx</text>
</a>
</g>
</g>
<!-- Node1&#45;&gt;Node4 -->
<g id="edge4" class="edge"><title>Node1&#45;&gt;Node4</title>
<path fill="none" stroke="midnightblue" d="M842.856,-276.713C723.303,-249.498 500.601,-197.187 313,-144 310.016,-143.154 306.977,-142.272 303.911,-141.365"/>
<polygon fill="midnightblue" stroke="midnightblue" points="842.164,-280.145 852.692,-278.948 843.716,-273.319 842.164,-280.145"/>
</g>
<!-- Node5 -->
<g id="node5" class="node"><title>Node5</title>
<g id="a_node5"><a xlink:href="../../dd/d40/HitProcessingManager_8h.html" target="_top" xlink:title="/home/travis/build\l/AliceO2Group/AliceO2\l/Steer/include/Steer/HitProcessing\lManager.h">
<polygon fill="none" stroke="black" points="845.5,-181 845.5,-233 1012.5,-233 1012.5,-181 845.5,-181"/>
<text text-anchor="start" x="853.5" y="-221" font-family="Helvetica,sans-Serif" font-size="10.00">/home/travis/build</text>
<text text-anchor="start" x="853.5" y="-210" font-family="Helvetica,sans-Serif" font-size="10.00">/AliceO2Group/AliceO2</text>
<text text-anchor="start" x="853.5" y="-199" font-family="Helvetica,sans-Serif" font-size="10.00">/Steer/include/Steer/HitProcessing</text>
<text text-anchor="middle" x="929" y="-188" font-family="Helvetica,sans-Serif" font-size="10.00">Manager.h</text>
</a>
</g>
</g>
<!-- Node1&#45;&gt;Node5 -->
<g id="edge5" class="edge"><title>Node1&#45;&gt;Node5</title>
<path fill="none" stroke="midnightblue" d="M929,-260.489C929,-251.309 929,-241.616 929,-233.092"/>
<polygon fill="midnightblue" stroke="midnightblue" points="925.5,-260.547 929,-270.547 932.5,-260.547 925.5,-260.547"/>
</g>
<!-- Node19 -->
<g id="node19" class="node"><title>Node19</title>
<g id="a_node19"><a xlink:href="../../de/d50/InteractionSampler_8cxx.html" target="_top" xlink:title="/home/travis/build\l/AliceO2Group/AliceO2\l/Steer/src/InteractionSampler.cxx">
<polygon fill="none" stroke="black" points="1030.5,-186.5 1030.5,-227.5 1193.5,-227.5 1193.5,-186.5 1030.5,-186.5"/>
<text text-anchor="start" x="1038.5" y="-215.5" font-family="Helvetica,sans-Serif" font-size="10.00">/home/travis/build</text>
<text text-anchor="start" x="1038.5" y="-204.5" font-family="Helvetica,sans-Serif" font-size="10.00">/AliceO2Group/AliceO2</text>
<text text-anchor="middle" x="1112" y="-193.5" font-family="Helvetica,sans-Serif" font-size="10.00">/Steer/src/InteractionSampler.cxx</text>
</a>
</g>
</g>
<!-- Node1&#45;&gt;Node19 -->
<g id="edge21" class="edge"><title>Node1&#45;&gt;Node19</title>
<path fill="none" stroke="midnightblue" d="M990.654,-266.352C1017.19,-253.589 1047.5,-239.018 1071.18,-227.628"/>
<polygon fill="midnightblue" stroke="midnightblue" points="988.936,-263.295 981.44,-270.783 991.969,-269.603 988.936,-263.295"/>
</g>
<!-- Node20 -->
<g id="node20" class="node"><title>Node20</title>
<g id="a_node20"><a xlink:href="../../d6/d9e/testInteractionSampler_8cxx.html" target="_top" xlink:title="/home/travis/build\l/AliceO2Group/AliceO2\l/Steer/test/testInteractionSampler.cxx">
<polygon fill="none" stroke="black" points="1212,-186.5 1212,-227.5 1394,-227.5 1394,-186.5 1212,-186.5"/>
<text text-anchor="start" x="1220" y="-215.5" font-family="Helvetica,sans-Serif" font-size="10.00">/home/travis/build</text>
<text text-anchor="start" x="1220" y="-204.5" font-family="Helvetica,sans-Serif" font-size="10.00">/AliceO2Group/AliceO2</text>
<text text-anchor="middle" x="1303" y="-193.5" font-family="Helvetica,sans-Serif" font-size="10.00">/Steer/test/testInteractionSampler.cxx</text>
</a>
</g>
</g>
<!-- Node1&#45;&gt;Node20 -->
<g id="edge22" class="edge"><title>Node1&#45;&gt;Node20</title>
<path fill="none" stroke="midnightblue" d="M1014.89,-277.155C1068.73,-265.179 1139.52,-249.133 1202,-234 1210.45,-231.954 1219.28,-229.761 1228.05,-227.549"/>
<polygon fill="midnightblue" stroke="midnightblue" points="1014.04,-273.758 1005.04,-279.343 1015.56,-280.592 1014.04,-273.758"/>
</g>
<!-- Node2&#45;&gt;Node2 -->
<g id="edge2" class="edge"><title>Node2&#45;&gt;Node2</title>
<path fill="none" stroke="midnightblue" d="M300.662,-219.611C305.826,-216.798 309,-212.595 309,-207 309,-198.475 301.63,-193.18 291.079,-191.115"/>
<polygon fill="midnightblue" stroke="midnightblue" points="299.41,-216.34 291.079,-222.885 301.674,-222.964 299.41,-216.34"/>
</g>
<!-- Node3 -->
<g id="node3" class="node"><title>Node3</title>
<g id="a_node3"><a xlink:href="../../d9/d16/O2HitMergerRunner_8cxx.html" target="_top" xlink:title="/home/travis/build\l/AliceO2Group/AliceO2\l/run/O2HitMergerRunner.cxx">
<polygon fill="none" stroke="black" points="0,-96.5 0,-137.5 142,-137.5 142,-96.5 0,-96.5"/>
<text text-anchor="start" x="8" y="-125.5" font-family="Helvetica,sans-Serif" font-size="10.00">/home/travis/build</text>
<text text-anchor="start" x="8" y="-114.5" font-family="Helvetica,sans-Serif" font-size="10.00">/AliceO2Group/AliceO2</text>
<text text-anchor="middle" x="71" y="-103.5" font-family="Helvetica,sans-Serif" font-size="10.00">/run/O2HitMergerRunner.cxx</text>
</a>
</g>
</g>
<!-- Node2&#45;&gt;Node3 -->
<g id="edge3" class="edge"><title>Node2&#45;&gt;Node3</title>
<path fill="none" stroke="midnightblue" d="M187.227,-181.528C161.889,-167.678 130.627,-150.591 106.909,-137.627"/>
<polygon fill="midnightblue" stroke="midnightblue" points="185.815,-184.745 196.269,-186.47 189.173,-178.603 185.815,-184.745"/>
</g>
<!-- Node5&#45;&gt;Node4 -->
<g id="edge9" class="edge"><title>Node5&#45;&gt;Node4</title>
<path fill="none" stroke="midnightblue" d="M835.174,-196.488C786.491,-191.557 726.05,-185.444 672,-180 512.451,-163.93 469.989,-176.686 313,-144 309.964,-143.368 306.88,-142.664 303.778,-141.906"/>
<polygon fill="midnightblue" stroke="midnightblue" points="835.075,-199.996 845.377,-197.521 835.78,-193.031 835.075,-199.996"/>
</g>
<!-- Node6 -->
<g id="node6" class="node"><title>Node6</title>
<g id="a_node6"><a xlink:href="../../de/d92/TPC_2simulation_2include_2TPCSimulation_2Digitizer_8h.html" target="_top" xlink:title="/home/travis/build\l/AliceO2Group/AliceO2\l/Detectors/TPC/simulation\l/include/TPCSimulation/Digitizer.h">
<polygon fill="none" stroke="black" points="321.5,-91 321.5,-143 488.5,-143 488.5,-91 321.5,-91"/>
<text text-anchor="start" x="329.5" y="-131" font-family="Helvetica,sans-Serif" font-size="10.00">/home/travis/build</text>
<text text-anchor="start" x="329.5" y="-120" font-family="Helvetica,sans-Serif" font-size="10.00">/AliceO2Group/AliceO2</text>
<text text-anchor="start" x="329.5" y="-109" font-family="Helvetica,sans-Serif" font-size="10.00">/Detectors/TPC/simulation</text>
<text text-anchor="middle" x="405" y="-98" font-family="Helvetica,sans-Serif" font-size="10.00">/include/TPCSimulation/Digitizer.h</text>
</a>
</g>
</g>
<!-- Node5&#45;&gt;Node6 -->
<g id="edge6" class="edge"><title>Node5&#45;&gt;Node6</title>
<path fill="none" stroke="midnightblue" d="M835.339,-195.618C748.456,-185.228 615.804,-167.429 502,-144 497.645,-143.104 493.196,-142.128 488.714,-141.097"/>
<polygon fill="midnightblue" stroke="midnightblue" points="835.097,-199.114 845.439,-196.817 835.922,-192.163 835.097,-199.114"/>
</g>
<!-- Node8 -->
<g id="node8" class="node"><title>Node8</title>
<g id="a_node8"><a xlink:href="../../d2/d0b/TPCDigitizerSpec_8cxx.html" target="_top" xlink:title="/home/travis/build\l/AliceO2Group/AliceO2\l/Steer/DigitizerWorkflow\l/src/TPCDigitizerSpec.cxx">
<polygon fill="none" stroke="black" points="449,-1 449,-53 583,-53 583,-1 449,-1"/>
<text text-anchor="start" x="457" y="-41" font-family="Helvetica,sans-Serif" font-size="10.00">/home/travis/build</text>
<text text-anchor="start" x="457" y="-30" font-family="Helvetica,sans-Serif" font-size="10.00">/AliceO2Group/AliceO2</text>
<text text-anchor="start" x="457" y="-19" font-family="Helvetica,sans-Serif" font-size="10.00">/Steer/DigitizerWorkflow</text>
<text text-anchor="middle" x="516" y="-8" font-family="Helvetica,sans-Serif" font-size="10.00">/src/TPCDigitizerSpec.cxx</text>
</a>
</g>
</g>
<!-- Node5&#45;&gt;Node8 -->
<g id="edge17" class="edge"><title>Node5&#45;&gt;Node8</title>
<path fill="none" stroke="midnightblue" d="M835.247,-197.014C725.528,-185.616 556.046,-164.915 535,-144 511.261,-120.409 510.14,-79.4375 512.4,-53.036"/>
<polygon fill="midnightblue" stroke="midnightblue" points="835.036,-200.511 845.342,-198.054 835.753,-193.548 835.036,-200.511"/>
</g>
<!-- Node9 -->
<g id="node9" class="node"><title>Node9</title>
<g id="a_node9"><a xlink:href="../../d5/d9b/EMCALDigitizerSpec_8cxx.html" target="_top" xlink:title="/home/travis/build\l/AliceO2Group/AliceO2\l/Steer/DigitizerWorkflow\l/src/EMCALDigitizerSpec.cxx">
<polygon fill="none" stroke="black" points="544,-91 544,-143 692,-143 692,-91 544,-91"/>
<text text-anchor="start" x="552" y="-131" font-family="Helvetica,sans-Serif" font-size="10.00">/home/travis/build</text>
<text text-anchor="start" x="552" y="-120" font-family="Helvetica,sans-Serif" font-size="10.00">/AliceO2Group/AliceO2</text>
<text text-anchor="start" x="552" y="-109" font-family="Helvetica,sans-Serif" font-size="10.00">/Steer/DigitizerWorkflow</text>
<text text-anchor="middle" x="618" y="-98" font-family="Helvetica,sans-Serif" font-size="10.00">/src/EMCALDigitizerSpec.cxx</text>
</a>
</g>
</g>
<!-- Node5&#45;&gt;Node9 -->
<g id="edge10" class="edge"><title>Node5&#45;&gt;Node9</title>
<path fill="none" stroke="midnightblue" d="M835.615,-181.466C794.266,-170.381 745.104,-156.899 701,-144 698.101,-143.152 695.149,-142.278 692.169,-141.387"/>
<polygon fill="midnightblue" stroke="midnightblue" points="834.837,-184.881 845.402,-184.084 836.646,-178.118 834.837,-184.881"/>
</g>
<!-- Node10 -->
<g id="node10" class="node"><title>Node10</title>
<g id="a_node10"><a xlink:href="../../dd/dfe/FITDigitizerSpec_8cxx.html" target="_top" xlink:title="/home/travis/build\l/AliceO2Group/AliceO2\l/Steer/DigitizerWorkflow\l/src/FITDigitizerSpec.cxx">
<polygon fill="none" stroke="black" points="710,-91 710,-143 838,-143 838,-91 710,-91"/>
<text text-anchor="start" x="718" y="-131" font-family="Helvetica,sans-Serif" font-size="10.00">/home/travis/build</text>
<text text-anchor="start" x="718" y="-120" font-family="Helvetica,sans-Serif" font-size="10.00">/AliceO2Group/AliceO2</text>
<text text-anchor="start" x="718" y="-109" font-family="Helvetica,sans-Serif" font-size="10.00">/Steer/DigitizerWorkflow</text>
<text text-anchor="middle" x="774" y="-98" font-family="Helvetica,sans-Serif" font-size="10.00">/src/FITDigitizerSpec.cxx</text>
</a>
</g>
</g>
<!-- Node5&#45;&gt;Node10 -->
<g id="edge11" class="edge"><title>Node5&#45;&gt;Node10</title>
<path fill="none" stroke="midnightblue" d="M875.834,-175.815C857.04,-165.145 836.12,-153.268 818.155,-143.069"/>
<polygon fill="midnightblue" stroke="midnightblue" points="874.159,-178.889 884.583,-180.783 877.615,-172.802 874.159,-178.889"/>
</g>
<!-- Node11 -->
<g id="node11" class="node"><title>Node11</title>
<g id="a_node11"><a xlink:href="../../d8/d00/HMPIDDigitizerSpec_8cxx.html" target="_top" xlink:title="/home/travis/build\l/AliceO2Group/AliceO2\l/Steer/DigitizerWorkflow\l/src/HMPIDDigitizerSpec.cxx">
<polygon fill="none" stroke="black" points="856,-91 856,-143 1002,-143 1002,-91 856,-91"/>
<text text-anchor="start" x="864" y="-131" font-family="Helvetica,sans-Serif" font-size="10.00">/home/travis/build</text>
<text text-anchor="start" x="864" y="-120" font-family="Helvetica,sans-Serif" font-size="10.00">/AliceO2Group/AliceO2</text>
<text text-anchor="start" x="864" y="-109" font-family="Helvetica,sans-Serif" font-size="10.00">/Steer/DigitizerWorkflow</text>
<text text-anchor="middle" x="929" y="-98" font-family="Helvetica,sans-Serif" font-size="10.00">/src/HMPIDDigitizerSpec.cxx</text>
</a>
</g>
</g>
<!-- Node5&#45;&gt;Node11 -->
<g id="edge12" class="edge"><title>Node5&#45;&gt;Node11</title>
<path fill="none" stroke="midnightblue" d="M929,-170.489C929,-161.309 929,-151.616 929,-143.092"/>
<polygon fill="midnightblue" stroke="midnightblue" points="925.5,-170.547 929,-180.547 932.5,-170.547 925.5,-170.547"/>
</g>
<!-- Node12 -->
<g id="node12" class="node"><title>Node12</title>
<g id="a_node12"><a xlink:href="../../d3/d43/ITSMFTDigitizerSpec_8cxx.html" target="_top" xlink:title="/home/travis/build\l/AliceO2Group/AliceO2\l/Steer/DigitizerWorkflow\l/src/ITSMFTDigitizerSpec.cxx">
<polygon fill="none" stroke="black" points="1020.5,-91 1020.5,-143 1169.5,-143 1169.5,-91 1020.5,-91"/>
<text text-anchor="start" x="1028.5" y="-131" font-family="Helvetica,sans-Serif" font-size="10.00">/home/travis/build</text>
<text text-anchor="start" x="1028.5" y="-120" font-family="Helvetica,sans-Serif" font-size="10.00">/AliceO2Group/AliceO2</text>
<text text-anchor="start" x="1028.5" y="-109" font-family="Helvetica,sans-Serif" font-size="10.00">/Steer/DigitizerWorkflow</text>
<text text-anchor="middle" x="1095" y="-98" font-family="Helvetica,sans-Serif" font-size="10.00">/src/ITSMFTDigitizerSpec.cxx</text>
</a>
</g>
</g>
<!-- Node5&#45;&gt;Node12 -->
<g id="edge13" class="edge"><title>Node5&#45;&gt;Node12</title>
<path fill="none" stroke="midnightblue" d="M985.666,-175.96C1005.86,-165.253 1028.38,-153.315 1047.71,-143.069"/>
<polygon fill="midnightblue" stroke="midnightblue" points="983.765,-173.007 976.569,-180.783 987.044,-179.191 983.765,-173.007"/>
</g>
<!-- Node13 -->
<g id="node13" class="node"><title>Node13</title>
<g id="a_node13"><a xlink:href="../../db/d2f/MCHDigitizerSpec_8cxx.html" target="_top" xlink:title="/home/travis/build\l/AliceO2Group/AliceO2\l/Steer/DigitizerWorkflow\l/src/MCHDigitizerSpec.cxx">
<polygon fill="none" stroke="black" points="1187.5,-91 1187.5,-143 1324.5,-143 1324.5,-91 1187.5,-91"/>
<text text-anchor="start" x="1195.5" y="-131" font-family="Helvetica,sans-Serif" font-size="10.00">/home/travis/build</text>
<text text-anchor="start" x="1195.5" y="-120" font-family="Helvetica,sans-Serif" font-size="10.00">/AliceO2Group/AliceO2</text>
<text text-anchor="start" x="1195.5" y="-109" font-family="Helvetica,sans-Serif" font-size="10.00">/Steer/DigitizerWorkflow</text>
<text text-anchor="middle" x="1256" y="-98" font-family="Helvetica,sans-Serif" font-size="10.00">/src/MCHDigitizerSpec.cxx</text>
</a>
</g>
</g>
<!-- Node5&#45;&gt;Node13 -->
<g id="edge14" class="edge"><title>Node5&#45;&gt;Node13</title>
<path fill="none" stroke="midnightblue" d="M1022.38,-179.964C1092.64,-162.453 1112.45,-162.444 1178,-144 1181.02,-143.149 1184.1,-142.253 1187.21,-141.325"/>
<polygon fill="midnightblue" stroke="midnightblue" points="1021.44,-176.591 1012.6,-182.432 1023.16,-183.378 1021.44,-176.591"/>
</g>
<!-- Node14 -->
<g id="node14" class="node"><title>Node14</title>
<g id="a_node14"><a xlink:href="../../d3/d13/SimReaderSpec_8cxx.html" target="_top" xlink:title="/home/travis/build\l/AliceO2Group/AliceO2\l/Steer/DigitizerWorkflow\l/src/SimReaderSpec.cxx">
<polygon fill="none" stroke="black" points="1343,-91 1343,-143 1469,-143 1469,-91 1343,-91"/>
<text text-anchor="start" x="1351" y="-131" font-family="Helvetica,sans-Serif" font-size="10.00">/home/travis/build</text>
<text text-anchor="start" x="1351" y="-120" font-family="Helvetica,sans-Serif" font-size="10.00">/AliceO2Group/AliceO2</text>
<text text-anchor="start" x="1351" y="-109" font-family="Helvetica,sans-Serif" font-size="10.00">/Steer/DigitizerWorkflow</text>
<text text-anchor="middle" x="1406" y="-98" font-family="Helvetica,sans-Serif" font-size="10.00">/src/SimReaderSpec.cxx</text>
</a>
</g>
</g>
<!-- Node5&#45;&gt;Node14 -->
<g id="edge15" class="edge"><title>Node5&#45;&gt;Node14</title>
<path fill="none" stroke="midnightblue" d="M1022.6,-180.045C1160.42,-154.203 1200.65,-174.806 1333,-144 1336.28,-143.237 1339.61,-142.376 1342.95,-141.442"/>
<polygon fill="midnightblue" stroke="midnightblue" points="1021.66,-176.66 1012.5,-181.987 1022.98,-183.534 1021.66,-176.66"/>
</g>
<!-- Node15 -->
<g id="node15" class="node"><title>Node15</title>
<g id="a_node15"><a xlink:href="../../d6/d61/TOFDigitizerSpec_8cxx.html" target="_top" xlink:title="/home/travis/build\l/AliceO2Group/AliceO2\l/Steer/DigitizerWorkflow\l/src/TOFDigitizerSpec.cxx">
<polygon fill="none" stroke="black" points="1487.5,-91 1487.5,-143 1620.5,-143 1620.5,-91 1487.5,-91"/>
<text text-anchor="start" x="1495.5" y="-131" font-family="Helvetica,sans-Serif" font-size="10.00">/home/travis/build</text>
<text text-anchor="start" x="1495.5" y="-120" font-family="Helvetica,sans-Serif" font-size="10.00">/AliceO2Group/AliceO2</text>
<text text-anchor="start" x="1495.5" y="-109" font-family="Helvetica,sans-Serif" font-size="10.00">/Steer/DigitizerWorkflow</text>
<text text-anchor="middle" x="1554" y="-98" font-family="Helvetica,sans-Serif" font-size="10.00">/src/TOFDigitizerSpec.cxx</text>
</a>
</g>
</g>
<!-- Node5&#45;&gt;Node15 -->
<g id="edge16" class="edge"><title>Node5&#45;&gt;Node15</title>
<path fill="none" stroke="midnightblue" d="M1022.73,-180.044C1224.03,-145.757 1282.13,-184.562 1478,-144 1481,-143.378 1484.05,-142.671 1487.12,-141.898"/>
<polygon fill="midnightblue" stroke="midnightblue" points="1021.98,-176.622 1012.73,-181.788 1023.18,-183.518 1021.98,-176.622"/>
</g>
<!-- Node16 -->
<g id="node16" class="node"><title>Node16</title>
<g id="a_node16"><a xlink:href="../../d6/df2/TRDDigitizerSpec_8cxx.html" target="_top" xlink:title="/home/travis/build\l/AliceO2Group/AliceO2\l/Steer/DigitizerWorkflow\l/src/TRDDigitizerSpec.cxx">
<polygon fill="none" stroke="black" points="1639,-91 1639,-143 1773,-143 1773,-91 1639,-91"/>
<text text-anchor="start" x="1647" y="-131" font-family="Helvetica,sans-Serif" font-size="10.00">/home/travis/build</text>
<text text-anchor="start" x="1647" y="-120" font-family="Helvetica,sans-Serif" font-size="10.00">/AliceO2Group/AliceO2</text>
<text text-anchor="start" x="1647" y="-109" font-family="Helvetica,sans-Serif" font-size="10.00">/Steer/DigitizerWorkflow</text>
<text text-anchor="middle" x="1706" y="-98" font-family="Helvetica,sans-Serif" font-size="10.00">/src/TRDDigitizerSpec.cxx</text>
</a>
</g>
</g>
<!-- Node5&#45;&gt;Node16 -->
<g id="edge18" class="edge"><title>Node5&#45;&gt;Node16</title>
<path fill="none" stroke="midnightblue" d="M1022.73,-180.06C1290.4,-136.82 1366.97,-195.056 1629,-144 1632.19,-143.379 1635.42,-142.66 1638.67,-141.866"/>
<polygon fill="midnightblue" stroke="midnightblue" points="1022.01,-176.631 1012.71,-181.71 1023.15,-183.538 1022.01,-176.631"/>
</g>
<!-- Node17 -->
<g id="node17" class="node"><title>Node17</title>
<g id="a_node17"><a xlink:href="../../d6/d0b/HitProcessingManager_8cxx.html" target="_top" xlink:title="/home/travis/build\l/AliceO2Group/AliceO2\l/Steer/src/HitProcessingManager.cxx">
<polygon fill="none" stroke="black" points="1791,-96.5 1791,-137.5 1971,-137.5 1971,-96.5 1791,-96.5"/>
<text text-anchor="start" x="1799" y="-125.5" font-family="Helvetica,sans-Serif" font-size="10.00">/home/travis/build</text>
<text text-anchor="start" x="1799" y="-114.5" font-family="Helvetica,sans-Serif" font-size="10.00">/AliceO2Group/AliceO2</text>
<text text-anchor="middle" x="1881" y="-103.5" font-family="Helvetica,sans-Serif" font-size="10.00">/Steer/src/HitProcessingManager.cxx</text>
</a>
</g>
</g>
<!-- Node5&#45;&gt;Node17 -->
<g id="edge19" class="edge"><title>Node5&#45;&gt;Node17</title>
<path fill="none" stroke="midnightblue" d="M1022.69,-180.072C1357.66,-127.473 1451.01,-194.728 1782,-144 1792.54,-142.385 1803.58,-140.098 1814.3,-137.544"/>
<polygon fill="midnightblue" stroke="midnightblue" points="1022.03,-176.632 1012.71,-181.663 1023.13,-183.545 1022.03,-176.632"/>
</g>
<!-- Node18 -->
<g id="node18" class="node"><title>Node18</title>
<g id="a_node18"><a xlink:href="../../d7/d6d/testHitProcessingManager_8cxx.html" target="_top" xlink:title="/home/travis/build\l/AliceO2Group/AliceO2\l/Steer/test/testHitProcessing\lManager.cxx">
<polygon fill="none" stroke="black" points="1989.5,-91 1989.5,-143 2132.5,-143 2132.5,-91 1989.5,-91"/>
<text text-anchor="start" x="1997.5" y="-131" font-family="Helvetica,sans-Serif" font-size="10.00">/home/travis/build</text>
<text text-anchor="start" x="1997.5" y="-120" font-family="Helvetica,sans-Serif" font-size="10.00">/AliceO2Group/AliceO2</text>
<text text-anchor="start" x="1997.5" y="-109" font-family="Helvetica,sans-Serif" font-size="10.00">/Steer/test/testHitProcessing</text>
<text text-anchor="middle" x="2061" y="-98" font-family="Helvetica,sans-Serif" font-size="10.00">Manager.cxx</text>
</a>
</g>
</g>
<!-- Node5&#45;&gt;Node18 -->
<g id="edge20" class="edge"><title>Node5&#45;&gt;Node18</title>
<path fill="none" stroke="midnightblue" d="M1022.73,-180.075C1444.82,-115.794 1563.64,-217.221 1980,-144 1983.05,-143.463 1986.15,-142.839 1989.27,-142.146"/>
<polygon fill="midnightblue" stroke="midnightblue" points="1022.05,-176.639 1012.7,-181.625 1023.12,-183.556 1022.05,-176.639"/>
</g>
<!-- Node7 -->
<g id="node7" class="node"><title>Node7</title>
<g id="a_node7"><a xlink:href="../../d7/d0a/TPC_2simulation_2src_2Digitizer_8cxx.html" target="_top" xlink:title="/home/travis/build\l/AliceO2Group/AliceO2\l/Detectors/TPC/simulation\l/src/Digitizer.cxx">
<polygon fill="none" stroke="black" points="297.5,-1 297.5,-53 430.5,-53 430.5,-1 297.5,-1"/>
<text text-anchor="start" x="305.5" y="-41" font-family="Helvetica,sans-Serif" font-size="10.00">/home/travis/build</text>
<text text-anchor="start" x="305.5" y="-30" font-family="Helvetica,sans-Serif" font-size="10.00">/AliceO2Group/AliceO2</text>
<text text-anchor="start" x="305.5" y="-19" font-family="Helvetica,sans-Serif" font-size="10.00">/Detectors/TPC/simulation</text>
<text text-anchor="middle" x="364" y="-8" font-family="Helvetica,sans-Serif" font-size="10.00">/src/Digitizer.cxx</text>
</a>
</g>
</g>
<!-- Node6&#45;&gt;Node7 -->
<g id="edge7" class="edge"><title>Node6&#45;&gt;Node7</title>
<path fill="none" stroke="midnightblue" d="M388.868,-81.376C384.47,-71.9354 379.79,-61.8909 375.691,-53.0921"/>
<polygon fill="midnightblue" stroke="midnightblue" points="385.745,-82.9604 393.141,-90.5468 392.09,-80.0041 385.745,-82.9604"/>
</g>
<!-- Node6&#45;&gt;Node8 -->
<g id="edge8" class="edge"><title>Node6&#45;&gt;Node8</title>
<path fill="none" stroke="midnightblue" d="M444.691,-84.5335C457.657,-74.2542 471.879,-62.9791 484.187,-53.221"/>
<polygon fill="midnightblue" stroke="midnightblue" points="442.47,-81.8276 436.808,-90.7827 446.819,-87.3129 442.47,-81.8276"/>
</g>
</g>
</svg>
