<?xml version="1.0" encoding="UTF-8" standalone="no"?>
<!DOCTYPE svg PUBLIC "-//W3C//DTD SVG 1.1//EN"
 "http://www.w3.org/Graphics/SVG/1.1/DTD/svg11.dtd">
<!-- Generated by graphviz version 2.36.0 (20140111.2315)
 -->
<!-- Title: /home/travis/build/AliceO2Group/AliceO2/Detectors/MUON/MID/Simulation/src/Detector.cxx Pages: 1 -->
<!--zoomable 502 -->
<svg id="main" version="1.1" xmlns="http://www.w3.org/2000/svg" xmlns:xlink="http://www.w3.org/1999/xlink" xml:space="preserve" onload="init(evt)">
<style type="text/css"><![CDATA[
.edge:hover path { stroke: red; }
.edge:hover polygon { stroke: red; fill: red; }
]]></style>
<script type="text/javascript"><![CDATA[
var edges = document.getElementsByTagName('g');
if (edges && edges.length) {
  for (var i=0;i<edges.length;i++) {
    if (edges[i].id.substr(0,4)=='edge') {
      edges[i].setAttribute('class','edge');
    }
  }
}
]]></script>
        <defs>
                <circle id="rim" cx="0" cy="0" r="7"/>
                <circle id="rim2" cx="0" cy="0" r="3.5"/>
                <g id="zoomPlus">
                        <use xlink:href="#rim" fill="#404040">
                                <set attributeName="fill" to="#808080" begin="zoomplus.mouseover" end="zoomplus.mouseout"/>
                        </use>
                        <path d="M-4,0h8M0,-4v8" fill="none" stroke="white" stroke-width="1.5" pointer-events="none"/>
                </g>
                <g id="zoomMin">
                        <use xlink:href="#rim" fill="#404040">
                                <set attributeName="fill" to="#808080" begin="zoomminus.mouseover" end="zoomminus.mouseout"/>
                        </use>
                        <path d="M-4,0h8" fill="none" stroke="white" stroke-width="1.5" pointer-events="none"/>
                </g>
                <g id="dirArrow">
                        <path fill="none" stroke="white" stroke-width="1.5" d="M0,-3.0v7 M-2.5,-0.5L0,-3.0L2.5,-0.5"/>
                </g>
               <g id="resetDef">
                       <use xlink:href="#rim2" fill="#404040">
                               <set attributeName="fill" to="#808080" begin="reset.mouseover" end="reset.mouseout"/>
                       </use>
               </g>
        </defs>

<script type="text/javascript">
var viewWidth = 2424;
var viewHeight = 502;
var sectionId = 'dynsection-0';
</script>
<script xlink:href="../../svgpan.js"/>
<svg id="graph" class="graph">
<g id="viewport">
<title>/home/travis/build/AliceO2Group/AliceO2/Detectors/MUON/MID/Simulation/src/Detector.cxx</title>
<!-- Node1 -->
<g id="node1" class="node"><title>Node1</title>
<polygon fill="#bfbfbf" stroke="black" points="1083.5,-441 1083.5,-493 1250.5,-493 1250.5,-441 1083.5,-441"/>
<text text-anchor="start" x="1091.5" y="-481" font-family="Helvetica,sans-Serif" font-size="10.00">/home/travis/build</text>
<text text-anchor="start" x="1091.5" y="-470" font-family="Helvetica,sans-Serif" font-size="10.00">/AliceO2Group/AliceO2</text>
<text text-anchor="start" x="1091.5" y="-459" font-family="Helvetica,sans-Serif" font-size="10.00">/Detectors/MUON/MID/Simulation</text>
<text text-anchor="middle" x="1167" y="-448" font-family="Helvetica,sans-Serif" font-size="10.00">/src/Detector.cxx</text>
</g>
<!-- Node2 -->
<g id="node2" class="node"><title>Node2</title>
<g id="a_node2"><a xlink:href="../../df/d06/MUON_2MID_2Simulation_2include_2MIDSimulation_2Detector_8h.html" target="_top" xlink:title="MIDSimulation/Detector.h">
<polygon fill="none" stroke="black" points="908,-384.5 908,-403.5 1038,-403.5 1038,-384.5 908,-384.5"/>
<text text-anchor="middle" x="973" y="-391.5" font-family="Helvetica,sans-Serif" font-size="10.00">MIDSimulation/Detector.h</text>
</a>
</g>
</g>
<!-- Node1&#45;&gt;Node2 -->
<g id="edge1" class="edge"><title>Node1&#45;&gt;Node2</title>
<path fill="none" stroke="midnightblue" d="M1098.6,-440.968C1067.21,-429.478 1031.42,-416.381 1006.1,-407.114"/>
<polygon fill="midnightblue" stroke="midnightblue" points="1007.2,-403.789 996.605,-403.639 1004.79,-410.363 1007.2,-403.789"/>
</g>
<!-- Node43 -->
<g id="node43" class="node"><title>Node43</title>
<g id="a_node43"><a xlink:href="../../d0/d67/MUON_2MID_2Simulation_2src_2Geometry_8h.html" target="_top" xlink:title="Geometry.h">
<polygon fill="none" stroke="black" points="1077,-328.5 1077,-347.5 1145,-347.5 1145,-328.5 1077,-328.5"/>
<text text-anchor="middle" x="1111" y="-335.5" font-family="Helvetica,sans-Serif" font-size="10.00">Geometry.h</text>
</a>
</g>
</g>
<!-- Node1&#45;&gt;Node43 -->
<g id="edge52" class="edge"><title>Node1&#45;&gt;Node43</title>
<path fill="none" stroke="midnightblue" d="M1139.5,-440.735C1130.01,-430.347 1120.42,-417.57 1115,-404 1109.17,-389.381 1108.49,-371.439 1109.1,-358.112"/>
<polygon fill="midnightblue" stroke="midnightblue" points="1112.61,-358.017 1109.85,-347.787 1105.63,-357.504 1112.61,-358.017"/>
</g>
<!-- Node44 -->
<g id="node44" class="node"><title>Node44</title>
<polygon fill="none" stroke="#bfbfbf" points="1124,-384.5 1124,-403.5 1210,-403.5 1210,-384.5 1124,-384.5"/>
<text text-anchor="middle" x="1167" y="-391.5" font-family="Helvetica,sans-Serif" font-size="10.00">TGeoManager.h</text>
</g>
<!-- Node1&#45;&gt;Node44 -->
<g id="edge55" class="edge"><title>Node1&#45;&gt;Node44</title>
<path fill="none" stroke="midnightblue" d="M1167,-440.768C1167,-431.89 1167,-422.074 1167,-413.816"/>
<polygon fill="midnightblue" stroke="midnightblue" points="1170.5,-413.757 1167,-403.757 1163.5,-413.757 1170.5,-413.757"/>
</g>
<!-- Node45 -->
<g id="node45" class="node"><title>Node45</title>
<polygon fill="none" stroke="#bfbfbf" points="1228,-384.5 1228,-403.5 1310,-403.5 1310,-384.5 1228,-384.5"/>
<text text-anchor="middle" x="1269" y="-391.5" font-family="Helvetica,sans-Serif" font-size="10.00">TGeoVolume.h</text>
</g>
<!-- Node1&#45;&gt;Node45 -->
<g id="edge56" class="edge"><title>Node1&#45;&gt;Node45</title>
<path fill="none" stroke="midnightblue" d="M1202.96,-440.968C1218.06,-430.458 1235.09,-418.603 1248.07,-409.565"/>
<polygon fill="midnightblue" stroke="midnightblue" points="1250.14,-412.395 1256.34,-403.81 1246.14,-406.65 1250.14,-412.395"/>
</g>
<!-- Node46 -->
<g id="node46" class="node"><title>Node46</title>
<polygon fill="none" stroke="#bfbfbf" points="1328,-384.5 1328,-403.5 1402,-403.5 1402,-384.5 1328,-384.5"/>
<text text-anchor="middle" x="1365" y="-391.5" font-family="Helvetica,sans-Serif" font-size="10.00">FairVolume.h</text>
</g>
<!-- Node1&#45;&gt;Node46 -->
<g id="edge57" class="edge"><title>Node1&#45;&gt;Node46</title>
<path fill="none" stroke="midnightblue" d="M1236.81,-440.968C1268.85,-429.478 1305.37,-416.381 1331.22,-407.114"/>
<polygon fill="midnightblue" stroke="midnightblue" points="1332.68,-410.309 1340.91,-403.639 1330.31,-403.72 1332.68,-410.309"/>
</g>
<!-- Node3 -->
<g id="node3" class="node"><title>Node3</title>
<polygon fill="none" stroke="#bfbfbf" points="1028,-272.5 1028,-291.5 1072,-291.5 1072,-272.5 1028,-272.5"/>
<text text-anchor="middle" x="1050" y="-279.5" font-family="Helvetica,sans-Serif" font-size="10.00">vector</text>
</g>
<!-- Node2&#45;&gt;Node3 -->
<g id="edge2" class="edge"><title>Node2&#45;&gt;Node3</title>
<path fill="none" stroke="midnightblue" d="M988.472,-384.426C1001.34,-376.541 1019.24,-363.707 1030,-348 1039.49,-334.149 1044.6,-315.632 1047.28,-301.906"/>
<polygon fill="midnightblue" stroke="midnightblue" points="1050.79,-302.152 1049,-291.71 1043.89,-300.99 1050.79,-302.152"/>
</g>
<!-- Node4 -->
<g id="node4" class="node"><title>Node4</title>
<g id="a_node4"><a xlink:href="../../d1/d3a/Base_2include_2DetectorsBase_2Detector_8h.html" target="_top" xlink:title="DetectorsBase/Detector.h">
<polygon fill="none" stroke="black" points="1626.5,-328.5 1626.5,-347.5 1757.5,-347.5 1757.5,-328.5 1626.5,-328.5"/>
<text text-anchor="middle" x="1692" y="-335.5" font-family="Helvetica,sans-Serif" font-size="10.00">DetectorsBase/Detector.h</text>
</a>
</g>
</g>
<!-- Node2&#45;&gt;Node4 -->
<g id="edge3" class="edge"><title>Node2&#45;&gt;Node4</title>
<path fill="none" stroke="midnightblue" d="M1038.07,-388.113C1171.2,-378.114 1474.03,-355.371 1615.95,-344.712"/>
<polygon fill="midnightblue" stroke="midnightblue" points="1616.58,-348.174 1626.29,-343.935 1616.06,-341.194 1616.58,-348.174"/>
</g>
<!-- Node27 -->
<g id="node27" class="node"><title>Node27</title>
<g id="a_node27"><a xlink:href="../../d4/d25/BaseHits_8h.html" target="_top" xlink:title="SimulationDataFormat\l/BaseHits.h">
<polygon fill="none" stroke="black" points="727,-205 727,-235 841,-235 841,-205 727,-205"/>
<text text-anchor="start" x="735" y="-223" font-family="Helvetica,sans-Serif" font-size="10.00">SimulationDataFormat</text>
<text text-anchor="middle" x="784" y="-212" font-family="Helvetica,sans-Serif" font-size="10.00">/BaseHits.h</text>
</a>
</g>
</g>
<!-- Node2&#45;&gt;Node27 -->
<g id="edge32" class="edge"><title>Node2&#45;&gt;Node27</title>
<path fill="none" stroke="midnightblue" d="M943.148,-384.461C903.783,-371.497 835.69,-342.813 803,-292 793.978,-277.976 789.216,-259.767 786.715,-245.301"/>
<polygon fill="midnightblue" stroke="midnightblue" points="790.132,-244.482 785.211,-235.1 783.207,-245.503 790.132,-244.482"/>
</g>
<!-- Node39 -->
<g id="node39" class="node"><title>Node39</title>
<g id="a_node39"><a xlink:href="../../d5/d64/MUON_2MID_2Simulation_2include_2MIDSimulation_2Hit_8h.html" target="_top" xlink:title="Hit for MID. ">
<polygon fill="none" stroke="black" points="812.5,-272.5 812.5,-291.5 917.5,-291.5 917.5,-272.5 812.5,-272.5"/>
<text text-anchor="middle" x="865" y="-279.5" font-family="Helvetica,sans-Serif" font-size="10.00">MIDSimulation/Hit.h</text>
</a>
</g>
</g>
<!-- Node2&#45;&gt;Node39 -->
<g id="edge45" class="edge"><title>Node2&#45;&gt;Node39</title>
<path fill="none" stroke="midnightblue" d="M943.844,-384.391C924.918,-377.412 901.061,-365.774 886,-348 874.869,-334.864 869.609,-315.721 867.141,-301.61"/>
<polygon fill="midnightblue" stroke="midnightblue" points="870.587,-300.983 865.701,-291.582 863.658,-301.978 870.587,-300.983"/>
</g>
<!-- Node41 -->
<g id="node41" class="node"><title>Node41</title>
<g id="a_node41"><a xlink:href="../../d0/d2e/MID_2Simulation_2include_2MIDSimulation_2Stepper_8h.html" target="_top" xlink:title="MIDSimulation/Stepper.h">
<polygon fill="none" stroke="black" points="895,-328.5 895,-347.5 1021,-347.5 1021,-328.5 895,-328.5"/>
<text text-anchor="middle" x="958" y="-335.5" font-family="Helvetica,sans-Serif" font-size="10.00">MIDSimulation/Stepper.h</text>
</a>
</g>
</g>
<!-- Node2&#45;&gt;Node41 -->
<g id="edge48" class="edge"><title>Node2&#45;&gt;Node41</title>
<path fill="none" stroke="midnightblue" d="M970.523,-384.083C968.514,-376.849 965.614,-366.409 963.11,-357.397"/>
<polygon fill="midnightblue" stroke="midnightblue" points="966.48,-356.449 960.431,-347.751 959.735,-358.323 966.48,-356.449"/>
</g>
<!-- Node4&#45;&gt;Node3 -->
<g id="edge5" class="edge"><title>Node4&#45;&gt;Node3</title>
<path fill="none" stroke="midnightblue" d="M1626.33,-336.645C1515.62,-335.067 1284.87,-327.566 1082.16,-291.832"/>
<polygon fill="midnightblue" stroke="midnightblue" points="1082.68,-288.37 1072.22,-290.054 1081.45,-295.261 1082.68,-288.37"/>
</g>
<!-- Node5 -->
<g id="node5" class="node"><title>Node5</title>
<polygon fill="none" stroke="#bfbfbf" points="1439.5,-210.5 1439.5,-229.5 1474.5,-229.5 1474.5,-210.5 1439.5,-210.5"/>
<text text-anchor="middle" x="1457" y="-217.5" font-family="Helvetica,sans-Serif" font-size="10.00">map</text>
</g>
<!-- Node4&#45;&gt;Node5 -->
<g id="edge4" class="edge"><title>Node4&#45;&gt;Node5</title>
<path fill="none" stroke="midnightblue" d="M1691.93,-328.445C1691.32,-314.522 1688.03,-287.011 1672,-272 1658.28,-259.155 1539.62,-236.097 1484.69,-225.984"/>
<polygon fill="midnightblue" stroke="midnightblue" points="1485.07,-222.495 1474.6,-224.14 1483.81,-229.381 1485.07,-222.495"/>
</g>
<!-- Node6 -->
<g id="node6" class="node"><title>Node6</title>
<polygon fill="none" stroke="#bfbfbf" points="1547.5,-210.5 1547.5,-229.5 1620.5,-229.5 1620.5,-210.5 1547.5,-210.5"/>
<text text-anchor="middle" x="1584" y="-217.5" font-family="Helvetica,sans-Serif" font-size="10.00">initializer_list</text>
</g>
<!-- Node4&#45;&gt;Node6 -->
<g id="edge6" class="edge"><title>Node4&#45;&gt;Node6</title>
<path fill="none" stroke="midnightblue" d="M1697.75,-328.23C1705.66,-314.963 1717.64,-289.487 1706,-272 1689.3,-246.923 1657.66,-234.154 1630.79,-227.664"/>
<polygon fill="midnightblue" stroke="midnightblue" points="1631.28,-224.189 1620.77,-225.472 1629.79,-231.028 1631.28,-224.189"/>
</g>
<!-- Node7 -->
<g id="node7" class="node"><title>Node7</title>
<polygon fill="none" stroke="#bfbfbf" points="2148,-272.5 2148,-291.5 2200,-291.5 2200,-272.5 2148,-272.5"/>
<text text-anchor="middle" x="2174" y="-279.5" font-family="Helvetica,sans-Serif" font-size="10.00">memory</text>
</g>
<!-- Node4&#45;&gt;Node7 -->
<g id="edge7" class="edge"><title>Node4&#45;&gt;Node7</title>
<path fill="none" stroke="midnightblue" d="M1757.85,-332.771C1844.5,-326.642 2001.34,-313.597 2134,-292 2135.26,-291.794 2136.55,-291.573 2137.84,-291.339"/>
<polygon fill="midnightblue" stroke="midnightblue" points="2138.71,-294.736 2147.84,-289.358 2137.35,-287.869 2138.71,-294.736"/>
</g>
<!-- Node8 -->
<g id="node8" class="node"><title>Node8</title>
<polygon fill="none" stroke="#bfbfbf" points="2218.5,-272.5 2218.5,-291.5 2297.5,-291.5 2297.5,-272.5 2218.5,-272.5"/>
<text text-anchor="middle" x="2258" y="-279.5" font-family="Helvetica,sans-Serif" font-size="10.00">FairDetector.h</text>
</g>
<!-- Node4&#45;&gt;Node8 -->
<g id="edge8" class="edge"><title>Node4&#45;&gt;Node8</title>
<path fill="none" stroke="midnightblue" d="M1757.51,-333.296C1853.94,-327.401 2039.95,-314.348 2208.42,-291.943"/>
<polygon fill="midnightblue" stroke="midnightblue" points="2209.03,-295.394 2218.47,-290.593 2208.09,-288.456 2209.03,-295.394"/>
</g>
<!-- Node9 -->
<g id="node9" class="node"><title>Node9</title>
<polygon fill="none" stroke="#bfbfbf" points="2316,-272.5 2316,-291.5 2416,-291.5 2416,-272.5 2316,-272.5"/>
<text text-anchor="middle" x="2366" y="-279.5" font-family="Helvetica,sans-Serif" font-size="10.00">FairRootManager.h</text>
</g>
<!-- Node4&#45;&gt;Node9 -->
<g id="edge9" class="edge"><title>Node4&#45;&gt;Node9</title>
<path fill="none" stroke="midnightblue" d="M1757.58,-333.828C1870.04,-328.023 2106.83,-314.204 2306,-292 2306.1,-291.989 2306.2,-291.977 2306.3,-291.966"/>
<polygon fill="midnightblue" stroke="midnightblue" points="2306.44,-295.475 2315.95,-290.798 2305.6,-288.526 2306.44,-295.475"/>
</g>
<!-- Node10 -->
<g id="node10" class="node"><title>Node10</title>
<g id="a_node10"><a xlink:href="../../d0/d9a/MaterialManager_8h.html" target="_top" xlink:title="DetectorsBase/MaterialManager.h">
<polygon fill="none" stroke="black" points="1188.5,-272.5 1188.5,-291.5 1353.5,-291.5 1353.5,-272.5 1188.5,-272.5"/>
<text text-anchor="middle" x="1271" y="-279.5" font-family="Helvetica,sans-Serif" font-size="10.00">DetectorsBase/MaterialManager.h</text>
</a>
</g>
</g>
<!-- Node4&#45;&gt;Node10 -->
<g id="edge10" class="edge"><title>Node4&#45;&gt;Node10</title>
<path fill="none" stroke="midnightblue" d="M1626.22,-328.562C1550.7,-318.876 1427.03,-303.013 1347.34,-292.791"/>
<polygon fill="midnightblue" stroke="midnightblue" points="1347.72,-289.313 1337.36,-291.512 1346.83,-296.256 1347.72,-289.313"/>
</g>
<!-- Node11 -->
<g id="node11" class="node"><title>Node11</title>
<polygon fill="none" stroke="#bfbfbf" points="1182,-74.5 1182,-93.5 1238,-93.5 1238,-74.5 1182,-74.5"/>
<text text-anchor="middle" x="1210" y="-81.5" font-family="Helvetica,sans-Serif" font-size="10.00">Rtypes.h</text>
</g>
<!-- Node4&#45;&gt;Node11 -->
<g id="edge15" class="edge"><title>Node4&#45;&gt;Node11</title>
<path fill="none" stroke="midnightblue" d="M1626.3,-336.081C1494.67,-333.555 1208.65,-324.364 1179,-292 1129.9,-238.399 1176.46,-142.167 1199.17,-102.662"/>
<polygon fill="midnightblue" stroke="midnightblue" points="1202.27,-104.289 1204.35,-93.9005 1196.25,-100.724 1202.27,-104.289"/>
</g>
<!-- Node13 -->
<g id="node13" class="node"><title>Node13</title>
<polygon fill="none" stroke="#bfbfbf" points="1371.5,-272.5 1371.5,-291.5 1424.5,-291.5 1424.5,-272.5 1371.5,-272.5"/>
<text text-anchor="middle" x="1398" y="-279.5" font-family="Helvetica,sans-Serif" font-size="10.00">cxxabi.h</text>
</g>
<!-- Node4&#45;&gt;Node13 -->
<g id="edge16" class="edge"><title>Node4&#45;&gt;Node13</title>
<path fill="none" stroke="midnightblue" d="M1635.42,-328.499C1585.04,-320.63 1509.14,-308.039 1434.71,-292.246"/>
<polygon fill="midnightblue" stroke="midnightblue" points="1435.21,-288.773 1424.7,-290.1 1433.75,-295.618 1435.21,-288.773"/>
</g>
<!-- Node14 -->
<g id="node14" class="node"><title>Node14</title>
<polygon fill="none" stroke="#bfbfbf" points="1442.5,-272.5 1442.5,-291.5 1493.5,-291.5 1493.5,-272.5 1442.5,-272.5"/>
<text text-anchor="middle" x="1468" y="-279.5" font-family="Helvetica,sans-Serif" font-size="10.00">typeinfo</text>
</g>
<!-- Node4&#45;&gt;Node14 -->
<g id="edge17" class="edge"><title>Node4&#45;&gt;Node14</title>
<path fill="none" stroke="midnightblue" d="M1655.37,-328.483C1619.27,-320.045 1562.29,-306.604 1503.44,-292.075"/>
<polygon fill="midnightblue" stroke="midnightblue" points="1504.15,-288.645 1493.6,-289.64 1502.47,-295.44 1504.15,-288.645"/>
</g>
<!-- Node15 -->
<g id="node15" class="node"><title>Node15</title>
<polygon fill="none" stroke="#bfbfbf" points="1512,-272.5 1512,-291.5 1574,-291.5 1574,-272.5 1512,-272.5"/>
<text text-anchor="middle" x="1543" y="-279.5" font-family="Helvetica,sans-Serif" font-size="10.00">type_traits</text>
</g>
<!-- Node4&#45;&gt;Node15 -->
<g id="edge18" class="edge"><title>Node4&#45;&gt;Node15</title>
<path fill="none" stroke="midnightblue" d="M1668.39,-328.444C1643.54,-319.438 1604.23,-305.189 1576.25,-295.049"/>
<polygon fill="midnightblue" stroke="midnightblue" points="1577.09,-291.633 1566.5,-291.516 1574.71,-298.214 1577.09,-291.633"/>
</g>
<!-- Node16 -->
<g id="node16" class="node"><title>Node16</title>
<polygon fill="none" stroke="#bfbfbf" points="1090.5,-272.5 1090.5,-291.5 1131.5,-291.5 1131.5,-272.5 1090.5,-272.5"/>
<text text-anchor="middle" x="1111" y="-279.5" font-family="Helvetica,sans-Serif" font-size="10.00">string</text>
</g>
<!-- Node4&#45;&gt;Node16 -->
<g id="edge19" class="edge"><title>Node4&#45;&gt;Node16</title>
<path fill="none" stroke="midnightblue" d="M1626.42,-335.181C1523.45,-331.521 1317.87,-320.965 1146,-292 1144.53,-291.752 1143.03,-291.473 1141.52,-291.171"/>
<polygon fill="midnightblue" stroke="midnightblue" points="1142.13,-287.719 1131.6,-288.916 1140.58,-294.545 1142.13,-287.719"/>
</g>
<!-- Node17 -->
<g id="node17" class="node"><title>Node17</title>
<polygon fill="none" stroke="#bfbfbf" points="1592.5,-272.5 1592.5,-291.5 1663.5,-291.5 1663.5,-272.5 1592.5,-272.5"/>
<text text-anchor="middle" x="1628" y="-279.5" font-family="Helvetica,sans-Serif" font-size="10.00">TMessage.h</text>
</g>
<!-- Node4&#45;&gt;Node17 -->
<g id="edge20" class="edge"><title>Node4&#45;&gt;Node17</title>
<path fill="none" stroke="midnightblue" d="M1681.72,-328.324C1672.16,-320.263 1657.72,-308.077 1646.22,-298.369"/>
<polygon fill="midnightblue" stroke="midnightblue" points="1648.37,-295.608 1638.47,-291.834 1643.86,-300.958 1648.37,-295.608"/>
</g>
<!-- Node18 -->
<g id="node18" class="node"><title>Node18</title>
<g id="a_node18"><a xlink:href="../../de/d61/ShmManager_8h.html" target="_top" xlink:title="CommonUtils/ShmManager.h">
<polygon fill="none" stroke="black" points="1762,-210.5 1762,-229.5 1908,-229.5 1908,-210.5 1762,-210.5"/>
<text text-anchor="middle" x="1835" y="-217.5" font-family="Helvetica,sans-Serif" font-size="10.00">CommonUtils/ShmManager.h</text>
</a>
</g>
</g>
<!-- Node4&#45;&gt;Node18 -->
<g id="edge21" class="edge"><title>Node4&#45;&gt;Node18</title>
<path fill="none" stroke="midnightblue" d="M1702.75,-328.281C1726.99,-308.619 1786.15,-260.63 1816.45,-236.05"/>
<polygon fill="midnightblue" stroke="midnightblue" points="1818.95,-238.523 1824.52,-229.505 1814.54,-233.086 1818.95,-238.523"/>
</g>
<!-- Node23 -->
<g id="node23" class="node"><title>Node23</title>
<g id="a_node23"><a xlink:href="../../d0/d91/ShmAllocator_8h.html" target="_top" xlink:title="CommonUtils/ShmAllocator.h">
<polygon fill="none" stroke="black" points="1946,-272.5 1946,-291.5 2092,-291.5 2092,-272.5 1946,-272.5"/>
<text text-anchor="middle" x="2019" y="-279.5" font-family="Helvetica,sans-Serif" font-size="10.00">CommonUtils/ShmAllocator.h</text>
</a>
</g>
</g>
<!-- Node4&#45;&gt;Node23 -->
<g id="edge26" class="edge"><title>Node4&#45;&gt;Node23</title>
<path fill="none" stroke="midnightblue" d="M1743.81,-328.444C1801.82,-318.865 1895.74,-303.356 1957.44,-293.167"/>
<polygon fill="midnightblue" stroke="midnightblue" points="1958.13,-296.599 1967.43,-291.516 1956.99,-289.693 1958.13,-296.599"/>
</g>
<!-- Node24 -->
<g id="node24" class="node"><title>Node24</title>
<polygon fill="none" stroke="#bfbfbf" points="2044.5,-210.5 2044.5,-229.5 2093.5,-229.5 2093.5,-210.5 2044.5,-210.5"/>
<text text-anchor="middle" x="2069" y="-217.5" font-family="Helvetica,sans-Serif" font-size="10.00">cassert</text>
</g>
<!-- Node4&#45;&gt;Node24 -->
<g id="edge31" class="edge"><title>Node4&#45;&gt;Node24</title>
<path fill="none" stroke="midnightblue" d="M1757.62,-334.493C1867.4,-329.62 2078.54,-317.072 2101,-292 2115.29,-276.051 2099.65,-252.658 2085.64,-237.138"/>
<polygon fill="midnightblue" stroke="midnightblue" points="2088.08,-234.622 2078.63,-229.821 2083.02,-239.464 2088.08,-234.622"/>
</g>
<!-- Node25 -->
<g id="node25" class="node"><title>Node25</title>
<polygon fill="none" stroke="#bfbfbf" points="1796,-272.5 1796,-291.5 1858,-291.5 1858,-272.5 1796,-272.5"/>
<text text-anchor="middle" x="1827" y="-279.5" font-family="Helvetica,sans-Serif" font-size="10.00">sys/shm.h</text>
</g>
<!-- Node4&#45;&gt;Node25 -->
<g id="edge29" class="edge"><title>Node4&#45;&gt;Node25</title>
<path fill="none" stroke="midnightblue" d="M1713.39,-328.444C1735.71,-319.517 1770.9,-305.439 1796.21,-295.317"/>
<polygon fill="midnightblue" stroke="midnightblue" points="1797.72,-298.48 1805.71,-291.516 1795.12,-291.981 1797.72,-298.48"/>
</g>
<!-- Node26 -->
<g id="node26" class="node"><title>Node26</title>
<polygon fill="none" stroke="#bfbfbf" points="1876.5,-272.5 1876.5,-291.5 1927.5,-291.5 1927.5,-272.5 1876.5,-272.5"/>
<text text-anchor="middle" x="1902" y="-279.5" font-family="Helvetica,sans-Serif" font-size="10.00">unistd.h</text>
</g>
<!-- Node4&#45;&gt;Node26 -->
<g id="edge30" class="edge"><title>Node4&#45;&gt;Node26</title>
<path fill="none" stroke="midnightblue" d="M1725.28,-328.444C1763.9,-318.513 1827.31,-302.205 1866.75,-292.063"/>
<polygon fill="midnightblue" stroke="midnightblue" points="1867.66,-295.443 1876.48,-289.563 1865.92,-288.664 1867.66,-295.443"/>
</g>
<!-- Node10&#45;&gt;Node5 -->
<g id="edge12" class="edge"><title>Node10&#45;&gt;Node5</title>
<path fill="none" stroke="midnightblue" d="M1297.65,-272.403C1332.76,-261.078 1394.19,-241.262 1429.64,-229.825"/>
<polygon fill="midnightblue" stroke="midnightblue" points="1430.89,-233.1 1439.33,-226.699 1428.74,-226.438 1430.89,-233.1"/>
</g>
<!-- Node10&#45;&gt;Node6 -->
<g id="edge14" class="edge"><title>Node10&#45;&gt;Node6</title>
<path fill="none" stroke="midnightblue" d="M1315.51,-272.467C1374.39,-261.182 1477.66,-241.385 1537.51,-229.912"/>
<polygon fill="midnightblue" stroke="midnightblue" points="1538.28,-233.328 1547.44,-228.008 1536.96,-226.453 1538.28,-233.328"/>
</g>
<!-- Node10&#45;&gt;Node11 -->
<g id="edge11" class="edge"><title>Node10&#45;&gt;Node11</title>
<path fill="none" stroke="midnightblue" d="M1274.13,-272.295C1278.85,-257.857 1286.58,-228.154 1280,-204 1269.04,-163.754 1240.63,-123.235 1223.57,-101.412"/>
<polygon fill="midnightblue" stroke="midnightblue" points="1226.22,-99.1214 1217.23,-93.5057 1220.75,-103.498 1226.22,-99.1214"/>
</g>
<!-- Node12 -->
<g id="node12" class="node"><title>Node12</title>
<polygon fill="none" stroke="#bfbfbf" points="1188.5,-210.5 1188.5,-229.5 1271.5,-229.5 1271.5,-210.5 1188.5,-210.5"/>
<text text-anchor="middle" x="1230" y="-217.5" font-family="Helvetica,sans-Serif" font-size="10.00">unordered_map</text>
</g>
<!-- Node10&#45;&gt;Node12 -->
<g id="edge13" class="edge"><title>Node10&#45;&gt;Node12</title>
<path fill="none" stroke="midnightblue" d="M1265.13,-272.403C1259.04,-263.493 1249.36,-249.325 1241.7,-238.118"/>
<polygon fill="midnightblue" stroke="midnightblue" points="1244.4,-235.862 1235.86,-229.581 1238.62,-239.812 1244.4,-235.862"/>
</g>
<!-- Node19 -->
<g id="node19" class="node"><title>Node19</title>
<polygon fill="none" stroke="#bfbfbf" points="1791.5,-142.5 1791.5,-161.5 1820.5,-161.5 1820.5,-142.5 1791.5,-142.5"/>
<text text-anchor="middle" x="1806" y="-149.5" font-family="Helvetica,sans-Serif" font-size="10.00">list</text>
</g>
<!-- Node18&#45;&gt;Node19 -->
<g id="edge22" class="edge"><title>Node18&#45;&gt;Node19</title>
<path fill="none" stroke="midnightblue" d="M1831.21,-210.372C1826.85,-200.446 1819.57,-183.874 1813.95,-171.086"/>
<polygon fill="midnightblue" stroke="midnightblue" points="1817.11,-169.588 1809.88,-161.841 1810.7,-172.404 1817.11,-169.588"/>
</g>
<!-- Node20 -->
<g id="node20" class="node"><title>Node20</title>
<polygon fill="none" stroke="#bfbfbf" points="1838.5,-142.5 1838.5,-161.5 1887.5,-161.5 1887.5,-142.5 1838.5,-142.5"/>
<text text-anchor="middle" x="1863" y="-149.5" font-family="Helvetica,sans-Serif" font-size="10.00">cstddef</text>
</g>
<!-- Node18&#45;&gt;Node20 -->
<g id="edge23" class="edge"><title>Node18&#45;&gt;Node20</title>
<path fill="none" stroke="midnightblue" d="M1838.66,-210.372C1842.87,-200.446 1849.9,-183.874 1855.33,-171.086"/>
<polygon fill="midnightblue" stroke="midnightblue" points="1858.57,-172.414 1859.25,-161.841 1852.12,-169.68 1858.57,-172.414"/>
</g>
<!-- Node21 -->
<g id="node21" class="node"><title>Node21</title>
<polygon fill="none" stroke="#bfbfbf" points="1906,-137 1906,-167 2054,-167 2054,-137 1906,-137"/>
<text text-anchor="start" x="1914" y="-155" font-family="Helvetica,sans-Serif" font-size="10.00">boost/interprocess</text>
<text text-anchor="middle" x="1980" y="-144" font-family="Helvetica,sans-Serif" font-size="10.00">/managed_external_buffer.hpp</text>
</g>
<!-- Node18&#45;&gt;Node21 -->
<g id="edge24" class="edge"><title>Node18&#45;&gt;Node21</title>
<path fill="none" stroke="midnightblue" d="M1853.96,-210.372C1875.68,-200.483 1911.9,-183.997 1939.95,-171.229"/>
<polygon fill="midnightblue" stroke="midnightblue" points="1941.47,-174.385 1949.12,-167.056 1938.57,-168.014 1941.47,-174.385"/>
</g>
<!-- Node22 -->
<g id="node22" class="node"><title>Node22</title>
<polygon fill="none" stroke="#bfbfbf" points="1654,-137 1654,-167 1774,-167 1774,-137 1654,-137"/>
<text text-anchor="start" x="1662" y="-155" font-family="Helvetica,sans-Serif" font-size="10.00">boost/interprocess</text>
<text text-anchor="middle" x="1714" y="-144" font-family="Helvetica,sans-Serif" font-size="10.00">/allocators/allocator.hpp</text>
</g>
<!-- Node18&#45;&gt;Node22 -->
<g id="edge25" class="edge"><title>Node18&#45;&gt;Node22</title>
<path fill="none" stroke="midnightblue" d="M1819.18,-210.372C1801.42,-200.686 1772.06,-184.671 1748.87,-172.019"/>
<polygon fill="midnightblue" stroke="midnightblue" points="1750.45,-168.897 1740,-167.181 1747.1,-175.043 1750.45,-168.897"/>
</g>
<!-- Node23&#45;&gt;Node18 -->
<g id="edge27" class="edge"><title>Node23&#45;&gt;Node18</title>
<path fill="none" stroke="midnightblue" d="M1992.64,-272.403C1960.66,-261.978 1906.62,-244.356 1870.88,-232.699"/>
<polygon fill="midnightblue" stroke="midnightblue" points="1871.91,-229.353 1861.31,-229.581 1869.74,-236.008 1871.91,-229.353"/>
</g>
<!-- Node23&#45;&gt;Node24 -->
<g id="edge28" class="edge"><title>Node23&#45;&gt;Node24</title>
<path fill="none" stroke="midnightblue" d="M2026.16,-272.403C2033.74,-263.314 2045.87,-248.756 2055.29,-237.449"/>
<polygon fill="midnightblue" stroke="midnightblue" points="2058.14,-239.503 2061.85,-229.581 2052.76,-235.022 2058.14,-239.503"/>
</g>
<!-- Node28 -->
<g id="node28" class="node"><title>Node28</title>
<g id="a_node28"><a xlink:href="../../dd/d76/Cartesian3D_8h.html" target="_top" xlink:title="MathUtils/Cartesian3D.h">
<polygon fill="none" stroke="black" points="721.5,-142.5 721.5,-161.5 846.5,-161.5 846.5,-142.5 721.5,-142.5"/>
<text text-anchor="middle" x="784" y="-149.5" font-family="Helvetica,sans-Serif" font-size="10.00">MathUtils/Cartesian3D.h</text>
</a>
</g>
</g>
<!-- Node27&#45;&gt;Node28 -->
<g id="edge33" class="edge"><title>Node27&#45;&gt;Node28</title>
<path fill="none" stroke="midnightblue" d="M784,-204.679C784,-195.101 784,-182.394 784,-171.977"/>
<polygon fill="midnightblue" stroke="midnightblue" points="787.5,-171.828 784,-161.828 780.5,-171.828 787.5,-171.828"/>
</g>
<!-- Node28&#45;&gt;Node11 -->
<g id="edge39" class="edge"><title>Node28&#45;&gt;Node11</title>
<path fill="none" stroke="midnightblue" d="M846.588,-147.709C924.248,-142.509 1060.21,-129.734 1173,-100 1175.99,-99.2126 1179.05,-98.2448 1182.09,-97.1833"/>
<polygon fill="midnightblue" stroke="midnightblue" points="1183.41,-100.425 1191.49,-93.5792 1180.9,-93.8885 1183.41,-100.425"/>
</g>
<!-- Node29 -->
<g id="node29" class="node"><title>Node29</title>
<polygon fill="none" stroke="#bfbfbf" points="-0.5,-69 -0.5,-99 150.5,-99 150.5,-69 -0.5,-69"/>
<text text-anchor="start" x="7.5" y="-87" font-family="Helvetica,sans-Serif" font-size="10.00">Math/GenVector/Displacement</text>
<text text-anchor="middle" x="75" y="-76" font-family="Helvetica,sans-Serif" font-size="10.00">Vector3D.h</text>
</g>
<!-- Node28&#45;&gt;Node29 -->
<g id="edge34" class="edge"><title>Node28&#45;&gt;Node29</title>
<path fill="none" stroke="midnightblue" d="M721.357,-147.815C610.457,-141.754 372.155,-126.826 160.981,-100.048"/>
<polygon fill="midnightblue" stroke="midnightblue" points="161.31,-96.5612 150.946,-98.7634 160.421,-103.505 161.31,-96.5612"/>
</g>
<!-- Node30 -->
<g id="node30" class="node"><title>Node30</title>
<polygon fill="none" stroke="#bfbfbf" points="169,-74.5 169,-93.5 345,-93.5 345,-74.5 169,-74.5"/>
<text text-anchor="middle" x="257" y="-81.5" font-family="Helvetica,sans-Serif" font-size="10.00">Math/GenVector/PositionVector3D.h</text>
</g>
<!-- Node28&#45;&gt;Node30 -->
<g id="edge35" class="edge"><title>Node28&#45;&gt;Node30</title>
<path fill="none" stroke="midnightblue" d="M721.453,-144.337C637.513,-135.227 483.822,-117.954 353,-100 342.124,-98.5074 330.574,-96.8043 319.395,-95.0942"/>
<polygon fill="midnightblue" stroke="midnightblue" points="319.68,-91.5968 309.263,-93.5275 318.611,-98.5146 319.68,-91.5968"/>
</g>
<!-- Node31 -->
<g id="node31" class="node"><title>Node31</title>
<polygon fill="none" stroke="#bfbfbf" points="362.5,-74.5 362.5,-93.5 511.5,-93.5 511.5,-74.5 362.5,-74.5"/>
<text text-anchor="middle" x="437" y="-81.5" font-family="Helvetica,sans-Serif" font-size="10.00">Math/GenVector/Rotation3D.h</text>
</g>
<!-- Node28&#45;&gt;Node31 -->
<g id="edge36" class="edge"><title>Node28&#45;&gt;Node31</title>
<path fill="none" stroke="midnightblue" d="M738.992,-142.439C675.676,-130.396 560.419,-108.475 492.07,-95.4745"/>
<polygon fill="midnightblue" stroke="midnightblue" points="492.407,-91.9758 481.929,-93.5455 491.099,-98.8525 492.407,-91.9758"/>
</g>
<!-- Node32 -->
<g id="node32" class="node"><title>Node32</title>
<polygon fill="none" stroke="#bfbfbf" points="530,-74.5 530,-93.5 686,-93.5 686,-74.5 530,-74.5"/>
<text text-anchor="middle" x="608" y="-81.5" font-family="Helvetica,sans-Serif" font-size="10.00">Math/GenVector/Transform3D.h</text>
</g>
<!-- Node28&#45;&gt;Node32 -->
<g id="edge37" class="edge"><title>Node28&#45;&gt;Node32</title>
<path fill="none" stroke="midnightblue" d="M760.991,-142.372C730.206,-130.827 675.447,-110.293 640.472,-97.1772"/>
<polygon fill="midnightblue" stroke="midnightblue" points="641.328,-93.76 630.736,-93.5259 638.87,-100.314 641.328,-93.76"/>
</g>
<!-- Node33 -->
<g id="node33" class="node"><title>Node33</title>
<polygon fill="none" stroke="#bfbfbf" points="704,-74.5 704,-93.5 864,-93.5 864,-74.5 704,-74.5"/>
<text text-anchor="middle" x="784" y="-81.5" font-family="Helvetica,sans-Serif" font-size="10.00">Math/GenVector/Translation3D.h</text>
</g>
<!-- Node28&#45;&gt;Node33 -->
<g id="edge38" class="edge"><title>Node28&#45;&gt;Node33</title>
<path fill="none" stroke="midnightblue" d="M784,-142.372C784,-132.643 784,-116.528 784,-103.85"/>
<polygon fill="midnightblue" stroke="midnightblue" points="787.5,-103.841 784,-93.8411 780.5,-103.841 787.5,-103.841"/>
</g>
<!-- Node34 -->
<g id="node34" class="node"><title>Node34</title>
<polygon fill="none" stroke="#bfbfbf" points="882,-74.5 882,-93.5 958,-93.5 958,-74.5 882,-74.5"/>
<text text-anchor="middle" x="920" y="-81.5" font-family="Helvetica,sans-Serif" font-size="10.00">TGeoMatrix.h</text>
</g>
<!-- Node28&#45;&gt;Node34 -->
<g id="edge40" class="edge"><title>Node28&#45;&gt;Node34</title>
<path fill="none" stroke="midnightblue" d="M801.78,-142.372C824.993,-131.106 865.849,-111.279 892.923,-98.1403"/>
<polygon fill="midnightblue" stroke="midnightblue" points="894.748,-101.145 902.216,-93.6305 891.691,-94.8477 894.748,-101.145"/>
</g>
<!-- Node35 -->
<g id="node35" class="node"><title>Node35</title>
<polygon fill="none" stroke="#bfbfbf" points="976.5,-74.5 976.5,-93.5 1021.5,-93.5 1021.5,-74.5 976.5,-74.5"/>
<text text-anchor="middle" x="999" y="-81.5" font-family="Helvetica,sans-Serif" font-size="10.00">iosfwd</text>
</g>
<!-- Node28&#45;&gt;Node35 -->
<g id="edge41" class="edge"><title>Node28&#45;&gt;Node35</title>
<path fill="none" stroke="midnightblue" d="M821.732,-142.435C859.145,-133.489 917.83,-118.231 967,-100 968.855,-99.3121 970.751,-98.5594 972.647,-97.7693"/>
<polygon fill="midnightblue" stroke="midnightblue" points="974.237,-100.893 981.953,-93.6321 971.393,-94.4966 974.237,-100.893"/>
</g>
<!-- Node36 -->
<g id="node36" class="node"><title>Node36</title>
<g id="a_node36"><a xlink:href="../../d2/dd0/Cartesian2D_8h.html" target="_top" xlink:title="MathUtils/Cartesian2D.h">
<polygon fill="none" stroke="black" points="1039.5,-74.5 1039.5,-93.5 1164.5,-93.5 1164.5,-74.5 1039.5,-74.5"/>
<text text-anchor="middle" x="1102" y="-81.5" font-family="Helvetica,sans-Serif" font-size="10.00">MathUtils/Cartesian2D.h</text>
</a>
</g>
</g>
<!-- Node28&#45;&gt;Node36 -->
<g id="edge42" class="edge"><title>Node28&#45;&gt;Node36</title>
<path fill="none" stroke="midnightblue" d="M825.352,-142.44C874.236,-132.317 958.044,-114.954 1030,-100 1036.72,-98.6035 1043.79,-97.1322 1050.77,-95.679"/>
<polygon fill="midnightblue" stroke="midnightblue" points="1051.8,-99.0392 1060.88,-93.5738 1050.38,-92.1862 1051.8,-99.0392"/>
</g>
<!-- Node37 -->
<g id="node37" class="node"><title>Node37</title>
<polygon fill="none" stroke="#bfbfbf" points="935.5,-1 935.5,-31 1086.5,-31 1086.5,-1 935.5,-1"/>
<text text-anchor="start" x="943.5" y="-19" font-family="Helvetica,sans-Serif" font-size="10.00">Math/GenVector/Displacement</text>
<text text-anchor="middle" x="1011" y="-8" font-family="Helvetica,sans-Serif" font-size="10.00">Vector2D.h</text>
</g>
<!-- Node36&#45;&gt;Node37 -->
<g id="edge43" class="edge"><title>Node36&#45;&gt;Node37</title>
<path fill="none" stroke="midnightblue" d="M1090.1,-74.3717C1077.22,-65.0286 1056.22,-49.7966 1039.09,-37.375"/>
<polygon fill="midnightblue" stroke="midnightblue" points="1040.7,-34.2194 1030.55,-31.1815 1036.59,-39.8859 1040.7,-34.2194"/>
</g>
<!-- Node38 -->
<g id="node38" class="node"><title>Node38</title>
<polygon fill="none" stroke="#bfbfbf" points="1105,-6.5 1105,-25.5 1281,-25.5 1281,-6.5 1105,-6.5"/>
<text text-anchor="middle" x="1193" y="-13.5" font-family="Helvetica,sans-Serif" font-size="10.00">Math/GenVector/PositionVector2D.h</text>
</g>
<!-- Node36&#45;&gt;Node38 -->
<g id="edge44" class="edge"><title>Node36&#45;&gt;Node38</title>
<path fill="none" stroke="midnightblue" d="M1113.9,-74.3717C1128.88,-63.5015 1154.86,-44.6602 1172.94,-31.5474"/>
<polygon fill="midnightblue" stroke="midnightblue" points="1175.06,-34.3349 1181.1,-25.6305 1170.95,-28.6684 1175.06,-34.3349"/>
</g>
<!-- Node39&#45;&gt;Node27 -->
<g id="edge47" class="edge"><title>Node39&#45;&gt;Node27</title>
<path fill="none" stroke="midnightblue" d="M853.395,-272.403C842.424,-264.277 825.552,-251.779 811.192,-241.142"/>
<polygon fill="midnightblue" stroke="midnightblue" points="813.209,-238.281 803.09,-235.141 809.042,-243.906 813.209,-238.281"/>
</g>
<!-- Node40 -->
<g id="node40" class="node"><title>Node40</title>
<polygon fill="none" stroke="#bfbfbf" points="859,-210.5 859,-229.5 911,-229.5 911,-210.5 859,-210.5"/>
<text text-anchor="middle" x="885" y="-217.5" font-family="Helvetica,sans-Serif" font-size="10.00">ostream</text>
</g>
<!-- Node39&#45;&gt;Node40 -->
<g id="edge46" class="edge"><title>Node39&#45;&gt;Node40</title>
<path fill="none" stroke="midnightblue" d="M867.866,-272.403C870.747,-263.76 875.277,-250.17 878.955,-239.134"/>
<polygon fill="midnightblue" stroke="midnightblue" points="882.298,-240.174 882.14,-229.581 875.657,-237.961 882.298,-240.174"/>
</g>
<!-- Node41&#45;&gt;Node3 -->
<g id="edge51" class="edge"><title>Node41&#45;&gt;Node3</title>
<path fill="none" stroke="midnightblue" d="M972.781,-328.324C987.267,-319.822 1009.57,-306.729 1026.49,-296.797"/>
<polygon fill="midnightblue" stroke="midnightblue" points="1028.4,-299.735 1035.26,-291.655 1024.86,-293.698 1028.4,-299.735"/>
</g>
<!-- Node41&#45;&gt;Node39 -->
<g id="edge49" class="edge"><title>Node41&#45;&gt;Node39</title>
<path fill="none" stroke="midnightblue" d="M943.058,-328.324C928.415,-319.822 905.866,-306.729 888.762,-296.797"/>
<polygon fill="midnightblue" stroke="midnightblue" points="890.31,-293.649 879.905,-291.655 886.795,-299.703 890.31,-293.649"/>
</g>
<!-- Node42 -->
<g id="node42" class="node"><title>Node42</title>
<polygon fill="none" stroke="#bfbfbf" points="936,-272.5 936,-291.5 1010,-291.5 1010,-272.5 936,-272.5"/>
<text text-anchor="middle" x="973" y="-279.5" font-family="Helvetica,sans-Serif" font-size="10.00">TVirtualMC.h</text>
</g>
<!-- Node41&#45;&gt;Node42 -->
<g id="edge50" class="edge"><title>Node41&#45;&gt;Node42</title>
<path fill="none" stroke="midnightblue" d="M960.477,-328.083C962.486,-320.849 965.386,-310.409 967.89,-301.397"/>
<polygon fill="midnightblue" stroke="midnightblue" points="971.265,-302.323 970.569,-291.751 964.52,-300.449 971.265,-302.323"/>
</g>
<!-- Node43&#45;&gt;Node3 -->
<g id="edge53" class="edge"><title>Node43&#45;&gt;Node3</title>
<path fill="none" stroke="midnightblue" d="M1101.2,-328.324C1092.18,-320.341 1078.59,-308.313 1067.68,-298.653"/>
<polygon fill="midnightblue" stroke="midnightblue" points="1069.79,-295.842 1059.98,-291.834 1065.15,-301.083 1069.79,-295.842"/>
</g>
<!-- Node43&#45;&gt;Node16 -->
<g id="edge54" class="edge"><title>Node43&#45;&gt;Node16</title>
<path fill="none" stroke="midnightblue" d="M1111,-328.083C1111,-321.006 1111,-310.861 1111,-301.986"/>
<polygon fill="midnightblue" stroke="midnightblue" points="1114.5,-301.751 1111,-291.751 1107.5,-301.751 1114.5,-301.751"/>
</g>
</g>
</svg>
        <g id="navigator" transform="translate(0 0)" fill="#404254">
                <rect fill="#f2f5e9" fill-opacity="0.5" stroke="#606060" stroke-width=".5" x="0" y="0" width="60" height="60"/>
                <use id="zoomplus" xlink:href="#zoomPlus" x="17" y="9" onmousedown="handleZoom(evt,'in')"/>
                <use id="zoomminus" xlink:href="#zoomMin" x="42" y="9" onmousedown="handleZoom(evt,'out')"/>
                <use id="reset" xlink:href="#resetDef" x="30" y="36" onmousedown="handleReset()"/>
                <g id="arrowUp" xlink:href="#dirArrow" transform="translate(30 24)" onmousedown="handlePan(0,-1)">
                  <use xlink:href="#rim" fill="#404040">
                        <set attributeName="fill" to="#808080" begin="arrowUp.mouseover" end="arrowUp.mouseout"/>
                  </use>
                  <path fill="none" stroke="white" stroke-width="1.5" d="M0,-3.0v7 M-2.5,-0.5L0,-3.0L2.5,-0.5"/>
                </g>
                <g id="arrowRight" xlink:href="#dirArrow" transform="rotate(90) translate(36 -43)" onmousedown="handlePan(1,0)">
                  <use xlink:href="#rim" fill="#404040">
                        <set attributeName="fill" to="#808080" begin="arrowRight.mouseover" end="arrowRight.mouseout"/>
                  </use>
                  <path fill="none" stroke="white" stroke-width="1.5" d="M0,-3.0v7 M-2.5,-0.5L0,-3.0L2.5,-0.5"/>
                </g>
                <g id="arrowDown" xlink:href="#dirArrow" transform="rotate(180) translate(-30 -48)" onmousedown="handlePan(0,1)">
                  <use xlink:href="#rim" fill="#404040">
                        <set attributeName="fill" to="#808080" begin="arrowDown.mouseover" end="arrowDown.mouseout"/>
                  </use>
                  <path fill="none" stroke="white" stroke-width="1.5" d="M0,-3.0v7 M-2.5,-0.5L0,-3.0L2.5,-0.5"/>
                </g>
                <g id="arrowLeft" xlink:href="#dirArrow" transform="rotate(270) translate(-36 17)" onmousedown="handlePan(-1,0)">
                  <use xlink:href="#rim" fill="#404040">
                        <set attributeName="fill" to="#808080" begin="arrowLeft.mouseover" end="arrowLeft.mouseout"/>
                  </use>
                  <path fill="none" stroke="white" stroke-width="1.5" d="M0,-3.0v7 M-2.5,-0.5L0,-3.0L2.5,-0.5"/>
                </g>
        </g>
        <svg viewBox="0 0 15 15" width="100%" height="30px" preserveAspectRatio="xMaxYMin meet">
         <g id="arrow_out" transform="scale(0.3 0.3)">
          <a xlink:href="MUON_2MID_2Simulation_2src_2Detector_8cxx__incl_org.svg" target="_base">
           <rect id="button" ry="5" rx="5" y="6" x="6" height="38" width="38"
                fill="#f2f5e9" fill-opacity="0.5" stroke="#606060" stroke-width="1.0"/>
           <path id="arrow"
             d="M 11.500037,31.436501 C 11.940474,20.09759 22.043105,11.32322 32.158766,21.979434 L 37.068811,17.246167 C 37.068811,17.246167 37.088388,32 37.088388,32 L 22.160133,31.978069 C 22.160133,31.978069 26.997745,27.140456 26.997745,27.140456 C 18.528582,18.264221 13.291696,25.230495 11.500037,31.436501 z"
             style="fill:#404040;"/>
          </a>
         </g>
        </svg>
</svg>
