<?xml version="1.0" encoding="UTF-8" standalone="no"?>
<!DOCTYPE svg PUBLIC "-//W3C//DTD SVG 1.1//EN"
 "http://www.w3.org/Graphics/SVG/1.1/DTD/svg11.dtd">
<!-- Generated by graphviz version 2.36.0 (20140111.2315)
 -->
<!-- Title: /home/travis/build/AliceO2Group/AliceO2/Framework/Core/include/Framework/InputRoute.h Pages: 1 -->
<!--zoomable 378 -->
<svg id="main" version="1.1" xmlns="http://www.w3.org/2000/svg" xmlns:xlink="http://www.w3.org/1999/xlink" xml:space="preserve" onload="init(evt)">
<style type="text/css"><![CDATA[
.edge:hover path { stroke: red; }
.edge:hover polygon { stroke: red; fill: red; }
]]></style>
<script type="text/javascript"><![CDATA[
var edges = document.getElementsByTagName('g');
if (edges && edges.length) {
  for (var i=0;i<edges.length;i++) {
    if (edges[i].id.substr(0,4)=='edge') {
      edges[i].setAttribute('class','edge');
    }
  }
}
]]></script>
        <defs>
                <circle id="rim" cx="0" cy="0" r="7"/>
                <circle id="rim2" cx="0" cy="0" r="3.5"/>
                <g id="zoomPlus">
                        <use xlink:href="#rim" fill="#404040">
                                <set attributeName="fill" to="#808080" begin="zoomplus.mouseover" end="zoomplus.mouseout"/>
                        </use>
                        <path d="M-4,0h8M0,-4v8" fill="none" stroke="white" stroke-width="1.5" pointer-events="none"/>
                </g>
                <g id="zoomMin">
                        <use xlink:href="#rim" fill="#404040">
                                <set attributeName="fill" to="#808080" begin="zoomminus.mouseover" end="zoomminus.mouseout"/>
                        </use>
                        <path d="M-4,0h8" fill="none" stroke="white" stroke-width="1.5" pointer-events="none"/>
                </g>
                <g id="dirArrow">
                        <path fill="none" stroke="white" stroke-width="1.5" d="M0,-3.0v7 M-2.5,-0.5L0,-3.0L2.5,-0.5"/>
                </g>
               <g id="resetDef">
                       <use xlink:href="#rim2" fill="#404040">
                               <set attributeName="fill" to="#808080" begin="reset.mouseover" end="reset.mouseout"/>
                       </use>
               </g>
        </defs>

<script type="text/javascript">
var viewWidth = 2228;
var viewHeight = 378;
var sectionId = 'dynsection-0';
</script>
<script xlink:href="../../svgpan.js"/>
<svg id="graph" class="graph">
<g id="viewport">
<title>/home/travis/build/AliceO2Group/AliceO2/Framework/Core/include/Framework/InputRoute.h</title>
<!-- Node1 -->
<g id="node1" class="node"><title>Node1</title>
<polygon fill="#bfbfbf" stroke="black" points="530.512,-317 530.512,-369 658.512,-369 658.512,-317 530.512,-317"/>
<text text-anchor="start" x="538.512" y="-357" font-family="Helvetica,sans-Serif" font-size="10.00">/home/travis/build</text>
<text text-anchor="start" x="538.512" y="-346" font-family="Helvetica,sans-Serif" font-size="10.00">/AliceO2Group/AliceO2</text>
<text text-anchor="start" x="538.512" y="-335" font-family="Helvetica,sans-Serif" font-size="10.00">/Framework/Core/include</text>
<text text-anchor="middle" x="594.512" y="-324" font-family="Helvetica,sans-Serif" font-size="10.00">/Framework/InputRoute.h</text>
</g>
<!-- Node2 -->
<g id="node2" class="node"><title>Node2</title>
<g id="a_node2"><a xlink:href="../../d2/dd9/ExpirationHandler_8h.html" target="_top" xlink:title="Framework/ExpirationHandler.h">
<polygon fill="none" stroke="black" points="226.512,-260.5 226.512,-279.5 380.512,-279.5 380.512,-260.5 226.512,-260.5"/>
<text text-anchor="middle" x="303.512" y="-267.5" font-family="Helvetica,sans-Serif" font-size="10.00">Framework/ExpirationHandler.h</text>
</a>
</g>
</g>
<!-- Node1&#45;&gt;Node2 -->
<g id="edge1" class="edge"><title>Node1&#45;&gt;Node2</title>
<path fill="none" stroke="midnightblue" d="M530.291,-326.331C475.131,-312.873 397.024,-293.816 348.364,-281.943"/>
<polygon fill="midnightblue" stroke="midnightblue" points="348.99,-278.493 338.446,-279.523 347.331,-285.294 348.99,-278.493"/>
</g>
<!-- Node4 -->
<g id="node4" class="node"><title>Node4</title>
<polygon fill="none" stroke="#bfbfbf" points="274.012,-198.5 274.012,-217.5 333.012,-217.5 333.012,-198.5 274.012,-198.5"/>
<text text-anchor="middle" x="303.512" y="-205.5" font-family="Helvetica,sans-Serif" font-size="10.00">functional</text>
</g>
<!-- Node1&#45;&gt;Node4 -->
<g id="edge55" class="edge"><title>Node1&#45;&gt;Node4</title>
<path fill="none" stroke="midnightblue" d="M539.777,-316.984C477.858,-288.684 379.424,-243.695 331.529,-221.805"/>
<polygon fill="midnightblue" stroke="midnightblue" points="332.928,-218.596 322.378,-217.622 330.018,-224.963 332.928,-218.596"/>
</g>
<!-- Node5 -->
<g id="node5" class="node"><title>Node5</title>
<g id="a_node5"><a xlink:href="../../d5/d3f/InputSpec_8h.html" target="_top" xlink:title="Framework/InputSpec.h">
<polygon fill="none" stroke="black" points="534.012,-260.5 534.012,-279.5 655.012,-279.5 655.012,-260.5 534.012,-260.5"/>
<text text-anchor="middle" x="594.512" y="-267.5" font-family="Helvetica,sans-Serif" font-size="10.00">Framework/InputSpec.h</text>
</a>
</g>
</g>
<!-- Node1&#45;&gt;Node5 -->
<g id="edge4" class="edge"><title>Node1&#45;&gt;Node5</title>
<path fill="none" stroke="midnightblue" d="M594.512,-316.768C594.512,-307.89 594.512,-298.074 594.512,-289.816"/>
<polygon fill="midnightblue" stroke="midnightblue" points="598.012,-289.757 594.512,-279.757 591.012,-289.757 598.012,-289.757"/>
</g>
<!-- Node14 -->
<g id="node14" class="node"><title>Node14</title>
<polygon fill="none" stroke="#bfbfbf" points="486.012,-6.5 486.012,-25.5 527.012,-25.5 527.012,-6.5 486.012,-6.5"/>
<text text-anchor="middle" x="506.512" y="-13.5" font-family="Helvetica,sans-Serif" font-size="10.00">string</text>
</g>
<!-- Node1&#45;&gt;Node14 -->
<g id="edge54" class="edge"><title>Node1&#45;&gt;Node14</title>
<path fill="none" stroke="midnightblue" d="M658.674,-330.399C756.954,-310.778 933.512,-267.401 933.512,-209 933.512,-209 933.512,-209 933.512,-139 933.512,-128.241 924.185,-128.711 914.512,-124 758.675,-48.1035 697.874,-92.6954 535.512,-32 533.906,-31.3996 532.275,-30.7316 530.646,-30.0205"/>
<polygon fill="midnightblue" stroke="midnightblue" points="532.08,-26.8263 521.551,-25.6445 529.045,-33.1342 532.08,-26.8263"/>
</g>
<!-- Node38 -->
<g id="node38" class="node"><title>Node38</title>
<polygon fill="none" stroke="#bfbfbf" points="962.012,-260.5 962.012,-279.5 1011.01,-279.5 1011.01,-260.5 962.012,-260.5"/>
<text text-anchor="middle" x="986.512" y="-267.5" font-family="Helvetica,sans-Serif" font-size="10.00">cstddef</text>
</g>
<!-- Node1&#45;&gt;Node38 -->
<g id="edge53" class="edge"><title>Node1&#45;&gt;Node38</title>
<path fill="none" stroke="midnightblue" d="M658.797,-331.759C729.694,-320.221 847.05,-300.399 947.512,-280 948.959,-279.706 950.435,-279.399 951.924,-279.083"/>
<polygon fill="midnightblue" stroke="midnightblue" points="952.783,-282.478 961.798,-276.911 951.279,-275.641 952.783,-282.478"/>
</g>
<!-- Node3 -->
<g id="node3" class="node"><title>Node3</title>
<polygon fill="none" stroke="#bfbfbf" points="87.5122,-6.5 87.5122,-25.5 133.512,-25.5 133.512,-6.5 87.5122,-6.5"/>
<text text-anchor="middle" x="110.512" y="-13.5" font-family="Helvetica,sans-Serif" font-size="10.00">cstdint</text>
</g>
<!-- Node2&#45;&gt;Node3 -->
<g id="edge2" class="edge"><title>Node2&#45;&gt;Node3</title>
<path fill="none" stroke="midnightblue" d="M226.504,-263.108C156.57,-253.203 57.1525,-226.718 8.51222,-156 -23.5231,-109.424 47.2219,-55.9185 86.5337,-31.0569"/>
<polygon fill="midnightblue" stroke="midnightblue" points="88.6351,-33.8732 95.3132,-25.6481 84.9634,-27.9134 88.6351,-33.8732"/>
</g>
<!-- Node2&#45;&gt;Node4 -->
<g id="edge3" class="edge"><title>Node2&#45;&gt;Node4</title>
<path fill="none" stroke="midnightblue" d="M303.512,-260.403C303.512,-251.938 303.512,-238.728 303.512,-227.82"/>
<polygon fill="midnightblue" stroke="midnightblue" points="307.012,-227.581 303.512,-217.581 300.012,-227.581 307.012,-227.581"/>
</g>
<!-- Node6 -->
<g id="node6" class="node"><title>Node6</title>
<g id="a_node6"><a xlink:href="../../dc/dca/Lifetime_8h.html" target="_top" xlink:title="Framework/Lifetime.h">
<polygon fill="none" stroke="black" points="650.012,-198.5 650.012,-217.5 761.012,-217.5 761.012,-198.5 650.012,-198.5"/>
<text text-anchor="middle" x="705.512" y="-205.5" font-family="Helvetica,sans-Serif" font-size="10.00">Framework/Lifetime.h</text>
</a>
</g>
</g>
<!-- Node5&#45;&gt;Node6 -->
<g id="edge5" class="edge"><title>Node5&#45;&gt;Node6</title>
<path fill="none" stroke="midnightblue" d="M610.416,-260.403C628.797,-250.468 659.269,-233.997 680.757,-222.381"/>
<polygon fill="midnightblue" stroke="midnightblue" points="682.505,-225.415 689.638,-217.581 679.177,-219.257 682.505,-225.415"/>
</g>
<!-- Node7 -->
<g id="node7" class="node"><title>Node7</title>
<g id="a_node7"><a xlink:href="../../d0/d1b/ConcreteDataMatcher_8h.html" target="_top" xlink:title="Framework/ConcreteDataMatcher.h">
<polygon fill="none" stroke="black" points="370.012,-130.5 370.012,-149.5 543.012,-149.5 543.012,-130.5 370.012,-130.5"/>
<text text-anchor="middle" x="456.512" y="-137.5" font-family="Helvetica,sans-Serif" font-size="10.00">Framework/ConcreteDataMatcher.h</text>
</a>
</g>
</g>
<!-- Node5&#45;&gt;Node7 -->
<g id="edge6" class="edge"><title>Node5&#45;&gt;Node7</title>
<path fill="none" stroke="midnightblue" d="M598.781,-260.437C605.728,-245.151 617.295,-212.822 602.512,-192 588.305,-171.988 565.63,-159.765 542.346,-152.32"/>
<polygon fill="midnightblue" stroke="midnightblue" points="543.287,-148.949 532.707,-149.507 541.326,-155.669 543.287,-148.949"/>
</g>
<!-- Node5&#45;&gt;Node14 -->
<g id="edge50" class="edge"><title>Node5&#45;&gt;Node14</title>
<path fill="none" stroke="midnightblue" d="M645.195,-260.456C764.221,-238.409 1044.48,-173.805 947.512,-68 885.419,-0.244354 623.78,-57.5971 535.512,-32 533.593,-31.4435 531.653,-30.7558 529.733,-29.9837"/>
<polygon fill="midnightblue" stroke="midnightblue" points="531.044,-26.7321 520.506,-25.6352 528.06,-33.0642 531.044,-26.7321"/>
</g>
<!-- Node16 -->
<g id="node16" class="node"><title>Node16</title>
<g id="a_node16"><a xlink:href="../../d3/da3/DataDescriptorMatcher_8h.html" target="_top" xlink:title="Framework/DataDescriptor\lMatcher.h">
<polygon fill="none" stroke="black" points="389.512,-193 389.512,-223 523.512,-223 523.512,-193 389.512,-193"/>
<text text-anchor="start" x="397.512" y="-211" font-family="Helvetica,sans-Serif" font-size="10.00">Framework/DataDescriptor</text>
<text text-anchor="middle" x="456.512" y="-200" font-family="Helvetica,sans-Serif" font-size="10.00">Matcher.h</text>
</a>
</g>
</g>
<!-- Node5&#45;&gt;Node16 -->
<g id="edge16" class="edge"><title>Node5&#45;&gt;Node16</title>
<path fill="none" stroke="midnightblue" d="M574.74,-260.403C554.849,-251.755 523.568,-238.155 498.177,-227.115"/>
<polygon fill="midnightblue" stroke="midnightblue" points="499.337,-223.803 488.77,-223.025 496.546,-230.222 499.337,-223.803"/>
</g>
<!-- Node35 -->
<g id="node35" class="node"><title>Node35</title>
<polygon fill="none" stroke="#bfbfbf" points="17.5122,-130.5 17.5122,-149.5 63.5122,-149.5 63.5122,-130.5 17.5122,-130.5"/>
<text text-anchor="middle" x="40.5122" y="-137.5" font-family="Helvetica,sans-Serif" font-size="10.00">variant</text>
</g>
<!-- Node5&#45;&gt;Node35 -->
<g id="edge52" class="edge"><title>Node5&#45;&gt;Node35</title>
<path fill="none" stroke="midnightblue" d="M533.915,-264.046C489.648,-258.609 429.122,-247.313 380.512,-224 360.296,-214.304 362.063,-200.965 341.512,-192 232.97,-144.653 191.941,-186.482 77.5122,-156 74.5275,-155.205 71.4607,-154.232 68.431,-153.168"/>
<polygon fill="midnightblue" stroke="midnightblue" points="69.6147,-149.873 59.0244,-149.56 67.1078,-156.409 69.6147,-149.873"/>
</g>
<!-- Node37 -->
<g id="node37" class="node"><title>Node37</title>
<polygon fill="none" stroke="#bfbfbf" points="541.512,-198.5 541.512,-217.5 593.512,-217.5 593.512,-198.5 541.512,-198.5"/>
<text text-anchor="middle" x="567.512" y="-205.5" font-family="Helvetica,sans-Serif" font-size="10.00">ostream</text>
</g>
<!-- Node5&#45;&gt;Node37 -->
<g id="edge51" class="edge"><title>Node5&#45;&gt;Node37</title>
<path fill="none" stroke="midnightblue" d="M590.644,-260.403C586.714,-251.671 580.512,-237.889 575.519,-226.794"/>
<polygon fill="midnightblue" stroke="midnightblue" points="578.669,-225.264 571.373,-217.581 572.285,-228.136 578.669,-225.264"/>
</g>
<!-- Node8 -->
<g id="node8" class="node"><title>Node8</title>
<g id="a_node8"><a xlink:href="../../dc/dcd/DataHeader_8h.html" target="_top" xlink:title="Headers/DataHeader.h">
<polygon fill="none" stroke="black" points="350.012,-68.5 350.012,-87.5 467.012,-87.5 467.012,-68.5 350.012,-68.5"/>
<text text-anchor="middle" x="408.512" y="-75.5" font-family="Helvetica,sans-Serif" font-size="10.00">Headers/DataHeader.h</text>
</a>
</g>
</g>
<!-- Node7&#45;&gt;Node8 -->
<g id="edge7" class="edge"><title>Node7&#45;&gt;Node8</title>
<path fill="none" stroke="midnightblue" d="M449.635,-130.403C442.364,-121.314 430.717,-106.756 421.671,-95.4489"/>
<polygon fill="midnightblue" stroke="midnightblue" points="424.357,-93.2029 415.377,-87.5806 418.891,-97.5757 424.357,-93.2029"/>
</g>
<!-- Node8&#45;&gt;Node3 -->
<g id="edge8" class="edge"><title>Node8&#45;&gt;Node3</title>
<path fill="none" stroke="midnightblue" d="M366.133,-68.4672C306.202,-56.4006 197.944,-34.6036 143.567,-23.6553"/>
<polygon fill="midnightblue" stroke="midnightblue" points="144.246,-20.2219 133.752,-21.6791 142.864,-27.0841 144.246,-20.2219"/>
</g>
<!-- Node9 -->
<g id="node9" class="node"><title>Node9</title>
<polygon fill="none" stroke="#bfbfbf" points="264.512,-6.5 264.512,-25.5 316.512,-25.5 316.512,-6.5 264.512,-6.5"/>
<text text-anchor="middle" x="290.512" y="-13.5" font-family="Helvetica,sans-Serif" font-size="10.00">memory</text>
</g>
<!-- Node8&#45;&gt;Node9 -->
<g id="edge9" class="edge"><title>Node8&#45;&gt;Node9</title>
<path fill="none" stroke="midnightblue" d="M391.606,-68.4035C371.978,-58.4232 339.381,-41.8487 316.522,-30.2253"/>
<polygon fill="midnightblue" stroke="midnightblue" points="317.888,-26.9933 307.387,-25.5806 314.715,-33.233 317.888,-26.9933"/>
</g>
<!-- Node10 -->
<g id="node10" class="node"><title>Node10</title>
<polygon fill="none" stroke="#bfbfbf" points="197.012,-6.5 197.012,-25.5 246.012,-25.5 246.012,-6.5 197.012,-6.5"/>
<text text-anchor="middle" x="221.512" y="-13.5" font-family="Helvetica,sans-Serif" font-size="10.00">cassert</text>
</g>
<!-- Node8&#45;&gt;Node10 -->
<g id="edge10" class="edge"><title>Node8&#45;&gt;Node10</title>
<path fill="none" stroke="midnightblue" d="M374.98,-68.4796C343.709,-60.2192 295.945,-46.7944 255.512,-32 253.395,-31.2255 251.223,-30.3829 249.05,-29.5054"/>
<polygon fill="midnightblue" stroke="midnightblue" points="250.259,-26.2165 239.686,-25.5366 247.527,-32.6615 250.259,-26.2165"/>
</g>
<!-- Node11 -->
<g id="node11" class="node"><title>Node11</title>
<polygon fill="none" stroke="#bfbfbf" points="700.512,-6.5 700.512,-25.5 746.512,-25.5 746.512,-6.5 700.512,-6.5"/>
<text text-anchor="middle" x="723.512" y="-13.5" font-family="Helvetica,sans-Serif" font-size="10.00">cstring</text>
</g>
<!-- Node8&#45;&gt;Node11 -->
<g id="edge11" class="edge"><title>Node8&#45;&gt;Node11</title>
<path fill="none" stroke="midnightblue" d="M467.053,-72.2749C524.812,-66.5431 615.149,-54.6893 690.512,-32 692.851,-31.2958 695.239,-30.4604 697.608,-29.5497"/>
<polygon fill="midnightblue" stroke="midnightblue" points="699.231,-32.663 707.061,-25.5256 696.489,-26.2224 699.231,-32.663"/>
</g>
<!-- Node12 -->
<g id="node12" class="node"><title>Node12</title>
<polygon fill="none" stroke="#bfbfbf" points="334.512,-6.5 334.512,-25.5 390.512,-25.5 390.512,-6.5 334.512,-6.5"/>
<text text-anchor="middle" x="362.512" y="-13.5" font-family="Helvetica,sans-Serif" font-size="10.00">algorithm</text>
</g>
<!-- Node8&#45;&gt;Node12 -->
<g id="edge12" class="edge"><title>Node8&#45;&gt;Node12</title>
<path fill="none" stroke="midnightblue" d="M401.922,-68.4035C395.022,-59.4034 384.01,-45.0408 375.379,-33.7824"/>
<polygon fill="midnightblue" stroke="midnightblue" points="377.953,-31.3872 369.091,-25.5806 372.397,-35.6462 377.953,-31.3872"/>
</g>
<!-- Node13 -->
<g id="node13" class="node"><title>Node13</title>
<polygon fill="none" stroke="#bfbfbf" points="409.012,-6.5 409.012,-25.5 468.012,-25.5 468.012,-6.5 409.012,-6.5"/>
<text text-anchor="middle" x="438.512" y="-13.5" font-family="Helvetica,sans-Serif" font-size="10.00">stdexcept</text>
</g>
<!-- Node8&#45;&gt;Node13 -->
<g id="edge13" class="edge"><title>Node8&#45;&gt;Node13</title>
<path fill="none" stroke="midnightblue" d="M412.81,-68.4035C417.177,-59.6707 424.068,-45.8893 429.615,-34.7936"/>
<polygon fill="midnightblue" stroke="midnightblue" points="432.88,-36.0901 434.222,-25.5806 426.619,-32.9596 432.88,-36.0901"/>
</g>
<!-- Node8&#45;&gt;Node14 -->
<g id="edge14" class="edge"><title>Node8&#45;&gt;Node14</title>
<path fill="none" stroke="midnightblue" d="M422.553,-68.4035C438.563,-58.6014 464.963,-42.4385 483.886,-30.8526"/>
<polygon fill="midnightblue" stroke="midnightblue" points="485.796,-33.7872 492.497,-25.5806 482.141,-27.8172 485.796,-33.7872"/>
</g>
<!-- Node15 -->
<g id="node15" class="node"><title>Node15</title>
<g id="a_node15"><a xlink:href="../../d7/df8/Types_8h.html" target="_top" xlink:title="MemoryResources/Types.h">
<polygon fill="none" stroke="black" points="545.012,-6.5 545.012,-25.5 682.012,-25.5 682.012,-6.5 545.012,-6.5"/>
<text text-anchor="middle" x="613.512" y="-13.5" font-family="Helvetica,sans-Serif" font-size="10.00">MemoryResources/Types.h</text>
</a>
</g>
</g>
<!-- Node8&#45;&gt;Node15 -->
<g id="edge15" class="edge"><title>Node8&#45;&gt;Node15</title>
<path fill="none" stroke="midnightblue" d="M437.884,-68.4035C473.81,-57.8886 534.745,-40.0539 574.557,-28.4016"/>
<polygon fill="midnightblue" stroke="midnightblue" points="575.581,-31.7487 584.195,-25.5806 573.615,-25.0306 575.581,-31.7487"/>
</g>
<!-- Node16&#45;&gt;Node3 -->
<g id="edge44" class="edge"><title>Node16&#45;&gt;Node3</title>
<path fill="none" stroke="midnightblue" d="M389.372,-194.31C384.686,-193.503 380.031,-192.725 375.512,-192 316.833,-182.587 149.605,-200.762 110.512,-156 81.2349,-122.476 94.1438,-65.1081 103.649,-35.6541"/>
<polygon fill="midnightblue" stroke="midnightblue" points="107.082,-36.435 107.03,-25.8403 100.463,-34.1548 107.082,-36.435"/>
</g>
<!-- Node16&#45;&gt;Node7 -->
<g id="edge17" class="edge"><title>Node16&#45;&gt;Node7</title>
<path fill="none" stroke="midnightblue" d="M456.512,-192.679C456.512,-183.101 456.512,-170.394 456.512,-159.977"/>
<polygon fill="midnightblue" stroke="midnightblue" points="460.012,-159.828 456.512,-149.828 453.012,-159.828 460.012,-159.828"/>
</g>
<!-- Node16&#45;&gt;Node8 -->
<g id="edge24" class="edge"><title>Node16&#45;&gt;Node8</title>
<path fill="none" stroke="midnightblue" d="M407.631,-192.979C389.567,-185.166 370.964,-173.388 360.512,-156 353.185,-143.81 354.858,-137.05 360.512,-124 365.78,-111.84 376.132,-101.459 385.877,-93.7429"/>
<polygon fill="midnightblue" stroke="midnightblue" points="388.156,-96.4116 394.142,-87.6698 384.011,-90.7707 388.156,-96.4116"/>
</g>
<!-- Node16&#45;&gt;Node14 -->
<g id="edge46" class="edge"><title>Node16&#45;&gt;Node14</title>
<path fill="none" stroke="midnightblue" d="M504.649,-192.969C522.605,-185.138 541.134,-173.35 551.512,-156 575.61,-115.712 541.344,-61.0257 520.508,-33.8175"/>
<polygon fill="midnightblue" stroke="midnightblue" points="523.023,-31.3557 514.061,-25.7042 517.542,-35.7108 523.023,-31.3557"/>
</g>
<!-- Node17 -->
<g id="node17" class="node"><title>Node17</title>
<g id="a_node17"><a xlink:href="../../d6/dc9/DataProcessingHeader_8h.html" target="_top" xlink:title="Framework/DataProcessing\lHeader.h">
<polygon fill="none" stroke="black" points="119.512,-125 119.512,-155 257.512,-155 257.512,-125 119.512,-125"/>
<text text-anchor="start" x="127.512" y="-143" font-family="Helvetica,sans-Serif" font-size="10.00">Framework/DataProcessing</text>
<text text-anchor="middle" x="188.512" y="-132" font-family="Helvetica,sans-Serif" font-size="10.00">Header.h</text>
</a>
</g>
</g>
<!-- Node16&#45;&gt;Node17 -->
<g id="edge18" class="edge"><title>Node16&#45;&gt;Node17</title>
<path fill="none" stroke="midnightblue" d="M399.348,-192.922C357.187,-182.539 299.699,-168.382 255.401,-157.472"/>
<polygon fill="midnightblue" stroke="midnightblue" points="256.135,-154.049 245.588,-155.056 254.461,-160.846 256.135,-154.049"/>
</g>
<!-- Node19 -->
<g id="node19" class="node"><title>Node19</title>
<g id="a_node19"><a xlink:href="../../d4/d00/Headers_2include_2Headers_2Stack_8h.html" target="_top" xlink:title="Headers/Stack.h">
<polygon fill="none" stroke="black" points="815.512,-130.5 815.512,-149.5 905.512,-149.5 905.512,-130.5 815.512,-130.5"/>
<text text-anchor="middle" x="860.512" y="-137.5" font-family="Helvetica,sans-Serif" font-size="10.00">Headers/Stack.h</text>
</a>
</g>
</g>
<!-- Node16&#45;&gt;Node19 -->
<g id="edge25" class="edge"><title>Node16&#45;&gt;Node19</title>
<path fill="none" stroke="midnightblue" d="M523.607,-193.515C526.613,-192.987 529.593,-192.479 532.512,-192 653.713,-172.098 686.156,-180.497 806.512,-156 811.875,-154.908 817.489,-153.572 822.984,-152.152"/>
<polygon fill="midnightblue" stroke="midnightblue" points="823.924,-155.523 832.666,-149.539 822.1,-148.765 823.924,-155.523"/>
</g>
<!-- Node27 -->
<g id="node27" class="node"><title>Node27</title>
<polygon fill="none" stroke="#bfbfbf" points="2175.51,-6.5 2175.51,-25.5 2219.51,-25.5 2219.51,-6.5 2175.51,-6.5"/>
<text text-anchor="middle" x="2197.51" y="-13.5" font-family="Helvetica,sans-Serif" font-size="10.00">vector</text>
</g>
<!-- Node16&#45;&gt;Node27 -->
<g id="edge48" class="edge"><title>Node16&#45;&gt;Node27</title>
<path fill="none" stroke="midnightblue" d="M523.586,-193.381C526.598,-192.889 529.584,-192.426 532.512,-192 701.267,-167.459 744.773,-172.404 914.512,-156 1471.09,-102.212 1628.31,-183.673 2166.51,-32 2168.71,-31.3807 2170.94,-30.6124 2173.15,-29.7533"/>
<polygon fill="midnightblue" stroke="midnightblue" points="2174.78,-32.8596 2182.48,-25.5866 2171.92,-26.4678 2174.78,-32.8596"/>
</g>
<!-- Node33 -->
<g id="node33" class="node"><title>Node33</title>
<polygon fill="none" stroke="#bfbfbf" points="275.512,-130.5 275.512,-149.5 313.512,-149.5 313.512,-130.5 275.512,-130.5"/>
<text text-anchor="middle" x="294.512" y="-137.5" font-family="Helvetica,sans-Serif" font-size="10.00">array</text>
</g>
<!-- Node16&#45;&gt;Node33 -->
<g id="edge43" class="edge"><title>Node16&#45;&gt;Node33</title>
<path fill="none" stroke="midnightblue" d="M419.614,-192.978C393.707,-182.995 358.324,-169.084 327.512,-156 325.879,-155.307 324.206,-154.584 322.521,-153.847"/>
<polygon fill="midnightblue" stroke="midnightblue" points="323.499,-150.451 312.941,-149.574 320.647,-156.844 323.499,-150.451"/>
</g>
<!-- Node34 -->
<g id="node34" class="node"><title>Node34</title>
<polygon fill="none" stroke="#bfbfbf" points="600.012,-130.5 600.012,-149.5 645.012,-149.5 645.012,-130.5 600.012,-130.5"/>
<text text-anchor="middle" x="622.512" y="-137.5" font-family="Helvetica,sans-Serif" font-size="10.00">iosfwd</text>
</g>
<!-- Node16&#45;&gt;Node34 -->
<g id="edge45" class="edge"><title>Node16&#45;&gt;Node34</title>
<path fill="none" stroke="midnightblue" d="M492.412,-192.903C518.311,-182.71 554.1,-168.576 585.512,-156 587.604,-155.163 589.76,-154.296 591.932,-153.422"/>
<polygon fill="midnightblue" stroke="midnightblue" points="593.433,-156.59 601.393,-149.599 590.81,-150.1 593.433,-156.59"/>
</g>
<!-- Node16&#45;&gt;Node35 -->
<g id="edge47" class="edge"><title>Node16&#45;&gt;Node35</title>
<path fill="none" stroke="midnightblue" d="M389.384,-194.233C384.695,-193.444 380.036,-192.691 375.512,-192 243.636,-171.844 206.683,-189.353 77.5122,-156 74.5215,-155.228 71.4508,-154.27 68.4187,-153.214"/>
<polygon fill="midnightblue" stroke="midnightblue" points="69.5998,-149.919 59.0092,-149.618 67.1005,-156.458 69.5998,-149.919"/>
</g>
<!-- Node36 -->
<g id="node36" class="node"><title>Node36</title>
<g id="a_node36"><a xlink:href="../../d4/de7/DataDescriptorMatcher_8inc.html" target="_top" xlink:title="DataDescriptorMatcher.inc">
<polygon fill="none" stroke="black" points="663.512,-130.5 663.512,-149.5 797.512,-149.5 797.512,-130.5 663.512,-130.5"/>
<text text-anchor="middle" x="730.512" y="-137.5" font-family="Helvetica,sans-Serif" font-size="10.00">DataDescriptorMatcher.inc</text>
</a>
</g>
</g>
<!-- Node16&#45;&gt;Node36 -->
<g id="edge49" class="edge"><title>Node16&#45;&gt;Node36</title>
<path fill="none" stroke="midnightblue" d="M514.956,-192.922C565.912,-180.648 638.767,-163.099 685.355,-151.877"/>
<polygon fill="midnightblue" stroke="midnightblue" points="686.265,-155.258 695.167,-149.514 684.626,-148.453 686.265,-155.258"/>
</g>
<!-- Node17&#45;&gt;Node3 -->
<g id="edge20" class="edge"><title>Node17&#45;&gt;Node3</title>
<path fill="none" stroke="midnightblue" d="M176.261,-124.771C167.96,-114.808 157,-101.004 148.512,-88 137.198,-70.6652 126.26,-49.632 119.048,-34.9771"/>
<polygon fill="midnightblue" stroke="midnightblue" points="122.007,-33.0565 114.502,-25.5774 115.705,-36.1038 122.007,-33.0565"/>
</g>
<!-- Node17&#45;&gt;Node8 -->
<g id="edge19" class="edge"><title>Node17&#45;&gt;Node8</title>
<path fill="none" stroke="midnightblue" d="M240.092,-124.933C278.982,-114.326 331.596,-99.9772 367.607,-90.1559"/>
<polygon fill="midnightblue" stroke="midnightblue" points="368.572,-93.5206 377.299,-87.5127 366.73,-86.7673 368.572,-93.5206"/>
</g>
<!-- Node17&#45;&gt;Node9 -->
<g id="edge22" class="edge"><title>Node17&#45;&gt;Node9</title>
<path fill="none" stroke="midnightblue" d="M200.614,-124.526C219.695,-101.703 256.663,-57.4859 276.736,-33.4769"/>
<polygon fill="midnightblue" stroke="midnightblue" points="279.574,-35.5397 283.303,-25.6228 274.204,-31.0498 279.574,-35.5397"/>
</g>
<!-- Node17&#45;&gt;Node10 -->
<g id="edge23" class="edge"><title>Node17&#45;&gt;Node10</title>
<path fill="none" stroke="midnightblue" d="M195.465,-124.579C200.055,-114.531 205.873,-100.703 209.512,-88 214.457,-70.7414 217.63,-50.5029 219.463,-36.059"/>
<polygon fill="midnightblue" stroke="midnightblue" points="222.968,-36.2244 220.655,-25.8852 216.015,-35.4102 222.968,-36.2244"/>
</g>
<!-- Node18 -->
<g id="node18" class="node"><title>Node18</title>
<polygon fill="none" stroke="#bfbfbf" points="158.012,-68.5 158.012,-87.5 201.012,-87.5 201.012,-68.5 158.012,-68.5"/>
<text text-anchor="middle" x="179.512" y="-75.5" font-family="Helvetica,sans-Serif" font-size="10.00">cstdio</text>
</g>
<!-- Node17&#45;&gt;Node18 -->
<g id="edge21" class="edge"><title>Node17&#45;&gt;Node18</title>
<path fill="none" stroke="midnightblue" d="M186.379,-124.781C185.166,-116.691 183.631,-106.462 182.321,-97.725"/>
<polygon fill="midnightblue" stroke="midnightblue" points="185.767,-97.1007 180.822,-87.7305 178.844,-98.1391 185.767,-97.1007"/>
</g>
<!-- Node19&#45;&gt;Node8 -->
<g id="edge42" class="edge"><title>Node19&#45;&gt;Node8</title>
<path fill="none" stroke="midnightblue" d="M832.964,-130.442C824.54,-128.071 815.204,-125.688 806.512,-124 692.349,-101.835 557.489,-89.4248 477.696,-83.4839"/>
<polygon fill="midnightblue" stroke="midnightblue" points="477.518,-79.9615 467.289,-82.7225 477.007,-86.9429 477.518,-79.9615"/>
</g>
<!-- Node20 -->
<g id="node20" class="node"><title>Node20</title>
<g id="a_node20"><a xlink:href="../../dc/d03/MemoryResources_8h.html" target="_top" xlink:title="MemoryResources/MemoryResources.h">
<polygon fill="none" stroke="black" points="1193.01,-68.5 1193.01,-87.5 1386.01,-87.5 1386.01,-68.5 1193.01,-68.5"/>
<text text-anchor="middle" x="1289.51" y="-75.5" font-family="Helvetica,sans-Serif" font-size="10.00">MemoryResources/MemoryResources.h</text>
</a>
</g>
</g>
<!-- Node19&#45;&gt;Node20 -->
<g id="edge26" class="edge"><title>Node19&#45;&gt;Node20</title>
<path fill="none" stroke="midnightblue" d="M905.612,-132.692C980.183,-122.263 1129.75,-101.344 1218.58,-88.9204"/>
<polygon fill="midnightblue" stroke="midnightblue" points="1219.15,-92.3743 1228.57,-87.5229 1218.19,-85.4418 1219.15,-92.3743"/>
</g>
<!-- Node20&#45;&gt;Node11 -->
<g id="edge31" class="edge"><title>Node20&#45;&gt;Node11</title>
<path fill="none" stroke="midnightblue" d="M1193,-72.9553C1062.11,-66.7673 835.45,-53.3683 755.512,-32 753.162,-31.3717 750.771,-30.578 748.41,-29.6854"/>
<polygon fill="midnightblue" stroke="midnightblue" points="749.611,-26.3913 739.044,-25.6287 746.829,-32.8148 749.611,-26.3913"/>
</g>
<!-- Node20&#45;&gt;Node14 -->
<g id="edge32" class="edge"><title>Node20&#45;&gt;Node14</title>
<path fill="none" stroke="midnightblue" d="M1192.71,-73.469C1003.41,-66.2354 597.23,-48.9797 535.512,-32 533.545,-31.4587 531.557,-30.773 529.594,-29.9942"/>
<polygon fill="midnightblue" stroke="midnightblue" points="530.726,-26.6586 520.188,-25.5623 527.742,-32.9909 530.726,-26.6586"/>
</g>
<!-- Node20&#45;&gt;Node15 -->
<g id="edge41" class="edge"><title>Node20&#45;&gt;Node15</title>
<path fill="none" stroke="midnightblue" d="M1192.84,-73.1449C1074.3,-67.6317 867.468,-55.4602 691.512,-32 682.277,-30.7687 672.484,-29.1425 663.07,-27.4157"/>
<polygon fill="midnightblue" stroke="midnightblue" points="663.526,-23.9398 653.049,-25.5163 662.222,-30.8173 663.526,-23.9398"/>
</g>
<!-- Node21 -->
<g id="node21" class="node"><title>Node21</title>
<polygon fill="none" stroke="#bfbfbf" points="2057.51,-1 2057.51,-31 2157.51,-31 2157.51,-1 2057.51,-1"/>
<text text-anchor="start" x="2065.51" y="-19" font-family="Helvetica,sans-Serif" font-size="10.00">boost/container/flat</text>
<text text-anchor="middle" x="2107.51" y="-8" font-family="Helvetica,sans-Serif" font-size="10.00">_map.hpp</text>
</g>
<!-- Node20&#45;&gt;Node21 -->
<g id="edge27" class="edge"><title>Node20&#45;&gt;Node21</title>
<path fill="none" stroke="midnightblue" d="M1386.29,-77.116C1529.17,-75.9874 1804.91,-68.8444 2047.37,-31.9707"/>
<polygon fill="midnightblue" stroke="midnightblue" points="2048.08,-35.4023 2057.43,-30.4201 2047.02,-28.4839 2048.08,-35.4023"/>
</g>
<!-- Node22 -->
<g id="node22" class="node"><title>Node22</title>
<polygon fill="none" stroke="#bfbfbf" points="764.512,-1 764.512,-31 880.512,-31 880.512,-1 764.512,-1"/>
<text text-anchor="start" x="772.512" y="-19" font-family="Helvetica,sans-Serif" font-size="10.00">boost/container/pmr</text>
<text text-anchor="middle" x="822.512" y="-8" font-family="Helvetica,sans-Serif" font-size="10.00">/memory_resource.hpp</text>
</g>
<!-- Node20&#45;&gt;Node22 -->
<g id="edge28" class="edge"><title>Node20&#45;&gt;Node22</title>
<path fill="none" stroke="midnightblue" d="M1192.93,-69.0862C1114.12,-61.9451 999.725,-50.0263 890.732,-32.0923"/>
<polygon fill="midnightblue" stroke="midnightblue" points="890.98,-28.5855 880.541,-30.395 889.83,-35.4904 890.98,-28.5855"/>
</g>
<!-- Node23 -->
<g id="node23" class="node"><title>Node23</title>
<polygon fill="none" stroke="#bfbfbf" points="898.512,-1 898.512,-31 1054.51,-31 1054.51,-1 898.512,-1"/>
<text text-anchor="start" x="906.512" y="-19" font-family="Helvetica,sans-Serif" font-size="10.00">boost/container/pmr</text>
<text text-anchor="middle" x="976.512" y="-8" font-family="Helvetica,sans-Serif" font-size="10.00">/monotonic_buffer_resource.hpp</text>
</g>
<!-- Node20&#45;&gt;Node23 -->
<g id="edge29" class="edge"><title>Node20&#45;&gt;Node23</title>
<path fill="none" stroke="midnightblue" d="M1245,-68.4672C1196.98,-59.2614 1119.41,-44.3921 1059.97,-32.9975"/>
<polygon fill="midnightblue" stroke="midnightblue" points="1060.32,-29.5018 1049.84,-31.0565 1059,-36.3767 1060.32,-29.5018"/>
</g>
<!-- Node24 -->
<g id="node24" class="node"><title>Node24</title>
<polygon fill="none" stroke="#bfbfbf" points="1073.01,-1 1073.01,-31 1206.01,-31 1206.01,-1 1073.01,-1"/>
<text text-anchor="start" x="1081.01" y="-19" font-family="Helvetica,sans-Serif" font-size="10.00">boost/container/pmr</text>
<text text-anchor="middle" x="1139.51" y="-8" font-family="Helvetica,sans-Serif" font-size="10.00">/polymorphic_allocator.hpp</text>
</g>
<!-- Node20&#45;&gt;Node24 -->
<g id="edge30" class="edge"><title>Node20&#45;&gt;Node24</title>
<path fill="none" stroke="midnightblue" d="M1268.02,-68.4035C1246.21,-59.6787 1211.8,-45.9145 1184.07,-34.824"/>
<polygon fill="midnightblue" stroke="midnightblue" points="1185.16,-31.4896 1174.58,-31.0253 1182.56,-37.989 1185.16,-31.4896"/>
</g>
<!-- Node25 -->
<g id="node25" class="node"><title>Node25</title>
<polygon fill="none" stroke="#bfbfbf" points="1224.51,-6.5 1224.51,-25.5 1286.51,-25.5 1286.51,-6.5 1224.51,-6.5"/>
<text text-anchor="middle" x="1255.51" y="-13.5" font-family="Helvetica,sans-Serif" font-size="10.00">type_traits</text>
</g>
<!-- Node20&#45;&gt;Node25 -->
<g id="edge33" class="edge"><title>Node20&#45;&gt;Node25</title>
<path fill="none" stroke="midnightblue" d="M1284.64,-68.4035C1279.64,-59.5816 1271.72,-45.6075 1265.4,-34.4548"/>
<polygon fill="midnightblue" stroke="midnightblue" points="1268.35,-32.5553 1260.37,-25.5806 1262.26,-36.0064 1268.35,-32.5553"/>
</g>
<!-- Node26 -->
<g id="node26" class="node"><title>Node26</title>
<polygon fill="none" stroke="#bfbfbf" points="1304.51,-6.5 1304.51,-25.5 1344.51,-25.5 1344.51,-6.5 1304.51,-6.5"/>
<text text-anchor="middle" x="1324.51" y="-13.5" font-family="Helvetica,sans-Serif" font-size="10.00">utility</text>
</g>
<!-- Node20&#45;&gt;Node26 -->
<g id="edge34" class="edge"><title>Node20&#45;&gt;Node26</title>
<path fill="none" stroke="midnightblue" d="M1294.53,-68.4035C1299.67,-59.5816 1307.82,-45.6075 1314.33,-34.4548"/>
<polygon fill="midnightblue" stroke="midnightblue" points="1317.49,-35.982 1319.51,-25.5806 1311.44,-32.4548 1317.49,-35.982"/>
</g>
<!-- Node20&#45;&gt;Node27 -->
<g id="edge35" class="edge"><title>Node20&#45;&gt;Node27</title>
<path fill="none" stroke="midnightblue" d="M1386.1,-76.8656C1582.36,-75.8043 2021.42,-69.1983 2166.51,-32 2168.86,-31.3987 2171.24,-30.6122 2173.58,-29.7142"/>
<polygon fill="midnightblue" stroke="midnightblue" points="2175.13,-32.8552 2182.84,-25.5835 2172.28,-26.4628 2175.13,-32.8552"/>
</g>
<!-- Node28 -->
<g id="node28" class="node"><title>Node28</title>
<polygon fill="none" stroke="#bfbfbf" points="1363.01,-6.5 1363.01,-25.5 1446.01,-25.5 1446.01,-6.5 1363.01,-6.5"/>
<text text-anchor="middle" x="1404.51" y="-13.5" font-family="Helvetica,sans-Serif" font-size="10.00">unordered_map</text>
</g>
<!-- Node20&#45;&gt;Node28 -->
<g id="edge36" class="edge"><title>Node20&#45;&gt;Node28</title>
<path fill="none" stroke="midnightblue" d="M1305.99,-68.4035C1325.12,-58.4232 1356.89,-41.8487 1379.16,-30.2253"/>
<polygon fill="midnightblue" stroke="midnightblue" points="1380.82,-33.3094 1388.07,-25.5806 1377.58,-27.1033 1380.82,-33.3094"/>
</g>
<!-- Node29 -->
<g id="node29" class="node"><title>Node29</title>
<polygon fill="none" stroke="#bfbfbf" points="1464.01,-6.5 1464.01,-25.5 1561.01,-25.5 1561.01,-6.5 1464.01,-6.5"/>
<text text-anchor="middle" x="1512.51" y="-13.5" font-family="Helvetica,sans-Serif" font-size="10.00">FairMQMessage.h</text>
</g>
<!-- Node20&#45;&gt;Node29 -->
<g id="edge37" class="edge"><title>Node20&#45;&gt;Node29</title>
<path fill="none" stroke="midnightblue" d="M1321.46,-68.4035C1360.79,-57.8217 1427.67,-39.8269 1470.96,-28.1802"/>
<polygon fill="midnightblue" stroke="midnightblue" points="1471.87,-31.5586 1480.62,-25.5806 1470.06,-24.799 1471.87,-31.5586"/>
</g>
<!-- Node30 -->
<g id="node30" class="node"><title>Node30</title>
<polygon fill="none" stroke="#bfbfbf" points="1579.01,-6.5 1579.01,-25.5 1710.01,-25.5 1710.01,-6.5 1579.01,-6.5"/>
<text text-anchor="middle" x="1644.51" y="-13.5" font-family="Helvetica,sans-Serif" font-size="10.00">FairMQTransportFactory.h</text>
</g>
<!-- Node20&#45;&gt;Node30 -->
<g id="edge38" class="edge"><title>Node20&#45;&gt;Node30</title>
<path fill="none" stroke="midnightblue" d="M1346.46,-68.4965C1403.12,-59.8849 1492.47,-45.8898 1569.51,-32 1577.23,-30.6085 1585.38,-29.0606 1593.35,-27.5026"/>
<polygon fill="midnightblue" stroke="midnightblue" points="1594.17,-30.9078 1603.3,-25.5347 1592.81,-24.0407 1594.17,-30.9078"/>
</g>
<!-- Node31 -->
<g id="node31" class="node"><title>Node31</title>
<polygon fill="none" stroke="#bfbfbf" points="1728.01,-6.5 1728.01,-25.5 1865.01,-25.5 1865.01,-6.5 1728.01,-6.5"/>
<text text-anchor="middle" x="1796.51" y="-13.5" font-family="Helvetica,sans-Serif" font-size="10.00">fairmq/MemoryResources.h</text>
</g>
<!-- Node20&#45;&gt;Node31 -->
<g id="edge39" class="edge"><title>Node20&#45;&gt;Node31</title>
<path fill="none" stroke="midnightblue" d="M1386.07,-69.2461C1473.22,-61.6847 1604.8,-48.8658 1718.51,-32 1727.33,-30.6917 1736.67,-29.0873 1745.71,-27.4198"/>
<polygon fill="midnightblue" stroke="midnightblue" points="1746.56,-30.8206 1755.74,-25.5228 1745.26,-23.9426 1746.56,-30.8206"/>
</g>
<!-- Node32 -->
<g id="node32" class="node"><title>Node32</title>
<polygon fill="none" stroke="#bfbfbf" points="1883.51,-6.5 1883.51,-25.5 2039.51,-25.5 2039.51,-6.5 1883.51,-6.5"/>
<text text-anchor="middle" x="1961.51" y="-13.5" font-family="Helvetica,sans-Serif" font-size="10.00">fairmq/MemoryResourceTools.h</text>
</g>
<!-- Node20&#45;&gt;Node32 -->
<g id="edge40" class="edge"><title>Node20&#45;&gt;Node32</title>
<path fill="none" stroke="midnightblue" d="M1386.15,-72.2804C1502.19,-65.9841 1702.57,-53.109 1873.51,-32 1884.12,-30.6901 1895.4,-28.9975 1906.22,-27.2234"/>
<polygon fill="midnightblue" stroke="midnightblue" points="1907.13,-30.6189 1916.41,-25.5072 1905.97,-23.716 1907.13,-30.6189"/>
</g>
</g>
</svg>
        <g id="navigator" transform="translate(0 0)" fill="#404254">
                <rect fill="#f2f5e9" fill-opacity="0.5" stroke="#606060" stroke-width=".5" x="0" y="0" width="60" height="60"/>
                <use id="zoomplus" xlink:href="#zoomPlus" x="17" y="9" onmousedown="handleZoom(evt,'in')"/>
                <use id="zoomminus" xlink:href="#zoomMin" x="42" y="9" onmousedown="handleZoom(evt,'out')"/>
                <use id="reset" xlink:href="#resetDef" x="30" y="36" onmousedown="handleReset()"/>
                <g id="arrowUp" xlink:href="#dirArrow" transform="translate(30 24)" onmousedown="handlePan(0,-1)">
                  <use xlink:href="#rim" fill="#404040">
                        <set attributeName="fill" to="#808080" begin="arrowUp.mouseover" end="arrowUp.mouseout"/>
                  </use>
                  <path fill="none" stroke="white" stroke-width="1.5" d="M0,-3.0v7 M-2.5,-0.5L0,-3.0L2.5,-0.5"/>
                </g>
                <g id="arrowRight" xlink:href="#dirArrow" transform="rotate(90) translate(36 -43)" onmousedown="handlePan(1,0)">
                  <use xlink:href="#rim" fill="#404040">
                        <set attributeName="fill" to="#808080" begin="arrowRight.mouseover" end="arrowRight.mouseout"/>
                  </use>
                  <path fill="none" stroke="white" stroke-width="1.5" d="M0,-3.0v7 M-2.5,-0.5L0,-3.0L2.5,-0.5"/>
                </g>
                <g id="arrowDown" xlink:href="#dirArrow" transform="rotate(180) translate(-30 -48)" onmousedown="handlePan(0,1)">
                  <use xlink:href="#rim" fill="#404040">
                        <set attributeName="fill" to="#808080" begin="arrowDown.mouseover" end="arrowDown.mouseout"/>
                  </use>
                  <path fill="none" stroke="white" stroke-width="1.5" d="M0,-3.0v7 M-2.5,-0.5L0,-3.0L2.5,-0.5"/>
                </g>
                <g id="arrowLeft" xlink:href="#dirArrow" transform="rotate(270) translate(-36 17)" onmousedown="handlePan(-1,0)">
                  <use xlink:href="#rim" fill="#404040">
                        <set attributeName="fill" to="#808080" begin="arrowLeft.mouseover" end="arrowLeft.mouseout"/>
                  </use>
                  <path fill="none" stroke="white" stroke-width="1.5" d="M0,-3.0v7 M-2.5,-0.5L0,-3.0L2.5,-0.5"/>
                </g>
        </g>
        <svg viewBox="0 0 15 15" width="100%" height="30px" preserveAspectRatio="xMaxYMin meet">
         <g id="arrow_out" transform="scale(0.3 0.3)">
          <a xlink:href="InputRoute_8h__incl_org.svg" target="_base">
           <rect id="button" ry="5" rx="5" y="6" x="6" height="38" width="38"
                fill="#f2f5e9" fill-opacity="0.5" stroke="#606060" stroke-width="1.0"/>
           <path id="arrow"
             d="M 11.500037,31.436501 C 11.940474,20.09759 22.043105,11.32322 32.158766,21.979434 L 37.068811,17.246167 C 37.068811,17.246167 37.088388,32 37.088388,32 L 22.160133,31.978069 C 22.160133,31.978069 26.997745,27.140456 26.997745,27.140456 C 18.528582,18.264221 13.291696,25.230495 11.500037,31.436501 z"
             style="fill:#404040;"/>
          </a>
         </g>
        </svg>
</svg>
