<?xml version="1.0" encoding="UTF-8" standalone="no"?>
<!DOCTYPE svg PUBLIC "-//W3C//DTD SVG 1.1//EN"
 "http://www.w3.org/Graphics/SVG/1.1/DTD/svg11.dtd">
<!-- Generated by graphviz version 2.36.0 (20140111.2315)
 -->
<!-- Title: sg_pipeline_desc Pages: 1 -->
<!--zoomable 438 -->
<svg id="main" version="1.1" xmlns="http://www.w3.org/2000/svg" xmlns:xlink="http://www.w3.org/1999/xlink" xml:space="preserve" onload="init(evt)">
<style type="text/css"><![CDATA[
.edge:hover path { stroke: red; }
.edge:hover polygon { stroke: red; fill: red; }
]]></style>
<script type="text/javascript"><![CDATA[
var edges = document.getElementsByTagName('g');
if (edges && edges.length) {
  for (var i=0;i<edges.length;i++) {
    if (edges[i].id.substr(0,4)=='edge') {
      edges[i].setAttribute('class','edge');
    }
  }
}
]]></script>
        <defs>
                <circle id="rim" cx="0" cy="0" r="7"/>
                <circle id="rim2" cx="0" cy="0" r="3.5"/>
                <g id="zoomPlus">
                        <use xlink:href="#rim" fill="#404040">
                                <set attributeName="fill" to="#808080" begin="zoomplus.mouseover" end="zoomplus.mouseout"/>
                        </use>
                        <path d="M-4,0h8M0,-4v8" fill="none" stroke="white" stroke-width="1.5" pointer-events="none"/>
                </g>
                <g id="zoomMin">
                        <use xlink:href="#rim" fill="#404040">
                                <set attributeName="fill" to="#808080" begin="zoomminus.mouseover" end="zoomminus.mouseout"/>
                        </use>
                        <path d="M-4,0h8" fill="none" stroke="white" stroke-width="1.5" pointer-events="none"/>
                </g>
                <g id="dirArrow">
                        <path fill="none" stroke="white" stroke-width="1.5" d="M0,-3.0v7 M-2.5,-0.5L0,-3.0L2.5,-0.5"/>
                </g>
               <g id="resetDef">
                       <use xlink:href="#rim2" fill="#404040">
                               <set attributeName="fill" to="#808080" begin="reset.mouseover" end="reset.mouseout"/>
                       </use>
               </g>
        </defs>

<script type="text/javascript">
var viewWidth = 1949;
var viewHeight = 438;
var sectionId = 'dynsection-0';
</script>
<script xlink:href="../../svgpan.js"/>
<svg id="graph" class="graph">
<g id="viewport">
<title>sg_pipeline_desc</title>
<!-- Node1 -->
<g id="node1" class="node"><title>Node1</title>
<polygon fill="#bfbfbf" stroke="black" points="1502.81,-0.5 1502.81,-57.5 1594.81,-57.5 1594.81,-0.5 1502.81,-0.5"/>
<text text-anchor="middle" x="1548.81" y="-45.5" font-family="Helvetica,sans-Serif" font-size="10.00">sg_pipeline_desc</text>
<polyline fill="none" stroke="black" points="1502.81,-38.5 1594.81,-38.5 "/>
<text text-anchor="middle" x="1548.81" y="-26.5" font-family="Helvetica,sans-Serif" font-size="10.00"> </text>
<polyline fill="none" stroke="black" points="1502.81,-19.5 1594.81,-19.5 "/>
<text text-anchor="middle" x="1548.81" y="-7.5" font-family="Helvetica,sans-Serif" font-size="10.00"> </text>
</g>
<!-- Node2 -->
<g id="node2" class="node"><title>Node2</title>
<g id="a_node2"><a xlink:href="../../d9/dd6/structsg__blend__state.html" target="_top" xlink:title="{sg_blend_state\n||}">
<polygon fill="none" stroke="black" points="364.314,-106.5 364.314,-163.5 447.314,-163.5 447.314,-106.5 364.314,-106.5"/>
<text text-anchor="middle" x="405.814" y="-151.5" font-family="Helvetica,sans-Serif" font-size="10.00">sg_blend_state</text>
<polyline fill="none" stroke="black" points="364.314,-144.5 447.314,-144.5 "/>
<text text-anchor="middle" x="405.814" y="-132.5" font-family="Helvetica,sans-Serif" font-size="10.00"> </text>
<polyline fill="none" stroke="black" points="364.314,-125.5 447.314,-125.5 "/>
<text text-anchor="middle" x="405.814" y="-113.5" font-family="Helvetica,sans-Serif" font-size="10.00"> </text>
</a>
</g>
</g>
<!-- Node2&#45;&gt;Node1 -->
<g id="edge1" class="edge"><title>Node2&#45;&gt;Node1</title>
<path fill="none" stroke="#404040" d="M447.509,-130.206C621.33,-114.39 1288.63,-53.6741 1490.57,-35.2992"/>
<polygon fill="none" stroke="#404040" points="1490.69,-35.289 1496.3,-30.7617 1502.64,-34.2016 1497.02,-38.7288 1490.69,-35.289"/>
<text text-anchor="middle" x="1028.31" y="-79.5" font-family="Helvetica,sans-Serif" font-size="10.00"> +blend</text>
</g>
<!-- Node3 -->
<g id="node3" class="node"><title>Node3</title>
<polygon fill="none" stroke="#bfbfbf" points="247.314,-244.5 247.314,-301.5 318.314,-301.5 318.314,-244.5 247.314,-244.5"/>
<text text-anchor="middle" x="282.814" y="-289.5" font-family="Helvetica,sans-Serif" font-size="10.00">sg_blend_op</text>
<polyline fill="none" stroke="#bfbfbf" points="247.314,-282.5 318.314,-282.5 "/>
<text text-anchor="middle" x="282.814" y="-270.5" font-family="Helvetica,sans-Serif" font-size="10.00"> </text>
<polyline fill="none" stroke="#bfbfbf" points="247.314,-263.5 318.314,-263.5 "/>
<text text-anchor="middle" x="282.814" y="-251.5" font-family="Helvetica,sans-Serif" font-size="10.00"> </text>
</g>
<!-- Node3&#45;&gt;Node2 -->
<g id="edge2" class="edge"><title>Node3&#45;&gt;Node2</title>
<path fill="none" stroke="#404040" d="M281.552,-244.437C282.085,-225.041 285.821,-199.518 299.814,-182 313.045,-165.438 333.413,-154.711 352.772,-147.824"/>
<polygon fill="none" stroke="#404040" points="352.885,-147.788 357.368,-142.14 364.306,-144.106 359.823,-149.754 352.885,-147.788"/>
<text text-anchor="middle" x="324.314" y="-207" font-family="Helvetica,sans-Serif" font-size="10.00"> +op_alpha</text>
<text text-anchor="middle" x="324.314" y="-196" font-family="Helvetica,sans-Serif" font-size="10.00">+op_rgb</text>
</g>
<!-- Node4 -->
<g id="node4" class="node"><title>Node4</title>
<polygon fill="none" stroke="#bfbfbf" points="336.814,-244.5 336.814,-301.5 422.814,-301.5 422.814,-244.5 336.814,-244.5"/>
<text text-anchor="middle" x="379.814" y="-289.5" font-family="Helvetica,sans-Serif" font-size="10.00">sg_blend_factor</text>
<polyline fill="none" stroke="#bfbfbf" points="336.814,-282.5 422.814,-282.5 "/>
<text text-anchor="middle" x="379.814" y="-270.5" font-family="Helvetica,sans-Serif" font-size="10.00"> </text>
<polyline fill="none" stroke="#bfbfbf" points="336.814,-263.5 422.814,-263.5 "/>
<text text-anchor="middle" x="379.814" y="-251.5" font-family="Helvetica,sans-Serif" font-size="10.00"> </text>
</g>
<!-- Node4&#45;&gt;Node2 -->
<g id="edge3" class="edge"><title>Node4&#45;&gt;Node2</title>
<path fill="none" stroke="#404040" d="M363.112,-244.488C354.303,-226.281 346.977,-202.139 355.814,-182 357.146,-178.966 358.787,-176.043 360.655,-173.245"/>
<polygon fill="none" stroke="#404040" points="360.792,-173.072 361.391,-165.886 368.255,-163.675 367.656,-170.861 360.792,-173.072"/>
<text text-anchor="middle" x="395.314" y="-218" font-family="Helvetica,sans-Serif" font-size="10.00"> +src_factor_rgb</text>
<text text-anchor="middle" x="395.314" y="-207" font-family="Helvetica,sans-Serif" font-size="10.00">+dst_factor_rgb</text>
<text text-anchor="middle" x="395.314" y="-196" font-family="Helvetica,sans-Serif" font-size="10.00">+src_factor_alpha</text>
<text text-anchor="middle" x="395.314" y="-185" font-family="Helvetica,sans-Serif" font-size="10.00">+dst_factor_alpha</text>
</g>
<!-- Node5 -->
<g id="node5" class="node"><title>Node5</title>
<g id="a_node5"><a xlink:href="../../d4/dc3/classfloat.html" target="_top" xlink:title="{float\n||}">
<polygon fill="none" stroke="black" points="519.314,-244.5 519.314,-301.5 554.314,-301.5 554.314,-244.5 519.314,-244.5"/>
<text text-anchor="middle" x="536.814" y="-289.5" font-family="Helvetica,sans-Serif" font-size="10.00">float</text>
<polyline fill="none" stroke="black" points="519.314,-282.5 554.314,-282.5 "/>
<text text-anchor="middle" x="536.814" y="-270.5" font-family="Helvetica,sans-Serif" font-size="10.00"> </text>
<polyline fill="none" stroke="black" points="519.314,-263.5 554.314,-263.5 "/>
<text text-anchor="middle" x="536.814" y="-251.5" font-family="Helvetica,sans-Serif" font-size="10.00"> </text>
</a>
</g>
</g>
<!-- Node5&#45;&gt;Node2 -->
<g id="edge4" class="edge"><title>Node5&#45;&gt;Node2</title>
<path fill="none" stroke="#404040" d="M519.219,-265.191C501.83,-257.739 475.356,-244.361 457.814,-226 442.571,-210.045 445.818,-201.127 434.814,-182 433.29,-179.351 431.688,-176.636 430.051,-173.914"/>
<polygon fill="none" stroke="#404040" points="429.942,-173.736 423.393,-170.715 423.663,-163.509 430.211,-166.53 429.942,-173.736"/>
<text text-anchor="middle" x="487.314" y="-201.5" font-family="Helvetica,sans-Serif" font-size="10.00"> +blend_color</text>
</g>
<!-- Node23 -->
<g id="node23" class="node"><title>Node23</title>
<g id="a_node23"><a xlink:href="../../d9/dbf/structsg__rasterizer__state.html" target="_top" xlink:title="{sg_rasterizer_state\n||}">
<polygon fill="none" stroke="black" points="827.814,-106.5 827.814,-163.5 927.814,-163.5 927.814,-106.5 827.814,-106.5"/>
<text text-anchor="middle" x="877.814" y="-151.5" font-family="Helvetica,sans-Serif" font-size="10.00">sg_rasterizer_state</text>
<polyline fill="none" stroke="black" points="827.814,-144.5 927.814,-144.5 "/>
<text text-anchor="middle" x="877.814" y="-132.5" font-family="Helvetica,sans-Serif" font-size="10.00"> </text>
<polyline fill="none" stroke="black" points="827.814,-125.5 927.814,-125.5 "/>
<text text-anchor="middle" x="877.814" y="-113.5" font-family="Helvetica,sans-Serif" font-size="10.00"> </text>
</a>
</g>
</g>
<!-- Node5&#45;&gt;Node23 -->
<g id="edge28" class="edge"><title>Node5&#45;&gt;Node23</title>
<path fill="none" stroke="#404040" d="M554.421,-266.888C574.163,-260.343 606,-247.239 625.814,-226 640.345,-210.424 628.238,-195.378 644.814,-182 670.592,-161.195 755.802,-148.385 815.682,-141.73"/>
<polygon fill="none" stroke="#404040" points="815.739,-141.724 821.277,-137.106 827.67,-140.442 822.132,-145.06 815.739,-141.724"/>
<text text-anchor="middle" x="688.814" y="-218" font-family="Helvetica,sans-Serif" font-size="10.00"> +depth_bias_clamp</text>
<text text-anchor="middle" x="688.814" y="-207" font-family="Helvetica,sans-Serif" font-size="10.00">+depth_bias</text>
<text text-anchor="start" x="644.814" y="-196" font-family="Helvetica,sans-Serif" font-size="10.00">+depth_bias_slope</text>
<text text-anchor="middle" x="688.814" y="-185" font-family="Helvetica,sans-Serif" font-size="10.00">_scale</text>
</g>
<!-- Node6 -->
<g id="node6" class="node"><title>Node6</title>
<polygon fill="none" stroke="#bfbfbf" points="745.814,-244.5 745.814,-301.5 791.814,-301.5 791.814,-244.5 745.814,-244.5"/>
<text text-anchor="middle" x="768.814" y="-289.5" font-family="Helvetica,sans-Serif" font-size="10.00">uint8_t</text>
<polyline fill="none" stroke="#bfbfbf" points="745.814,-282.5 791.814,-282.5 "/>
<text text-anchor="middle" x="768.814" y="-270.5" font-family="Helvetica,sans-Serif" font-size="10.00"> </text>
<polyline fill="none" stroke="#bfbfbf" points="745.814,-263.5 791.814,-263.5 "/>
<text text-anchor="middle" x="768.814" y="-251.5" font-family="Helvetica,sans-Serif" font-size="10.00"> </text>
</g>
<!-- Node6&#45;&gt;Node2 -->
<g id="edge5" class="edge"><title>Node6&#45;&gt;Node2</title>
<path fill="none" stroke="#404040" d="M745.448,-249.344C742.38,-247.249 739.141,-245.393 735.814,-244 694.655,-226.759 571.965,-252.162 535.814,-226 518.558,-213.512 531.987,-196.95 516.814,-182 500.977,-166.395 479.087,-155.811 458.929,-148.771"/>
<polygon fill="none" stroke="#404040" points="458.74,-148.71 451.801,-150.674 447.32,-145.025 454.258,-143.061 458.74,-148.71"/>
<text text-anchor="middle" x="578.814" y="-201.5" font-family="Helvetica,sans-Serif" font-size="10.00"> +color_write_mask</text>
</g>
<!-- Node19 -->
<g id="node19" class="node"><title>Node19</title>
<g id="a_node19"><a xlink:href="../../d5/d6c/structsg__depth__stencil__state.html" target="_top" xlink:title="{sg_depth_stencil_state\n||}">
<polygon fill="none" stroke="black" points="1423.31,-106.5 1423.31,-163.5 1540.31,-163.5 1540.31,-106.5 1423.31,-106.5"/>
<text text-anchor="middle" x="1481.81" y="-151.5" font-family="Helvetica,sans-Serif" font-size="10.00">sg_depth_stencil_state</text>
<polyline fill="none" stroke="black" points="1423.31,-144.5 1540.31,-144.5 "/>
<text text-anchor="middle" x="1481.81" y="-132.5" font-family="Helvetica,sans-Serif" font-size="10.00"> </text>
<polyline fill="none" stroke="black" points="1423.31,-125.5 1540.31,-125.5 "/>
<text text-anchor="middle" x="1481.81" y="-113.5" font-family="Helvetica,sans-Serif" font-size="10.00"> </text>
</a>
</g>
</g>
<!-- Node6&#45;&gt;Node19 -->
<g id="edge24" class="edge"><title>Node6&#45;&gt;Node19</title>
<path fill="none" stroke="#404040" d="M791.856,-251.346C796.233,-248.391 800.969,-245.76 805.814,-244 844.083,-230.097 1138.35,-249.196 1171.81,-226 1189.32,-213.865 1173.5,-194.409 1190.81,-182 1228.62,-154.905 1348.56,-172.909 1411.14,-163.738"/>
<polygon fill="none" stroke="#404040" points="1411.43,-163.683 1416.57,-158.628 1423.21,-161.431 1418.07,-166.486 1411.43,-163.683"/>
<text text-anchor="middle" x="1236.31" y="-212.5" font-family="Helvetica,sans-Serif" font-size="10.00"> +stencil_read_mask</text>
<text text-anchor="middle" x="1236.31" y="-201.5" font-family="Helvetica,sans-Serif" font-size="10.00">+stencil_write_mask</text>
<text text-anchor="middle" x="1236.31" y="-190.5" font-family="Helvetica,sans-Serif" font-size="10.00">+stencil_ref</text>
</g>
<!-- Node7 -->
<g id="node7" class="node"><title>Node7</title>
<polygon fill="none" stroke="#bfbfbf" points="846.314,-372.5 846.314,-429.5 875.314,-429.5 875.314,-372.5 846.314,-372.5"/>
<text text-anchor="middle" x="860.814" y="-417.5" font-family="Helvetica,sans-Serif" font-size="10.00">int</text>
<polyline fill="none" stroke="#bfbfbf" points="846.314,-410.5 875.314,-410.5 "/>
<text text-anchor="middle" x="860.814" y="-398.5" font-family="Helvetica,sans-Serif" font-size="10.00"> </text>
<polyline fill="none" stroke="#bfbfbf" points="846.314,-391.5 875.314,-391.5 "/>
<text text-anchor="middle" x="860.814" y="-379.5" font-family="Helvetica,sans-Serif" font-size="10.00"> </text>
</g>
<!-- Node7&#45;&gt;Node2 -->
<g id="edge6" class="edge"><title>Node7&#45;&gt;Node2</title>
<path fill="none" stroke="#404040" d="M846.267,-399.446C739.324,-395.225 77.2981,-366.571 19.8143,-302 -78.9986,-191.004 223.885,-151.543 351.724,-140.055"/>
<polygon fill="none" stroke="#404040" points="351.937,-140.036 357.568,-135.532 363.892,-138.998 358.26,-143.502 351.937,-140.036"/>
<text text-anchor="middle" x="76.8143" y="-270.5" font-family="Helvetica,sans-Serif" font-size="10.00"> +color_attachment_count</text>
</g>
<!-- Node14 -->
<g id="node14" class="node"><title>Node14</title>
<g id="a_node14"><a xlink:href="../../d5/d83/structsg__vertex__attr__desc.html" target="_top" xlink:title="{sg_vertex_attr_desc\n||}">
<polygon fill="none" stroke="black" points="1309.31,-244.5 1309.31,-301.5 1414.31,-301.5 1414.31,-244.5 1309.31,-244.5"/>
<text text-anchor="middle" x="1361.81" y="-289.5" font-family="Helvetica,sans-Serif" font-size="10.00">sg_vertex_attr_desc</text>
<polyline fill="none" stroke="black" points="1309.31,-282.5 1414.31,-282.5 "/>
<text text-anchor="middle" x="1361.81" y="-270.5" font-family="Helvetica,sans-Serif" font-size="10.00"> </text>
<polyline fill="none" stroke="black" points="1309.31,-263.5 1414.31,-263.5 "/>
<text text-anchor="middle" x="1361.81" y="-251.5" font-family="Helvetica,sans-Serif" font-size="10.00"> </text>
</a>
</g>
</g>
<!-- Node7&#45;&gt;Node14 -->
<g id="edge16" class="edge"><title>Node7&#45;&gt;Node14</title>
<path fill="none" stroke="#404040" d="M875.529,-396.026C902.098,-388.704 959.701,-372.163 1006.81,-354 1040.59,-340.981 1046.06,-330.093 1080.81,-320 1138.1,-303.366 1154.93,-311.548 1213.81,-302 1241.22,-297.556 1271.36,-291.981 1297.24,-286.978"/>
<polygon fill="none" stroke="#404040" points="1297.41,-286.945 1302.54,-281.872 1309.19,-284.651 1304.07,-289.724 1297.41,-286.945"/>
<text text-anchor="middle" x="1112.31" y="-345.5" font-family="Helvetica,sans-Serif" font-size="10.00"> +buffer_index</text>
<text text-anchor="middle" x="1112.31" y="-334.5" font-family="Helvetica,sans-Serif" font-size="10.00">+offset</text>
<text text-anchor="middle" x="1112.31" y="-323.5" font-family="Helvetica,sans-Serif" font-size="10.00">+sem_index</text>
</g>
<!-- Node17 -->
<g id="node17" class="node"><title>Node17</title>
<g id="a_node17"><a xlink:href="../../dc/da3/structsg__buffer__layout__desc.html" target="_top" xlink:title="{sg_buffer_layout_desc\n||}">
<polygon fill="none" stroke="black" points="1090.31,-244.5 1090.31,-301.5 1205.31,-301.5 1205.31,-244.5 1090.31,-244.5"/>
<text text-anchor="middle" x="1147.81" y="-289.5" font-family="Helvetica,sans-Serif" font-size="10.00">sg_buffer_layout_desc</text>
<polyline fill="none" stroke="black" points="1090.31,-282.5 1205.31,-282.5 "/>
<text text-anchor="middle" x="1147.81" y="-270.5" font-family="Helvetica,sans-Serif" font-size="10.00"> </text>
<polyline fill="none" stroke="black" points="1090.31,-263.5 1205.31,-263.5 "/>
<text text-anchor="middle" x="1147.81" y="-251.5" font-family="Helvetica,sans-Serif" font-size="10.00"> </text>
</a>
</g>
</g>
<!-- Node7&#45;&gt;Node17 -->
<g id="edge18" class="edge"><title>Node7&#45;&gt;Node17</title>
<path fill="none" stroke="#404040" d="M875.496,-383.763C893.427,-365.068 925.619,-335.012 959.814,-320 1006.29,-299.597 1025.8,-314.322 1078.3,-302.201"/>
<polygon fill="none" stroke="#404040" points="1078.4,-302.174 1083.21,-296.806 1090.02,-299.185 1085.21,-304.553 1078.4,-302.174"/>
<text text-anchor="middle" x="983.314" y="-340" font-family="Helvetica,sans-Serif" font-size="10.00"> +stride</text>
<text text-anchor="middle" x="983.314" y="-329" font-family="Helvetica,sans-Serif" font-size="10.00">+step_rate</text>
</g>
<!-- Node7&#45;&gt;Node23 -->
<g id="edge30" class="edge"><title>Node7&#45;&gt;Node23</title>
<path fill="none" stroke="#404040" d="M850.779,-372.38C836.99,-329.876 816.596,-246.584 841.814,-182 842.872,-179.29 844.145,-176.61 845.572,-173.987"/>
<polygon fill="none" stroke="#404040" points="845.73,-173.737 845.556,-166.528 852.143,-163.595 852.317,-170.804 845.73,-173.737"/>
<text text-anchor="middle" x="868.814" y="-270.5" font-family="Helvetica,sans-Serif" font-size="10.00"> +sample_count</text>
</g>
<!-- Node8 -->
<g id="node8" class="node"><title>Node8</title>
<polygon fill="none" stroke="#bfbfbf" points="916.314,-244.5 916.314,-301.5 951.314,-301.5 951.314,-244.5 916.314,-244.5"/>
<text text-anchor="middle" x="933.814" y="-289.5" font-family="Helvetica,sans-Serif" font-size="10.00">bool</text>
<polyline fill="none" stroke="#bfbfbf" points="916.314,-282.5 951.314,-282.5 "/>
<text text-anchor="middle" x="933.814" y="-270.5" font-family="Helvetica,sans-Serif" font-size="10.00"> </text>
<polyline fill="none" stroke="#bfbfbf" points="916.314,-263.5 951.314,-263.5 "/>
<text text-anchor="middle" x="933.814" y="-251.5" font-family="Helvetica,sans-Serif" font-size="10.00"> </text>
</g>
<!-- Node8&#45;&gt;Node2 -->
<g id="edge7" class="edge"><title>Node8&#45;&gt;Node2</title>
<path fill="none" stroke="#404040" d="M916.02,-254.605C911.596,-250.809 906.712,-247.027 901.814,-244 883.841,-232.892 875.124,-238.115 857.814,-226 836.162,-210.846 841.352,-194.018 817.814,-182 756.483,-150.685 556.63,-140.483 459.618,-137.328"/>
<polygon fill="none" stroke="#404040" points="459.468,-137.323 453.348,-141.136 447.474,-136.952 453.595,-133.14 459.468,-137.323"/>
<text text-anchor="middle" x="879.314" y="-201.5" font-family="Helvetica,sans-Serif" font-size="10.00"> +enabled</text>
</g>
<!-- Node8&#45;&gt;Node19 -->
<g id="edge26" class="edge"><title>Node8&#45;&gt;Node19</title>
<path fill="none" stroke="#404040" d="M951.351,-256.577C957.951,-251.661 965.806,-246.78 973.814,-244 1039.42,-221.221 1228.91,-265.807 1285.81,-226 1303.27,-213.79 1288.03,-195.117 1304.81,-182 1340.7,-153.948 1363.17,-174.016 1411.38,-164.034"/>
<polygon fill="none" stroke="#404040" points="1411.49,-164.008 1416.35,-158.681 1423.13,-161.118 1418.27,-166.445 1411.49,-164.008"/>
<text text-anchor="middle" x="1354.31" y="-207" font-family="Helvetica,sans-Serif" font-size="10.00"> +depth_write_enabled</text>
<text text-anchor="middle" x="1354.31" y="-196" font-family="Helvetica,sans-Serif" font-size="10.00">+stencil_enabled</text>
</g>
<!-- Node8&#45;&gt;Node23 -->
<g id="edge31" class="edge"><title>Node8&#45;&gt;Node23</title>
<path fill="none" stroke="#404040" d="M926.576,-244.242C921.445,-226.147 913.876,-202.224 904.814,-182 903.707,-179.528 902.5,-177.021 901.231,-174.518"/>
<polygon fill="none" stroke="#404040" points="901.09,-174.257 894.718,-170.881 895.383,-163.701 901.755,-167.077 901.09,-174.257"/>
<text text-anchor="start" x="921.814" y="-207" font-family="Helvetica,sans-Serif" font-size="10.00"> +alpha_to_coverage</text>
<text text-anchor="middle" x="967.314" y="-196" font-family="Helvetica,sans-Serif" font-size="10.00">_enabled</text>
</g>
<!-- Node9 -->
<g id="node9" class="node"><title>Node9</title>
<polygon fill="none" stroke="#bfbfbf" points="142.814,-244.5 142.814,-301.5 228.814,-301.5 228.814,-244.5 142.814,-244.5"/>
<text text-anchor="middle" x="185.814" y="-289.5" font-family="Helvetica,sans-Serif" font-size="10.00">sg_pixel_format</text>
<polyline fill="none" stroke="#bfbfbf" points="142.814,-282.5 228.814,-282.5 "/>
<text text-anchor="middle" x="185.814" y="-270.5" font-family="Helvetica,sans-Serif" font-size="10.00"> </text>
<polyline fill="none" stroke="#bfbfbf" points="142.814,-263.5 228.814,-263.5 "/>
<text text-anchor="middle" x="185.814" y="-251.5" font-family="Helvetica,sans-Serif" font-size="10.00"> </text>
</g>
<!-- Node9&#45;&gt;Node2 -->
<g id="edge8" class="edge"><title>Node9&#45;&gt;Node2</title>
<path fill="none" stroke="#404040" d="M187.037,-244.235C189.415,-224.22 195.852,-198.014 212.814,-182 232.714,-163.213 302.266,-150.026 352.166,-142.725"/>
<polygon fill="none" stroke="#404040" points="352.188,-142.722 357.568,-137.92 364.07,-141.039 358.69,-145.841 352.188,-142.722"/>
<text text-anchor="middle" x="246.314" y="-207" font-family="Helvetica,sans-Serif" font-size="10.00"> +depth_format</text>
<text text-anchor="middle" x="246.314" y="-196" font-family="Helvetica,sans-Serif" font-size="10.00">+color_format</text>
</g>
<!-- Node10 -->
<g id="node10" class="node"><title>Node10</title>
<polygon fill="none" stroke="#bfbfbf" points="1697.31,-244.5 1697.31,-301.5 1748.31,-301.5 1748.31,-244.5 1697.31,-244.5"/>
<text text-anchor="middle" x="1722.81" y="-289.5" font-family="Helvetica,sans-Serif" font-size="10.00">uint32_t</text>
<polyline fill="none" stroke="#bfbfbf" points="1697.31,-282.5 1748.31,-282.5 "/>
<text text-anchor="middle" x="1722.81" y="-270.5" font-family="Helvetica,sans-Serif" font-size="10.00"> </text>
<polyline fill="none" stroke="#bfbfbf" points="1697.31,-263.5 1748.31,-263.5 "/>
<text text-anchor="middle" x="1722.81" y="-251.5" font-family="Helvetica,sans-Serif" font-size="10.00"> </text>
</g>
<!-- Node10&#45;&gt;Node1 -->
<g id="edge9" class="edge"><title>Node10&#45;&gt;Node1</title>
<path fill="none" stroke="#404040" d="M1697.2,-251.055C1660.86,-221.248 1598.32,-169.564 1594.81,-164 1573.25,-129.81 1586.04,-113.839 1571.81,-76 1570.93,-73.6495 1569.96,-71.2602 1568.94,-68.869"/>
<polygon fill="none" stroke="#404040" points="1568.87,-68.7147 1562.74,-64.9258 1563.87,-57.8049 1570.01,-61.5939 1568.87,-68.7147"/>
<text text-anchor="middle" x="1627.81" y="-138" font-family="Helvetica,sans-Serif" font-size="10.00"> +_end_canary</text>
<text text-anchor="middle" x="1627.81" y="-127" font-family="Helvetica,sans-Serif" font-size="10.00">+_start_canary</text>
</g>
<!-- Node26 -->
<g id="node26" class="node"><title>Node26</title>
<g id="a_node26"><a xlink:href="../../da/d75/structsg__shader.html" target="_top" xlink:title="{sg_shader\n||}">
<polygon fill="none" stroke="black" points="1669.81,-106.5 1669.81,-163.5 1731.81,-163.5 1731.81,-106.5 1669.81,-106.5"/>
<text text-anchor="middle" x="1700.81" y="-151.5" font-family="Helvetica,sans-Serif" font-size="10.00">sg_shader</text>
<polyline fill="none" stroke="black" points="1669.81,-144.5 1731.81,-144.5 "/>
<text text-anchor="middle" x="1700.81" y="-132.5" font-family="Helvetica,sans-Serif" font-size="10.00"> </text>
<polyline fill="none" stroke="black" points="1669.81,-125.5 1731.81,-125.5 "/>
<text text-anchor="middle" x="1700.81" y="-113.5" font-family="Helvetica,sans-Serif" font-size="10.00"> </text>
</a>
</g>
</g>
<!-- Node10&#45;&gt;Node26 -->
<g id="edge34" class="edge"><title>Node10&#45;&gt;Node26</title>
<path fill="none" stroke="#404040" d="M1718.36,-244.478C1715.18,-224.792 1710.84,-197.99 1707.28,-175.953"/>
<polygon fill="none" stroke="#404040" points="1707.25,-175.793 1702.34,-170.509 1705.34,-163.947 1710.24,-169.232 1707.25,-175.793"/>
<text text-anchor="middle" x="1724.31" y="-201.5" font-family="Helvetica,sans-Serif" font-size="10.00"> +id</text>
</g>
<!-- Node11 -->
<g id="node11" class="node"><title>Node11</title>
<polygon fill="none" stroke="#bfbfbf" points="1749.31,-106.5 1749.31,-163.5 1842.31,-163.5 1842.31,-106.5 1749.31,-106.5"/>
<text text-anchor="middle" x="1795.81" y="-151.5" font-family="Helvetica,sans-Serif" font-size="10.00">sg_primitive_type</text>
<polyline fill="none" stroke="#bfbfbf" points="1749.31,-144.5 1842.31,-144.5 "/>
<text text-anchor="middle" x="1795.81" y="-132.5" font-family="Helvetica,sans-Serif" font-size="10.00"> </text>
<polyline fill="none" stroke="#bfbfbf" points="1749.31,-125.5 1842.31,-125.5 "/>
<text text-anchor="middle" x="1795.81" y="-113.5" font-family="Helvetica,sans-Serif" font-size="10.00"> </text>
</g>
<!-- Node11&#45;&gt;Node1 -->
<g id="edge10" class="edge"><title>Node11&#45;&gt;Node1</title>
<path fill="none" stroke="#404040" d="M1749.14,-110.475C1745.99,-108.946 1742.86,-107.442 1739.81,-106 1710.33,-92.0346 1703.01,-88.3472 1672.81,-76 1651.29,-67.2019 1627.4,-58.1676 1606.38,-50.4602"/>
<polygon fill="none" stroke="#404040" points="1606.3,-50.4324 1599.29,-52.137 1595.03,-46.3248 1602.03,-44.6202 1606.3,-50.4324"/>
<text text-anchor="middle" x="1736.81" y="-79.5" font-family="Helvetica,sans-Serif" font-size="10.00"> +primitive_type</text>
</g>
<!-- Node12 -->
<g id="node12" class="node"><title>Node12</title>
<polygon fill="none" stroke="#bfbfbf" points="1860.81,-106.5 1860.81,-163.5 1940.81,-163.5 1940.81,-106.5 1860.81,-106.5"/>
<text text-anchor="middle" x="1900.81" y="-151.5" font-family="Helvetica,sans-Serif" font-size="10.00">sg_index_type</text>
<polyline fill="none" stroke="#bfbfbf" points="1860.81,-144.5 1940.81,-144.5 "/>
<text text-anchor="middle" x="1900.81" y="-132.5" font-family="Helvetica,sans-Serif" font-size="10.00"> </text>
<polyline fill="none" stroke="#bfbfbf" points="1860.81,-125.5 1940.81,-125.5 "/>
<text text-anchor="middle" x="1900.81" y="-113.5" font-family="Helvetica,sans-Serif" font-size="10.00"> </text>
</g>
<!-- Node12&#45;&gt;Node1 -->
<g id="edge11" class="edge"><title>Node12&#45;&gt;Node1</title>
<path fill="none" stroke="#404040" d="M1860.66,-110.925C1857.36,-109.206 1854.05,-107.543 1850.81,-106 1818.42,-90.53 1810.21,-86.2736 1775.81,-76 1719.4,-59.1521 1653.26,-46.5289 1606.98,-38.8091"/>
<polygon fill="none" stroke="#404040" points="1606.91,-38.7977 1600.34,-41.775 1595.07,-36.8574 1601.63,-33.8802 1606.91,-38.7977"/>
<text text-anchor="middle" x="1839.31" y="-79.5" font-family="Helvetica,sans-Serif" font-size="10.00"> +index_type</text>
</g>
<!-- Node13 -->
<g id="node13" class="node"><title>Node13</title>
<g id="a_node13"><a xlink:href="../../d1/d64/structsg__layout__desc.html" target="_top" xlink:title="{sg_layout_desc\n||}">
<polygon fill="none" stroke="black" points="1320.31,-106.5 1320.31,-163.5 1405.31,-163.5 1405.31,-106.5 1320.31,-106.5"/>
<text text-anchor="middle" x="1362.81" y="-151.5" font-family="Helvetica,sans-Serif" font-size="10.00">sg_layout_desc</text>
<polyline fill="none" stroke="black" points="1320.31,-144.5 1405.31,-144.5 "/>
<text text-anchor="middle" x="1362.81" y="-132.5" font-family="Helvetica,sans-Serif" font-size="10.00"> </text>
<polyline fill="none" stroke="black" points="1320.31,-125.5 1405.31,-125.5 "/>
<text text-anchor="middle" x="1362.81" y="-113.5" font-family="Helvetica,sans-Serif" font-size="10.00"> </text>
</a>
</g>
</g>
<!-- Node13&#45;&gt;Node1 -->
<g id="edge12" class="edge"><title>Node13&#45;&gt;Node1</title>
<path fill="none" stroke="#404040" d="M1405.44,-107.357C1421.96,-97.2698 1441.12,-85.8506 1458.81,-76 1469.39,-70.1105 1480.81,-64.054 1491.84,-58.3485"/>
<polygon fill="none" stroke="#404040" points="1492.02,-58.2558 1495.53,-51.9583 1502.7,-52.7791 1499.18,-59.0766 1492.02,-58.2558"/>
<text text-anchor="middle" x="1476.81" y="-79.5" font-family="Helvetica,sans-Serif" font-size="10.00"> +layout</text>
</g>
<!-- Node14&#45;&gt;Node13 -->
<g id="edge13" class="edge"><title>Node14&#45;&gt;Node13</title>
<path fill="none" stroke="#404040" d="M1395.96,-244.457C1400.79,-238.892 1405.05,-232.678 1407.81,-226 1415.3,-207.933 1415.2,-200.108 1407.81,-182 1406.63,-179.103 1405.17,-176.29 1403.51,-173.577"/>
<polygon fill="none" stroke="#404040" points="1403.32,-173.32 1396.55,-170.844 1396.23,-163.64 1403,-166.116 1403.32,-173.32"/>
<text text-anchor="middle" x="1428.31" y="-201.5" font-family="Helvetica,sans-Serif" font-size="10.00"> +attrs</text>
</g>
<!-- Node15 -->
<g id="node15" class="node"><title>Node15</title>
<polygon fill="none" stroke="#bfbfbf" points="1277.31,-372.5 1277.31,-429.5 1312.31,-429.5 1312.31,-372.5 1277.31,-372.5"/>
<text text-anchor="middle" x="1294.81" y="-417.5" font-family="Helvetica,sans-Serif" font-size="10.00">char</text>
<polyline fill="none" stroke="#bfbfbf" points="1277.31,-410.5 1312.31,-410.5 "/>
<text text-anchor="middle" x="1294.81" y="-398.5" font-family="Helvetica,sans-Serif" font-size="10.00"> </text>
<polyline fill="none" stroke="#bfbfbf" points="1277.31,-391.5 1312.31,-391.5 "/>
<text text-anchor="middle" x="1294.81" y="-379.5" font-family="Helvetica,sans-Serif" font-size="10.00"> </text>
</g>
<!-- Node15&#45;&gt;Node14 -->
<g id="edge14" class="edge"><title>Node15&#45;&gt;Node14</title>
<path fill="none" stroke="#404040" d="M1295.12,-372.159C1296.38,-356.023 1299.86,-335.833 1308.81,-320 1310.64,-316.764 1312.79,-313.645 1315.15,-310.663"/>
<polygon fill="none" stroke="#404040" points="1315.27,-310.533 1316.32,-303.398 1323.31,-301.621 1322.26,-308.755 1315.27,-310.533"/>
<text text-anchor="middle" x="1336.31" y="-340" font-family="Helvetica,sans-Serif" font-size="10.00"> +name</text>
<text text-anchor="middle" x="1336.31" y="-329" font-family="Helvetica,sans-Serif" font-size="10.00">+sem_name</text>
</g>
<!-- Node16 -->
<g id="node16" class="node"><title>Node16</title>
<polygon fill="none" stroke="#bfbfbf" points="1330.81,-372.5 1330.81,-429.5 1422.81,-429.5 1422.81,-372.5 1330.81,-372.5"/>
<text text-anchor="middle" x="1376.81" y="-417.5" font-family="Helvetica,sans-Serif" font-size="10.00">sg_vertex_format</text>
<polyline fill="none" stroke="#bfbfbf" points="1330.81,-410.5 1422.81,-410.5 "/>
<text text-anchor="middle" x="1376.81" y="-398.5" font-family="Helvetica,sans-Serif" font-size="10.00"> </text>
<polyline fill="none" stroke="#bfbfbf" points="1330.81,-391.5 1422.81,-391.5 "/>
<text text-anchor="middle" x="1376.81" y="-379.5" font-family="Helvetica,sans-Serif" font-size="10.00"> </text>
</g>
<!-- Node16&#45;&gt;Node14 -->
<g id="edge15" class="edge"><title>Node16&#45;&gt;Node14</title>
<path fill="none" stroke="#404040" d="M1373.52,-372.349C1371.47,-355.116 1368.8,-332.665 1366.52,-313.565"/>
<polygon fill="none" stroke="#404040" points="1366.52,-313.503 1361.84,-308.018 1365.1,-301.587 1369.78,-307.072 1366.52,-313.503"/>
<text text-anchor="middle" x="1390.31" y="-334.5" font-family="Helvetica,sans-Serif" font-size="10.00"> +format</text>
</g>
<!-- Node17&#45;&gt;Node13 -->
<g id="edge17" class="edge"><title>Node17&#45;&gt;Node13</title>
<path fill="none" stroke="#404040" d="M1132.44,-244.305C1123.92,-224.844 1117.62,-199.299 1131.81,-182 1153.65,-155.383 1246.72,-143.879 1307.85,-139.122"/>
<polygon fill="none" stroke="#404040" points="1308.03,-139.109 1313.72,-134.682 1320,-138.233 1314.31,-142.66 1308.03,-139.109"/>
<text text-anchor="middle" x="1151.81" y="-201.5" font-family="Helvetica,sans-Serif" font-size="10.00"> +buffers</text>
</g>
<!-- Node18 -->
<g id="node18" class="node"><title>Node18</title>
<polygon fill="none" stroke="#bfbfbf" points="1106.31,-372.5 1106.31,-429.5 1189.31,-429.5 1189.31,-372.5 1106.31,-372.5"/>
<text text-anchor="middle" x="1147.81" y="-417.5" font-family="Helvetica,sans-Serif" font-size="10.00">sg_vertex_step</text>
<polyline fill="none" stroke="#bfbfbf" points="1106.31,-410.5 1189.31,-410.5 "/>
<text text-anchor="middle" x="1147.81" y="-398.5" font-family="Helvetica,sans-Serif" font-size="10.00"> </text>
<polyline fill="none" stroke="#bfbfbf" points="1106.31,-391.5 1189.31,-391.5 "/>
<text text-anchor="middle" x="1147.81" y="-379.5" font-family="Helvetica,sans-Serif" font-size="10.00"> </text>
</g>
<!-- Node18&#45;&gt;Node17 -->
<g id="edge19" class="edge"><title>Node18&#45;&gt;Node17</title>
<path fill="none" stroke="#404040" d="M1147.81,-372.349C1147.81,-355.198 1147.81,-332.879 1147.81,-313.838"/>
<polygon fill="none" stroke="#404040" points="1147.81,-313.587 1143.81,-307.587 1147.81,-301.587 1151.81,-307.587 1147.81,-313.587"/>
<text text-anchor="middle" x="1173.81" y="-334.5" font-family="Helvetica,sans-Serif" font-size="10.00"> +step_func</text>
</g>
<!-- Node19&#45;&gt;Node1 -->
<g id="edge20" class="edge"><title>Node19&#45;&gt;Node1</title>
<path fill="none" stroke="#404040" d="M1490.29,-106.382C1493.99,-96.3967 1498.85,-85.3 1504.81,-76 1506.81,-72.8911 1509.03,-69.8099 1511.39,-66.8022"/>
<polygon fill="none" stroke="#404040" points="1511.51,-66.6573 1512.34,-59.4938 1519.27,-57.5019 1518.44,-64.6655 1511.51,-66.6573"/>
<text text-anchor="middle" x="1538.31" y="-79.5" font-family="Helvetica,sans-Serif" font-size="10.00"> +depth_stencil</text>
</g>
<!-- Node20 -->
<g id="node20" class="node"><title>Node20</title>
<g id="a_node20"><a xlink:href="../../d6/d2c/structsg__stencil__state.html" target="_top" xlink:title="{sg_stencil_state\n||}">
<polygon fill="none" stroke="black" points="1591.81,-244.5 1591.81,-301.5 1679.81,-301.5 1679.81,-244.5 1591.81,-244.5"/>
<text text-anchor="middle" x="1635.81" y="-289.5" font-family="Helvetica,sans-Serif" font-size="10.00">sg_stencil_state</text>
<polyline fill="none" stroke="black" points="1591.81,-282.5 1679.81,-282.5 "/>
<text text-anchor="middle" x="1635.81" y="-270.5" font-family="Helvetica,sans-Serif" font-size="10.00"> </text>
<polyline fill="none" stroke="black" points="1591.81,-263.5 1679.81,-263.5 "/>
<text text-anchor="middle" x="1635.81" y="-251.5" font-family="Helvetica,sans-Serif" font-size="10.00"> </text>
</a>
</g>
</g>
<!-- Node20&#45;&gt;Node19 -->
<g id="edge21" class="edge"><title>Node20&#45;&gt;Node19</title>
<path fill="none" stroke="#404040" d="M1591.55,-249.535C1586.96,-247.539 1582.33,-245.652 1577.81,-244 1547.65,-232.963 1530.86,-248.377 1507.81,-226 1494.32,-212.9 1487.71,-193.273 1484.52,-175.688"/>
<polygon fill="none" stroke="#404040" points="1484.5,-175.533 1479.68,-170.166 1482.79,-163.656 1487.6,-169.023 1484.5,-175.533"/>
<text text-anchor="middle" x="1539.81" y="-207" font-family="Helvetica,sans-Serif" font-size="10.00"> +stencil_back</text>
<text text-anchor="middle" x="1539.81" y="-196" font-family="Helvetica,sans-Serif" font-size="10.00">+stencil_front</text>
</g>
<!-- Node21 -->
<g id="node21" class="node"><title>Node21</title>
<polygon fill="none" stroke="#bfbfbf" points="1469.81,-372.5 1469.81,-429.5 1563.81,-429.5 1563.81,-372.5 1469.81,-372.5"/>
<text text-anchor="middle" x="1516.81" y="-417.5" font-family="Helvetica,sans-Serif" font-size="10.00">sg_compare_func</text>
<polyline fill="none" stroke="#bfbfbf" points="1469.81,-410.5 1563.81,-410.5 "/>
<text text-anchor="middle" x="1516.81" y="-398.5" font-family="Helvetica,sans-Serif" font-size="10.00"> </text>
<polyline fill="none" stroke="#bfbfbf" points="1469.81,-391.5 1563.81,-391.5 "/>
<text text-anchor="middle" x="1516.81" y="-379.5" font-family="Helvetica,sans-Serif" font-size="10.00"> </text>
</g>
<!-- Node21&#45;&gt;Node19 -->
<g id="edge25" class="edge"><title>Node21&#45;&gt;Node19</title>
<path fill="none" stroke="#404040" d="M1504.48,-372.343C1496.57,-353.058 1487.02,-326.494 1482.81,-302 1475.49,-259.308 1476.42,-209.527 1478.44,-175.696"/>
<polygon fill="none" stroke="#404040" points="1478.45,-175.532 1474.86,-169.278 1479.25,-163.559 1482.84,-169.812 1478.45,-175.532"/>
<text text-anchor="middle" x="1532.81" y="-270.5" font-family="Helvetica,sans-Serif" font-size="10.00"> +depth_compare_func</text>
</g>
<!-- Node21&#45;&gt;Node20 -->
<g id="edge22" class="edge"><title>Node21&#45;&gt;Node20</title>
<path fill="none" stroke="#404040" d="M1527.79,-372.154C1535.3,-355.623 1546.48,-335.026 1560.81,-320 1566.9,-313.617 1574.06,-307.772 1581.5,-302.549"/>
<polygon fill="none" stroke="#404040" points="1581.71,-302.411 1584.52,-295.772 1591.73,-295.818 1588.92,-302.457 1581.71,-302.411"/>
<text text-anchor="middle" x="1596.31" y="-334.5" font-family="Helvetica,sans-Serif" font-size="10.00"> +compare_func</text>
</g>
<!-- Node22 -->
<g id="node22" class="node"><title>Node22</title>
<polygon fill="none" stroke="#bfbfbf" points="1597.31,-372.5 1597.31,-429.5 1674.31,-429.5 1674.31,-372.5 1597.31,-372.5"/>
<text text-anchor="middle" x="1635.81" y="-417.5" font-family="Helvetica,sans-Serif" font-size="10.00">sg_stencil_op</text>
<polyline fill="none" stroke="#bfbfbf" points="1597.31,-410.5 1674.31,-410.5 "/>
<text text-anchor="middle" x="1635.81" y="-398.5" font-family="Helvetica,sans-Serif" font-size="10.00"> </text>
<polyline fill="none" stroke="#bfbfbf" points="1597.31,-391.5 1674.31,-391.5 "/>
<text text-anchor="middle" x="1635.81" y="-379.5" font-family="Helvetica,sans-Serif" font-size="10.00"> </text>
</g>
<!-- Node22&#45;&gt;Node20 -->
<g id="edge23" class="edge"><title>Node22&#45;&gt;Node20</title>
<path fill="none" stroke="#404040" d="M1635.81,-372.349C1635.81,-355.198 1635.81,-332.879 1635.81,-313.838"/>
<polygon fill="none" stroke="#404040" points="1635.81,-313.587 1631.81,-307.587 1635.81,-301.587 1639.81,-307.587 1635.81,-313.587"/>
<text text-anchor="middle" x="1669.31" y="-345.5" font-family="Helvetica,sans-Serif" font-size="10.00"> +depth_fail_op</text>
<text text-anchor="middle" x="1669.31" y="-334.5" font-family="Helvetica,sans-Serif" font-size="10.00">+pass_op</text>
<text text-anchor="middle" x="1669.31" y="-323.5" font-family="Helvetica,sans-Serif" font-size="10.00">+fail_op</text>
</g>
<!-- Node23&#45;&gt;Node1 -->
<g id="edge27" class="edge"><title>Node23&#45;&gt;Node1</title>
<path fill="none" stroke="#404040" d="M927.974,-126.226C1049.85,-107.336 1361.05,-59.1025 1490.72,-39.0041"/>
<polygon fill="none" stroke="#404040" points="1490.83,-38.9869 1496.15,-34.1151 1502.69,-37.1489 1497.37,-42.0207 1490.83,-38.9869"/>
<text text-anchor="middle" x="1258.81" y="-79.5" font-family="Helvetica,sans-Serif" font-size="10.00"> +rasterizer</text>
</g>
<!-- Node24 -->
<g id="node24" class="node"><title>Node24</title>
<polygon fill="none" stroke="#bfbfbf" points="983.314,-244.5 983.314,-301.5 1072.31,-301.5 1072.31,-244.5 983.314,-244.5"/>
<text text-anchor="middle" x="1027.81" y="-289.5" font-family="Helvetica,sans-Serif" font-size="10.00">sg_face_winding</text>
<polyline fill="none" stroke="#bfbfbf" points="983.314,-282.5 1072.31,-282.5 "/>
<text text-anchor="middle" x="1027.81" y="-270.5" font-family="Helvetica,sans-Serif" font-size="10.00"> </text>
<polyline fill="none" stroke="#bfbfbf" points="983.314,-263.5 1072.31,-263.5 "/>
<text text-anchor="middle" x="1027.81" y="-251.5" font-family="Helvetica,sans-Serif" font-size="10.00"> </text>
</g>
<!-- Node24&#45;&gt;Node23 -->
<g id="edge29" class="edge"><title>Node24&#45;&gt;Node23</title>
<path fill="none" stroke="#404040" d="M1031.67,-244.226C1032.79,-224.727 1030.88,-199.169 1016.81,-182 998.08,-159.135 967.683,-147.551 940.085,-141.717"/>
<polygon fill="none" stroke="#404040" points="939.863,-141.676 933.234,-144.514 928.064,-139.487 934.693,-136.649 939.863,-141.676"/>
<text text-anchor="middle" x="1065.31" y="-201.5" font-family="Helvetica,sans-Serif" font-size="10.00"> +face_winding</text>
</g>
<!-- Node25 -->
<g id="node25" class="node"><title>Node25</title>
<polygon fill="none" stroke="#bfbfbf" points="650.314,-244.5 650.314,-301.5 727.314,-301.5 727.314,-244.5 650.314,-244.5"/>
<text text-anchor="middle" x="688.814" y="-289.5" font-family="Helvetica,sans-Serif" font-size="10.00">sg_cull_mode</text>
<polyline fill="none" stroke="#bfbfbf" points="650.314,-282.5 727.314,-282.5 "/>
<text text-anchor="middle" x="688.814" y="-270.5" font-family="Helvetica,sans-Serif" font-size="10.00"> </text>
<polyline fill="none" stroke="#bfbfbf" points="650.314,-263.5 727.314,-263.5 "/>
<text text-anchor="middle" x="688.814" y="-251.5" font-family="Helvetica,sans-Serif" font-size="10.00"> </text>
</g>
<!-- Node25&#45;&gt;Node23 -->
<g id="edge32" class="edge"><title>Node25&#45;&gt;Node23</title>
<path fill="none" stroke="#404040" d="M720.577,-244.418C726.34,-238.645 732.032,-232.368 736.814,-226 750.066,-208.356 743.377,-196.722 759.814,-182 775.696,-167.775 796.477,-157.726 816.166,-150.731"/>
<polygon fill="none" stroke="#404040" points="816.194,-150.722 820.636,-145.042 827.588,-146.957 823.146,-152.638 816.194,-150.722"/>
<text text-anchor="middle" x="786.814" y="-201.5" font-family="Helvetica,sans-Serif" font-size="10.00"> +cull_mode</text>
</g>
<!-- Node26&#45;&gt;Node1 -->
<g id="edge33" class="edge"><title>Node26&#45;&gt;Node1</title>
<path fill="none" stroke="#404040" d="M1669.69,-112.703C1649.41,-98.8297 1622.5,-80.4136 1599.21,-64.4818"/>
<polygon fill="none" stroke="#404040" points="1599.05,-64.3712 1591.84,-64.2843 1589.15,-57.5949 1596.36,-57.6818 1599.05,-64.3712"/>
<text text-anchor="middle" x="1649.31" y="-79.5" font-family="Helvetica,sans-Serif" font-size="10.00"> +shader</text>
</g>
</g>
</svg>
        <g id="navigator" transform="translate(0 0)" fill="#404254">
                <rect fill="#f2f5e9" fill-opacity="0.5" stroke="#606060" stroke-width=".5" x="0" y="0" width="60" height="60"/>
                <use id="zoomplus" xlink:href="#zoomPlus" x="17" y="9" onmousedown="handleZoom(evt,'in')"/>
                <use id="zoomminus" xlink:href="#zoomMin" x="42" y="9" onmousedown="handleZoom(evt,'out')"/>
                <use id="reset" xlink:href="#resetDef" x="30" y="36" onmousedown="handleReset()"/>
                <g id="arrowUp" xlink:href="#dirArrow" transform="translate(30 24)" onmousedown="handlePan(0,-1)">
                  <use xlink:href="#rim" fill="#404040">
                        <set attributeName="fill" to="#808080" begin="arrowUp.mouseover" end="arrowUp.mouseout"/>
                  </use>
                  <path fill="none" stroke="white" stroke-width="1.5" d="M0,-3.0v7 M-2.5,-0.5L0,-3.0L2.5,-0.5"/>
                </g>
                <g id="arrowRight" xlink:href="#dirArrow" transform="rotate(90) translate(36 -43)" onmousedown="handlePan(1,0)">
                  <use xlink:href="#rim" fill="#404040">
                        <set attributeName="fill" to="#808080" begin="arrowRight.mouseover" end="arrowRight.mouseout"/>
                  </use>
                  <path fill="none" stroke="white" stroke-width="1.5" d="M0,-3.0v7 M-2.5,-0.5L0,-3.0L2.5,-0.5"/>
                </g>
                <g id="arrowDown" xlink:href="#dirArrow" transform="rotate(180) translate(-30 -48)" onmousedown="handlePan(0,1)">
                  <use xlink:href="#rim" fill="#404040">
                        <set attributeName="fill" to="#808080" begin="arrowDown.mouseover" end="arrowDown.mouseout"/>
                  </use>
                  <path fill="none" stroke="white" stroke-width="1.5" d="M0,-3.0v7 M-2.5,-0.5L0,-3.0L2.5,-0.5"/>
                </g>
                <g id="arrowLeft" xlink:href="#dirArrow" transform="rotate(270) translate(-36 17)" onmousedown="handlePan(-1,0)">
                  <use xlink:href="#rim" fill="#404040">
                        <set attributeName="fill" to="#808080" begin="arrowLeft.mouseover" end="arrowLeft.mouseout"/>
                  </use>
                  <path fill="none" stroke="white" stroke-width="1.5" d="M0,-3.0v7 M-2.5,-0.5L0,-3.0L2.5,-0.5"/>
                </g>
        </g>
        <svg viewBox="0 0 15 15" width="100%" height="30px" preserveAspectRatio="xMaxYMin meet">
         <g id="arrow_out" transform="scale(0.3 0.3)">
          <a xlink:href="structsg__pipeline__desc__coll__graph_org.svg" target="_base">
           <rect id="button" ry="5" rx="5" y="6" x="6" height="38" width="38"
                fill="#f2f5e9" fill-opacity="0.5" stroke="#606060" stroke-width="1.0"/>
           <path id="arrow"
             d="M 11.500037,31.436501 C 11.940474,20.09759 22.043105,11.32322 32.158766,21.979434 L 37.068811,17.246167 C 37.068811,17.246167 37.088388,32 37.088388,32 L 22.160133,31.978069 C 22.160133,31.978069 26.997745,27.140456 26.997745,27.140456 C 18.528582,18.264221 13.291696,25.230495 11.500037,31.436501 z"
             style="fill:#404040;"/>
          </a>
         </g>
        </svg>
</svg>
