<?xml version="1.0" encoding="UTF-8" standalone="no"?>
<!DOCTYPE svg PUBLIC "-//W3C//DTD SVG 1.1//EN"
 "http://www.w3.org/Graphics/SVG/1.1/DTD/svg11.dtd">
<!-- Generated by graphviz version 2.36.0 (20140111.2315)
 -->
<!-- Title: /home/travis/build/AliceO2Group/AliceO2/Detectors/MUON/MID/Clustering/include/MIDClustering/PreClusters.h Pages: 1 -->
<svg width="734pt" height="242pt"
 viewBox="0.00 0.00 734.00 242.00" xmlns="http://www.w3.org/2000/svg" xmlns:xlink="http://www.w3.org/1999/xlink">
<g id="graph0" class="graph" transform="scale(1 1) rotate(0) translate(4 238)">
<title>/home/travis/build/AliceO2Group/AliceO2/Detectors/MUON/MID/Clustering/include/MIDClustering/PreClusters.h</title>
<!-- Node1 -->
<g id="node1" class="node"><title>Node1</title>
<polygon fill="#bfbfbf" stroke="black" points="296.5,-181 296.5,-233 475.5,-233 475.5,-181 296.5,-181"/>
<text text-anchor="start" x="304.5" y="-221" font-family="Helvetica,sans-Serif" font-size="10.00">/home/travis/build</text>
<text text-anchor="start" x="304.5" y="-210" font-family="Helvetica,sans-Serif" font-size="10.00">/AliceO2Group/AliceO2</text>
<text text-anchor="start" x="304.5" y="-199" font-family="Helvetica,sans-Serif" font-size="10.00">/Detectors/MUON/MID/Clustering</text>
<text text-anchor="middle" x="386" y="-188" font-family="Helvetica,sans-Serif" font-size="10.00">/include/MIDClustering/PreClusters.h</text>
</g>
<!-- Node2 -->
<g id="node2" class="node"><title>Node2</title>
<g id="a_node2"><a xlink:href="../../d5/d53/Clusterizer_8h.html" target="_top" xlink:title="Cluster reconstruction algorithm for MID. ">
<polygon fill="none" stroke="black" points="121.5,-91 121.5,-143 296.5,-143 296.5,-91 121.5,-91"/>
<text text-anchor="start" x="129.5" y="-131" font-family="Helvetica,sans-Serif" font-size="10.00">/home/travis/build</text>
<text text-anchor="start" x="129.5" y="-120" font-family="Helvetica,sans-Serif" font-size="10.00">/AliceO2Group/AliceO2</text>
<text text-anchor="start" x="129.5" y="-109" font-family="Helvetica,sans-Serif" font-size="10.00">/Detectors/MUON/MID/Clustering</text>
<text text-anchor="middle" x="209" y="-98" font-family="Helvetica,sans-Serif" font-size="10.00">/include/MIDClustering/Clusterizer.h</text>
</a>
</g>
</g>
<!-- Node1&#45;&gt;Node2 -->
<g id="edge1" class="edge"><title>Node1&#45;&gt;Node2</title>
<path fill="none" stroke="midnightblue" d="M326.16,-176.249C304.475,-165.468 280.216,-153.407 259.422,-143.069"/>
<polygon fill="midnightblue" stroke="midnightblue" points="324.766,-179.465 335.279,-180.783 327.883,-173.197 324.766,-179.465"/>
</g>
<!-- Node4 -->
<g id="node4" class="node"><title>Node4</title>
<g id="a_node4"><a xlink:href="../../d2/d12/bench__Clusterizer_8cxx.html" target="_top" xlink:title="Benchmark clustering device for MID. ">
<polygon fill="none" stroke="black" points="182.5,-1 182.5,-53 347.5,-53 347.5,-1 182.5,-1"/>
<text text-anchor="start" x="190.5" y="-41" font-family="Helvetica,sans-Serif" font-size="10.00">/home/travis/build</text>
<text text-anchor="start" x="190.5" y="-30" font-family="Helvetica,sans-Serif" font-size="10.00">/AliceO2Group/AliceO2</text>
<text text-anchor="start" x="190.5" y="-19" font-family="Helvetica,sans-Serif" font-size="10.00">/Detectors/MUON/MID/Clustering</text>
<text text-anchor="middle" x="265" y="-8" font-family="Helvetica,sans-Serif" font-size="10.00">/test/bench_Clusterizer.cxx</text>
</a>
</g>
</g>
<!-- Node1&#45;&gt;Node4 -->
<g id="edge10" class="edge"><title>Node1&#45;&gt;Node4</title>
<path fill="none" stroke="midnightblue" d="M363.224,-172.494C339.675,-137.853 303.439,-84.5463 282.188,-53.2853"/>
<polygon fill="midnightblue" stroke="midnightblue" points="360.404,-174.572 368.92,-180.874 366.193,-170.637 360.404,-174.572"/>
</g>
<!-- Node6 -->
<g id="node6" class="node"><title>Node6</title>
<g id="a_node6"><a xlink:href="../../d7/d1a/PreClusterizer_8h.html" target="_top" xlink:title="Pre&#45;Cluster reconstruction algorithm for MID. ">
<polygon fill="none" stroke="black" points="353,-91 353,-143 543,-143 543,-91 353,-91"/>
<text text-anchor="start" x="361" y="-131" font-family="Helvetica,sans-Serif" font-size="10.00">/home/travis/build</text>
<text text-anchor="start" x="361" y="-120" font-family="Helvetica,sans-Serif" font-size="10.00">/AliceO2Group/AliceO2</text>
<text text-anchor="start" x="361" y="-109" font-family="Helvetica,sans-Serif" font-size="10.00">/Detectors/MUON/MID/Clustering</text>
<text text-anchor="middle" x="448" y="-98" font-family="Helvetica,sans-Serif" font-size="10.00">/include/MIDClustering/PreClusterizer.h</text>
</a>
</g>
</g>
<!-- Node1&#45;&gt;Node6 -->
<g id="edge5" class="edge"><title>Node1&#45;&gt;Node6</title>
<path fill="none" stroke="midnightblue" d="M409.772,-172.259C416.602,-162.564 423.929,-152.166 430.321,-143.092"/>
<polygon fill="midnightblue" stroke="midnightblue" points="406.831,-170.356 403.933,-180.547 412.554,-174.388 406.831,-170.356"/>
</g>
<!-- Node8 -->
<g id="node8" class="node"><title>Node8</title>
<g id="a_node8"><a xlink:href="../../d6/d6b/PreClusters_8cxx.html" target="_top" xlink:title="Implementation of the pre&#45;clusters for MID. ">
<polygon fill="none" stroke="black" points="561.5,-91 561.5,-143 726.5,-143 726.5,-91 561.5,-91"/>
<text text-anchor="start" x="569.5" y="-131" font-family="Helvetica,sans-Serif" font-size="10.00">/home/travis/build</text>
<text text-anchor="start" x="569.5" y="-120" font-family="Helvetica,sans-Serif" font-size="10.00">/AliceO2Group/AliceO2</text>
<text text-anchor="start" x="569.5" y="-109" font-family="Helvetica,sans-Serif" font-size="10.00">/Detectors/MUON/MID/Clustering</text>
<text text-anchor="middle" x="644" y="-98" font-family="Helvetica,sans-Serif" font-size="10.00">/src/PreClusters.cxx</text>
</a>
</g>
</g>
<!-- Node1&#45;&gt;Node8 -->
<g id="edge9" class="edge"><title>Node1&#45;&gt;Node8</title>
<path fill="none" stroke="midnightblue" d="M469.091,-177.659C501.66,-166.55 538.718,-153.91 570.315,-143.133"/>
<polygon fill="midnightblue" stroke="midnightblue" points="467.922,-174.36 459.587,-180.901 470.182,-180.985 467.922,-174.36"/>
</g>
<!-- Node3 -->
<g id="node3" class="node"><title>Node3</title>
<g id="a_node3"><a xlink:href="../../d9/dd5/Clusterizer_8cxx.html" target="_top" xlink:title="Implementation of the cluster reconstruction algorithm for MID. ">
<polygon fill="none" stroke="black" points="-0.5,-1 -0.5,-53 164.5,-53 164.5,-1 -0.5,-1"/>
<text text-anchor="start" x="7.5" y="-41" font-family="Helvetica,sans-Serif" font-size="10.00">/home/travis/build</text>
<text text-anchor="start" x="7.5" y="-30" font-family="Helvetica,sans-Serif" font-size="10.00">/AliceO2Group/AliceO2</text>
<text text-anchor="start" x="7.5" y="-19" font-family="Helvetica,sans-Serif" font-size="10.00">/Detectors/MUON/MID/Clustering</text>
<text text-anchor="middle" x="82" y="-8" font-family="Helvetica,sans-Serif" font-size="10.00">/src/Clusterizer.cxx</text>
</a>
</g>
</g>
<!-- Node2&#45;&gt;Node3 -->
<g id="edge2" class="edge"><title>Node2&#45;&gt;Node3</title>
<path fill="none" stroke="midnightblue" d="M164.008,-84.8242C149.06,-74.4671 132.614,-63.0712 118.398,-53.221"/>
<polygon fill="midnightblue" stroke="midnightblue" points="162.394,-87.9641 172.607,-90.7827 166.381,-82.2104 162.394,-87.9641"/>
</g>
<!-- Node2&#45;&gt;Node4 -->
<g id="edge3" class="edge"><title>Node2&#45;&gt;Node4</title>
<path fill="none" stroke="midnightblue" d="M230.658,-81.9652C236.774,-72.3545 243.316,-62.0742 249.032,-53.0921"/>
<polygon fill="midnightblue" stroke="midnightblue" points="227.614,-80.231 225.198,-90.5468 233.519,-83.9892 227.614,-80.231"/>
</g>
<!-- Node5 -->
<g id="node5" class="node"><title>Node5</title>
<g id="a_node5"><a xlink:href="../../d6/dee/testClusterizer_8cxx.html" target="_top" xlink:title="Test clustering device for MID. ">
<polygon fill="none" stroke="black" points="365.5,-1 365.5,-53 530.5,-53 530.5,-1 365.5,-1"/>
<text text-anchor="start" x="373.5" y="-41" font-family="Helvetica,sans-Serif" font-size="10.00">/home/travis/build</text>
<text text-anchor="start" x="373.5" y="-30" font-family="Helvetica,sans-Serif" font-size="10.00">/AliceO2Group/AliceO2</text>
<text text-anchor="start" x="373.5" y="-19" font-family="Helvetica,sans-Serif" font-size="10.00">/Detectors/MUON/MID/Clustering</text>
<text text-anchor="middle" x="448" y="-8" font-family="Helvetica,sans-Serif" font-size="10.00">/test/testClusterizer.cxx</text>
</a>
</g>
</g>
<!-- Node2&#45;&gt;Node5 -->
<g id="edge4" class="edge"><title>Node2&#45;&gt;Node5</title>
<path fill="none" stroke="midnightblue" d="M286.75,-87.3724C316.731,-76.3332 350.723,-63.8175 379.741,-53.1328"/>
<polygon fill="midnightblue" stroke="midnightblue" points="285.343,-84.1608 277.168,-90.9005 287.761,-90.7296 285.343,-84.1608"/>
</g>
<!-- Node6&#45;&gt;Node4 -->
<g id="edge7" class="edge"><title>Node6&#45;&gt;Node4</title>
<path fill="none" stroke="midnightblue" d="M386.432,-86.3935C363.935,-75.5755 338.726,-63.453 317.132,-53.0687"/>
<polygon fill="midnightblue" stroke="midnightblue" points="385.031,-89.6032 395.56,-90.7827 388.064,-83.2947 385.031,-89.6032"/>
</g>
<!-- Node6&#45;&gt;Node5 -->
<g id="edge8" class="edge"><title>Node6&#45;&gt;Node5</title>
<path fill="none" stroke="midnightblue" d="M448,-80.4892C448,-71.3088 448,-61.616 448,-53.0921"/>
<polygon fill="midnightblue" stroke="midnightblue" points="444.5,-80.5467 448,-90.5468 451.5,-80.5468 444.5,-80.5467"/>
</g>
<!-- Node7 -->
<g id="node7" class="node"><title>Node7</title>
<g id="a_node7"><a xlink:href="../../db/d2e/PreClusterizer_8cxx.html" target="_top" xlink:title="Implementation of the pre&#45;cluster reconstruction algorithm for MID. ">
<polygon fill="none" stroke="black" points="548.5,-1 548.5,-53 713.5,-53 713.5,-1 548.5,-1"/>
<text text-anchor="start" x="556.5" y="-41" font-family="Helvetica,sans-Serif" font-size="10.00">/home/travis/build</text>
<text text-anchor="start" x="556.5" y="-30" font-family="Helvetica,sans-Serif" font-size="10.00">/AliceO2Group/AliceO2</text>
<text text-anchor="start" x="556.5" y="-19" font-family="Helvetica,sans-Serif" font-size="10.00">/Detectors/MUON/MID/Clustering</text>
<text text-anchor="middle" x="631" y="-8" font-family="Helvetica,sans-Serif" font-size="10.00">/src/PreClusterizer.cxx</text>
</a>
</g>
</g>
<!-- Node6&#45;&gt;Node7 -->
<g id="edge6" class="edge"><title>Node6&#45;&gt;Node7</title>
<path fill="none" stroke="midnightblue" d="M509.568,-86.3935C532.065,-75.5755 557.274,-63.453 578.868,-53.0687"/>
<polygon fill="midnightblue" stroke="midnightblue" points="507.936,-83.2947 500.44,-90.7827 510.969,-89.6032 507.936,-83.2947"/>
</g>
</g>
</svg>
