<?xml version="1.0" encoding="UTF-8" standalone="no"?>
<!DOCTYPE svg PUBLIC "-//W3C//DTD SVG 1.1//EN"
 "http://www.w3.org/Graphics/SVG/1.1/DTD/svg11.dtd">
<!-- Generated by graphviz version 2.36.0 (20140111.2315)
 -->
<!-- Title: /home/travis/build/AliceO2Group/AliceO2/Common/Constants/include/CommonConstants/PhysicsConstants.h Pages: 1 -->
<svg width="2305pt" height="622pt"
 viewBox="0.00 0.00 2305.00 622.00" xmlns="http://www.w3.org/2000/svg" xmlns:xlink="http://www.w3.org/1999/xlink">
<g id="graph0" class="graph" transform="scale(1 1) rotate(0) translate(4 618)">
<title>/home/travis/build/AliceO2Group/AliceO2/Common/Constants/include/CommonConstants/PhysicsConstants.h</title>
<!-- Node1 -->
<g id="node1" class="node"><title>Node1</title>
<polygon fill="#bfbfbf" stroke="black" points="1102,-561 1102,-613 1298,-613 1298,-561 1102,-561"/>
<text text-anchor="start" x="1110" y="-601" font-family="Helvetica,sans-Serif" font-size="10.00">/home/travis/build</text>
<text text-anchor="start" x="1110" y="-590" font-family="Helvetica,sans-Serif" font-size="10.00">/AliceO2Group/AliceO2</text>
<text text-anchor="start" x="1110" y="-579" font-family="Helvetica,sans-Serif" font-size="10.00">/Common/Constants/include</text>
<text text-anchor="middle" x="1200" y="-568" font-family="Helvetica,sans-Serif" font-size="10.00">/CommonConstants/PhysicsConstants.h</text>
</g>
<!-- Node2 -->
<g id="node2" class="node"><title>Node2</title>
<g id="a_node2"><a xlink:href="../../d9/df6/GRPObject_8cxx.html" target="_top" xlink:title="Implementation of General Run Parameters object. ">
<polygon fill="none" stroke="black" points="0,-471 0,-523 130,-523 130,-471 0,-471"/>
<text text-anchor="start" x="8" y="-511" font-family="Helvetica,sans-Serif" font-size="10.00">/home/travis/build</text>
<text text-anchor="start" x="8" y="-500" font-family="Helvetica,sans-Serif" font-size="10.00">/AliceO2Group/AliceO2</text>
<text text-anchor="start" x="8" y="-489" font-family="Helvetica,sans-Serif" font-size="10.00">/DataFormats/Parameters</text>
<text text-anchor="middle" x="65" y="-478" font-family="Helvetica,sans-Serif" font-size="10.00">/src/GRPObject.cxx</text>
</a>
</g>
</g>
<!-- Node1&#45;&gt;Node2 -->
<g id="edge1" class="edge"><title>Node1&#45;&gt;Node2</title>
<path fill="none" stroke="midnightblue" d="M1091.81,-583.202C860.259,-576.635 323.205,-558.148 144,-524 139.461,-523.135 134.823,-522.08 130.18,-520.896"/>
<polygon fill="midnightblue" stroke="midnightblue" points="1091.83,-586.704 1101.93,-583.487 1092.03,-579.707 1091.83,-586.704"/>
</g>
<!-- Node3 -->
<g id="node3" class="node"><title>Node3</title>
<g id="a_node3"><a xlink:href="../../d3/d17/PID_8h.html" target="_top" xlink:title="particle ids, masses, names class definition ">
<polygon fill="none" stroke="black" points="1302.5,-471 1302.5,-523 1507.5,-523 1507.5,-471 1302.5,-471"/>
<text text-anchor="start" x="1310.5" y="-511" font-family="Helvetica,sans-Serif" font-size="10.00">/home/travis/build</text>
<text text-anchor="start" x="1310.5" y="-500" font-family="Helvetica,sans-Serif" font-size="10.00">/AliceO2Group/AliceO2</text>
<text text-anchor="start" x="1310.5" y="-489" font-family="Helvetica,sans-Serif" font-size="10.00">/DataFormats/Reconstruction</text>
<text text-anchor="middle" x="1405" y="-478" font-family="Helvetica,sans-Serif" font-size="10.00">/include/ReconstructionDataFormats/PID.h</text>
</a>
</g>
</g>
<!-- Node1&#45;&gt;Node3 -->
<g id="edge2" class="edge"><title>Node1&#45;&gt;Node3</title>
<path fill="none" stroke="midnightblue" d="M1267.69,-556.942C1293.16,-546.008 1321.88,-533.679 1346.45,-523.133"/>
<polygon fill="midnightblue" stroke="midnightblue" points="1266.28,-553.74 1258.47,-560.901 1269.04,-560.172 1266.28,-553.74"/>
</g>
<!-- Node8 -->
<g id="node8" class="node"><title>Node8</title>
<g id="a_node8"><a xlink:href="../../db/d6a/MatchTOF_8cxx.html" target="_top" xlink:title="/home/travis/build\l/AliceO2Group/AliceO2\l/Detectors/GlobalTracking\l/src/MatchTOF.cxx">
<polygon fill="none" stroke="black" points="130.5,-1 130.5,-53 261.5,-53 261.5,-1 130.5,-1"/>
<text text-anchor="start" x="138.5" y="-41" font-family="Helvetica,sans-Serif" font-size="10.00">/home/travis/build</text>
<text text-anchor="start" x="138.5" y="-30" font-family="Helvetica,sans-Serif" font-size="10.00">/AliceO2Group/AliceO2</text>
<text text-anchor="start" x="138.5" y="-19" font-family="Helvetica,sans-Serif" font-size="10.00">/Detectors/GlobalTracking</text>
<text text-anchor="middle" x="196" y="-8" font-family="Helvetica,sans-Serif" font-size="10.00">/src/MatchTOF.cxx</text>
</a>
</g>
</g>
<!-- Node1&#45;&gt;Node8 -->
<g id="edge34" class="edge"><title>Node1&#45;&gt;Node8</title>
<path fill="none" stroke="midnightblue" d="M1091.89,-578.273C825.308,-557.775 158,-497.07 158,-403 158,-403 158,-403 158,-206 158,-150.544 175.859,-87.4676 187.091,-53.2824"/>
<polygon fill="midnightblue" stroke="midnightblue" points="1091.73,-581.771 1101.97,-579.043 1092.27,-574.791 1091.73,-581.771"/>
</g>
<!-- Node11 -->
<g id="node11" class="node"><title>Node11</title>
<g id="a_node11"><a xlink:href="../../dc/d59/MatchTPCITS_8cxx.html" target="_top" xlink:title="/home/travis/build\l/AliceO2Group/AliceO2\l/Detectors/GlobalTracking\l/src/MatchTPCITS.cxx">
<polygon fill="none" stroke="black" points="2166.5,-91 2166.5,-143 2297.5,-143 2297.5,-91 2166.5,-91"/>
<text text-anchor="start" x="2174.5" y="-131" font-family="Helvetica,sans-Serif" font-size="10.00">/home/travis/build</text>
<text text-anchor="start" x="2174.5" y="-120" font-family="Helvetica,sans-Serif" font-size="10.00">/AliceO2Group/AliceO2</text>
<text text-anchor="start" x="2174.5" y="-109" font-family="Helvetica,sans-Serif" font-size="10.00">/Detectors/GlobalTracking</text>
<text text-anchor="middle" x="2232" y="-98" font-family="Helvetica,sans-Serif" font-size="10.00">/src/MatchTPCITS.cxx</text>
</a>
</g>
</g>
<!-- Node1&#45;&gt;Node11 -->
<g id="edge35" class="edge"><title>Node1&#45;&gt;Node11</title>
<path fill="none" stroke="midnightblue" d="M1308.39,-576.927C1562.44,-554.207 2175,-490.368 2175,-403 2175,-403 2175,-403 2175,-301 2175,-242.434 2201.94,-177.9 2218.78,-143.286"/>
<polygon fill="midnightblue" stroke="midnightblue" points="1308.05,-573.443 1298.4,-577.815 1308.67,-580.415 1308.05,-573.443"/>
</g>
<!-- Node13 -->
<g id="node13" class="node"><title>Node13</title>
<g id="a_node13"><a xlink:href="../../db/de1/TrackLTIntegral_8cxx.html" target="_top" xlink:title="/home/travis/build\l/AliceO2Group/AliceO2\l/DataFormats/Reconstruction\l/src/TrackLTIntegral.cxx">
<polygon fill="none" stroke="black" points="1190,-276 1190,-328 1336,-328 1336,-276 1190,-276"/>
<text text-anchor="start" x="1198" y="-316" font-family="Helvetica,sans-Serif" font-size="10.00">/home/travis/build</text>
<text text-anchor="start" x="1198" y="-305" font-family="Helvetica,sans-Serif" font-size="10.00">/AliceO2Group/AliceO2</text>
<text text-anchor="start" x="1198" y="-294" font-family="Helvetica,sans-Serif" font-size="10.00">/DataFormats/Reconstruction</text>
<text text-anchor="middle" x="1263" y="-283" font-family="Helvetica,sans-Serif" font-size="10.00">/src/TrackLTIntegral.cxx</text>
</a>
</g>
</g>
<!-- Node1&#45;&gt;Node13 -->
<g id="edge31" class="edge"><title>Node1&#45;&gt;Node13</title>
<path fill="none" stroke="midnightblue" d="M1197.91,-550.769C1196.49,-507.084 1197.83,-430.938 1219,-370 1224.21,-355.015 1233.5,-340.089 1242.21,-328.142"/>
<polygon fill="midnightblue" stroke="midnightblue" points="1194.42,-551.032 1198.31,-560.886 1201.42,-550.756 1194.42,-551.032"/>
</g>
<!-- Node14 -->
<g id="node14" class="node"><title>Node14</title>
<g id="a_node14"><a xlink:href="../../d7/d6a/testLTOFIntegration_8cxx.html" target="_top" xlink:title="/home/travis/build\l/AliceO2Group/AliceO2\l/DataFormats/Reconstruction\l/test/testLTOFIntegration.cxx">
<polygon fill="none" stroke="black" points="1586,-276 1586,-328 1732,-328 1732,-276 1586,-276"/>
<text text-anchor="start" x="1594" y="-316" font-family="Helvetica,sans-Serif" font-size="10.00">/home/travis/build</text>
<text text-anchor="start" x="1594" y="-305" font-family="Helvetica,sans-Serif" font-size="10.00">/AliceO2Group/AliceO2</text>
<text text-anchor="start" x="1594" y="-294" font-family="Helvetica,sans-Serif" font-size="10.00">/DataFormats/Reconstruction</text>
<text text-anchor="middle" x="1659" y="-283" font-family="Helvetica,sans-Serif" font-size="10.00">/test/testLTOFIntegration.cxx</text>
</a>
</g>
</g>
<!-- Node1&#45;&gt;Node14 -->
<g id="edge32" class="edge"><title>Node1&#45;&gt;Node14</title>
<path fill="none" stroke="midnightblue" d="M1308.09,-579.335C1371.42,-571.96 1451.4,-556.474 1516,-524 1569.13,-497.294 1582.49,-483.788 1615,-434 1636.71,-400.755 1648.74,-355.744 1654.53,-328.075"/>
<polygon fill="midnightblue" stroke="midnightblue" points="1307.62,-575.865 1298.07,-580.45 1308.4,-582.822 1307.62,-575.865"/>
</g>
<!-- Node15 -->
<g id="node15" class="node"><title>Node15</title>
<g id="a_node15"><a xlink:href="../../d2/df9/Propagator_8h.html" target="_top" xlink:title="/home/travis/build\l/AliceO2Group/AliceO2\l/Detectors/Base/include\l/DetectorsBase/Propagator.h">
<polygon fill="none" stroke="black" points="1090.5,-181 1090.5,-233 1233.5,-233 1233.5,-181 1090.5,-181"/>
<text text-anchor="start" x="1098.5" y="-221" font-family="Helvetica,sans-Serif" font-size="10.00">/home/travis/build</text>
<text text-anchor="start" x="1098.5" y="-210" font-family="Helvetica,sans-Serif" font-size="10.00">/AliceO2Group/AliceO2</text>
<text text-anchor="start" x="1098.5" y="-199" font-family="Helvetica,sans-Serif" font-size="10.00">/Detectors/Base/include</text>
<text text-anchor="middle" x="1162" y="-188" font-family="Helvetica,sans-Serif" font-size="10.00">/DetectorsBase/Propagator.h</text>
</a>
</g>
</g>
<!-- Node1&#45;&gt;Node15 -->
<g id="edge33" class="edge"><title>Node1&#45;&gt;Node15</title>
<path fill="none" stroke="midnightblue" d="M1196.48,-550.948C1188.89,-475.476 1171.16,-299.116 1164.55,-233.333"/>
<polygon fill="midnightblue" stroke="midnightblue" points="1192.99,-551.306 1197.48,-560.906 1199.96,-550.606 1192.99,-551.306"/>
</g>
<!-- Node4 -->
<g id="node4" class="node"><title>Node4</title>
<g id="a_node4"><a xlink:href="../../d6/db1/TrackLTIntegral_8h.html" target="_top" xlink:title="Track Length and TOF integral. ">
<polygon fill="none" stroke="black" points="1392,-370.5 1392,-433.5 1568,-433.5 1568,-370.5 1392,-370.5"/>
<text text-anchor="start" x="1400" y="-421.5" font-family="Helvetica,sans-Serif" font-size="10.00">/home/travis/build</text>
<text text-anchor="start" x="1400" y="-410.5" font-family="Helvetica,sans-Serif" font-size="10.00">/AliceO2Group/AliceO2</text>
<text text-anchor="start" x="1400" y="-399.5" font-family="Helvetica,sans-Serif" font-size="10.00">/DataFormats/Reconstruction</text>
<text text-anchor="start" x="1400" y="-388.5" font-family="Helvetica,sans-Serif" font-size="10.00">/include/ReconstructionDataFormats</text>
<text text-anchor="middle" x="1480" y="-377.5" font-family="Helvetica,sans-Serif" font-size="10.00">/TrackLTIntegral.h</text>
</a>
</g>
</g>
<!-- Node3&#45;&gt;Node4 -->
<g id="edge3" class="edge"><title>Node3&#45;&gt;Node4</title>
<path fill="none" stroke="midnightblue" d="M1431.98,-462.551C1439.57,-453.129 1447.8,-442.929 1455.26,-433.677"/>
<polygon fill="midnightblue" stroke="midnightblue" points="1429.05,-460.606 1425.49,-470.587 1434.5,-465 1429.05,-460.606"/>
</g>
<!-- Node3&#45;&gt;Node14 -->
<g id="edge30" class="edge"><title>Node3&#45;&gt;Node14</title>
<path fill="none" stroke="midnightblue" d="M1516.85,-467.505C1537.85,-458.931 1558.63,-447.957 1576,-434 1611.47,-405.498 1636.28,-357.537 1649.05,-328.23"/>
<polygon fill="midnightblue" stroke="midnightblue" points="1515.56,-464.251 1507.52,-471.155 1518.11,-470.769 1515.56,-464.251"/>
</g>
<!-- Node25 -->
<g id="node25" class="node"><title>Node25</title>
<g id="a_node25"><a xlink:href="../../db/daa/PID_8cxx.html" target="_top" xlink:title="particle ids, masses, names class implementation ">
<polygon fill="none" stroke="black" points="1228,-376 1228,-428 1374,-428 1374,-376 1228,-376"/>
<text text-anchor="start" x="1236" y="-416" font-family="Helvetica,sans-Serif" font-size="10.00">/home/travis/build</text>
<text text-anchor="start" x="1236" y="-405" font-family="Helvetica,sans-Serif" font-size="10.00">/AliceO2Group/AliceO2</text>
<text text-anchor="start" x="1236" y="-394" font-family="Helvetica,sans-Serif" font-size="10.00">/DataFormats/Reconstruction</text>
<text text-anchor="middle" x="1301" y="-383" font-family="Helvetica,sans-Serif" font-size="10.00">/src/PID.cxx</text>
</a>
</g>
</g>
<!-- Node3&#45;&gt;Node25 -->
<g id="edge29" class="edge"><title>Node3&#45;&gt;Node25</title>
<path fill="none" stroke="midnightblue" d="M1369.34,-464.108C1356.21,-452.371 1341.54,-439.252 1329.17,-428.187"/>
<polygon fill="midnightblue" stroke="midnightblue" points="1367.07,-466.776 1376.86,-470.833 1371.73,-461.558 1367.07,-466.776"/>
</g>
<!-- Node5 -->
<g id="node5" class="node"><title>Node5</title>
<g id="a_node5"><a xlink:href="../../d5/d1e/TrackTPCITS_8h.html" target="_top" xlink:title="Result of refitting TPC&#45;ITS matched track. ">
<polygon fill="none" stroke="black" points="1392,-270.5 1392,-333.5 1568,-333.5 1568,-270.5 1392,-270.5"/>
<text text-anchor="start" x="1400" y="-321.5" font-family="Helvetica,sans-Serif" font-size="10.00">/home/travis/build</text>
<text text-anchor="start" x="1400" y="-310.5" font-family="Helvetica,sans-Serif" font-size="10.00">/AliceO2Group/AliceO2</text>
<text text-anchor="start" x="1400" y="-299.5" font-family="Helvetica,sans-Serif" font-size="10.00">/DataFormats/Reconstruction</text>
<text text-anchor="start" x="1400" y="-288.5" font-family="Helvetica,sans-Serif" font-size="10.00">/include/ReconstructionDataFormats</text>
<text text-anchor="middle" x="1480" y="-277.5" font-family="Helvetica,sans-Serif" font-size="10.00">/TrackTPCITS.h</text>
</a>
</g>
</g>
<!-- Node4&#45;&gt;Node5 -->
<g id="edge4" class="edge"><title>Node4&#45;&gt;Node5</title>
<path fill="none" stroke="midnightblue" d="M1480,-360.099C1480,-351.238 1480,-342.015 1480,-333.63"/>
<polygon fill="midnightblue" stroke="midnightblue" points="1476.5,-360.261 1480,-370.261 1483.5,-360.261 1476.5,-360.261"/>
</g>
<!-- Node4&#45;&gt;Node13 -->
<g id="edge13" class="edge"><title>Node4&#45;&gt;Node13</title>
<path fill="none" stroke="midnightblue" d="M1402.92,-366.191C1375.1,-353.625 1344.26,-339.696 1318.62,-328.121"/>
<polygon fill="midnightblue" stroke="midnightblue" points="1401.68,-369.469 1412.23,-370.395 1404.56,-363.09 1401.68,-369.469"/>
</g>
<!-- Node4&#45;&gt;Node14 -->
<g id="edge14" class="edge"><title>Node4&#45;&gt;Node14</title>
<path fill="none" stroke="midnightblue" d="M1545.02,-365.404C1567.64,-353.021 1592.51,-339.401 1613.24,-328.054"/>
<polygon fill="midnightblue" stroke="midnightblue" points="1543.24,-362.389 1536.15,-370.261 1546.6,-368.529 1543.24,-362.389"/>
</g>
<!-- Node4&#45;&gt;Node15 -->
<g id="edge15" class="edge"><title>Node4&#45;&gt;Node15</title>
<path fill="none" stroke="midnightblue" d="M1418.63,-364.582C1406.02,-355.52 1393.43,-345.168 1383,-334 1360.43,-309.819 1370.71,-290.822 1345,-270 1313.2,-244.241 1270.15,-228.952 1233.79,-220.005"/>
<polygon fill="midnightblue" stroke="midnightblue" points="1416.69,-367.497 1426.9,-370.346 1420.7,-361.755 1416.69,-367.497"/>
</g>
<!-- Node6 -->
<g id="node6" class="node"><title>Node6</title>
<g id="a_node6"><a xlink:href="../../db/d65/TrackTPCITS_8cxx.html" target="_top" xlink:title="/home/travis/build\l/AliceO2Group/AliceO2\l/DataFormats/Reconstruction\l/src/TrackTPCITS.cxx">
<polygon fill="none" stroke="black" points="1508,-181 1508,-233 1654,-233 1654,-181 1508,-181"/>
<text text-anchor="start" x="1516" y="-221" font-family="Helvetica,sans-Serif" font-size="10.00">/home/travis/build</text>
<text text-anchor="start" x="1516" y="-210" font-family="Helvetica,sans-Serif" font-size="10.00">/AliceO2Group/AliceO2</text>
<text text-anchor="start" x="1516" y="-199" font-family="Helvetica,sans-Serif" font-size="10.00">/DataFormats/Reconstruction</text>
<text text-anchor="middle" x="1581" y="-188" font-family="Helvetica,sans-Serif" font-size="10.00">/src/TrackTPCITS.cxx</text>
</a>
</g>
</g>
<!-- Node5&#45;&gt;Node6 -->
<g id="edge5" class="edge"><title>Node5&#45;&gt;Node6</title>
<path fill="none" stroke="midnightblue" d="M1520.88,-263.361C1531.94,-253.179 1543.63,-242.408 1553.74,-233.1"/>
<polygon fill="midnightblue" stroke="midnightblue" points="1518.34,-260.942 1513.35,-270.291 1523.08,-266.092 1518.34,-260.942"/>
</g>
<!-- Node7 -->
<g id="node7" class="node"><title>Node7</title>
<g id="a_node7"><a xlink:href="../../d0/d74/MatchTOF_8h.html" target="_top" xlink:title="Class to perform TOF matching to global tracks. ">
<polygon fill="none" stroke="black" points="1972,-91 1972,-143 2148,-143 2148,-91 1972,-91"/>
<text text-anchor="start" x="1980" y="-131" font-family="Helvetica,sans-Serif" font-size="10.00">/home/travis/build</text>
<text text-anchor="start" x="1980" y="-120" font-family="Helvetica,sans-Serif" font-size="10.00">/AliceO2Group/AliceO2</text>
<text text-anchor="start" x="1980" y="-109" font-family="Helvetica,sans-Serif" font-size="10.00">/Detectors/GlobalTracking</text>
<text text-anchor="middle" x="2060" y="-98" font-family="Helvetica,sans-Serif" font-size="10.00">/include/GlobalTracking/MatchTOF.h</text>
</a>
</g>
</g>
<!-- Node5&#45;&gt;Node7 -->
<g id="edge6" class="edge"><title>Node5&#45;&gt;Node7</title>
<path fill="none" stroke="midnightblue" d="M1474.65,-260.111C1473.63,-233.391 1477.5,-199.883 1499,-180 1536.88,-144.967 1911.13,-152.652 1962,-144 1965.21,-143.454 1968.47,-142.851 1971.75,-142.202"/>
<polygon fill="midnightblue" stroke="midnightblue" points="1471.17,-260.58 1475.28,-270.345 1478.16,-260.148 1471.17,-260.58"/>
</g>
<!-- Node10 -->
<g id="node10" class="node"><title>Node10</title>
<g id="a_node10"><a xlink:href="../../d3/dac/MatchTPCITS_8h.html" target="_top" xlink:title="Class to perform TPC ITS matching. ">
<polygon fill="none" stroke="black" points="1840.5,-181 1840.5,-233 2033.5,-233 2033.5,-181 1840.5,-181"/>
<text text-anchor="start" x="1848.5" y="-221" font-family="Helvetica,sans-Serif" font-size="10.00">/home/travis/build</text>
<text text-anchor="start" x="1848.5" y="-210" font-family="Helvetica,sans-Serif" font-size="10.00">/AliceO2Group/AliceO2</text>
<text text-anchor="start" x="1848.5" y="-199" font-family="Helvetica,sans-Serif" font-size="10.00">/Detectors/GlobalTracking</text>
<text text-anchor="middle" x="1937" y="-188" font-family="Helvetica,sans-Serif" font-size="10.00">/include/GlobalTracking/MatchTPCITS.h</text>
</a>
</g>
</g>
<!-- Node5&#45;&gt;Node10 -->
<g id="edge9" class="edge"><title>Node5&#45;&gt;Node10</title>
<path fill="none" stroke="midnightblue" d="M1578.11,-269.839C1672.2,-247.266 1769.95,-231.205 1840.37,-220.922"/>
<polygon fill="midnightblue" stroke="midnightblue" points="1577.03,-266.499 1568.14,-272.26 1578.68,-273.302 1577.03,-266.499"/>
</g>
<!-- Node7&#45;&gt;Node8 -->
<g id="edge7" class="edge"><title>Node7&#45;&gt;Node8</title>
<path fill="none" stroke="midnightblue" d="M1961.66,-90.1569C1604.02,-39.7782 538.159,-30.0572 261.935,-28.3383"/>
<polygon fill="midnightblue" stroke="midnightblue" points="1961.38,-93.6525 1971.78,-91.6211 1962.38,-86.7247 1961.38,-93.6525"/>
</g>
<!-- Node9 -->
<g id="node9" class="node"><title>Node9</title>
<g id="a_node9"><a xlink:href="../../dd/d7c/run__match__tof_8C.html" target="_top" xlink:title="/home/travis/build\l/AliceO2Group/AliceO2\l/macro/run_match_tof.C">
<polygon fill="none" stroke="black" points="1858,-6.5 1858,-47.5 1980,-47.5 1980,-6.5 1858,-6.5"/>
<text text-anchor="start" x="1866" y="-35.5" font-family="Helvetica,sans-Serif" font-size="10.00">/home/travis/build</text>
<text text-anchor="start" x="1866" y="-24.5" font-family="Helvetica,sans-Serif" font-size="10.00">/AliceO2Group/AliceO2</text>
<text text-anchor="middle" x="1919" y="-13.5" font-family="Helvetica,sans-Serif" font-size="10.00">/macro/run_match_tof.C</text>
</a>
</g>
</g>
<!-- Node7&#45;&gt;Node9 -->
<g id="edge8" class="edge"><title>Node7&#45;&gt;Node9</title>
<path fill="none" stroke="midnightblue" d="M2010.88,-85.3452C1990.83,-72.828 1968.22,-58.7191 1950.45,-47.6283"/>
<polygon fill="midnightblue" stroke="midnightblue" points="2009.26,-88.4573 2019.6,-90.7827 2012.96,-82.5189 2009.26,-88.4573"/>
</g>
<!-- Node10&#45;&gt;Node7 -->
<g id="edge10" class="edge"><title>Node10&#45;&gt;Node7</title>
<path fill="none" stroke="midnightblue" d="M1980.58,-174.824C1995.05,-164.467 2010.98,-153.071 2024.75,-143.221"/>
<polygon fill="midnightblue" stroke="midnightblue" points="1978.34,-172.118 1972.25,-180.783 1982.42,-177.811 1978.34,-172.118"/>
</g>
<!-- Node10&#45;&gt;Node11 -->
<g id="edge11" class="edge"><title>Node10&#45;&gt;Node11</title>
<path fill="none" stroke="midnightblue" d="M2039.52,-178.204C2076.37,-167.888 2118.17,-155.815 2156,-144 2159.33,-142.961 2162.73,-141.876 2166.16,-140.766"/>
<polygon fill="midnightblue" stroke="midnightblue" points="2038.46,-174.867 2029.77,-180.926 2040.34,-181.61 2038.46,-174.867"/>
</g>
<!-- Node12 -->
<g id="node12" class="node"><title>Node12</title>
<g id="a_node12"><a xlink:href="../../d9/d84/run__match__TPCITS_8C.html" target="_top" xlink:title="/home/travis/build\l/AliceO2Group/AliceO2\l/macro/run_match_TPCITS.C">
<polygon fill="none" stroke="black" points="1806.5,-96.5 1806.5,-137.5 1953.5,-137.5 1953.5,-96.5 1806.5,-96.5"/>
<text text-anchor="start" x="1814.5" y="-125.5" font-family="Helvetica,sans-Serif" font-size="10.00">/home/travis/build</text>
<text text-anchor="start" x="1814.5" y="-114.5" font-family="Helvetica,sans-Serif" font-size="10.00">/AliceO2Group/AliceO2</text>
<text text-anchor="middle" x="1880" y="-103.5" font-family="Helvetica,sans-Serif" font-size="10.00">/macro/run_match_TPCITS.C</text>
</a>
</g>
</g>
<!-- Node10&#45;&gt;Node12 -->
<g id="edge12" class="edge"><title>Node10&#45;&gt;Node12</title>
<path fill="none" stroke="midnightblue" d="M1914.91,-171.889C1907.36,-160.243 1899.19,-147.623 1892.65,-137.525"/>
<polygon fill="midnightblue" stroke="midnightblue" points="1912.14,-174.056 1920.51,-180.547 1918.01,-170.251 1912.14,-174.056"/>
</g>
<!-- Node15&#45;&gt;Node8 -->
<g id="edge17" class="edge"><title>Node15&#45;&gt;Node8</title>
<path fill="none" stroke="midnightblue" d="M1080.36,-206.351C862.29,-206.506 278.357,-201.492 215,-144 190.215,-121.509 189.388,-80.2285 191.995,-53.4624"/>
<polygon fill="midnightblue" stroke="midnightblue" points="1080.47,-209.851 1090.47,-206.34 1080.47,-202.851 1080.47,-209.851"/>
</g>
<!-- Node15&#45;&gt;Node9 -->
<g id="edge22" class="edge"><title>Node15&#45;&gt;Node9</title>
<path fill="none" stroke="midnightblue" d="M1243.72,-199.251C1401.8,-185.952 1735.98,-156.564 1758,-144 1783.94,-129.2 1775.22,-109.318 1798,-90 1818.79,-72.3665 1845.45,-58.024 1868.45,-47.5923"/>
<polygon fill="midnightblue" stroke="midnightblue" points="1243.23,-195.779 1233.56,-200.103 1243.82,-202.754 1243.23,-195.779"/>
</g>
<!-- Node15&#45;&gt;Node11 -->
<g id="edge18" class="edge"><title>Node15&#45;&gt;Node11</title>
<path fill="none" stroke="midnightblue" d="M1243.88,-199.171C1312.1,-193.604 1411.84,-185.75 1499,-180 1790.8,-160.751 1868.95,-199.856 2156,-144 2159.42,-143.334 2162.9,-142.55 2166.39,-141.678"/>
<polygon fill="midnightblue" stroke="midnightblue" points="1243.31,-195.706 1233.62,-200.01 1243.88,-202.682 1243.31,-195.706"/>
</g>
<!-- Node15&#45;&gt;Node12 -->
<g id="edge23" class="edge"><title>Node15&#45;&gt;Node12</title>
<path fill="none" stroke="midnightblue" d="M1243.68,-198.832C1401.93,-184.815 1739.45,-154.252 1792,-144 1800.91,-142.261 1810.22,-140.008 1819.3,-137.555"/>
<polygon fill="midnightblue" stroke="midnightblue" points="1243.17,-195.363 1233.52,-199.73 1243.79,-202.335 1243.17,-195.363"/>
</g>
<!-- Node16 -->
<g id="node16" class="node"><title>Node16</title>
<g id="a_node16"><a xlink:href="../../d8/dee/Propagator_8cxx.html" target="_top" xlink:title="/home/travis/build\l/AliceO2Group/AliceO2\l/Detectors/Base/src/Propagator.cxx">
<polygon fill="none" stroke="black" points="1168.5,-96.5 1168.5,-137.5 1341.5,-137.5 1341.5,-96.5 1168.5,-96.5"/>
<text text-anchor="start" x="1176.5" y="-125.5" font-family="Helvetica,sans-Serif" font-size="10.00">/home/travis/build</text>
<text text-anchor="start" x="1176.5" y="-114.5" font-family="Helvetica,sans-Serif" font-size="10.00">/AliceO2Group/AliceO2</text>
<text text-anchor="middle" x="1255" y="-103.5" font-family="Helvetica,sans-Serif" font-size="10.00">/Detectors/Base/src/Propagator.cxx</text>
</a>
</g>
</g>
<!-- Node15&#45;&gt;Node16 -->
<g id="edge16" class="edge"><title>Node15&#45;&gt;Node16</title>
<path fill="none" stroke="midnightblue" d="M1196.25,-173.594C1209.04,-161.487 1223.17,-148.118 1234.37,-137.525"/>
<polygon fill="midnightblue" stroke="midnightblue" points="1193.76,-171.131 1188.9,-180.547 1198.57,-176.216 1193.76,-171.131"/>
</g>
<!-- Node17 -->
<g id="node17" class="node"><title>Node17</title>
<g id="a_node17"><a xlink:href="../../d7/dca/CookedTracker_8cxx.html" target="_top" xlink:title="Implementation of the &quot;Cooked Matrix&quot; ITS tracker. ">
<polygon fill="none" stroke="black" points="1360,-91 1360,-143 1546,-143 1546,-91 1360,-91"/>
<text text-anchor="start" x="1368" y="-131" font-family="Helvetica,sans-Serif" font-size="10.00">/home/travis/build</text>
<text text-anchor="start" x="1368" y="-120" font-family="Helvetica,sans-Serif" font-size="10.00">/AliceO2Group/AliceO2</text>
<text text-anchor="start" x="1368" y="-109" font-family="Helvetica,sans-Serif" font-size="10.00">/Detectors/ITSMFT/ITS</text>
<text text-anchor="middle" x="1453" y="-98" font-family="Helvetica,sans-Serif" font-size="10.00">/reconstruction/src/CookedTracker.cxx</text>
</a>
</g>
</g>
<!-- Node15&#45;&gt;Node17 -->
<g id="edge19" class="edge"><title>Node15&#45;&gt;Node17</title>
<path fill="none" stroke="midnightblue" d="M1243.18,-181.451C1282.77,-169.48 1330.3,-155.104 1370.11,-143.066"/>
<polygon fill="midnightblue" stroke="midnightblue" points="1242.12,-178.115 1233.56,-184.36 1244.14,-184.816 1242.12,-178.115"/>
</g>
<!-- Node18 -->
<g id="node18" class="node"><title>Node18</title>
<g id="a_node18"><a xlink:href="../../d6/dbc/CookedTrackerSpec_8cxx.html" target="_top" xlink:title="/home/travis/build\l/AliceO2Group/AliceO2\l/Detectors/ITSMFT/ITS\l/workflow/src/CookedTrackerSpec.cxx">
<polygon fill="none" stroke="black" points="1564,-91 1564,-143 1750,-143 1750,-91 1564,-91"/>
<text text-anchor="start" x="1572" y="-131" font-family="Helvetica,sans-Serif" font-size="10.00">/home/travis/build</text>
<text text-anchor="start" x="1572" y="-120" font-family="Helvetica,sans-Serif" font-size="10.00">/AliceO2Group/AliceO2</text>
<text text-anchor="start" x="1572" y="-109" font-family="Helvetica,sans-Serif" font-size="10.00">/Detectors/ITSMFT/ITS</text>
<text text-anchor="middle" x="1657" y="-98" font-family="Helvetica,sans-Serif" font-size="10.00">/workflow/src/CookedTrackerSpec.cxx</text>
</a>
</g>
</g>
<!-- Node15&#45;&gt;Node18 -->
<g id="edge20" class="edge"><title>Node15&#45;&gt;Node18</title>
<path fill="none" stroke="midnightblue" d="M1243.48,-195.303C1323.04,-184.343 1447.36,-165.847 1554,-144 1557.25,-143.334 1560.56,-142.633 1563.89,-141.905"/>
<polygon fill="midnightblue" stroke="midnightblue" points="1242.95,-191.842 1233.52,-196.667 1243.9,-198.777 1242.95,-191.842"/>
</g>
<!-- Node19 -->
<g id="node19" class="node"><title>Node19</title>
<g id="a_node19"><a xlink:href="../../d7/da1/TrackerSpec_8cxx.html" target="_top" xlink:title="/home/travis/build\l/AliceO2Group/AliceO2\l/Detectors/ITSMFT/ITS\l/workflow/src/TrackerSpec.cxx">
<polygon fill="none" stroke="black" points="224,-91 224,-143 376,-143 376,-91 224,-91"/>
<text text-anchor="start" x="232" y="-131" font-family="Helvetica,sans-Serif" font-size="10.00">/home/travis/build</text>
<text text-anchor="start" x="232" y="-120" font-family="Helvetica,sans-Serif" font-size="10.00">/AliceO2Group/AliceO2</text>
<text text-anchor="start" x="232" y="-109" font-family="Helvetica,sans-Serif" font-size="10.00">/Detectors/ITSMFT/ITS</text>
<text text-anchor="middle" x="300" y="-98" font-family="Helvetica,sans-Serif" font-size="10.00">/workflow/src/TrackerSpec.cxx</text>
</a>
</g>
</g>
<!-- Node15&#45;&gt;Node19 -->
<g id="edge21" class="edge"><title>Node15&#45;&gt;Node19</title>
<path fill="none" stroke="midnightblue" d="M1079.93,-205.284C937.343,-202.748 635.137,-191.649 385,-144 382.12,-143.451 379.199,-142.841 376.259,-142.181"/>
<polygon fill="midnightblue" stroke="midnightblue" points="1080.28,-208.79 1090.34,-205.459 1080.4,-201.791 1080.28,-208.79"/>
</g>
<!-- Node20 -->
<g id="node20" class="node"><title>Node20</title>
<g id="a_node20"><a xlink:href="../../dc/d97/run__rec__ca_8C.html" target="_top" xlink:title="/home/travis/build\l/AliceO2Group/AliceO2\l/macro/run_rec_ca.C">
<polygon fill="none" stroke="black" points="394,-96.5 394,-137.5 512,-137.5 512,-96.5 394,-96.5"/>
<text text-anchor="start" x="402" y="-125.5" font-family="Helvetica,sans-Serif" font-size="10.00">/home/travis/build</text>
<text text-anchor="start" x="402" y="-114.5" font-family="Helvetica,sans-Serif" font-size="10.00">/AliceO2Group/AliceO2</text>
<text text-anchor="middle" x="453" y="-103.5" font-family="Helvetica,sans-Serif" font-size="10.00">/macro/run_rec_ca.C</text>
</a>
</g>
</g>
<!-- Node15&#45;&gt;Node20 -->
<g id="edge24" class="edge"><title>Node15&#45;&gt;Node20</title>
<path fill="none" stroke="midnightblue" d="M1080.23,-205.082C957.276,-202.14 718.17,-190.335 521,-144 513.864,-142.323 506.471,-140.071 499.303,-137.591"/>
<polygon fill="midnightblue" stroke="midnightblue" points="1080.24,-208.583 1090.32,-205.309 1080.4,-201.585 1080.24,-208.583"/>
</g>
<!-- Node21 -->
<g id="node21" class="node"><title>Node21</title>
<g id="a_node21"><a xlink:href="../../da/d77/run__test__vert__ca__its_8C.html" target="_top" xlink:title="/home/travis/build\l/AliceO2Group/AliceO2\l/macro/run_test_vert_ca_its.C">
<polygon fill="none" stroke="black" points="530.5,-96.5 530.5,-137.5 679.5,-137.5 679.5,-96.5 530.5,-96.5"/>
<text text-anchor="start" x="538.5" y="-125.5" font-family="Helvetica,sans-Serif" font-size="10.00">/home/travis/build</text>
<text text-anchor="start" x="538.5" y="-114.5" font-family="Helvetica,sans-Serif" font-size="10.00">/AliceO2Group/AliceO2</text>
<text text-anchor="middle" x="605" y="-103.5" font-family="Helvetica,sans-Serif" font-size="10.00">/macro/run_test_vert_ca_its.C</text>
</a>
</g>
</g>
<!-- Node15&#45;&gt;Node21 -->
<g id="edge25" class="edge"><title>Node15&#45;&gt;Node21</title>
<path fill="none" stroke="midnightblue" d="M1080.14,-199.637C985.058,-191.248 823.873,-173.93 688,-144 679.889,-142.213 671.433,-139.994 663.153,-137.611"/>
<polygon fill="midnightblue" stroke="midnightblue" points="1080,-203.138 1090.26,-200.519 1080.6,-196.165 1080,-203.138"/>
</g>
<!-- Node22 -->
<g id="node22" class="node"><title>Node22</title>
<g id="a_node22"><a xlink:href="../../d6/db2/run__trac__ca__its_8C.html" target="_top" xlink:title="/home/travis/build\l/AliceO2Group/AliceO2\l/macro/run_trac_ca_its.C">
<polygon fill="none" stroke="black" points="697.5,-96.5 697.5,-137.5 824.5,-137.5 824.5,-96.5 697.5,-96.5"/>
<text text-anchor="start" x="705.5" y="-125.5" font-family="Helvetica,sans-Serif" font-size="10.00">/home/travis/build</text>
<text text-anchor="start" x="705.5" y="-114.5" font-family="Helvetica,sans-Serif" font-size="10.00">/AliceO2Group/AliceO2</text>
<text text-anchor="middle" x="761" y="-103.5" font-family="Helvetica,sans-Serif" font-size="10.00">/macro/run_trac_ca_its.C</text>
</a>
</g>
</g>
<!-- Node15&#45;&gt;Node22 -->
<g id="edge26" class="edge"><title>Node15&#45;&gt;Node22</title>
<path fill="none" stroke="midnightblue" d="M1080.25,-194.329C1013.17,-183.864 916.069,-166.669 833,-144 826.205,-142.146 819.137,-139.945 812.201,-137.62"/>
<polygon fill="midnightblue" stroke="midnightblue" points="1079.92,-197.819 1090.33,-195.887 1080.99,-190.901 1079.92,-197.819"/>
</g>
<!-- Node23 -->
<g id="node23" class="node"><title>Node23</title>
<g id="a_node23"><a xlink:href="../../d4/da9/run__vert__ca__its_8C.html" target="_top" xlink:title="/home/travis/build\l/AliceO2Group/AliceO2\l/macro/run_vert_ca_its.C">
<polygon fill="none" stroke="black" points="842.5,-96.5 842.5,-137.5 969.5,-137.5 969.5,-96.5 842.5,-96.5"/>
<text text-anchor="start" x="850.5" y="-125.5" font-family="Helvetica,sans-Serif" font-size="10.00">/home/travis/build</text>
<text text-anchor="start" x="850.5" y="-114.5" font-family="Helvetica,sans-Serif" font-size="10.00">/AliceO2Group/AliceO2</text>
<text text-anchor="middle" x="906" y="-103.5" font-family="Helvetica,sans-Serif" font-size="10.00">/macro/run_vert_ca_its.C</text>
</a>
</g>
</g>
<!-- Node15&#45;&gt;Node23 -->
<g id="edge27" class="edge"><title>Node15&#45;&gt;Node23</title>
<path fill="none" stroke="midnightblue" d="M1080.53,-178.7C1048.81,-167.989 1012.17,-155.524 979,-144 973.027,-141.925 966.787,-139.735 960.579,-137.543"/>
<polygon fill="midnightblue" stroke="midnightblue" points="1079.62,-182.085 1090.21,-181.964 1081.85,-175.452 1079.62,-182.085"/>
</g>
<!-- Node24 -->
<g id="node24" class="node"><title>Node24</title>
<g id="a_node24"><a xlink:href="../../d2/dd7/SimpleDigitizerWorkflow_8cxx.html" target="_top" xlink:title="/home/travis/build\l/AliceO2Group/AliceO2\l/Steer/DigitizerWorkflow\l/src/SimpleDigitizerWorkflow.cxx">
<polygon fill="none" stroke="black" points="988,-91 988,-143 1150,-143 1150,-91 988,-91"/>
<text text-anchor="start" x="996" y="-131" font-family="Helvetica,sans-Serif" font-size="10.00">/home/travis/build</text>
<text text-anchor="start" x="996" y="-120" font-family="Helvetica,sans-Serif" font-size="10.00">/AliceO2Group/AliceO2</text>
<text text-anchor="start" x="996" y="-109" font-family="Helvetica,sans-Serif" font-size="10.00">/Steer/DigitizerWorkflow</text>
<text text-anchor="middle" x="1069" y="-98" font-family="Helvetica,sans-Serif" font-size="10.00">/src/SimpleDigitizerWorkflow.cxx</text>
</a>
</g>
</g>
<!-- Node15&#45;&gt;Node24 -->
<g id="edge28" class="edge"><title>Node15&#45;&gt;Node24</title>
<path fill="none" stroke="midnightblue" d="M1127.58,-173.431C1116.99,-163.407 1105.49,-152.533 1095.52,-143.092"/>
<polygon fill="midnightblue" stroke="midnightblue" points="1125.43,-176.216 1135.1,-180.547 1130.24,-171.131 1125.43,-176.216"/>
</g>
</g>
</svg>
